mtllib lighthouse.mtl
usemtl observer_back
v -2 49 1
v -2 50 1
v -2 51 0
v -2 51 1
v -2 49 2
v -2 50 2
v -2 51 2
v -2 51 3
v -1 49 -1
v -1 50 -1
v -1 49 0
v -1 50 0
v -1 51 -1
v -1 51 0
v -1 49 1
v -1 50 1
v -1 51 1
v -1 49 2
v -1 50 2
v -1 51 2
v -1 51 3
v -1 51 4
v 0 49 -1
v 0 50 -1
v 0 51 -1
v 0 49 0
v 0 50 0
v 0 51 0
v 0 49 3
v 0 49 4
v 0 50 3
v 0 50 4
v 0 51 3
v 0 51 4
v 1 49 -1
v 1 50 -1
v 1 51 -1
v 1 49 0
v 1 50 0
v 1 51 0
v 1 49 3
v 1 49 4
v 1 50 3
v 1 50 4
v 1 51 3
v 1 51 4
v 2 51 -1
v 2 49 0
v 2 50 0
v 2 51 0
v 2 49 3
v 2 49 4
v 2 50 3
v 2 50 4
v 2 51 3
v 2 51 4
v 3 49 0
v 3 50 0
v 3 51 0
v 2 49 1
v 3 49 1
v 2 50 1
v 3 50 1
v 2 51 1
v 3 51 1
v 2 49 2
v 3 49 2
v 2 50 2
v 3 50 2
v 2 51 2
v 3 51 2
v 3 51 3
vt 0.000000000 0.000000000
vt 1.000000000 0.000000000
vt 0.000000000 1.000000000
vt 1.000000000 1.000000000
vn -1 0 0
vn 0 0 -1
vn 1 0 0
vn 0 1 0
vn 0 0 1
f 1/1/5 15/2/5 16/4/5 2/3/5
f 4/1/4 17/2/4 14/4/4 3/3/4
f 5/1/5 18/2/5 19/4/5 6/3/5
f 8/1/4 21/2/4 20/4/4 7/3/4
f 11/2/1 12/4/1 10/3/1 9/1/1
f 14/1/4 28/2/4 25/4/4 13/3/4
f 30/1/3 29/2/3 31/4/3 32/3/3
f 22/1/4 34/2/4 33/4/4 21/3/4
f 26/2/1 27/4/1 24/3/1 23/1/1
f 28/1/4 40/2/4 37/4/4 25/3/4
f 42/1/3 41/2/3 43/4/3 44/3/3
f 34/1/4 46/2/4 45/4/4 33/3/4
f 38/2/1 39/4/1 36/3/1 35/1/1
f 40/1/4 50/2/4 47/4/4 37/3/4
f 52/1/3 51/2/3 53/4/3 54/3/3
f 46/1/4 56/2/4 55/4/4 45/3/4
f 48/2/2 49/4/2 58/3/2 57/1/2
f 64/1/4 65/2/4 59/4/4 50/3/4
f 60/2/2 62/4/2 63/3/2 61/1/2
f 70/1/4 71/2/4 65/4/4 64/3/4
f 66/2/2 68/4/2 69/3/2 67/1/2
f 55/1/4 72/2/4 71/4/4 70/3/4
