mtllib lighthouse.mtl
usemtl lily_pad
v 9 3.03125 -5
v 10 3.03125 -5
v 10 3.03125 -6
v 9 3.03125 -6
v 12 3.03125 -6
v 13 3.03125 -6
v 13 3.03125 -7
v 12 3.03125 -7
v 13 3.03125 -3
v 13 3.03125 -4
v 12 3.03125 -4
v 12 3.03125 -3
v 15 3.03125 1
v 14 3.03125 1
v 14 3.03125 2
v 15 3.03125 2
vt 0.000000000 0.000000000
vt 1.000000000 0.000000000
vt 0.000000000 1.000000000
vt 1.000000000 1.000000000
vn 0 1 0
f 1/1/1 2/2/1 3/4/1 4/3/1
f 5/1/1 6/2/1 7/4/1 8/3/1
f 9/1/1 10/2/1 11/4/1 12/3/1
f 13/1/1 14/2/1 15/4/1 16/3/1
