mtllib lighthouse.mtl
usemtl mangrove_planks
v -4 48.5 0
v -4 48.5 1
v -4 49 0
v -4 49 1
v -3 48.5 0
v -3 48.5 1
v -3 49 0
v -3 49 1
v -3.5 48 0
v -3.5 48 1
v -3.5 48.5 0
v -3.5 48.5 1
v -3 48 0
v -3 48 1
v -3 48.5 0
v -3 48.5 1
v -4 48.5 1
v -4 48.5 2
v -4 49 1
v -4 49 2
v -3 48.5 1
v -3 48.5 2
v -3 49 1
v -3 49 2
v -4 48.5 2
v -4 48.5 3
v -4 49 2
v -4 49 3
v -3 48.5 2
v -3 48.5 3
v -3 49 2
v -3 49 3
v -3.5 48 2
v -3.5 48 3
v -3.5 48.5 2
v -3.5 48.5 3
v -3 48 2
v -3 48 3
v -3 48.5 2
v -3 48.5 3
v -3 48.5 -1
v -3 48.5 0
v -3 49 -1
v -3 49 0
v -2 48.5 -1
v -2 48.5 0
v -2 49 -1
v -2 49 0
v -3 48.5 3
v -3 48.5 4
v -3 49 3
v -3 49 4
v -2 48.5 3
v -2 48.5 4
v -2 49 3
v -2 49 4
v -2 48.5 -2
v -2 48.5 -1
v -2 49 -2
v -2 49 -1
v -1 48.5 -2
v -1 48.5 -1
v -1 49 -2
v -1 49 -1
v -2 48.5 4
v -2 48.5 5
v -2 49 4
v -2 49 5
v -1 48.5 4
v -1 48.5 5
v -1 49 4
v -1 49 5
v -1 48.5 -3
v -1 48.5 -2
v -1 49 -3
v -1 49 -2
v 0 48.5 -3
v 0 48.5 -2
v 0 49 -3
v 0 49 -2
v -1 48 -2.5
v -1 48 -2
v -1 48.5 -2.5
v -1 48.5 -2
v 0 48 -2.5
v 0 48 -2
v 0 48.5 -2.5
v 0 48.5 -2
v -1 48.5 5
v -1 48.5 6
v -1 49 5
v -1 49 6
v 0 48.5 5
v 0 48.5 6
v 0 49 5
v 0 49 6
v -1 48 5
v -1 48 5.5
v -1 48.5 5
v -1 48.5 5.5
v 0 48 5
v 0 48 5.5
v 0 48.5 5
v 0 48.5 5.5
v 0 48.5 -3
v 0 48.5 -2
v 0 49 -3
v 0 49 -2
v 1 48.5 -3
v 1 48.5 -2
v 1 49 -3
v 1 49 -2
v 0 48.5 5
v 0 48.5 6
v 0 49 5
v 0 49 6
v 1 48.5 5
v 1 48.5 6
v 1 49 5
v 1 49 6
v 0 11 7
v 0 11 8
v 0 11.5 7
v 0 11.5 8
v 1 11 7
v 1 11 8
v 1 11.5 7
v 1 11.5 8
v 1 48.5 -3
v 1 48.5 -2
v 1 49 -3
v 1 49 -2
v 2 48.5 -3
v 2 48.5 -2
v 2 49 -3
v 2 49 -2
v 1 48 -2.5
v 1 48 -2
v 1 48.5 -2.5
v 1 48.5 -2
v 2 48 -2.5
v 2 48 -2
v 2 48.5 -2.5
v 2 48.5 -2
v 1 48.5 5
v 1 48.5 6
v 1 49 5
v 1 49 6
v 2 48.5 5
v 2 48.5 6
v 2 49 5
v 2 49 6
v 1 48 5
v 1 48 5.5
v 1 48.5 5
v 1 48.5 5.5
v 2 48 5
v 2 48 5.5
v 2 48.5 5
v 2 48.5 5.5
v 2 48.5 -2
v 2 48.5 -1
v 2 49 -2
v 2 49 -1
v 3 48.5 -2
v 3 48.5 -1
v 3 49 -2
v 3 49 -1
v 2 48.5 4
v 2 48.5 5
v 2 49 4
v 2 49 5
v 3 48.5 4
v 3 48.5 5
v 3 49 4
v 3 49 5
v 3 48.5 -1
v 3 48.5 0
v 3 49 -1
v 3 49 0
v 4 48.5 -1
v 4 48.5 0
v 4 49 -1
v 4 49 0
v 3 48.5 3
v 3 48.5 4
v 3 49 3
v 3 49 4
v 4 48.5 3
v 4 48.5 4
v 4 49 3
v 4 49 4
v 3 9.5 4
v 3 9.5 5
v 3 10 4
v 3 10 5
v 4 9.5 4
v 4 9.5 5
v 4 10 4
v 4 10 5
v 3.5 9 4
v 3.5 9 5
v 3.5 9.5 4
v 3.5 9.5 5
v 4 9 4
v 4 9 5
v 4 9.5 4
v 4 9.5 5
v 4 48.5 0
v 4 48.5 1
v 4 49 0
v 4 49 1
v 5 48.5 0
v 5 48.5 1
v 5 49 0
v 5 49 1
v 4 48 0
v 4 48 1
v 4 48.5 0
v 4 48.5 1
v 4.5 48 0
v 4.5 48 1
v 4.5 48.5 0
v 4.5 48.5 1
v 4 48.5 1
v 4 48.5 2
v 4 49 1
v 4 49 2
v 5 48.5 1
v 5 48.5 2
v 5 49 1
v 5 49 2
v 4 48.5 2
v 4 48.5 3
v 4 49 2
v 4 49 3
v 5 48.5 2
v 5 48.5 3
v 5 49 2
v 5 49 3
v 4 48 2
v 4 48 3
v 4 48.5 2
v 4 48.5 3
v 4.5 48 2
v 4.5 48 3
v 4.5 48.5 2
v 4.5 48.5 3
v -4 49 0
v -4 49 1
v -4 50 1
v -4 50 0
v -3 49 1
v -3 49 0
v -3 50 0
v -3 50 1
v -4 49 2
v -4 50 2
v -3 49 2
v -3 50 2
v -4 49 3
v -4 50 3
v -3 49 3
v -3 50 3
v -3 49 -1
v -3 50 -1
v -2 49 0
v -2 49 -1
v -2 50 -1
v -2 50 0
v -2 49 3
v -2 50 3
v -3 49 4
v -3 50 4
v -2 49 4
v -2 50 4
v -2 49 -2
v -2 50 -2
v -1 49 -1
v -1 49 -2
v -1 50 -2
v -1 50 -1
v -1 49 4
v -1 50 4
v -2 49 5
v -2 50 5
v -1 49 5
v -1 50 5
v -1 49 -3
v -1 50 -3
v 0 49 -2
v 0 49 -3
v 0 50 -3
v 0 50 -2
v 0 49 5
v 0 50 5
v -1 49 6
v -1 50 6
v 0 49 6
v 0 50 6
v 1 49 -2
v 1 49 -3
v 1 50 -3
v 1 50 -2
v 1 49 5
v 1 50 5
v 1 49 6
v 1 50 6
v 2 49 -2
v 2 49 -3
v 2 50 -3
v 2 50 -2
v 2 49 -1
v 2 50 -1
v 2 49 4
v 2 50 4
v 2 49 5
v 2 50 5
v 2 49 6
v 2 50 6
v 3 49 -1
v 3 49 -2
v 3 50 -2
v 3 50 -1
v 3 49 0
v 3 50 0
v 3 49 3
v 3 50 3
v 3 49 4
v 3 50 4
v 3 49 5
v 3 50 5
v 4 49 0
v 4 49 -1
v 4 50 -1
v 4 50 0
v 4 49 1
v 4 50 1
v 4 49 2
v 4 50 2
v 4 49 3
v 4 50 3
v 4 49 4
v 4 50 4
v 5 49 1
v 5 49 0
v 5 50 0
v 5 50 1
v 5 49 2
v 5 50 2
v 5 49 3
v 5 50 3
vt 0.000000000 0.000000000
vt 0.500000000 0.000000000
vt 1.000000000 0.000000000
vt 0.000000000 0.500000000
vt 0.500000000 0.500000000
vt 1.000000000 0.500000000
vt 0.000000000 1.000000000
vt 0.500000000 1.000000000
vt 1.000000000 1.000000000
vn -1 0 0
vn 0 -1 0
vn 0 0 -1
vn 1 0 0
vn 0 1 0
vn 0 0 1
f 3/7/1 1/4/1 2/6/1 4/9/1
f 2/7/2 1/1/2 5/3/2 6/9/2
f 7/7/3 5/4/3 1/6/3 3/9/3
f 7/9/4 8/7/4 6/4/4 5/6/4
f 7/9/5 3/7/5 4/1/5 8/3/5
f 8/9/6 4/7/6 2/4/6 6/6/6
f 11/4/1 9/1/1 10/3/1 12/6/1
f 10/8/2 9/2/2 13/3/2 14/9/2
f 15/4/3 13/1/3 9/2/3 11/5/3
f 15/6/4 16/4/4 14/1/4 13/3/4
f 16/6/6 12/5/6 10/2/6 14/3/6
f 19/7/1 17/4/1 18/6/1 20/9/1
f 18/7/2 17/1/2 21/3/2 22/9/2
f 23/7/3 21/4/3 17/6/3 19/9/3
f 23/9/4 24/7/4 22/4/4 21/6/4
f 23/9/5 19/7/5 20/1/5 24/3/5
f 24/9/6 20/7/6 18/4/6 22/6/6
f 27/7/1 25/4/1 26/6/1 28/9/1
f 26/7/2 25/1/2 29/3/2 30/9/2
f 31/7/3 29/4/3 25/6/3 27/9/3
f 31/9/4 32/7/4 30/4/4 29/6/4
f 31/9/5 27/7/5 28/1/5 32/3/5
f 32/9/6 28/7/6 26/4/6 30/6/6
f 35/4/1 33/1/1 34/3/1 36/6/1
f 34/8/2 33/2/2 37/3/2 38/9/2
f 39/4/3 37/1/3 33/2/3 35/5/3
f 39/6/4 40/4/4 38/1/4 37/3/4
f 40/6/6 36/5/6 34/2/6 38/3/6
f 43/7/1 41/4/1 42/6/1 44/9/1
f 42/7/2 41/1/2 45/3/2 46/9/2
f 47/7/3 45/4/3 41/6/3 43/9/3
f 47/9/4 48/7/4 46/4/4 45/6/4
f 47/9/5 43/7/5 44/1/5 48/3/5
f 48/9/6 44/7/6 42/4/6 46/6/6
f 51/7/1 49/4/1 50/6/1 52/9/1
f 50/7/2 49/1/2 53/3/2 54/9/2
f 55/7/3 53/4/3 49/6/3 51/9/3
f 55/9/4 56/7/4 54/4/4 53/6/4
f 55/9/5 51/7/5 52/1/5 56/3/5
f 56/9/6 52/7/6 50/4/6 54/6/6
f 59/7/1 57/4/1 58/6/1 60/9/1
f 58/7/2 57/1/2 61/3/2 62/9/2
f 63/7/3 61/4/3 57/6/3 59/9/3
f 63/9/4 64/7/4 62/4/4 61/6/4
f 63/9/5 59/7/5 60/1/5 64/3/5
f 64/9/6 60/7/6 58/4/6 62/6/6
f 67/7/1 65/4/1 66/6/1 68/9/1
f 66/7/2 65/1/2 69/3/2 70/9/2
f 71/7/3 69/4/3 65/6/3 67/9/3
f 71/9/4 72/7/4 70/4/4 69/6/4
f 71/9/5 67/7/5 68/1/5 72/3/5
f 72/9/6 68/7/6 66/4/6 70/6/6
f 75/7/1 73/4/1 74/6/1 76/9/1
f 74/7/2 73/1/2 77/3/2 78/9/2
f 79/7/3 77/4/3 73/6/3 75/9/3
f 79/9/4 80/7/4 78/4/4 77/6/4
f 79/9/5 75/7/5 76/1/5 80/3/5
f 80/9/6 76/7/6 74/4/6 78/6/6
f 83/5/1 81/2/1 82/3/1 84/6/1
f 82/4/2 81/1/2 85/3/2 86/6/2
f 87/4/3 85/1/3 81/3/3 83/6/3
f 87/5/4 88/4/4 86/1/4 85/2/4
f 88/6/6 84/4/6 82/1/6 86/3/6
f 91/7/1 89/4/1 90/6/1 92/9/1
f 90/7/2 89/1/2 93/3/2 94/9/2
f 95/7/3 93/4/3 89/6/3 91/9/3
f 95/9/4 96/7/4 94/4/4 93/6/4
f 95/9/5 91/7/5 92/1/5 96/3/5
f 96/9/6 92/7/6 90/4/6 94/6/6
f 99/4/1 97/1/1 98/2/1 100/5/1
f 98/7/2 97/4/2 101/6/2 102/9/2
f 103/4/3 101/1/3 97/3/3 99/6/3
f 103/6/4 104/5/4 102/2/4 101/3/4
f 104/6/6 100/4/6 98/1/6 102/3/6
f 107/7/1 105/4/1 106/6/1 108/9/1
f 106/7/2 105/1/2 109/3/2 110/9/2
f 111/7/3 109/4/3 105/6/3 107/9/3
f 111/9/4 112/7/4 110/4/4 109/6/4
f 111/9/5 107/7/5 108/1/5 112/3/5
f 112/9/6 108/7/6 106/4/6 110/6/6
f 115/7/1 113/4/1 114/6/1 116/9/1
f 114/7/2 113/1/2 117/3/2 118/9/2
f 119/7/3 117/4/3 113/6/3 115/9/3
f 119/9/4 120/7/4 118/4/4 117/6/4
f 119/9/5 115/7/5 116/1/5 120/3/5
f 120/9/6 116/7/6 114/4/6 118/6/6
f 123/4/1 121/1/1 122/3/1 124/6/1
f 122/7/2 121/1/2 125/3/2 126/9/2
f 127/4/3 125/1/3 121/3/3 123/6/3
f 127/6/4 128/4/4 126/1/4 125/3/4
f 127/9/5 123/7/5 124/1/5 128/3/5
f 128/6/6 124/4/6 122/1/6 126/3/6
f 131/7/1 129/4/1 130/6/1 132/9/1
f 130/7/2 129/1/2 133/3/2 134/9/2
f 135/7/3 133/4/3 129/6/3 131/9/3
f 135/9/4 136/7/4 134/4/4 133/6/4
f 135/9/5 131/7/5 132/1/5 136/3/5
f 136/9/6 132/7/6 130/4/6 134/6/6
f 139/5/1 137/2/1 138/3/1 140/6/1
f 138/4/2 137/1/2 141/3/2 142/6/2
f 143/4/3 141/1/3 137/3/3 139/6/3
f 143/5/4 144/4/4 142/1/4 141/2/4
f 144/6/6 140/4/6 138/1/6 142/3/6
f 147/7/1 145/4/1 146/6/1 148/9/1
f 146/7/2 145/1/2 149/3/2 150/9/2
f 151/7/3 149/4/3 145/6/3 147/9/3
f 151/9/4 152/7/4 150/4/4 149/6/4
f 151/9/5 147/7/5 148/1/5 152/3/5
f 152/9/6 148/7/6 146/4/6 150/6/6
f 155/4/1 153/1/1 154/2/1 156/5/1
f 154/7/2 153/4/2 157/6/2 158/9/2
f 159/4/3 157/1/3 153/3/3 155/6/3
f 159/6/4 160/5/4 158/2/4 157/3/4
f 160/6/6 156/4/6 154/1/6 158/3/6
f 163/7/1 161/4/1 162/6/1 164/9/1
f 162/7/2 161/1/2 165/3/2 166/9/2
f 167/7/3 165/4/3 161/6/3 163/9/3
f 167/9/4 168/7/4 166/4/4 165/6/4
f 167/9/5 163/7/5 164/1/5 168/3/5
f 168/9/6 164/7/6 162/4/6 166/6/6
f 171/7/1 169/4/1 170/6/1 172/9/1
f 170/7/2 169/1/2 173/3/2 174/9/2
f 175/7/3 173/4/3 169/6/3 171/9/3
f 175/9/4 176/7/4 174/4/4 173/6/4
f 175/9/5 171/7/5 172/1/5 176/3/5
f 176/9/6 172/7/6 170/4/6 174/6/6
f 179/7/1 177/4/1 178/6/1 180/9/1
f 178/7/2 177/1/2 181/3/2 182/9/2
f 183/7/3 181/4/3 177/6/3 179/9/3
f 183/9/4 184/7/4 182/4/4 181/6/4
f 183/9/5 179/7/5 180/1/5 184/3/5
f 184/9/6 180/7/6 178/4/6 182/6/6
f 187/7/1 185/4/1 186/6/1 188/9/1
f 186/7/2 185/1/2 189/3/2 190/9/2
f 191/7/3 189/4/3 185/6/3 187/9/3
f 191/9/4 192/7/4 190/4/4 189/6/4
f 191/9/5 187/7/5 188/1/5 192/3/5
f 192/9/6 188/7/6 186/4/6 190/6/6
f 195/7/1 193/4/1 194/6/1 196/9/1
f 194/7/2 193/1/2 197/3/2 198/9/2
f 199/7/3 197/4/3 193/6/3 195/9/3
f 199/9/4 200/7/4 198/4/4 197/6/4
f 199/9/5 195/7/5 196/1/5 200/3/5
f 200/9/6 196/7/6 194/4/6 198/6/6
f 203/4/1 201/1/1 202/3/1 204/6/1
f 202/8/2 201/2/2 205/3/2 206/9/2
f 207/4/3 205/1/3 201/2/3 203/5/3
f 207/6/4 208/4/4 206/1/4 205/3/4
f 208/6/6 204/5/6 202/2/6 206/3/6
f 211/7/1 209/4/1 210/6/1 212/9/1
f 210/7/2 209/1/2 213/3/2 214/9/2
f 215/7/3 213/4/3 209/6/3 211/9/3
f 215/9/4 216/7/4 214/4/4 213/6/4
f 215/9/5 211/7/5 212/1/5 216/3/5
f 216/9/6 212/7/6 210/4/6 214/6/6
f 219/4/1 217/1/1 218/3/1 220/6/1
f 218/7/2 217/1/2 221/2/2 222/8/2
f 223/5/3 221/2/3 217/3/3 219/6/3
f 223/6/4 224/4/4 222/1/4 221/3/4
f 224/5/6 220/4/6 218/1/6 222/2/6
f 227/7/1 225/4/1 226/6/1 228/9/1
f 226/7/2 225/1/2 229/3/2 230/9/2
f 231/7/3 229/4/3 225/6/3 227/9/3
f 231/9/4 232/7/4 230/4/4 229/6/4
f 231/9/5 227/7/5 228/1/5 232/3/5
f 232/9/6 228/7/6 226/4/6 230/6/6
f 235/7/1 233/4/1 234/6/1 236/9/1
f 234/7/2 233/1/2 237/3/2 238/9/2
f 239/7/3 237/4/3 233/6/3 235/9/3
f 239/9/4 240/7/4 238/4/4 237/6/4
f 239/9/5 235/7/5 236/1/5 240/3/5
f 240/9/6 236/7/6 234/4/6 238/6/6
f 243/4/1 241/1/1 242/3/1 244/6/1
f 242/7/2 241/1/2 245/2/2 246/8/2
f 247/5/3 245/2/3 241/3/3 243/6/3
f 247/6/4 248/4/4 246/1/4 245/3/4
f 248/5/6 244/4/6 242/1/6 246/2/6
f 250/3/1 251/9/1 252/7/1 249/1/1
f 250/7/2 249/1/2 254/3/2 253/9/2
f 249/3/3 252/9/3 255/7/3 254/1/3
f 253/1/4 254/3/4 255/9/4 256/7/4
f 251/1/5 256/3/5 255/9/5 252/7/5
f 250/1/6 253/3/6 256/9/6 251/7/6
f 257/3/1 258/9/1 251/7/1 250/1/1
f 257/7/2 250/1/2 253/3/2 259/9/2
f 250/3/3 251/9/3 256/7/3 253/1/3
f 259/1/4 253/3/4 256/9/4 260/7/4
f 258/1/5 260/3/5 256/9/5 251/7/5
f 257/1/6 259/3/6 260/9/6 258/7/6
f 261/3/1 262/9/1 258/7/1 257/1/1
f 261/7/2 257/1/2 259/3/2 263/9/2
f 257/3/3 258/9/3 260/7/3 259/1/3
f 263/1/4 259/3/4 260/9/4 264/7/4
f 262/1/5 264/3/5 260/9/5 258/7/5
f 261/1/6 263/3/6 264/9/6 262/7/6
f 254/3/1 255/9/1 266/7/1 265/1/1
f 254/7/2 265/1/2 268/3/2 267/9/2
f 265/3/3 266/9/3 269/7/3 268/1/3
f 267/1/4 268/3/4 269/9/4 270/7/4
f 255/1/5 270/3/5 269/9/5 266/7/5
f 254/1/6 267/3/6 270/9/6 255/7/6
f 273/3/1 274/9/1 264/7/1 263/1/1
f 273/7/2 263/1/2 271/3/2 275/9/2
f 263/3/3 264/9/3 272/7/3 271/1/3
f 275/1/4 271/3/4 272/9/4 276/7/4
f 274/1/5 276/3/5 272/9/5 264/7/5
f 273/1/6 275/3/6 276/9/6 274/7/6
f 268/3/1 269/9/1 278/7/1 277/1/1
f 268/7/2 277/1/2 280/3/2 279/9/2
f 277/3/3 278/9/3 281/7/3 280/1/3
f 279/1/4 280/3/4 281/9/4 282/7/4
f 269/1/5 282/3/5 281/9/5 278/7/5
f 268/1/6 279/3/6 282/9/6 269/7/6
f 285/3/1 286/9/1 276/7/1 275/1/1
f 285/7/2 275/1/2 283/3/2 287/9/2
f 275/3/3 276/9/3 284/7/3 283/1/3
f 287/1/4 283/3/4 284/9/4 288/7/4
f 286/1/5 288/3/5 284/9/5 276/7/5
f 285/1/6 287/3/6 288/9/6 286/7/6
f 280/3/1 281/9/1 290/7/1 289/1/1
f 280/7/2 289/1/2 292/3/2 291/9/2
f 289/3/3 290/9/3 293/7/3 292/1/3
f 291/1/4 292/3/4 293/9/4 294/7/4
f 281/1/5 294/3/5 293/9/5 290/7/5
f 280/1/6 291/3/6 294/9/6 281/7/6
f 297/3/1 298/9/1 288/7/1 287/1/1
f 297/7/2 287/1/2 295/3/2 299/9/2
f 287/3/3 288/9/3 296/7/3 295/1/3
f 299/1/4 295/3/4 296/9/4 300/7/4
f 298/1/5 300/3/5 296/9/5 288/7/5
f 297/1/6 299/3/6 300/9/6 298/7/6
f 291/3/1 294/9/1 293/7/1 292/1/1
f 291/7/2 292/1/2 302/3/2 301/9/2
f 292/3/3 293/9/3 303/7/3 302/1/3
f 301/1/4 302/3/4 303/9/4 304/7/4
f 294/1/5 304/3/5 303/9/5 293/7/5
f 291/1/6 301/3/6 304/9/6 294/7/6
f 299/3/1 300/9/1 296/7/1 295/1/1
f 299/7/2 295/1/2 305/3/2 307/9/2
f 295/3/3 296/9/3 306/7/3 305/1/3
f 307/1/4 305/3/4 306/9/4 308/7/4
f 300/1/5 308/3/5 306/9/5 296/7/5
f 299/1/6 307/3/6 308/9/6 300/7/6
f 301/3/1 304/9/1 303/7/1 302/1/1
f 301/7/2 302/1/2 310/3/2 309/9/2
f 302/3/3 303/9/3 311/7/3 310/1/3
f 309/1/4 310/3/4 311/9/4 312/7/4
f 304/1/5 312/3/5 311/9/5 303/7/5
f 301/1/6 309/3/6 312/9/6 304/7/6
f 307/3/1 308/9/1 306/7/1 305/1/1
f 307/7/2 305/1/2 317/3/2 319/9/2
f 305/3/3 306/9/3 318/7/3 317/1/3
f 319/1/4 317/3/4 318/9/4 320/7/4
f 308/1/5 320/3/5 318/9/5 306/7/5
f 307/1/6 319/3/6 320/9/6 308/7/6
f 313/3/1 314/9/1 312/7/1 309/1/1
f 313/7/2 309/1/2 322/3/2 321/9/2
f 309/3/3 312/9/3 323/7/3 322/1/3
f 321/1/4 322/3/4 323/9/4 324/7/4
f 314/1/5 324/3/5 323/9/5 312/7/5
f 313/1/6 321/3/6 324/9/6 314/7/6
f 317/3/1 318/9/1 316/7/1 315/1/1
f 317/7/2 315/1/2 329/3/2 331/9/2
f 315/3/3 316/9/3 330/7/3 329/1/3
f 331/1/4 329/3/4 330/9/4 332/7/4
f 318/1/5 332/3/5 330/9/5 316/7/5
f 317/1/6 331/3/6 332/9/6 318/7/6
f 325/3/1 326/9/1 324/7/1 321/1/1
f 325/7/2 321/1/2 334/3/2 333/9/2
f 321/3/3 324/9/3 335/7/3 334/1/3
f 333/1/4 334/3/4 335/9/4 336/7/4
f 326/1/5 336/3/5 335/9/5 324/7/5
f 325/1/6 333/3/6 336/9/6 326/7/6
f 329/3/1 330/9/1 328/7/1 327/1/1
f 329/7/2 327/1/2 341/3/2 343/9/2
f 327/3/3 328/9/3 342/7/3 341/1/3
f 343/1/4 341/3/4 342/9/4 344/7/4
f 330/1/5 344/3/5 342/9/5 328/7/5
f 329/1/6 343/3/6 344/9/6 330/7/6
f 337/3/1 338/9/1 336/7/1 333/1/1
f 337/7/2 333/1/2 346/3/2 345/9/2
f 333/3/3 336/9/3 347/7/3 346/1/3
f 345/1/4 346/3/4 347/9/4 348/7/4
f 338/1/5 348/3/5 347/9/5 336/7/5
f 337/1/6 345/3/6 348/9/6 338/7/6
f 339/3/1 340/9/1 338/7/1 337/1/1
f 339/7/2 337/1/2 345/3/2 349/9/2
f 337/3/3 338/9/3 348/7/3 345/1/3
f 349/1/4 345/3/4 348/9/4 350/7/4
f 340/1/5 350/3/5 348/9/5 338/7/5
f 339/1/6 349/3/6 350/9/6 340/7/6
f 341/3/1 342/9/1 340/7/1 339/1/1
f 341/7/2 339/1/2 349/3/2 351/9/2
f 339/3/3 340/9/3 350/7/3 349/1/3
f 351/1/4 349/3/4 350/9/4 352/7/4
f 342/1/5 352/3/5 350/9/5 340/7/5
f 341/1/6 351/3/6 352/9/6 342/7/6
