mtllib lighthouse.mtl
usemtl redstone_lamp_on
v -2 51 0
v -2 51 1
v -2 52 0
v -2 52 1
v -2 53 0
v -2 53 1
v -2 51 2
v -2 52 2
v -2 53 2
v -2 51 3
v -2 52 3
v -1 51 0
v -1 52 -1
v -1 52 0
v -1 53 -1
v -1 53 0
v -1 51 1
v -1 52 1
v -1 53 1
v -1 51 2
v -1 52 2
v -1 53 2
v -1 51 3
v -1 52 3
v 0 51 -1
v 0 52 -1
v 0 53 -1
v 0 51 0
v 0 52 0
v 0 53 0
v 1 51 -1
v 1 52 -1
v 1 51 0
v 1 52 0
v 1 9 2
v 1 10 2
v 1 9 3
v 1 10 3
v 2 9 2
v 2 10 2
v 2 9 3
v 2 10 3
vt 0.000000000 0.000000000
vt 1.000000000 0.000000000
vt 0.000000000 1.000000000
vt 1.000000000 1.000000000
vn -1 0 0
vn 0 -1 0
vn 0 0 -1
vn 1 0 0
vn 0 1 0
vn 0 0 1
f 2/2/1 4/4/1 3/3/1 1/1/1
f 2/3/2 1/1/2 12/2/2 17/4/2
f 1/2/3 3/4/3 14/3/3 12/1/3
f 17/1/4 12/2/4 14/4/4 18/3/4
f 4/1/5 18/2/5 14/4/5 3/3/5
f 2/1/6 17/2/6 18/4/6 4/3/6
f 4/2/1 6/4/1 5/3/1 3/1/1
f 4/3/2 3/1/2 14/2/2 18/4/2
f 3/2/3 5/4/3 16/3/3 14/1/3
f 18/1/4 14/2/4 16/4/4 19/3/4
f 6/1/5 19/2/5 16/4/5 5/3/5
f 4/1/6 18/2/6 19/4/6 6/3/6
f 7/2/1 8/4/1 4/3/1 2/1/1
f 7/3/2 2/1/2 17/2/2 20/4/2
f 2/2/3 4/4/3 18/3/3 17/1/3
f 20/1/4 17/2/4 18/4/4 21/3/4
f 8/1/5 21/2/5 18/4/5 4/3/5
f 7/1/6 20/2/6 21/4/6 8/3/6
f 8/2/1 9/4/1 6/3/1 4/1/1
f 8/3/2 4/1/2 18/2/2 21/4/2
f 4/2/3 6/4/3 19/3/3 18/1/3
f 21/1/4 18/2/4 19/4/4 22/3/4
f 9/1/5 22/2/5 19/4/5 6/3/5
f 8/1/6 21/2/6 22/4/6 9/3/6
f 10/2/1 11/4/1 8/3/1 7/1/1
f 10/3/2 7/1/2 20/2/2 23/4/2
f 7/2/3 8/4/3 21/3/3 20/1/3
f 23/1/4 20/2/4 21/4/4 24/3/4
f 11/1/5 24/2/5 21/4/5 8/3/5
f 10/1/6 23/2/6 24/4/6 11/3/6
f 14/2/1 16/4/1 15/3/1 13/1/1
f 14/3/2 13/1/2 26/2/2 29/4/2
f 13/2/3 15/4/3 27/3/3 26/1/3
f 29/1/4 26/2/4 27/4/4 30/3/4
f 16/1/5 30/2/5 27/4/5 15/3/5
f 14/1/6 29/2/6 30/4/6 16/3/6
f 28/2/1 29/4/1 26/3/1 25/1/1
f 28/3/2 25/1/2 31/2/2 33/4/2
f 25/2/3 26/4/3 32/3/3 31/1/3
f 33/1/4 31/2/4 32/4/4 34/3/4
f 29/1/5 34/2/5 32/4/5 26/3/5
f 28/1/6 33/2/6 34/4/6 29/3/6
f 37/2/1 38/4/1 36/3/1 35/1/1
f 37/3/2 35/1/2 39/2/2 41/4/2
f 35/2/3 36/4/3 40/3/3 39/1/3
f 41/1/4 39/2/4 40/4/4 42/3/4
f 38/1/5 42/2/5 40/4/5 36/3/5
f 37/1/6 41/2/6 42/4/6 38/3/6
