mtllib lighthouse.mtl
usemtl observer_top
v -2 49 0
v -2 50 0
v -2 49 1
v -2 50 1
v -2 51 0
v -2 51 1
v -2 49 2
v -2 50 2
v -2 51 2
v -2 49 3
v -2 50 3
v -2 51 3
v -1 49 -1
v -1 50 -1
v -1 49 0
v -1 50 0
v -1 51 -1
v -1 51 0
v -1 49 1
v -1 50 1
v -1 51 1
v -1 49 2
v -1 50 2
v -1 51 2
v -1 49 3
v -1 50 3
v -1 51 3
v -1 49 4
v -1 50 4
v -1 51 4
v 0 49 -1
v 0 50 -1
v 0 51 -1
v 0 49 0
v 0 50 0
v 0 51 0
v 0 49 3
v 0 49 4
v 0 50 3
v 0 50 4
v 0 51 3
v 0 51 4
v 1 49 -1
v 1 50 -1
v 1 51 -1
v 1 49 0
v 1 50 0
v 1 51 0
v 1 49 3
v 1 49 4
v 1 50 3
v 1 50 4
v 1 51 3
v 1 51 4
v 2 49 -1
v 2 50 -1
v 2 51 -1
v 2 49 0
v 2 50 0
v 2 51 0
v 2 49 3
v 2 49 4
v 2 50 3
v 2 50 4
v 2 51 3
v 2 51 4
v 3 49 0
v 3 50 0
v 3 51 0
v 2 49 1
v 3 49 1
v 2 50 1
v 3 50 1
v 2 51 1
v 3 51 1
v 2 49 2
v 3 49 2
v 2 50 2
v 3 50 2
v 2 51 2
v 3 51 2
v 3 49 3
v 3 50 3
v 3 51 3
vt 0.000000000 0.000000000
vt 1.000000000 0.000000000
vt 0.000000000 1.000000000
vt 1.000000000 1.000000000
vn 0 -1 0
vn 0 0 -1
vn 0 1 0
vn 0 0 1
f 3/3/1 1/1/1 15/2/1 19/4/1
f 4/3/3 20/4/3 16/2/3 2/1/3
f 2/1/2 5/3/2 18/4/2 16/2/2
f 4/1/4 20/2/4 21/4/4 6/3/4
f 7/3/1 3/1/1 19/2/1 22/4/1
f 8/3/3 23/4/3 20/2/3 4/1/3
f 4/1/2 6/3/2 21/4/2 20/2/2
f 8/1/4 23/2/4 24/4/4 9/3/4
f 10/3/1 7/1/1 22/2/1 25/4/1
f 11/3/3 26/4/3 23/2/3 8/1/3
f 8/1/2 9/3/2 24/4/2 23/2/2
f 11/1/4 26/2/4 27/4/4 12/3/4
f 15/4/1 13/3/1 31/1/1 34/2/1
f 16/4/3 35/2/3 32/1/3 14/3/3
f 14/1/2 17/3/2 33/4/2 32/2/2
f 16/1/4 35/2/4 36/4/4 18/3/4
f 28/1/1 25/2/1 37/4/1 38/3/1
f 29/1/3 40/3/3 39/4/3 26/2/3
f 26/1/2 27/3/2 41/4/2 39/2/2
f 29/1/4 40/2/4 42/4/4 30/3/4
f 34/4/1 31/3/1 43/1/1 46/2/1
f 35/4/3 47/2/3 44/1/3 32/3/3
f 32/1/2 33/3/2 45/4/2 44/2/2
f 35/1/4 47/2/4 48/4/4 36/3/4
f 38/1/1 37/2/1 49/4/1 50/3/1
f 40/1/3 52/3/3 51/4/3 39/2/3
f 39/1/2 41/3/2 53/4/2 51/2/2
f 40/1/4 52/2/4 54/4/4 42/3/4
f 46/4/1 43/3/1 55/1/1 58/2/1
f 47/4/3 59/2/3 56/1/3 44/3/3
f 44/1/2 45/3/2 57/4/2 56/2/2
f 47/1/4 59/2/4 60/4/4 48/3/4
f 50/1/1 49/2/1 61/4/1 62/3/1
f 52/1/3 64/3/3 63/4/3 51/2/3
f 51/1/2 53/3/2 65/4/2 63/2/2
f 52/1/4 64/2/4 66/4/4 54/3/4
f 70/2/1 58/4/1 67/3/1 71/1/1
f 72/2/3 73/1/3 68/3/3 59/4/3
f 59/1/2 60/3/2 69/4/2 68/2/2
f 72/1/4 73/2/4 75/4/4 74/3/4
f 76/2/1 70/4/1 71/3/1 77/1/1
f 78/2/3 79/1/3 73/3/3 72/4/3
f 72/1/2 74/3/2 75/4/2 73/2/2
f 78/1/4 79/2/4 81/4/4 80/3/4
f 61/2/1 76/4/1 77/3/1 82/1/1
f 63/2/3 83/1/3 79/3/3 78/4/3
f 78/1/2 80/3/2 81/4/2 79/2/2
f 63/1/4 83/2/4 84/4/4 65/3/4
