mtllib lighthouse.mtl
usemtl firefly_bush
v -11.9531 4 -14.9531
v -11.0469 4 -14.0469
v -11.0469 5 -14.0469
v -11.9531 5 -14.9531
v -11.9531 4 -14.0469
v -11.0469 4 -14.9531
v -11.0469 5 -14.9531
v -11.9531 5 -14.0469
v -5.95312 8 -1.95312
v -5.04688 8 -1.04688
v -5.04688 9 -1.04688
v -5.95312 9 -1.95312
v -5.95312 8 -1.04688
v -5.04688 8 -1.95312
v -5.04688 9 -1.95312
v -5.95312 9 -1.04688
v 4.04688 7 6.04688
v 4.95312 7 6.95312
v 4.95312 8 6.95312
v 4.04688 8 6.04688
v 4.04688 7 6.95312
v 4.95312 7 6.04688
v 4.95312 8 6.04688
v 4.04688 8 6.95312
vt 0.000000000 0.000000000
vt 1.000000000 0.000000000
vt 0.000000000 1.000000000
vt 1.000000000 1.000000000
vn -0.707107 0 0.707107
vn 0.707107 0 0.707107
f 1/1/1 2/2/1 3/4/1 4/3/1
f 5/1/2 6/2/2 7/4/2 8/3/2
f 9/1/1 10/2/1 11/4/1 12/3/1
f 13/1/2 14/2/2 15/4/2 16/3/2
f 17/1/1 18/2/1 19/4/1 20/3/1
f 21/1/2 22/2/2 23/4/2 24/3/2
