mtllib lighthouse.mtl
usemtl vine
v -3 3 -5.0625
v -4 3 -5.0625
v -4 4 -5.0625
v -3 4 -5.0625
v -3.9375 3 -5
v -3.9375 3 -6
v -3.9375 4 -6
v -3.9375 4 -5
v -3 4 -5.0625
v -4 4 -5.0625
v -4 5 -5.0625
v -3 5 -5.0625
v -2 3 -5.0625
v -3 3 -5.0625
v -3 4 -5.0625
v -2 4 -5.0625
v -2.0625 3 -6
v -2.0625 3 -5
v -2.0625 4 -5
v -2.0625 4 -6
v -2 4 -5.0625
v -3 4 -5.0625
v -3 5 -5.0625
v -2 5 -5.0625
v -2.0625 4 -6
v -2.0625 4 -5
v -2.0625 5 -5
v -2.0625 5 -6
v -1 3 -6.0625
v -2 3 -6.0625
v -2 4 -6.0625
v -1 4 -6.0625
v -1 4 -6.0625
v -2 4 -6.0625
v -2 5 -6.0625
v -1 5 -6.0625
v 2 4 -3.0625
v 1 4 -3.0625
v 1 5 -3.0625
v 2 5 -3.0625
v 3 4 -2.0625
v 2 4 -2.0625
v 2 5 -2.0625
v 3 5 -2.0625
v 2.0625 4 -2
v 2.0625 4 -3
v 2.0625 5 -3
v 2.0625 5 -2
v 4 3 -2.0625
v 3 3 -2.0625
v 3 4 -2.0625
v 4 4 -2.0625
v 4 4 -2.0625
v 3 4 -2.0625
v 3 5 -2.0625
v 4 5 -2.0625
v 4 4.9375 -2
v 4 4.9375 -3
v 3 4.9375 -3
v 3 4.9375 -2
v 8 3 -0.0625
v 7 3 -0.0625
v 7 4 -0.0625
v 8 4 -0.0625
v 8 4 -0.0625
v 7 4 -0.0625
v 7 5 -0.0625
v 8 5 -0.0625
v 8 5 -0.0625
v 7 5 -0.0625
v 7 6 -0.0625
v 8 6 -0.0625
v 8 6 -0.0625
v 7 6 -0.0625
v 7 7 -0.0625
v 8 7 -0.0625
v 9 4 -0.0625
v 8 4 -0.0625
v 8 5 -0.0625
v 9 5 -0.0625
v 9 5 -0.0625
v 8 5 -0.0625
v 8 6 -0.0625
v 9 6 -0.0625
v 9 6 -0.0625
v 8 6 -0.0625
v 8 7 -0.0625
v 9 7 -0.0625
v 10 5 -0.0625
v 9 5 -0.0625
v 9 6 -0.0625
v 10 6 -0.0625
vt 0.000000000 0.000000000
vt 1.000000000 0.000000000
vt 0.000000000 1.000000000
vt 1.000000000 1.000000000
vn -1 0 0
vn 0 0 -1
vn 1 0 0
vn 0 1 0
f 2/2/2 3/4/2 4/3/2 1/1/2
f 5/1/3 6/2/3 7/4/3 8/3/3
f 10/2/2 11/4/2 12/3/2 9/1/2
f 14/2/2 15/4/2 16/3/2 13/1/2
f 18/2/1 19/4/1 20/3/1 17/1/1
f 22/2/2 23/4/2 24/3/2 21/1/2
f 26/2/1 27/4/1 28/3/1 25/1/1
f 30/2/2 31/4/2 32/3/2 29/1/2
f 34/2/2 35/4/2 36/3/2 33/1/2
f 38/2/2 39/4/2 40/3/2 37/1/2
f 42/2/2 43/4/2 44/3/2 41/1/2
f 45/1/3 46/2/3 47/4/3 48/3/3
f 50/2/2 51/4/2 52/3/2 49/1/2
f 54/2/2 55/4/2 56/3/2 53/1/2
f 57/1/4 58/2/4 59/4/4 60/3/4
f 62/2/2 63/4/2 64/3/2 61/1/2
f 66/2/2 67/4/2 68/3/2 65/1/2
f 70/2/2 71/4/2 72/3/2 69/1/2
f 74/2/2 75/4/2 76/3/2 73/1/2
f 78/2/2 79/4/2 80/3/2 77/1/2
f 82/2/2 83/4/2 84/3/2 81/1/2
f 86/2/2 87/4/2 88/3/2 85/1/2
f 90/2/2 91/4/2 92/3/2 89/1/2
