mtllib lighthouse.mtl
usemtl red_sandstone_bottom
v 3 32.5 14
v 3 32.5 15
v 4 32.5 14
v 4 32.5 15
v 4 34 13
v 4 34 14
v 5 34 13
v 5 34 14
v 4 36.5 13
v 4 36.5 14
v 5 36.5 13
v 5 36.5 14
v 4 37 13
v 4 37 14
v 5 37 13
v 5 37 14
v 6 34.5 8
v 6 34.5 9
v 7 34.5 8
v 7 34.5 9
v 7 34.5 9
v 7 34.5 10
v 8 34.5 9
v 8 34.5 10
v 7 35 9
v 7 35 10
v 8 35 9
v 8 35 10
v 7 36 11
v 7 36 12
v 8 36 11
v 8 36 12
v 8 36 8
v 8 36 9
v 9 36 8
v 9 36 9
v 8 37.5 10
v 8 37.5 11
v 9 37.5 10
v 9 37.5 11
v 9 34.5 7
v 9 34.5 8
v 10 34.5 7
v 10 34.5 8
v 9 34 7.5
v 9 34 8
v 10 34 7.5
v 10 34 8
v 9 37 9
v 9 37 10
v 10 37 9
v 10 37 10
v 9 34.5 11
v 9 34.5 12
v 10 34.5 11
v 10 34.5 12
v 9 35 11
v 9 35 12
v 10 35 11
v 10 35 12
v 10 34.5 7
v 10 34.5 8
v 11 34.5 7
v 11 34.5 8
v 10 37 8
v 10 37 9
v 11 37 8
v 11 37 9
v 10 36 10
v 10 36 11
v 11 36 10
v 11 36 11
v 10 34.5 12
v 10 34.5 13
v 11 34.5 12
v 11 34.5 13
v 11 36 7
v 11 36 8
v 12 36 7
v 12 36 8
v 11 34.5 8
v 11 34.5 9
v 12 34.5 8
v 12 34.5 9
v 11 34.5 9
v 11 34.5 10
v 12 34.5 9
v 12 34.5 10
v 11 34 9
v 11 34 10
v 11.5 34 9
v 11.5 34 10
v 3 37 13
v 3 37 14
v 4 37 14
v 4 37 13
v 4 33 13
v 4 33 14
v 5 33 14
v 5 33 13
v 5 34 13
v 5 34 9
v 5 34 10
v 6 34 10
v 6 34 9
v 5 34 12
v 6 34 13
v 6 34 12
v 6 35 12
v 6 35 13
v 7 34 13
v 7 34 12
v 7 35 12
v 7 35 13
v 7 34 10
v 7 34 11
v 7 35 11
v 8 34 11
v 8 34 10
v 8 35 10
v 8 35 11
v 8 34 12
v 8 35 12
v 8 34 13
v 8 35 13
v 8 35 8
v 8 35 9
v 9 35 9
v 9 35 8
v 9 36 8
v 9 36 9
v 8 34 9
v 9 34 10
v 9 34 9
v 9 35 10
v 9 36 10
v 9 34 11
v 9 35 11
v 9 34 12
v 10 35 8
v 10 35 7
v 10 36 7
v 10 36 8
v 9 34 8
v 10 34 9
v 10 34 8
v 10 35 9
v 10 36 9
v 10 34 10
v 10 35 10
v 10 36 10
v 10 34 11
v 10 35 11
v 9 34 13
v 9 34 14
v 10 34 14
v 10 34 13
v 11 35 8
v 11 35 7
v 11 36 7
v 11 36 8
v 11 34 9
v 11 34 8
v 11 35 9
v 11 36 9
v 11 34 10
v 11 35 10
v 11 36 10
v 11 35 11
v 12 35 8
v 12 35 7
v 12 36 8
v 12 35 9
v 12 36 9
vt 0.000000000 0.000000000
vt 0.500000000 0.000000000
vt 1.000000000 0.000000000
vt 0.000000000 0.500000000
vt 1.000000000 0.500000000
vt 0.000000000 1.000000000
vt 0.500000000 1.000000000
vt 1.000000000 1.000000000
vn 0 -1 0
f 2/6/1 1/1/1 3/3/1 4/8/1
f 6/6/1 5/1/1 7/3/1 8/8/1
f 10/6/1 9/1/1 11/3/1 12/8/1
f 14/6/1 13/1/1 15/3/1 16/8/1
f 18/6/1 17/1/1 19/3/1 20/8/1
f 22/6/1 21/1/1 23/3/1 24/8/1
f 26/6/1 25/1/1 27/3/1 28/8/1
f 30/6/1 29/1/1 31/3/1 32/8/1
f 34/6/1 33/1/1 35/3/1 36/8/1
f 38/6/1 37/1/1 39/3/1 40/8/1
f 42/6/1 41/1/1 43/3/1 44/8/1
f 46/4/1 45/1/1 47/3/1 48/5/1
f 50/6/1 49/1/1 51/3/1 52/8/1
f 54/6/1 53/1/1 55/3/1 56/8/1
f 58/6/1 57/1/1 59/3/1 60/8/1
f 62/6/1 61/1/1 63/3/1 64/8/1
f 66/6/1 65/1/1 67/3/1 68/8/1
f 70/6/1 69/1/1 71/3/1 72/8/1
f 74/6/1 73/1/1 75/3/1 76/8/1
f 78/6/1 77/1/1 79/3/1 80/8/1
f 82/6/1 81/1/1 83/3/1 84/8/1
f 86/6/1 85/1/1 87/3/1 88/8/1
f 90/6/1 89/1/1 91/2/1 92/7/1
f 94/6/1 93/1/1 96/3/1 95/8/1
f 98/6/1 97/1/1 100/3/1 99/8/1
f 103/6/1 102/1/1 105/3/1 104/8/1
f 101/6/1 106/1/1 108/3/1 107/8/1
f 107/6/1 108/1/1 112/3/1 111/8/1
f 110/6/1 109/1/1 113/3/1 114/8/1
f 116/6/1 115/1/1 119/3/1 118/8/1
f 112/6/1 116/1/1 118/3/1 122/8/1
f 113/6/1 117/1/1 121/3/1 123/8/1
f 111/6/1 112/1/1 122/3/1 124/8/1
f 114/6/1 113/1/1 123/3/1 125/8/1
f 127/6/1 126/1/1 129/3/1 128/8/1
f 119/6/1 132/1/1 134/3/1 133/8/1
f 120/6/1 127/1/1 128/3/1 135/8/1
f 118/6/1 119/1/1 133/3/1 137/8/1
f 121/6/1 120/1/1 135/3/1 138/8/1
f 122/6/1 118/1/1 137/3/1 139/8/1
f 134/6/1 144/1/1 146/3/1 145/8/1
f 131/6/1 130/1/1 143/3/1 148/8/1
f 133/6/1 134/1/1 145/3/1 149/8/1
f 135/6/1 128/1/1 147/3/1 150/8/1
f 136/6/1 131/1/1 148/3/1 151/8/1
f 137/6/1 133/1/1 149/3/1 152/8/1
f 138/6/1 135/1/1 150/3/1 153/8/1
f 155/6/1 154/1/1 157/3/1 156/8/1
f 140/6/1 141/1/1 159/3/1 158/8/1
f 143/6/1 142/1/1 160/3/1 161/8/1
f 145/6/1 146/1/1 163/3/1 162/8/1
f 148/6/1 143/1/1 161/3/1 165/8/1
f 149/6/1 145/1/1 162/3/1 166/8/1
f 151/6/1 148/1/1 165/3/1 168/8/1
f 153/6/1 150/1/1 167/3/1 169/8/1
f 158/6/1 159/1/1 171/3/1 170/8/1
f 164/6/1 158/1/1 170/3/1 173/8/1
f 165/6/1 161/1/1 172/3/1 174/8/1
