mtllib lighthouse.mtl
usemtl MWO_redstone_dust_line0_off
v -1 12.0156 0
v -1 12.0156 1
v 0 12.0156 0
v 0 12.0156 1
v 2 16.0156 -2
v 2 16.0156 -1
v 3 16.0156 -2
v 3 16.0156 -1
v 3 16 -0.015625
v 2 16 -0.015625
v 2 17 -0.015625
v 3 17 -0.015625
v 2 16.0156 -1
v 2 16.0156 0
v 3 16.0156 -1
v 3 16.0156 0
v 2 17.0156 0
v 2 17.0156 1
v 3 17.0156 0
v 3 17.0156 1
vt 0.000000000 0.000000000
vt 1.000000000 0.000000000
vt 0.000000000 1.000000000
vt 1.000000000 1.000000000
vn 0 0 -1
vn 0 1 0
f 3/4/2 1/3/2 2/1/2 4/2/2
f 7/4/2 5/3/2 6/1/2 8/2/2
f 10/2/1 11/4/1 12/3/1 9/1/1
f 15/4/2 13/3/2 14/1/2 16/2/2
f 19/4/2 17/3/2 18/1/2 20/2/2
