mtllib lighthouse.mtl
usemtl purple_stained_glass
v -10.6875 46 -11.6875
v -10.6875 46 -11
v -10.6875 47 -11.6875
v -10.6875 47 -11
v -10.3125 46 -11.3125
v -10.3125 46 -11
v -10.3125 47 -11.3125
v -10.3125 47 -11
v -10.6875 46 -11.6875
v -10.6875 47 -11.6875
v -10 46 -11.6875
v -10 47 -11.6875
v -10.3125 46 -11.3125
v -10.3125 47 -11.3125
v -10 46 -11.3125
v -10 47 -11.3125
v -10.6875 47 -11.6875
v -10.6875 47 -11
v -10.6875 48 -11.6875
v -10.6875 48 -11
v -10.3125 47 -11.6875
v -10.3125 47 -11
v -10.3125 48 -11.6875
v -10.3125 48 -11
v -10.6875 46 -11
v -10.6875 46 -10.3125
v -10.6875 47 -11
v -10.6875 47 -10.3125
v -10.3125 46 -11
v -10.3125 46 -10.3125
v -10.3125 47 -11
v -10.3125 47 -10.3125
v -10.6875 48 -10.6875
v -10.6875 48 -10.3125
v -10.6875 49 -10.6875
v -10.6875 49 -10.3125
v -10 48 -10.6875
v -10 48 -10.3125
v -10 49 -10.6875
v -10 49 -10.3125
v -9.6875 46 -12.6875
v -9.6875 46 -12
v -9.6875 47 -12.6875
v -9.6875 47 -12
v -9.3125 46 -12.6875
v -9.3125 46 -12
v -9.3125 47 -12.6875
v -9.3125 47 -12
v -9.3125 46 -12
v -9.3125 46 -11.3125
v -9.3125 47 -12
v -9.3125 47 -11.3125
v -9.6875 46 -12
v -9.6875 46 -11.6875
v -9.6875 47 -12
v -9.6875 47 -11.6875
v -10 46 -11.6875
v -10 47 -11.6875
v -9.6875 46 -11.6875
v -9.6875 47 -11.6875
v -10 46 -11.3125
v -10 47 -11.3125
v -9.3125 46 -11.3125
v -9.3125 47 -11.3125
v -9.6875 48 -11.6875
v -9.6875 48 -11
v -9.6875 49 -11.6875
v -9.6875 49 -11
v -9.3125 48 -11.3125
v -9.3125 48 -11
v -9.3125 49 -11.3125
v -9.3125 49 -11
v -9.6875 48 -11.6875
v -9.6875 49 -11.6875
v -9 48 -11.6875
v -9 49 -11.6875
v -9.3125 48 -11.3125
v -9.3125 49 -11.3125
v -9 48 -11.3125
v -9 49 -11.3125
v -9.3125 48 -11
v -9.3125 48 -10.3125
v -9.3125 49 -11
v -9.3125 49 -10.3125
v -9.6875 48 -11
v -9.6875 48 -10.6875
v -9.6875 49 -11
v -9.6875 49 -10.6875
v -10 48 -10.6875
v -10 49 -10.6875
v -9.6875 48 -10.6875
v -9.6875 49 -10.6875
v -10 48 -10.3125
v -10 49 -10.3125
v -9.3125 48 -10.3125
v -9.3125 49 -10.3125
v -9 48 -11.6875
v -9 48 -11.3125
v -9 49 -11.6875
v -9 49 -11.3125
v -8.3125 48 -11.6875
v -8.3125 48 -11.3125
v -8.3125 49 -11.6875
v -8.3125 49 -11.3125
v -6.6875 48 -7.6875
v -6.6875 48 -7
v -6.6875 49 -7.6875
v -6.6875 49 -7
v -6.3125 48 -7.3125
v -6.3125 48 -7
v -6.3125 49 -7.3125
v -6.3125 49 -7
v -6.6875 48 -7.6875
v -6.6875 49 -7.6875
v -6 48 -7.6875
v -6 49 -7.6875
v -6.3125 48 -7.3125
v -6.3125 49 -7.3125
v -6 48 -7.3125
v -6 49 -7.3125
v -6.6875 46 -6.6875
v -6.6875 46 -6.3125
v -6.6875 47 -6.6875
v -6.6875 47 -6.3125
v -6 46 -6.6875
v -6 46 -6.3125
v -6 47 -6.6875
v -6 47 -6.3125
v -6.6875 48 -7
v -6.6875 48 -6.3125
v -6.6875 49 -7
v -6.6875 49 -6.3125
v -6.3125 48 -7
v -6.3125 48 -6.3125
v -6.3125 49 -7
v -6.3125 49 -6.3125
v -5.6875 46 -7.6875
v -5.6875 46 -7
v -5.6875 47 -7.6875
v -5.6875 47 -7
v -5.3125 46 -7.3125
v -5.3125 46 -7
v -5.3125 47 -7.3125
v -5.3125 47 -7
v -5.6875 46 -7.6875
v -5.6875 47 -7.6875
v -5 46 -7.6875
v -5 47 -7.6875
v -5.3125 46 -7.3125
v -5.3125 47 -7.3125
v -5 46 -7.3125
v -5 47 -7.3125
v -6 48 -7.6875
v -6 48 -7.3125
v -6 49 -7.6875
v -6 49 -7.3125
v -5.3125 48 -7.6875
v -5.3125 48 -7.3125
v -5.3125 49 -7.6875
v -5.3125 49 -7.3125
v -5.3125 46 -7
v -5.3125 46 -6.3125
v -5.3125 47 -7
v -5.3125 47 -6.3125
v -5.6875 46 -7
v -5.6875 46 -6.6875
v -5.6875 47 -7
v -5.6875 47 -6.6875
v -6 46 -6.6875
v -6 47 -6.6875
v -5.6875 46 -6.6875
v -5.6875 47 -6.6875
v -6 46 -6.3125
v -6 47 -6.3125
v -5.3125 46 -6.3125
v -5.3125 47 -6.3125
v -6 47 -6.6875
v -6 47 -6.3125
v -6 48 -6.6875
v -6 48 -6.3125
v -5.3125 47 -6.6875
v -5.3125 47 -6.3125
v -5.3125 48 -6.6875
v -5.3125 48 -6.3125
v -4.6875 50 -11.6875
v -4.6875 50 -11
v -4.6875 51 -11.6875
v -4.6875 51 -11
v -4.3125 50 -11.3125
v -4.3125 50 -11
v -4.3125 51 -11.3125
v -4.3125 51 -11
v -4.6875 50 -11.6875
v -4.6875 51 -11.6875
v -4 50 -11.6875
v -4 51 -11.6875
v -4.3125 50 -11.3125
v -4.3125 51 -11.3125
v -4 50 -11.3125
v -4 51 -11.3125
v -4.6875 51 -11.6875
v -4.6875 51 -11
v -4.6875 52 -11.6875
v -4.6875 52 -11
v -4.3125 51 -11.3125
v -4.3125 51 -11
v -4.3125 52 -11.3125
v -4.3125 52 -11
v -4.6875 51 -11.6875
v -4.6875 52 -11.6875
v -4 51 -11.6875
v -4 52 -11.6875
v -4.3125 51 -11.3125
v -4.3125 52 -11.3125
v -4 51 -11.3125
v -4 52 -11.3125
v -4.6875 51 -11
v -4.6875 51 -10.3125
v -4.6875 52 -11
v -4.6875 52 -10.3125
v -4.3125 51 -11
v -4.3125 51 -10.3125
v -4.3125 52 -11
v -4.3125 52 -10.3125
v -4.6875 46 -8.6875
v -4.6875 46 -8
v -4.6875 47 -8.6875
v -4.6875 47 -8
v -4.3125 46 -8.6875
v -4.3125 46 -8
v -4.3125 47 -8.6875
v -4.3125 47 -8
v -4.3125 46 -8
v -4.3125 46 -7.3125
v -4.3125 47 -8
v -4.3125 47 -7.3125
v -4.6875 46 -8
v -4.6875 46 -7.6875
v -4.6875 47 -8
v -4.6875 47 -7.6875
v -5 46 -7.6875
v -5 47 -7.6875
v -4.6875 46 -7.6875
v -4.6875 47 -7.6875
v -5 46 -7.3125
v -5 47 -7.3125
v -4.3125 46 -7.3125
v -4.3125 47 -7.3125
v -3.6875 45 -12.6875
v -3.6875 45 -12.3125
v -3.6875 46 -12.6875
v -3.6875 46 -12.3125
v -3 45 -12.6875
v -3 45 -12.3125
v -3 46 -12.6875
v -3 46 -12.3125
v -3.6875 50 -12.6875
v -3.6875 50 -12
v -3.6875 51 -12.6875
v -3.6875 51 -12
v -3.3125 50 -12.3125
v -3.3125 50 -12
v -3.3125 51 -12.3125
v -3.3125 51 -12
v -3.6875 50 -12.6875
v -3.6875 51 -12.6875
v -3 50 -12.6875
v -3 51 -12.6875
v -3.3125 50 -12.3125
v -3.3125 51 -12.3125
v -3 50 -12.3125
v -3 51 -12.3125
v -3.3125 46 -12
v -3.3125 46 -11.3125
v -3.3125 47 -12
v -3.3125 47 -11.3125
v -3.6875 46 -12
v -3.6875 46 -11.6875
v -3.6875 47 -12
v -3.6875 47 -11.6875
v -4 46 -11.6875
v -4 47 -11.6875
v -3.6875 46 -11.6875
v -3.6875 47 -11.6875
v -4 46 -11.3125
v -4 47 -11.3125
v -3.3125 46 -11.3125
v -3.3125 47 -11.3125
v -3.3125 50 -12
v -3.3125 50 -11.3125
v -3.3125 51 -12
v -3.3125 51 -11.3125
v -3.6875 50 -12
v -3.6875 50 -11.6875
v -3.6875 51 -12
v -3.6875 51 -11.6875
v -4 50 -11.6875
v -4 51 -11.6875
v -3.6875 50 -11.6875
v -3.6875 51 -11.6875
v -4 50 -11.3125
v -4 51 -11.3125
v -3.3125 50 -11.3125
v -3.3125 51 -11.3125
v -4 51 -11.6875
v -4 51 -11.3125
v -4 52 -11.6875
v -4 52 -11.3125
v -3.3125 51 -11.6875
v -3.3125 51 -11.3125
v -3.3125 52 -11.6875
v -3.3125 52 -11.3125
v -2.6875 46 -13.6875
v -2.6875 46 -13
v -2.6875 47 -13.6875
v -2.6875 47 -13
v -2.3125 46 -13.6875
v -2.3125 46 -13
v -2.3125 47 -13.6875
v -2.3125 47 -13
v -3 45 -12.6875
v -3 45 -12.3125
v -3 46 -12.6875
v -3 46 -12.3125
v -2 45 -12.6875
v -2 45 -12.3125
v -2 46 -12.6875
v -2 46 -12.3125
v -2.3125 46 -13
v -2.3125 46 -12.3125
v -2.3125 47 -13
v -2.3125 47 -12.3125
v -2.6875 46 -13
v -2.6875 46 -12.6875
v -2.6875 47 -13
v -2.6875 47 -12.6875
v -3 46 -12.6875
v -3 47 -12.6875
v -2.6875 46 -12.6875
v -2.6875 47 -12.6875
v -3 46 -12.3125
v -3 47 -12.3125
v -2.3125 46 -12.3125
v -2.3125 47 -12.3125
v -3 50 -12.6875
v -3 50 -12.3125
v -3 51 -12.6875
v -3 51 -12.3125
v -2.3125 50 -12.6875
v -2.3125 50 -12.3125
v -2.3125 51 -12.6875
v -2.3125 51 -12.3125
v -1.6875 45 -13.6875
v -1.6875 45 -13
v -1.6875 46 -13.6875
v -1.6875 46 -13
v -1.3125 45 -13.6875
v -1.3125 45 -13
v -1.3125 46 -13.6875
v -1.3125 46 -13
v -1.3125 45 -13
v -1.3125 45 -12.3125
v -1.3125 46 -13
v -1.3125 46 -12.3125
v -1.6875 45 -13
v -1.6875 45 -12.6875
v -1.6875 46 -13
v -1.6875 46 -12.6875
v -2 45 -12.6875
v -2 46 -12.6875
v -1.6875 45 -12.6875
v -1.6875 46 -12.6875
v -2 45 -12.3125
v -2 46 -12.3125
v -1.3125 45 -12.3125
v -1.3125 46 -12.3125
v -7 48 -10
v -7 48 -9
v -7 49 -10
v -7 49 -9
v -6 48 -10
v -6 48 -9
v -6 49 -10
v -6 49 -9
v -5 46 -11
v -5 47 -11
v -6 48 -11
v -6 49 -11
v -5 48 -10
v -5 48 -11
v -5 49 -11
v -5 49 -10
v -5 46 -12
v -5 47 -12
v -4 46 -11
v -4 46 -12
v -4 47 -12
v -4 47 -11
v -4 46 -13
v -4 47 -13
v -3 46 -12
v -3 46 -13
v -3 47 -13
v -3 47 -12
vt 0.000000000 0.000000000
vt 0.312500000 0.000000000
vt 0.687500000 0.000000000
vt 1.000000000 0.000000000
vt 0.000000000 1.000000000
vt 0.312500000 1.000000000
vt 0.687500000 1.000000000
vt 1.000000000 1.000000000
vn -1 0 0
vn 0 -1 0
vn 0 0 -1
vn 1 0 0
vn 0 1 0
vn 0 0 1
f 3/7/1 1/3/1 2/1/1 4/5/1
f 7/6/4 8/5/4 6/1/4 5/2/4
f 12/8/3 11/4/3 9/2/3 10/6/3
f 16/8/6 14/7/6 13/3/6 15/4/6
f 19/7/1 17/3/1 18/1/1 20/5/1
f 23/6/3 21/2/3 17/3/3 19/7/3
f 23/7/4 24/5/4 22/1/4 21/3/4
f 24/7/6 20/6/6 18/2/6 22/3/6
f 27/8/1 25/4/1 26/2/1 28/6/1
f 31/6/3 29/2/3 25/3/3 27/7/3
f 31/8/4 32/6/4 30/2/4 29/4/4
f 32/7/6 28/6/6 26/2/6 30/3/6
f 35/6/1 33/2/1 34/3/1 36/7/1
f 39/8/3 37/4/3 33/2/3 35/6/3
f 39/7/4 40/6/4 38/2/4 37/3/4
f 40/8/6 36/6/6 34/2/6 38/4/6
f 43/7/1 41/3/1 42/1/1 44/5/1
f 47/6/3 45/2/3 41/3/3 43/7/3
f 47/7/4 48/5/4 46/1/4 45/3/4
f 48/7/6 44/6/6 42/2/6 46/3/6
f 51/8/4 52/6/4 50/2/4 49/4/4
f 55/8/1 53/4/1 54/3/1 56/7/1
f 60/6/3 59/2/3 57/1/3 58/5/3
f 64/7/6 62/5/6 61/1/6 63/3/6
f 67/7/1 65/3/1 66/1/1 68/5/1
f 71/6/4 72/5/4 70/1/4 69/2/4
f 76/8/3 75/4/3 73/2/3 74/6/3
f 80/8/6 78/7/6 77/3/6 79/4/6
f 83/8/4 84/6/4 82/2/4 81/4/4
f 87/8/1 85/4/1 86/3/1 88/7/1
f 92/6/3 91/2/3 89/1/3 90/5/3
f 96/7/6 94/5/6 93/1/6 95/3/6
f 99/6/1 97/2/1 98/3/1 100/7/1
f 103/7/3 101/3/3 97/1/3 99/5/3
f 103/7/4 104/6/4 102/2/4 101/3/4
f 104/7/6 100/5/6 98/1/6 102/3/6
f 107/7/1 105/3/1 106/1/1 108/5/1
f 111/6/4 112/5/4 110/1/4 109/2/4
f 116/8/3 115/4/3 113/2/3 114/6/3
f 120/8/6 118/7/6 117/3/6 119/4/6
f 123/6/1 121/2/1 122/3/1 124/7/1
f 127/8/3 125/4/3 121/2/3 123/6/3
f 127/7/4 128/6/4 126/2/4 125/3/4
f 128/8/6 124/6/6 122/2/6 126/4/6
f 131/8/1 129/4/1 130/2/1 132/6/1
f 135/6/3 133/2/3 129/3/3 131/7/3
f 135/8/4 136/6/4 134/2/4 133/4/4
f 136/7/6 132/6/6 130/2/6 134/3/6
f 139/7/1 137/3/1 138/1/1 140/5/1
f 143/6/4 144/5/4 142/1/4 141/2/4
f 148/8/3 147/4/3 145/2/3 146/6/3
f 152/8/6 150/7/6 149/3/6 151/4/6
f 155/6/1 153/2/1 154/3/1 156/7/1
f 159/7/3 157/3/3 153/1/3 155/5/3
f 159/7/4 160/6/4 158/2/4 157/3/4
f 160/7/6 156/5/6 154/1/6 158/3/6
f 163/8/4 164/6/4 162/2/4 161/4/4
f 167/8/1 165/4/1 166/3/1 168/7/1
f 172/6/3 171/2/3 169/1/3 170/5/3
f 176/7/6 174/5/6 173/1/6 175/3/6
f 179/6/1 177/2/1 178/3/1 180/7/1
f 183/7/3 181/3/3 177/1/3 179/5/3
f 183/7/4 184/6/4 182/2/4 181/3/4
f 184/7/6 180/5/6 178/1/6 182/3/6
f 187/7/1 185/3/1 186/1/1 188/5/1
f 191/6/4 192/5/4 190/1/4 189/2/4
f 196/8/3 195/4/3 193/2/3 194/6/3
f 200/8/6 198/7/6 197/3/6 199/4/6
f 203/7/1 201/3/1 202/1/1 204/5/1
f 207/6/4 208/5/4 206/1/4 205/2/4
f 212/8/3 211/4/3 209/2/3 210/6/3
f 216/8/6 214/7/6 213/3/6 215/4/6
f 219/8/1 217/4/1 218/2/1 220/6/1
f 223/6/3 221/2/3 217/3/3 219/7/3
f 223/8/4 224/6/4 222/2/4 221/4/4
f 224/7/6 220/6/6 218/2/6 222/3/6
f 227/7/1 225/3/1 226/1/1 228/5/1
f 231/6/3 229/2/3 225/3/3 227/7/3
f 231/7/4 232/5/4 230/1/4 229/3/4
f 232/7/6 228/6/6 226/2/6 230/3/6
f 235/8/4 236/6/4 234/2/4 233/4/4
f 239/8/1 237/4/1 238/3/1 240/7/1
f 244/6/3 243/2/3 241/1/3 242/5/3
f 248/7/6 246/5/6 245/1/6 247/3/6
f 251/6/1 249/2/1 250/3/1 252/7/1
f 255/8/3 253/4/3 249/2/3 251/6/3
f 255/7/4 256/6/4 254/2/4 253/3/4
f 256/8/6 252/6/6 250/2/6 254/4/6
f 259/7/1 257/3/1 258/1/1 260/5/1
f 263/6/4 264/5/4 262/1/4 261/2/4
f 268/8/3 267/4/3 265/2/3 266/6/3
f 272/8/6 270/7/6 269/3/6 271/4/6
f 275/8/4 276/6/4 274/2/4 273/4/4
f 279/8/1 277/4/1 278/3/1 280/7/1
f 284/6/3 283/2/3 281/1/3 282/5/3
f 288/7/6 286/5/6 285/1/6 287/3/6
f 291/8/4 292/6/4 290/2/4 289/4/4
f 295/8/1 293/4/1 294/3/1 296/7/1
f 300/6/3 299/2/3 297/1/3 298/5/3
f 304/7/6 302/5/6 301/1/6 303/3/6
f 307/6/1 305/2/1 306/3/1 308/7/1
f 311/7/3 309/3/3 305/1/3 307/5/3
f 311/7/4 312/6/4 310/2/4 309/3/4
f 312/7/6 308/5/6 306/1/6 310/3/6
f 315/7/1 313/3/1 314/1/1 316/5/1
f 319/6/3 317/2/3 313/3/3 315/7/3
f 319/7/4 320/5/4 318/1/4 317/3/4
f 320/7/6 316/6/6 314/2/6 318/3/6
f 323/6/1 321/2/1 322/3/1 324/7/1
f 327/8/3 325/4/3 321/1/3 323/5/3
f 327/7/4 328/6/4 326/2/4 325/3/4
f 328/8/6 324/5/6 322/1/6 326/4/6
f 331/8/4 332/6/4 330/2/4 329/4/4
f 335/8/1 333/4/1 334/3/1 336/7/1
f 340/6/3 339/2/3 337/1/3 338/5/3
f 344/7/6 342/5/6 341/1/6 343/3/6
f 347/6/1 345/2/1 346/3/1 348/7/1
f 351/7/3 349/3/3 345/1/3 347/5/3
f 351/7/4 352/6/4 350/2/4 349/3/4
f 352/7/6 348/5/6 346/1/6 350/3/6
f 355/7/1 353/3/1 354/1/1 356/5/1
f 359/6/3 357/2/3 353/3/3 355/7/3
f 359/7/4 360/5/4 358/1/4 357/3/4
f 360/7/6 356/6/6 354/2/6 358/3/6
f 363/8/4 364/6/4 362/2/4 361/4/4
f 367/8/1 365/4/1 366/3/1 368/7/1
f 372/6/3 371/2/3 369/1/3 370/5/3
f 376/7/6 374/5/6 373/1/6 375/3/6
f 378/4/1 380/8/1 379/5/1 377/1/1
f 378/5/2 377/1/2 381/4/2 382/8/2
f 377/4/3 379/8/3 383/5/3 381/1/3
f 382/1/4 381/4/4 383/8/4 384/5/4
f 380/1/5 384/4/5 383/8/5 379/5/5
f 378/1/6 382/4/6 384/8/6 380/5/6
f 381/4/1 383/8/1 388/5/1 387/1/1
f 381/5/2 387/1/2 390/4/2 389/8/2
f 387/4/3 388/8/3 391/5/3 390/1/3
f 389/1/4 390/4/4 391/8/4 392/5/4
f 383/1/5 392/4/5 391/8/5 388/5/5
f 381/1/6 389/4/6 392/8/6 383/5/6
f 385/4/1 386/8/1 394/5/1 393/1/1
f 385/5/2 393/1/2 396/4/2 395/8/2
f 393/4/3 394/8/3 397/5/3 396/1/3
f 395/1/4 396/4/4 397/8/4 398/5/4
f 386/1/5 398/4/5 397/8/5 394/5/5
f 385/1/6 395/4/6 398/8/6 386/5/6
f 396/4/1 397/8/1 400/5/1 399/1/1
f 396/5/2 399/1/2 402/4/2 401/8/2
f 399/4/3 400/8/3 403/5/3 402/1/3
f 401/1/4 402/4/4 403/8/4 404/5/4
f 397/1/5 404/4/5 403/8/5 400/5/5
f 396/1/6 401/4/6 404/8/6 397/5/6
