mtllib lighthouse.mtl
usemtl tall_grass_top
v -7.00618 5 -11.0085
v -6.09993 5 -10.1023
v -6.09993 6 -10.1023
v -7.00618 6 -11.0085
v -7.00618 5 -10.1023
v -6.09993 5 -11.0085
v -6.09993 6 -11.0085
v -7.00618 6 -10.1023
v -5.84019 5 -10.91
v -4.93394 5 -10.0037
v -4.93394 6 -10.0037
v -5.84019 6 -10.91
v -5.84019 5 -10.0037
v -4.93394 5 -10.91
v -4.93394 6 -10.91
v -5.84019 6 -10.0037
vt 0.000000000 0.000000000
vt 1.000000000 0.000000000
vt 0.000000000 1.000000000
vt 1.000000000 1.000000000
vn -0.707107 0 0.707107
vn 0.707107 0 0.707107
f 1/1/1 2/2/1 3/4/1 4/3/1
f 5/1/2 6/2/2 7/4/2 8/3/2
f 9/1/1 10/2/1 11/4/1 12/3/1
f 13/1/2 14/2/2 15/4/2 16/3/2
