mtllib lighthouse.mtl
usemtl pitcher_crop_bottom_stage_4
v -11.944 9.6875 8.22114
v -11.0378 9.6875 9.12739
v -11.0378 10.6875 9.12739
v -11.944 10.6875 8.22114
v -11.944 9.6875 9.12739
v -11.0378 9.6875 8.22114
v -11.0378 10.6875 8.22114
v -11.944 10.6875 9.12739
v -11.8751 10.6875 12.9448
v -10.9688 10.6875 13.851
v -10.9688 11.6875 13.851
v -11.8751 11.6875 12.9448
v -11.8751 10.6875 13.851
v -10.9688 10.6875 12.9448
v -10.9688 11.6875 12.9448
v -11.8751 11.6875 13.851
v 7.17074 6.6875 10.2094
v 8.07699 6.6875 11.1156
v 8.07699 7.6875 11.1156
v 7.17074 7.6875 10.2094
v 7.17074 6.6875 11.1156
v 8.07699 6.6875 10.2094
v 8.07699 7.6875 10.2094
v 7.17074 7.6875 11.1156
v 10.1479 4.6875 12.0548
v 11.0541 4.6875 12.961
v 11.0541 5.6875 12.961
v 10.1479 5.6875 12.0548
v 10.1479 4.6875 12.961
v 11.0541 4.6875 12.0548
v 11.0541 5.6875 12.0548
v 10.1479 5.6875 12.961
vt 0.000000000 0.000000000
vt 1.000000000 0.000000000
vt 0.000000000 1.000000000
vt 1.000000000 1.000000000
vn -0.707107 0 0.707107
vn 0.707107 0 0.707107
f 1/1/1 2/2/1 3/4/1 4/3/1
f 5/1/2 6/2/2 7/4/2 8/3/2
f 9/1/1 10/2/1 11/4/1 12/3/1
f 13/1/2 14/2/2 15/4/2 16/3/2
f 17/1/1 18/2/1 19/4/1 20/3/1
f 21/1/2 22/2/2 23/4/2 24/3/2
f 25/1/1 26/2/1 27/4/1 28/3/1
f 29/1/2 30/2/2 31/4/2 32/3/2
