mtllib lighthouse.mtl
usemtl birch_planks
v 2.94194 10.5833 5.23483
v 2.76517 10.5833 5.05806
v 2.94194 11.0833 5.23483
v 2.76517 11.0833 5.05806
v 2.23484 10.5833 5.94194
v 2.05806 10.5833 5.76517
v 2.23484 11.0833 5.94194
v 2.05806 11.0833 5.76517
v -15 3 -14
v -15 3 -15
v -14 3 -15
v -14 3 -14
v -15 4 -14
v -15 4 -15
v -14 4 -15
v -14 4 -14
v -4 0 -14
v -4 0 -15
v -4 1 -15
v -4 1 -14
v -3 0 -14
v -3 0 -15
v -3 1 -15
v -3 1 -14
v -3 1 -13
v -3 0 -12
v -3 0 -13
v -3 1 -12
v -2 0 -14
v -2 0 -15
v -2 1 -15
v -2 1 -14
v -2 0 -13
v -2 1 -13
v -2 0 -12
v -2 1 -12
v -1 0 -14
v -1 0 -15
v -1 1 -15
v -1 1 -14
v -1 0 -13
v -1 1 -13
v 0 0 -14
v 0 0 -15
v 0 1 -15
v 0 1 -14
v 0 0 -13
v 0 1 -13
v 1 0 -14
v 1 0 -15
v 1 1 -15
v 1 1 -14
v 9 0 -5
v 9 1 -5
v 9 0 -4
v 9 1 -4
v 10 0 -5
v 10 1 -5
v 10 0 -4
v 10 1 -4
vt 0.000000000 0.000000000
vt 0.312500000 0.000000000
vt 0.687500000 0.000000000
vt 1.000000000 0.000000000
vt 0.000000000 0.312500000
vt 1.000000000 0.312500000
vt 0.000000000 0.687500000
vt 1.000000000 0.687500000
vt 0.000000000 0.750000000
vt 0.312500000 0.750000000
vt 0.687500000 0.750000000
vt 1.000000000 0.750000000
vt 0.000000000 1.000000000
vt 1.000000000 1.000000000
vn -1 0 0
vn 0 -1 0
vn 0 0 -1
vn 1 0 0
vn 0 1 0
vn 0 0 1
vn -0.707107 0 -0.707107
vn -0.707107 0 0.707107
vn 0.707107 0 -0.707107
vn 0.707107 0 0.707107
f 4/11/9 3/10/9 1/2/9 2/3/9
f 2/7/2 1/5/2 5/6/2 6/8/2
f 3/12/10 7/9/10 5/1/10 1/4/10
f 7/11/8 8/10/8 6/2/8 5/3/8
f 7/8/5 3/7/5 4/5/5 8/6/5
f 4/9/7 2/1/7 6/4/7 8/12/7
f 9/4/1 13/14/1 14/13/1 10/1/1
f 9/13/2 10/1/2 11/4/2 12/14/2
f 10/4/3 14/14/3 15/13/3 11/1/3
f 12/1/4 11/4/4 15/14/4 16/13/4
f 13/1/5 16/4/5 15/14/5 14/13/5
f 9/1/6 12/4/6 16/14/6 13/13/6
f 17/4/1 20/14/1 19/13/1 18/1/1
f 17/13/2 18/1/2 22/4/2 21/14/2
f 18/4/3 19/14/3 23/13/3 22/1/3
f 21/1/4 22/4/4 23/14/4 24/13/4
f 20/1/5 24/4/5 23/14/5 19/13/5
f 17/1/6 21/4/6 24/14/6 20/13/6
f 21/4/1 24/14/1 23/13/1 22/1/1
f 21/13/2 22/1/2 30/4/2 29/14/2
f 22/4/3 23/14/3 31/13/3 30/1/3
f 29/1/4 30/4/4 31/14/4 32/13/4
f 24/1/5 32/4/5 31/14/5 23/13/5
f 21/1/6 29/4/6 32/14/6 24/13/6
f 27/4/1 25/14/1 24/13/1 21/1/1
f 27/13/2 21/1/2 29/4/2 33/14/2
f 21/4/3 24/14/3 32/13/3 29/1/3
f 33/1/4 29/4/4 32/14/4 34/13/4
f 25/1/5 34/4/5 32/14/5 24/13/5
f 27/1/6 33/4/6 34/14/6 25/13/6
f 26/4/1 28/14/1 25/13/1 27/1/1
f 26/13/2 27/1/2 33/4/2 35/14/2
f 27/4/3 25/14/3 34/13/3 33/1/3
f 35/1/4 33/4/4 34/14/4 36/13/4
f 28/1/5 36/4/5 34/14/5 25/13/5
f 26/1/6 35/4/6 36/14/6 28/13/6
f 29/4/1 32/14/1 31/13/1 30/1/1
f 29/13/2 30/1/2 38/4/2 37/14/2
f 30/4/3 31/14/3 39/13/3 38/1/3
f 37/1/4 38/4/4 39/14/4 40/13/4
f 32/1/5 40/4/5 39/14/5 31/13/5
f 29/1/6 37/4/6 40/14/6 32/13/6
f 33/4/1 34/14/1 32/13/1 29/1/1
f 33/13/2 29/1/2 37/4/2 41/14/2
f 29/4/3 32/14/3 40/13/3 37/1/3
f 41/1/4 37/4/4 40/14/4 42/13/4
f 34/1/5 42/4/5 40/14/5 32/13/5
f 33/1/6 41/4/6 42/14/6 34/13/6
f 37/4/1 40/14/1 39/13/1 38/1/1
f 37/13/2 38/1/2 44/4/2 43/14/2
f 38/4/3 39/14/3 45/13/3 44/1/3
f 43/1/4 44/4/4 45/14/4 46/13/4
f 40/1/5 46/4/5 45/14/5 39/13/5
f 37/1/6 43/4/6 46/14/6 40/13/6
f 41/4/1 42/14/1 40/13/1 37/1/1
f 41/13/2 37/1/2 43/4/2 47/14/2
f 37/4/3 40/14/3 46/13/3 43/1/3
f 47/1/4 43/4/4 46/14/4 48/13/4
f 42/1/5 48/4/5 46/14/5 40/13/5
f 41/1/6 47/4/6 48/14/6 42/13/6
f 43/4/1 46/14/1 45/13/1 44/1/1
f 43/13/2 44/1/2 50/4/2 49/14/2
f 44/4/3 45/14/3 51/13/3 50/1/3
f 49/1/4 50/4/4 51/14/4 52/13/4
f 46/1/5 52/4/5 51/14/5 45/13/5
f 43/1/6 49/4/6 52/14/6 46/13/6
f 55/4/1 56/14/1 54/13/1 53/1/1
f 55/13/2 53/1/2 57/4/2 59/14/2
f 53/4/3 54/14/3 58/13/3 57/1/3
f 59/1/4 57/4/4 58/14/4 60/13/4
f 56/1/5 60/4/5 58/14/5 54/13/5
f 55/1/6 59/4/6 60/14/6 56/13/6
