mtllib lighthouse.mtl
usemtl barrel_side
v 1 10 1
v 1 11 1
v 1 10 2
v 1 11 2
v 2 10 1
v 2 11 1
v 2 10 2
v 2 11 2
v 2 14 3
v 2 15 3
v 2 14 4
v 2 9 5
v 2 9 6
v 2 14 5
v 2 15 5
v 2 10 6
v 3 14 3
v 3 15 3
v 3 14 4
v 2 15 4
v 3 15 4
v 3 9 5
v 2 10 5
v 3 10 5
v 3 14 5
v 3 15 5
v 3 9 6
v 3 10 6
vt 0.000000000 0.000000000
vt 1.000000000 0.000000000
vt 0.000000000 1.000000000
vt 1.000000000 1.000000000
vn -1 0 0
vn 0 -1 0
vn 0 0 -1
vn 1 0 0
vn 0 1 0
vn 0 0 1
f 3/4/1 4/3/1 2/1/1 1/2/1
f 3/2/2 1/4/2 5/3/2 7/1/2
f 7/3/4 5/1/4 6/2/4 8/4/4
f 4/4/5 8/3/5 6/1/5 2/2/5
f 11/4/2 9/3/2 17/1/2 19/2/2
f 9/4/3 10/3/3 18/1/3 17/2/3
f 20/3/5 21/1/5 18/2/5 10/4/5
f 11/3/6 19/1/6 21/2/6 20/4/6
f 14/4/2 11/3/2 19/1/2 25/2/2
f 11/4/3 20/3/3 21/1/3 19/2/3
f 15/3/5 26/1/5 21/2/5 20/4/5
f 14/3/6 25/1/6 26/2/6 15/4/6
f 13/2/1 16/4/1 23/3/1 12/1/1
f 12/2/3 23/4/3 24/3/3 22/1/3
f 27/1/4 22/2/4 24/4/4 28/3/4
f 13/1/6 27/2/6 28/4/6 16/3/6
