mtllib lighthouse.mtl
usemtl mangrove_door_top
v 0 10 7
v 0.3125 10 7
v 0 10 6
v 0.3125 10 6
v 0 10 7
v 0.3125 10 7
v 0 11 7
v 0.3125 11 7
v 0 10 6
v 0.3125 10 6
v 0 11 6
v 0.3125 11 6
vt 0.000000000 0.000000000
vt 0.312500000 0.000000000
vt 0.687500000 0.000000000
vt 1.000000000 0.000000000
vt 0.000000000 0.687500000
vt 1.000000000 0.687500000
vt 0.000000000 1.000000000
vt 0.312500000 1.000000000
vt 0.687500000 1.000000000
vt 1.000000000 1.000000000
vn -1 0 0
vn 0 0 -1
vn 1 0 0
vn 0 1 0
vn 0 0 1
f 3/6/4 1/5/4 2/7/4 4/10/4
f 8/10/5 7/9/5 5/3/5 6/4/5
f 11/10/1 9/4/1 5/1/1 7/7/1
f 12/7/2 10/1/2 9/2/2 11/8/2
f 11/6/4 7/5/4 8/7/4 12/10/4
f 12/10/3 8/7/3 6/1/3 10/4/3
