mtllib lighthouse.mtl
usemtl comparator
v -2 10 0
v -2 10 1
v -2 10.125 0
v -2 10.125 1
v -1 10 0
v -1 10 1
v -1 10.125 0
v -1 10.125 1
v -1 10 -1
v -1 10 0
v -1 10.125 -1
v -1 10.125 0
v 0 10 -1
v 0 10 0
v 0 10.125 -1
v 0 10.125 0
vt 0.000000000 0.000000000
vt 1.000000000 0.000000000
vt 0.000000000 0.875000000
vt 1.000000000 0.875000000
vt 0.000000000 1.000000000
vt 1.000000000 1.000000000
vn -1 0 0
vn 0 -1 0
vn 0 0 -1
vn 1 0 0
vn 0 1 0
vn 0 0 1
f 3/5/1 1/3/1 2/4/1 4/6/1
f 2/5/2 1/1/2 5/2/2 6/6/2
f 7/5/3 5/3/3 1/4/3 3/6/3
f 7/6/4 8/5/4 6/3/4 5/4/4
f 7/6/5 3/5/5 4/1/5 8/2/5
f 8/6/6 4/5/6 2/3/6 6/4/6
f 11/5/1 9/3/1 10/4/1 12/6/1
f 10/5/2 9/1/2 13/2/2 14/6/2
f 15/5/3 13/3/3 9/4/3 11/6/3
f 15/6/4 16/5/4 14/3/4 13/4/4
f 15/6/5 11/5/5 12/1/5 16/2/5
f 16/6/6 12/5/6 10/3/6 14/4/6
