mtllib lighthouse.mtl
usemtl dark_oak_trapdoor
v -5 55 1
v -4 55 1
v -5 55.1875 1
v -4 55.1875 1
v -5 55 0
v -4 55 0
v -5 55.1875 0
v -4 55.1875 0
v -5 55 2
v -4 55 2
v -5 55.1875 2
v -4 55.1875 2
v -5 55 1
v -4 55 1
v -5 55.1875 1
v -4 55.1875 1
v -5 55 3
v -4 55 3
v -5 55.1875 3
v -4 55.1875 3
v -5 55 2
v -4 55 2
v -5 55.1875 2
v -4 55.1875 2
v -4 55 -1
v -4 55 0
v -4 55.1875 -1
v -4 55.1875 0
v -3 55 -1
v -3 55 0
v -3 55.1875 -1
v -3 55.1875 0
v -4 41.8125 1
v -3 41.8125 1
v -4 42 1
v -3 42 1
v -4 41.8125 0
v -3 41.8125 0
v -4 42 0
v -3 42 0
v -4 42 1
v -3 42 1
v -4 42.1875 1
v -3 42.1875 1
v -4 42 0
v -3 42 0
v -4 42.1875 0
v -3 42.1875 0
v -4 41.8125 3
v -3 41.8125 3
v -4 42 3
v -3 42 3
v -4 41.8125 2
v -3 41.8125 2
v -4 42 2
v -3 42 2
v -4 42 3
v -3 42 3
v -4 42.1875 3
v -3 42.1875 3
v -4 42 2
v -3 42 2
v -4 42.1875 2
v -3 42.1875 2
v -4 55 4
v -3 55 4
v -4 55.1875 4
v -3 55.1875 4
v -4 55 3
v -3 55 3
v -4 55.1875 3
v -3 55.1875 3
v -3 41.8125 -2
v -3 41.8125 -1
v -3 42 -2
v -3 42 -1
v -2 41.8125 -2
v -2 41.8125 -1
v -2 42 -2
v -2 42 -1
v -3 42 -2
v -3 42 -1
v -3 42.1875 -2
v -3 42.1875 -1
v -2 42 -2
v -2 42 -1
v -2 42.1875 -2
v -2 42.1875 -1
v -3 55 -2
v -3 55 -1
v -3 55.1875 -2
v -3 55.1875 -1
v -2 55 -2
v -2 55 -1
v -2 55.1875 -2
v -2 55.1875 -1
v -3 41.8125 5
v -2 41.8125 5
v -3 42 5
v -2 42 5
v -3 41.8125 4
v -2 41.8125 4
v -3 42 4
v -2 42 4
v -2 42 5
v -2 42 4
v -2 42.1875 5
v -2 42.1875 4
v -3 42 5
v -3 42 4
v -3 42.1875 5
v -3 42.1875 4
v -3 55 5
v -2 55 5
v -3 55.1875 5
v -2 55.1875 5
v -3 55 4
v -2 55 4
v -3 55.1875 4
v -2 55.1875 4
v -2 55 -3
v -2 55 -2
v -2 55.1875 -3
v -2 55.1875 -2
v -1 55 -3
v -1 55 -2
v -1 55.1875 -3
v -1 55.1875 -2
v -2 55 6
v -1 55 6
v -2 55.1875 6
v -1 55.1875 6
v -2 55 5
v -1 55 5
v -2 55.1875 5
v -1 55.1875 5
v -1 55 -4
v -1 55 -3
v -1 55.1875 -4
v -1 55.1875 -3
v 0 55 -4
v 0 55 -3
v 0 55.1875 -4
v 0 55.1875 -3
v -1 41.8125 -2
v 0 41.8125 -2
v -1 42 -2
v 0 42 -2
v -1 41.8125 -3
v 0 41.8125 -3
v -1 42 -3
v 0 42 -3
v -1 42 -3
v -1 42 -2
v -1 42.1875 -3
v -1 42.1875 -2
v 0 42 -3
v 0 42 -2
v 0 42.1875 -3
v 0 42.1875 -2
v 0 41.8125 6
v 0 41.8125 5
v 0 42 6
v 0 42 5
v -1 41.8125 6
v -1 41.8125 5
v -1 42 6
v -1 42 5
v 0 42 6
v 0 42 5
v 0 42.1875 6
v 0 42.1875 5
v -1 42 6
v -1 42 5
v -1 42.1875 6
v -1 42.1875 5
v 0 55 7
v 0 55 6
v 0 55.1875 7
v 0 55.1875 6
v -1 55 7
v -1 55 6
v -1 55.1875 7
v -1 55.1875 6
v 0 55 -4
v 0 55 -3
v 0 55.1875 -4
v 0 55.1875 -3
v 1 55 -4
v 1 55 -3
v 1 55.1875 -4
v 1 55.1875 -3
v 0 27 -3
v 0 27 -2
v 0 27.1875 -3
v 0 27.1875 -2
v 1 27 -3
v 1 27 -2
v 1 27.1875 -3
v 1 27.1875 -2
v 0 35 -3
v 0 35 -2
v 0 35.1875 -3
v 0 35.1875 -2
v 1 35 -3
v 1 35 -2
v 1 35.1875 -3
v 1 35.1875 -2
v 1 27 6
v 1 27 5
v 1 27.1875 6
v 1 27.1875 5
v 0 27 6
v 0 27 5
v 0 27.1875 6
v 0 27.1875 5
v 1 31 6
v 1 31 5
v 1 31.1875 6
v 1 31.1875 5
v 0 31 6
v 0 31 5
v 0 31.1875 6
v 0 31.1875 5
v 1 35 6
v 1 35 5
v 1 35.1875 6
v 1 35.1875 5
v 0 35 6
v 0 35 5
v 0 35.1875 6
v 0 35.1875 5
v 1 55 7
v 1 55 6
v 1 55.1875 7
v 1 55.1875 6
v 0 55 7
v 0 55 6
v 0 55.1875 7
v 0 55.1875 6
v 1 55 -4
v 1 55 -3
v 1 55.1875 -4
v 1 55.1875 -3
v 2 55 -4
v 2 55 -3
v 2 55.1875 -4
v 2 55.1875 -3
v 1 41.8125 -3
v 1 41.8125 -2
v 1 42 -3
v 1 42 -2
v 2 41.8125 -3
v 2 41.8125 -2
v 2 42 -3
v 2 42 -2
v 1 42 -3
v 1 42 -2
v 1 42.1875 -3
v 1 42.1875 -2
v 2 42 -3
v 2 42 -2
v 2 42.1875 -3
v 2 42.1875 -2
v 1 29.8125 0
v 2 29.8125 0
v 1 30 0
v 2 30 0
v 1 29.8125 -1
v 2 29.8125 -1
v 1 30 -1
v 2 30 -1
v 2 41.8125 6
v 2 41.8125 5
v 2 42 6
v 2 42 5
v 1 41.8125 6
v 1 41.8125 5
v 1 42 6
v 1 42 5
v 2 42 6
v 2 42 5
v 2 42.1875 6
v 2 42.1875 5
v 1 42 6
v 1 42 5
v 1 42.1875 6
v 1 42.1875 5
v 2 55 7
v 2 55 6
v 2 55.1875 7
v 2 55.1875 6
v 1 55 7
v 1 55 6
v 1 55.1875 7
v 1 55.1875 6
v 2 55 -3
v 2 55 -2
v 2 55.1875 -3
v 2 55.1875 -2
v 3 55 -3
v 3 55 -2
v 3 55.1875 -3
v 3 55.1875 -2
v 3 55 6
v 3 55 5
v 3 55.1875 6
v 3 55.1875 5
v 2 55 6
v 2 55 5
v 2 55.1875 6
v 2 55.1875 5
v 4 41.8125 -2
v 3 41.8125 -2
v 4 42 -2
v 3 42 -2
v 4 41.8125 -1
v 3 41.8125 -1
v 4 42 -1
v 3 42 -1
v 3 42 -2
v 3 42 -1
v 3 42.1875 -2
v 3 42.1875 -1
v 4 42 -2
v 4 42 -1
v 4 42.1875 -2
v 4 42.1875 -1
v 3 55 -2
v 3 55 -1
v 3 55.1875 -2
v 3 55.1875 -1
v 4 55 -2
v 4 55 -1
v 4 55.1875 -2
v 4 55.1875 -1
v 4 41.8125 5
v 4 41.8125 4
v 4 42 5
v 4 42 4
v 3 41.8125 5
v 3 41.8125 4
v 3 42 5
v 3 42 4
v 4 42 5
v 4 42 4
v 4 42.1875 5
v 4 42.1875 4
v 3 42 5
v 3 42 4
v 3 42.1875 5
v 3 42.1875 4
v 4 55 5
v 4 55 4
v 4 55.1875 5
v 4 55.1875 4
v 3 55 5
v 3 55 4
v 3 55.1875 5
v 3 55.1875 4
v 4 55 -1
v 4 55 0
v 4 55.1875 -1
v 4 55.1875 0
v 5 55 -1
v 5 55 0
v 5 55.1875 -1
v 5 55.1875 0
v 5 41.8125 0
v 4 41.8125 0
v 5 42 0
v 4 42 0
v 5 41.8125 1
v 4 41.8125 1
v 5 42 1
v 4 42 1
v 5 42 0
v 4 42 0
v 5 42.1875 0
v 4 42.1875 0
v 5 42 1
v 4 42 1
v 5 42.1875 1
v 4 42.1875 1
v 5 41.8125 2
v 4 41.8125 2
v 5 42 2
v 4 42 2
v 5 41.8125 3
v 4 41.8125 3
v 5 42 3
v 4 42 3
v 5 42 2
v 4 42 2
v 5 42.1875 2
v 4 42.1875 2
v 5 42 3
v 4 42 3
v 5 42.1875 3
v 4 42.1875 3
v 5 55 4
v 5 55 3
v 5 55.1875 4
v 5 55.1875 3
v 4 55 4
v 4 55 3
v 4 55.1875 4
v 4 55.1875 3
v 6 55 0
v 5 55 0
v 6 55.1875 0
v 5 55.1875 0
v 6 55 1
v 5 55 1
v 6 55.1875 1
v 5 55.1875 1
v 6 55 1
v 5 55 1
v 6 55.1875 1
v 5 55.1875 1
v 6 55 2
v 5 55 2
v 6 55.1875 2
v 5 55.1875 2
v 6 55 2
v 5 55 2
v 6 55.1875 2
v 5 55.1875 2
v 6 55 3
v 5 55 3
v 6 55.1875 3
v 5 55.1875 3
vt 0.000000000 0.000000000
vt 1.000000000 0.000000000
vt 0.000000000 0.812500000
vt 1.000000000 0.812500000
vt 0.000000000 1.000000000
vt 1.000000000 1.000000000
vn -1 0 0
vn 0 -1 0
vn 0 0 -1
vn 1 0 0
vn 0 1 0
vn 0 0 1
f 4/6/6 3/5/6 1/3/6 2/4/6
f 2/5/2 1/1/2 5/2/2 6/6/2
f 7/5/1 5/3/1 1/4/1 3/6/1
f 8/5/3 6/3/3 5/4/3 7/6/3
f 7/2/5 3/1/5 4/5/5 8/6/5
f 8/6/4 4/5/4 2/3/4 6/4/4
f 12/6/6 11/5/6 9/3/6 10/4/6
f 10/5/2 9/1/2 13/2/2 14/6/2
f 15/5/1 13/3/1 9/4/1 11/6/1
f 16/5/3 14/3/3 13/4/3 15/6/3
f 15/2/5 11/1/5 12/5/5 16/6/5
f 16/6/4 12/5/4 10/3/4 14/4/4
f 20/6/6 19/5/6 17/3/6 18/4/6
f 18/5/2 17/1/2 21/2/2 22/6/2
f 23/5/1 21/3/1 17/4/1 19/6/1
f 24/5/3 22/3/3 21/4/3 23/6/3
f 23/2/5 19/1/5 20/5/5 24/6/5
f 24/6/4 20/5/4 18/3/4 22/4/4
f 27/5/1 25/3/1 26/4/1 28/6/1
f 26/5/2 25/1/2 29/2/2 30/6/2
f 31/5/3 29/3/3 25/4/3 27/6/3
f 31/6/4 32/5/4 30/3/4 29/4/4
f 31/2/5 27/1/5 28/5/5 32/6/5
f 32/6/6 28/5/6 26/3/6 30/4/6
f 36/6/6 35/5/6 33/3/6 34/4/6
f 34/5/2 33/1/2 37/2/2 38/6/2
f 39/5/1 37/3/1 33/4/1 35/6/1
f 40/5/3 38/3/3 37/4/3 39/6/3
f 39/2/5 35/1/5 36/5/5 40/6/5
f 40/6/4 36/5/4 34/3/4 38/4/4
f 44/6/6 43/5/6 41/3/6 42/4/6
f 42/5/2 41/1/2 45/2/2 46/6/2
f 47/5/1 45/3/1 41/4/1 43/6/1
f 48/5/3 46/3/3 45/4/3 47/6/3
f 47/2/5 43/1/5 44/5/5 48/6/5
f 48/6/4 44/5/4 42/3/4 46/4/4
f 52/6/6 51/5/6 49/3/6 50/4/6
f 50/5/2 49/1/2 53/2/2 54/6/2
f 55/5/1 53/3/1 49/4/1 51/6/1
f 56/5/3 54/3/3 53/4/3 55/6/3
f 55/2/5 51/1/5 52/5/5 56/6/5
f 56/6/4 52/5/4 50/3/4 54/4/4
f 60/6/6 59/5/6 57/3/6 58/4/6
f 58/5/2 57/1/2 61/2/2 62/6/2
f 63/5/1 61/3/1 57/4/1 59/6/1
f 64/5/3 62/3/3 61/4/3 63/6/3
f 63/2/5 59/1/5 60/5/5 64/6/5
f 64/6/4 60/5/4 58/3/4 62/4/4
f 68/6/6 67/5/6 65/3/6 66/4/6
f 66/5/2 65/1/2 69/2/2 70/6/2
f 71/5/1 69/3/1 65/4/1 67/6/1
f 72/5/3 70/3/3 69/4/3 71/6/3
f 71/2/5 67/1/5 68/5/5 72/6/5
f 72/6/4 68/5/4 66/3/4 70/4/4
f 75/5/1 73/3/1 74/4/1 76/6/1
f 74/5/2 73/1/2 77/2/2 78/6/2
f 79/5/3 77/3/3 73/4/3 75/6/3
f 79/6/4 80/5/4 78/3/4 77/4/4
f 79/2/5 75/1/5 76/5/5 80/6/5
f 80/6/6 76/5/6 74/3/6 78/4/6
f 83/5/1 81/3/1 82/4/1 84/6/1
f 82/5/2 81/1/2 85/2/2 86/6/2
f 87/5/3 85/3/3 81/4/3 83/6/3
f 87/6/4 88/5/4 86/3/4 85/4/4
f 87/2/5 83/1/5 84/5/5 88/6/5
f 88/6/6 84/5/6 82/3/6 86/4/6
f 91/5/1 89/3/1 90/4/1 92/6/1
f 90/5/2 89/1/2 93/2/2 94/6/2
f 95/5/3 93/3/3 89/4/3 91/6/3
f 95/6/4 96/5/4 94/3/4 93/4/4
f 95/2/5 91/1/5 92/5/5 96/6/5
f 96/6/6 92/5/6 90/3/6 94/4/6
f 100/6/6 99/5/6 97/3/6 98/4/6
f 98/5/2 97/1/2 101/2/2 102/6/2
f 103/5/1 101/3/1 97/4/1 99/6/1
f 104/5/3 102/3/3 101/4/3 103/6/3
f 103/2/5 99/1/5 100/5/5 104/6/5
f 104/6/4 100/5/4 98/3/4 102/4/4
f 108/6/4 107/5/4 105/3/4 106/4/4
f 106/5/2 105/1/2 109/2/2 110/6/2
f 107/6/6 111/5/6 109/3/6 105/4/6
f 112/5/1 110/3/1 109/4/1 111/6/1
f 111/2/5 107/1/5 108/5/5 112/6/5
f 108/5/3 106/3/3 110/4/3 112/6/3
f 116/6/6 115/5/6 113/3/6 114/4/6
f 114/5/2 113/1/2 117/2/2 118/6/2
f 119/5/1 117/3/1 113/4/1 115/6/1
f 120/5/3 118/3/3 117/4/3 119/6/3
f 119/2/5 115/1/5 116/5/5 120/6/5
f 120/6/4 116/5/4 114/3/4 118/4/4
f 123/5/1 121/3/1 122/4/1 124/6/1
f 122/5/2 121/1/2 125/2/2 126/6/2
f 127/5/3 125/3/3 121/4/3 123/6/3
f 127/6/4 128/5/4 126/3/4 125/4/4
f 127/2/5 123/1/5 124/5/5 128/6/5
f 128/6/6 124/5/6 122/3/6 126/4/6
f 132/6/6 131/5/6 129/3/6 130/4/6
f 130/5/2 129/1/2 133/2/2 134/6/2
f 135/5/1 133/3/1 129/4/1 131/6/1
f 136/5/3 134/3/3 133/4/3 135/6/3
f 135/2/5 131/1/5 132/5/5 136/6/5
f 136/6/4 132/5/4 130/3/4 134/4/4
f 139/5/1 137/3/1 138/4/1 140/6/1
f 138/5/2 137/1/2 141/2/2 142/6/2
f 143/5/3 141/3/3 137/4/3 139/6/3
f 143/6/4 144/5/4 142/3/4 141/4/4
f 143/2/5 139/1/5 140/5/5 144/6/5
f 144/6/6 140/5/6 138/3/6 142/4/6
f 148/6/6 147/5/6 145/3/6 146/4/6
f 146/5/2 145/1/2 149/2/2 150/6/2
f 151/5/1 149/3/1 145/4/1 147/6/1
f 152/5/3 150/3/3 149/4/3 151/6/3
f 151/2/5 147/1/5 148/5/5 152/6/5
f 152/6/4 148/5/4 146/3/4 150/4/4
f 155/5/1 153/3/1 154/4/1 156/6/1
f 154/5/2 153/1/2 157/2/2 158/6/2
f 159/5/3 157/3/3 153/4/3 155/6/3
f 159/6/4 160/5/4 158/3/4 157/4/4
f 159/2/5 155/1/5 156/5/5 160/6/5
f 160/6/6 156/5/6 154/3/6 158/4/6
f 164/6/4 163/5/4 161/3/4 162/4/4
f 162/5/2 161/1/2 165/2/2 166/6/2
f 163/6/6 167/5/6 165/3/6 161/4/6
f 168/5/1 166/3/1 165/4/1 167/6/1
f 167/2/5 163/1/5 164/5/5 168/6/5
f 164/5/3 162/3/3 166/4/3 168/6/3
f 172/6/4 171/5/4 169/3/4 170/4/4
f 170/5/2 169/1/2 173/2/2 174/6/2
f 171/6/6 175/5/6 173/3/6 169/4/6
f 176/5/1 174/3/1 173/4/1 175/6/1
f 175/2/5 171/1/5 172/5/5 176/6/5
f 172/5/3 170/3/3 174/4/3 176/6/3
f 180/6/4 179/5/4 177/3/4 178/4/4
f 178/5/2 177/1/2 181/2/2 182/6/2
f 179/6/6 183/5/6 181/3/6 177/4/6
f 184/5/1 182/3/1 181/4/1 183/6/1
f 183/2/5 179/1/5 180/5/5 184/6/5
f 180/5/3 178/3/3 182/4/3 184/6/3
f 187/5/1 185/3/1 186/4/1 188/6/1
f 186/5/2 185/1/2 189/2/2 190/6/2
f 191/5/3 189/3/3 185/4/3 187/6/3
f 191/6/4 192/5/4 190/3/4 189/4/4
f 191/2/5 187/1/5 188/5/5 192/6/5
f 192/6/6 188/5/6 186/3/6 190/4/6
f 195/5/1 193/3/1 194/4/1 196/6/1
f 194/5/2 193/1/2 197/2/2 198/6/2
f 199/5/3 197/3/3 193/4/3 195/6/3
f 199/6/4 200/5/4 198/3/4 197/4/4
f 199/2/5 195/1/5 196/5/5 200/6/5
f 200/6/6 196/5/6 194/3/6 198/4/6
f 203/5/1 201/3/1 202/4/1 204/6/1
f 202/5/2 201/1/2 205/2/2 206/6/2
f 207/5/3 205/3/3 201/4/3 203/6/3
f 207/6/4 208/5/4 206/3/4 205/4/4
f 207/2/5 203/1/5 204/5/5 208/6/5
f 208/6/6 204/5/6 202/3/6 206/4/6
f 212/6/4 211/5/4 209/3/4 210/4/4
f 210/5/2 209/1/2 213/2/2 214/6/2
f 211/6/6 215/5/6 213/3/6 209/4/6
f 216/5/1 214/3/1 213/4/1 215/6/1
f 215/2/5 211/1/5 212/5/5 216/6/5
f 212/5/3 210/3/3 214/4/3 216/6/3
f 220/6/4 219/5/4 217/3/4 218/4/4
f 218/5/2 217/1/2 221/2/2 222/6/2
f 219/6/6 223/5/6 221/3/6 217/4/6
f 224/5/1 222/3/1 221/4/1 223/6/1
f 223/2/5 219/1/5 220/5/5 224/6/5
f 220/5/3 218/3/3 222/4/3 224/6/3
f 228/6/4 227/5/4 225/3/4 226/4/4
f 226/5/2 225/1/2 229/2/2 230/6/2
f 227/6/6 231/5/6 229/3/6 225/4/6
f 232/5/1 230/3/1 229/4/1 231/6/1
f 231/2/5 227/1/5 228/5/5 232/6/5
f 228/5/3 226/3/3 230/4/3 232/6/3
f 236/6/4 235/5/4 233/3/4 234/4/4
f 234/5/2 233/1/2 237/2/2 238/6/2
f 235/6/6 239/5/6 237/3/6 233/4/6
f 240/5/1 238/3/1 237/4/1 239/6/1
f 239/2/5 235/1/5 236/5/5 240/6/5
f 236/5/3 234/3/3 238/4/3 240/6/3
f 243/5/1 241/3/1 242/4/1 244/6/1
f 242/5/2 241/1/2 245/2/2 246/6/2
f 247/5/3 245/3/3 241/4/3 243/6/3
f 247/6/4 248/5/4 246/3/4 245/4/4
f 247/2/5 243/1/5 244/5/5 248/6/5
f 248/6/6 244/5/6 242/3/6 246/4/6
f 251/5/1 249/3/1 250/4/1 252/6/1
f 250/5/2 249/1/2 253/2/2 254/6/2
f 255/5/3 253/3/3 249/4/3 251/6/3
f 255/6/4 256/5/4 254/3/4 253/4/4
f 255/2/5 251/1/5 252/5/5 256/6/5
f 256/6/6 252/5/6 250/3/6 254/4/6
f 259/5/1 257/3/1 258/4/1 260/6/1
f 258/5/2 257/1/2 261/2/2 262/6/2
f 263/5/3 261/3/3 257/4/3 259/6/3
f 263/6/4 264/5/4 262/3/4 261/4/4
f 263/2/5 259/1/5 260/5/5 264/6/5
f 264/6/6 260/5/6 258/3/6 262/4/6
f 268/6/6 267/5/6 265/3/6 266/4/6
f 266/5/2 265/1/2 269/2/2 270/6/2
f 271/5/1 269/3/1 265/4/1 267/6/1
f 272/5/3 270/3/3 269/4/3 271/6/3
f 271/2/5 267/1/5 268/5/5 272/6/5
f 272/6/4 268/5/4 266/3/4 270/4/4
f 276/6/4 275/5/4 273/3/4 274/4/4
f 274/5/2 273/1/2 277/2/2 278/6/2
f 275/6/6 279/5/6 277/3/6 273/4/6
f 280/5/1 278/3/1 277/4/1 279/6/1
f 279/2/5 275/1/5 276/5/5 280/6/5
f 276/5/3 274/3/3 278/4/3 280/6/3
f 284/6/4 283/5/4 281/3/4 282/4/4
f 282/5/2 281/1/2 285/2/2 286/6/2
f 283/6/6 287/5/6 285/3/6 281/4/6
f 288/5/1 286/3/1 285/4/1 287/6/1
f 287/2/5 283/1/5 284/5/5 288/6/5
f 284/5/3 282/3/3 286/4/3 288/6/3
f 292/6/4 291/5/4 289/3/4 290/4/4
f 290/5/2 289/1/2 293/2/2 294/6/2
f 291/6/6 295/5/6 293/3/6 289/4/6
f 296/5/1 294/3/1 293/4/1 295/6/1
f 295/2/5 291/1/5 292/5/5 296/6/5
f 292/5/3 290/3/3 294/4/3 296/6/3
f 299/5/1 297/3/1 298/4/1 300/6/1
f 298/5/2 297/1/2 301/2/2 302/6/2
f 303/5/3 301/3/3 297/4/3 299/6/3
f 303/6/4 304/5/4 302/3/4 301/4/4
f 303/2/5 299/1/5 300/5/5 304/6/5
f 304/6/6 300/5/6 298/3/6 302/4/6
f 308/6/4 307/5/4 305/3/4 306/4/4
f 306/5/2 305/1/2 309/2/2 310/6/2
f 307/6/6 311/5/6 309/3/6 305/4/6
f 312/5/1 310/3/1 309/4/1 311/6/1
f 311/2/5 307/1/5 308/5/5 312/6/5
f 308/5/3 306/3/3 310/4/3 312/6/3
f 315/5/3 313/3/3 314/4/3 316/6/3
f 314/5/2 313/1/2 317/2/2 318/6/2
f 315/6/4 319/5/4 317/3/4 313/4/4
f 319/6/6 320/5/6 318/3/6 317/4/6
f 319/2/5 315/1/5 316/5/5 320/6/5
f 316/5/1 314/3/1 318/4/1 320/6/1
f 323/5/1 321/3/1 322/4/1 324/6/1
f 322/5/2 321/1/2 325/2/2 326/6/2
f 327/5/3 325/3/3 321/4/3 323/6/3
f 327/6/4 328/5/4 326/3/4 325/4/4
f 327/2/5 323/1/5 324/5/5 328/6/5
f 328/6/6 324/5/6 322/3/6 326/4/6
f 331/5/1 329/3/1 330/4/1 332/6/1
f 330/5/2 329/1/2 333/2/2 334/6/2
f 335/5/3 333/3/3 329/4/3 331/6/3
f 335/6/4 336/5/4 334/3/4 333/4/4
f 335/2/5 331/1/5 332/5/5 336/6/5
f 336/6/6 332/5/6 330/3/6 334/4/6
f 340/6/4 339/5/4 337/3/4 338/4/4
f 338/5/2 337/1/2 341/2/2 342/6/2
f 339/6/6 343/5/6 341/3/6 337/4/6
f 344/5/1 342/3/1 341/4/1 343/6/1
f 343/2/5 339/1/5 340/5/5 344/6/5
f 340/5/3 338/3/3 342/4/3 344/6/3
f 348/6/4 347/5/4 345/3/4 346/4/4
f 346/5/2 345/1/2 349/2/2 350/6/2
f 347/6/6 351/5/6 349/3/6 345/4/6
f 352/5/1 350/3/1 349/4/1 351/6/1
f 351/2/5 347/1/5 348/5/5 352/6/5
f 348/5/3 346/3/3 350/4/3 352/6/3
f 356/6/4 355/5/4 353/3/4 354/4/4
f 354/5/2 353/1/2 357/2/2 358/6/2
f 355/6/6 359/5/6 357/3/6 353/4/6
f 360/5/1 358/3/1 357/4/1 359/6/1
f 359/2/5 355/1/5 356/5/5 360/6/5
f 356/5/3 354/3/3 358/4/3 360/6/3
f 363/5/1 361/3/1 362/4/1 364/6/1
f 362/5/2 361/1/2 365/2/2 366/6/2
f 367/5/3 365/3/3 361/4/3 363/6/3
f 367/6/4 368/5/4 366/3/4 365/4/4
f 367/2/5 363/1/5 364/5/5 368/6/5
f 368/6/6 364/5/6 362/3/6 366/4/6
f 371/5/3 369/3/3 370/4/3 372/6/3
f 370/5/2 369/1/2 373/2/2 374/6/2
f 371/6/4 375/5/4 373/3/4 369/4/4
f 375/6/6 376/5/6 374/3/6 373/4/6
f 375/2/5 371/1/5 372/5/5 376/6/5
f 372/5/1 370/3/1 374/4/1 376/6/1
f 379/5/3 377/3/3 378/4/3 380/6/3
f 378/5/2 377/1/2 381/2/2 382/6/2
f 379/6/4 383/5/4 381/3/4 377/4/4
f 383/6/6 384/5/6 382/3/6 381/4/6
f 383/2/5 379/1/5 380/5/5 384/6/5
f 380/5/1 378/3/1 382/4/1 384/6/1
f 387/5/3 385/3/3 386/4/3 388/6/3
f 386/5/2 385/1/2 389/2/2 390/6/2
f 387/6/4 391/5/4 389/3/4 385/4/4
f 391/6/6 392/5/6 390/3/6 389/4/6
f 391/2/5 387/1/5 388/5/5 392/6/5
f 388/5/1 386/3/1 390/4/1 392/6/1
f 395/5/3 393/3/3 394/4/3 396/6/3
f 394/5/2 393/1/2 397/2/2 398/6/2
f 395/6/4 399/5/4 397/3/4 393/4/4
f 399/6/6 400/5/6 398/3/6 397/4/6
f 399/2/5 395/1/5 396/5/5 400/6/5
f 396/5/1 394/3/1 398/4/1 400/6/1
f 404/6/4 403/5/4 401/3/4 402/4/4
f 402/5/2 401/1/2 405/2/2 406/6/2
f 403/6/6 407/5/6 405/3/6 401/4/6
f 408/5/1 406/3/1 405/4/1 407/6/1
f 407/2/5 403/1/5 404/5/5 408/6/5
f 404/5/3 402/3/3 406/4/3 408/6/3
f 411/5/3 409/3/3 410/4/3 412/6/3
f 410/5/2 409/1/2 413/2/2 414/6/2
f 411/6/4 415/5/4 413/3/4 409/4/4
f 415/6/6 416/5/6 414/3/6 413/4/6
f 415/2/5 411/1/5 412/5/5 416/6/5
f 412/5/1 410/3/1 414/4/1 416/6/1
f 419/5/3 417/3/3 418/4/3 420/6/3
f 418/5/2 417/1/2 421/2/2 422/6/2
f 419/6/4 423/5/4 421/3/4 417/4/4
f 423/6/6 424/5/6 422/3/6 421/4/6
f 423/2/5 419/1/5 420/5/5 424/6/5
f 420/5/1 418/3/1 422/4/1 424/6/1
f 427/5/3 425/3/3 426/4/3 428/6/3
f 426/5/2 425/1/2 429/2/2 430/6/2
f 427/6/4 431/5/4 429/3/4 425/4/4
f 431/6/6 432/5/6 430/3/6 429/4/6
f 431/2/5 427/1/5 428/5/5 432/6/5
f 428/5/1 426/3/1 430/4/1 432/6/1
