mtllib lighthouse.mtl
usemtl scaffolding_top
v -2 31 -1
v -2 31 0
v -1 31 -1
v -1 31 0
v -2 32 -1
v -2 32 0
v -1 32 -1
v -1 32 0
v -2 33 -1
v -2 33 0
v -1 33 -1
v -1 33 0
v -2 34 -1
v -2 34 0
v -1 34 -1
v -1 34 0
v -2 35 -1
v -2 35 0
v -1 35 -1
v -1 35 0
v -2 36 -1
v -2 36 0
v -1 36 -1
v -1 36 0
v -2 37 -1
v -2 37 0
v -1 37 -1
v -1 37 0
v 2 22 -1
v 2 22 0
v 3 22 -1
v 3 22 0
v 2 23 -1
v 2 23 0
v 3 23 -1
v 3 23 0
v 2 24 -1
v 2 24 0
v 3 24 -1
v 3 24 0
v 2 25 -1
v 2 25 0
v 3 25 -1
v 3 25 0
v 2 26 -1
v 2 26 0
v 3 26 -1
v 3 26 0
vt 0.000000000 0.000000000
vt 1.000000000 0.000000000
vt 0.000000000 1.000000000
vt 1.000000000 1.000000000
vn 0 1 0
f 3/4/1 1/3/1 2/1/1 4/2/1
f 7/4/1 5/3/1 6/1/1 8/2/1
f 11/4/1 9/3/1 10/1/1 12/2/1
f 15/4/1 13/3/1 14/1/1 16/2/1
f 19/4/1 17/3/1 18/1/1 20/2/1
f 23/4/1 21/3/1 22/1/1 24/2/1
f 27/4/1 25/3/1 26/1/1 28/2/1
f 31/4/1 29/3/1 30/1/1 32/2/1
f 35/4/1 33/3/1 34/1/1 36/2/1
f 39/4/1 37/3/1 38/1/1 40/2/1
f 43/4/1 41/3/1 42/1/1 44/2/1
f 47/4/1 45/3/1 46/1/1 48/2/1
