mtllib lighthouse.mtl
usemtl mangrove_roots_side
v -8 4 -8
v -8 4 -7
v -8 5 -8
v -8 5 -7
v -7 4 -8
v -7 4 -7
v -7 5 -8
v -7 5 -7
v -8 4 -7.5
v -8 5 -7.5
v -7 4 -7.5
v -7 5 -7.5
v -7.5 4 -8
v -7.5 4 -7
v -7.5 5 -8
v -7.5 5 -7
v -8 5 -5
v -8 5 -4
v -8 6 -5
v -8 6 -4
v -7 5 -5
v -7 5 -4
v -7 6 -5
v -7 6 -4
v -8 5 -4.5
v -8 6 -4.5
v -7 5 -4.5
v -7 6 -4.5
v -7.5 5 -5
v -7.5 5 -4
v -7.5 6 -5
v -7.5 6 -4
v -7 4 -7
v -7 4 -6
v -7 5 -7
v -7 5 -6
v -6 4 -7
v -6 4 -6
v -6 5 -7
v -6 5 -6
v -7 4 -6.5
v -7 5 -6.5
v -6 4 -6.5
v -6 5 -6.5
v -6.5 4 -7
v -6.5 4 -6
v -6.5 5 -7
v -6.5 5 -6
v -5 2 -13
v -5 2 -12
v -5 3 -13
v -5 3 -12
v -4 2 -13
v -4 2 -12
v -4 3 -13
v -4 3 -12
v -5 2 -12.5
v -5 3 -12.5
v -4 2 -12.5
v -4 3 -12.5
v -4.5 2 -13
v -4.5 2 -12
v -4.5 3 -13
v -4.5 3 -12
v -4 0 -14
v -4 0 -13
v -4 1 -14
v -4 1 -13
v -3 0 -14
v -3 0 -13
v -3 1 -14
v -3 1 -13
v -4 0 -13.5
v -4 1 -13.5
v -3 0 -13.5
v -3 1 -13.5
v -3.5 0 -14
v -3.5 0 -13
v -3.5 1 -14
v -3.5 1 -13
v -4 1 -13
v -4 1 -12
v -4 2 -13
v -4 2 -12
v -3 1 -13
v -3 1 -12
v -3 2 -13
v -3 2 -12
v -4 1 -12.5
v -4 2 -12.5
v -3 1 -12.5
v -3 2 -12.5
v -3.5 1 -13
v -3.5 1 -12
v -3.5 2 -13
v -3.5 2 -12
v -3 1 -9
v -3 1 -8
v -3 2 -9
v -3 2 -8
v -2 1 -9
v -2 1 -8
v -2 2 -9
v -2 2 -8
v -3 1 -8.5
v -3 2 -8.5
v -2 1 -8.5
v -2 2 -8.5
v -2.5 1 -9
v -2.5 1 -8
v -2.5 2 -9
v -2.5 2 -8
v 1 2 -10
v 1 2 -9
v 1 3 -10
v 1 3 -9
v 2 2 -10
v 2 2 -9
v 2 3 -10
v 2 3 -9
v 1 2 -9.5
v 1 3 -9.5
v 2 2 -9.5
v 2 3 -9.5
v 1.5 2 -10
v 1.5 2 -9
v 1.5 3 -10
v 1.5 3 -9
v 2 0 -13
v 2 0 -12
v 2 1 -13
v 2 1 -12
v 3 0 -13
v 3 0 -12
v 3 1 -13
v 3 1 -12
v 2 0 -12.5
v 2 1 -12.5
v 3 0 -12.5
v 3 1 -12.5
v 2.5 0 -13
v 2.5 0 -12
v 2.5 1 -13
v 2.5 1 -12
v 2 1 -11
v 2 1 -10
v 2 2 -11
v 2 2 -10
v 3 1 -11
v 3 1 -10
v 3 2 -11
v 3 2 -10
v 2 1 -10.5
v 2 2 -10.5
v 3 1 -10.5
v 3 2 -10.5
v 2.5 1 -11
v 2.5 1 -10
v 2.5 2 -11
v 2.5 2 -10
v 9 2 2
v 9 2 3
v 9 3 2
v 9 3 3
v 10 2 2
v 10 2 3
v 10 3 2
v 10 3 3
v 9 2 2.5
v 9 3 2.5
v 10 2 2.5
v 10 3 2.5
v 9.5 2 2
v 9.5 2 3
v 9.5 3 2
v 9.5 3 3
v 10 2 6
v 10 2 7
v 10 3 6
v 10 3 7
v 11 2 6
v 11 2 7
v 11 3 6
v 11 3 7
v 10 2 6.5
v 10 3 6.5
v 11 2 6.5
v 11 3 6.5
v 10.5 2 6
v 10.5 2 7
v 10.5 3 6
v 10.5 3 7
v 11 1 -1
v 11 1 0
v 11 2 -1
v 11 2 0
v 12 1 -1
v 12 1 0
v 12 2 -1
v 12 2 0
v 11 1 -0.5
v 11 2 -0.5
v 12 1 -0.5
v 12 2 -0.5
v 11.5 1 -1
v 11.5 1 0
v 11.5 2 -1
v 11.5 2 0
v 12 0 0
v 12 0 1
v 12 1 0
v 12 1 1
v 13 0 0
v 13 0 1
v 13 1 0
v 13 1 1
v 12 0 0.5
v 12 1 0.5
v 13 0 0.5
v 13 1 0.5
v 12.5 0 0
v 12.5 0 1
v 12.5 1 0
v 12.5 1 1
v 12 2 6
v 12 2 7
v 12 3 6
v 12 3 7
v 13 2 6
v 13 2 7
v 13 3 6
v 13 3 7
v 12 2 6.5
v 12 3 6.5
v 13 2 6.5
v 13 3 6.5
v 12.5 2 6
v 12.5 2 7
v 12.5 3 6
v 12.5 3 7
v 13 0 -1
v 13 0 0
v 13 1 -1
v 13 1 0
v 14 0 -1
v 14 0 0
v 14 1 -1
v 14 1 0
v 13 0 -0.5
v 13 1 -0.5
v 14 0 -0.5
v 14 1 -0.5
v 13.5 0 -1
v 13.5 0 0
v 13.5 1 -1
v 13.5 1 0
v 14 1 6
v 14 1 7
v 14 2 6
v 14 2 7
v 15 1 6
v 15 1 7
v 15 2 6
v 15 2 7
v 14 1 6.5
v 14 2 6.5
v 15 1 6.5
v 15 2 6.5
v 14.5 1 6
v 14.5 1 7
v 14.5 2 6
v 14.5 2 7
vt 0.000000000 0.000000000
vt 1.000000000 0.000000000
vt 0.000000000 1.000000000
vt 1.000000000 1.000000000
vn -1 0 0
vn 0 0 -1
vn 1 0 0
vn 0 0 1
f 3/4/1 1/2/1 2/1/1 4/3/1
f 7/4/2 5/2/2 1/1/2 3/3/2
f 7/4/3 8/3/3 6/1/3 5/2/3
f 8/4/4 4/3/4 2/1/4 6/2/4
f 12/4/4 10/3/4 9/1/4 11/2/4
f 15/4/3 16/3/3 14/1/3 13/2/3
f 19/4/1 17/2/1 18/1/1 20/3/1
f 23/4/2 21/2/2 17/1/2 19/3/2
f 23/4/3 24/3/3 22/1/3 21/2/3
f 24/4/4 20/3/4 18/1/4 22/2/4
f 28/4/4 26/3/4 25/1/4 27/2/4
f 31/4/3 32/3/3 30/1/3 29/2/3
f 35/4/1 33/2/1 34/1/1 36/3/1
f 39/4/2 37/2/2 33/1/2 35/3/2
f 39/4/3 40/3/3 38/1/3 37/2/3
f 40/4/4 36/3/4 34/1/4 38/2/4
f 44/4/4 42/3/4 41/1/4 43/2/4
f 47/4/3 48/3/3 46/1/3 45/2/3
f 51/4/1 49/2/1 50/1/1 52/3/1
f 55/4/2 53/2/2 49/1/2 51/3/2
f 55/4/3 56/3/3 54/1/3 53/2/3
f 56/4/4 52/3/4 50/1/4 54/2/4
f 60/4/4 58/3/4 57/1/4 59/2/4
f 63/4/3 64/3/3 62/1/3 61/2/3
f 67/4/1 65/2/1 66/1/1 68/3/1
f 71/4/2 69/2/2 65/1/2 67/3/2
f 71/4/3 72/3/3 70/1/3 69/2/3
f 72/4/4 68/3/4 66/1/4 70/2/4
f 76/4/4 74/3/4 73/1/4 75/2/4
f 79/4/3 80/3/3 78/1/3 77/2/3
f 83/4/1 81/2/1 82/1/1 84/3/1
f 87/4/2 85/2/2 81/1/2 83/3/2
f 87/4/3 88/3/3 86/1/3 85/2/3
f 88/4/4 84/3/4 82/1/4 86/2/4
f 92/4/4 90/3/4 89/1/4 91/2/4
f 95/4/3 96/3/3 94/1/3 93/2/3
f 99/4/1 97/2/1 98/1/1 100/3/1
f 103/4/2 101/2/2 97/1/2 99/3/2
f 103/4/3 104/3/3 102/1/3 101/2/3
f 104/4/4 100/3/4 98/1/4 102/2/4
f 108/4/4 106/3/4 105/1/4 107/2/4
f 111/4/3 112/3/3 110/1/3 109/2/3
f 115/4/1 113/2/1 114/1/1 116/3/1
f 119/4/2 117/2/2 113/1/2 115/3/2
f 119/4/3 120/3/3 118/1/3 117/2/3
f 120/4/4 116/3/4 114/1/4 118/2/4
f 124/4/4 122/3/4 121/1/4 123/2/4
f 127/4/3 128/3/3 126/1/3 125/2/3
f 131/4/1 129/2/1 130/1/1 132/3/1
f 135/4/2 133/2/2 129/1/2 131/3/2
f 135/4/3 136/3/3 134/1/3 133/2/3
f 136/4/4 132/3/4 130/1/4 134/2/4
f 140/4/4 138/3/4 137/1/4 139/2/4
f 143/4/3 144/3/3 142/1/3 141/2/3
f 147/4/1 145/2/1 146/1/1 148/3/1
f 151/4/2 149/2/2 145/1/2 147/3/2
f 151/4/3 152/3/3 150/1/3 149/2/3
f 152/4/4 148/3/4 146/1/4 150/2/4
f 156/4/4 154/3/4 153/1/4 155/2/4
f 159/4/3 160/3/3 158/1/3 157/2/3
f 163/4/1 161/2/1 162/1/1 164/3/1
f 167/4/2 165/2/2 161/1/2 163/3/2
f 167/4/3 168/3/3 166/1/3 165/2/3
f 168/4/4 164/3/4 162/1/4 166/2/4
f 172/4/4 170/3/4 169/1/4 171/2/4
f 175/4/3 176/3/3 174/1/3 173/2/3
f 179/4/1 177/2/1 178/1/1 180/3/1
f 183/4/2 181/2/2 177/1/2 179/3/2
f 183/4/3 184/3/3 182/1/3 181/2/3
f 184/4/4 180/3/4 178/1/4 182/2/4
f 188/4/4 186/3/4 185/1/4 187/2/4
f 191/4/3 192/3/3 190/1/3 189/2/3
f 195/4/1 193/2/1 194/1/1 196/3/1
f 199/4/2 197/2/2 193/1/2 195/3/2
f 199/4/3 200/3/3 198/1/3 197/2/3
f 200/4/4 196/3/4 194/1/4 198/2/4
f 204/4/4 202/3/4 201/1/4 203/2/4
f 207/4/3 208/3/3 206/1/3 205/2/3
f 211/4/1 209/2/1 210/1/1 212/3/1
f 215/4/2 213/2/2 209/1/2 211/3/2
f 215/4/3 216/3/3 214/1/3 213/2/3
f 216/4/4 212/3/4 210/1/4 214/2/4
f 220/4/4 218/3/4 217/1/4 219/2/4
f 223/4/3 224/3/3 222/1/3 221/2/3
f 227/4/1 225/2/1 226/1/1 228/3/1
f 231/4/2 229/2/2 225/1/2 227/3/2
f 231/4/3 232/3/3 230/1/3 229/2/3
f 232/4/4 228/3/4 226/1/4 230/2/4
f 236/4/4 234/3/4 233/1/4 235/2/4
f 239/4/3 240/3/3 238/1/3 237/2/3
f 243/4/1 241/2/1 242/1/1 244/3/1
f 247/4/2 245/2/2 241/1/2 243/3/2
f 247/4/3 248/3/3 246/1/3 245/2/3
f 248/4/4 244/3/4 242/1/4 246/2/4
f 252/4/4 250/3/4 249/1/4 251/2/4
f 255/4/3 256/3/3 254/1/3 253/2/3
f 259/4/1 257/2/1 258/1/1 260/3/1
f 263/4/2 261/2/2 257/1/2 259/3/2
f 263/4/3 264/3/3 262/1/3 261/2/3
f 264/4/4 260/3/4 258/1/4 262/2/4
f 268/4/4 266/3/4 265/1/4 267/2/4
f 271/4/3 272/3/3 270/1/3 269/2/3
