mtllib lighthouse.mtl
usemtl mud
v -5 1 -12
v -5 2 -12
v -5 1 -11
v -5 2 -11
v -4 0 -12
v -4 1 -12
v -4 2 -12
v -4 0 -11
v -4 1 -11
v -4 2 -11
v -4 1 -10
v -4 2 -10
v -4 1 -9
v -4 2 -9
v -4 1 -8
v -4 2 -8
v -4 1 -7
v -4 2 -7
v -4 1 -6
v -4 2 -6
v -4 3 -6
v -4 2 -5
v -4 3 -5
v -3 0 -12
v -3 1 -12
v -3 0 -11
v -3 1 -11
v -3 2 -11
v -3 0 -10
v -3 1 -10
v -3 2 -10
v -3 0 -9
v -3 1 -9
v -3 2 -9
v -3 1 -8
v -3 2 -8
v -3 1 -7
v -3 2 -7
v -3 1 -6
v -3 2 -6
v -3 2 -5
v -3 3 -6
v -3 3 -5
v -3 2 -4
v -3 3 -4
v -2 0 -13
v -2 1 -13
v -2 0 -12
v -2 1 -12
v -2 0 -11
v -2 1 -11
v -2 0 -10
v -2 1 -10
v -2 0 -9
v -2 1 -9
v -2 0 -8
v -2 1 -8
v -2 0 -7
v -2 1 -7
v -2 2 -7
v -2 1 -6
v -2 2 -6
v -2 1 -5
v -2 2 -5
v -2 1 -4
v -2 2 -4
v -2 3 -5
v -2 3 -4
v -1 0 -13
v -1 1 -13
v -1 0 -12
v -1 1 -12
v -1 0 -11
v -1 1 -11
v -1 0 -10
v -1 1 -10
v -1 0 -9
v -1 1 -9
v -1 0 -8
v -1 1 -8
v -1 0 -7
v -1 1 -7
v -1 0 -6
v -1 1 -6
v -1 2 -6
v -1 1 -5
v -1 2 -5
v -1 1 -4
v -1 2 -4
v -1 3 -4
v -1 4 -4
v -1 2 -3
v -1 3 -3
v -1 4 -3
v 0 0 -14
v 0 1 -14
v 0 0 -13
v 0 1 -13
v 0 1 -12
v 0 2 -12
v 0 1 -11
v 0 2 -11
v 0 0 -9
v 0 1 -9
v 0 2 -9
v 0 0 -8
v 0 1 -8
v 0 2 -8
v 0 0 -7
v 0 1 -7
v 0 0 -6
v 0 1 -6
v 0 2 -6
v 0 1 -5
v 0 2 -5
v 0 1 -4
v 0 2 -4
v 0 3 -4
v 0 4 -4
v 0 2 -3
v 0 3 -3
v 0 4 -3
v 1 0 -14
v 1 1 -14
v 1 0 -13
v 1 1 -13
v 1 1 -12
v 1 2 -12
v 1 1 -11
v 1 2 -11
v 1 2 -9
v 1 2 -8
v 0 3 -8
v 0 3 -9
v 1 3 -9
v 1 3 -8
v 1 1 -6
v 1 2 -6
v 1 1 -5
v 1 2 -5
v 1 1 -4
v 1 2 -4
v 1 1 -3
v 1 2 -3
v 1 3 -4
v 1 3 -3
v 2 1 -10
v 2 2 -10
v 2 1 -9
v 2 2 -9
v 2 1 -8
v 2 2 -8
v 2 3 -9
v 2 3 -8
v 2 1 -5
v 2 2 -5
v 2 1 -4
v 2 2 -4
v 2 1 -3
v 2 2 -3
v 2 2 -2
v 2 3 -2
v 2 2 -1
v 2 3 -1
v 3 1 -10
v 3 2 -10
v 3 1 -9
v 3 2 -9
v 3 1 -8
v 3 2 -8
v 3 3 -9
v 3 3 -8
v 3 1 -5
v 3 2 -5
v 3 1 -4
v 3 2 -4
v 3 1 -3
v 3 2 -3
v 3 2 -2
v 3 3 -2
v 3 4 -2
v 3 2 -1
v 3 3 -1
v 3 4 -1
v 4 1 -5
v 4 2 -5
v 4 1 -4
v 4 2 -4
v 4 1 -3
v 4 2 -3
v 4 1 -2
v 4 2 -2
v 4 5 -2
v 4 2 -1
v 4 3 -2
v 4 3 -1
v 4 4 -2
v 4 4 -1
v 4 5 -1
v 5 1 -7
v 5 2 -7
v 5 1 -6
v 5 2 -6
v 5 1 -4
v 5 2 -4
v 5 1 -3
v 5 2 -3
v 5 1 -2
v 5 2 -2
v 5 1 -1
v 5 2 -1
v 5 3 -2
v 5 3 -1
v 5 4 -2
v 5 4 -1
v 5 5 -2
v 5 5 -1
v 5 3 0
v 5 4 0
v 5 5 0
v 6 1 -8
v 6 2 -8
v 6 0 -7
v 6 1 -7
v 6 2 -7
v 6 0 -6
v 6 1 -6
v 6 2 -6
v 6 1 -4
v 6 2 -4
v 6 1 -3
v 6 2 -3
v 6 1 -2
v 6 2 -2
v 6 1 -1
v 6 2 -1
v 6 3 -1
v 6 4 -1
v 6 5 -1
v 6 3 0
v 6 4 0
v 6 5 0
v 7 1 -8
v 7 2 -8
v 7 0 -7
v 7 1 -7
v 7 2 -7
v 7 0 -6
v 7 1 -6
v 7 1 -4
v 7 2 -4
v 7 1 -3
v 7 2 -3
v 7 1 -2
v 7 2 -2
v 7 1 -1
v 7 2 -1
v 7 2 2
v 7 3 2
v 7 4 2
v 7 2 3
v 7 3 3
v 7 4 3
v 7 2 6
v 7 3 6
v 7 2 7
v 7 3 7
v 7 4 7
v 7 2 8
v 7 3 8
v 7 4 8
v 8 1 -4
v 8 2 -4
v 8 1 -3
v 8 2 -3
v 8 1 -2
v 8 2 -2
v 8 1 -1
v 8 2 -1
v 8 2 0
v 8 3 -1
v 8 3 0
v 8 2 2
v 8 3 2
v 8 4 2
v 8 2 3
v 8 3 3
v 8 4 3
v 8 2 6
v 8 3 6
v 8 2 7
v 8 3 7
v 8 4 7
v 8 2 8
v 8 3 8
v 8 4 8
v 9 1 -4
v 9 2 -4
v 9 1 -3
v 9 2 -3
v 9 1 -2
v 9 2 -2
v 9 1 -1
v 9 2 -1
v 9 2 0
v 9 3 -1
v 9 3 0
v 9 4 -1
v 9 4 0
v 9 2 1
v 9 3 1
v 9 4 1
v 9 2 2
v 9 3 2
v 9 2 3
v 9 3 3
v 9 2 4
v 9 3 4
v 9 4 3
v 9 4 4
v 9 2 5
v 9 3 5
v 9 2 8
v 9 3 8
v 9 4 8
v 9 2 9
v 9 3 9
v 9 4 9
v 9 5 8
v 9 5 9
v 10 0 -4
v 10 1 -4
v 10 2 -4
v 10 0 -3
v 10 1 -3
v 10 2 -3
v 10 1 -2
v 10 2 -2
v 10 1 -1
v 10 2 -1
v 10 1 0
v 10 2 0
v 10 3 -1
v 10 3 0
v 10 4 -1
v 10 4 0
v 10 1 1
v 10 2 1
v 10 3 1
v 10 4 1
v 10 1 2
v 10 2 2
v 10 1 3
v 10 2 3
v 10 1 4
v 10 2 4
v 10 3 3
v 10 3 4
v 10 4 3
v 10 4 4
v 10 1 5
v 10 2 5
v 10 3 5
v 10 1 6
v 10 2 6
v 10 1 7
v 10 2 7
v 10 1 8
v 10 2 8
v 10 4 8
v 10 5 8
v 10 1 9
v 10 2 9
v 10 3 8
v 10 3 9
v 10 4 9
v 10 5 9
v 10 1 10
v 10 2 10
v 10 3 10
v 10 4 10
v 11 0 -4
v 11 1 -4
v 11 0 -3
v 11 1 -3
v 11 2 -3
v 11 0 -2
v 11 1 -2
v 11 2 -2
v 11 0 -1
v 11 1 -1
v 11 2 -1
v 11 3 -1
v 11 0 0
v 11 1 0
v 11 2 0
v 11 3 0
v 11 1 1
v 11 2 1
v 11 1 2
v 11 2 2
v 11 1 3
v 11 2 3
v 11 1 4
v 11 2 4
v 11 1 5
v 11 2 5
v 11 1 6
v 11 2 6
v 11 1 7
v 11 2 7
v 11 1 8
v 11 2 8
v 11 1 9
v 11 2 9
v 11 1 10
v 11 2 10
v 11 3 9
v 11 3 10
v 11 4 9
v 11 4 10
v 11 1 11
v 11 2 11
v 12 0 -3
v 12 1 -3
v 12 0 -2
v 12 1 -2
v 12 2 -2
v 12 0 -1
v 12 1 -1
v 12 2 -1
v 12 0 0
v 12 1 0
v 12 1 6
v 12 2 6
v 12 1 7
v 12 2 7
v 12 1 8
v 12 2 8
v 12 1 9
v 12 2 9
v 12 1 10
v 12 2 10
v 12 1 11
v 12 2 11
v 13 1 1
v 13 0 2
v 13 0 1
v 13 1 2
v 13 0 3
v 13 1 3
v 13 1 6
v 13 2 6
v 13 1 7
v 13 2 7
v 13 1 8
v 13 2 8
v 13 1 9
v 13 2 9
v 13 1 10
v 13 2 10
v 14 0 1
v 14 1 1
v 14 0 2
v 14 1 2
v 14 0 3
v 14 1 3
v 14 0 6
v 14 1 6
v 14 1 7
v 14 2 11
v 14 2 12
v 14 3 11
v 14 3 12
v 14 4 12
v 15 0 6
v 15 1 6
v 14 0 7
v 15 0 7
v 15 1 7
v 15 2 11
v 15 2 12
v 15 3 11
v 15 3 12
v 14 4 11
v 15 4 11
v 15 4 12
vt 0.000000000 0.000000000
vt 1.000000000 0.000000000
vt 0.000000000 1.000000000
vt 1.000000000 1.000000000
vn -1 0 0
vn 0 -1 0
vn 0 0 -1
vn 1 0 0
vn 0 1 0
vn 0 0 1
f 3/2/1 4/4/1 2/3/1 1/1/1
f 3/3/2 1/1/2 6/2/2 9/4/2
f 1/2/3 2/4/3 7/3/3 6/1/3
f 9/1/4 6/2/4 7/4/4 10/3/4
f 4/1/5 10/2/5 7/4/5 2/3/5
f 3/1/6 9/2/6 10/4/6 4/3/6
f 8/2/1 9/4/1 6/3/1 5/1/1
f 8/3/2 5/1/2 24/2/2 26/4/2
f 5/2/3 6/4/3 25/3/3 24/1/3
f 26/1/4 24/2/4 25/4/4 27/3/4
f 9/1/5 27/2/5 25/4/5 6/3/5
f 8/1/6 26/2/6 27/4/6 9/3/6
f 11/2/1 12/4/1 10/3/1 9/1/1
f 11/3/2 9/1/2 27/2/2 30/4/2
f 9/2/3 10/4/3 28/3/3 27/1/3
f 30/1/4 27/2/4 28/4/4 31/3/4
f 12/1/5 31/2/5 28/4/5 10/3/5
f 11/1/6 30/2/6 31/4/6 12/3/6
f 13/2/1 14/4/1 12/3/1 11/1/1
f 13/3/2 11/1/2 30/2/2 33/4/2
f 11/2/3 12/4/3 31/3/3 30/1/3
f 33/1/4 30/2/4 31/4/4 34/3/4
f 14/1/5 34/2/5 31/4/5 12/3/5
f 13/1/6 33/2/6 34/4/6 14/3/6
f 17/2/1 18/4/1 16/3/1 15/1/1
f 17/3/2 15/1/2 35/2/2 37/4/2
f 15/2/3 16/4/3 36/3/3 35/1/3
f 37/1/4 35/2/4 36/4/4 38/3/4
f 18/1/5 38/2/5 36/4/5 16/3/5
f 17/1/6 37/2/6 38/4/6 18/3/6
f 19/2/1 20/4/1 18/3/1 17/1/1
f 19/3/2 17/1/2 37/2/2 39/4/2
f 17/2/3 18/4/3 38/3/3 37/1/3
f 39/1/4 37/2/4 38/4/4 40/3/4
f 20/1/5 40/2/5 38/4/5 18/3/5
f 19/1/6 39/2/6 40/4/6 20/3/6
f 22/2/1 23/4/1 21/3/1 20/1/1
f 22/3/2 20/1/2 40/2/2 41/4/2
f 20/2/3 21/4/3 42/3/3 40/1/3
f 41/1/4 40/2/4 42/4/4 43/3/4
f 23/1/5 43/2/5 42/4/5 21/3/5
f 22/1/6 41/2/6 43/4/6 23/3/6
f 26/2/1 27/4/1 25/3/1 24/1/1
f 26/3/2 24/1/2 48/2/2 50/4/2
f 24/2/3 25/4/3 49/3/3 48/1/3
f 50/1/4 48/2/4 49/4/4 51/3/4
f 27/1/5 51/2/5 49/4/5 25/3/5
f 26/1/6 50/2/6 51/4/6 27/3/6
f 29/2/1 30/4/1 27/3/1 26/1/1
f 29/3/2 26/1/2 50/2/2 52/4/2
f 26/2/3 27/4/3 51/3/3 50/1/3
f 52/1/4 50/2/4 51/4/4 53/3/4
f 30/1/5 53/2/5 51/4/5 27/3/5
f 29/1/6 52/2/6 53/4/6 30/3/6
f 32/2/1 33/4/1 30/3/1 29/1/1
f 32/3/2 29/1/2 52/2/2 54/4/2
f 29/2/3 30/4/3 53/3/3 52/1/3
f 54/1/4 52/2/4 53/4/4 55/3/4
f 33/1/5 55/2/5 53/4/5 30/3/5
f 32/1/6 54/2/6 55/4/6 33/3/6
f 39/2/1 40/4/1 38/3/1 37/1/1
f 39/3/2 37/1/2 59/2/2 61/4/2
f 37/2/3 38/4/3 60/3/3 59/1/3
f 61/1/4 59/2/4 60/4/4 62/3/4
f 40/1/5 62/2/5 60/4/5 38/3/5
f 39/1/6 61/2/6 62/4/6 40/3/6
f 44/2/1 45/4/1 43/3/1 41/1/1
f 44/3/2 41/1/2 64/2/2 66/4/2
f 41/2/3 43/4/3 67/3/3 64/1/3
f 66/1/4 64/2/4 67/4/4 68/3/4
f 45/1/5 68/2/5 67/4/5 43/3/5
f 44/1/6 66/2/6 68/4/6 45/3/6
f 48/2/1 49/4/1 47/3/1 46/1/1
f 48/3/2 46/1/2 69/2/2 71/4/2
f 46/2/3 47/4/3 70/3/3 69/1/3
f 71/1/4 69/2/4 70/4/4 72/3/4
f 49/1/5 72/2/5 70/4/5 47/3/5
f 48/1/6 71/2/6 72/4/6 49/3/6
f 50/2/1 51/4/1 49/3/1 48/1/1
f 50/3/2 48/1/2 71/2/2 73/4/2
f 48/2/3 49/4/3 72/3/3 71/1/3
f 73/1/4 71/2/4 72/4/4 74/3/4
f 51/1/5 74/2/5 72/4/5 49/3/5
f 50/1/6 73/2/6 74/4/6 51/3/6
f 52/2/1 53/4/1 51/3/1 50/1/1
f 52/3/2 50/1/2 73/2/2 75/4/2
f 50/2/3 51/4/3 74/3/3 73/1/3
f 75/1/4 73/2/4 74/4/4 76/3/4
f 53/1/5 76/2/5 74/4/5 51/3/5
f 52/1/6 75/2/6 76/4/6 53/3/6
f 54/2/1 55/4/1 53/3/1 52/1/1
f 54/3/2 52/1/2 75/2/2 77/4/2
f 52/2/3 53/4/3 76/3/3 75/1/3
f 77/1/4 75/2/4 76/4/4 78/3/4
f 55/1/5 78/2/5 76/4/5 53/3/5
f 54/1/6 77/2/6 78/4/6 55/3/6
f 56/2/1 57/4/1 55/3/1 54/1/1
f 56/3/2 54/1/2 77/2/2 79/4/2
f 54/2/3 55/4/3 78/3/3 77/1/3
f 79/1/4 77/2/4 78/4/4 80/3/4
f 57/1/5 80/2/5 78/4/5 55/3/5
f 56/1/6 79/2/6 80/4/6 57/3/6
f 58/2/1 59/4/1 57/3/1 56/1/1
f 58/3/2 56/1/2 79/2/2 81/4/2
f 56/2/3 57/4/3 80/3/3 79/1/3
f 81/1/4 79/2/4 80/4/4 82/3/4
f 59/1/5 82/2/5 80/4/5 57/3/5
f 58/1/6 81/2/6 82/4/6 59/3/6
f 63/2/1 64/4/1 62/3/1 61/1/1
f 63/3/2 61/1/2 84/2/2 86/4/2
f 61/2/3 62/4/3 85/3/3 84/1/3
f 86/1/4 84/2/4 85/4/4 87/3/4
f 64/1/5 87/2/5 85/4/5 62/3/5
f 63/1/6 86/2/6 87/4/6 64/3/6
f 65/2/1 66/4/1 64/3/1 63/1/1
f 65/3/2 63/1/2 86/2/2 88/4/2
f 63/2/3 64/4/3 87/3/3 86/1/3
f 88/1/4 86/2/4 87/4/4 89/3/4
f 66/1/5 89/2/5 87/4/5 64/3/5
f 65/1/6 88/2/6 89/4/6 66/3/6
f 79/2/1 80/4/1 78/3/1 77/1/1
f 79/3/2 77/1/2 103/2/2 106/4/2
f 77/2/3 78/4/3 104/3/3 103/1/3
f 106/1/4 103/2/4 104/4/4 107/3/4
f 80/1/5 107/2/5 104/4/5 78/3/5
f 79/1/6 106/2/6 107/4/6 80/3/6
f 81/2/1 82/4/1 80/3/1 79/1/1
f 81/3/2 79/1/2 106/2/2 109/4/2
f 79/2/3 80/4/3 107/3/3 106/1/3
f 109/1/4 106/2/4 107/4/4 110/3/4
f 82/1/5 110/2/5 107/4/5 80/3/5
f 81/1/6 109/2/6 110/4/6 82/3/6
f 83/2/1 84/4/1 82/3/1 81/1/1
f 83/3/2 81/1/2 109/2/2 111/4/2
f 81/2/3 82/4/3 110/3/3 109/1/3
f 111/1/4 109/2/4 110/4/4 112/3/4
f 84/1/5 112/2/5 110/4/5 82/3/5
f 83/1/6 111/2/6 112/4/6 84/3/6
f 86/2/1 87/4/1 85/3/1 84/1/1
f 86/3/2 84/1/2 112/2/2 114/4/2
f 84/2/3 85/4/3 113/3/3 112/1/3
f 114/1/4 112/2/4 113/4/4 115/3/4
f 87/1/5 115/2/5 113/4/5 85/3/5
f 86/1/6 114/2/6 115/4/6 87/3/6
f 92/2/1 93/4/1 90/3/1 89/1/1
f 92/3/2 89/1/2 117/2/2 120/4/2
f 89/2/3 90/4/3 118/3/3 117/1/3
f 120/1/4 117/2/4 118/4/4 121/3/4
f 93/1/5 121/2/5 118/4/5 90/3/5
f 92/1/6 120/2/6 121/4/6 93/3/6
f 93/2/1 94/4/1 91/3/1 90/1/1
f 93/3/2 90/1/2 118/2/2 121/4/2
f 90/2/3 91/4/3 119/3/3 118/1/3
f 121/1/4 118/2/4 119/4/4 122/3/4
f 94/1/5 122/2/5 119/4/5 91/3/5
f 93/1/6 121/2/6 122/4/6 94/3/6
f 97/2/1 98/4/1 96/3/1 95/1/1
f 97/3/2 95/1/2 123/2/2 125/4/2
f 95/2/3 96/4/3 124/3/3 123/1/3
f 125/1/4 123/2/4 124/4/4 126/3/4
f 98/1/5 126/2/5 124/4/5 96/3/5
f 97/1/6 125/2/6 126/4/6 98/3/6
f 101/2/1 102/4/1 100/3/1 99/1/1
f 101/3/2 99/1/2 127/2/2 129/4/2
f 99/2/3 100/4/3 128/3/3 127/1/3
f 129/1/4 127/2/4 128/4/4 130/3/4
f 102/1/5 130/2/5 128/4/5 100/3/5
f 101/1/6 129/2/6 130/4/6 102/3/6
f 108/2/1 133/4/1 134/3/1 105/1/1
f 108/3/2 105/1/2 131/2/2 132/4/2
f 105/2/3 134/4/3 135/3/3 131/1/3
f 132/1/4 131/2/4 135/4/4 136/3/4
f 133/1/5 136/2/5 135/4/5 134/3/5
f 108/1/6 132/2/6 136/4/6 133/3/6
f 114/2/1 115/4/1 113/3/1 112/1/1
f 114/3/2 112/1/2 137/2/2 139/4/2
f 112/2/3 113/4/3 138/3/3 137/1/3
f 139/1/4 137/2/4 138/4/4 140/3/4
f 115/1/5 140/2/5 138/4/5 113/3/5
f 114/1/6 139/2/6 140/4/6 115/3/6
f 116/2/1 117/4/1 115/3/1 114/1/1
f 116/3/2 114/1/2 139/2/2 141/4/2
f 114/2/3 115/4/3 140/3/3 139/1/3
f 141/1/4 139/2/4 140/4/4 142/3/4
f 117/1/5 142/2/5 140/4/5 115/3/5
f 116/1/6 141/2/6 142/4/6 117/3/6
f 120/2/1 121/4/1 118/3/1 117/1/1
f 120/3/2 117/1/2 142/2/2 144/4/2
f 117/2/3 118/4/3 145/3/3 142/1/3
f 144/1/4 142/2/4 145/4/4 146/3/4
f 121/1/5 146/2/5 145/4/5 118/3/5
f 120/1/6 144/2/6 146/4/6 121/3/6
f 132/2/1 136/4/1 135/3/1 131/1/1
f 132/3/2 131/1/2 150/2/2 152/4/2
f 131/2/3 135/4/3 153/3/3 150/1/3
f 152/1/4 150/2/4 153/4/4 154/3/4
f 136/1/5 154/2/5 153/4/5 135/3/5
f 132/1/6 152/2/6 154/4/6 136/3/6
f 141/2/1 142/4/1 140/3/1 139/1/1
f 141/3/2 139/1/2 155/2/2 157/4/2
f 139/2/3 140/4/3 156/3/3 155/1/3
f 157/1/4 155/2/4 156/4/4 158/3/4
f 142/1/5 158/2/5 156/4/5 140/3/5
f 141/1/6 157/2/6 158/4/6 142/3/6
f 143/2/1 144/4/1 142/3/1 141/1/1
f 143/3/2 141/1/2 157/2/2 159/4/2
f 141/2/3 142/4/3 158/3/3 157/1/3
f 159/1/4 157/2/4 158/4/4 160/3/4
f 144/1/5 160/2/5 158/4/5 142/3/5
f 143/1/6 159/2/6 160/4/6 144/3/6
f 149/2/1 150/4/1 148/3/1 147/1/1
f 149/3/2 147/1/2 165/2/2 167/4/2
f 147/2/3 148/4/3 166/3/3 165/1/3
f 167/1/4 165/2/4 166/4/4 168/3/4
f 150/1/5 168/2/5 166/4/5 148/3/5
f 149/1/6 167/2/6 168/4/6 150/3/6
f 151/2/1 152/4/1 150/3/1 149/1/1
f 151/3/2 149/1/2 167/2/2 169/4/2
f 149/2/3 150/4/3 168/3/3 167/1/3
f 169/1/4 167/2/4 168/4/4 170/3/4
f 152/1/5 170/2/5 168/4/5 150/3/5
f 151/1/6 169/2/6 170/4/6 152/3/6
f 152/2/1 154/4/1 153/3/1 150/1/1
f 152/3/2 150/1/2 168/2/2 170/4/2
f 150/2/3 153/4/3 171/3/3 168/1/3
f 170/1/4 168/2/4 171/4/4 172/3/4
f 154/1/5 172/2/5 171/4/5 153/3/5
f 152/1/6 170/2/6 172/4/6 154/3/6
f 157/2/1 158/4/1 156/3/1 155/1/1
f 157/3/2 155/1/2 173/2/2 175/4/2
f 155/2/3 156/4/3 174/3/3 173/1/3
f 175/1/4 173/2/4 174/4/4 176/3/4
f 158/1/5 176/2/5 174/4/5 156/3/5
f 157/1/6 175/2/6 176/4/6 158/3/6
f 159/2/1 160/4/1 158/3/1 157/1/1
f 159/3/2 157/1/2 175/2/2 177/4/2
f 157/2/3 158/4/3 176/3/3 175/1/3
f 177/1/4 175/2/4 176/4/4 178/3/4
f 160/1/5 178/2/5 176/4/5 158/3/5
f 159/1/6 177/2/6 178/4/6 160/3/6
f 163/2/1 164/4/1 162/3/1 161/1/1
f 163/3/2 161/1/2 179/2/2 182/4/2
f 161/2/3 162/4/3 180/3/3 179/1/3
f 182/1/4 179/2/4 180/4/4 183/3/4
f 164/1/5 183/2/5 180/4/5 162/3/5
f 163/1/6 182/2/6 183/4/6 164/3/6
f 175/2/1 176/4/1 174/3/1 173/1/1
f 175/3/2 173/1/2 185/2/2 187/4/2
f 173/2/3 174/4/3 186/3/3 185/1/3
f 187/1/4 185/2/4 186/4/4 188/3/4
f 176/1/5 188/2/5 186/4/5 174/3/5
f 175/1/6 187/2/6 188/4/6 176/3/6
f 182/2/1 183/4/1 180/3/1 179/1/1
f 182/3/2 179/1/2 192/2/2 194/4/2
f 179/2/3 180/4/3 195/3/3 192/1/3
f 194/1/4 192/2/4 195/4/4 196/3/4
f 183/1/5 196/2/5 195/4/5 180/3/5
f 182/1/6 194/2/6 196/4/6 183/3/6
f 183/2/1 184/4/1 181/3/1 180/1/1
f 183/3/2 180/1/2 195/2/2 196/4/2
f 180/2/3 181/4/3 197/3/3 195/1/3
f 196/1/4 195/2/4 197/4/4 198/3/4
f 184/1/5 198/2/5 197/4/5 181/3/5
f 183/1/6 196/2/6 198/4/6 184/3/6
f 189/2/1 190/4/1 188/3/1 187/1/1
f 189/3/2 187/1/2 204/2/2 206/4/2
f 187/2/3 188/4/3 205/3/3 204/1/3
f 206/1/4 204/2/4 205/4/4 207/3/4
f 190/1/5 207/2/5 205/4/5 188/3/5
f 189/1/6 206/2/6 207/4/6 190/3/6
f 191/2/1 192/4/1 190/3/1 189/1/1
f 191/3/2 189/1/2 206/2/2 208/4/2
f 189/2/3 190/4/3 207/3/3 206/1/3
f 208/1/4 206/2/4 207/4/4 209/3/4
f 192/1/5 209/2/5 207/4/5 190/3/5
f 191/1/6 208/2/6 209/4/6 192/3/6
f 194/2/1 196/4/1 195/3/1 192/1/1
f 194/3/2 192/1/2 209/2/2 211/4/2
f 192/2/3 195/4/3 212/3/3 209/1/3
f 211/1/4 209/2/4 212/4/4 213/3/4
f 196/1/5 213/2/5 212/4/5 195/3/5
f 194/1/6 211/2/6 213/4/6 196/3/6
f 196/2/1 198/4/1 197/3/1 195/1/1
f 196/3/2 195/1/2 212/2/2 213/4/2
f 195/2/3 197/4/3 214/3/3 212/1/3
f 213/1/4 212/2/4 214/4/4 215/3/4
f 198/1/5 215/2/5 214/4/5 197/3/5
f 196/1/6 213/2/6 215/4/6 198/3/6
f 198/2/1 199/4/1 193/3/1 197/1/1
f 198/3/2 197/1/2 214/2/2 215/4/2
f 197/2/3 193/4/3 216/3/3 214/1/3
f 215/1/4 214/2/4 216/4/4 217/3/4
f 199/1/5 217/2/5 216/4/5 193/3/5
f 198/1/6 215/2/6 217/4/6 199/3/6
f 202/2/1 203/4/1 201/3/1 200/1/1
f 202/3/2 200/1/2 224/2/2 227/4/2
f 200/2/3 201/4/3 225/3/3 224/1/3
f 227/1/4 224/2/4 225/4/4 228/3/4
f 203/1/5 228/2/5 225/4/5 201/3/5
f 202/1/6 227/2/6 228/4/6 203/3/6
f 206/2/1 207/4/1 205/3/1 204/1/1
f 206/3/2 204/1/2 229/2/2 231/4/2
f 204/2/3 205/4/3 230/3/3 229/1/3
f 231/1/4 229/2/4 230/4/4 232/3/4
f 207/1/5 232/2/5 230/4/5 205/3/5
f 206/1/6 231/2/6 232/4/6 207/3/6
f 208/2/1 209/4/1 207/3/1 206/1/1
f 208/3/2 206/1/2 231/2/2 233/4/2
f 206/2/3 207/4/3 232/3/3 231/1/3
f 233/1/4 231/2/4 232/4/4 234/3/4
f 209/1/5 234/2/5 232/4/5 207/3/5
f 208/1/6 233/2/6 234/4/6 209/3/6
f 210/2/1 211/4/1 209/3/1 208/1/1
f 210/3/2 208/1/2 233/2/2 235/4/2
f 208/2/3 209/4/3 234/3/3 233/1/3
f 235/1/4 233/2/4 234/4/4 236/3/4
f 211/1/5 236/2/5 234/4/5 209/3/5
f 210/1/6 235/2/6 236/4/6 211/3/6
f 218/2/1 219/4/1 215/3/1 213/1/1
f 218/3/2 213/1/2 237/2/2 240/4/2
f 213/2/3 215/4/3 238/3/3 237/1/3
f 240/1/4 237/2/4 238/4/4 241/3/4
f 219/1/5 241/2/5 238/4/5 215/3/5
f 218/1/6 240/2/6 241/4/6 219/3/6
f 219/2/1 220/4/1 217/3/1 215/1/1
f 219/3/2 215/1/2 238/2/2 241/4/2
f 215/2/3 217/4/3 239/3/3 238/1/3
f 241/1/4 238/2/4 239/4/4 242/3/4
f 220/1/5 242/2/5 239/4/5 217/3/5
f 219/1/6 241/2/6 242/4/6 220/3/6
f 224/2/1 225/4/1 222/3/1 221/1/1
f 224/3/2 221/1/2 243/2/2 246/4/2
f 221/2/3 222/4/3 244/3/3 243/1/3
f 246/1/4 243/2/4 244/4/4 247/3/4
f 225/1/5 247/2/5 244/4/5 222/3/5
f 224/1/6 246/2/6 247/4/6 225/3/6
f 226/2/1 227/4/1 224/3/1 223/1/1
f 226/3/2 223/1/2 245/2/2 248/4/2
f 223/2/3 224/4/3 246/3/3 245/1/3
f 248/1/4 245/2/4 246/4/4 249/3/4
f 227/1/5 249/2/5 246/4/5 224/3/5
f 226/1/6 248/2/6 249/4/6 227/3/6
f 231/2/1 232/4/1 230/3/1 229/1/1
f 231/3/2 229/1/2 250/2/2 252/4/2
f 229/2/3 230/4/3 251/3/3 250/1/3
f 252/1/4 250/2/4 251/4/4 253/3/4
f 232/1/5 253/2/5 251/4/5 230/3/5
f 231/1/6 252/2/6 253/4/6 232/3/6
f 233/2/1 234/4/1 232/3/1 231/1/1
f 233/3/2 231/1/2 252/2/2 254/4/2
f 231/2/3 232/4/3 253/3/3 252/1/3
f 254/1/4 252/2/4 253/4/4 255/3/4
f 234/1/5 255/2/5 253/4/5 232/3/5
f 233/1/6 254/2/6 255/4/6 234/3/6
f 252/2/1 253/4/1 251/3/1 250/1/1
f 252/3/2 250/1/2 272/2/2 274/4/2
f 250/2/3 251/4/3 273/3/3 272/1/3
f 274/1/4 272/2/4 273/4/4 275/3/4
f 253/1/5 275/2/5 273/4/5 251/3/5
f 252/1/6 274/2/6 275/4/6 253/3/6
f 254/2/1 255/4/1 253/3/1 252/1/1
f 254/3/2 252/1/2 274/2/2 276/4/2
f 252/2/3 253/4/3 275/3/3 274/1/3
f 276/1/4 274/2/4 275/4/4 277/3/4
f 255/1/5 277/2/5 275/4/5 253/3/5
f 254/1/6 276/2/6 277/4/6 255/3/6
f 256/2/1 257/4/1 255/3/1 254/1/1
f 256/3/2 254/1/2 276/2/2 278/4/2
f 254/2/3 255/4/3 277/3/3 276/1/3
f 278/1/4 276/2/4 277/4/4 279/3/4
f 257/1/5 279/2/5 277/4/5 255/3/5
f 256/1/6 278/2/6 279/4/6 257/3/6
f 261/2/1 262/4/1 259/3/1 258/1/1
f 261/3/2 258/1/2 283/2/2 286/4/2
f 258/2/3 259/4/3 284/3/3 283/1/3
f 286/1/4 283/2/4 284/4/4 287/3/4
f 262/1/5 287/2/5 284/4/5 259/3/5
f 261/1/6 286/2/6 287/4/6 262/3/6
f 262/2/1 263/4/1 260/3/1 259/1/1
f 262/3/2 259/1/2 284/2/2 287/4/2
f 259/2/3 260/4/3 285/3/3 284/1/3
f 287/1/4 284/2/4 285/4/4 288/3/4
f 263/1/5 288/2/5 285/4/5 260/3/5
f 262/1/6 287/2/6 288/4/6 263/3/6
f 266/2/1 267/4/1 265/3/1 264/1/1
f 266/3/2 264/1/2 289/2/2 291/4/2
f 264/2/3 265/4/3 290/3/3 289/1/3
f 291/1/4 289/2/4 290/4/4 292/3/4
f 267/1/5 292/2/5 290/4/5 265/3/5
f 266/1/6 291/2/6 292/4/6 267/3/6
f 269/2/1 270/4/1 267/3/1 266/1/1
f 269/3/2 266/1/2 291/2/2 294/4/2
f 266/2/3 267/4/3 292/3/3 291/1/3
f 294/1/4 291/2/4 292/4/4 295/3/4
f 270/1/5 295/2/5 292/4/5 267/3/5
f 269/1/6 294/2/6 295/4/6 270/3/6
f 270/2/1 271/4/1 268/3/1 267/1/1
f 270/3/2 267/1/2 292/2/2 295/4/2
f 267/2/3 268/4/3 293/3/3 292/1/3
f 295/1/4 292/2/4 293/4/4 296/3/4
f 271/1/5 296/2/5 293/4/5 268/3/5
f 270/1/6 295/2/6 296/4/6 271/3/6
f 276/2/1 277/4/1 275/3/1 274/1/1
f 276/3/2 274/1/2 299/2/2 301/4/2
f 274/2/3 275/4/3 300/3/3 299/1/3
f 301/1/4 299/2/4 300/4/4 302/3/4
f 277/1/5 302/2/5 300/4/5 275/3/5
f 276/1/6 301/2/6 302/4/6 277/3/6
f 278/2/1 279/4/1 277/3/1 276/1/1
f 278/3/2 276/1/2 301/2/2 303/4/2
f 276/2/3 277/4/3 302/3/3 301/1/3
f 303/1/4 301/2/4 302/4/4 304/3/4
f 279/1/5 304/2/5 302/4/5 277/3/5
f 278/1/6 303/2/6 304/4/6 279/3/6
f 280/2/1 282/4/1 281/3/1 279/1/1
f 280/3/2 279/1/2 304/2/2 305/4/2
f 279/2/3 281/4/3 306/3/3 304/1/3
f 305/1/4 304/2/4 306/4/4 307/3/4
f 282/1/5 307/2/5 306/4/5 281/3/5
f 280/1/6 305/2/6 307/4/6 282/3/6
f 286/2/1 287/4/1 284/3/1 283/1/1
f 286/3/2 283/1/2 313/2/2 315/4/2
f 283/2/3 284/4/3 314/3/3 313/1/3
f 315/1/4 313/2/4 314/4/4 316/3/4
f 287/1/5 316/2/5 314/4/5 284/3/5
f 286/1/6 315/2/6 316/4/6 287/3/6
f 299/2/1 300/4/1 298/3/1 297/1/1
f 299/3/2 297/1/2 332/2/2 335/4/2
f 297/2/3 298/4/3 333/3/3 332/1/3
f 335/1/4 332/2/4 333/4/4 336/3/4
f 300/1/5 336/2/5 333/4/5 298/3/5
f 299/1/6 335/2/6 336/4/6 300/3/6
f 303/2/1 304/4/1 302/3/1 301/1/1
f 303/3/2 301/1/2 337/2/2 339/4/2
f 301/2/3 302/4/3 338/3/3 337/1/3
f 339/1/4 337/2/4 338/4/4 340/3/4
f 304/1/5 340/2/5 338/4/5 302/3/5
f 303/1/6 339/2/6 340/4/6 304/3/6
f 305/2/1 307/4/1 306/3/1 304/1/1
f 305/3/2 304/1/2 340/2/2 342/4/2
f 304/2/3 306/4/3 343/3/3 340/1/3
f 342/1/4 340/2/4 343/4/4 344/3/4
f 307/1/5 344/2/5 343/4/5 306/3/5
f 305/1/6 342/2/6 344/4/6 307/3/6
f 307/2/1 309/4/1 308/3/1 306/1/1
f 307/3/2 306/1/2 343/2/2 344/4/2
f 306/2/3 308/4/3 345/3/3 343/1/3
f 344/1/4 343/2/4 345/4/4 346/3/4
f 309/1/5 346/2/5 345/4/5 308/3/5
f 307/1/6 344/2/6 346/4/6 309/3/6
f 310/2/1 311/4/1 307/3/1 305/1/1
f 310/3/2 305/1/2 342/2/2 348/4/2
f 305/2/3 307/4/3 344/3/3 342/1/3
f 348/1/4 342/2/4 344/4/4 349/3/4
f 311/1/5 349/2/5 344/4/5 307/3/5
f 310/1/6 348/2/6 349/4/6 311/3/6
f 311/2/1 312/4/1 309/3/1 307/1/1
f 311/3/2 307/1/2 344/2/2 349/4/2
f 307/2/3 309/4/3 346/3/3 344/1/3
f 349/1/4 344/2/4 346/4/4 350/3/4
f 312/1/5 350/2/5 346/4/5 309/3/5
f 311/1/6 349/2/6 350/4/6 312/3/6
f 317/2/1 318/4/1 316/3/1 315/1/1
f 317/3/2 315/1/2 354/2/2 356/4/2
f 315/2/3 316/4/3 357/3/3 354/1/3
f 356/1/4 354/2/4 357/4/4 358/3/4
f 318/1/5 358/2/5 357/4/5 316/3/5
f 317/1/6 356/2/6 358/4/6 318/3/6
f 318/2/1 320/4/1 319/3/1 316/1/1
f 318/3/2 316/1/2 357/2/2 358/4/2
f 316/2/3 319/4/3 359/3/3 357/1/3
f 358/1/4 357/2/4 359/4/4 360/3/4
f 320/1/5 360/2/5 359/4/5 319/3/5
f 318/1/6 358/2/6 360/4/6 320/3/6
f 321/2/1 322/4/1 318/3/1 317/1/1
f 321/3/2 317/1/2 356/2/2 362/4/2
f 317/2/3 318/4/3 358/3/3 356/1/3
f 362/1/4 356/2/4 358/4/4 363/3/4
f 322/1/5 363/2/5 358/4/5 318/3/5
f 321/1/6 362/2/6 363/4/6 322/3/6
f 326/2/1 327/4/1 324/3/1 323/1/1
f 326/3/2 323/1/2 369/2/2 373/4/2
f 323/2/3 324/4/3 374/3/3 369/1/3
f 373/1/4 369/2/4 374/4/4 375/3/4
f 327/1/5 375/2/5 374/4/5 324/3/5
f 326/1/6 373/2/6 375/4/6 327/3/6
f 327/2/1 328/4/1 325/3/1 324/1/1
f 327/3/2 324/1/2 374/2/2 375/4/2
f 324/2/3 325/4/3 370/3/3 374/1/3
f 375/1/4 374/2/4 370/4/4 376/3/4
f 328/1/5 376/2/5 370/4/5 325/3/5
f 327/1/6 375/2/6 376/4/6 328/3/6
f 328/2/1 330/4/1 329/3/1 325/1/1
f 328/3/2 325/1/2 370/2/2 376/4/2
f 325/2/3 329/4/3 371/3/3 370/1/3
f 376/1/4 370/2/4 371/4/4 377/3/4
f 330/1/5 377/2/5 371/4/5 329/3/5
f 328/1/6 376/2/6 377/4/6 330/3/6
f 334/2/1 335/4/1 332/3/1 331/1/1
f 334/3/2 331/1/2 382/2/2 384/4/2
f 331/2/3 332/4/3 383/3/3 382/1/3
f 384/1/4 382/2/4 383/4/4 385/3/4
f 335/1/5 385/2/5 383/4/5 332/3/5
f 334/1/6 384/2/6 385/4/6 335/3/6
f 337/2/1 338/4/1 336/3/1 335/1/1
f 337/3/2 335/1/2 385/2/2 388/4/2
f 335/2/3 336/4/3 386/3/3 385/1/3
f 388/1/4 385/2/4 386/4/4 389/3/4
f 338/1/5 389/2/5 386/4/5 336/3/5
f 337/1/6 388/2/6 389/4/6 338/3/6
f 341/2/1 342/4/1 340/3/1 339/1/1
f 341/3/2 339/1/2 391/2/2 395/4/2
f 339/2/3 340/4/3 392/3/3 391/1/3
f 395/1/4 391/2/4 392/4/4 396/3/4
f 342/1/5 396/2/5 392/4/5 340/3/5
f 341/1/6 395/2/6 396/4/6 342/3/6
f 342/2/1 344/4/1 343/3/1 340/1/1
f 342/3/2 340/1/2 392/2/2 396/4/2
f 340/2/3 343/4/3 393/3/3 392/1/3
f 396/1/4 392/2/4 393/4/4 397/3/4
f 344/1/5 397/2/5 393/4/5 343/3/5
f 342/1/6 396/2/6 397/4/6 344/3/6
f 347/2/1 348/4/1 342/3/1 341/1/1
f 347/3/2 341/1/2 395/2/2 398/4/2
f 341/2/3 342/4/3 396/3/3 395/1/3
f 398/1/4 395/2/4 396/4/4 399/3/4
f 348/1/5 399/2/5 396/4/5 342/3/5
f 347/1/6 398/2/6 399/4/6 348/3/6
f 351/2/1 352/4/1 348/3/1 347/1/1
f 351/3/2 347/1/2 398/2/2 400/4/2
f 347/2/3 348/4/3 399/3/3 398/1/3
f 400/1/4 398/2/4 399/4/4 401/3/4
f 352/1/5 401/2/5 399/4/5 348/3/5
f 351/1/6 400/2/6 401/4/6 352/3/6
f 353/2/1 354/4/1 352/3/1 351/1/1
f 353/3/2 351/1/2 400/2/2 402/4/2
f 351/2/3 352/4/3 401/3/3 400/1/3
f 402/1/4 400/2/4 401/4/4 403/3/4
f 354/1/5 403/2/5 401/4/5 352/3/5
f 353/1/6 402/2/6 403/4/6 354/3/6
f 361/2/1 362/4/1 356/3/1 355/1/1
f 361/3/2 355/1/2 404/2/2 406/4/2
f 355/2/3 356/4/3 405/3/3 404/1/3
f 406/1/4 404/2/4 405/4/4 407/3/4
f 362/1/5 407/2/5 405/4/5 356/3/5
f 361/1/6 406/2/6 407/4/6 362/3/6
f 364/2/1 365/4/1 362/3/1 361/1/1
f 364/3/2 361/1/2 406/2/2 408/4/2
f 361/2/3 362/4/3 407/3/3 406/1/3
f 408/1/4 406/2/4 407/4/4 409/3/4
f 365/1/5 409/2/5 407/4/5 362/3/5
f 364/1/6 408/2/6 409/4/6 365/3/6
f 368/2/1 369/4/1 367/3/1 366/1/1
f 368/3/2 366/1/2 410/2/2 412/4/2
f 366/2/3 367/4/3 411/3/3 410/1/3
f 412/1/4 410/2/4 411/4/4 413/3/4
f 369/1/5 413/2/5 411/4/5 367/3/5
f 368/1/6 412/2/6 413/4/6 369/3/6
f 378/2/1 379/4/1 373/3/1 372/1/1
f 378/3/2 372/1/2 414/2/2 416/4/2
f 372/2/3 373/4/3 415/3/3 414/1/3
f 416/1/4 414/2/4 415/4/4 417/3/4
f 379/1/5 417/2/5 415/4/5 373/3/5
f 378/1/6 416/2/6 417/4/6 379/3/6
f 379/2/1 380/4/1 375/3/1 373/1/1
f 379/3/2 373/1/2 415/2/2 417/4/2
f 373/2/3 375/4/3 418/3/3 415/1/3
f 417/1/4 415/2/4 418/4/4 419/3/4
f 380/1/5 419/2/5 418/4/5 375/3/5
f 379/1/6 417/2/6 419/4/6 380/3/6
f 380/2/1 381/4/1 376/3/1 375/1/1
f 380/3/2 375/1/2 418/2/2 419/4/2
f 375/2/3 376/4/3 420/3/3 418/1/3
f 419/1/4 418/2/4 420/4/4 421/3/4
f 381/1/5 421/2/5 420/4/5 376/3/5
f 380/1/6 419/2/6 421/4/6 381/3/6
f 387/2/1 388/4/1 385/3/1 384/1/1
f 387/3/2 384/1/2 424/2/2 426/4/2
f 384/2/3 385/4/3 425/3/3 424/1/3
f 426/1/4 424/2/4 425/4/4 427/3/4
f 388/1/5 427/2/5 425/4/5 385/3/5
f 387/1/6 426/2/6 427/4/6 388/3/6
f 390/2/1 391/4/1 388/3/1 387/1/1
f 390/3/2 387/1/2 426/2/2 429/4/2
f 387/2/3 388/4/3 427/3/3 426/1/3
f 429/1/4 426/2/4 427/4/4 430/3/4
f 391/1/5 430/2/5 427/4/5 388/3/5
f 390/1/6 429/2/6 430/4/6 391/3/6
f 391/2/1 392/4/1 389/3/1 388/1/1
f 391/3/2 388/1/2 427/2/2 430/4/2
f 388/2/3 389/4/3 428/3/3 427/1/3
f 430/1/4 427/2/4 428/4/4 431/3/4
f 392/1/5 431/2/5 428/4/5 389/3/5
f 391/1/6 430/2/6 431/4/6 392/3/6
f 394/2/1 395/4/1 391/3/1 390/1/1
f 394/3/2 390/1/2 429/2/2 432/4/2
f 390/2/3 391/4/3 430/3/3 429/1/3
f 432/1/4 429/2/4 430/4/4 433/3/4
f 395/1/5 433/2/5 430/4/5 391/3/5
f 394/1/6 432/2/6 433/4/6 395/3/6
f 410/2/1 411/4/1 409/3/1 408/1/1
f 410/3/2 408/1/2 434/2/2 436/4/2
f 408/2/3 409/4/3 435/3/3 434/1/3
f 436/1/4 434/2/4 435/4/4 437/3/4
f 411/1/5 437/2/5 435/4/5 409/3/5
f 410/1/6 436/2/6 437/4/6 411/3/6
f 412/2/1 413/4/1 411/3/1 410/1/1
f 412/3/2 410/1/2 436/2/2 438/4/2
f 410/2/3 411/4/3 437/3/3 436/1/3
f 438/1/4 436/2/4 437/4/4 439/3/4
f 413/1/5 439/2/5 437/4/5 411/3/5
f 412/1/6 438/2/6 439/4/6 413/3/6
f 414/2/1 415/4/1 413/3/1 412/1/1
f 414/3/2 412/1/2 438/2/2 440/4/2
f 412/2/3 413/4/3 439/3/3 438/1/3
f 440/1/4 438/2/4 439/4/4 441/3/4
f 415/1/5 441/2/5 439/4/5 413/3/5
f 414/1/6 440/2/6 441/4/6 415/3/6
f 422/2/1 423/4/1 417/3/1 416/1/1
f 422/3/2 416/1/2 442/2/2 444/4/2
f 416/2/3 417/4/3 443/3/3 442/1/3
f 444/1/4 442/2/4 443/4/4 445/3/4
f 423/1/5 445/2/5 443/4/5 417/3/5
f 422/1/6 444/2/6 445/4/6 423/3/6
f 436/2/1 437/4/1 435/3/1 434/1/1
f 436/3/2 434/1/2 452/2/2 454/4/2
f 434/2/3 435/4/3 453/3/3 452/1/3
f 454/1/4 452/2/4 453/4/4 455/3/4
f 437/1/5 455/2/5 453/4/5 435/3/5
f 436/1/6 454/2/6 455/4/6 437/3/6
f 440/2/1 441/4/1 439/3/1 438/1/1
f 440/3/2 438/1/2 456/2/2 458/4/2
f 438/2/3 439/4/3 457/3/3 456/1/3
f 458/1/4 456/2/4 457/4/4 459/3/4
f 441/1/5 459/2/5 457/4/5 439/3/5
f 440/1/6 458/2/6 459/4/6 441/3/6
f 442/2/1 443/4/1 441/3/1 440/1/1
f 442/3/2 440/1/2 458/2/2 460/4/2
f 440/2/3 441/4/3 459/3/3 458/1/3
f 460/1/4 458/2/4 459/4/4 461/3/4
f 443/1/5 461/2/5 459/4/5 441/3/5
f 442/1/6 460/2/6 461/4/6 443/3/6
f 447/2/1 449/4/1 446/3/1 448/1/1
f 447/3/2 448/1/2 462/2/2 464/4/2
f 448/2/3 446/4/3 463/3/3 462/1/3
f 464/1/4 462/2/4 463/4/4 465/3/4
f 449/1/5 465/2/5 463/4/5 446/3/5
f 447/1/6 464/2/6 465/4/6 449/3/6
f 450/2/1 451/4/1 449/3/1 447/1/1
f 450/3/2 447/1/2 464/2/2 466/4/2
f 447/2/3 449/4/3 465/3/3 464/1/3
f 466/1/4 464/2/4 465/4/4 467/3/4
f 451/1/5 467/2/5 465/4/5 449/3/5
f 450/1/6 466/2/6 467/4/6 451/3/6
f 478/2/1 470/4/1 469/3/1 468/1/1
f 478/3/2 468/1/2 476/2/2 479/4/2
f 468/2/3 469/4/3 477/3/3 476/1/3
f 479/1/4 476/2/4 477/4/4 480/3/4
f 470/1/5 480/2/5 477/4/5 469/3/5
f 478/1/6 479/2/6 480/4/6 470/3/6
f 472/2/1 474/4/1 473/3/1 471/1/1
f 472/3/2 471/1/2 481/2/2 482/4/2
f 471/2/3 473/4/3 483/3/3 481/1/3
f 482/1/4 481/2/4 483/4/4 484/3/4
f 474/1/5 484/2/5 483/4/5 473/3/5
f 472/1/6 482/2/6 484/4/6 474/3/6
f 474/2/1 475/4/1 485/3/1 473/1/1
f 474/3/2 473/1/2 483/2/2 484/4/2
f 473/2/3 485/4/3 486/3/3 483/1/3
f 484/1/4 483/2/4 486/4/4 487/3/4
f 475/1/5 487/2/5 486/4/5 485/3/5
f 474/1/6 484/2/6 487/4/6 475/3/6
