mtllib lighthouse.mtl
usemtl hopper_outside
v 1 11.625 1
v 1 11.625 2
v 1 12 1
v 1 12 2
v 2 11.625 1
v 2 11.625 2
v 2 12 1
v 2 12 2
v 1.25 11.25 1.25
v 1.25 11.25 1.75
v 1.25 11.625 1.25
v 1.25 11.625 1.75
v 1.75 11.25 1.25
v 1.75 11.25 1.75
v 1.75 11.625 1.25
v 1.75 11.625 1.75
v 1.375 11 1.375
v 1.375 11 1.625
v 1.375 11.25 1.375
v 1.375 11.25 1.625
v 1.625 11 1.375
v 1.625 11 1.625
v 1.625 11.25 1.375
v 1.625 11.25 1.625
v 2 9.625 -2
v 2 9.625 -1
v 2 10 -2
v 2 10 -1
v 3 9.625 -2
v 3 9.625 -1
v 3 10 -2
v 3 10 -1
v 2.25 9.25 -1.75
v 2.25 9.25 -1.25
v 2.25 9.625 -1.75
v 2.25 9.625 -1.25
v 2.75 9.25 -1.75
v 2.75 9.25 -1.25
v 2.75 9.625 -1.75
v 2.75 9.625 -1.25
v 2.375 9.25 -1.25
v 2.375 9.25 -1
v 2.375 9.5 -1.25
v 2.375 9.5 -1
v 2.625 9.25 -1.25
v 2.625 9.25 -1
v 2.625 9.5 -1.25
v 2.625 9.5 -1
v 2 10.625 -1
v 2 10.625 0
v 2 11 -1
v 2 11 0
v 3 10.625 -1
v 3 10.625 0
v 3 11 -1
v 3 11 0
v 2.25 10.25 -0.75
v 2.25 10.25 -0.25
v 2.25 10.625 -0.75
v 2.25 10.625 -0.25
v 2.75 10.25 -0.75
v 2.75 10.25 -0.25
v 2.75 10.625 -0.75
v 2.75 10.625 -0.25
v 2.375 10.25 -1
v 2.375 10.25 -0.75
v 2.375 10.5 -1
v 2.375 10.5 -0.75
v 2.625 10.25 -1
v 2.625 10.25 -0.75
v 2.625 10.5 -1
v 2.625 10.5 -0.75
vt 0.000000000 0.000000000
vt 0.375000000 0.000000000
vt 0.625000000 0.000000000
vt 1.000000000 0.000000000
vt 0.250000000 0.250000000
vt 0.375000000 0.250000000
vt 0.625000000 0.250000000
vt 0.750000000 0.250000000
vt 0.375000000 0.375000000
vt 0.625000000 0.375000000
vt 0.000000000 0.625000000
vt 0.250000000 0.625000000
vt 0.375000000 0.625000000
vt 0.625000000 0.625000000
vt 0.750000000 0.625000000
vt 1.000000000 0.625000000
vt 0.250000000 0.750000000
vt 0.750000000 0.750000000
vt 0.000000000 1.000000000
vt 1.000000000 1.000000000
vn -1 0 0
vn 0 -1 0
vn 0 0 -1
vn 1 0 0
vn 0 1 0
vn 0 0 1
f 3/19/1 1/11/1 2/16/1 4/20/1
f 2/19/2 1/1/2 5/4/2 6/20/2
f 7/19/3 5/11/3 1/16/3 3/20/3
f 7/20/4 8/19/4 6/11/4 5/16/4
f 8/20/6 4/19/6 2/11/6 6/16/6
f 11/12/1 9/5/1 10/8/1 12/15/1
f 10/17/2 9/5/2 13/8/2 14/18/2
f 15/12/3 13/5/3 9/8/3 11/15/3
f 15/15/4 16/12/4 14/5/4 13/8/4
f 16/15/6 12/12/6 10/5/6 14/8/6
f 19/6/1 17/2/1 18/3/1 20/7/1
f 18/13/2 17/9/2 21/10/2 22/14/2
f 23/6/3 21/2/3 17/3/3 19/7/3
f 23/7/4 24/6/4 22/2/4 21/3/4
f 23/14/5 19/13/5 20/9/5 24/10/5
f 24/7/6 20/6/6 18/2/6 22/3/6
f 27/19/1 25/11/1 26/16/1 28/20/1
f 26/19/2 25/1/2 29/4/2 30/20/2
f 31/19/3 29/11/3 25/16/3 27/20/3
f 31/20/4 32/19/4 30/11/4 29/16/4
f 32/20/6 28/19/6 26/11/6 30/16/6
f 35/12/1 33/5/1 34/8/1 36/15/1
f 34/17/2 33/5/2 37/8/2 38/18/2
f 39/12/3 37/5/3 33/8/3 35/15/3
f 39/15/4 40/12/4 38/5/4 37/8/4
f 40/15/6 36/12/6 34/5/6 38/8/6
f 43/6/1 41/2/1 42/3/1 44/7/1
f 42/13/2 41/9/2 45/10/2 46/14/2
f 47/6/3 45/2/3 41/3/3 43/7/3
f 47/7/4 48/6/4 46/2/4 45/3/4
f 47/14/5 43/13/5 44/9/5 48/10/5
f 48/7/6 44/6/6 42/2/6 46/3/6
f 51/19/1 49/11/1 50/16/1 52/20/1
f 50/19/2 49/1/2 53/4/2 54/20/2
f 55/19/3 53/11/3 49/16/3 51/20/3
f 55/20/4 56/19/4 54/11/4 53/16/4
f 56/20/6 52/19/6 50/11/6 54/16/6
f 59/12/1 57/5/1 58/8/1 60/15/1
f 58/17/2 57/5/2 61/8/2 62/18/2
f 63/12/3 61/5/3 57/8/3 59/15/3
f 63/15/4 64/12/4 62/5/4 61/8/4
f 64/15/6 60/12/6 58/5/6 62/8/6
f 67/6/1 65/2/1 66/3/1 68/7/1
f 66/13/2 65/9/2 69/10/2 70/14/2
f 71/6/3 69/2/3 65/3/3 67/7/3
f 71/7/4 72/6/4 70/2/4 69/3/4
f 71/14/5 67/13/5 68/9/5 72/10/5
f 72/7/6 68/6/6 66/2/6 70/3/6
