mtllib lighthouse.mtl
usemtl short_grass
v -15.0903 9 -8.10727
v -14.1841 9 -7.20102
v -14.1841 10 -7.20102
v -15.0903 10 -8.10727
v -15.0903 9 -7.20102
v -14.1841 9 -8.10727
v -14.1841 10 -8.10727
v -15.0903 10 -7.20102
v -14.0259 9 -6.90288
v -13.1197 9 -5.99663
v -13.1197 10 -5.99663
v -14.0259 10 -6.90288
v -14.0259 9 -5.99663
v -13.1197 9 -6.90288
v -13.1197 10 -6.90288
v -14.0259 10 -5.99663
v -12.7934 6 -11.9162
v -11.8871 6 -11.01
v -11.8871 7 -11.01
v -12.7934 7 -11.9162
v -12.7934 6 -11.01
v -11.8871 6 -11.9162
v -11.8871 7 -11.9162
v -12.7934 7 -11.01
v -11.079 9 -4.8144
v -10.1727 9 -3.90815
v -10.1727 10 -3.90815
v -11.079 10 -4.8144
v -11.079 9 -3.90815
v -10.1727 9 -4.8144
v -10.1727 10 -4.8144
v -11.079 10 -3.90815
v -8.94074 4 -11.1154
v -8.03449 4 -10.2092
v -8.03449 5 -10.2092
v -8.94074 5 -11.1154
v -8.94074 4 -10.2092
v -8.03449 4 -11.1154
v -8.03449 5 -11.1154
v -8.94074 5 -10.2092
v -8.10488 4 -11.9406
v -7.19863 4 -11.0344
v -7.19863 5 -11.0344
v -8.10488 5 -11.9406
v -8.10488 4 -11.0344
v -7.19863 4 -11.9406
v -7.19863 5 -11.9406
v -8.10488 5 -11.0344
v -8.1251 4 -11.0574
v -7.21885 4 -10.1511
v -7.21885 5 -10.1511
v -8.1251 5 -11.0574
v -8.1251 4 -10.1511
v -7.21885 4 -11.0574
v -7.21885 5 -11.0574
v -8.1251 5 -10.1511
v -7.91565 9 4.20525
v -7.0094 9 5.1115
v -7.0094 10 5.1115
v -7.91565 10 4.20525
v -7.91565 9 5.1115
v -7.0094 9 4.20525
v -7.0094 10 4.20525
v -7.91565 10 5.1115
v -8.02014 11 12.0051
v -7.11389 11 12.9114
v -7.11389 12 12.9114
v -8.02014 12 12.0051
v -8.02014 11 12.9114
v -7.11389 11 12.0051
v -7.11389 12 12.0051
v -8.02014 12 12.9114
v -7.12095 4 -12.8331
v -6.2147 4 -11.9269
v -6.2147 5 -11.9269
v -7.12095 5 -12.8331
v -7.12095 4 -11.9269
v -6.2147 4 -12.8331
v -6.2147 5 -12.8331
v -7.12095 5 -11.9269
v -7.07884 4 -12.1266
v -6.17259 4 -11.2204
v -6.17259 5 -11.2204
v -7.07884 5 -12.1266
v -7.07884 4 -11.2204
v -6.17259 4 -12.1266
v -6.17259 5 -12.1266
v -7.07884 5 -11.2204
v -6.81568 9 2.11498
v -5.90943 9 3.02123
v -5.90943 10 3.02123
v -6.81568 10 2.11498
v -6.81568 9 3.02123
v -5.90943 9 2.11498
v -5.90943 10 2.11498
v -6.81568 10 3.02123
v -4.82282 11 15.1263
v -3.91657 11 16.0325
v -3.91657 12 16.0325
v -4.82282 12 15.1263
v -4.82282 11 16.0325
v -3.91657 11 15.1263
v -3.91657 12 15.1263
v -4.82282 12 16.0325
v 4.02725 8 9.98871
v 4.9335 8 10.895
v 4.9335 9 10.895
v 4.02725 9 9.98871
v 4.02725 8 10.895
v 4.9335 8 9.98871
v 4.9335 9 9.98871
v 4.02725 9 10.895
v 8.20396 6 11.1936
v 9.11021 6 12.0998
v 9.11021 7 12.0998
v 8.20396 7 11.1936
v 8.20396 6 12.0998
v 9.11021 6 11.1936
v 9.11021 7 11.1936
v 8.20396 7 12.0998
v 10.2082 7 15.0409
v 11.1145 7 15.9472
v 11.1145 8 15.9472
v 10.2082 8 15.0409
v 10.2082 7 15.9472
v 11.1145 7 15.0409
v 11.1145 8 15.0409
v 10.2082 8 15.9472
v 11.04 7 15.1764
v 11.9462 7 16.0827
v 11.9462 8 16.0827
v 11.04 8 15.1764
v 11.04 7 16.0827
v 11.9462 7 15.1764
v 11.9462 8 15.1764
v 11.04 8 16.0827
vt 0.000000000 0.000000000
vt 1.000000000 0.000000000
vt 0.000000000 1.000000000
vt 1.000000000 1.000000000
vn -0.707107 0 0.707107
vn 0.707107 0 0.707107
f 1/1/1 2/2/1 3/4/1 4/3/1
f 5/1/2 6/2/2 7/4/2 8/3/2
f 9/1/1 10/2/1 11/4/1 12/3/1
f 13/1/2 14/2/2 15/4/2 16/3/2
f 17/1/1 18/2/1 19/4/1 20/3/1
f 21/1/2 22/2/2 23/4/2 24/3/2
f 25/1/1 26/2/1 27/4/1 28/3/1
f 29/1/2 30/2/2 31/4/2 32/3/2
f 33/1/1 34/2/1 35/4/1 36/3/1
f 37/1/2 38/2/2 39/4/2 40/3/2
f 41/1/1 42/2/1 43/4/1 44/3/1
f 45/1/2 46/2/2 47/4/2 48/3/2
f 49/1/1 50/2/1 51/4/1 52/3/1
f 53/1/2 54/2/2 55/4/2 56/3/2
f 57/1/1 58/2/1 59/4/1 60/3/1
f 61/1/2 62/2/2 63/4/2 64/3/2
f 65/1/1 66/2/1 67/4/1 68/3/1
f 69/1/2 70/2/2 71/4/2 72/3/2
f 73/1/1 74/2/1 75/4/1 76/3/1
f 77/1/2 78/2/2 79/4/2 80/3/2
f 81/1/1 82/2/1 83/4/1 84/3/1
f 85/1/2 86/2/2 87/4/2 88/3/2
f 89/1/1 90/2/1 91/4/1 92/3/1
f 93/1/2 94/2/2 95/4/2 96/3/2
f 97/1/1 98/2/1 99/4/1 100/3/1
f 101/1/2 102/2/2 103/4/2 104/3/2
f 105/1/1 106/2/1 107/4/1 108/3/1
f 109/1/2 110/2/2 111/4/2 112/3/2
f 113/1/1 114/2/1 115/4/1 116/3/1
f 117/1/2 118/2/2 119/4/2 120/3/2
f 121/1/1 122/2/1 123/4/1 124/3/1
f 125/1/2 126/2/2 127/4/2 128/3/2
f 129/1/1 130/2/1 131/4/1 132/3/1
f 133/1/2 134/2/2 135/4/2 136/3/2
