mtllib lighthouse.mtl
usemtl anvil
v -4.1875 50.625 1
v -4.1875 50.625 0
v -4.1875 51 1
v -4.1875 51 0
v -4.8125 50.625 1
v -4.8125 50.625 0
v -4.8125 51 1
v -4.8125 51 0
v -4.375 50.3125 0.75
v -4.375 50.3125 0.25
v -4.375 50.625 0.75
v -4.375 50.625 0.25
v -4.625 50.3125 0.75
v -4.625 50.3125 0.25
v -4.625 50.625 0.75
v -4.625 50.625 0.25
v -4.25 50.25 0.8125
v -4.25 50.25 0.1875
v -4.25 50.3125 0.8125
v -4.25 50.3125 0.1875
v -4.75 50.25 0.8125
v -4.75 50.25 0.1875
v -4.75 50.3125 0.8125
v -4.75 50.3125 0.1875
v -4.125 50 0.875
v -4.125 50 0.125
v -4.125 50.25 0.875
v -4.125 50.25 0.125
v -4.875 50 0.875
v -4.875 50 0.125
v -4.875 50.25 0.875
v -4.875 50.25 0.125
v -4.1875 50.625 3
v -4.1875 50.625 2
v -4.1875 51 3
v -4.1875 51 2
v -4.8125 50.625 3
v -4.8125 50.625 2
v -4.8125 51 3
v -4.8125 51 2
v -4.375 50.3125 2.75
v -4.375 50.3125 2.25
v -4.375 50.625 2.75
v -4.375 50.625 2.25
v -4.625 50.3125 2.75
v -4.625 50.3125 2.25
v -4.625 50.625 2.75
v -4.625 50.625 2.25
v -4.25 50.25 2.8125
v -4.25 50.25 2.1875
v -4.25 50.3125 2.8125
v -4.25 50.3125 2.1875
v -4.75 50.25 2.8125
v -4.75 50.25 2.1875
v -4.75 50.3125 2.8125
v -4.75 50.3125 2.1875
v -4.125 50 2.875
v -4.125 50 2.125
v -4.125 50.25 2.875
v -4.125 50.25 2.125
v -4.875 50 2.875
v -4.875 50 2.125
v -4.875 50.25 2.875
v -4.875 50.25 2.125
v -1 50.625 -3.1875
v 0 50.625 -3.1875
v -1 51 -3.1875
v 0 51 -3.1875
v -1 50.625 -3.8125
v 0 50.625 -3.8125
v -1 51 -3.8125
v 0 51 -3.8125
v -0.75 50.3125 -3.375
v -0.25 50.3125 -3.375
v -0.75 50.625 -3.375
v -0.25 50.625 -3.375
v -0.75 50.3125 -3.625
v -0.25 50.3125 -3.625
v -0.75 50.625 -3.625
v -0.25 50.625 -3.625
v -0.8125 50.25 -3.25
v -0.1875 50.25 -3.25
v -0.8125 50.3125 -3.25
v -0.1875 50.3125 -3.25
v -0.8125 50.25 -3.75
v -0.1875 50.25 -3.75
v -0.8125 50.3125 -3.75
v -0.1875 50.3125 -3.75
v -0.875 50 -3.125
v -0.125 50 -3.125
v -0.875 50.25 -3.125
v -0.125 50.25 -3.125
v -0.875 50 -3.875
v -0.125 50 -3.875
v -0.875 50.25 -3.875
v -0.125 50.25 -3.875
v -1 50.625 6.8125
v 0 50.625 6.8125
v -1 51 6.8125
v 0 51 6.8125
v -1 50.625 6.1875
v 0 50.625 6.1875
v -1 51 6.1875
v 0 51 6.1875
v -0.75 50.3125 6.625
v -0.25 50.3125 6.625
v -0.75 50.625 6.625
v -0.25 50.625 6.625
v -0.75 50.3125 6.375
v -0.25 50.3125 6.375
v -0.75 50.625 6.375
v -0.25 50.625 6.375
v -0.8125 50.25 6.75
v -0.1875 50.25 6.75
v -0.8125 50.3125 6.75
v -0.1875 50.3125 6.75
v -0.8125 50.25 6.25
v -0.1875 50.25 6.25
v -0.8125 50.3125 6.25
v -0.1875 50.3125 6.25
v -0.875 50 6.875
v -0.125 50 6.875
v -0.875 50.25 6.875
v -0.125 50.25 6.875
v -0.875 50 6.125
v -0.125 50 6.125
v -0.875 50.25 6.125
v -0.125 50.25 6.125
v 1 50.625 -3.1875
v 2 50.625 -3.1875
v 1 51 -3.1875
v 2 51 -3.1875
v 1 50.625 -3.8125
v 2 50.625 -3.8125
v 1 51 -3.8125
v 2 51 -3.8125
v 1.25 50.3125 -3.375
v 1.75 50.3125 -3.375
v 1.25 50.625 -3.375
v 1.75 50.625 -3.375
v 1.25 50.3125 -3.625
v 1.75 50.3125 -3.625
v 1.25 50.625 -3.625
v 1.75 50.625 -3.625
v 1.1875 50.25 -3.25
v 1.8125 50.25 -3.25
v 1.1875 50.3125 -3.25
v 1.8125 50.3125 -3.25
v 1.1875 50.25 -3.75
v 1.8125 50.25 -3.75
v 1.1875 50.3125 -3.75
v 1.8125 50.3125 -3.75
v 1.125 50 -3.125
v 1.875 50 -3.125
v 1.125 50.25 -3.125
v 1.875 50.25 -3.125
v 1.125 50 -3.875
v 1.875 50 -3.875
v 1.125 50.25 -3.875
v 1.875 50.25 -3.875
v 1 50.625 6.8125
v 2 50.625 6.8125
v 1 51 6.8125
v 2 51 6.8125
v 1 50.625 6.1875
v 2 50.625 6.1875
v 1 51 6.1875
v 2 51 6.1875
v 1.25 50.3125 6.625
v 1.75 50.3125 6.625
v 1.25 50.625 6.625
v 1.75 50.625 6.625
v 1.25 50.3125 6.375
v 1.75 50.3125 6.375
v 1.25 50.625 6.375
v 1.75 50.625 6.375
v 1.1875 50.25 6.75
v 1.8125 50.25 6.75
v 1.1875 50.3125 6.75
v 1.8125 50.3125 6.75
v 1.1875 50.25 6.25
v 1.8125 50.25 6.25
v 1.1875 50.3125 6.25
v 1.8125 50.3125 6.25
v 1.125 50 6.875
v 1.875 50 6.875
v 1.125 50.25 6.875
v 1.875 50.25 6.875
v 1.125 50 6.125
v 1.875 50 6.125
v 1.125 50.25 6.125
v 1.875 50.25 6.125
v 3.1875 10.625 4
v 3.1875 10.625 5
v 3.1875 11 4
v 3.1875 11 5
v 3.8125 10.625 4
v 3.8125 10.625 5
v 3.8125 11 4
v 3.8125 11 5
v 3.375 10.3125 4.25
v 3.375 10.3125 4.75
v 3.375 10.625 4.25
v 3.375 10.625 4.75
v 3.625 10.3125 4.25
v 3.625 10.3125 4.75
v 3.625 10.625 4.25
v 3.625 10.625 4.75
v 3.25 10.25 4.1875
v 3.25 10.25 4.8125
v 3.25 10.3125 4.1875
v 3.25 10.3125 4.8125
v 3.75 10.25 4.1875
v 3.75 10.25 4.8125
v 3.75 10.3125 4.1875
v 3.75 10.3125 4.8125
v 3.125 10 4.125
v 3.125 10 4.875
v 3.125 10.25 4.125
v 3.125 10.25 4.875
v 3.875 10 4.125
v 3.875 10 4.875
v 3.875 10.25 4.125
v 3.875 10.25 4.875
v 5.1875 50.625 0
v 5.1875 50.625 1
v 5.1875 51 0
v 5.1875 51 1
v 5.8125 50.625 0
v 5.8125 50.625 1
v 5.8125 51 0
v 5.8125 51 1
v 5.375 50.3125 0.25
v 5.375 50.3125 0.75
v 5.375 50.625 0.25
v 5.375 50.625 0.75
v 5.625 50.3125 0.25
v 5.625 50.3125 0.75
v 5.625 50.625 0.25
v 5.625 50.625 0.75
v 5.25 50.25 0.1875
v 5.25 50.25 0.8125
v 5.25 50.3125 0.1875
v 5.25 50.3125 0.8125
v 5.75 50.25 0.1875
v 5.75 50.25 0.8125
v 5.75 50.3125 0.1875
v 5.75 50.3125 0.8125
v 5.125 50 0.125
v 5.125 50 0.875
v 5.125 50.25 0.125
v 5.125 50.25 0.875
v 5.875 50 0.125
v 5.875 50 0.875
v 5.875 50.25 0.125
v 5.875 50.25 0.875
v 5.1875 50.625 2
v 5.1875 50.625 3
v 5.1875 51 2
v 5.1875 51 3
v 5.8125 50.625 2
v 5.8125 50.625 3
v 5.8125 51 2
v 5.8125 51 3
v 5.375 50.3125 2.25
v 5.375 50.3125 2.75
v 5.375 50.625 2.25
v 5.375 50.625 2.75
v 5.625 50.3125 2.25
v 5.625 50.3125 2.75
v 5.625 50.625 2.25
v 5.625 50.625 2.75
v 5.25 50.25 2.1875
v 5.25 50.25 2.8125
v 5.25 50.3125 2.1875
v 5.25 50.3125 2.8125
v 5.75 50.25 2.1875
v 5.75 50.25 2.8125
v 5.75 50.3125 2.1875
v 5.75 50.3125 2.8125
v 5.125 50 2.125
v 5.125 50 2.875
v 5.125 50.25 2.125
v 5.125 50.25 2.875
v 5.875 50 2.125
v 5.875 50 2.875
v 5.875 50.25 2.125
v 5.875 50.25 2.875
vt 0.125000000 0.000000000
vt 0.187500000 0.000000000
vt 0.812500000 0.000000000
vt 0.875000000 0.000000000
vt 0.125000000 0.125000000
vt 0.875000000 0.125000000
vt 0.250000000 0.187500000
vt 0.750000000 0.187500000
vt 0.125000000 0.250000000
vt 0.187500000 0.250000000
vt 0.250000000 0.250000000
vt 0.750000000 0.250000000
vt 0.812500000 0.250000000
vt 0.875000000 0.250000000
vt 0.187500000 0.312500000
vt 0.250000000 0.312500000
vt 0.375000000 0.312500000
vt 0.625000000 0.312500000
vt 0.750000000 0.312500000
vt 0.812500000 0.312500000
vt 0.000000000 0.625000000
vt 0.187500000 0.625000000
vt 0.250000000 0.625000000
vt 0.375000000 0.625000000
vt 0.625000000 0.625000000
vt 0.750000000 0.625000000
vt 0.812500000 0.625000000
vt 1.000000000 0.625000000
vt 0.250000000 0.812500000
vt 0.750000000 0.812500000
vt 0.125000000 0.875000000
vt 0.875000000 0.875000000
vt 0.000000000 1.000000000
vt 0.187500000 1.000000000
vt 0.812500000 1.000000000
vt 1.000000000 1.000000000
vn -1 0 0
vn 0 -1 0
vn 0 0 -1
vn 1 0 0
vn 0 1 0
vn 0 0 1
f 4/36/4 3/33/4 1/21/4 2/28/4
f 2/34/2 1/2/2 5/3/2 6/35/2
f 3/35/6 7/34/6 5/22/6 1/27/6
f 8/33/1 6/21/1 5/28/1 7/36/1
f 4/34/3 2/22/3 6/27/3 8/35/3
f 12/26/4 11/23/4 9/16/4 10/19/4
f 11/25/6 15/24/6 13/17/6 9/18/6
f 16/23/1 14/16/1 13/19/1 15/26/1
f 12/24/3 10/17/3 14/18/3 16/25/3
f 20/20/4 19/15/4 17/10/4 18/13/4
f 19/19/6 23/16/6 21/11/6 17/12/6
f 24/15/1 22/10/1 21/13/1 23/20/1
f 23/30/5 19/29/5 20/7/5 24/8/5
f 20/16/3 18/11/3 22/12/3 24/19/3
f 28/14/4 27/9/4 25/1/4 26/4/4
f 26/31/2 25/5/2 29/6/2 30/32/2
f 27/14/6 31/9/6 29/1/6 25/4/6
f 32/9/1 30/1/1 29/4/1 31/14/1
f 31/32/5 27/31/5 28/5/5 32/6/5
f 28/9/3 26/1/3 30/4/3 32/14/3
f 36/36/4 35/33/4 33/21/4 34/28/4
f 34/34/2 33/2/2 37/3/2 38/35/2
f 35/35/6 39/34/6 37/22/6 33/27/6
f 40/33/1 38/21/1 37/28/1 39/36/1
f 36/34/3 34/22/3 38/27/3 40/35/3
f 44/26/4 43/23/4 41/16/4 42/19/4
f 43/25/6 47/24/6 45/17/6 41/18/6
f 48/23/1 46/16/1 45/19/1 47/26/1
f 44/24/3 42/17/3 46/18/3 48/25/3
f 52/20/4 51/15/4 49/10/4 50/13/4
f 51/19/6 55/16/6 53/11/6 49/12/6
f 56/15/1 54/10/1 53/13/1 55/20/1
f 55/30/5 51/29/5 52/7/5 56/8/5
f 52/16/3 50/11/3 54/12/3 56/19/3
f 60/14/4 59/9/4 57/1/4 58/4/4
f 58/31/2 57/5/2 61/6/2 62/32/2
f 59/14/6 63/9/6 61/1/6 57/4/6
f 64/9/1 62/1/1 61/4/1 63/14/1
f 63/32/5 59/31/5 60/5/5 64/6/5
f 60/9/3 58/1/3 62/4/3 64/14/3
f 68/36/6 67/33/6 65/21/6 66/28/6
f 66/34/2 65/2/2 69/3/2 70/35/2
f 71/34/1 69/22/1 65/27/1 67/35/1
f 72/33/3 70/21/3 69/28/3 71/36/3
f 72/35/4 68/34/4 66/22/4 70/27/4
f 76/26/6 75/23/6 73/16/6 74/19/6
f 79/24/1 77/17/1 73/18/1 75/25/1
f 80/23/3 78/16/3 77/19/3 79/26/3
f 80/25/4 76/24/4 74/17/4 78/18/4
f 84/20/6 83/15/6 81/10/6 82/13/6
f 87/16/1 85/11/1 81/12/1 83/19/1
f 88/15/3 86/10/3 85/13/3 87/20/3
f 87/30/5 83/29/5 84/7/5 88/8/5
f 88/19/4 84/16/4 82/11/4 86/12/4
f 92/14/6 91/9/6 89/1/6 90/4/6
f 90/31/2 89/5/2 93/6/2 94/32/2
f 95/9/1 93/1/1 89/4/1 91/14/1
f 96/9/3 94/1/3 93/4/3 95/14/3
f 95/32/5 91/31/5 92/5/5 96/6/5
f 96/14/4 92/9/4 90/1/4 94/4/4
f 100/36/6 99/33/6 97/21/6 98/28/6
f 98/34/2 97/2/2 101/3/2 102/35/2
f 103/34/1 101/22/1 97/27/1 99/35/1
f 104/33/3 102/21/3 101/28/3 103/36/3
f 104/35/4 100/34/4 98/22/4 102/27/4
f 108/26/6 107/23/6 105/16/6 106/19/6
f 111/24/1 109/17/1 105/18/1 107/25/1
f 112/23/3 110/16/3 109/19/3 111/26/3
f 112/25/4 108/24/4 106/17/4 110/18/4
f 116/20/6 115/15/6 113/10/6 114/13/6
f 119/16/1 117/11/1 113/12/1 115/19/1
f 120/15/3 118/10/3 117/13/3 119/20/3
f 119/30/5 115/29/5 116/7/5 120/8/5
f 120/19/4 116/16/4 114/11/4 118/12/4
f 124/14/6 123/9/6 121/1/6 122/4/6
f 122/31/2 121/5/2 125/6/2 126/32/2
f 127/9/1 125/1/1 121/4/1 123/14/1
f 128/9/3 126/1/3 125/4/3 127/14/3
f 127/32/5 123/31/5 124/5/5 128/6/5
f 128/14/4 124/9/4 122/1/4 126/4/4
f 132/36/6 131/33/6 129/21/6 130/28/6
f 130/34/2 129/2/2 133/3/2 134/35/2
f 135/34/1 133/22/1 129/27/1 131/35/1
f 136/33/3 134/21/3 133/28/3 135/36/3
f 136/35/4 132/34/4 130/22/4 134/27/4
f 140/26/6 139/23/6 137/16/6 138/19/6
f 143/24/1 141/17/1 137/18/1 139/25/1
f 144/23/3 142/16/3 141/19/3 143/26/3
f 144/25/4 140/24/4 138/17/4 142/18/4
f 148/20/6 147/15/6 145/10/6 146/13/6
f 151/16/1 149/11/1 145/12/1 147/19/1
f 152/15/3 150/10/3 149/13/3 151/20/3
f 151/30/5 147/29/5 148/7/5 152/8/5
f 152/19/4 148/16/4 146/11/4 150/12/4
f 156/14/6 155/9/6 153/1/6 154/4/6
f 154/31/2 153/5/2 157/6/2 158/32/2
f 159/9/1 157/1/1 153/4/1 155/14/1
f 160/9/3 158/1/3 157/4/3 159/14/3
f 159/32/5 155/31/5 156/5/5 160/6/5
f 160/14/4 156/9/4 154/1/4 158/4/4
f 164/36/6 163/33/6 161/21/6 162/28/6
f 162/34/2 161/2/2 165/3/2 166/35/2
f 167/34/1 165/22/1 161/27/1 163/35/1
f 168/33/3 166/21/3 165/28/3 167/36/3
f 168/35/4 164/34/4 162/22/4 166/27/4
f 172/26/6 171/23/6 169/16/6 170/19/6
f 175/24/1 173/17/1 169/18/1 171/25/1
f 176/23/3 174/16/3 173/19/3 175/26/3
f 176/25/4 172/24/4 170/17/4 174/18/4
f 180/20/6 179/15/6 177/10/6 178/13/6
f 183/16/1 181/11/1 177/12/1 179/19/1
f 184/15/3 182/10/3 181/13/3 183/20/3
f 183/30/5 179/29/5 180/7/5 184/8/5
f 184/19/4 180/16/4 178/11/4 182/12/4
f 188/14/6 187/9/6 185/1/6 186/4/6
f 186/31/2 185/5/2 189/6/2 190/32/2
f 191/9/1 189/1/1 185/4/1 187/14/1
f 192/9/3 190/1/3 189/4/3 191/14/3
f 191/32/5 187/31/5 188/5/5 192/6/5
f 192/14/4 188/9/4 186/1/4 190/4/4
f 195/33/1 193/21/1 194/28/1 196/36/1
f 194/34/2 193/2/2 197/3/2 198/35/2
f 199/34/3 197/22/3 193/27/3 195/35/3
f 199/36/4 200/33/4 198/21/4 197/28/4
f 200/35/6 196/34/6 194/22/6 198/27/6
f 203/23/1 201/16/1 202/19/1 204/26/1
f 207/24/3 205/17/3 201/18/3 203/25/3
f 207/26/4 208/23/4 206/16/4 205/19/4
f 208/25/6 204/24/6 202/17/6 206/18/6
f 211/15/1 209/10/1 210/13/1 212/20/1
f 215/16/3 213/11/3 209/12/3 211/19/3
f 215/20/4 216/15/4 214/10/4 213/13/4
f 215/30/5 211/29/5 212/7/5 216/8/5
f 216/19/6 212/16/6 210/11/6 214/12/6
f 219/9/1 217/1/1 218/4/1 220/14/1
f 218/31/2 217/5/2 221/6/2 222/32/2
f 223/9/3 221/1/3 217/4/3 219/14/3
f 223/14/4 224/9/4 222/1/4 221/4/4
f 223/32/5 219/31/5 220/5/5 224/6/5
f 224/14/6 220/9/6 218/1/6 222/4/6
f 227/33/1 225/21/1 226/28/1 228/36/1
f 226/34/2 225/2/2 229/3/2 230/35/2
f 231/34/3 229/22/3 225/27/3 227/35/3
f 231/36/4 232/33/4 230/21/4 229/28/4
f 232/35/6 228/34/6 226/22/6 230/27/6
f 235/23/1 233/16/1 234/19/1 236/26/1
f 239/24/3 237/17/3 233/18/3 235/25/3
f 239/26/4 240/23/4 238/16/4 237/19/4
f 240/25/6 236/24/6 234/17/6 238/18/6
f 243/15/1 241/10/1 242/13/1 244/20/1
f 247/16/3 245/11/3 241/12/3 243/19/3
f 247/20/4 248/15/4 246/10/4 245/13/4
f 247/30/5 243/29/5 244/7/5 248/8/5
f 248/19/6 244/16/6 242/11/6 246/12/6
f 251/9/1 249/1/1 250/4/1 252/14/1
f 250/31/2 249/5/2 253/6/2 254/32/2
f 255/9/3 253/1/3 249/4/3 251/14/3
f 255/14/4 256/9/4 254/1/4 253/4/4
f 255/32/5 251/31/5 252/5/5 256/6/5
f 256/14/6 252/9/6 250/1/6 254/4/6
f 259/33/1 257/21/1 258/28/1 260/36/1
f 258/34/2 257/2/2 261/3/2 262/35/2
f 263/34/3 261/22/3 257/27/3 259/35/3
f 263/36/4 264/33/4 262/21/4 261/28/4
f 264/35/6 260/34/6 258/22/6 262/27/6
f 267/23/1 265/16/1 266/19/1 268/26/1
f 271/24/3 269/17/3 265/18/3 267/25/3
f 271/26/4 272/23/4 270/16/4 269/19/4
f 272/25/6 268/24/6 266/17/6 270/18/6
f 275/15/1 273/10/1 274/13/1 276/20/1
f 279/16/3 277/11/3 273/12/3 275/19/3
f 279/20/4 280/15/4 278/10/4 277/13/4
f 279/30/5 275/29/5 276/7/5 280/8/5
f 280/19/6 276/16/6 274/11/6 278/12/6
f 283/9/1 281/1/1 282/4/1 284/14/1
f 282/31/2 281/5/2 285/6/2 286/32/2
f 287/9/3 285/1/3 281/4/3 283/14/3
f 287/14/4 288/9/4 286/1/4 285/4/4
f 287/32/5 283/31/5 284/5/5 288/6/5
f 288/14/6 284/9/6 282/1/6 286/4/6
