mtllib lighthouse.mtl
usemtl yellow_glazed_terracotta
v -3 50 0
v -3 50 1
v -3 50 2
v -3 50 3
v -2 50 -1
v -2 50 0
v -3 51 1
v -3 51 0
v -2 50 1
v -2 51 0
v -2 51 1
v -3 51 2
v -2 50 2
v -2 51 2
v -3 51 3
v -2 50 3
v -2 51 3
v -2 50 4
v -1 50 -2
v -1 50 -1
v -2 51 -1
v -1 50 0
v -1 51 -1
v -1 51 0
v -1 50 3
v -1 51 3
v -2 51 4
v -1 50 4
v -1 51 4
v -1 50 5
v 0 50 -2
v -1 51 -2
v 0 50 -1
v 0 51 -2
v 0 51 -1
v 0 50 4
v 0 51 4
v -1 51 5
v 0 50 5
v 0 51 5
v 1 50 -2
v 1 50 -1
v 1 51 -2
v 1 51 -1
v 1 50 4
v 1 51 4
v 1 50 5
v 1 51 5
v 2 50 -2
v 2 50 -1
v 2 51 -2
v 2 51 -1
v 2 50 0
v 2 51 0
v 2 50 3
v 2 50 4
v 2 51 3
v 2 51 4
v 2 50 5
v 2 51 5
v 3 50 -1
v 3 50 0
v 3 51 -1
v 3 51 0
v 3 50 1
v 3 51 1
v 3 50 2
v 3 51 2
v 3 50 3
v 3 51 3
v 3 50 4
v 3 51 4
v 4 50 0
v 4 50 1
v 4 51 0
v 4 51 1
v 4 50 2
v 4 51 2
v 4 50 3
v 4 51 3
vt 0.000000000 0.000000000
vt 1.000000000 0.000000000
vt 0.000000000 1.000000000
vt 1.000000000 1.000000000
vn -1 0 0
vn 0 -1 0
vn 0 0 -1
vn 1 0 0
vn 0 1 0
vn 0 0 1
f 2/1/1 7/2/1 8/4/1 1/3/1
f 2/4/2 1/3/2 6/1/2 9/2/2
f 1/2/3 8/4/3 10/3/3 6/1/3
f 9/2/4 6/4/4 10/3/4 11/1/4
f 7/2/5 11/4/5 10/3/5 8/1/5
f 2/4/6 9/3/6 11/1/6 7/2/6
f 3/1/1 12/2/1 7/4/1 2/3/1
f 3/4/2 2/3/2 9/1/2 13/2/2
f 2/2/3 7/4/3 11/3/3 9/1/3
f 13/2/4 9/4/4 11/3/4 14/1/4
f 12/2/5 14/4/5 11/3/5 7/1/5
f 3/4/6 13/3/6 14/1/6 12/2/6
f 4/1/1 15/2/1 12/4/1 3/3/1
f 4/4/2 3/3/2 13/1/2 16/2/2
f 3/2/3 12/4/3 14/3/3 13/1/3
f 16/2/4 13/4/4 14/3/4 17/1/4
f 15/2/5 17/4/5 14/3/5 12/1/5
f 4/4/6 16/3/6 17/1/6 15/2/6
f 6/3/1 10/1/1 21/2/1 5/4/1
f 6/3/2 5/1/2 20/2/2 22/4/2
f 5/1/3 21/2/3 23/4/3 20/3/3
f 22/1/4 20/2/4 23/4/4 24/3/4
f 10/4/5 24/3/5 23/1/5 21/2/5
f 6/2/6 22/4/6 24/3/6 10/1/6
f 18/1/1 27/2/1 17/4/1 16/3/1
f 18/4/2 16/3/2 25/1/2 28/2/2
f 16/2/3 17/4/3 26/3/3 25/1/3
f 28/2/4 25/4/4 26/3/4 29/1/4
f 27/2/5 29/4/5 26/3/5 17/1/5
f 18/4/6 28/3/6 29/1/6 27/2/6
f 20/3/1 23/1/1 32/2/1 19/4/1
f 20/3/2 19/1/2 31/2/2 33/4/2
f 19/1/3 32/2/3 34/4/3 31/3/3
f 33/1/4 31/2/4 34/4/4 35/3/4
f 23/4/5 35/3/5 34/1/5 32/2/5
f 20/2/6 33/4/6 35/3/6 23/1/6
f 30/2/1 38/4/1 29/3/1 28/1/1
f 30/2/2 28/4/2 36/3/2 39/1/2
f 28/4/3 29/3/3 37/1/3 36/2/3
f 39/4/4 36/3/4 37/1/4 40/2/4
f 38/1/5 40/2/5 37/4/5 29/3/5
f 30/3/6 39/1/6 40/2/6 38/4/6
f 33/3/1 35/1/1 34/2/1 31/4/1
f 33/3/2 31/1/2 41/2/2 42/4/2
f 31/1/3 34/2/3 43/4/3 41/3/3
f 42/1/4 41/2/4 43/4/4 44/3/4
f 35/4/5 44/3/5 43/1/5 34/2/5
f 33/2/6 42/4/6 44/3/6 35/1/6
f 39/2/1 40/4/1 37/3/1 36/1/1
f 39/2/2 36/4/2 45/3/2 47/1/2
f 36/4/3 37/3/3 46/1/3 45/2/3
f 47/4/4 45/3/4 46/1/4 48/2/4
f 40/1/5 48/2/5 46/4/5 37/3/5
f 39/3/6 47/1/6 48/2/6 40/4/6
f 42/3/1 44/1/1 43/2/1 41/4/1
f 42/3/2 41/1/2 49/2/2 50/4/2
f 41/1/3 43/2/3 51/4/3 49/3/3
f 50/1/4 49/2/4 51/4/4 52/3/4
f 44/4/5 52/3/5 51/1/5 43/2/5
f 42/2/6 50/4/6 52/3/6 44/1/6
f 47/2/1 48/4/1 46/3/1 45/1/1
f 47/2/2 45/4/2 56/3/2 59/1/2
f 45/4/3 46/3/3 58/1/3 56/2/3
f 59/4/4 56/3/4 58/1/4 60/2/4
f 48/1/5 60/2/5 58/4/5 46/3/5
f 47/3/6 59/1/6 60/2/6 48/4/6
f 53/4/1 54/3/1 52/1/1 50/2/1
f 53/1/2 50/2/2 61/4/2 62/3/2
f 50/3/3 52/1/3 63/2/3 61/4/3
f 62/3/4 61/1/4 63/2/4 64/4/4
f 54/3/5 64/1/5 63/2/5 52/4/5
f 53/1/6 62/2/6 64/4/6 54/3/6
f 56/4/1 58/3/1 57/1/1 55/2/1
f 56/1/2 55/2/2 69/4/2 71/3/2
f 55/3/3 57/1/3 70/2/3 69/4/3
f 71/3/4 69/1/4 70/2/4 72/4/4
f 58/3/5 72/1/5 70/2/5 57/4/5
f 56/1/6 71/2/6 72/4/6 58/3/6
f 65/4/1 66/3/1 64/1/1 62/2/1
f 65/1/2 62/2/2 73/4/2 74/3/2
f 62/3/3 64/1/3 75/2/3 73/4/3
f 74/3/4 73/1/4 75/2/4 76/4/4
f 66/3/5 76/1/5 75/2/5 64/4/5
f 65/1/6 74/2/6 76/4/6 66/3/6
f 67/4/1 68/3/1 66/1/1 65/2/1
f 67/1/2 65/2/2 74/4/2 77/3/2
f 65/3/3 66/1/3 76/2/3 74/4/3
f 77/3/4 74/1/4 76/2/4 78/4/4
f 68/3/5 78/1/5 76/2/5 66/4/5
f 67/1/6 77/2/6 78/4/6 68/3/6
f 69/4/1 70/3/1 68/1/1 67/2/1
f 69/1/2 67/2/2 77/4/2 79/3/2
f 67/3/3 68/1/3 78/2/3 77/4/3
f 79/3/4 77/1/4 78/2/4 80/4/4
f 70/3/5 80/1/5 78/2/5 68/4/5
f 69/1/6 79/2/6 80/4/6 70/3/6
