mtllib lighthouse.mtl
usemtl orange_stained_glass
v 0.3125 38 15.3125
v 0.3125 38 15.6875
v 0.3125 39 15.3125
v 0.3125 39 15.6875
v 1 38 15.3125
v 1 38 15.6875
v 1 39 15.3125
v 1 39 15.6875
v 1.3125 38 14.3125
v 1.3125 38 15
v 1.3125 39 14.3125
v 1.3125 39 15
v 1.6875 38 14.6875
v 1.6875 38 15
v 1.6875 39 14.6875
v 1.6875 39 15
v 1.3125 38 14.3125
v 1.3125 39 14.3125
v 2 38 14.3125
v 2 39 14.3125
v 1.6875 38 14.6875
v 1.6875 39 14.6875
v 2 38 14.6875
v 2 39 14.6875
v 1.6875 38 15
v 1.6875 38 15.6875
v 1.6875 39 15
v 1.6875 39 15.6875
v 1.3125 38 15
v 1.3125 38 15.3125
v 1.3125 39 15
v 1.3125 39 15.3125
v 1 38 15.3125
v 1 39 15.3125
v 1.3125 38 15.3125
v 1.3125 39 15.3125
v 1 38 15.6875
v 1 39 15.6875
v 1.6875 38 15.6875
v 1.6875 39 15.6875
v 2.3125 33 11.3125
v 2.3125 33 11.6875
v 2.3125 34 11.3125
v 2.3125 34 11.6875
v 3 33 11.3125
v 3 33 11.6875
v 3 34 11.3125
v 3 34 11.6875
v 2.3125 37 13.3125
v 2.3125 37 14
v 2.3125 38 13.3125
v 2.3125 38 14
v 2.6875 37 13.6875
v 2.6875 37 14
v 2.6875 38 13.6875
v 2.6875 38 14
v 2.3125 37 13.3125
v 2.3125 38 13.3125
v 3 37 13.3125
v 3 38 13.3125
v 2.6875 37 13.6875
v 2.6875 38 13.6875
v 3 37 13.6875
v 3 38 13.6875
v 2.3125 37 14
v 2.3125 37 14.6875
v 2.3125 38 14
v 2.3125 38 14.6875
v 2.6875 37 14
v 2.6875 37 14.3125
v 2.6875 38 14
v 2.6875 38 14.3125
v 2.6875 37 14.3125
v 2.6875 38 14.3125
v 3 37 14.3125
v 3 38 14.3125
v 2.3125 37 14.6875
v 2.3125 38 14.6875
v 3 37 14.6875
v 3 38 14.6875
v 2 38 14.3125
v 2 38 14.6875
v 2 39 14.3125
v 2 39 14.6875
v 3 38 14.3125
v 3 38 14.6875
v 3 39 14.3125
v 3 39 14.6875
v 3.3125 33 9.3125
v 3.3125 33 10
v 3.3125 34 9.3125
v 3.3125 34 10
v 3.6875 33 9.6875
v 3.6875 33 10
v 3.6875 34 9.6875
v 3.6875 34 10
v 3.3125 33 9.3125
v 3.3125 34 9.3125
v 4 33 9.3125
v 4 34 9.3125
v 3.6875 33 9.6875
v 3.6875 34 9.6875
v 4 33 9.6875
v 4 34 9.6875
v 3.3125 33 10
v 3.3125 33 11
v 3.3125 34 10
v 3.3125 34 11
v 3.6875 33 10
v 3.6875 33 10.3125
v 3.6875 34 10
v 3.6875 34 10.3125
v 3.6875 33 10.3125
v 3.6875 33 10.6875
v 3.6875 34 10.3125
v 3.6875 34 10.6875
v 4 33 10.3125
v 4 33 10.6875
v 4 34 10.3125
v 4 34 10.6875
v 3.6875 33 10.6875
v 3.6875 33 11
v 3.6875 34 10.6875
v 3.6875 34 11
v 3.6875 33 11
v 3.6875 33 11.6875
v 3.6875 34 11
v 3.6875 34 11.6875
v 3.3125 33 11
v 3.3125 33 11.3125
v 3.3125 34 11
v 3.3125 34 11.3125
v 3 33 11.3125
v 3 34 11.3125
v 3.3125 33 11.3125
v 3.3125 34 11.3125
v 3 33 11.6875
v 3 34 11.6875
v 3.6875 33 11.6875
v 3.6875 34 11.6875
v 3.3125 33 13.3125
v 3.3125 33 14
v 3.3125 34 13.3125
v 3.3125 34 14
v 3.6875 33 13.6875
v 3.6875 33 14
v 3.6875 34 13.6875
v 3.6875 34 14
v 3.3125 33 13.3125
v 3.3125 34 13.3125
v 4 33 13.3125
v 4 34 13.3125
v 3.6875 33 13.6875
v 3.6875 34 13.6875
v 4 33 13.6875
v 4 34 13.6875
v 3.3125 38 13.3125
v 3.3125 38 14
v 3.3125 39 13.3125
v 3.3125 39 14
v 3.6875 38 13.3125
v 3.6875 38 14
v 3.6875 39 13.3125
v 3.6875 39 14
v 3.3125 33 14
v 3.3125 33 15
v 3.3125 34 14
v 3.3125 34 15
v 3.6875 33 14
v 3.6875 33 14.3125
v 3.6875 34 14
v 3.6875 34 14.3125
v 3.6875 33 14.3125
v 3.6875 33 14.6875
v 3.6875 34 14.3125
v 3.6875 34 14.6875
v 4 33 14.3125
v 4 33 14.6875
v 4 34 14.3125
v 4 34 14.6875
v 3.6875 33 14.6875
v 3.6875 33 15
v 3.6875 34 14.6875
v 3.6875 34 15
v 3.6875 37 14
v 3.6875 37 14.6875
v 3.6875 38 14
v 3.6875 38 14.6875
v 3.3125 37 14
v 3.3125 37 14.3125
v 3.3125 38 14
v 3.3125 38 14.3125
v 3 37 14.3125
v 3 38 14.3125
v 3.3125 37 14.3125
v 3.3125 38 14.3125
v 3 37 14.6875
v 3 38 14.6875
v 3.6875 37 14.6875
v 3.6875 38 14.6875
v 3.6875 38 14
v 3.6875 38 14.6875
v 3.6875 39 14
v 3.6875 39 14.6875
v 3.3125 38 14
v 3.3125 38 14.3125
v 3.3125 39 14
v 3.3125 39 14.3125
v 3 38 14.3125
v 3 39 14.3125
v 3.3125 38 14.3125
v 3.3125 39 14.3125
v 3 38 14.6875
v 3 39 14.6875
v 3.6875 38 14.6875
v 3.6875 39 14.6875
v 3.3125 32 15.3125
v 3.3125 32 16
v 3.3125 33 15.3125
v 3.3125 33 16
v 3.6875 32 15.3125
v 3.6875 32 16
v 3.6875 33 15.3125
v 3.6875 33 16
v 3.3125 33 15
v 3.3125 33 15.6875
v 3.3125 34 15
v 3.3125 34 15.6875
v 3.6875 33 15
v 3.6875 33 15.6875
v 3.6875 34 15
v 3.6875 34 15.6875
v 4.3125 33 9.6875
v 4.3125 33 10
v 4.3125 34 9.6875
v 4.3125 34 10
v 4.6875 33 9.6875
v 4.6875 33 10
v 4.6875 34 9.6875
v 4.6875 34 10
v 4 33 9.6875
v 4 34 9.6875
v 4.3125 33 9.6875
v 4.3125 34 9.6875
v 4.6875 33 9.6875
v 4.6875 34 9.6875
v 5 33 9.6875
v 5 34 9.6875
v 4 33 9.3125
v 4 34 9.3125
v 5 33 9.3125
v 5 34 9.3125
v 4.3125 34 9.3125
v 4.3125 34 9.6875
v 4.3125 35 9.3125
v 4.3125 35 9.6875
v 5 34 9.3125
v 5 34 9.6875
v 5 35 9.3125
v 5 35 9.6875
v 4.6875 33 10
v 4.6875 33 10.6875
v 4.6875 34 10
v 4.6875 34 10.6875
v 4.3125 33 10
v 4.3125 33 10.3125
v 4.3125 34 10
v 4.3125 34 10.3125
v 4 33 10.3125
v 4 34 10.3125
v 4.3125 33 10.3125
v 4.3125 34 10.3125
v 4 33 10.6875
v 4 34 10.6875
v 4.6875 33 10.6875
v 4.6875 34 10.6875
v 4.3125 35 10.3125
v 4.3125 35 10.6875
v 4.3125 36 10.3125
v 4.3125 36 10.6875
v 5 35 10.3125
v 5 35 10.6875
v 5 36 10.3125
v 5 36 10.6875
v 4.6875 33 14
v 4.6875 33 14.6875
v 4.6875 34 14
v 4.6875 34 14.6875
v 4.3125 33 14
v 4.3125 33 14.3125
v 4.3125 34 14
v 4.3125 34 14.3125
v 4 33 14.3125
v 4 34 14.3125
v 4.3125 33 14.3125
v 4.3125 34 14.3125
v 4 33 14.6875
v 4 34 14.6875
v 4.6875 33 14.6875
v 4.6875 34 14.6875
v 5 33 9.3125
v 5 33 9.6875
v 5 34 9.3125
v 5 34 9.6875
v 5.6875 33 9.3125
v 5.6875 33 9.6875
v 5.6875 34 9.3125
v 5.6875 34 9.6875
v 5.3125 35 9.3125
v 5.3125 35 10
v 5.3125 36 9.3125
v 5.3125 36 10
v 5.6875 35 9.3125
v 5.6875 35 10
v 5.6875 36 9.3125
v 5.6875 36 10
v 5.6875 35 10
v 5.6875 35 10.6875
v 5.6875 36 10
v 5.6875 36 10.6875
v 5.3125 35 10
v 5.3125 35 10.3125
v 5.3125 36 10
v 5.3125 36 10.3125
v 5 35 10.3125
v 5 36 10.3125
v 5.3125 35 10.3125
v 5.3125 36 10.3125
v 5 35 10.6875
v 5 36 10.6875
v 5.6875 35 10.6875
v 5.6875 36 10.6875
v 7.3125 35 14.3125
v 7.3125 35 14.6875
v 7.3125 36 14.3125
v 7.3125 36 14.6875
v 8 35 14.3125
v 8 35 14.6875
v 8 36 14.3125
v 8 36 14.6875
v 8.3125 35 13.3125
v 8.3125 35 14
v 8.3125 36 13.3125
v 8.3125 36 14
v 8.6875 35 13.6875
v 8.6875 35 14
v 8.6875 36 13.6875
v 8.6875 36 14
v 8.3125 35 13.3125
v 8.3125 36 13.3125
v 9 35 13.3125
v 9 36 13.3125
v 8.6875 35 13.6875
v 8.6875 36 13.6875
v 9 35 13.6875
v 9 36 13.6875
v 8.6875 35 14
v 8.6875 35 14.6875
v 8.6875 36 14
v 8.6875 36 14.6875
v 8.3125 35 14
v 8.3125 35 14.3125
v 8.3125 36 14
v 8.3125 36 14.3125
v 8 35 14.3125
v 8 36 14.3125
v 8.3125 35 14.3125
v 8.3125 36 14.3125
v 8 35 14.6875
v 8 36 14.6875
v 8.6875 35 14.6875
v 8.6875 36 14.6875
v 9 35 13.3125
v 9 35 13.6875
v 9 36 13.3125
v 9 36 13.6875
v 9.6875 35 13.3125
v 9.6875 35 13.6875
v 9.6875 36 13.3125
v 9.6875 36 13.6875
v 4 35 13
v 4 35 14
v 4 36 14
v 4 36 13
v 5 35 14
v 5 35 13
v 5 36 13
v 5 36 14
v 5 35 12
v 6 35 12
v 6 35 13
v 5 36 12
v 6 36 12
v 6 36 13
vt 0.000000000 0.000000000
vt 0.312500000 0.000000000
vt 0.687500000 0.000000000
vt 1.000000000 0.000000000
vt 0.000000000 1.000000000
vt 0.312500000 1.000000000
vt 0.687500000 1.000000000
vt 1.000000000 1.000000000
vn -1 0 0
vn 0 -1 0
vn 0 0 -1
vn 1 0 0
vn 0 1 0
vn 0 0 1
f 3/6/1 1/2/1 2/3/1 4/7/1
f 7/8/3 5/4/3 1/2/3 3/6/3
f 7/7/4 8/6/4 6/2/4 5/3/4
f 8/8/6 4/6/6 2/2/6 6/4/6
f 11/7/1 9/3/1 10/1/1 12/5/1
f 15/6/4 16/5/4 14/1/4 13/2/4
f 20/8/3 19/4/3 17/2/3 18/6/3
f 24/8/6 22/7/6 21/3/6 23/4/6
f 27/8/4 28/6/4 26/2/4 25/4/4
f 31/8/1 29/4/1 30/3/1 32/7/1
f 36/6/3 35/2/3 33/1/3 34/5/3
f 40/7/6 38/5/6 37/1/6 39/3/6
f 43/6/1 41/2/1 42/3/1 44/7/1
f 47/8/3 45/4/3 41/2/3 43/6/3
f 47/7/4 48/6/4 46/2/4 45/3/4
f 48/8/6 44/6/6 42/2/6 46/4/6
f 51/7/1 49/3/1 50/1/1 52/5/1
f 55/6/4 56/5/4 54/1/4 53/2/4
f 60/8/3 59/4/3 57/2/3 58/6/3
f 64/8/6 62/7/6 61/3/6 63/4/6
f 67/8/1 65/4/1 66/2/1 68/6/1
f 71/8/4 72/7/4 70/3/4 69/4/4
f 76/8/3 75/4/3 73/3/3 74/7/3
f 80/8/6 78/6/6 77/2/6 79/4/6
f 83/6/1 81/2/1 82/3/1 84/7/1
f 87/8/3 85/4/3 81/1/3 83/5/3
f 87/7/4 88/6/4 86/2/4 85/3/4
f 88/8/6 84/5/6 82/1/6 86/4/6
f 91/7/1 89/3/1 90/1/1 92/5/1
f 95/6/4 96/5/4 94/1/4 93/2/4
f 100/8/3 99/4/3 97/2/3 98/6/3
f 104/8/6 102/7/6 101/3/6 103/4/6
f 107/8/1 105/4/1 106/1/1 108/5/1
f 111/8/4 112/7/4 110/3/4 109/4/4
f 119/8/3 117/4/3 113/3/3 115/7/3
f 120/8/6 116/7/6 114/3/6 118/4/6
f 123/6/4 124/5/4 122/1/4 121/2/4
f 127/8/4 128/6/4 126/2/4 125/4/4
f 131/8/1 129/4/1 130/3/1 132/7/1
f 136/6/3 135/2/3 133/1/3 134/5/3
f 140/7/6 138/5/6 137/1/6 139/3/6
f 143/7/1 141/3/1 142/1/1 144/5/1
f 147/6/4 148/5/4 146/1/4 145/2/4
f 152/8/3 151/4/3 149/2/3 150/6/3
f 156/8/6 154/7/6 153/3/6 155/4/6
f 159/7/1 157/3/1 158/1/1 160/5/1
f 163/6/3 161/2/3 157/3/3 159/7/3
f 163/7/4 164/5/4 162/1/4 161/3/4
f 164/7/6 160/6/6 158/2/6 162/3/6
f 167/8/1 165/4/1 166/1/1 168/5/1
f 171/8/4 172/7/4 170/3/4 169/4/4
f 179/8/3 177/4/3 173/3/3 175/7/3
f 180/8/6 176/7/6 174/3/6 178/4/6
f 183/6/4 184/5/4 182/1/4 181/2/4
f 187/8/4 188/6/4 186/2/4 185/4/4
f 191/8/1 189/4/1 190/3/1 192/7/1
f 196/6/3 195/2/3 193/1/3 194/5/3
f 200/7/6 198/5/6 197/1/6 199/3/6
f 203/8/4 204/6/4 202/2/4 201/4/4
f 207/8/1 205/4/1 206/3/1 208/7/1
f 212/6/3 211/2/3 209/1/3 210/5/3
f 216/7/6 214/5/6 213/1/6 215/3/6
f 219/7/1 217/3/1 218/1/1 220/5/1
f 223/6/3 221/2/3 217/3/3 219/7/3
f 223/7/4 224/5/4 222/1/4 221/3/4
f 224/7/6 220/6/6 218/2/6 222/3/6
f 227/8/1 225/4/1 226/2/1 228/6/1
f 231/6/3 229/2/3 225/3/3 227/7/3
f 231/8/4 232/6/4 230/2/4 229/4/4
f 232/7/6 228/6/6 226/2/6 230/3/6
f 235/6/1 233/2/1 234/1/1 236/5/1
f 239/6/4 240/5/4 238/1/4 237/2/4
f 244/6/6 242/5/6 241/1/6 243/2/6
f 248/8/6 246/7/6 245/3/6 247/4/6
f 252/8/3 251/4/3 249/1/3 250/5/3
f 255/6/1 253/2/1 254/3/1 256/7/1
f 259/8/3 257/4/3 253/2/3 255/6/3
f 259/7/4 260/6/4 258/2/4 257/3/4
f 260/8/6 256/6/6 254/2/6 258/4/6
f 263/8/4 264/6/4 262/2/4 261/4/4
f 267/8/1 265/4/1 266/3/1 268/7/1
f 272/6/3 271/2/3 269/1/3 270/5/3
f 276/7/6 274/5/6 273/1/6 275/3/6
f 279/6/1 277/2/1 278/3/1 280/7/1
f 283/8/3 281/4/3 277/2/3 279/6/3
f 283/7/4 284/6/4 282/2/4 281/3/4
f 284/8/6 280/6/6 278/2/6 282/4/6
f 287/8/4 288/6/4 286/2/4 285/4/4
f 291/8/1 289/4/1 290/3/1 292/7/1
f 296/6/3 295/2/3 293/1/3 294/5/3
f 300/7/6 298/5/6 297/1/6 299/3/6
f 303/6/1 301/2/1 302/3/1 304/7/1
f 307/7/3 305/3/3 301/1/3 303/5/3
f 307/7/4 308/6/4 306/2/4 305/3/4
f 308/7/6 304/5/6 302/1/6 306/3/6
f 311/7/1 309/3/1 310/1/1 312/5/1
f 315/6/3 313/2/3 309/3/3 311/7/3
f 315/7/4 316/5/4 314/1/4 313/3/4
f 316/7/6 312/6/6 310/2/6 314/3/6
f 319/8/4 320/6/4 318/2/4 317/4/4
f 323/8/1 321/4/1 322/3/1 324/7/1
f 328/6/3 327/2/3 325/1/3 326/5/3
f 332/7/6 330/5/6 329/1/6 331/3/6
f 335/6/1 333/2/1 334/3/1 336/7/1
f 339/8/3 337/4/3 333/2/3 335/6/3
f 339/7/4 340/6/4 338/2/4 337/3/4
f 340/8/6 336/6/6 334/2/6 338/4/6
f 343/7/1 341/3/1 342/1/1 344/5/1
f 347/6/4 348/5/4 346/1/4 345/2/4
f 352/8/3 351/4/3 349/2/3 350/6/3
f 356/8/6 354/7/6 353/3/6 355/4/6
f 359/8/4 360/6/4 358/2/4 357/4/4
f 363/8/1 361/4/1 362/3/1 364/7/1
f 368/6/3 367/2/3 365/1/3 366/5/3
f 372/7/6 370/5/6 369/1/6 371/3/6
f 375/6/1 373/2/1 374/3/1 376/7/1
f 379/7/3 377/3/3 373/1/3 375/5/3
f 379/7/4 380/6/4 378/2/4 377/3/4
f 380/7/6 376/5/6 374/1/6 378/3/6
f 382/4/1 383/8/1 384/5/1 381/1/1
f 382/5/2 381/1/2 386/4/2 385/8/2
f 381/4/3 384/8/3 387/5/3 386/1/3
f 385/1/4 386/4/4 387/8/4 388/5/4
f 383/1/5 388/4/5 387/8/5 384/5/5
f 382/1/6 385/4/6 388/8/6 383/5/6
f 386/4/1 387/8/1 392/5/1 389/1/1
f 386/5/2 389/1/2 390/4/2 391/8/2
f 389/4/3 392/8/3 393/5/3 390/1/3
f 391/1/4 390/4/4 393/8/4 394/5/4
f 387/1/5 394/4/5 393/8/5 392/5/5
f 386/1/6 391/4/6 394/8/6 387/5/6
