mtllib lighthouse.mtl
usemtl piston_side
v 2.0625 11.75 9
v 2.0625 11.75 9.125
v 2.0625 11.875 9
v 2.0625 11.875 9.125
v 2.9375 11.75 9
v 2.9375 11.75 9.125
v 2.9375 11.875 9
v 2.9375 11.875 9.125
v -3 9 1
v -3 9 2
v -2 9 1
v -3 10 1
v -2 10 1
v -2 9 2
v -3 10 2
v -2 10 2
v -1 12 1
v -1 11 1
v -1 11 2
v -1 12 2
v 0 11 1
v 0 12 1
v 0 11 2
v 0 12 2
v 1 17 2
v 1 17 1
v 1 18 1
v 1 18 2
v 2 17 2
v 2 17 1
v 2 18 1
v 2 18 2
vt 0.000000000 0.000000000
vt 1.000000000 0.000000000
vt 0.000000000 0.875000000
vt 0.062500000 0.875000000
vt 0.125000000 0.875000000
vt 0.875000000 0.875000000
vt 0.937500000 0.875000000
vt 1.000000000 0.875000000
vt 0.000000000 1.000000000
vt 0.062500000 1.000000000
vt 0.125000000 1.000000000
vt 0.875000000 1.000000000
vt 0.937500000 1.000000000
vt 1.000000000 1.000000000
vn -1 0 0
vn 0 -1 0
vn 0 0 -1
vn 1 0 0
vn 0 1 0
vn 0 0 1
f 3/9/1 1/3/1 2/5/1 4/11/1
f 2/10/2 1/4/2 5/7/2 6/13/2
f 7/10/3 5/4/3 1/7/3 3/13/3
f 7/14/4 8/12/4 6/6/4 5/8/4
f 7/13/5 3/10/5 4/4/5 8/7/5
f 8/13/6 4/10/6 2/4/6 6/7/6
f 10/1/2 9/2/2 11/14/2 14/9/2
f 9/1/3 12/2/3 13/14/3 11/9/3
f 15/2/5 16/14/5 13/9/5 12/1/5
f 10/2/6 14/14/6 16/9/6 15/1/6
f 19/9/1 20/1/1 17/2/1 18/14/1
f 18/9/3 17/1/3 22/2/3 21/14/3
f 23/14/4 21/9/4 22/1/4 24/2/4
f 19/14/6 23/9/6 24/1/6 20/2/6
f 25/14/2 26/9/2 30/1/2 29/2/2
f 26/14/3 27/9/3 31/1/3 30/2/3
f 28/9/5 32/1/5 31/2/5 27/14/5
f 25/9/6 29/1/6 32/2/6 28/14/6
