mtllib lighthouse.mtl
usemtl composter_side
v 2 11 -1
v 2 11 0
v 2 12 -1
v 2 12 0
v 3 11 -1
v 3 11 0
v 3 12 -1
v 3 12 0
v 2.875 11.125 -0.875
v 2.875 11.125 -0.125
v 2.875 12 -0.875
v 2.875 12 -0.125
v 2.125 11.125 -0.875
v 2.125 11.125 -0.125
v 2.125 12 -0.875
v 2.125 12 -0.125
v 2.125 11.125 -0.125
v 2.125 12 -0.125
v 2.875 11.125 -0.125
v 2.875 12 -0.125
v 2.125 11.125 -0.875
v 2.125 12 -0.875
v 2.875 11.125 -0.875
v 2.875 12 -0.875
vt 0.000000000 0.000000000
vt 1.000000000 0.000000000
vt 0.125000000 0.125000000
vt 0.875000000 0.125000000
vt 0.000000000 1.000000000
vt 0.125000000 1.000000000
vt 0.875000000 1.000000000
vt 1.000000000 1.000000000
vn -1 0 0
vn 0 0 -1
vn 1 0 0
vn 0 0 1
f 3/5/1 1/1/1 2/2/1 4/8/1
f 7/5/2 5/1/2 1/2/2 3/8/2
f 7/8/3 8/5/3 6/1/3 5/2/3
f 8/8/4 4/5/4 2/1/4 6/2/4
f 11/6/1 9/3/1 10/4/1 12/7/1
f 15/7/3 16/6/3 14/3/3 13/4/3
f 20/6/2 19/3/2 17/4/2 18/7/2
f 24/7/4 22/6/4 21/3/4 23/4/4
