mtllib lighthouse.mtl
usemtl redstone_torch_off
v -2.375 10.1948 -0.942257
v -2.375 10.2427 -1.05774
v -2.375 10.83 -0.679163
v -2.375 10.8778 -0.794647
v -2.625 10.1948 -0.942257
v -2.625 10.2427 -1.05774
v -2.625 10.83 -0.679163
v -2.625 10.8778 -0.794647
v -2.4375 10.1709 -0.884514
v -2.4375 10.2666 -1.11548
v -2.4375 10.8061 -0.62142
v -2.4375 10.9018 -0.85239
v -2.5625 10.1709 -0.884514
v -2.5625 10.2666 -1.11548
v -2.5625 10.8061 -0.62142
v -2.5625 10.9018 -0.85239
v -2.4375 10.2427 -1.05774
v -2.5625 10.2427 -1.05774
v -2.4375 10.8201 -0.818565
v -2.5625 10.8201 -0.818565
v -2.4375 10.1948 -0.942257
v -2.5625 10.1948 -0.942257
v -2.4375 10.7723 -0.703081
v -2.5625 10.7723 -0.703081
v -2.375 10.125 0.25
v -2.375 10.125 0.125
v -2.375 10.5 0.25
v -2.375 10.5 0.125
v -2.625 10.125 0.25
v -2.625 10.125 0.125
v -2.625 10.5 0.25
v -2.625 10.5 0.125
v -2.4375 10.125 0.3125
v -2.4375 10.125 0.0625
v -2.4375 10.5 0.3125
v -2.4375 10.5 0.0625
v -2.5625 10.125 0.3125
v -2.5625 10.125 0.0625
v -2.5625 10.5 0.3125
v -2.5625 10.5 0.0625
v -2.4375 10.125 0.125
v -2.5625 10.125 0.125
v -2.4375 10.4375 0.125
v -2.5625 10.4375 0.125
v -2.4375 10.125 0.25
v -2.5625 10.125 0.25
v -2.4375 10.4375 0.25
v -2.5625 10.4375 0.25
v -2.375 10.125 0.875
v -2.375 10.125 0.75
v -2.375 10.5 0.875
v -2.375 10.5 0.75
v -2.625 10.125 0.875
v -2.625 10.125 0.75
v -2.625 10.5 0.875
v -2.625 10.5 0.75
v -2.4375 10.125 0.9375
v -2.4375 10.125 0.6875
v -2.4375 10.5 0.9375
v -2.4375 10.5 0.6875
v -2.5625 10.125 0.9375
v -2.5625 10.125 0.6875
v -2.5625 10.5 0.9375
v -2.5625 10.5 0.6875
v -2.4375 10.125 0.75
v -2.5625 10.125 0.75
v -2.4375 10.4375 0.75
v -2.5625 10.4375 0.75
v -2.4375 10.125 0.875
v -2.5625 10.125 0.875
v -2.4375 10.4375 0.875
v -2.5625 10.4375 0.875
v -1.8125 10.125 0.6875
v -1.8125 10.125 0.8125
v -1.8125 10.5 0.6875
v -1.8125 10.5 0.8125
v -1.5625 10.125 0.6875
v -1.5625 10.125 0.8125
v -1.5625 10.5 0.6875
v -1.5625 10.5 0.8125
v -1.75 10.125 0.625
v -1.75 10.125 0.875
v -1.75 10.5 0.625
v -1.75 10.5 0.875
v -1.625 10.125 0.625
v -1.625 10.125 0.875
v -1.625 10.5 0.625
v -1.625 10.5 0.875
v -1.75 10.125 0.8125
v -1.625 10.125 0.8125
v -1.75 10.4375 0.8125
v -1.625 10.4375 0.8125
v -1.75 10.125 0.6875
v -1.625 10.125 0.6875
v -1.75 10.4375 0.6875
v -1.625 10.4375 0.6875
v -1.4375 10.125 0.6875
v -1.4375 10.125 0.8125
v -1.4375 10.5 0.6875
v -1.4375 10.5 0.8125
v -1.1875 10.125 0.6875
v -1.1875 10.125 0.8125
v -1.1875 10.5 0.6875
v -1.1875 10.5 0.8125
v -1.375 10.125 0.625
v -1.375 10.125 0.875
v -1.375 10.5 0.625
v -1.375 10.5 0.875
v -1.25 10.125 0.625
v -1.25 10.125 0.875
v -1.25 10.5 0.625
v -1.25 10.5 0.875
v -1.375 10.125 0.8125
v -1.25 10.125 0.8125
v -1.375 10.4375 0.8125
v -1.25 10.4375 0.8125
v -1.375 10.125 0.6875
v -1.25 10.125 0.6875
v -1.375 10.4375 0.6875
v -1.25 10.4375 0.6875
v -1.625 10.125 0.125
v -1.625 10.125 0.25
v -1.625 10.3125 0.125
v -1.625 10.3125 0.25
v -1.375 10.125 0.125
v -1.375 10.125 0.25
v -1.375 10.3125 0.125
v -1.375 10.3125 0.25
v -1.5625 10.125 0.0625
v -1.5625 10.125 0.3125
v -1.5625 10.3125 0.0625
v -1.5625 10.3125 0.3125
v -1.4375 10.125 0.0625
v -1.4375 10.125 0.3125
v -1.4375 10.3125 0.0625
v -1.4375 10.3125 0.3125
v -1.5625 10.125 0.25
v -1.4375 10.125 0.25
v -1.5625 10.25 0.25
v -1.4375 10.25 0.25
v -1.5625 10.125 0.125
v -1.4375 10.125 0.125
v -1.5625 10.25 0.125
v -1.4375 10.25 0.125
v -0.8125 10.125 -0.3125
v -0.8125 10.125 -0.1875
v -0.8125 10.5 -0.3125
v -0.8125 10.5 -0.1875
v -0.5625 10.125 -0.3125
v -0.5625 10.125 -0.1875
v -0.5625 10.5 -0.3125
v -0.5625 10.5 -0.1875
v -0.75 10.125 -0.375
v -0.75 10.125 -0.125
v -0.75 10.5 -0.375
v -0.75 10.5 -0.125
v -0.625 10.125 -0.375
v -0.625 10.125 -0.125
v -0.625 10.5 -0.375
v -0.625 10.5 -0.125
v -0.75 10.125 -0.1875
v -0.625 10.125 -0.1875
v -0.75 10.4375 -0.1875
v -0.625 10.4375 -0.1875
v -0.75 10.125 -0.3125
v -0.625 10.125 -0.3125
v -0.75 10.4375 -0.3125
v -0.625 10.4375 -0.3125
v -0.4375 10.125 -0.3125
v -0.4375 10.125 -0.1875
v -0.4375 10.5 -0.3125
v -0.4375 10.5 -0.1875
v -0.1875 10.125 -0.3125
v -0.1875 10.125 -0.1875
v -0.1875 10.5 -0.3125
v -0.1875 10.5 -0.1875
v -0.375 10.125 -0.375
v -0.375 10.125 -0.125
v -0.375 10.5 -0.375
v -0.375 10.5 -0.125
v -0.25 10.125 -0.375
v -0.25 10.125 -0.125
v -0.25 10.5 -0.375
v -0.25 10.5 -0.125
v -0.375 10.125 -0.1875
v -0.25 10.125 -0.1875
v -0.375 10.4375 -0.1875
v -0.25 10.4375 -0.1875
v -0.375 10.125 -0.3125
v -0.25 10.125 -0.3125
v -0.375 10.4375 -0.3125
v -0.25 10.4375 -0.3125
v -0.625 10.125 -0.875
v -0.625 10.125 -0.75
v -0.625 10.3125 -0.875
v -0.625 10.3125 -0.75
v -0.375 10.125 -0.875
v -0.375 10.125 -0.75
v -0.375 10.3125 -0.875
v -0.375 10.3125 -0.75
v -0.5625 10.125 -0.9375
v -0.5625 10.125 -0.6875
v -0.5625 10.3125 -0.9375
v -0.5625 10.3125 -0.6875
v -0.4375 10.125 -0.9375
v -0.4375 10.125 -0.6875
v -0.4375 10.3125 -0.9375
v -0.4375 10.3125 -0.6875
v -0.5625 10.125 -0.75
v -0.4375 10.125 -0.75
v -0.5625 10.25 -0.75
v -0.4375 10.25 -0.75
v -0.5625 10.125 -0.875
v -0.4375 10.125 -0.875
v -0.5625 10.25 -0.875
v -0.4375 10.25 -0.875
v -0.375 12.1948 -0.942259
v -0.375 12.2427 -1.05774
v -0.375 12.83 -0.679163
v -0.375 12.8778 -0.794647
v -0.625 12.1948 -0.942259
v -0.625 12.2427 -1.05774
v -0.625 12.83 -0.679163
v -0.625 12.8778 -0.794647
v -0.4375 12.1709 -0.884516
v -0.4375 12.2666 -1.11549
v -0.4375 12.8061 -0.62142
v -0.4375 12.9018 -0.85239
v -0.5625 12.1709 -0.884516
v -0.5625 12.2666 -1.11549
v -0.5625 12.8061 -0.62142
v -0.5625 12.9018 -0.85239
v -0.4375 12.2427 -1.05774
v -0.5625 12.2427 -1.05774
v -0.4375 12.8201 -0.818565
v -0.5625 12.8201 -0.818565
v -0.4375 12.1948 -0.942259
v -0.5625 12.1948 -0.942259
v -0.4375 12.7723 -0.703081
v -0.5625 12.7723 -0.703081
v 0.375 11.125 0.375
v 0.375 11.125 0.5
v 0.375 11.5 0.375
v 0.375 11.5 0.5
v 0.625 11.125 0.375
v 0.625 11.125 0.5
v 0.625 11.5 0.375
v 0.625 11.5 0.5
v 0.4375 11.125 0.3125
v 0.4375 11.125 0.5625
v 0.4375 11.5 0.3125
v 0.4375 11.5 0.5625
v 0.5625 11.125 0.3125
v 0.5625 11.125 0.5625
v 0.5625 11.5 0.3125
v 0.5625 11.5 0.5625
v 0.4375 11.125 0.5
v 0.5625 11.125 0.5
v 0.4375 11.4375 0.5
v 0.5625 11.4375 0.5
v 0.4375 11.125 0.375
v 0.5625 11.125 0.375
v 0.4375 11.4375 0.375
v 0.5625 11.4375 0.375
v 0.375 11.125 0.125
v 0.375 11.125 0.25
v 0.375 11.5 0.125
v 0.375 11.5 0.25
v 0.625 11.125 0.125
v 0.625 11.125 0.25
v 0.625 11.5 0.125
v 0.625 11.5 0.25
v 0.4375 11.125 0.0625
v 0.4375 11.125 0.3125
v 0.4375 11.5 0.0625
v 0.4375 11.5 0.3125
v 0.5625 11.125 0.0625
v 0.5625 11.125 0.3125
v 0.5625 11.5 0.0625
v 0.5625 11.5 0.3125
v 0.4375 11.125 0.25
v 0.5625 11.125 0.25
v 0.4375 11.4375 0.25
v 0.5625 11.4375 0.25
v 0.4375 11.125 0.125
v 0.5625 11.125 0.125
v 0.4375 11.4375 0.125
v 0.5625 11.4375 0.125
v 0.375 11.125 1.375
v 0.375 11.125 1.5
v 0.375 11.5 1.375
v 0.375 11.5 1.5
v 0.625 11.125 1.375
v 0.625 11.125 1.5
v 0.625 11.5 1.375
v 0.625 11.5 1.5
v 0.4375 11.125 1.3125
v 0.4375 11.125 1.5625
v 0.4375 11.5 1.3125
v 0.4375 11.5 1.5625
v 0.5625 11.125 1.3125
v 0.5625 11.125 1.5625
v 0.5625 11.5 1.3125
v 0.5625 11.5 1.5625
v 0.4375 11.125 1.5
v 0.5625 11.125 1.5
v 0.4375 11.4375 1.5
v 0.5625 11.4375 1.5
v 0.4375 11.125 1.375
v 0.5625 11.125 1.375
v 0.4375 11.4375 1.375
v 0.5625 11.4375 1.375
v 0.375 11.125 1.125
v 0.375 11.125 1.25
v 0.375 11.5 1.125
v 0.375 11.5 1.25
v 0.625 11.125 1.125
v 0.625 11.125 1.25
v 0.625 11.5 1.125
v 0.625 11.5 1.25
v 0.4375 11.125 1.0625
v 0.4375 11.125 1.3125
v 0.4375 11.5 1.0625
v 0.4375 11.5 1.3125
v 0.5625 11.125 1.0625
v 0.5625 11.125 1.3125
v 0.5625 11.5 1.0625
v 0.5625 11.5 1.3125
v 0.4375 11.125 1.25
v 0.5625 11.125 1.25
v 0.4375 11.4375 1.25
v 0.5625 11.4375 1.25
v 0.4375 11.125 1.125
v 0.5625 11.125 1.125
v 0.4375 11.4375 1.125
v 0.5625 11.4375 1.125
v 1.375 11 -1.5625
v 1.375 11 -1.4375
v 1.375 11.6875 -1.5625
v 1.375 11.6875 -1.4375
v 1.625 11 -1.5625
v 1.625 11 -1.4375
v 1.625 11.6875 -1.5625
v 1.625 11.6875 -1.4375
v 1.4375 11 -1.625
v 1.4375 11 -1.375
v 1.4375 11.6875 -1.625
v 1.4375 11.6875 -1.375
v 1.5625 11 -1.625
v 1.5625 11 -1.375
v 1.5625 11.6875 -1.625
v 1.5625 11.6875 -1.375
v 1.4375 11 -1.4375
v 1.5625 11 -1.4375
v 1.4375 11.625 -1.4375
v 1.5625 11.625 -1.4375
v 1.4375 11 -1.5625
v 1.5625 11 -1.5625
v 1.4375 11.625 -1.5625
v 1.5625 11.625 -1.5625
v 1.375 10.125 -0.875
v 1.375 10.125 -0.75
v 1.375 10.3125 -0.875
v 1.375 10.3125 -0.75
v 1.625 10.125 -0.875
v 1.625 10.125 -0.75
v 1.625 10.3125 -0.875
v 1.625 10.3125 -0.75
v 1.4375 10.125 -0.9375
v 1.4375 10.125 -0.6875
v 1.4375 10.3125 -0.9375
v 1.4375 10.3125 -0.6875
v 1.5625 10.125 -0.9375
v 1.5625 10.125 -0.6875
v 1.5625 10.3125 -0.9375
v 1.5625 10.3125 -0.6875
v 1.4375 10.125 -0.75
v 1.5625 10.125 -0.75
v 1.4375 10.25 -0.75
v 1.5625 10.25 -0.75
v 1.4375 10.125 -0.875
v 1.5625 10.125 -0.875
v 1.4375 10.25 -0.875
v 1.5625 10.25 -0.875
v 2.375 14 -1.5625
v 2.375 14 -1.4375
v 2.375 14.6875 -1.5625
v 2.375 14.6875 -1.4375
v 2.625 14 -1.5625
v 2.625 14 -1.4375
v 2.625 14.6875 -1.5625
v 2.625 14.6875 -1.4375
v 2.4375 14 -1.625
v 2.4375 14 -1.375
v 2.4375 14.6875 -1.625
v 2.4375 14.6875 -1.375
v 2.5625 14 -1.625
v 2.5625 14 -1.375
v 2.5625 14.6875 -1.625
v 2.5625 14.6875 -1.375
v 2.4375 14 -1.4375
v 2.5625 14 -1.4375
v 2.4375 14.625 -1.4375
v 2.5625 14.625 -1.4375
v 2.4375 14 -1.5625
v 2.5625 14 -1.5625
v 2.4375 14.625 -1.5625
v 2.5625 14.625 -1.5625
vt 0.375000000 0.000000000
vt 0.625000000 0.000000000
vt 0.437500000 0.187500000
vt 0.562500000 0.187500000
vt 0.375000000 0.312500000
vt 0.437500000 0.312500000
vt 0.562500000 0.312500000
vt 0.625000000 0.312500000
vt 0.375000000 0.500000000
vt 0.437500000 0.500000000
vt 0.562500000 0.500000000
vt 0.625000000 0.500000000
vt 0.437500000 0.625000000
vt 0.562500000 0.625000000
vt 0.375000000 0.687500000
vt 0.625000000 0.687500000
vn -1 0 0
vn 0 -1 0
vn 0 0 -1
vn 1 0 0
vn 0 1 0
vn 0 0 1
vn 0 0.9177 0.397273
vn 0 -0.9177 -0.397273
vn 0 -0.382682 0.92388
vn 0 0.382682 -0.92388
f 3/16/9 7/15/9 5/1/9 1/2/9
f 4/15/10 2/1/10 6/2/10 8/16/10
f 12/16/4 11/15/4 9/1/4 10/2/4
f 16/15/1 14/1/1 13/2/1 15/16/1
f 23/14/7 19/13/7 20/10/7 24/11/7
f 18/6/8 17/3/8 21/4/8 22/7/8
f 27/16/6 31/15/6 29/5/6 25/8/6
f 28/15/3 26/5/3 30/8/3 32/16/3
f 36/16/4 35/15/4 33/5/4 34/8/4
f 40/15/1 38/5/1 37/8/1 39/16/1
f 47/14/5 43/13/5 44/10/5 48/11/5
f 42/6/2 41/3/2 45/4/2 46/7/2
f 51/16/6 55/15/6 53/5/6 49/8/6
f 52/15/3 50/5/3 54/8/3 56/16/3
f 60/16/4 59/15/4 57/5/4 58/8/4
f 64/15/1 62/5/1 61/8/1 63/16/1
f 71/14/5 67/13/5 68/10/5 72/11/5
f 66/6/2 65/3/2 69/4/2 70/7/2
f 79/15/3 77/5/3 73/8/3 75/16/3
f 80/16/6 76/15/6 74/5/6 78/8/6
f 83/15/1 81/5/1 82/8/1 84/16/1
f 87/16/4 88/15/4 86/5/4 85/8/4
f 95/14/5 91/13/5 92/10/5 96/11/5
f 90/6/2 89/3/2 93/4/2 94/7/2
f 103/15/3 101/5/3 97/8/3 99/16/3
f 104/16/6 100/15/6 98/5/6 102/8/6
f 107/15/1 105/5/1 106/8/1 108/16/1
f 111/16/4 112/15/4 110/5/4 109/8/4
f 119/14/5 115/13/5 116/10/5 120/11/5
f 114/6/2 113/3/2 117/4/2 118/7/2
f 127/15/3 125/9/3 121/12/3 123/16/3
f 128/16/6 124/15/6 122/9/6 126/12/6
f 131/15/1 129/9/1 130/12/1 132/16/1
f 135/16/4 136/15/4 134/9/4 133/12/4
f 143/14/5 139/13/5 140/10/5 144/11/5
f 138/6/2 137/3/2 141/4/2 142/7/2
f 151/15/3 149/5/3 145/8/3 147/16/3
f 152/16/6 148/15/6 146/5/6 150/8/6
f 155/15/1 153/5/1 154/8/1 156/16/1
f 159/16/4 160/15/4 158/5/4 157/8/4
f 167/14/5 163/13/5 164/10/5 168/11/5
f 162/6/2 161/3/2 165/4/2 166/7/2
f 175/15/3 173/5/3 169/8/3 171/16/3
f 176/16/6 172/15/6 170/5/6 174/8/6
f 179/15/1 177/5/1 178/8/1 180/16/1
f 183/16/4 184/15/4 182/5/4 181/8/4
f 191/14/5 187/13/5 188/10/5 192/11/5
f 186/6/2 185/3/2 189/4/2 190/7/2
f 199/15/3 197/9/3 193/12/3 195/16/3
f 200/16/6 196/15/6 194/9/6 198/12/6
f 203/15/1 201/9/1 202/12/1 204/16/1
f 207/16/4 208/15/4 206/9/4 205/12/4
f 215/14/5 211/13/5 212/10/5 216/11/5
f 210/6/2 209/3/2 213/4/2 214/7/2
f 219/16/9 223/15/9 221/1/9 217/2/9
f 220/15/10 218/1/10 222/2/10 224/16/10
f 228/16/4 227/15/4 225/1/4 226/2/4
f 232/15/1 230/1/1 229/2/1 231/16/1
f 239/14/7 235/13/7 236/10/7 240/11/7
f 234/6/8 233/3/8 237/4/8 238/7/8
f 247/15/3 245/5/3 241/8/3 243/16/3
f 248/16/6 244/15/6 242/5/6 246/8/6
f 251/15/1 249/5/1 250/8/1 252/16/1
f 255/16/4 256/15/4 254/5/4 253/8/4
f 263/14/5 259/13/5 260/10/5 264/11/5
f 258/6/2 257/3/2 261/4/2 262/7/2
f 271/15/3 269/5/3 265/8/3 267/16/3
f 272/16/6 268/15/6 266/5/6 270/8/6
f 275/15/1 273/5/1 274/8/1 276/16/1
f 279/16/4 280/15/4 278/5/4 277/8/4
f 287/14/5 283/13/5 284/10/5 288/11/5
f 282/6/2 281/3/2 285/4/2 286/7/2
f 295/15/3 293/5/3 289/8/3 291/16/3
f 296/16/6 292/15/6 290/5/6 294/8/6
f 299/15/1 297/5/1 298/8/1 300/16/1
f 303/16/4 304/15/4 302/5/4 301/8/4
f 311/14/5 307/13/5 308/10/5 312/11/5
f 306/6/2 305/3/2 309/4/2 310/7/2
f 319/15/3 317/5/3 313/8/3 315/16/3
f 320/16/6 316/15/6 314/5/6 318/8/6
f 323/15/1 321/5/1 322/8/1 324/16/1
f 327/16/4 328/15/4 326/5/4 325/8/4
f 335/14/5 331/13/5 332/10/5 336/11/5
f 330/6/2 329/3/2 333/4/2 334/7/2
f 343/15/3 341/1/3 337/2/3 339/16/3
f 344/16/6 340/15/6 338/1/6 342/2/6
f 347/15/1 345/1/1 346/2/1 348/16/1
f 351/16/4 352/15/4 350/1/4 349/2/4
f 359/14/5 355/13/5 356/10/5 360/11/5
f 354/6/2 353/3/2 357/4/2 358/7/2
f 367/15/3 365/9/3 361/12/3 363/16/3
f 368/16/6 364/15/6 362/9/6 366/12/6
f 371/15/1 369/9/1 370/12/1 372/16/1
f 375/16/4 376/15/4 374/9/4 373/12/4
f 383/14/5 379/13/5 380/10/5 384/11/5
f 378/6/2 377/3/2 381/4/2 382/7/2
f 391/15/3 389/1/3 385/2/3 387/16/3
f 392/16/6 388/15/6 386/1/6 390/2/6
f 395/15/1 393/1/1 394/2/1 396/16/1
f 399/16/4 400/15/4 398/1/4 397/2/4
f 407/14/5 403/13/5 404/10/5 408/11/5
f 402/6/2 401/3/2 405/4/2 406/7/2
