mtllib lighthouse.mtl
usemtl polished_tuff
v -4 39 1
v -4 39 0
v -4 39 3
v -4 39 2
v -4 18 0
v -3 18 -1
v -3 18 0
v -4 19 0
v -3 19 -1
v -3 19 0
v -4 18 1
v -3 18 1
v -4 19 1
v -3 19 1
v -4 38 0
v -4 38 1
v -3 38 1
v -3 38 0
v -3 39 0
v -3 39 1
v -4 18 2
v -3 18 2
v -4 19 2
v -3 19 2
v -4 38 2
v -3 38 2
v -3 39 2
v -4 18 3
v -3 18 3
v -4 19 3
v -3 19 3
v -4 38 3
v -3 38 3
v -3 39 3
v -3 18 4
v -3 19 4
v -3 18 -2
v -2 18 -2
v -2 18 -1
v -3 19 -2
v -2 19 -2
v -2 19 -1
v -3 38 -1
v -3 39 -1
v -2 38 0
v -2 38 -1
v -2 39 -1
v -2 39 0
v -2 38 3
v -2 39 3
v -2 18 4
v -2 19 4
v -3 38 4
v -3 39 4
v -2 38 4
v -2 39 4
v -3 18 5
v -2 18 5
v -3 19 5
v -2 19 5
v -1 18 -3
v -1 18 -2
v -1 19 -3
v -1 19 -2
v -2 38 -2
v -2 39 -2
v -1 38 -1
v -1 38 -2
v -1 39 -2
v -1 39 -1
v -1 38 4
v -1 39 4
v -1 18 5
v -1 19 5
v -2 38 5
v -2 39 5
v -1 38 5
v -1 39 5
v -1 18 6
v -1 19 6
v -1 39 -3
v 0 39 -3
v 0 18 -3
v 0 18 -2
v 0 19 -3
v 0 19 -2
v -1 38 -3
v 0 38 -2
v 0 38 -3
v 0 39 -2
v 0 18 5
v 0 19 5
v 0 38 5
v 0 39 5
v 0 18 6
v 0 19 6
v -1 38 6
v -1 39 6
v 0 38 6
v 0 39 6
v 1 18 -3
v 1 18 -2
v 1 19 -3
v 1 19 -2
v 1 38 -2
v 1 38 -3
v 1 39 -3
v 1 39 -2
v 1 18 5
v 1 19 5
v 1 38 5
v 1 39 5
v 1 18 6
v 1 19 6
v 1 38 6
v 1 39 6
v 2 39 -3
v 2 18 -3
v 2 18 -2
v 2 19 -3
v 2 19 -2
v 2 38 -2
v 2 38 -3
v 2 39 -2
v 2 38 -1
v 2 39 -1
v 2 18 5
v 2 19 5
v 2 38 4
v 2 38 5
v 2 39 4
v 2 39 5
v 2 18 6
v 2 19 6
v 2 38 6
v 2 39 6
v 3 18 -2
v 3 19 -2
v 3 18 -1
v 3 19 -1
v 3 38 -1
v 3 38 -2
v 3 39 -2
v 3 39 -1
v 3 38 0
v 3 39 0
v 3 18 4
v 3 19 4
v 3 38 3
v 3 38 4
v 3 39 3
v 3 39 4
v 3 18 5
v 3 19 5
v 3 38 5
v 3 39 5
v 4 18 -2
v 4 18 -1
v 4 19 -2
v 4 19 -1
v 4 18 0
v 4 19 0
v 4 38 0
v 4 38 -1
v 4 39 -1
v 4 39 0
v 4 18 1
v 4 19 1
v 4 38 1
v 4 39 1
v 4 18 2
v 4 19 2
v 4 38 2
v 4 39 2
v 4 18 3
v 4 19 3
v 4 38 3
v 4 39 3
v 4 18 4
v 4 19 4
v 4 38 4
v 4 39 4
v 4 18 5
v 4 19 5
v 5 18 0
v 5 19 0
v 5 18 1
v 5 19 1
v 5 38 1
v 5 38 0
v 5 39 0
v 5 39 1
v 5 18 2
v 5 19 2
v 5 38 2
v 5 39 2
v 5 18 3
v 5 19 3
v 5 38 3
v 5 39 3
vt 0.000000000 0.000000000
vt 1.000000000 0.000000000
vt 0.000000000 1.000000000
vt 1.000000000 1.000000000
vn -1 0 0
vn 0 -1 0
vn 0 0 -1
vn 1 0 0
vn 0 1 0
vn 0 0 1
f 11/2/1 13/4/1 8/3/1 5/1/1
f 11/3/2 5/1/2 7/2/2 12/4/2
f 5/2/3 8/4/3 10/3/3 7/1/3
f 12/1/4 7/2/4 10/4/4 14/3/4
f 13/1/5 14/2/5 10/4/5 8/3/5
f 11/1/6 12/2/6 14/4/6 13/3/6
f 16/2/1 1/4/1 2/3/1 15/1/1
f 16/3/2 15/1/2 18/2/2 17/4/2
f 15/2/3 2/4/3 19/3/3 18/1/3
f 17/1/4 18/2/4 19/4/4 20/3/4
f 1/1/5 20/2/5 19/4/5 2/3/5
f 16/1/6 17/2/6 20/4/6 1/3/6
f 21/2/1 23/4/1 13/3/1 11/1/1
f 21/3/2 11/1/2 12/2/2 22/4/2
f 11/2/3 13/4/3 14/3/3 12/1/3
f 22/1/4 12/2/4 14/4/4 24/3/4
f 23/1/5 24/2/5 14/4/5 13/3/5
f 21/1/6 22/2/6 24/4/6 23/3/6
f 25/2/1 4/4/1 1/3/1 16/1/1
f 25/3/2 16/1/2 17/2/2 26/4/2
f 16/2/3 1/4/3 20/3/3 17/1/3
f 26/1/4 17/2/4 20/4/4 27/3/4
f 4/1/5 27/2/5 20/4/5 1/3/5
f 25/1/6 26/2/6 27/4/6 4/3/6
f 28/2/1 30/4/1 23/3/1 21/1/1
f 28/3/2 21/1/2 22/2/2 29/4/2
f 21/2/3 23/4/3 24/3/3 22/1/3
f 29/1/4 22/2/4 24/4/4 31/3/4
f 30/1/5 31/2/5 24/4/5 23/3/5
f 28/1/6 29/2/6 31/4/6 30/3/6
f 32/2/1 3/4/1 4/3/1 25/1/1
f 32/3/2 25/1/2 26/2/2 33/4/2
f 25/2/3 4/4/3 27/3/3 26/1/3
f 33/1/4 26/2/4 27/4/4 34/3/4
f 3/1/5 34/2/5 27/4/5 4/3/5
f 32/1/6 33/2/6 34/4/6 3/3/6
f 6/2/1 9/4/1 40/3/1 37/1/1
f 6/3/2 37/1/2 38/2/2 39/4/2
f 37/2/3 40/4/3 41/3/3 38/1/3
f 39/1/4 38/2/4 41/4/4 42/3/4
f 9/1/5 42/2/5 41/4/5 40/3/5
f 6/1/6 39/2/6 42/4/6 9/3/6
f 18/2/1 19/4/1 44/3/1 43/1/1
f 18/3/2 43/1/2 46/2/2 45/4/2
f 43/2/3 44/4/3 47/3/3 46/1/3
f 45/1/4 46/2/4 47/4/4 48/3/4
f 19/1/5 48/2/5 47/4/5 44/3/5
f 18/1/6 45/2/6 48/4/6 19/3/6
f 53/2/1 54/4/1 34/3/1 33/1/1
f 53/3/2 33/1/2 49/2/2 55/4/2
f 33/2/3 34/4/3 50/3/3 49/1/3
f 55/1/4 49/2/4 50/4/4 56/3/4
f 54/1/5 56/2/5 50/4/5 34/3/5
f 53/1/6 55/2/6 56/4/6 54/3/6
f 57/2/1 59/4/1 36/3/1 35/1/1
f 57/3/2 35/1/2 51/2/2 58/4/2
f 35/2/3 36/4/3 52/3/3 51/1/3
f 58/1/4 51/2/4 52/4/4 60/3/4
f 59/1/5 60/2/5 52/4/5 36/3/5
f 57/1/6 58/2/6 60/4/6 59/3/6
f 46/2/1 47/4/1 66/3/1 65/1/1
f 46/3/2 65/1/2 68/2/2 67/4/2
f 65/2/3 66/4/3 69/3/3 68/1/3
f 67/1/4 68/2/4 69/4/4 70/3/4
f 47/1/5 70/2/5 69/4/5 66/3/5
f 46/1/6 67/2/6 70/4/6 47/3/6
f 75/2/1 76/4/1 56/3/1 55/1/1
f 75/3/2 55/1/2 71/2/2 77/4/2
f 55/2/3 56/4/3 72/3/3 71/1/3
f 77/1/4 71/2/4 72/4/4 78/3/4
f 76/1/5 78/2/5 72/4/5 56/3/5
f 75/1/6 77/2/6 78/4/6 76/3/6
f 62/2/1 64/4/1 63/3/1 61/1/1
f 62/3/2 61/1/2 83/2/2 84/4/2
f 61/2/3 63/4/3 85/3/3 83/1/3
f 84/1/4 83/2/4 85/4/4 86/3/4
f 64/1/5 86/2/5 85/4/5 63/3/5
f 62/1/6 84/2/6 86/4/6 64/3/6
f 68/2/1 69/4/1 81/3/1 87/1/1
f 68/3/2 87/1/2 89/2/2 88/4/2
f 87/2/3 81/4/3 82/3/3 89/1/3
f 88/1/4 89/2/4 82/4/4 90/3/4
f 69/1/5 90/2/5 82/4/5 81/3/5
f 68/1/6 88/2/6 90/4/6 69/3/6
f 79/2/1 80/4/1 74/3/1 73/1/1
f 79/3/2 73/1/2 91/2/2 95/4/2
f 73/2/3 74/4/3 92/3/3 91/1/3
f 95/1/4 91/2/4 92/4/4 96/3/4
f 80/1/5 96/2/5 92/4/5 74/3/5
f 79/1/6 95/2/6 96/4/6 80/3/6
f 97/2/1 98/4/1 78/3/1 77/1/1
f 97/3/2 77/1/2 93/2/2 99/4/2
f 77/2/3 78/4/3 94/3/3 93/1/3
f 99/1/4 93/2/4 94/4/4 100/3/4
f 98/1/5 100/2/5 94/4/5 78/3/5
f 97/1/6 99/2/6 100/4/6 98/3/6
f 84/2/1 86/4/1 85/3/1 83/1/1
f 84/3/2 83/1/2 101/2/2 102/4/2
f 83/2/3 85/4/3 103/3/3 101/1/3
f 102/1/4 101/2/4 103/4/4 104/3/4
f 86/1/5 104/2/5 103/4/5 85/3/5
f 84/1/6 102/2/6 104/4/6 86/3/6
f 88/2/1 90/4/1 82/3/1 89/1/1
f 88/3/2 89/1/2 106/2/2 105/4/2
f 89/2/3 82/4/3 107/3/3 106/1/3
f 105/1/4 106/2/4 107/4/4 108/3/4
f 90/1/5 108/2/5 107/4/5 82/3/5
f 88/1/6 105/2/6 108/4/6 90/3/6
f 95/2/1 96/4/1 92/3/1 91/1/1
f 95/3/2 91/1/2 109/2/2 113/4/2
f 91/2/3 92/4/3 110/3/3 109/1/3
f 113/1/4 109/2/4 110/4/4 114/3/4
f 96/1/5 114/2/5 110/4/5 92/3/5
f 95/1/6 113/2/6 114/4/6 96/3/6
f 99/2/1 100/4/1 94/3/1 93/1/1
f 99/3/2 93/1/2 111/2/2 115/4/2
f 93/2/3 94/4/3 112/3/3 111/1/3
f 115/1/4 111/2/4 112/4/4 116/3/4
f 100/1/5 116/2/5 112/4/5 94/3/5
f 99/1/6 115/2/6 116/4/6 100/3/6
f 102/2/1 104/4/1 103/3/1 101/1/1
f 102/3/2 101/1/2 118/2/2 119/4/2
f 101/2/3 103/4/3 120/3/3 118/1/3
f 119/1/4 118/2/4 120/4/4 121/3/4
f 104/1/5 121/2/5 120/4/5 103/3/5
f 102/1/6 119/2/6 121/4/6 104/3/6
f 105/2/1 108/4/1 107/3/1 106/1/1
f 105/3/2 106/1/2 123/2/2 122/4/2
f 106/2/3 107/4/3 117/3/3 123/1/3
f 122/1/4 123/2/4 117/4/4 124/3/4
f 108/1/5 124/2/5 117/4/5 107/3/5
f 105/1/6 122/2/6 124/4/6 108/3/6
f 113/2/1 114/4/1 110/3/1 109/1/1
f 113/3/2 109/1/2 127/2/2 133/4/2
f 109/2/3 110/4/3 128/3/3 127/1/3
f 133/1/4 127/2/4 128/4/4 134/3/4
f 114/1/5 134/2/5 128/4/5 110/3/5
f 113/1/6 133/2/6 134/4/6 114/3/6
f 115/2/1 116/4/1 112/3/1 111/1/1
f 115/3/2 111/1/2 130/2/2 135/4/2
f 111/2/3 112/4/3 132/3/3 130/1/3
f 135/1/4 130/2/4 132/4/4 136/3/4
f 116/1/5 136/2/5 132/4/5 112/3/5
f 115/1/6 135/2/6 136/4/6 116/3/6
f 125/2/1 126/4/1 124/3/1 122/1/1
f 125/3/2 122/1/2 142/2/2 141/4/2
f 122/2/3 124/4/3 143/3/3 142/1/3
f 141/1/4 142/2/4 143/4/4 144/3/4
f 126/1/5 144/2/5 143/4/5 124/3/5
f 125/1/6 141/2/6 144/4/6 126/3/6
f 130/2/1 132/4/1 131/3/1 129/1/1
f 130/3/2 129/1/2 150/2/2 155/4/2
f 129/2/3 131/4/3 152/3/3 150/1/3
f 155/1/4 150/2/4 152/4/4 156/3/4
f 132/1/5 156/2/5 152/4/5 131/3/5
f 130/1/6 155/2/6 156/4/6 132/3/6
f 139/2/1 140/4/1 138/3/1 137/1/1
f 139/3/2 137/1/2 157/2/2 158/4/2
f 137/2/3 138/4/3 159/3/3 157/1/3
f 158/1/4 157/2/4 159/4/4 160/3/4
f 140/1/5 160/2/5 159/4/5 138/3/5
f 139/1/6 158/2/6 160/4/6 140/3/6
f 145/2/1 146/4/1 144/3/1 141/1/1
f 145/3/2 141/1/2 164/2/2 163/4/2
f 141/2/3 144/4/3 165/3/3 164/1/3
f 163/1/4 164/2/4 165/4/4 166/3/4
f 146/1/5 166/2/5 165/4/5 144/3/5
f 145/1/6 163/2/6 166/4/6 146/3/6
f 150/2/1 152/4/1 151/3/1 149/1/1
f 150/3/2 149/1/2 177/2/2 181/4/2
f 149/2/3 151/4/3 178/3/3 177/1/3
f 181/1/4 177/2/4 178/4/4 182/3/4
f 152/1/5 182/2/5 178/4/5 151/3/5
f 150/1/6 181/2/6 182/4/6 152/3/6
f 153/2/1 154/4/1 148/3/1 147/1/1
f 153/3/2 147/1/2 179/2/2 183/4/2
f 147/2/3 148/4/3 180/3/3 179/1/3
f 183/1/4 179/2/4 180/4/4 184/3/4
f 154/1/5 184/2/5 180/4/5 148/3/5
f 153/1/6 183/2/6 184/4/6 154/3/6
f 167/2/1 168/4/1 162/3/1 161/1/1
f 167/3/2 161/1/2 185/2/2 187/4/2
f 161/2/3 162/4/3 186/3/3 185/1/3
f 187/1/4 185/2/4 186/4/4 188/3/4
f 168/1/5 188/2/5 186/4/5 162/3/5
f 167/1/6 187/2/6 188/4/6 168/3/6
f 169/2/1 170/4/1 166/3/1 163/1/1
f 169/3/2 163/1/2 190/2/2 189/4/2
f 163/2/3 166/4/3 191/3/3 190/1/3
f 189/1/4 190/2/4 191/4/4 192/3/4
f 170/1/5 192/2/5 191/4/5 166/3/5
f 169/1/6 189/2/6 192/4/6 170/3/6
f 171/2/1 172/4/1 168/3/1 167/1/1
f 171/3/2 167/1/2 187/2/2 193/4/2
f 167/2/3 168/4/3 188/3/3 187/1/3
f 193/1/4 187/2/4 188/4/4 194/3/4
f 172/1/5 194/2/5 188/4/5 168/3/5
f 171/1/6 193/2/6 194/4/6 172/3/6
f 173/2/1 174/4/1 170/3/1 169/1/1
f 173/3/2 169/1/2 189/2/2 195/4/2
f 169/2/3 170/4/3 192/3/3 189/1/3
f 195/1/4 189/2/4 192/4/4 196/3/4
f 174/1/5 196/2/5 192/4/5 170/3/5
f 173/1/6 195/2/6 196/4/6 174/3/6
f 175/2/1 176/4/1 172/3/1 171/1/1
f 175/3/2 171/1/2 193/2/2 197/4/2
f 171/2/3 172/4/3 194/3/3 193/1/3
f 197/1/4 193/2/4 194/4/4 198/3/4
f 176/1/5 198/2/5 194/4/5 172/3/5
f 175/1/6 197/2/6 198/4/6 176/3/6
f 177/2/1 178/4/1 174/3/1 173/1/1
f 177/3/2 173/1/2 195/2/2 199/4/2
f 173/2/3 174/4/3 196/3/3 195/1/3
f 199/1/4 195/2/4 196/4/4 200/3/4
f 178/1/5 200/2/5 196/4/5 174/3/5
f 177/1/6 199/2/6 200/4/6 178/3/6
