mtllib lighthouse.mtl
usemtl fire_coral_fan
v 1 1.45 -12
v 1 1.45 -11
v 1.916 1.9 -11
v 1.916 1.9 -12
v 1 1.55 -12
v 1 1.55 -11
v 1.916 1.1 -11
v 1.916 1.1 -12
v 5.5 2 -4
v 5.5 2 -3
v 6.424 2.4 -3
v 6.424 2.4 -4
v 5.5 2 -3
v 5.5 2 -4
v 4.576 2.4 -4
v 4.576 2.4 -3
v 6 2 -3.5
v 5 2 -3.5
v 5 2.4 -2.576
v 6 2.4 -2.576
v 5 2 -3.5
v 6 2 -3.5
v 6 2.4 -4.424
v 5 2.4 -4.424
vt 0.000000000 0.000000000
vt 1.000000000 0.000000000
vt 0.000000000 1.000000000
vt 1.000000000 1.000000000
vn -0.397273 0.9177 0
vn 0.397273 0.9177 0
vn 0 0.9177 -0.397273
vn 0 0.9177 0.397273
vn -0.440932 0.897541 0
vn 0.440932 0.897541 0
f 1/1/5 2/2/5 3/4/5 4/3/5
f 5/1/6 6/2/6 7/4/6 8/3/6
f 9/1/1 10/2/1 11/4/1 12/3/1
f 13/1/2 14/2/2 15/4/2 16/3/2
f 17/1/3 18/2/3 19/4/3 20/3/3
f 21/1/4 22/2/4 23/4/4 24/3/4
