mtllib lighthouse.mtl
usemtl stripped_spruce_log_top
v -3 14 1
v -3 14 2
v -3 11 1
v -3 11 2
v -3 12 2
v -3 12 1
v -2 11 2
v -2 11 1
v -2 12 1
v -2 12 2
v -3 13 2
v -3 13 1
v -2 13 1
v -2 13 2
v -2 14 1
v -2 14 2
vt 0.000000000 0.000000000
vt 1.000000000 0.000000000
vt 0.000000000 1.000000000
vt 1.000000000 1.000000000
vn 0 -1 0
vn 0 1 0
f 4/3/1 3/1/1 8/2/1 7/4/1
f 5/1/2 10/2/2 9/4/2 6/3/2
f 5/3/1 6/1/1 9/2/1 10/4/1
f 11/1/2 14/2/2 13/4/2 12/3/2
f 11/3/1 12/1/1 13/2/1 14/4/1
f 2/1/2 16/2/2 15/4/2 1/3/2
