mtllib lighthouse.mtl
usemtl deepslate_tiles
v -6 12.5 -1
v -6 12.5 0
v -6 13 -1
v -6 13 0
v -5 12.5 -1
v -5 12.5 0
v -5 13 -1
v -5 13 0
v -5.5 12 -1
v -5.5 12 0
v -5.5 12.5 -1
v -5.5 12.5 0
v -5 12 -1
v -5 12 0
v -5 12.5 -1
v -5 12.5 0
v -6 12.5 3
v -6 12.5 4
v -6 13 3
v -6 13 4
v -5 12.5 3
v -5 12.5 4
v -5 13 3
v -5 13 4
v -5.5 12 3
v -5.5 12 4
v -5.5 12.5 3
v -5.5 12.5 4
v -5 12 3
v -5 12 4
v -5 12.5 3
v -5 12.5 4
v -2.75 50 -1.75
v -2.75 50 -1.25
v -2.75 51 -1.75
v -2.75 51 -1.25
v -2.25 50 -1.75
v -2.25 50 -1.25
v -2.25 51 -1.75
v -2.25 51 -1.25
v -2.75 50 4.25
v -2.75 50 4.75
v -2.75 51 4.25
v -2.75 51 4.75
v -2.25 50 4.25
v -2.25 50 4.75
v -2.25 51 4.25
v -2.25 51 4.75
v -2 12.5 -5
v -2 12.5 -4
v -2 13 -5
v -2 13 -4
v -1 12.5 -5
v -1 12.5 -4
v -1 13 -5
v -1 13 -4
v -2 12 -4.5
v -2 12 -4
v -2 12.5 -4.5
v -2 12.5 -4
v -1 12 -4.5
v -1 12 -4
v -1 12.5 -4.5
v -1 12.5 -4
v -2 58 1
v -2 58 2
v -2 58.5 1
v -2 58.5 2
v -1 58 1
v -1 58 2
v -1 58.5 1
v -1 58.5 2
v -2 12.5 7
v -2 12.5 8
v -2 13 7
v -2 13 8
v -1 12.5 7
v -1 12.5 8
v -1 13 7
v -1 13 8
v -2 12 7
v -2 12 7.5
v -2 12.5 7
v -2 12.5 7.5
v -1 12 7
v -1 12 7.5
v -1 12.5 7
v -1 12.5 7.5
v -1 58 0
v -1 58 1
v -1 58.5 0
v -1 58.5 1
v 0 58 0
v 0 58 1
v 0 58.5 0
v 0 58.5 1
v -1 58 2
v -1 58 3
v -1 58.5 2
v -1 58.5 3
v 0 58 2
v 0 58 3
v 0 58.5 2
v 0 58.5 3
v 0 58 -1
v 0 58 0
v 0 58.5 -1
v 0 58.5 0
v 1 58 -1
v 1 58 0
v 1 58.5 -1
v 1 58.5 0
v 0.25 59 1.25
v 0.25 59 1.75
v 0.25 60 1.25
v 0.25 60 1.75
v 0.75 59 1.25
v 0.75 59 1.75
v 0.75 60 1.25
v 0.75 60 1.75
v 0 58 3
v 0 58 4
v 0 58.5 3
v 0 58.5 4
v 1 58 3
v 1 58 4
v 1 58.5 3
v 1 58.5 4
v 1 58 0
v 1 58 1
v 1 58.5 0
v 1 58.5 1
v 2 58 0
v 2 58 1
v 2 58.5 0
v 2 58.5 1
v 1 58 2
v 1 58 3
v 1 58.5 2
v 1 58.5 3
v 2 58 2
v 2 58 3
v 2 58.5 2
v 2 58.5 3
v 2 12.5 -5
v 2 12.5 -4
v 2 13 -5
v 2 13 -4
v 3 12.5 -5
v 3 12.5 -4
v 3 13 -5
v 3 13 -4
v 2 12 -4.5
v 2 12 -4
v 2 12.5 -4.5
v 2 12.5 -4
v 3 12 -4.5
v 3 12 -4
v 3 12.5 -4.5
v 3 12.5 -4
v 2 58 1
v 2 58 2
v 2 58.5 1
v 2 58.5 2
v 3 58 1
v 3 58 2
v 3 58.5 1
v 3 58.5 2
v 2 12.5 7
v 2 12.5 8
v 2 13 7
v 2 13 8
v 3 12.5 7
v 3 12.5 8
v 3 13 7
v 3 13 8
v 2 12 7
v 2 12 7.5
v 2 12.5 7
v 2 12.5 7.5
v 3 12 7
v 3 12 7.5
v 3 12.5 7
v 3 12.5 7.5
v 3.25 50 -1.75
v 3.25 50 -1.25
v 3.25 51 -1.75
v 3.25 51 -1.25
v 3.75 50 -1.75
v 3.75 50 -1.25
v 3.75 51 -1.75
v 3.75 51 -1.25
v 3.25 50 4.25
v 3.25 50 4.75
v 3.25 51 4.25
v 3.25 51 4.75
v 3.75 50 4.25
v 3.75 50 4.75
v 3.75 51 4.25
v 3.75 51 4.75
v 6 12.5 -1
v 6 12.5 0
v 6 13 -1
v 6 13 0
v 7 12.5 -1
v 7 12.5 0
v 7 13 -1
v 7 13 0
v 6 12 -1
v 6 12 0
v 6 12.5 -1
v 6 12.5 0
v 6.5 12 -1
v 6.5 12 0
v 6.5 12.5 -1
v 6.5 12.5 0
v 6 12.5 3
v 6 12.5 4
v 6 13 3
v 6 13 4
v 7 12.5 3
v 7 12.5 4
v 7 13 3
v 7 13 4
v 6 12 3
v 6 12 4
v 6 12.5 3
v 6 12.5 4
v 6.5 12 3
v 6.5 12 4
v 6.5 12.5 3
v 6.5 12.5 4
v -5 7 -1
v -5 8 -1
v -5 7 0
v -5 8 0
v -5 13 0
v -5 13 -1
v -5 14 -1
v -5 14 0
v -5 9 0
v -5 9 3
v -5 13 3
v -5 14 3
v -5 9 4
v -5 13 4
v -5 14 4
v -4 7 -1
v -4 8 -1
v -5 9 -1
v -4 9 -1
v -5 10 -1
v -4 10 -1
v -4 13 -1
v -4 14 -1
v -4 7 0
v -4 8 0
v -4 9 0
v -5 10 0
v -4 10 0
v -5 11 0
v -5 11 -1
v -4 11 -1
v -4 11 0
v -5 12 0
v -5 12 -1
v -4 12 -1
v -4 12 0
v -4 13 0
v -4 14 0
v -4 9 3
v -5 10 3
v -4 10 3
v -5 11 3
v -4 11 3
v -5 12 3
v -4 12 3
v -4 13 3
v -4 14 3
v -4 9 4
v -5 10 4
v -4 10 4
v -5 11 4
v -4 11 4
v -5 12 4
v -4 12 4
v -4 13 4
v -4 14 4
v -3 55 2
v -3 55 1
v -3 56 1
v -3 56 2
v -2 6 -4
v -2 7 -4
v -2 8 -4
v -2 6 -3
v -2 7 -3
v -2 8 -3
v -2 9 -4
v -2 9 -3
v -2 13 -3
v -2 13 -4
v -2 14 -4
v -2 14 -3
v -2 10 -3
v -2 11 -3
v -2 12 -3
v -3 55 0
v -2 55 0
v -2 55 1
v -3 56 0
v -2 56 0
v -2 56 1
v -3 57 1
v -3 57 0
v -2 57 0
v -2 57 1
v -2 55 2
v -2 56 2
v -3 57 2
v -2 57 2
v -3 58 2
v -3 58 1
v -2 58 1
v -2 58 2
v -3 55 3
v -2 55 3
v -3 56 3
v -2 56 3
v -3 57 3
v -2 57 3
v -2 9 6
v -2 10 6
v -2 11 6
v -2 12 6
v -2 13 6
v -2 14 6
v -2 9 7
v -2 13 7
v -2 14 7
v -1 6 -4
v -1 13 -4
v -1 14 -4
v -1 6 -3
v -1 7 -4
v -1 7 -3
v -1 8 -4
v -1 8 -3
v -1 9 -4
v -1 9 -3
v -2 10 -4
v -1 10 -4
v -1 10 -3
v -2 11 -4
v -1 11 -4
v -1 11 -3
v -2 12 -4
v -1 12 -4
v -1 12 -3
v -1 13 -3
v -1 14 -3
v -2 55 -1
v -1 55 -1
v -1 55 0
v -2 56 -1
v -1 56 -1
v -1 56 0
v -2 57 -1
v -1 57 -1
v -1 57 0
v -1 56 1
v -1 57 1
v -2 58 0
v -1 58 0
v -1 58 1
v -1 57 2
v -1 58 2
v -1 56 3
v -1 56 2
v -1 57 3
v -2 58 3
v -1 58 3
v -2 55 4
v -1 55 3
v -1 55 4
v -2 56 4
v -1 56 4
v -2 57 4
v -1 57 4
v -1 9 6
v -1 14 6
v -1 9 7
v -2 10 7
v -1 10 6
v -1 10 7
v -2 11 7
v -1 11 6
v -1 11 7
v -2 12 7
v -1 12 6
v -1 12 7
v -1 13 6
v -1 13 7
v -1 14 7
v -1 55 -2
v 0 55 -2
v 0 55 -1
v -1 56 -2
v 0 56 -2
v 0 56 -1
v -1 57 -2
v 0 57 -2
v 0 57 -1
v 0 56 0
v 0 57 0
v -1 58 -1
v 0 58 -1
v 0 58 0
v 0 56 1
v 0 57 1
v 0 58 1
v -1 59 2
v -1 59 1
v 0 58 2
v 0 59 1
v 0 59 2
v 0 56 4
v 0 56 3
v 0 57 3
v 0 57 4
v -1 58 4
v 0 58 3
v 0 58 4
v -1 55 5
v 0 55 4
v 0 55 5
v -1 56 5
v 0 56 5
v -1 57 5
v 0 57 5
v 1 55 -2
v 1 56 -2
v 1 55 -1
v 1 56 -1
v 1 57 -2
v 1 57 -1
v 0 58 -2
v 1 58 -2
v 1 58 -1
v 1 57 0
v 1 58 0
v 0 59 0
v 1 58 1
v 1 59 0
v 1 59 1
v 0 59 3
v 1 58 3
v 1 58 2
v 1 59 2
v 1 59 3
v 1 57 4
v 1 57 3
v 1 58 4
v 1 55 4
v 1 55 5
v 1 56 4
v 1 56 5
v 1 57 5
v 0 58 5
v 1 58 5
v 2 2 -4
v 2 13 -4
v 2 14 -4
v 2 2 -3
v 2 3 -4
v 2 3 -3
v 2 4 -4
v 2 4 -3
v 2 9 -3
v 2 9 -4
v 2 10 -4
v 2 10 -3
v 2 11 -4
v 2 11 -3
v 2 12 -4
v 2 12 -3
v 2 13 -3
v 2 14 -3
v 2 5 -3
v 2 8 -3
v 2 55 -2
v 2 55 -1
v 2 56 -2
v 2 56 -1
v 2 57 -2
v 2 57 -1
v 1 56 0
v 2 56 0
v 2 57 0
v 2 58 -1
v 2 58 0
v 1 57 2
v 2 57 2
v 2 57 1
v 2 58 1
v 2 58 2
v 2 59 1
v 2 59 2
v 2 57 3
v 2 58 3
v 1 56 3
v 2 56 4
v 2 56 3
v 2 57 4
v 2 58 4
v 2 55 4
v 2 55 5
v 2 56 5
v 2 57 5
v 2 7 6
v 2 8 6
v 2 9 6
v 2 14 6
v 2 7 7
v 2 8 7
v 2 9 7
v 2 10 6
v 2 10 7
v 2 11 6
v 2 11 7
v 2 12 6
v 2 12 7
v 2 13 6
v 2 13 7
v 2 14 7
v 3 2 -4
v 3 13 -4
v 3 14 -4
v 3 2 -3
v 3 3 -4
v 3 3 -3
v 3 4 -4
v 3 4 -3
v 2 5 -4
v 3 5 -4
v 3 5 -3
v 2 6 -3
v 2 6 -4
v 3 6 -4
v 3 6 -3
v 2 7 -3
v 2 7 -4
v 3 7 -4
v 3 7 -3
v 2 8 -4
v 3 8 -4
v 3 8 -3
v 3 9 -4
v 3 9 -3
v 3 10 -4
v 3 10 -3
v 3 11 -4
v 3 11 -3
v 3 12 -4
v 3 12 -3
v 3 13 -3
v 3 14 -3
v 2 55 0
v 3 55 -1
v 3 55 0
v 3 56 -1
v 3 56 0
v 3 57 -1
v 3 57 0
v 2 56 1
v 3 56 1
v 3 57 1
v 3 58 0
v 3 58 1
v 3 57 2
v 3 58 2
v 2 56 2
v 3 56 3
v 3 56 2
v 3 57 3
v 3 58 3
v 2 55 3
v 3 55 3
v 3 55 4
v 3 56 4
v 3 57 4
v 3 7 6
v 3 8 6
v 3 9 6
v 3 10 6
v 3 12 6
v 3 13 6
v 3 14 6
v 3 7 7
v 3 8 7
v 3 9 7
v 3 10 7
v 3 11 6
v 3 11 7
v 3 12 7
v 3 13 7
v 3 14 7
v 3 55 1
v 4 55 0
v 4 55 1
v 4 56 0
v 4 56 1
v 4 57 0
v 4 57 1
v 3 55 2
v 4 55 2
v 4 56 2
v 4 57 2
v 4 58 1
v 4 58 2
v 4 55 3
v 4 56 3
v 4 57 3
v 5 7 -1
v 5 8 -1
v 5 9 -1
v 5 10 -1
v 5 11 -1
v 5 12 -1
v 5 13 -1
v 5 14 -1
v 5 7 0
v 5 8 0
v 5 9 0
v 5 14 0
v 5 8 3
v 5 9 3
v 5 14 3
v 5 8 4
v 5 9 4
v 5 14 4
v 5 10 4
v 5 11 4
v 5 12 4
v 5 13 4
v 6 7 -1
v 6 13 -1
v 6 14 -1
v 6 7 0
v 6 8 -1
v 6 8 0
v 6 9 -1
v 6 9 0
v 5 10 0
v 6 10 -1
v 6 10 0
v 5 11 0
v 6 11 -1
v 6 11 0
v 5 12 0
v 6 12 -1
v 6 12 0
v 5 13 0
v 6 13 0
v 6 14 0
v 6 8 3
v 6 9 3
v 5 10 3
v 6 10 3
v 5 11 3
v 6 11 3
v 5 12 3
v 6 12 3
v 5 13 3
v 6 13 3
v 6 14 3
v 6 8 4
v 6 9 4
v 6 10 4
v 6 11 4
v 6 12 4
v 6 13 4
v 6 14 4
vt 0.000000000 0.000000000
vt 0.250000000 0.000000000
vt 0.500000000 0.000000000
vt 0.750000000 0.000000000
vt 1.000000000 0.000000000
vt 0.250000000 0.250000000
vt 0.750000000 0.250000000
vt 0.000000000 0.500000000
vt 0.500000000 0.500000000
vt 1.000000000 0.500000000
vt 0.250000000 0.750000000
vt 0.750000000 0.750000000
vt 0.000000000 1.000000000
vt 0.250000000 1.000000000
vt 0.500000000 1.000000000
vt 0.750000000 1.000000000
vt 1.000000000 1.000000000
vn -1 0 0
vn 0 -1 0
vn 0 0 -1
vn 1 0 0
vn 0 1 0
vn 0 0 1
f 3/13/1 1/8/1 2/10/1 4/17/1
f 2/13/2 1/1/2 5/5/2 6/17/2
f 7/13/3 5/8/3 1/10/3 3/17/3
f 7/17/4 8/13/4 6/8/4 5/10/4
f 7/17/5 3/13/5 4/1/5 8/5/5
f 8/17/6 4/13/6 2/8/6 6/10/6
f 11/8/1 9/1/1 10/5/1 12/10/1
f 10/15/2 9/3/2 13/5/2 14/17/2
f 15/8/3 13/1/3 9/3/3 11/9/3
f 15/10/4 16/8/4 14/1/4 13/5/4
f 16/10/6 12/9/6 10/3/6 14/5/6
f 19/13/1 17/8/1 18/10/1 20/17/1
f 18/13/2 17/1/2 21/5/2 22/17/2
f 23/13/3 21/8/3 17/10/3 19/17/3
f 23/17/4 24/13/4 22/8/4 21/10/4
f 23/17/5 19/13/5 20/1/5 24/5/5
f 24/17/6 20/13/6 18/8/6 22/10/6
f 27/8/1 25/1/1 26/5/1 28/10/1
f 26/15/2 25/3/2 29/5/2 30/17/2
f 31/8/3 29/1/3 25/3/3 27/9/3
f 31/10/4 32/8/4 30/1/4 29/5/4
f 32/10/6 28/9/6 26/3/6 30/5/6
f 35/14/1 33/2/1 34/4/1 36/16/1
f 34/11/2 33/6/2 37/7/2 38/12/2
f 39/14/3 37/2/3 33/4/3 35/16/3
f 39/16/4 40/14/4 38/2/4 37/4/4
f 39/12/5 35/11/5 36/6/5 40/7/5
f 40/16/6 36/14/6 34/2/6 38/4/6
f 43/14/1 41/2/1 42/4/1 44/16/1
f 42/11/2 41/6/2 45/7/2 46/12/2
f 47/14/3 45/2/3 41/4/3 43/16/3
f 47/16/4 48/14/4 46/2/4 45/4/4
f 47/12/5 43/11/5 44/6/5 48/7/5
f 48/16/6 44/14/6 42/2/6 46/4/6
f 51/13/1 49/8/1 50/10/1 52/17/1
f 50/13/2 49/1/2 53/5/2 54/17/2
f 55/13/3 53/8/3 49/10/3 51/17/3
f 55/17/4 56/13/4 54/8/4 53/10/4
f 55/17/5 51/13/5 52/1/5 56/5/5
f 56/17/6 52/13/6 50/8/6 54/10/6
f 59/9/1 57/3/1 58/5/1 60/10/1
f 58/8/2 57/1/2 61/5/2 62/10/2
f 63/8/3 61/1/3 57/5/3 59/10/3
f 63/9/4 64/8/4 62/1/4 61/3/4
f 64/10/6 60/8/6 58/1/6 62/5/6
f 67/8/1 65/1/1 66/5/1 68/10/1
f 66/13/2 65/1/2 69/5/2 70/17/2
f 71/8/3 69/1/3 65/5/3 67/10/3
f 71/10/4 72/8/4 70/1/4 69/5/4
f 71/17/5 67/13/5 68/1/5 72/5/5
f 72/10/6 68/8/6 66/1/6 70/5/6
f 75/13/1 73/8/1 74/10/1 76/17/1
f 74/13/2 73/1/2 77/5/2 78/17/2
f 79/13/3 77/8/3 73/10/3 75/17/3
f 79/17/4 80/13/4 78/8/4 77/10/4
f 79/17/5 75/13/5 76/1/5 80/5/5
f 80/17/6 76/13/6 74/8/6 78/10/6
f 83/8/1 81/1/1 82/3/1 84/9/1
f 82/13/2 81/8/2 85/10/2 86/17/2
f 87/8/3 85/1/3 81/5/3 83/10/3
f 87/10/4 88/9/4 86/3/4 85/5/4
f 88/10/6 84/8/6 82/1/6 86/5/6
f 91/8/1 89/1/1 90/5/1 92/10/1
f 90/13/2 89/1/2 93/5/2 94/17/2
f 95/8/3 93/1/3 89/5/3 91/10/3
f 95/10/4 96/8/4 94/1/4 93/5/4
f 95/17/5 91/13/5 92/1/5 96/5/5
f 96/10/6 92/8/6 90/1/6 94/5/6
f 99/8/1 97/1/1 98/5/1 100/10/1
f 98/13/2 97/1/2 101/5/2 102/17/2
f 103/8/3 101/1/3 97/5/3 99/10/3
f 103/10/4 104/8/4 102/1/4 101/5/4
f 103/17/5 99/13/5 100/1/5 104/5/5
f 104/10/6 100/8/6 98/1/6 102/5/6
f 107/8/1 105/1/1 106/5/1 108/10/1
f 106/13/2 105/1/2 109/5/2 110/17/2
f 111/8/3 109/1/3 105/5/3 107/10/3
f 111/10/4 112/8/4 110/1/4 109/5/4
f 111/17/5 107/13/5 108/1/5 112/5/5
f 112/10/6 108/8/6 106/1/6 110/5/6
f 115/14/1 113/2/1 114/4/1 116/16/1
f 114/11/2 113/6/2 117/7/2 118/12/2
f 119/14/3 117/2/3 113/4/3 115/16/3
f 119/16/4 120/14/4 118/2/4 117/4/4
f 119/12/5 115/11/5 116/6/5 120/7/5
f 120/16/6 116/14/6 114/2/6 118/4/6
f 123/8/1 121/1/1 122/5/1 124/10/1
f 122/13/2 121/1/2 125/5/2 126/17/2
f 127/8/3 125/1/3 121/5/3 123/10/3
f 127/10/4 128/8/4 126/1/4 125/5/4
f 127/17/5 123/13/5 124/1/5 128/5/5
f 128/10/6 124/8/6 122/1/6 126/5/6
f 131/8/1 129/1/1 130/5/1 132/10/1
f 130/13/2 129/1/2 133/5/2 134/17/2
f 135/8/3 133/1/3 129/5/3 131/10/3
f 135/10/4 136/8/4 134/1/4 133/5/4
f 135/17/5 131/13/5 132/1/5 136/5/5
f 136/10/6 132/8/6 130/1/6 134/5/6
f 139/8/1 137/1/1 138/5/1 140/10/1
f 138/13/2 137/1/2 141/5/2 142/17/2
f 143/8/3 141/1/3 137/5/3 139/10/3
f 143/10/4 144/8/4 142/1/4 141/5/4
f 143/17/5 139/13/5 140/1/5 144/5/5
f 144/10/6 140/8/6 138/1/6 142/5/6
f 147/13/1 145/8/1 146/10/1 148/17/1
f 146/13/2 145/1/2 149/5/2 150/17/2
f 151/13/3 149/8/3 145/10/3 147/17/3
f 151/17/4 152/13/4 150/8/4 149/10/4
f 151/17/5 147/13/5 148/1/5 152/5/5
f 152/17/6 148/13/6 146/8/6 150/10/6
f 155/9/1 153/3/1 154/5/1 156/10/1
f 154/8/2 153/1/2 157/5/2 158/10/2
f 159/8/3 157/1/3 153/5/3 155/10/3
f 159/9/4 160/8/4 158/1/4 157/3/4
f 160/10/6 156/8/6 154/1/6 158/5/6
f 163/8/1 161/1/1 162/5/1 164/10/1
f 162/13/2 161/1/2 165/5/2 166/17/2
f 167/8/3 165/1/3 161/5/3 163/10/3
f 167/10/4 168/8/4 166/1/4 165/5/4
f 167/17/5 163/13/5 164/1/5 168/5/5
f 168/10/6 164/8/6 162/1/6 166/5/6
f 171/13/1 169/8/1 170/10/1 172/17/1
f 170/13/2 169/1/2 173/5/2 174/17/2
f 175/13/3 173/8/3 169/10/3 171/17/3
f 175/17/4 176/13/4 174/8/4 173/10/4
f 175/17/5 171/13/5 172/1/5 176/5/5
f 176/17/6 172/13/6 170/8/6 174/10/6
f 179/8/1 177/1/1 178/3/1 180/9/1
f 178/13/2 177/8/2 181/10/2 182/17/2
f 183/8/3 181/1/3 177/5/3 179/10/3
f 183/10/4 184/9/4 182/3/4 181/5/4
f 184/10/6 180/8/6 178/1/6 182/5/6
f 187/14/1 185/2/1 186/4/1 188/16/1
f 186/11/2 185/6/2 189/7/2 190/12/2
f 191/14/3 189/2/3 185/4/3 187/16/3
f 191/16/4 192/14/4 190/2/4 189/4/4
f 191/12/5 187/11/5 188/6/5 192/7/5
f 192/16/6 188/14/6 186/2/6 190/4/6
f 195/14/1 193/2/1 194/4/1 196/16/1
f 194/11/2 193/6/2 197/7/2 198/12/2
f 199/14/3 197/2/3 193/4/3 195/16/3
f 199/16/4 200/14/4 198/2/4 197/4/4
f 199/12/5 195/11/5 196/6/5 200/7/5
f 200/16/6 196/14/6 194/2/6 198/4/6
f 203/13/1 201/8/1 202/10/1 204/17/1
f 202/13/2 201/1/2 205/5/2 206/17/2
f 207/13/3 205/8/3 201/10/3 203/17/3
f 207/17/4 208/13/4 206/8/4 205/10/4
f 207/17/5 203/13/5 204/1/5 208/5/5
f 208/17/6 204/13/6 202/8/6 206/10/6
f 211/8/1 209/1/1 210/5/1 212/10/1
f 210/13/2 209/1/2 213/3/2 214/15/2
f 215/9/3 213/3/3 209/5/3 211/10/3
f 215/10/4 216/8/4 214/1/4 213/5/4
f 216/9/6 212/8/6 210/1/6 214/3/6
f 219/13/1 217/8/1 218/10/1 220/17/1
f 218/13/2 217/1/2 221/5/2 222/17/2
f 223/13/3 221/8/3 217/10/3 219/17/3
f 223/17/4 224/13/4 222/8/4 221/10/4
f 223/17/5 219/13/5 220/1/5 224/5/5
f 224/17/6 220/13/6 218/8/6 222/10/6
f 227/8/1 225/1/1 226/5/1 228/10/1
f 226/13/2 225/1/2 229/3/2 230/15/2
f 231/9/3 229/3/3 225/5/3 227/10/3
f 231/10/4 232/8/4 230/1/4 229/5/4
f 232/9/6 228/8/6 226/1/6 230/3/6
f 235/5/1 236/17/1 234/13/1 233/1/1
f 235/13/2 233/1/2 248/5/2 256/17/2
f 233/5/3 234/17/3 249/13/3 248/1/3
f 256/1/4 248/5/4 249/17/4 257/13/4
f 236/1/5 257/5/5 249/17/5 234/13/5
f 235/1/6 256/5/6 257/17/6 236/13/6
f 236/5/1 241/17/1 250/13/1 234/1/1
f 236/13/2 234/1/2 249/5/2 257/17/2
f 234/5/3 250/17/3 251/13/3 249/1/3
f 257/1/4 249/5/4 251/17/4 258/13/4
f 241/1/5 258/5/5 251/17/5 250/13/5
f 236/1/6 257/5/6 258/17/6 241/13/6
f 241/5/1 259/17/1 252/13/1 250/1/1
f 241/13/2 250/1/2 251/5/2 258/17/2
f 250/5/3 252/17/3 253/13/3 251/1/3
f 258/1/4 251/5/4 253/17/4 260/13/4
f 259/1/5 260/5/5 253/17/5 252/13/5
f 241/1/6 258/5/6 260/17/6 259/13/6
f 259/5/1 261/17/1 262/13/1 252/1/1
f 259/13/2 252/1/2 253/5/2 260/17/2
f 252/5/3 262/17/3 263/13/3 253/1/3
f 260/1/4 253/5/4 263/17/4 264/13/4
f 261/1/5 264/5/5 263/17/5 262/13/5
f 259/1/6 260/5/6 264/17/6 261/13/6
f 261/5/1 265/17/1 266/13/1 262/1/1
f 261/13/2 262/1/2 263/5/2 264/17/2
f 262/5/3 266/17/3 267/13/3 263/1/3
f 264/1/4 263/5/4 267/17/4 268/13/4
f 265/1/5 268/5/5 267/17/5 266/13/5
f 261/1/6 264/5/6 268/17/6 265/13/6
f 265/5/1 237/17/1 238/13/1 266/1/1
f 265/13/2 266/1/2 267/5/2 268/17/2
f 266/5/3 238/17/3 254/13/3 267/1/3
f 268/1/4 267/5/4 254/17/4 269/13/4
f 237/1/5 269/5/5 254/17/5 238/13/5
f 265/1/6 268/5/6 269/17/6 237/13/6
f 237/5/1 240/17/1 239/13/1 238/1/1
f 237/13/2 238/1/2 254/5/2 269/17/2
f 238/5/3 239/17/3 255/13/3 254/1/3
f 269/1/4 254/5/4 255/17/4 270/13/4
f 240/1/5 270/5/5 255/17/5 239/13/5
f 237/1/6 269/5/6 270/17/6 240/13/6
f 245/5/1 281/17/1 272/13/1 242/1/1
f 245/13/2 242/1/2 271/5/2 280/17/2
f 242/5/3 272/17/3 273/13/3 271/1/3
f 280/1/4 271/5/4 273/17/4 282/13/4
f 281/1/5 282/5/5 273/17/5 272/13/5
f 245/1/6 280/5/6 282/17/6 281/13/6
f 281/5/1 283/17/1 274/13/1 272/1/1
f 281/13/2 272/1/2 273/5/2 282/17/2
f 272/5/3 274/17/3 275/13/3 273/1/3
f 282/1/4 273/5/4 275/17/4 284/13/4
f 283/1/5 284/5/5 275/17/5 274/13/5
f 281/1/6 282/5/6 284/17/6 283/13/6
f 283/5/1 285/17/1 276/13/1 274/1/1
f 283/13/2 274/1/2 275/5/2 284/17/2
f 274/5/3 276/17/3 277/13/3 275/1/3
f 284/1/4 275/5/4 277/17/4 286/13/4
f 285/1/5 286/5/5 277/17/5 276/13/5
f 283/1/6 284/5/6 286/17/6 285/13/6
f 285/5/1 246/17/1 243/13/1 276/1/1
f 285/13/2 276/1/2 277/5/2 286/17/2
f 276/5/3 243/17/3 278/13/3 277/1/3
f 286/1/4 277/5/4 278/17/4 287/13/4
f 246/1/5 287/5/5 278/17/5 243/13/5
f 285/1/6 286/5/6 287/17/6 246/13/6
f 246/5/1 247/17/1 244/13/1 243/1/1
f 246/13/2 243/1/2 278/5/2 287/17/2
f 243/5/3 244/17/3 279/13/3 278/1/3
f 287/1/4 278/5/4 279/17/4 288/13/4
f 247/1/5 288/5/5 279/17/5 244/13/5
f 246/1/6 287/5/6 288/17/6 247/13/6
f 290/5/1 291/17/1 311/13/1 308/1/1
f 290/13/2 308/1/2 309/5/2 310/17/2
f 308/5/3 311/17/3 312/13/3 309/1/3
f 310/1/4 309/5/4 312/17/4 313/13/4
f 291/1/5 313/5/5 312/17/5 311/13/5
f 290/1/6 310/5/6 313/17/6 291/13/6
f 291/5/1 314/17/1 315/13/1 311/1/1
f 291/13/2 311/1/2 312/5/2 313/17/2
f 311/5/3 315/17/3 316/13/3 312/1/3
f 313/1/4 312/5/4 316/17/4 317/13/4
f 314/1/5 317/5/5 316/17/5 315/13/5
f 291/1/6 313/5/6 317/17/6 314/13/6
f 289/5/1 292/17/1 291/13/1 290/1/1
f 289/13/2 290/1/2 310/5/2 318/17/2
f 290/5/3 291/17/3 313/13/3 310/1/3
f 318/1/4 310/5/4 313/17/4 319/13/4
f 292/1/5 319/5/5 313/17/5 291/13/5
f 289/1/6 318/5/6 319/17/6 292/13/6
f 292/5/1 320/17/1 314/13/1 291/1/1
f 292/13/2 291/1/2 313/5/2 319/17/2
f 291/5/3 314/17/3 317/13/3 313/1/3
f 319/1/4 313/5/4 317/17/4 321/13/4
f 320/1/5 321/5/5 317/17/5 314/13/5
f 292/1/6 319/5/6 321/17/6 320/13/6
f 320/5/1 322/17/1 323/13/1 314/1/1
f 320/13/2 314/1/2 317/5/2 321/17/2
f 314/5/3 323/17/3 324/13/3 317/1/3
f 321/1/4 317/5/4 324/17/4 325/13/4
f 322/1/5 325/5/5 324/17/5 323/13/5
f 320/1/6 321/5/6 325/17/6 322/13/6
f 326/5/1 328/17/1 292/13/1 289/1/1
f 326/13/2 289/1/2 318/5/2 327/17/2
f 289/5/3 292/17/3 319/13/3 318/1/3
f 327/1/4 318/5/4 319/17/4 329/13/4
f 328/1/5 329/5/5 319/17/5 292/13/5
f 326/1/6 327/5/6 329/17/6 328/13/6
f 328/5/1 330/17/1 320/13/1 292/1/1
f 328/13/2 292/1/2 319/5/2 329/17/2
f 292/5/3 320/17/3 321/13/3 319/1/3
f 329/1/4 319/5/4 321/17/4 331/13/4
f 330/1/5 331/5/5 321/17/5 320/13/5
f 328/1/6 329/5/6 331/17/6 330/13/6
f 296/5/1 297/17/1 294/13/1 293/1/1
f 296/13/2 293/1/2 341/5/2 344/17/2
f 293/5/3 294/17/3 345/13/3 341/1/3
f 344/1/4 341/5/4 345/17/4 346/13/4
f 297/1/5 346/5/5 345/17/5 294/13/5
f 296/1/6 344/5/6 346/17/6 297/13/6
f 297/5/1 298/17/1 295/13/1 294/1/1
f 297/13/2 294/1/2 345/5/2 346/17/2
f 294/5/3 295/17/3 347/13/3 345/1/3
f 346/1/4 345/5/4 347/17/4 348/13/4
f 298/1/5 348/5/5 347/17/5 295/13/5
f 297/1/6 346/5/6 348/17/6 298/13/6
f 298/5/1 300/17/1 299/13/1 295/1/1
f 298/13/2 295/1/2 347/5/2 348/17/2
f 295/5/3 299/17/3 349/13/3 347/1/3
f 348/1/4 347/5/4 349/17/4 350/13/4
f 300/1/5 350/5/5 349/17/5 299/13/5
f 298/1/6 348/5/6 350/17/6 300/13/6
f 300/5/1 305/17/1 351/13/1 299/1/1
f 300/13/2 299/1/2 349/5/2 350/17/2
f 299/5/3 351/17/3 352/13/3 349/1/3
f 350/1/4 349/5/4 352/17/4 353/13/4
f 305/1/5 353/5/5 352/17/5 351/13/5
f 300/1/6 350/5/6 353/17/6 305/13/6
f 305/5/1 306/17/1 354/13/1 351/1/1
f 305/13/2 351/1/2 352/5/2 353/17/2
f 351/5/3 354/17/3 355/13/3 352/1/3
f 353/1/4 352/5/4 355/17/4 356/13/4
f 306/1/5 356/5/5 355/17/5 354/13/5
f 305/1/6 353/5/6 356/17/6 306/13/6
f 306/5/1 307/17/1 357/13/1 354/1/1
f 306/13/2 354/1/2 355/5/2 356/17/2
f 354/5/3 357/17/3 358/13/3 355/1/3
f 356/1/4 355/5/4 358/17/4 359/13/4
f 307/1/5 359/5/5 358/17/5 357/13/5
f 306/1/6 356/5/6 359/17/6 307/13/6
f 307/5/1 301/17/1 302/13/1 357/1/1
f 307/13/2 357/1/2 358/5/2 359/17/2
f 357/5/3 302/17/3 342/13/3 358/1/3
f 359/1/4 358/5/4 342/17/4 360/13/4
f 301/1/5 360/5/5 342/17/5 302/13/5
f 307/1/6 359/5/6 360/17/6 301/13/6
f 301/5/1 304/17/1 303/13/1 302/1/1
f 301/13/2 302/1/2 342/5/2 360/17/2
f 302/5/3 303/17/3 343/13/3 342/1/3
f 360/1/4 342/5/4 343/17/4 361/13/4
f 304/1/5 361/5/5 343/17/5 303/13/5
f 301/1/6 360/5/6 361/17/6 304/13/6
f 309/5/1 312/17/1 365/13/1 362/1/1
f 309/13/2 362/1/2 363/5/2 364/17/2
f 362/5/3 365/17/3 366/13/3 363/1/3
f 364/1/4 363/5/4 366/17/4 367/13/4
f 312/1/5 367/5/5 366/17/5 365/13/5
f 309/1/6 364/5/6 367/17/6 312/13/6
f 312/5/1 316/17/1 368/13/1 365/1/1
f 312/13/2 365/1/2 366/5/2 367/17/2
f 365/5/3 368/17/3 369/13/3 366/1/3
f 367/1/4 366/5/4 369/17/4 370/13/4
f 316/1/5 370/5/5 369/17/5 368/13/5
f 312/1/6 367/5/6 370/17/6 316/13/6
f 313/5/1 317/17/1 316/13/1 312/1/1
f 313/13/2 312/1/2 367/5/2 371/17/2
f 312/5/3 316/17/3 370/13/3 367/1/3
f 371/1/4 367/5/4 370/17/4 372/13/4
f 317/1/5 372/5/5 370/17/5 316/13/5
f 313/1/6 371/5/6 372/17/6 317/13/6
f 317/5/1 324/17/1 373/13/1 316/1/1
f 317/13/2 316/1/2 370/5/2 372/17/2
f 316/5/3 373/17/3 374/13/3 370/1/3
f 372/1/4 370/5/4 374/17/4 375/13/4
f 324/1/5 375/5/5 374/17/5 373/13/5
f 317/1/6 372/5/6 375/17/6 324/13/6
f 329/5/1 331/17/1 321/13/1 319/1/1
f 329/13/2 319/1/2 379/5/2 378/17/2
f 319/5/3 321/17/3 376/13/3 379/1/3
f 378/1/4 379/5/4 376/17/4 380/13/4
f 331/1/5 380/5/5 376/17/5 321/13/5
f 329/1/6 378/5/6 380/17/6 331/13/6
f 331/5/1 381/17/1 325/13/1 321/1/1
f 331/13/2 321/1/2 376/5/2 380/17/2
f 321/5/3 325/17/3 377/13/3 376/1/3
f 380/1/4 376/5/4 377/17/4 382/13/4
f 381/1/5 382/5/5 377/17/5 325/13/5
f 331/1/6 380/5/6 382/17/6 381/13/6
f 383/5/1 386/17/1 329/13/1 327/1/1
f 383/13/2 327/1/2 384/5/2 385/17/2
f 327/5/3 329/17/3 378/13/3 384/1/3
f 385/1/4 384/5/4 378/17/4 387/13/4
f 386/1/5 387/5/5 378/17/5 329/13/5
f 383/1/6 385/5/6 387/17/6 386/13/6
f 386/5/1 388/17/1 331/13/1 329/1/1
f 386/13/2 329/1/2 378/5/2 387/17/2
f 329/5/3 331/17/3 380/13/3 378/1/3
f 387/1/4 378/5/4 380/17/4 389/13/4
f 388/1/5 389/5/5 380/17/5 331/13/5
f 386/1/6 387/5/6 389/17/6 388/13/6
f 338/5/1 393/17/1 333/13/1 332/1/1
f 338/13/2 332/1/2 390/5/2 392/17/2
f 332/5/3 333/17/3 394/13/3 390/1/3
f 392/1/4 390/5/4 394/17/4 395/13/4
f 393/1/5 395/5/5 394/17/5 333/13/5
f 338/1/6 392/5/6 395/17/6 393/13/6
f 393/5/1 396/17/1 334/13/1 333/1/1
f 393/13/2 333/1/2 394/5/2 395/17/2
f 333/5/3 334/17/3 397/13/3 394/1/3
f 395/1/4 394/5/4 397/17/4 398/13/4
f 396/1/5 398/5/5 397/17/5 334/13/5
f 393/1/6 395/5/6 398/17/6 396/13/6
f 396/5/1 399/17/1 335/13/1 334/1/1
f 396/13/2 334/1/2 397/5/2 398/17/2
f 334/5/3 335/17/3 400/13/3 397/1/3
f 398/1/4 397/5/4 400/17/4 401/13/4
f 399/1/5 401/5/5 400/17/5 335/13/5
f 396/1/6 398/5/6 401/17/6 399/13/6
f 399/5/1 339/17/1 336/13/1 335/1/1
f 399/13/2 335/1/2 400/5/2 401/17/2
f 335/5/3 336/17/3 402/13/3 400/1/3
f 401/1/4 400/5/4 402/17/4 403/13/4
f 339/1/5 403/5/5 402/17/5 336/13/5
f 399/1/6 401/5/6 403/17/6 339/13/6
f 339/5/1 340/17/1 337/13/1 336/1/1
f 339/13/2 336/1/2 402/5/2 403/17/2
f 336/5/3 337/17/3 391/13/3 402/1/3
f 403/1/4 402/5/4 391/17/4 404/13/4
f 340/1/5 404/5/5 391/17/5 337/13/5
f 339/1/6 403/5/6 404/17/6 340/13/6
f 363/5/1 366/17/1 408/13/1 405/1/1
f 363/13/2 405/1/2 406/5/2 407/17/2
f 405/5/3 408/17/3 409/13/3 406/1/3
f 407/1/4 406/5/4 409/17/4 410/13/4
f 366/1/5 410/5/5 409/17/5 408/13/5
f 363/1/6 407/5/6 410/17/6 366/13/6
f 366/5/1 369/17/1 411/13/1 408/1/1
f 366/13/2 408/1/2 409/5/2 410/17/2
f 408/5/3 411/17/3 412/13/3 409/1/3
f 410/1/4 409/5/4 412/17/4 413/13/4
f 369/1/5 413/5/5 412/17/5 411/13/5
f 366/1/6 410/5/6 413/17/6 369/13/6
f 367/5/1 370/17/1 369/13/1 366/1/1
f 367/13/2 366/1/2 410/5/2 414/17/2
f 366/5/3 369/17/3 413/13/3 410/1/3
f 414/1/4 410/5/4 413/17/4 415/13/4
f 370/1/5 415/5/5 413/17/5 369/13/5
f 367/1/6 414/5/6 415/17/6 370/13/6
f 370/5/1 374/17/1 416/13/1 369/1/1
f 370/13/2 369/1/2 413/5/2 415/17/2
f 369/5/3 416/17/3 417/13/3 413/1/3
f 415/1/4 413/5/4 417/17/4 418/13/4
f 374/1/5 418/5/5 417/17/5 416/13/5
f 370/1/6 415/5/6 418/17/6 374/13/6
f 371/5/1 372/17/1 370/13/1 367/1/1
f 371/13/2 367/1/2 414/5/2 419/17/2
f 367/5/3 370/17/3 415/13/3 414/1/3
f 419/1/4 414/5/4 415/17/4 420/13/4
f 372/1/5 420/5/5 415/17/5 370/13/5
f 371/1/6 419/5/6 420/17/6 372/13/6
f 372/5/1 375/17/1 374/13/1 370/1/1
f 372/13/2 370/1/2 415/5/2 420/17/2
f 370/5/3 374/17/3 418/13/3 415/1/3
f 420/1/4 415/5/4 418/17/4 421/13/4
f 375/1/5 421/5/5 418/17/5 374/13/5
f 372/1/6 420/5/6 421/17/6 375/13/6
f 377/5/1 422/17/1 423/13/1 375/1/1
f 377/13/2 375/1/2 421/5/2 424/17/2
f 375/5/3 423/17/3 425/13/3 421/1/3
f 424/1/4 421/5/4 425/17/4 426/13/4
f 422/1/5 426/5/5 425/17/5 423/13/5
f 377/1/6 424/5/6 426/17/6 422/13/6
f 387/5/1 389/17/1 380/13/1 378/1/1
f 387/13/2 378/1/2 428/5/2 427/17/2
f 378/5/3 380/17/3 429/13/3 428/1/3
f 427/1/4 428/5/4 429/17/4 430/13/4
f 389/1/5 430/5/5 429/17/5 380/13/5
f 387/1/6 427/5/6 430/17/6 389/13/6
f 389/5/1 431/17/1 382/13/1 380/1/1
f 389/13/2 380/1/2 429/5/2 430/17/2
f 380/5/3 382/17/3 432/13/3 429/1/3
f 430/1/4 429/5/4 432/17/4 433/13/4
f 431/1/5 433/5/5 432/17/5 382/13/5
f 389/1/6 430/5/6 433/17/6 431/13/6
f 434/5/1 437/17/1 387/13/1 385/1/1
f 434/13/2 385/1/2 435/5/2 436/17/2
f 385/5/3 387/17/3 427/13/3 435/1/3
f 436/1/4 435/5/4 427/17/4 438/13/4
f 437/1/5 438/5/5 427/17/5 387/13/5
f 434/1/6 436/5/6 438/17/6 437/13/6
f 437/5/1 439/17/1 389/13/1 387/1/1
f 437/13/2 387/1/2 427/5/2 438/17/2
f 387/5/3 389/17/3 430/13/3 427/1/3
f 438/1/4 427/5/4 430/17/4 440/13/4
f 439/1/5 440/5/5 430/17/5 389/13/5
f 437/1/6 438/5/6 440/17/6 439/13/6
f 407/5/1 410/17/1 409/13/1 406/1/1
f 407/13/2 406/1/2 441/5/2 443/17/2
f 406/5/3 409/17/3 442/13/3 441/1/3
f 443/1/4 441/5/4 442/17/4 444/13/4
f 410/1/5 444/5/5 442/17/5 409/13/5
f 407/1/6 443/5/6 444/17/6 410/13/6
f 410/5/1 413/17/1 412/13/1 409/1/1
f 410/13/2 409/1/2 442/5/2 444/17/2
f 409/5/3 412/17/3 445/13/3 442/1/3
f 444/1/4 442/5/4 445/17/4 446/13/4
f 413/1/5 446/5/5 445/17/5 412/13/5
f 410/1/6 444/5/6 446/17/6 413/13/6
f 413/5/1 417/17/1 447/13/1 412/1/1
f 413/13/2 412/1/2 445/5/2 446/17/2
f 412/5/3 447/17/3 448/13/3 445/1/3
f 446/1/4 445/5/4 448/17/4 449/13/4
f 417/1/5 449/5/5 448/17/5 447/13/5
f 413/1/6 446/5/6 449/17/6 417/13/6
f 421/5/1 425/17/1 452/13/1 418/1/1
f 421/13/2 418/1/2 451/5/2 453/17/2
f 418/5/3 452/17/3 454/13/3 451/1/3
f 453/1/4 451/5/4 454/17/4 455/13/4
f 425/1/5 455/5/5 454/17/5 452/13/5
f 421/1/6 453/5/6 455/17/6 425/13/6
f 432/5/1 456/17/1 426/13/1 424/1/1
f 432/13/2 424/1/2 458/5/2 457/17/2
f 424/5/3 426/17/3 459/13/3 458/1/3
f 457/1/4 458/5/4 459/17/4 460/13/4
f 456/1/5 460/5/5 459/17/5 426/13/5
f 432/1/6 457/5/6 460/17/6 456/13/6
f 436/5/1 438/17/1 427/13/1 435/1/1
f 436/13/2 435/1/2 464/5/2 465/17/2
f 435/5/3 427/17/3 466/13/3 464/1/3
f 465/1/4 464/5/4 466/17/4 467/13/4
f 438/1/5 467/5/5 466/17/5 427/13/5
f 436/1/6 465/5/6 467/17/6 438/13/6
f 438/5/1 440/17/1 430/13/1 427/1/1
f 438/13/2 427/1/2 466/5/2 467/17/2
f 427/5/3 430/17/3 461/13/3 466/1/3
f 467/1/4 466/5/4 461/17/4 468/13/4
f 440/1/5 468/5/5 461/17/5 430/13/5
f 438/1/6 467/5/6 468/17/6 440/13/6
f 440/5/1 469/17/1 433/13/1 430/1/1
f 440/13/2 430/1/2 461/5/2 468/17/2
f 430/5/3 433/17/3 463/13/3 461/1/3
f 468/1/4 461/5/4 463/17/4 470/13/4
f 469/1/5 470/5/5 463/17/5 433/13/5
f 440/1/6 468/5/6 470/17/6 469/13/6
f 443/5/1 444/17/1 442/13/1 441/1/1
f 443/13/2 441/1/2 491/5/2 492/17/2
f 441/5/3 442/17/3 493/13/3 491/1/3
f 492/1/4 491/5/4 493/17/4 494/13/4
f 444/1/5 494/5/5 493/17/5 442/13/5
f 443/1/6 492/5/6 494/17/6 444/13/6
f 444/5/1 446/17/1 445/13/1 442/1/1
f 444/13/2 442/1/2 493/5/2 494/17/2
f 442/5/3 445/17/3 495/13/3 493/1/3
f 494/1/4 493/5/4 495/17/4 496/13/4
f 446/1/5 496/5/5 495/17/5 445/13/5
f 444/1/6 494/5/6 496/17/6 446/13/6
f 497/5/1 450/17/1 446/13/1 444/1/1
f 497/13/2 444/1/2 494/5/2 498/17/2
f 444/5/3 446/17/3 496/13/3 494/1/3
f 498/1/4 494/5/4 496/17/4 499/13/4
f 450/1/5 499/5/5 496/17/5 446/13/5
f 497/1/6 498/5/6 499/17/6 450/13/6
f 450/5/1 451/17/1 449/13/1 446/1/1
f 450/13/2 446/1/2 496/5/2 499/17/2
f 446/5/3 449/17/3 500/13/3 496/1/3
f 499/1/4 496/5/4 500/17/4 501/13/4
f 451/1/5 501/5/5 500/17/5 449/13/5
f 450/1/6 499/5/6 501/17/6 451/13/6
f 458/5/1 459/17/1 455/13/1 453/1/1
f 458/13/2 453/1/2 505/5/2 506/17/2
f 453/5/3 455/17/3 507/13/3 505/1/3
f 506/1/4 505/5/4 507/17/4 508/13/4
f 459/1/5 508/5/5 507/17/5 455/13/5
f 458/1/6 506/5/6 508/17/6 459/13/6
f 462/5/1 457/17/1 458/13/1 502/1/1
f 462/13/2 502/1/2 503/5/2 509/17/2
f 502/5/3 458/17/3 506/13/3 503/1/3
f 509/1/4 503/5/4 506/17/4 510/13/4
f 457/1/5 510/5/5 506/17/5 458/13/5
f 462/1/6 509/5/6 510/17/6 457/13/6
f 466/5/1 461/17/1 462/13/1 511/1/1
f 466/13/2 511/1/2 513/5/2 512/17/2
f 511/5/3 462/17/3 509/13/3 513/1/3
f 512/1/4 513/5/4 509/17/4 514/13/4
f 461/1/5 514/5/5 509/17/5 462/13/5
f 466/1/6 512/5/6 514/17/6 461/13/6
f 461/5/1 463/17/1 457/13/1 462/1/1
f 461/13/2 462/1/2 509/5/2 514/17/2
f 462/5/3 457/17/3 510/13/3 509/1/3
f 514/1/4 509/5/4 510/17/4 515/13/4
f 463/1/5 515/5/5 510/17/5 457/13/5
f 461/1/6 514/5/6 515/17/6 463/13/6
f 465/5/1 467/17/1 466/13/1 464/1/1
f 465/13/2 464/1/2 516/5/2 517/17/2
f 464/5/3 466/17/3 512/13/3 516/1/3
f 517/1/4 516/5/4 512/17/4 518/13/4
f 467/1/5 518/5/5 512/17/5 466/13/5
f 465/1/6 517/5/6 518/17/6 467/13/6
f 467/5/1 468/17/1 461/13/1 466/1/1
f 467/13/2 466/1/2 512/5/2 518/17/2
f 466/5/3 461/17/3 514/13/3 512/1/3
f 518/1/4 512/5/4 514/17/4 519/13/4
f 468/1/5 519/5/5 514/17/5 461/13/5
f 467/1/6 518/5/6 519/17/6 468/13/6
f 474/5/1 476/17/1 475/13/1 471/1/1
f 474/13/2 471/1/2 536/5/2 539/17/2
f 471/5/3 475/17/3 540/13/3 536/1/3
f 539/1/4 536/5/4 540/17/4 541/13/4
f 476/1/5 541/5/5 540/17/5 475/13/5
f 474/1/6 539/5/6 541/17/6 476/13/6
f 476/5/1 478/17/1 477/13/1 475/1/1
f 476/13/2 475/1/2 540/5/2 541/17/2
f 475/5/3 477/17/3 542/13/3 540/1/3
f 541/1/4 540/5/4 542/17/4 543/13/4
f 478/1/5 543/5/5 542/17/5 477/13/5
f 476/1/6 541/5/6 543/17/6 478/13/6
f 478/5/1 489/17/1 544/13/1 477/1/1
f 478/13/2 477/1/2 542/5/2 543/17/2
f 477/5/3 544/17/3 545/13/3 542/1/3
f 543/1/4 542/5/4 545/17/4 546/13/4
f 489/1/5 546/5/5 545/17/5 544/13/5
f 478/1/6 543/5/6 546/17/6 489/13/6
f 489/5/1 547/17/1 548/13/1 544/1/1
f 489/13/2 544/1/2 545/5/2 546/17/2
f 544/5/3 548/17/3 549/13/3 545/1/3
f 546/1/4 545/5/4 549/17/4 550/13/4
f 547/1/5 550/5/5 549/17/5 548/13/5
f 489/1/6 546/5/6 550/17/6 547/13/6
f 547/5/1 551/17/1 552/13/1 548/1/1
f 547/13/2 548/1/2 549/5/2 550/17/2
f 548/5/3 552/17/3 553/13/3 549/1/3
f 550/1/4 549/5/4 553/17/4 554/13/4
f 551/1/5 554/5/5 553/17/5 552/13/5
f 547/1/6 550/5/6 554/17/6 551/13/6
f 551/5/1 490/17/1 555/13/1 552/1/1
f 551/13/2 552/1/2 553/5/2 554/17/2
f 552/5/3 555/17/3 556/13/3 553/1/3
f 554/1/4 553/5/4 556/17/4 557/13/4
f 490/1/5 557/5/5 556/17/5 555/13/5
f 551/1/6 554/5/6 557/17/6 490/13/6
f 490/5/1 479/17/1 480/13/1 555/1/1
f 490/13/2 555/1/2 556/5/2 557/17/2
f 555/5/3 480/17/3 558/13/3 556/1/3
f 557/1/4 556/5/4 558/17/4 559/13/4
f 479/1/5 559/5/5 558/17/5 480/13/5
f 490/1/6 557/5/6 559/17/6 479/13/6
f 479/5/1 482/17/1 481/13/1 480/1/1
f 479/13/2 480/1/2 558/5/2 559/17/2
f 480/5/3 481/17/3 560/13/3 558/1/3
f 559/1/4 558/5/4 560/17/4 561/13/4
f 482/1/5 561/5/5 560/17/5 481/13/5
f 479/1/6 559/5/6 561/17/6 482/13/6
f 482/5/1 484/17/1 483/13/1 481/1/1
f 482/13/2 481/1/2 560/5/2 561/17/2
f 481/5/3 483/17/3 562/13/3 560/1/3
f 561/1/4 560/5/4 562/17/4 563/13/4
f 484/1/5 563/5/5 562/17/5 483/13/5
f 482/1/6 561/5/6 563/17/6 484/13/6
f 484/5/1 486/17/1 485/13/1 483/1/1
f 484/13/2 483/1/2 562/5/2 563/17/2
f 483/5/3 485/17/3 564/13/3 562/1/3
f 563/1/4 562/5/4 564/17/4 565/13/4
f 486/1/5 565/5/5 564/17/5 485/13/5
f 484/1/6 563/5/6 565/17/6 486/13/6
f 486/5/1 487/17/1 472/13/1 485/1/1
f 486/13/2 485/1/2 564/5/2 565/17/2
f 485/5/3 472/17/3 537/13/3 564/1/3
f 565/1/4 564/5/4 537/17/4 566/13/4
f 487/1/5 566/5/5 537/17/5 472/13/5
f 486/1/6 565/5/6 566/17/6 487/13/6
f 487/5/1 488/17/1 473/13/1 472/1/1
f 487/13/2 472/1/2 537/5/2 566/17/2
f 472/5/3 473/17/3 538/13/3 537/1/3
f 566/1/4 537/5/4 538/17/4 567/13/4
f 488/1/5 567/5/5 538/17/5 473/13/5
f 487/1/6 566/5/6 567/17/6 488/13/6
f 568/5/1 498/17/1 494/13/1 492/1/1
f 568/13/2 492/1/2 569/5/2 570/17/2
f 492/5/3 494/17/3 571/13/3 569/1/3
f 570/1/4 569/5/4 571/17/4 572/13/4
f 498/1/5 572/5/5 571/17/5 494/13/5
f 568/1/6 570/5/6 572/17/6 498/13/6
f 498/5/1 499/17/1 496/13/1 494/1/1
f 498/13/2 494/1/2 571/5/2 572/17/2
f 494/5/3 496/17/3 573/13/3 571/1/3
f 572/1/4 571/5/4 573/17/4 574/13/4
f 499/1/5 574/5/5 573/17/5 496/13/5
f 498/1/6 572/5/6 574/17/6 499/13/6
f 575/5/1 504/17/1 499/13/1 498/1/1
f 575/13/2 498/1/2 572/5/2 576/17/2
f 498/5/3 499/17/3 574/13/3 572/1/3
f 576/1/4 572/5/4 574/17/4 577/13/4
f 504/1/5 577/5/5 574/17/5 499/13/5
f 575/1/6 576/5/6 577/17/6 504/13/6
f 504/5/1 505/17/1 501/13/1 499/1/1
f 504/13/2 499/1/2 574/5/2 577/17/2
f 499/5/3 501/17/3 578/13/3 574/1/3
f 577/1/4 574/5/4 578/17/4 579/13/4
f 505/1/5 579/5/5 578/17/5 501/13/5
f 504/1/6 577/5/6 579/17/6 505/13/6
f 513/5/1 509/17/1 503/13/1 582/1/1
f 513/13/2 582/1/2 584/5/2 583/17/2
f 582/5/3 503/17/3 580/13/3 584/1/3
f 583/1/4 584/5/4 580/17/4 585/13/4
f 509/1/5 585/5/5 580/17/5 503/13/5
f 513/1/6 583/5/6 585/17/6 509/13/6
f 509/5/1 510/17/1 506/13/1 503/1/1
f 509/13/2 503/1/2 580/5/2 585/17/2
f 503/5/3 506/17/3 581/13/3 580/1/3
f 585/1/4 580/5/4 581/17/4 586/13/4
f 510/1/5 586/5/5 581/17/5 506/13/5
f 509/1/6 585/5/6 586/17/6 510/13/6
f 516/5/1 512/17/1 513/13/1 587/1/1
f 516/13/2 587/1/2 588/5/2 589/17/2
f 587/5/3 513/17/3 583/13/3 588/1/3
f 589/1/4 588/5/4 583/17/4 590/13/4
f 512/1/5 590/5/5 583/17/5 513/13/5
f 516/1/6 589/5/6 590/17/6 512/13/6
f 512/5/1 514/17/1 509/13/1 513/1/1
f 512/13/2 513/1/2 583/5/2 590/17/2
f 513/5/3 509/17/3 585/13/3 583/1/3
f 590/1/4 583/5/4 585/17/4 591/13/4
f 514/1/5 591/5/5 585/17/5 509/13/5
f 512/1/6 590/5/6 591/17/6 514/13/6
f 524/5/1 525/17/1 521/13/1 520/1/1
f 524/13/2 520/1/2 592/5/2 599/17/2
f 520/5/3 521/17/3 593/13/3 592/1/3
f 599/1/4 592/5/4 593/17/4 600/13/4
f 525/1/5 600/5/5 593/17/5 521/13/5
f 524/1/6 599/5/6 600/17/6 525/13/6
f 525/5/1 526/17/1 522/13/1 521/1/1
f 525/13/2 521/1/2 593/5/2 600/17/2
f 521/5/3 522/17/3 594/13/3 593/1/3
f 600/1/4 593/5/4 594/17/4 601/13/4
f 526/1/5 601/5/5 594/17/5 522/13/5
f 525/1/6 600/5/6 601/17/6 526/13/6
f 526/5/1 528/17/1 527/13/1 522/1/1
f 526/13/2 522/1/2 594/5/2 601/17/2
f 522/5/3 527/17/3 595/13/3 594/1/3
f 601/1/4 594/5/4 595/17/4 602/13/4
f 528/1/5 602/5/5 595/17/5 527/13/5
f 526/1/6 601/5/6 602/17/6 528/13/6
f 528/5/1 530/17/1 529/13/1 527/1/1
f 528/13/2 527/1/2 595/5/2 602/17/2
f 527/5/3 529/17/3 603/13/3 595/1/3
f 602/1/4 595/5/4 603/17/4 604/13/4
f 530/1/5 604/5/5 603/17/5 529/13/5
f 528/1/6 602/5/6 604/17/6 530/13/6
f 530/5/1 532/17/1 531/13/1 529/1/1
f 530/13/2 529/1/2 603/5/2 604/17/2
f 529/5/3 531/17/3 596/13/3 603/1/3
f 604/1/4 603/5/4 596/17/4 605/13/4
f 532/1/5 605/5/5 596/17/5 531/13/5
f 530/1/6 604/5/6 605/17/6 532/13/6
f 532/5/1 534/17/1 533/13/1 531/1/1
f 532/13/2 531/1/2 596/5/2 605/17/2
f 531/5/3 533/17/3 597/13/3 596/1/3
f 605/1/4 596/5/4 597/17/4 606/13/4
f 534/1/5 606/5/5 597/17/5 533/13/5
f 532/1/6 605/5/6 606/17/6 534/13/6
f 534/5/1 535/17/1 523/13/1 533/1/1
f 534/13/2 533/1/2 597/5/2 606/17/2
f 533/5/3 523/17/3 598/13/3 597/1/3
f 606/1/4 597/5/4 598/17/4 607/13/4
f 535/1/5 607/5/5 598/17/5 523/13/5
f 534/1/6 606/5/6 607/17/6 535/13/6
f 608/5/1 576/17/1 572/13/1 570/1/1
f 608/13/2 570/1/2 609/5/2 610/17/2
f 570/5/3 572/17/3 611/13/3 609/1/3
f 610/1/4 609/5/4 611/17/4 612/13/4
f 576/1/5 612/5/5 611/17/5 572/13/5
f 608/1/6 610/5/6 612/17/6 576/13/6
f 576/5/1 577/17/1 574/13/1 572/1/1
f 576/13/2 572/1/2 611/5/2 612/17/2
f 572/5/3 574/17/3 613/13/3 611/1/3
f 612/1/4 611/5/4 613/17/4 614/13/4
f 577/1/5 614/5/5 613/17/5 574/13/5
f 576/1/6 612/5/6 614/17/6 577/13/6
f 615/5/1 584/17/1 576/13/1 608/1/1
f 615/13/2 608/1/2 610/5/2 616/17/2
f 608/5/3 576/17/3 612/13/3 610/1/3
f 616/1/4 610/5/4 612/17/4 617/13/4
f 584/1/5 617/5/5 612/17/5 576/13/5
f 615/1/6 616/5/6 617/17/6 584/13/6
f 584/5/1 580/17/1 577/13/1 576/1/1
f 584/13/2 576/1/2 612/5/2 617/17/2
f 576/5/3 577/17/3 614/13/3 612/1/3
f 617/1/4 612/5/4 614/17/4 618/13/4
f 580/1/5 618/5/5 614/17/5 577/13/5
f 584/1/6 617/5/6 618/17/6 580/13/6
f 580/5/1 581/17/1 579/13/1 577/1/1
f 580/13/2 577/1/2 614/5/2 618/17/2
f 577/5/3 579/17/3 619/13/3 614/1/3
f 618/1/4 614/5/4 619/17/4 620/13/4
f 581/1/5 620/5/5 619/17/5 579/13/5
f 580/1/6 618/5/6 620/17/6 581/13/6
f 588/5/1 583/17/1 584/13/1 615/1/1
f 588/13/2 615/1/2 616/5/2 621/17/2
f 615/5/3 584/17/3 617/13/3 616/1/3
f 621/1/4 616/5/4 617/17/4 622/13/4
f 583/1/5 622/5/5 617/17/5 584/13/5
f 588/1/6 621/5/6 622/17/6 583/13/6
f 583/5/1 585/17/1 580/13/1 584/1/1
f 583/13/2 584/1/2 617/5/2 622/17/2
f 584/5/3 580/17/3 618/13/3 617/1/3
f 622/1/4 617/5/4 618/17/4 623/13/4
f 585/1/5 623/5/5 618/17/5 580/13/5
f 583/1/6 622/5/6 623/17/6 585/13/6
f 632/5/1 633/17/1 625/13/1 624/1/1
f 632/13/2 624/1/2 646/5/2 649/17/2
f 624/5/3 625/17/3 650/13/3 646/1/3
f 649/1/4 646/5/4 650/17/4 651/13/4
f 633/1/5 651/5/5 650/17/5 625/13/5
f 632/1/6 649/5/6 651/17/6 633/13/6
f 633/5/1 634/17/1 626/13/1 625/1/1
f 633/13/2 625/1/2 650/5/2 651/17/2
f 625/5/3 626/17/3 652/13/3 650/1/3
f 651/1/4 650/5/4 652/17/4 653/13/4
f 634/1/5 653/5/5 652/17/5 626/13/5
f 633/1/6 651/5/6 653/17/6 634/13/6
f 634/5/1 654/17/1 627/13/1 626/1/1
f 634/13/2 626/1/2 652/5/2 653/17/2
f 626/5/3 627/17/3 655/13/3 652/1/3
f 653/1/4 652/5/4 655/17/4 656/13/4
f 654/1/5 656/5/5 655/17/5 627/13/5
f 634/1/6 653/5/6 656/17/6 654/13/6
f 654/5/1 657/17/1 628/13/1 627/1/1
f 654/13/2 627/1/2 655/5/2 656/17/2
f 627/5/3 628/17/3 658/13/3 655/1/3
f 656/1/4 655/5/4 658/17/4 659/13/4
f 657/1/5 659/5/5 658/17/5 628/13/5
f 654/1/6 656/5/6 659/17/6 657/13/6
f 657/5/1 660/17/1 629/13/1 628/1/1
f 657/13/2 628/1/2 658/5/2 659/17/2
f 628/5/3 629/17/3 661/13/3 658/1/3
f 659/1/4 658/5/4 661/17/4 662/13/4
f 660/1/5 662/5/5 661/17/5 629/13/5
f 657/1/6 659/5/6 662/17/6 660/13/6
f 660/5/1 663/17/1 630/13/1 629/1/1
f 660/13/2 629/1/2 661/5/2 662/17/2
f 629/5/3 630/17/3 647/13/3 661/1/3
f 662/1/4 661/5/4 647/17/4 664/13/4
f 663/1/5 664/5/5 647/17/5 630/13/5
f 660/1/6 662/5/6 664/17/6 663/13/6
f 663/5/1 635/17/1 631/13/1 630/1/1
f 663/13/2 630/1/2 647/5/2 664/17/2
f 630/5/3 631/17/3 648/13/3 647/1/3
f 664/1/4 647/5/4 648/17/4 665/13/4
f 635/1/5 665/5/5 648/17/5 631/13/5
f 663/1/6 664/5/6 665/17/6 635/13/6
f 639/5/1 640/17/1 637/13/1 636/1/1
f 639/13/2 636/1/2 666/5/2 677/17/2
f 636/5/3 637/17/3 667/13/3 666/1/3
f 677/1/4 666/5/4 667/17/4 678/13/4
f 640/1/5 678/5/5 667/17/5 637/13/5
f 639/1/6 677/5/6 678/17/6 640/13/6
f 640/5/1 642/17/1 668/13/1 637/1/1
f 640/13/2 637/1/2 667/5/2 678/17/2
f 637/5/3 668/17/3 669/13/3 667/1/3
f 678/1/4 667/5/4 669/17/4 679/13/4
f 642/1/5 679/5/5 669/17/5 668/13/5
f 640/1/6 678/5/6 679/17/6 642/13/6
f 642/5/1 643/17/1 670/13/1 668/1/1
f 642/13/2 668/1/2 669/5/2 679/17/2
f 668/5/3 670/17/3 671/13/3 669/1/3
f 679/1/4 669/5/4 671/17/4 680/13/4
f 643/1/5 680/5/5 671/17/5 670/13/5
f 642/1/6 679/5/6 680/17/6 643/13/6
f 643/5/1 644/17/1 672/13/1 670/1/1
f 643/13/2 670/1/2 671/5/2 680/17/2
f 670/5/3 672/17/3 673/13/3 671/1/3
f 680/1/4 671/5/4 673/17/4 681/13/4
f 644/1/5 681/5/5 673/17/5 672/13/5
f 643/1/6 680/5/6 681/17/6 644/13/6
f 644/5/1 645/17/1 674/13/1 672/1/1
f 644/13/2 672/1/2 673/5/2 681/17/2
f 672/5/3 674/17/3 675/13/3 673/1/3
f 681/1/4 673/5/4 675/17/4 682/13/4
f 645/1/5 682/5/5 675/17/5 674/13/5
f 644/1/6 681/5/6 682/17/6 645/13/6
f 645/5/1 641/17/1 638/13/1 674/1/1
f 645/13/2 674/1/2 675/5/2 682/17/2
f 674/5/3 638/17/3 676/13/3 675/1/3
f 682/1/4 675/5/4 676/17/4 683/13/4
f 641/1/5 683/5/5 676/17/5 638/13/5
f 645/1/6 682/5/6 683/17/6 641/13/6
