mtllib lighthouse.mtl
usemtl orange_tulip
v -11.0917 5 -9.98407
v -10.1854 5 -9.07782
v -10.1854 6 -9.07782
v -11.0917 6 -9.98407
v -11.0917 5 -9.07782
v -10.1854 5 -9.98407
v -10.1854 6 -9.98407
v -11.0917 6 -9.07782
v -9.98279 4 -15.0064
v -9.07654 4 -14.1002
v -9.07654 5 -14.1002
v -9.98279 5 -15.0064
v -9.98279 4 -14.1002
v -9.07654 4 -15.0064
v -9.07654 5 -15.0064
v -9.98279 5 -14.1002
v -9.78127 6 -7.78041
v -8.87502 6 -6.87416
v -8.87502 7 -6.87416
v -9.78127 7 -7.78041
v -9.78127 6 -6.87416
v -8.87502 6 -7.78041
v -8.87502 7 -7.78041
v -9.78127 7 -6.87416
v -7.95304 4 -13.7657
v -7.04679 4 -12.8594
v -7.04679 5 -12.8594
v -7.95304 5 -13.7657
v -7.95304 4 -12.8594
v -7.04679 4 -13.7657
v -7.04679 5 -13.7657
v -7.95304 5 -12.8594
v -7.884 4 -9.95878
v -6.97775 4 -9.05253
v -6.97775 5 -9.05253
v -7.884 5 -9.95878
v -7.884 4 -9.05253
v -6.97775 4 -9.95878
v -6.97775 5 -9.95878
v -7.884 5 -9.05253
v -7.97912 7 -4.10578
v -7.07287 7 -3.19953
v -7.07287 8 -3.19953
v -7.97912 8 -4.10578
v -7.97912 7 -3.19953
v -7.07287 7 -4.10578
v -7.07287 8 -4.10578
v -7.97912 8 -3.19953
v -6.822 4 -9.97693
v -5.91575 4 -9.07068
v -5.91575 5 -9.07068
v -6.822 5 -9.97693
v -6.822 4 -9.07068
v -5.91575 4 -9.97693
v -5.91575 5 -9.97693
v -6.822 5 -9.07068
v -6.81528 4 -8.81461
v -5.90903 4 -7.90836
v -5.90903 5 -7.90836
v -6.81528 5 -8.81461
v -6.81528 4 -7.90836
v -5.90903 4 -8.81461
v -5.90903 5 -8.81461
v -6.81528 5 -7.90836
v -7.0443 9 4.13205
v -6.13805 9 5.0383
v -6.13805 10 5.0383
v -7.0443 10 4.13205
v -7.0443 9 5.0383
v -6.13805 9 4.13205
v -6.13805 10 4.13205
v -7.0443 10 5.0383
v -5.96561 3 -12.9623
v -5.05936 3 -12.056
v -5.05936 4 -12.056
v -5.96561 4 -12.9623
v -5.96561 3 -12.056
v -5.05936 3 -12.9623
v -5.05936 4 -12.9623
v -5.96561 4 -12.056
v -5.83646 4 -11.9636
v -4.93021 4 -11.0573
v -4.93021 5 -11.0573
v -5.83646 5 -11.9636
v -5.83646 4 -11.0573
v -4.93021 4 -11.9636
v -4.93021 5 -11.9636
v -5.83646 5 -11.0573
v -5.06844 3 -11.9851
v -4.16219 3 -11.0789
v -4.16219 4 -11.0789
v -5.06844 4 -11.9851
v -5.06844 3 -11.0789
v -4.16219 3 -11.9851
v -4.16219 4 -11.9851
v -5.06844 4 -11.0789
vt 0.000000000 0.000000000
vt 1.000000000 0.000000000
vt 0.000000000 1.000000000
vt 1.000000000 1.000000000
vn -0.707107 0 0.707107
vn 0.707107 0 0.707107
f 1/1/1 2/2/1 3/4/1 4/3/1
f 5/1/2 6/2/2 7/4/2 8/3/2
f 9/1/1 10/2/1 11/4/1 12/3/1
f 13/1/2 14/2/2 15/4/2 16/3/2
f 17/1/1 18/2/1 19/4/1 20/3/1
f 21/1/2 22/2/2 23/4/2 24/3/2
f 25/1/1 26/2/1 27/4/1 28/3/1
f 29/1/2 30/2/2 31/4/2 32/3/2
f 33/1/1 34/2/1 35/4/1 36/3/1
f 37/1/2 38/2/2 39/4/2 40/3/2
f 41/1/1 42/2/1 43/4/1 44/3/1
f 45/1/2 46/2/2 47/4/2 48/3/2
f 49/1/1 50/2/1 51/4/1 52/3/1
f 53/1/2 54/2/2 55/4/2 56/3/2
f 57/1/1 58/2/1 59/4/1 60/3/1
f 61/1/2 62/2/2 63/4/2 64/3/2
f 65/1/1 66/2/1 67/4/1 68/3/1
f 69/1/2 70/2/2 71/4/2 72/3/2
f 73/1/1 74/2/1 75/4/1 76/3/1
f 77/1/2 78/2/2 79/4/2 80/3/2
f 81/1/1 82/2/1 83/4/1 84/3/1
f 85/1/2 86/2/2 87/4/2 88/3/2
f 89/1/1 90/2/1 91/4/1 92/3/1
f 93/1/2 94/2/2 95/4/2 96/3/2
