mtllib lighthouse.mtl
usemtl spruce_planks
v -5.10417 11.2812 2
v -5.02083 11.2812 2
v -5.10417 11.7812 2
v -5.02083 11.7812 2
v -5.10417 11.2812 1
v -5.02083 11.2812 1
v -5.10417 11.7812 1
v -5.02083 11.7812 1
v -4 11.5 -1
v -4 11.5 0
v -4 12 -1
v -4 12 0
v -3 11.5 -1
v -3 11.5 0
v -3 12 -1
v -3 12 0
v -4 11 0
v -4 11 1
v -4 11.5 0
v -4 11.5 1
v -3 11 0
v -3 11 1
v -3 11.5 0
v -3 11.5 1
v -4 10.5 1
v -4 10.5 2
v -4 11 1
v -4 11 2
v -3 10.5 1
v -3 10.5 2
v -3 11 1
v -3 11 2
v -4 10 2
v -4 10 3
v -4 10.5 2
v -4 10.5 3
v -3 10 2
v -3 10 3
v -3 10.5 2
v -3 10.5 3
v -4 9.5 3
v -4 9.5 4
v -4 10 3
v -4 10 4
v -3 9.5 3
v -3 9.5 4
v -3 10 3
v -3 10 4
v -3 11.5 -1
v -3 11.5 0
v -3 12 -1
v -3 12 0
v -2 11.5 -1
v -2 11.5 0
v -2 12 -1
v -2 12 0
v -3 11.5 0
v -3 11.5 1
v -3 12 0
v -3 12 1
v -2 11.5 0
v -2 11.5 1
v -2 12 0
v -2 12 1
v -3 10.5 1
v -3 10.5 2
v -3 11 1
v -3 11 2
v -2 10.5 1
v -2 10.5 2
v -2 11 1
v -2 11 2
v -3 9 3
v -3 9 4
v -3 9.5 3
v -3 9.5 4
v -2 9 3
v -2 9 4
v -2 9.5 3
v -2 9.5 4
v -3 9 4
v -3 9 5
v -3 9.5 4
v -3 9.5 5
v -2 9 4
v -2 9 5
v -2 9.5 4
v -2 9.5 5
v -3 13.5 4
v -3 13.5 5
v -3 14 4
v -3 14 5
v -2 13.5 4
v -2 13.5 5
v -2 14 4
v -2 14 5
v -2 11.5 -1
v -2 11.5 0
v -2 12 -1
v -2 12 0
v -1 11.5 -1
v -1 11.5 0
v -1 12 -1
v -1 12 0
v -2 12 -1
v -2 12 0
v -2 12.5 -1
v -2 12.5 0
v -1 12 -1
v -1 12 0
v -1 12.5 -1
v -1 12.5 0
v -2 13 1
v -2 13 2
v -2 13.5 1
v -2 13.5 2
v -1 13 1
v -1 13 2
v -1 13.5 1
v -1 13.5 2
v -2 9 3
v -2 9 4
v -2 9.5 3
v -2 9.5 4
v -1 9 3
v -1 9 4
v -1 9.5 3
v -1 9.5 4
v -2 13.5 4
v -2 13.5 5
v -2 14 4
v -2 14 5
v -1 13.5 4
v -1 13.5 5
v -1 14 4
v -1 14 5
v -2 13.5 5
v -2 13.5 6
v -2 14 5
v -2 14 6
v -1 13.5 5
v -1 13.5 6
v -1 14 5
v -1 14 6
v -1 13.5 4
v -1 13.5 5
v -1 14 4
v -1 14 5
v 0 13.5 4
v 0 13.5 5
v 0 14 4
v 0 14 5
v -1 13.5 5
v -1 13.5 6
v -1 14 5
v -1 14 6
v 0 13.5 5
v 0 13.5 6
v 0 14 5
v 0 14 6
v 0 13.5 4
v 0 13.5 5
v 0 14 4
v 0 14 5
v 1 13.5 4
v 1 13.5 5
v 1 14 4
v 1 14 5
v 0 13.5 5
v 0 13.5 6
v 0 14 5
v 0 14 6
v 1 13.5 5
v 1 13.5 6
v 1 14 5
v 1 14 6
v 1 13.5 4
v 1 13.5 5
v 1 14 4
v 1 14 5
v 2 13.5 4
v 2 13.5 5
v 2 14 4
v 2 14 5
v 1 13.5 5
v 1 13.5 6
v 1 14 5
v 1 14 6
v 2 13.5 5
v 2 13.5 6
v 2 14 5
v 2 14 6
v 2 13.5 4
v 2 13.5 5
v 2 14 4
v 2 14 5
v 3 13.5 4
v 3 13.5 5
v 3 14 4
v 3 14 5
v 2 13.5 5
v 2 13.5 6
v 2 14 5
v 2 14 6
v 3 13.5 5
v 3 13.5 6
v 3 14 5
v 3 14 6
v -3 14 3
v -3 14 4
v -3 13 4
v -2 12 1
v -2 13 1
v -2 13 2
v -2 14 2
v -3 13 3
v -2 13 3
v -2 14 3
v -2 13 4
v -2 14 4
v -2 12 0
v -2 13 0
v -1 12 1
v -1 12 0
v -1 13 0
v -1 13 1
v -1 13 2
v -1 13 3
v -1 14 2
v -1 14 3
v -1 13 4
v -1 14 4
v 0 13 3
v 0 14 3
v 0 13 4
v 0 14 4
v 1 13 3
v 1 14 3
v 1 13 4
v 1 14 4
v 2 13 3
v 2 14 3
v 2 13 4
v 2 14 4
v 3 13 3
v 3 14 3
v 3 13 4
v 3 14 4
v 3 14 5
v 3 13 5
v 4 13 4
v 4 14 4
v 4 13 5
v 4 14 5
v 12 1 10
v 12 2 10
v 12 1 11
v 12 2 11
v 12 1 12
v 12 2 12
v 13 1 7
v 13 2 7
v 13 1 8
v 13 2 8
v 13 1 9
v 13 2 9
v 13 1 10
v 13 2 10
v 13 1 11
v 13 2 11
v 13 1 12
v 13 2 12
v 14 1 7
v 14 2 7
v 14 1 8
v 14 2 8
v 14 1 9
v 14 2 9
v 14 1 10
v 14 2 10
v 14 1 11
v 14 2 11
v 14 0 7
v 15 0 7
v 15 1 7
v 14 0 8
v 15 0 8
v 15 1 8
v 15 2 8
v 15 1 9
v 15 2 9
v 15 1 10
v 15 2 10
vt 0.000000000 0.000000000
vt 0.437500000 0.000000000
vt 0.562500000 0.000000000
vt 1.000000000 0.000000000
vt 0.000000000 0.437500000
vt 1.000000000 0.437500000
vt 0.000000000 0.500000000
vt 1.000000000 0.500000000
vt 0.000000000 0.562500000
vt 1.000000000 0.562500000
vt 0.000000000 0.750000000
vt 0.437500000 0.750000000
vt 0.562500000 0.750000000
vt 1.000000000 0.750000000
vt 0.000000000 1.000000000
vt 1.000000000 1.000000000
vn -1 0 0
vn 0 -1 0
vn 0 0 -1
vn 1 0 0
vn 0 1 0
vn 0 0 1
f 4/13/6 3/12/6 1/2/6 2/3/6
f 2/9/2 1/5/2 5/6/2 6/10/2
f 7/11/1 5/1/1 1/4/1 3/14/1
f 8/12/3 6/2/3 5/3/3 7/13/3
f 7/10/5 3/9/5 4/5/5 8/6/5
f 8/14/4 4/11/4 2/1/4 6/4/4
f 11/15/1 9/7/1 10/8/1 12/16/1
f 10/15/2 9/1/2 13/4/2 14/16/2
f 15/15/3 13/7/3 9/8/3 11/16/3
f 15/16/4 16/15/4 14/7/4 13/8/4
f 15/16/5 11/15/5 12/1/5 16/4/5
f 16/16/6 12/15/6 10/7/6 14/8/6
f 19/7/1 17/1/1 18/4/1 20/8/1
f 18/15/2 17/1/2 21/4/2 22/16/2
f 23/7/3 21/1/3 17/4/3 19/8/3
f 23/8/4 24/7/4 22/1/4 21/4/4
f 23/16/5 19/15/5 20/1/5 24/4/5
f 24/8/6 20/7/6 18/1/6 22/4/6
f 27/15/1 25/7/1 26/8/1 28/16/1
f 26/15/2 25/1/2 29/4/2 30/16/2
f 31/15/3 29/7/3 25/8/3 27/16/3
f 31/16/4 32/15/4 30/7/4 29/8/4
f 31/16/5 27/15/5 28/1/5 32/4/5
f 32/16/6 28/15/6 26/7/6 30/8/6
f 35/7/1 33/1/1 34/4/1 36/8/1
f 34/15/2 33/1/2 37/4/2 38/16/2
f 39/7/3 37/1/3 33/4/3 35/8/3
f 39/8/4 40/7/4 38/1/4 37/4/4
f 39/16/5 35/15/5 36/1/5 40/4/5
f 40/8/6 36/7/6 34/1/6 38/4/6
f 43/15/1 41/7/1 42/8/1 44/16/1
f 42/15/2 41/1/2 45/4/2 46/16/2
f 47/15/3 45/7/3 41/8/3 43/16/3
f 47/16/4 48/15/4 46/7/4 45/8/4
f 47/16/5 43/15/5 44/1/5 48/4/5
f 48/16/6 44/15/6 42/7/6 46/8/6
f 51/15/1 49/7/1 50/8/1 52/16/1
f 50/15/2 49/1/2 53/4/2 54/16/2
f 55/15/3 53/7/3 49/8/3 51/16/3
f 55/16/4 56/15/4 54/7/4 53/8/4
f 55/16/5 51/15/5 52/1/5 56/4/5
f 56/16/6 52/15/6 50/7/6 54/8/6
f 59/15/1 57/7/1 58/8/1 60/16/1
f 58/15/2 57/1/2 61/4/2 62/16/2
f 63/15/3 61/7/3 57/8/3 59/16/3
f 63/16/4 64/15/4 62/7/4 61/8/4
f 63/16/5 59/15/5 60/1/5 64/4/5
f 64/16/6 60/15/6 58/7/6 62/8/6
f 67/15/1 65/7/1 66/8/1 68/16/1
f 66/15/2 65/1/2 69/4/2 70/16/2
f 71/15/3 69/7/3 65/8/3 67/16/3
f 71/16/4 72/15/4 70/7/4 69/8/4
f 71/16/5 67/15/5 68/1/5 72/4/5
f 72/16/6 68/15/6 66/7/6 70/8/6
f 75/7/1 73/1/1 74/4/1 76/8/1
f 74/15/2 73/1/2 77/4/2 78/16/2
f 79/7/3 77/1/3 73/4/3 75/8/3
f 79/8/4 80/7/4 78/1/4 77/4/4
f 79/16/5 75/15/5 76/1/5 80/4/5
f 80/8/6 76/7/6 74/1/6 78/4/6
f 83/7/1 81/1/1 82/4/1 84/8/1
f 82/15/2 81/1/2 85/4/2 86/16/2
f 87/7/3 85/1/3 81/4/3 83/8/3
f 87/8/4 88/7/4 86/1/4 85/4/4
f 87/16/5 83/15/5 84/1/5 88/4/5
f 88/8/6 84/7/6 82/1/6 86/4/6
f 91/15/1 89/7/1 90/8/1 92/16/1
f 90/15/2 89/1/2 93/4/2 94/16/2
f 95/15/3 93/7/3 89/8/3 91/16/3
f 95/16/4 96/15/4 94/7/4 93/8/4
f 95/16/5 91/15/5 92/1/5 96/4/5
f 96/16/6 92/15/6 90/7/6 94/8/6
f 99/15/1 97/7/1 98/8/1 100/16/1
f 98/15/2 97/1/2 101/4/2 102/16/2
f 103/15/3 101/7/3 97/8/3 99/16/3
f 103/16/4 104/15/4 102/7/4 101/8/4
f 103/16/5 99/15/5 100/1/5 104/4/5
f 104/16/6 100/15/6 98/7/6 102/8/6
f 107/7/1 105/1/1 106/4/1 108/8/1
f 106/15/2 105/1/2 109/4/2 110/16/2
f 111/7/3 109/1/3 105/4/3 107/8/3
f 111/8/4 112/7/4 110/1/4 109/4/4
f 111/16/5 107/15/5 108/1/5 112/4/5
f 112/8/6 108/7/6 106/1/6 110/4/6
f 115/7/1 113/1/1 114/4/1 116/8/1
f 114/15/2 113/1/2 117/4/2 118/16/2
f 119/7/3 117/1/3 113/4/3 115/8/3
f 119/8/4 120/7/4 118/1/4 117/4/4
f 119/16/5 115/15/5 116/1/5 120/4/5
f 120/8/6 116/7/6 114/1/6 118/4/6
f 123/7/1 121/1/1 122/4/1 124/8/1
f 122/15/2 121/1/2 125/4/2 126/16/2
f 127/7/3 125/1/3 121/4/3 123/8/3
f 127/8/4 128/7/4 126/1/4 125/4/4
f 127/16/5 123/15/5 124/1/5 128/4/5
f 128/8/6 124/7/6 122/1/6 126/4/6
f 131/15/1 129/7/1 130/8/1 132/16/1
f 130/15/2 129/1/2 133/4/2 134/16/2
f 135/15/3 133/7/3 129/8/3 131/16/3
f 135/16/4 136/15/4 134/7/4 133/8/4
f 135/16/5 131/15/5 132/1/5 136/4/5
f 136/16/6 132/15/6 130/7/6 134/8/6
f 139/15/1 137/7/1 138/8/1 140/16/1
f 138/15/2 137/1/2 141/4/2 142/16/2
f 143/15/3 141/7/3 137/8/3 139/16/3
f 143/16/4 144/15/4 142/7/4 141/8/4
f 143/16/5 139/15/5 140/1/5 144/4/5
f 144/16/6 140/15/6 138/7/6 142/8/6
f 147/15/1 145/7/1 146/8/1 148/16/1
f 146/15/2 145/1/2 149/4/2 150/16/2
f 151/15/3 149/7/3 145/8/3 147/16/3
f 151/16/4 152/15/4 150/7/4 149/8/4
f 151/16/5 147/15/5 148/1/5 152/4/5
f 152/16/6 148/15/6 146/7/6 150/8/6
f 155/15/1 153/7/1 154/8/1 156/16/1
f 154/15/2 153/1/2 157/4/2 158/16/2
f 159/15/3 157/7/3 153/8/3 155/16/3
f 159/16/4 160/15/4 158/7/4 157/8/4
f 159/16/5 155/15/5 156/1/5 160/4/5
f 160/16/6 156/15/6 154/7/6 158/8/6
f 163/15/1 161/7/1 162/8/1 164/16/1
f 162/15/2 161/1/2 165/4/2 166/16/2
f 167/15/3 165/7/3 161/8/3 163/16/3
f 167/16/4 168/15/4 166/7/4 165/8/4
f 167/16/5 163/15/5 164/1/5 168/4/5
f 168/16/6 164/15/6 162/7/6 166/8/6
f 171/15/1 169/7/1 170/8/1 172/16/1
f 170/15/2 169/1/2 173/4/2 174/16/2
f 175/15/3 173/7/3 169/8/3 171/16/3
f 175/16/4 176/15/4 174/7/4 173/8/4
f 175/16/5 171/15/5 172/1/5 176/4/5
f 176/16/6 172/15/6 170/7/6 174/8/6
f 179/15/1 177/7/1 178/8/1 180/16/1
f 178/15/2 177/1/2 181/4/2 182/16/2
f 183/15/3 181/7/3 177/8/3 179/16/3
f 183/16/4 184/15/4 182/7/4 181/8/4
f 183/16/5 179/15/5 180/1/5 184/4/5
f 184/16/6 180/15/6 178/7/6 182/8/6
f 187/15/1 185/7/1 186/8/1 188/16/1
f 186/15/2 185/1/2 189/4/2 190/16/2
f 191/15/3 189/7/3 185/8/3 187/16/3
f 191/16/4 192/15/4 190/7/4 189/8/4
f 191/16/5 187/15/5 188/1/5 192/4/5
f 192/16/6 188/15/6 186/7/6 190/8/6
f 195/15/1 193/7/1 194/8/1 196/16/1
f 194/15/2 193/1/2 197/4/2 198/16/2
f 199/15/3 197/7/3 193/8/3 195/16/3
f 199/16/4 200/15/4 198/7/4 197/8/4
f 199/16/5 195/15/5 196/1/5 200/4/5
f 200/16/6 196/15/6 194/7/6 198/8/6
f 203/15/1 201/7/1 202/8/1 204/16/1
f 202/15/2 201/1/2 205/4/2 206/16/2
f 207/15/3 205/7/3 201/8/3 203/16/3
f 207/16/4 208/15/4 206/7/4 205/8/4
f 207/16/5 203/15/5 204/1/5 208/4/5
f 208/16/6 204/15/6 202/7/6 206/8/6
f 211/4/1 210/16/1 209/15/1 216/1/1
f 211/15/2 216/1/2 217/4/2 219/16/2
f 216/4/3 209/16/3 218/15/3 217/1/3
f 219/1/4 217/4/4 218/16/4 220/15/4
f 210/1/5 220/4/5 218/16/5 209/15/5
f 211/1/6 219/4/6 220/16/6 210/15/6
f 212/4/1 213/16/1 222/15/1 221/1/1
f 212/15/2 221/1/2 224/4/2 223/16/2
f 221/4/3 222/16/3 225/15/3 224/1/3
f 223/1/4 224/4/4 225/16/4 226/15/4
f 213/1/5 226/4/5 225/16/5 222/15/5
f 212/1/6 223/4/6 226/16/6 213/15/6
f 217/4/1 218/16/1 215/15/1 214/1/1
f 217/15/2 214/1/2 227/4/2 228/16/2
f 214/4/3 215/16/3 229/15/3 227/1/3
f 228/1/4 227/4/4 229/16/4 230/15/4
f 218/1/5 230/4/5 229/16/5 215/15/5
f 217/1/6 228/4/6 230/16/6 218/15/6
f 219/4/1 220/16/1 218/15/1 217/1/1
f 219/15/2 217/1/2 228/4/2 231/16/2
f 217/4/3 218/16/3 230/15/3 228/1/3
f 231/1/4 228/4/4 230/16/4 232/15/4
f 220/1/5 232/4/5 230/16/5 218/15/5
f 219/1/6 231/4/6 232/16/6 220/15/6
f 231/4/1 232/16/1 230/15/1 228/1/1
f 231/15/2 228/1/2 233/4/2 235/16/2
f 228/4/3 230/16/3 234/15/3 233/1/3
f 235/1/4 233/4/4 234/16/4 236/15/4
f 232/1/5 236/4/5 234/16/5 230/15/5
f 231/1/6 235/4/6 236/16/6 232/15/6
f 235/4/1 236/16/1 234/15/1 233/1/1
f 235/15/2 233/1/2 237/4/2 239/16/2
f 233/4/3 234/16/3 238/15/3 237/1/3
f 239/1/4 237/4/4 238/16/4 240/15/4
f 236/1/5 240/4/5 238/16/5 234/15/5
f 235/1/6 239/4/6 240/16/6 236/15/6
f 239/4/1 240/16/1 238/15/1 237/1/1
f 239/15/2 237/1/2 241/4/2 243/16/2
f 237/4/3 238/16/3 242/15/3 241/1/3
f 243/1/4 241/4/4 242/16/4 244/15/4
f 240/1/5 244/4/5 242/16/5 238/15/5
f 239/1/6 243/4/6 244/16/6 240/15/6
f 243/4/1 244/16/1 242/15/1 241/1/1
f 243/15/2 241/1/2 245/4/2 247/16/2
f 241/4/3 242/16/3 246/15/3 245/1/3
f 247/1/4 245/4/4 246/16/4 248/15/4
f 244/1/5 248/4/5 246/16/5 242/15/5
f 243/1/6 247/4/6 248/16/6 244/15/6
f 250/4/1 249/16/1 248/15/1 247/1/1
f 250/15/2 247/1/2 251/4/2 253/16/2
f 247/4/3 248/16/3 252/15/3 251/1/3
f 253/1/4 251/4/4 252/16/4 254/15/4
f 249/1/5 254/4/5 252/16/5 248/15/5
f 250/1/6 253/4/6 254/16/6 249/15/6
f 257/4/1 258/16/1 256/15/1 255/1/1
f 257/15/2 255/1/2 267/4/2 269/16/2
f 255/4/3 256/16/3 268/15/3 267/1/3
f 269/1/4 267/4/4 268/16/4 270/15/4
f 258/1/5 270/4/5 268/16/5 256/15/5
f 257/1/6 269/4/6 270/16/6 258/15/6
f 259/4/1 260/16/1 258/15/1 257/1/1
f 259/15/2 257/1/2 269/4/2 271/16/2
f 257/4/3 258/16/3 270/15/3 269/1/3
f 271/1/4 269/4/4 270/16/4 272/15/4
f 260/1/5 272/4/5 270/16/5 258/15/5
f 259/1/6 271/4/6 272/16/6 260/15/6
f 263/4/1 264/16/1 262/15/1 261/1/1
f 263/15/2 261/1/2 273/4/2 275/16/2
f 261/4/3 262/16/3 274/15/3 273/1/3
f 275/1/4 273/4/4 274/16/4 276/15/4
f 264/1/5 276/4/5 274/16/5 262/15/5
f 263/1/6 275/4/6 276/16/6 264/15/6
f 265/4/1 266/16/1 264/15/1 263/1/1
f 265/15/2 263/1/2 275/4/2 277/16/2
f 263/4/3 264/16/3 276/15/3 275/1/3
f 277/1/4 275/4/4 276/16/4 278/15/4
f 266/1/5 278/4/5 276/16/5 264/15/5
f 265/1/6 277/4/6 278/16/6 266/15/6
f 267/4/1 268/16/1 266/15/1 265/1/1
f 267/15/2 265/1/2 277/4/2 279/16/2
f 265/4/3 266/16/3 278/15/3 277/1/3
f 279/1/4 277/4/4 278/16/4 280/15/4
f 268/1/5 280/4/5 278/16/5 266/15/5
f 267/1/6 279/4/6 280/16/6 268/15/6
f 269/4/1 270/16/1 268/15/1 267/1/1
f 269/15/2 267/1/2 279/4/2 281/16/2
f 267/4/3 268/16/3 280/15/3 279/1/3
f 281/1/4 279/4/4 280/16/4 282/15/4
f 270/1/5 282/4/5 280/16/5 268/15/5
f 269/1/6 281/4/6 282/16/6 270/15/6
f 286/4/1 275/16/1 273/15/1 283/1/1
f 286/15/2 283/1/2 284/4/2 287/16/2
f 283/4/3 273/16/3 285/15/3 284/1/3
f 287/1/4 284/4/4 285/16/4 288/15/4
f 275/1/5 288/4/5 285/16/5 273/15/5
f 286/1/6 287/4/6 288/16/6 275/15/6
f 277/4/1 278/16/1 276/15/1 275/1/1
f 277/15/2 275/1/2 288/4/2 290/16/2
f 275/4/3 276/16/3 289/15/3 288/1/3
f 290/1/4 288/4/4 289/16/4 291/15/4
f 278/1/5 291/4/5 289/16/5 276/15/5
f 277/1/6 290/4/6 291/16/6 278/15/6
f 279/4/1 280/16/1 278/15/1 277/1/1
f 279/15/2 277/1/2 290/4/2 292/16/2
f 277/4/3 278/16/3 291/15/3 290/1/3
f 292/1/4 290/4/4 291/16/4 293/15/4
f 280/1/5 293/4/5 291/16/5 278/15/5
f 279/1/6 292/4/6 293/16/6 280/15/6
