mtllib lighthouse.mtl
usemtl copper_ore
v -15 6 0
v -14 6 0
v -15 7 0
v -14 7 0
v -15 6 1
v -14 6 1
v -15 7 1
v -14 7 1
v -14 1 11
v -14 2 11
v -14 1 12
v -14 2 12
v -14 1 13
v -14 2 13
v -13 0 11
v -13 1 11
v -13 2 11
v -13 0 12
v -13 1 12
v -13 2 12
v -13 0 13
v -13 1 13
v -13 2 13
v -12 0 11
v -12 1 11
v -12 0 12
v -12 1 12
v -12 0 13
v -12 1 13
v -6 4 0
v -6 5 0
v -6 4 1
v -6 5 1
v -5 4 -1
v -5 5 -1
v -5 6 -1
v -5 4 0
v -5 5 0
v -5 6 0
v -5 4 1
v -5 5 1
v -5 6 1
v -4 4 -1
v -4 5 -1
v -4 6 -1
v -4 4 0
v -4 5 0
v -4 6 0
v -4 4 1
v -4 5 1
v -4 6 1
v 4 2 6
v 4 3 6
v 4 2 7
v 4 3 7
v 5 2 5
v 5 3 5
v 5 1 6
v 5 2 6
v 5 3 6
v 5 1 7
v 5 2 7
v 5 3 7
v 6 2 5
v 6 3 5
v 6 1 6
v 6 2 6
v 6 3 6
v 6 1 7
v 6 2 7
v 6 3 7
v 7 2 5
v 7 3 5
v 7 2 6
v 7 3 6
v 7 2 7
v 7 3 7
v 8 2 5
v 8 3 5
v 8 2 6
v 8 3 6
vt 0.000000000 0.000000000
vt 1.000000000 0.000000000
vt 0.000000000 1.000000000
vt 1.000000000 1.000000000
vn -1 0 0
vn 0 -1 0
vn 0 0 -1
vn 1 0 0
vn 0 1 0
vn 0 0 1
f 5/2/1 7/4/1 3/3/1 1/1/1
f 5/3/2 1/1/2 2/2/2 6/4/2
f 1/2/3 3/4/3 4/3/3 2/1/3
f 6/1/4 2/2/4 4/4/4 8/3/4
f 7/1/5 8/2/5 4/4/5 3/3/5
f 5/1/6 6/2/6 8/4/6 7/3/6
f 11/2/1 12/4/1 10/3/1 9/1/1
f 11/3/2 9/1/2 16/2/2 19/4/2
f 9/2/3 10/4/3 17/3/3 16/1/3
f 19/1/4 16/2/4 17/4/4 20/3/4
f 12/1/5 20/2/5 17/4/5 10/3/5
f 11/1/6 19/2/6 20/4/6 12/3/6
f 13/2/1 14/4/1 12/3/1 11/1/1
f 13/3/2 11/1/2 19/2/2 22/4/2
f 11/2/3 12/4/3 20/3/3 19/1/3
f 22/1/4 19/2/4 20/4/4 23/3/4
f 14/1/5 23/2/5 20/4/5 12/3/5
f 13/1/6 22/2/6 23/4/6 14/3/6
f 18/2/1 19/4/1 16/3/1 15/1/1
f 18/3/2 15/1/2 24/2/2 26/4/2
f 15/2/3 16/4/3 25/3/3 24/1/3
f 26/1/4 24/2/4 25/4/4 27/3/4
f 19/1/5 27/2/5 25/4/5 16/3/5
f 18/1/6 26/2/6 27/4/6 19/3/6
f 21/2/1 22/4/1 19/3/1 18/1/1
f 21/3/2 18/1/2 26/2/2 28/4/2
f 18/2/3 19/4/3 27/3/3 26/1/3
f 28/1/4 26/2/4 27/4/4 29/3/4
f 22/1/5 29/2/5 27/4/5 19/3/5
f 21/1/6 28/2/6 29/4/6 22/3/6
f 32/2/1 33/4/1 31/3/1 30/1/1
f 32/3/2 30/1/2 37/2/2 40/4/2
f 30/2/3 31/4/3 38/3/3 37/1/3
f 40/1/4 37/2/4 38/4/4 41/3/4
f 33/1/5 41/2/5 38/4/5 31/3/5
f 32/1/6 40/2/6 41/4/6 33/3/6
f 37/2/1 38/4/1 35/3/1 34/1/1
f 37/3/2 34/1/2 43/2/2 46/4/2
f 34/2/3 35/4/3 44/3/3 43/1/3
f 46/1/4 43/2/4 44/4/4 47/3/4
f 38/1/5 47/2/5 44/4/5 35/3/5
f 37/1/6 46/2/6 47/4/6 38/3/6
f 38/2/1 39/4/1 36/3/1 35/1/1
f 38/3/2 35/1/2 44/2/2 47/4/2
f 35/2/3 36/4/3 45/3/3 44/1/3
f 47/1/4 44/2/4 45/4/4 48/3/4
f 39/1/5 48/2/5 45/4/5 36/3/5
f 38/1/6 47/2/6 48/4/6 39/3/6
f 40/2/1 41/4/1 38/3/1 37/1/1
f 40/3/2 37/1/2 46/2/2 49/4/2
f 37/2/3 38/4/3 47/3/3 46/1/3
f 49/1/4 46/2/4 47/4/4 50/3/4
f 41/1/5 50/2/5 47/4/5 38/3/5
f 40/1/6 49/2/6 50/4/6 41/3/6
f 41/2/1 42/4/1 39/3/1 38/1/1
f 41/3/2 38/1/2 47/2/2 50/4/2
f 38/2/3 39/4/3 48/3/3 47/1/3
f 50/1/4 47/2/4 48/4/4 51/3/4
f 42/1/5 51/2/5 48/4/5 39/3/5
f 41/1/6 50/2/6 51/4/6 42/3/6
f 54/2/1 55/4/1 53/3/1 52/1/1
f 54/3/2 52/1/2 59/2/2 62/4/2
f 52/2/3 53/4/3 60/3/3 59/1/3
f 62/1/4 59/2/4 60/4/4 63/3/4
f 55/1/5 63/2/5 60/4/5 53/3/5
f 54/1/6 62/2/6 63/4/6 55/3/6
f 59/2/1 60/4/1 57/3/1 56/1/1
f 59/3/2 56/1/2 64/2/2 67/4/2
f 56/2/3 57/4/3 65/3/3 64/1/3
f 67/1/4 64/2/4 65/4/4 68/3/4
f 60/1/5 68/2/5 65/4/5 57/3/5
f 59/1/6 67/2/6 68/4/6 60/3/6
f 61/2/1 62/4/1 59/3/1 58/1/1
f 61/3/2 58/1/2 66/2/2 69/4/2
f 58/2/3 59/4/3 67/3/3 66/1/3
f 69/1/4 66/2/4 67/4/4 70/3/4
f 62/1/5 70/2/5 67/4/5 59/3/5
f 61/1/6 69/2/6 70/4/6 62/3/6
f 62/2/1 63/4/1 60/3/1 59/1/1
f 62/3/2 59/1/2 67/2/2 70/4/2
f 59/2/3 60/4/3 68/3/3 67/1/3
f 70/1/4 67/2/4 68/4/4 71/3/4
f 63/1/5 71/2/5 68/4/5 60/3/5
f 62/1/6 70/2/6 71/4/6 63/3/6
f 67/2/1 68/4/1 65/3/1 64/1/1
f 67/3/2 64/1/2 72/2/2 74/4/2
f 64/2/3 65/4/3 73/3/3 72/1/3
f 74/1/4 72/2/4 73/4/4 75/3/4
f 68/1/5 75/2/5 73/4/5 65/3/5
f 67/1/6 74/2/6 75/4/6 68/3/6
f 70/2/1 71/4/1 68/3/1 67/1/1
f 70/3/2 67/1/2 74/2/2 76/4/2
f 67/2/3 68/4/3 75/3/3 74/1/3
f 76/1/4 74/2/4 75/4/4 77/3/4
f 71/1/5 77/2/5 75/4/5 68/3/5
f 70/1/6 76/2/6 77/4/6 71/3/6
f 74/2/1 75/4/1 73/3/1 72/1/1
f 74/3/2 72/1/2 78/2/2 80/4/2
f 72/2/3 73/4/3 79/3/3 78/1/3
f 80/1/4 78/2/4 79/4/4 81/3/4
f 75/1/5 81/2/5 79/4/5 73/3/5
f 74/1/6 80/2/6 81/4/6 75/3/6
