mtllib lighthouse.mtl
usemtl muddy_mangrove_roots_top
v 11 1 4
v 11 2 4
v 11 1 5
v 11 2 5
v 11 1 6
v 11 2 6
v 12 0 3
v 12 1 3
v 12 0 4
v 12 1 4
v 12 2 4
v 12 0 5
v 12 1 5
v 12 2 5
v 12 0 6
v 12 1 6
v 12 2 6
v 13 0 3
v 13 1 3
v 13 0 4
v 13 1 4
v 13 0 5
v 13 1 5
v 13 0 6
v 13 1 6
v 14 0 2
v 14 1 2
v 14 0 3
v 14 1 3
v 14 0 4
v 14 1 4
v 14 0 5
v 14 1 5
v 14 0 6
v 14 1 6
v 15 0 2
v 15 1 2
v 15 0 3
v 15 1 3
v 15 0 4
v 15 1 4
v 15 0 5
v 15 1 5
v 15 0 6
v 15 1 6
vt 0.000000000 0.000000000
vt 1.000000000 0.000000000
vt 0.000000000 1.000000000
vt 1.000000000 1.000000000
vn -1 0 0
vn 0 -1 0
vn 0 0 -1
vn 1 0 0
vn 0 1 0
vn 0 0 1
f 3/2/1 4/4/1 2/3/1 1/1/1
f 13/1/4 10/2/4 11/4/4 14/3/4
f 5/2/1 6/4/1 4/3/1 3/1/1
f 16/1/4 13/2/4 14/4/4 17/3/4
f 9/3/2 7/1/2 18/2/2 20/4/2
f 10/1/5 21/2/5 19/4/5 8/3/5
f 9/2/3 10/4/3 21/3/3 20/1/3
f 12/1/6 22/2/6 23/4/6 13/3/6
f 15/2/1 16/4/1 13/3/1 12/1/1
f 24/1/4 22/2/4 23/4/4 25/3/4
f 20/2/1 21/4/1 19/3/1 18/1/1
f 30/1/4 28/2/4 29/4/4 31/3/4
f 22/2/1 23/4/1 21/3/1 20/1/1
f 32/1/4 30/2/4 31/4/4 33/3/4
f 24/3/2 22/1/2 32/2/2 34/4/2
f 25/1/5 35/2/5 33/4/5 23/3/5
f 28/2/1 29/4/1 27/3/1 26/1/1
f 38/1/4 36/2/4 37/4/4 39/3/4
f 30/2/1 31/4/1 29/3/1 28/1/1
f 40/1/4 38/2/4 39/4/4 41/3/4
f 32/2/1 33/4/1 31/3/1 30/1/1
f 42/1/4 40/2/4 41/4/4 43/3/4
f 34/2/1 35/4/1 33/3/1 32/1/1
f 44/1/4 42/2/4 43/4/4 45/3/4
