mtllib lighthouse.mtl
usemtl composter_top
v 2.875 12 -0.875
v 2.875 12 -0.125
v 3 12 -0.875
v 3 12 -0.125
v 2 12 -0.875
v 2 12 -0.125
v 2.125 12 -0.875
v 2.125 12 -0.125
v 2.125 12 -0.125
v 2.125 12 0
v 2.875 12 -0.125
v 2.875 12 0
v 2.125 12 -1
v 2.125 12 -0.875
v 2.875 12 -1
v 2.875 12 -0.875
v 2 12 -1
v 2 12 -0.875
v 2.125 12 -1
v 2.125 12 -0.875
v 2 12 -0.125
v 2 12 0
v 2.125 12 -0.125
v 2.125 12 0
v 2.875 12 -1
v 2.875 12 -0.875
v 3 12 -1
v 3 12 -0.875
v 2.875 12 -0.125
v 2.875 12 0
v 3 12 -0.125
v 3 12 0
vt 0.000000000 0.000000000
vt 0.125000000 0.000000000
vt 0.875000000 0.000000000
vt 1.000000000 0.000000000
vt 0.000000000 0.125000000
vt 0.125000000 0.125000000
vt 0.875000000 0.125000000
vt 1.000000000 0.125000000
vt 0.000000000 0.875000000
vt 0.125000000 0.875000000
vt 0.875000000 0.875000000
vt 1.000000000 0.875000000
vt 0.000000000 1.000000000
vt 0.125000000 1.000000000
vt 0.875000000 1.000000000
vt 1.000000000 1.000000000
vn 0 1 0
f 3/12/1 1/11/1 2/7/1 4/8/1
f 7/10/1 5/9/1 6/5/1 8/6/1
f 11/7/1 9/6/1 10/2/1 12/3/1
f 15/15/1 13/14/1 14/10/1 16/11/1
f 19/14/1 17/13/1 18/9/1 20/10/1
f 23/6/1 21/5/1 22/1/1 24/2/1
f 27/16/1 25/15/1 26/11/1 28/12/1
f 31/8/1 29/7/1 30/3/1 32/4/1
