mtllib lighthouse.mtl
usemtl stripped_spruce_log
v -3 14 1
v -3 14 2
v -3 11 1
v -3 11 2
v -3 12 2
v -3 12 1
v -2 11 2
v -2 11 1
v -2 12 1
v -2 12 2
v -3 13 2
v -3 13 1
v -2 13 1
v -2 13 2
v -2 14 1
v -2 14 2
vt 0.000000000 0.000000000
vt 1.000000000 0.000000000
vt 0.000000000 1.000000000
vt 1.000000000 1.000000000
vn -1 0 0
vn 0 0 -1
vn 1 0 0
vn 0 0 1
f 4/2/1 5/4/1 6/3/1 3/1/1
f 3/2/2 6/4/2 9/3/2 8/1/2
f 7/1/3 8/2/3 9/4/3 10/3/3
f 4/1/4 7/2/4 10/4/4 5/3/4
f 5/2/1 11/4/1 12/3/1 6/1/1
f 6/2/2 12/4/2 13/3/2 9/1/2
f 10/1/3 9/2/3 13/4/3 14/3/3
f 5/1/4 10/2/4 14/4/4 11/3/4
f 11/2/1 2/4/1 1/3/1 12/1/1
f 12/2/2 1/4/2 15/3/2 13/1/2
f 14/1/3 13/2/3 15/4/3 16/3/3
f 11/1/4 14/2/4 16/4/4 2/3/4
