mtllib lighthouse.mtl
usemtl sea_pickle
v 6.5625 0 -9.4375
v 6.5625 0 -9.1875
v 6.5625 0.375 -9.4375
v 6.5625 0.375 -9.1875
v 6.8125 0 -9.4375
v 6.8125 0 -9.1875
v 6.8125 0.375 -9.4375
v 6.8125 0.375 -9.1875
v 6.59911 0.3125 -9.40089
v 6.59911 0.625 -9.40089
v 6.77589 0.3125 -9.22411
v 6.77589 0.625 -9.22411
v 6.77589 0.3125 -9.40089
v 6.77589 0.625 -9.40089
v 6.59911 0.3125 -9.22411
v 6.59911 0.625 -9.22411
v 6.25 0 -9.75
v 6.25 0 -9.5
v 6.25 0.25 -9.75
v 6.25 0.25 -9.5
v 6.5 0 -9.75
v 6.5 0 -9.5
v 6.5 0.25 -9.75
v 6.5 0.25 -9.5
v 6.28661 0.1875 -9.71339
v 6.28661 0.5 -9.71339
v 6.46339 0.1875 -9.53661
v 6.46339 0.5 -9.53661
v 6.46339 0.1875 -9.71339
v 6.46339 0.5 -9.71339
v 6.28661 0.1875 -9.53661
v 6.28661 0.5 -9.53661
vt 0.000000000 0.312500000
vt 0.250000000 0.312500000
vt 0.500000000 0.312500000
vt 0.750000000 0.312500000
vt 1.000000000 0.312500000
vt 0.000000000 0.375000000
vt 0.250000000 0.375000000
vt 0.500000000 0.375000000
vt 0.750000000 0.375000000
vt 1.000000000 0.375000000
vt 0.000000000 0.625000000
vt 0.250000000 0.625000000
vt 0.500000000 0.625000000
vt 0.750000000 0.625000000
vt 1.000000000 0.625000000
vt 0.000000000 0.687500000
vt 0.250000000 0.687500000
vt 0.500000000 0.687500000
vt 0.750000000 0.687500000
vt 1.000000000 0.687500000
vt 0.250000000 0.937500000
vt 0.500000000 0.937500000
vt 0.750000000 0.937500000
vt 0.000000000 1.000000000
vt 0.250000000 1.000000000
vn -1 0 0
vn 0 -1 0
vn 0 0 -1
vn 1 0 0
vn 0 1 0
vn 0 0 1
vn 0.707107 0 -0.707107
vn 0.707107 0 0.707107
f 3/17/1 1/2/1 2/3/1 4/18/1
f 7/19/3 5/4/3 1/5/3 3/20/3
f 7/19/4 8/18/4 6/3/4 5/4/4
f 8/17/6 4/16/6 2/1/6 6/2/6
f 7/22/5 3/21/5 4/17/5 8/18/5
f 2/22/2 1/18/2 5/19/2 6/23/2
f 10/24/7 12/25/7 11/17/7 9/16/7
f 14/24/8 16/25/8 15/17/8 13/16/8
f 19/12/1 17/7/1 18/8/1 20/13/1
f 23/14/3 21/9/3 17/10/3 19/15/3
f 23/14/4 24/13/4 22/8/4 21/9/4
f 24/12/6 20/11/6 18/6/6 22/7/6
f 23/22/5 19/21/5 20/17/5 24/18/5
f 18/22/2 17/18/2 21/19/2 22/23/2
f 26/24/7 28/25/7 27/17/7 25/16/7
f 30/24/8 32/25/8 31/17/8 29/16/8
