mtllib lighthouse.mtl
usemtl MWO_chest_latch
v -1.0625 8.4375 4
v -0.9375 8.4375 4
v -1.0625 8.6875 4
v -0.9375 8.6875 4
v -1.0625 8.4375 3.9375
v -0.9375 8.4375 3.9375
v -1.0625 8.6875 3.9375
v -0.9375 8.6875 3.9375
vt 0.000000000 0.687500000
vt 0.062500000 0.687500000
vt 0.187500000 0.687500000
vt 0.250000000 0.687500000
vt 0.375000000 0.687500000
vt 0.000000000 0.937500000
vt 0.062500000 0.937500000
vt 0.187500000 0.937500000
vt 0.250000000 0.937500000
vt 0.312500000 0.937500000
vt 0.375000000 0.937500000
vt 0.062500000 1.000000000
vt 0.187500000 1.000000000
vt 0.312500000 1.000000000
vn -1 0 0
vn 0 -1 0
vn 0 0 -1
vn 1 0 0
vn 0 1 0
vn 0 0 1
f 4/8/6 3/7/6 1/2/6 2/3/6
f 8/9/3 6/4/3 5/5/3 7/11/3
f 7/6/1 5/1/1 1/2/1 3/7/1
f 8/9/4 4/8/4 2/3/4 6/4/4
f 7/12/5 3/7/5 4/8/5 8/13/5
f 2/8/2 1/10/2 5/14/2 6/13/2
