mtllib lighthouse.mtl
usemtl mangrove_trapdoor
v -5 51 0
v -5 51 1
v -5 51.1875 0
v -5 51.1875 1
v -4 51 0
v -4 51 1
v -4 51.1875 0
v -4 51.1875 1
v -5 51 1
v -5 51 2
v -5 51.1875 1
v -5 51.1875 2
v -4 51 1
v -4 51 2
v -4 51.1875 1
v -4 51.1875 2
v -5 51 2
v -5 51 3
v -5 51.1875 2
v -5 51.1875 3
v -4 51 2
v -4 51 3
v -4 51.1875 2
v -4 51.1875 3
v -3 51 -1
v -4 51 -1
v -3 51.1875 -1
v -4 51.1875 -1
v -3 51 0
v -4 51 0
v -3 51.1875 0
v -4 51.1875 0
v -3 47 1
v -3 48 1
v -3.1875 47 1
v -3.1875 48 1
v -3 47 0
v -3 48 0
v -3.1875 47 0
v -3.1875 48 0
v -3 47 3
v -3 48 3
v -3.1875 47 3
v -3.1875 48 3
v -3 47 2
v -3 48 2
v -3.1875 47 2
v -3.1875 48 2
v -3 51 3
v -4 51 3
v -3 51.1875 3
v -4 51.1875 3
v -3 51 4
v -4 51 4
v -3 51.1875 4
v -4 51.1875 4
v -2 51 -1
v -2 51 -2
v -2 51.1875 -1
v -2 51.1875 -2
v -3 51 -1
v -3 51 -2
v -3 51.1875 -1
v -3 51.1875 -2
v -2 51 4
v -3 51 4
v -2 51.1875 4
v -3 51.1875 4
v -2 51 5
v -3 51 5
v -2 51.1875 5
v -3 51.1875 5
v -1 51 -2
v -1 51 -3
v -1 51.1875 -2
v -1 51.1875 -3
v -2 51 -2
v -2 51 -3
v -2 51.1875 -2
v -2 51.1875 -3
v -2 51 6
v -1 51 6
v -2 51.1875 6
v -1 51.1875 6
v -2 51 5
v -1 51 5
v -2 51.1875 5
v -1 51.1875 5
v 0 51 -4
v -1 51 -4
v 0 51.1875 -4
v -1 51.1875 -4
v 0 51 -3
v -1 51 -3
v 0 51.1875 -3
v -1 51.1875 -3
v -1 47 -2
v -1 48 -2
v -1 47 -2.1875
v -1 48 -2.1875
v 0 47 -2
v 0 48 -2
v 0 47 -2.1875
v 0 48 -2.1875
v 0 47 5
v 0 48 5
v 0 47 5.1875
v 0 48 5.1875
v -1 47 5
v -1 48 5
v -1 47 5.1875
v -1 48 5.1875
v -1 51 7
v 0 51 7
v -1 51.1875 7
v 0 51.1875 7
v -1 51 6
v 0 51 6
v -1 51.1875 6
v 0 51.1875 6
v 0 10.8125 8
v 0 10.8125 7
v 0 11 8
v 0 11 7
v -1 10.8125 8
v -1 10.8125 7
v -1 11 8
v -1 11 7
v 0 11 8
v 0 11 7
v 0 11.1875 8
v 0 11.1875 7
v -1 11 8
v -1 11 7
v -1 11.1875 8
v -1 11.1875 7
v 1 51 -4
v 0 51 -4
v 1 51.1875 -4
v 0 51.1875 -4
v 1 51 -3
v 0 51 -3
v 1 51.1875 -3
v 0 51.1875 -3
v 0 24 -2
v 0 25 -2
v 0 24 -2.1875
v 0 25 -2.1875
v 1 24 -2
v 1 25 -2
v 1 24 -2.1875
v 1 25 -2.1875
v 0 28 -2
v 0 29 -2
v 0 28 -2.1875
v 0 29 -2.1875
v 1 28 -2
v 1 29 -2
v 1 28 -2.1875
v 1 29 -2.1875
v 0 29 -1
v 1 29 -1
v 0 29.1875 -1
v 1 29.1875 -1
v 0 29 -2
v 1 29 -2
v 0 29.1875 -2
v 1 29.1875 -2
v 1 24 5
v 1 25 5
v 1 24 5.1875
v 1 25 5.1875
v 0 24 5
v 0 25 5
v 0 24 5.1875
v 0 25 5.1875
v 1 28 5
v 1 29 5
v 1 28 5.1875
v 1 29 5.1875
v 0 28 5
v 0 29 5
v 0 28 5.1875
v 0 29 5.1875
v 1 32 5
v 1 33 5
v 1 32 5.1875
v 1 33 5.1875
v 0 32 5
v 0 33 5
v 0 32 5.1875
v 0 33 5.1875
v 0 51 7
v 1 51 7
v 0 51.1875 7
v 1 51.1875 7
v 0 51 6
v 1 51 6
v 0 51.1875 6
v 1 51.1875 6
v 2 51 -4
v 1 51 -4
v 2 51.1875 -4
v 1 51.1875 -4
v 2 51 -3
v 1 51 -3
v 2 51.1875 -3
v 1 51.1875 -3
v 1 47 -2
v 1 48 -2
v 1 47 -2.1875
v 1 48 -2.1875
v 2 47 -2
v 2 48 -2
v 2 47 -2.1875
v 2 48 -2.1875
v 2 47 5
v 2 48 5
v 2 47 5.1875
v 2 48 5.1875
v 1 47 5
v 1 48 5
v 1 47 5.1875
v 1 48 5.1875
v 1 51 7
v 2 51 7
v 1 51.1875 7
v 2 51.1875 7
v 1 51 6
v 2 51 6
v 1 51.1875 6
v 2 51.1875 6
v 2 10.8125 8
v 2 10.8125 7
v 2 11 8
v 2 11 7
v 1 10.8125 8
v 1 10.8125 7
v 1 11 8
v 1 11 7
v 2 11 8
v 2 11 7
v 2 11.1875 8
v 2 11.1875 7
v 1 11 8
v 1 11 7
v 1 11.1875 8
v 1 11.1875 7
v 3 51 -2
v 3 51 -3
v 3 51.1875 -2
v 3 51.1875 -3
v 2 51 -2
v 2 51 -3
v 2 51.1875 -2
v 2 51.1875 -3
v 3 51 5
v 2 51 5
v 3 51.1875 5
v 2 51.1875 5
v 3 51 6
v 2 51 6
v 3 51.1875 6
v 2 51.1875 6
v 3 12 9
v 3 12 8
v 3 12.1875 9
v 3 12.1875 8
v 2 12 9
v 2 12 8
v 2 12.1875 9
v 2 12.1875 8
v 4 51 -1
v 4 51 -2
v 4 51.1875 -1
v 4 51.1875 -2
v 3 51 -1
v 3 51 -2
v 3 51.1875 -1
v 3 51.1875 -2
v 3 51 5
v 4 51 5
v 3 51.1875 5
v 4 51.1875 5
v 3 51 4
v 4 51 4
v 3 51.1875 4
v 4 51.1875 4
v 4 51 0
v 5 51 0
v 4 51.1875 0
v 5 51.1875 0
v 4 51 -1
v 5 51 -1
v 4 51.1875 -1
v 5 51.1875 -1
v 4 47 0
v 4 48 0
v 4.1875 47 0
v 4.1875 48 0
v 4 47 1
v 4 48 1
v 4.1875 47 1
v 4.1875 48 1
v 4 47 2
v 4 48 2
v 4.1875 47 2
v 4.1875 48 2
v 4 47 3
v 4 48 3
v 4.1875 47 3
v 4.1875 48 3
v 5 51 4
v 5 51 3
v 5 51.1875 4
v 5 51.1875 3
v 4 51 4
v 4 51 3
v 4 51.1875 4
v 4 51.1875 3
v 5 51 1
v 6 51 1
v 5 51.1875 1
v 6 51.1875 1
v 5 51 0
v 6 51 0
v 5 51.1875 0
v 6 51.1875 0
v 5 51 1
v 5 51 2
v 5 51.1875 1
v 5 51.1875 2
v 6 51 1
v 6 51 2
v 6 51.1875 1
v 6 51.1875 2
v 5 51 2
v 5 51 3
v 5 51.1875 2
v 5 51.1875 3
v 6 51 2
v 6 51 3
v 6 51.1875 2
v 6 51.1875 3
vt 0.000000000 0.000000000
vt 1.000000000 0.000000000
vt 0.000000000 0.812500000
vt 1.000000000 0.812500000
vt 0.000000000 1.000000000
vt 1.000000000 1.000000000
vn -1 0 0
vn 0 -1 0
vn 0 0 -1
vn 1 0 0
vn 0 1 0
vn 0 0 1
f 3/5/1 1/3/1 2/4/1 4/6/1
f 2/5/2 1/1/2 5/2/2 6/6/2
f 7/5/3 5/3/3 1/4/3 3/6/3
f 7/6/4 8/5/4 6/3/4 5/4/4
f 7/2/5 3/1/5 4/5/5 8/6/5
f 8/6/6 4/5/6 2/3/6 6/4/6
f 11/5/1 9/3/1 10/4/1 12/6/1
f 10/5/2 9/1/2 13/2/2 14/6/2
f 15/5/3 13/3/3 9/4/3 11/6/3
f 15/6/4 16/5/4 14/3/4 13/4/4
f 15/2/5 11/1/5 12/5/5 16/6/5
f 16/6/6 12/5/6 10/3/6 14/4/6
f 19/5/1 17/3/1 18/4/1 20/6/1
f 18/5/2 17/1/2 21/2/2 22/6/2
f 23/5/3 21/3/3 17/4/3 19/6/3
f 23/6/4 24/5/4 22/3/4 21/4/4
f 23/2/5 19/1/5 20/5/5 24/6/5
f 24/6/6 20/5/6 18/3/6 22/4/6
f 27/5/3 25/3/3 26/4/3 28/6/3
f 26/5/2 25/1/2 29/2/2 30/6/2
f 27/6/4 31/5/4 29/3/4 25/4/4
f 31/6/6 32/5/6 30/3/6 29/4/6
f 31/2/5 27/1/5 28/5/5 32/6/5
f 28/5/1 26/3/1 30/4/1 32/6/1
f 36/6/6 35/5/6 33/3/6 34/4/6
f 38/6/4 34/5/4 33/1/4 37/2/4
f 39/5/2 37/3/2 33/4/2 35/6/2
f 40/5/3 38/3/3 37/4/3 39/6/3
f 35/1/1 36/5/1 40/6/1 39/2/1
f 40/6/5 36/5/5 34/3/5 38/4/5
f 44/6/6 43/5/6 41/3/6 42/4/6
f 46/6/4 42/5/4 41/1/4 45/2/4
f 47/5/2 45/3/2 41/4/2 43/6/2
f 48/5/3 46/3/3 45/4/3 47/6/3
f 43/1/1 44/5/1 48/6/1 47/2/1
f 48/6/5 44/5/5 42/3/5 46/4/5
f 51/5/3 49/3/3 50/4/3 52/6/3
f 50/5/2 49/1/2 53/2/2 54/6/2
f 51/6/4 55/5/4 53/3/4 49/4/4
f 55/6/6 56/5/6 54/3/6 53/4/6
f 55/2/5 51/1/5 52/5/5 56/6/5
f 52/5/1 50/3/1 54/4/1 56/6/1
f 60/6/4 59/5/4 57/3/4 58/4/4
f 58/5/2 57/1/2 61/2/2 62/6/2
f 59/6/6 63/5/6 61/3/6 57/4/6
f 64/5/1 62/3/1 61/4/1 63/6/1
f 63/2/5 59/1/5 60/5/5 64/6/5
f 60/5/3 58/3/3 62/4/3 64/6/3
f 67/5/3 65/3/3 66/4/3 68/6/3
f 66/5/2 65/1/2 69/2/2 70/6/2
f 67/6/4 71/5/4 69/3/4 65/4/4
f 71/6/6 72/5/6 70/3/6 69/4/6
f 71/2/5 67/1/5 68/5/5 72/6/5
f 68/5/1 66/3/1 70/4/1 72/6/1
f 76/6/4 75/5/4 73/3/4 74/4/4
f 74/5/2 73/1/2 77/2/2 78/6/2
f 75/6/6 79/5/6 77/3/6 73/4/6
f 80/5/1 78/3/1 77/4/1 79/6/1
f 79/2/5 75/1/5 76/5/5 80/6/5
f 76/5/3 74/3/3 78/4/3 80/6/3
f 84/6/6 83/5/6 81/3/6 82/4/6
f 82/5/2 81/1/2 85/2/2 86/6/2
f 87/5/1 85/3/1 81/4/1 83/6/1
f 88/5/3 86/3/3 85/4/3 87/6/3
f 87/2/5 83/1/5 84/5/5 88/6/5
f 88/6/4 84/5/4 82/3/4 86/4/4
f 91/5/3 89/3/3 90/4/3 92/6/3
f 90/5/2 89/1/2 93/2/2 94/6/2
f 91/6/4 95/5/4 93/3/4 89/4/4
f 95/6/6 96/5/6 94/3/6 93/4/6
f 95/2/5 91/1/5 92/5/5 96/6/5
f 92/5/1 90/3/1 94/4/1 96/6/1
f 99/5/1 97/3/1 98/4/1 100/6/1
f 102/6/6 98/5/6 97/1/6 101/2/6
f 103/5/2 101/3/2 97/4/2 99/6/2
f 103/6/4 104/5/4 102/3/4 101/4/4
f 99/1/3 100/5/3 104/6/3 103/2/3
f 104/6/5 100/5/5 98/3/5 102/4/5
f 108/6/4 107/5/4 105/3/4 106/4/4
f 106/5/3 105/1/3 109/2/3 110/6/3
f 111/5/2 109/3/2 105/4/2 107/6/2
f 112/5/1 110/3/1 109/4/1 111/6/1
f 111/2/6 107/1/6 108/5/6 112/6/6
f 112/6/5 108/5/5 106/3/5 110/4/5
f 116/6/6 115/5/6 113/3/6 114/4/6
f 114/5/2 113/1/2 117/2/2 118/6/2
f 119/5/1 117/3/1 113/4/1 115/6/1
f 120/5/3 118/3/3 117/4/3 119/6/3
f 119/2/5 115/1/5 116/5/5 120/6/5
f 120/6/4 116/5/4 114/3/4 118/4/4
f 124/6/4 123/5/4 121/3/4 122/4/4
f 122/5/2 121/1/2 125/2/2 126/6/2
f 123/6/6 127/5/6 125/3/6 121/4/6
f 128/5/1 126/3/1 125/4/1 127/6/1
f 127/2/5 123/1/5 124/5/5 128/6/5
f 124/5/3 122/3/3 126/4/3 128/6/3
f 132/6/4 131/5/4 129/3/4 130/4/4
f 130/5/2 129/1/2 133/2/2 134/6/2
f 131/6/6 135/5/6 133/3/6 129/4/6
f 136/5/1 134/3/1 133/4/1 135/6/1
f 135/2/5 131/1/5 132/5/5 136/6/5
f 132/5/3 130/3/3 134/4/3 136/6/3
f 139/5/3 137/3/3 138/4/3 140/6/3
f 138/5/2 137/1/2 141/2/2 142/6/2
f 139/6/4 143/5/4 141/3/4 137/4/4
f 143/6/6 144/5/6 142/3/6 141/4/6
f 143/2/5 139/1/5 140/5/5 144/6/5
f 140/5/1 138/3/1 142/4/1 144/6/1
f 147/5/1 145/3/1 146/4/1 148/6/1
f 150/6/6 146/5/6 145/1/6 149/2/6
f 151/5/2 149/3/2 145/4/2 147/6/2
f 151/6/4 152/5/4 150/3/4 149/4/4
f 147/1/3 148/5/3 152/6/3 151/2/3
f 152/6/5 148/5/5 146/3/5 150/4/5
f 155/5/1 153/3/1 154/4/1 156/6/1
f 158/6/6 154/5/6 153/1/6 157/2/6
f 159/5/2 157/3/2 153/4/2 155/6/2
f 159/6/4 160/5/4 158/3/4 157/4/4
f 155/1/3 156/5/3 160/6/3 159/2/3
f 160/6/5 156/5/5 154/3/5 158/4/5
f 164/6/6 163/5/6 161/3/6 162/4/6
f 162/5/2 161/1/2 165/2/2 166/6/2
f 167/5/1 165/3/1 161/4/1 163/6/1
f 168/5/3 166/3/3 165/4/3 167/6/3
f 167/2/5 163/1/5 164/5/5 168/6/5
f 168/6/4 164/5/4 162/3/4 166/4/4
f 172/6/4 171/5/4 169/3/4 170/4/4
f 170/5/3 169/1/3 173/2/3 174/6/3
f 175/5/2 173/3/2 169/4/2 171/6/2
f 176/5/1 174/3/1 173/4/1 175/6/1
f 175/2/6 171/1/6 172/5/6 176/6/6
f 176/6/5 172/5/5 170/3/5 174/4/5
f 180/6/4 179/5/4 177/3/4 178/4/4
f 178/5/3 177/1/3 181/2/3 182/6/3
f 183/5/2 181/3/2 177/4/2 179/6/2
f 184/5/1 182/3/1 181/4/1 183/6/1
f 183/2/6 179/1/6 180/5/6 184/6/6
f 184/6/5 180/5/5 178/3/5 182/4/5
f 188/6/4 187/5/4 185/3/4 186/4/4
f 186/5/3 185/1/3 189/2/3 190/6/3
f 191/5/2 189/3/2 185/4/2 187/6/2
f 192/5/1 190/3/1 189/4/1 191/6/1
f 191/2/6 187/1/6 188/5/6 192/6/6
f 192/6/5 188/5/5 186/3/5 190/4/5
f 196/6/6 195/5/6 193/3/6 194/4/6
f 194/5/2 193/1/2 197/2/2 198/6/2
f 199/5/1 197/3/1 193/4/1 195/6/1
f 200/5/3 198/3/3 197/4/3 199/6/3
f 199/2/5 195/1/5 196/5/5 200/6/5
f 200/6/4 196/5/4 194/3/4 198/4/4
f 203/5/3 201/3/3 202/4/3 204/6/3
f 202/5/2 201/1/2 205/2/2 206/6/2
f 203/6/4 207/5/4 205/3/4 201/4/4
f 207/6/6 208/5/6 206/3/6 205/4/6
f 207/2/5 203/1/5 204/5/5 208/6/5
f 204/5/1 202/3/1 206/4/1 208/6/1
f 211/5/1 209/3/1 210/4/1 212/6/1
f 214/6/6 210/5/6 209/1/6 213/2/6
f 215/5/2 213/3/2 209/4/2 211/6/2
f 215/6/4 216/5/4 214/3/4 213/4/4
f 211/1/3 212/5/3 216/6/3 215/2/3
f 216/6/5 212/5/5 210/3/5 214/4/5
f 220/6/4 219/5/4 217/3/4 218/4/4
f 218/5/3 217/1/3 221/2/3 222/6/3
f 223/5/2 221/3/2 217/4/2 219/6/2
f 224/5/1 222/3/1 221/4/1 223/6/1
f 223/2/6 219/1/6 220/5/6 224/6/6
f 224/6/5 220/5/5 218/3/5 222/4/5
f 228/6/6 227/5/6 225/3/6 226/4/6
f 226/5/2 225/1/2 229/2/2 230/6/2
f 231/5/1 229/3/1 225/4/1 227/6/1
f 232/5/3 230/3/3 229/4/3 231/6/3
f 231/2/5 227/1/5 228/5/5 232/6/5
f 232/6/4 228/5/4 226/3/4 230/4/4
f 236/6/4 235/5/4 233/3/4 234/4/4
f 234/5/2 233/1/2 237/2/2 238/6/2
f 235/6/6 239/5/6 237/3/6 233/4/6
f 240/5/1 238/3/1 237/4/1 239/6/1
f 239/2/5 235/1/5 236/5/5 240/6/5
f 236/5/3 234/3/3 238/4/3 240/6/3
f 244/6/4 243/5/4 241/3/4 242/4/4
f 242/5/2 241/1/2 245/2/2 246/6/2
f 243/6/6 247/5/6 245/3/6 241/4/6
f 248/5/1 246/3/1 245/4/1 247/6/1
f 247/2/5 243/1/5 244/5/5 248/6/5
f 244/5/3 242/3/3 246/4/3 248/6/3
f 252/6/4 251/5/4 249/3/4 250/4/4
f 250/5/2 249/1/2 253/2/2 254/6/2
f 251/6/6 255/5/6 253/3/6 249/4/6
f 256/5/1 254/3/1 253/4/1 255/6/1
f 255/2/5 251/1/5 252/5/5 256/6/5
f 252/5/3 250/3/3 254/4/3 256/6/3
f 259/5/3 257/3/3 258/4/3 260/6/3
f 258/5/2 257/1/2 261/2/2 262/6/2
f 259/6/4 263/5/4 261/3/4 257/4/4
f 263/6/6 264/5/6 262/3/6 261/4/6
f 263/2/5 259/1/5 260/5/5 264/6/5
f 260/5/1 258/3/1 262/4/1 264/6/1
f 268/6/4 267/5/4 265/3/4 266/4/4
f 266/5/2 265/1/2 269/2/2 270/6/2
f 267/6/6 271/5/6 269/3/6 265/4/6
f 272/5/1 270/3/1 269/4/1 271/6/1
f 271/2/5 267/1/5 268/5/5 272/6/5
f 268/5/3 266/3/3 270/4/3 272/6/3
f 276/6/4 275/5/4 273/3/4 274/4/4
f 274/5/2 273/1/2 277/2/2 278/6/2
f 275/6/6 279/5/6 277/3/6 273/4/6
f 280/5/1 278/3/1 277/4/1 279/6/1
f 279/2/5 275/1/5 276/5/5 280/6/5
f 276/5/3 274/3/3 278/4/3 280/6/3
f 284/6/6 283/5/6 281/3/6 282/4/6
f 282/5/2 281/1/2 285/2/2 286/6/2
f 287/5/1 285/3/1 281/4/1 283/6/1
f 288/5/3 286/3/3 285/4/3 287/6/3
f 287/2/5 283/1/5 284/5/5 288/6/5
f 288/6/4 284/5/4 282/3/4 286/4/4
f 292/6/6 291/5/6 289/3/6 290/4/6
f 290/5/2 289/1/2 293/2/2 294/6/2
f 295/5/1 293/3/1 289/4/1 291/6/1
f 296/5/3 294/3/3 293/4/3 295/6/3
f 295/2/5 291/1/5 292/5/5 296/6/5
f 296/6/4 292/5/4 290/3/4 294/4/4
f 299/5/3 297/3/3 298/4/3 300/6/3
f 298/5/1 297/1/1 301/2/1 302/6/1
f 303/5/2 301/3/2 297/4/2 299/6/2
f 303/6/6 304/5/6 302/3/6 301/4/6
f 303/2/4 299/1/4 300/5/4 304/6/4
f 304/6/5 300/5/5 298/3/5 302/4/5
f 307/5/3 305/3/3 306/4/3 308/6/3
f 306/5/1 305/1/1 309/2/1 310/6/1
f 311/5/2 309/3/2 305/4/2 307/6/2
f 311/6/6 312/5/6 310/3/6 309/4/6
f 311/2/4 307/1/4 308/5/4 312/6/4
f 312/6/5 308/5/5 306/3/5 310/4/5
f 316/6/4 315/5/4 313/3/4 314/4/4
f 314/5/2 313/1/2 317/2/2 318/6/2
f 315/6/6 319/5/6 317/3/6 313/4/6
f 320/5/1 318/3/1 317/4/1 319/6/1
f 319/2/5 315/1/5 316/5/5 320/6/5
f 316/5/3 314/3/3 318/4/3 320/6/3
f 324/6/6 323/5/6 321/3/6 322/4/6
f 322/5/2 321/1/2 325/2/2 326/6/2
f 327/5/1 325/3/1 321/4/1 323/6/1
f 328/5/3 326/3/3 325/4/3 327/6/3
f 327/2/5 323/1/5 324/5/5 328/6/5
f 328/6/4 324/5/4 322/3/4 326/4/4
f 331/5/1 329/3/1 330/4/1 332/6/1
f 330/5/2 329/1/2 333/2/2 334/6/2
f 335/5/3 333/3/3 329/4/3 331/6/3
f 335/6/4 336/5/4 334/3/4 333/4/4
f 335/2/5 331/1/5 332/5/5 336/6/5
f 336/6/6 332/5/6 330/3/6 334/4/6
f 339/5/1 337/3/1 338/4/1 340/6/1
f 338/5/2 337/1/2 341/2/2 342/6/2
f 343/5/3 341/3/3 337/4/3 339/6/3
f 343/6/4 344/5/4 342/3/4 341/4/4
f 343/2/5 339/1/5 340/5/5 344/6/5
f 344/6/6 340/5/6 338/3/6 342/4/6
