mtllib lighthouse.mtl
usemtl composter_bottom
v 2 11 -1
v 2 11 0
v 3 11 -1
v 3 11 0
v 2 11.1875 -1
v 2 11.1875 0
v 3 11.1875 -1
v 3 11.1875 0
v 2.125 11.375 -0.875
v 2.125 11.375 -0.125
v 2.875 11.375 -0.875
v 2.875 11.375 -0.125
vt 0.000000000 0.000000000
vt 1.000000000 0.000000000
vt 0.125000000 0.125000000
vt 0.875000000 0.125000000
vt 0.125000000 0.875000000
vt 0.875000000 0.875000000
vt 0.000000000 1.000000000
vt 1.000000000 1.000000000
vn 0 -1 0
vn 0 1 0
f 2/7/1 1/1/1 3/2/1 4/8/1
f 6/7/1 5/1/1 7/2/1 8/8/1
f 11/6/2 9/5/2 10/3/2 12/4/2
