mtllib lighthouse.mtl
usemtl shulker_side_white
v 2 9 3
v 2 10 3
v 2 9 4
v 2 9 5
v 3 9 3
v 3 10 3
v 3 9 4
v 2 10 4
v 3 10 4
v 3 9 5
v 2 10 5
v 3 10 5
vt 0.000000000 0.000000000
vt 1.000000000 0.000000000
vt 0.000000000 1.000000000
vt 1.000000000 1.000000000
vn -1 0 0
vn 0 0 -1
vn 1 0 0
vn 0 0 1
f 3/2/1 8/4/1 2/3/1 1/1/1
f 1/2/2 2/4/2 6/3/2 5/1/2
f 7/1/3 5/2/3 6/4/3 9/3/3
f 3/1/4 7/2/4 9/4/4 8/3/4
f 4/2/1 11/4/1 8/3/1 3/1/1
f 3/2/2 8/4/2 9/3/2 7/1/2
f 10/1/3 7/2/3 9/4/3 12/3/3
f 4/1/4 10/2/4 12/4/4 11/3/4
