mtllib lighthouse.mtl
usemtl mangrove_door_bottom
v 0 9 7
v 0.3125 9 7
v 0 10 7
v 0.3125 10 7
v 0 9 6
v 0.3125 9 6
v 0 10 6
v 0.3125 10 6
v 0 10 7
v 0.3125 10 7
v 0 10 6
v 0.3125 10 6
vt 0.000000000 0.000000000
vt 0.312500000 0.000000000
vt 0.687500000 0.000000000
vt 1.000000000 0.000000000
vt 0.000000000 0.312500000
vt 1.000000000 0.312500000
vt 0.000000000 1.000000000
vt 0.312500000 1.000000000
vt 0.687500000 1.000000000
vt 1.000000000 1.000000000
vn -1 0 0
vn 0 -1 0
vn 0 0 -1
vn 1 0 0
vn 0 0 1
f 4/10/5 3/9/5 1/3/5 2/4/5
f 2/5/2 1/1/2 5/4/2 6/6/2
f 7/10/1 5/4/1 1/1/1 3/7/1
f 8/7/3 6/1/3 5/2/3 7/8/3
f 8/10/4 4/7/4 2/1/4 6/4/4
f 10/5/2 9/1/2 11/4/2 12/6/2
