mtllib lighthouse.mtl
usemtl mangrove_roots_top
v -8 4 -8
v -8 4 -7
v -8 5 -8
v -8 5 -7
v -7 4 -8
v -7 4 -7
v -7 5 -8
v -7 5 -7
v -8 5 -5
v -8 5 -4
v -8 6 -5
v -8 6 -4
v -7 5 -5
v -7 5 -4
v -7 6 -5
v -7 6 -4
v -7 4 -7
v -7 4 -6
v -7 5 -7
v -7 5 -6
v -6 4 -7
v -6 4 -6
v -6 5 -7
v -6 5 -6
v -5 2 -13
v -5 2 -12
v -5 3 -13
v -5 3 -12
v -4 2 -13
v -4 2 -12
v -4 3 -13
v -4 3 -12
v -4 0 -14
v -4 0 -13
v -4 1 -14
v -4 1 -13
v -3 0 -14
v -3 0 -13
v -3 1 -14
v -3 1 -13
v -4 1 -13
v -4 1 -12
v -4 2 -13
v -4 2 -12
v -3 1 -13
v -3 1 -12
v -3 2 -13
v -3 2 -12
v -3 1 -9
v -3 1 -8
v -3 2 -9
v -3 2 -8
v -2 1 -9
v -2 1 -8
v -2 2 -9
v -2 2 -8
v 1 2 -10
v 1 2 -9
v 1 3 -10
v 1 3 -9
v 2 2 -10
v 2 2 -9
v 2 3 -10
v 2 3 -9
v 2 0 -13
v 2 0 -12
v 2 1 -13
v 2 1 -12
v 3 0 -13
v 3 0 -12
v 3 1 -13
v 3 1 -12
v 2 1 -11
v 2 1 -10
v 2 2 -11
v 2 2 -10
v 3 1 -11
v 3 1 -10
v 3 2 -11
v 3 2 -10
v 9 2 2
v 9 2 3
v 9 3 2
v 9 3 3
v 10 2 2
v 10 2 3
v 10 3 2
v 10 3 3
v 10 2 6
v 10 2 7
v 10 3 6
v 10 3 7
v 11 2 6
v 11 2 7
v 11 3 6
v 11 3 7
v 11 1 -1
v 11 1 0
v 11 2 -1
v 11 2 0
v 12 1 -1
v 12 1 0
v 12 2 -1
v 12 2 0
v 12 0 0
v 12 0 1
v 12 1 0
v 12 1 1
v 13 0 0
v 13 0 1
v 13 1 0
v 13 1 1
v 12 2 6
v 12 2 7
v 12 3 6
v 12 3 7
v 13 2 6
v 13 2 7
v 13 3 6
v 13 3 7
v 13 0 -1
v 13 0 0
v 13 1 -1
v 13 1 0
v 14 0 -1
v 14 0 0
v 14 1 -1
v 14 1 0
v 14 1 6
v 14 1 7
v 14 2 6
v 14 2 7
v 15 1 6
v 15 1 7
v 15 2 6
v 15 2 7
vt 0.000000000 0.000000000
vt 1.000000000 0.000000000
vt 0.000000000 1.000000000
vt 1.000000000 1.000000000
vn 0 -1 0
vn 0 1 0
f 2/3/1 1/1/1 5/2/1 6/4/1
f 7/4/2 3/3/2 4/1/2 8/2/2
f 10/3/1 9/1/1 13/2/1 14/4/1
f 15/4/2 11/3/2 12/1/2 16/2/2
f 18/3/1 17/1/1 21/2/1 22/4/1
f 23/4/2 19/3/2 20/1/2 24/2/2
f 26/3/1 25/1/1 29/2/1 30/4/1
f 31/4/2 27/3/2 28/1/2 32/2/2
f 34/3/1 33/1/1 37/2/1 38/4/1
f 39/4/2 35/3/2 36/1/2 40/2/2
f 42/3/1 41/1/1 45/2/1 46/4/1
f 47/4/2 43/3/2 44/1/2 48/2/2
f 50/3/1 49/1/1 53/2/1 54/4/1
f 55/4/2 51/3/2 52/1/2 56/2/2
f 58/3/1 57/1/1 61/2/1 62/4/1
f 63/4/2 59/3/2 60/1/2 64/2/2
f 66/3/1 65/1/1 69/2/1 70/4/1
f 71/4/2 67/3/2 68/1/2 72/2/2
f 74/3/1 73/1/1 77/2/1 78/4/1
f 79/4/2 75/3/2 76/1/2 80/2/2
f 82/3/1 81/1/1 85/2/1 86/4/1
f 87/4/2 83/3/2 84/1/2 88/2/2
f 90/3/1 89/1/1 93/2/1 94/4/1
f 95/4/2 91/3/2 92/1/2 96/2/2
f 98/3/1 97/1/1 101/2/1 102/4/1
f 103/4/2 99/3/2 100/1/2 104/2/2
f 106/3/1 105/1/1 109/2/1 110/4/1
f 111/4/2 107/3/2 108/1/2 112/2/2
f 114/3/1 113/1/1 117/2/1 118/4/1
f 119/4/2 115/3/2 116/1/2 120/2/2
f 122/3/1 121/1/1 125/2/1 126/4/1
f 127/4/2 123/3/2 124/1/2 128/2/2
f 130/3/1 129/1/1 133/2/1 134/4/1
f 135/4/2 131/3/2 132/1/2 136/2/2
