mtllib lighthouse.mtl
usemtl scaffolding_side
v -2 30.875 -1
v -2 30.875 0
v -2 31 -1
v -2 31 0
v -1 30.875 -1
v -1 30.875 0
v -1 31 -1
v -1 31 0
v -2 30.875 -0.125
v -2 30.875 0
v -2 31 -0.125
v -2 31 0
v -1 30.875 -1
v -1 30.875 -0.875
v -1 31 -1
v -1 31 -0.875
v -1.125 30.875 -1
v -1.125 31 -1
v -1 30.875 -1
v -1 31 -1
v -1.875 30.875 0
v -1.875 31 0
v -1 30.875 0
v -1 31 0
v -2 30 -1
v -2 30 -0.875
v -2 30.875 -1
v -2 30.875 -0.875
v -1.875 30 -1
v -1.875 30 -0.875
v -1.875 30.875 -1
v -1.875 30.875 -0.875
v -2 30 -0.125
v -2 30 0
v -2 30.875 -0.125
v -2 30.875 0
v -1.875 30 -0.125
v -1.875 30 0
v -1.875 30.875 -0.125
v -1.875 30.875 0
v -1.125 30 -1
v -1.125 30 -0.875
v -1.125 30.875 -1
v -1.125 30.875 -0.875
v -1 30 -1
v -1 30 -0.875
v -1 30.875 -1
v -1 30.875 -0.875
v -1.125 30 -0.125
v -1.125 30 0
v -1.125 30.875 -0.125
v -1.125 30.875 0
v -1 30 -0.125
v -1 30 0
v -1 30.875 -0.125
v -1 30.875 0
v -2 31.875 -1
v -2 31.875 0
v -2 32 -1
v -2 32 0
v -1 31.875 -1
v -1 31.875 0
v -1 32 -1
v -1 32 0
v -2 31.875 -0.125
v -2 31.875 0
v -2 32 -0.125
v -2 32 0
v -1 31.875 -1
v -1 31.875 -0.875
v -1 32 -1
v -1 32 -0.875
v -1.125 31.875 -1
v -1.125 32 -1
v -1 31.875 -1
v -1 32 -1
v -1.875 31.875 0
v -1.875 32 0
v -1 31.875 0
v -1 32 0
v -2 31 -1
v -2 31 -0.875
v -2 31.875 -1
v -2 31.875 -0.875
v -1.875 31 -1
v -1.875 31 -0.875
v -1.875 31.875 -1
v -1.875 31.875 -0.875
v -2 31 -0.125
v -2 31 0
v -2 31.875 -0.125
v -2 31.875 0
v -1.875 31 -0.125
v -1.875 31 0
v -1.875 31.875 -0.125
v -1.875 31.875 0
v -1.125 31 -1
v -1.125 31 -0.875
v -1.125 31.875 -1
v -1.125 31.875 -0.875
v -1 31 -1
v -1 31 -0.875
v -1 31.875 -1
v -1 31.875 -0.875
v -1.125 31 -0.125
v -1.125 31 0
v -1.125 31.875 -0.125
v -1.125 31.875 0
v -1 31 -0.125
v -1 31 0
v -1 31.875 -0.125
v -1 31.875 0
v -2 32.875 -1
v -2 32.875 0
v -2 33 -1
v -2 33 0
v -1 32.875 -1
v -1 32.875 0
v -1 33 -1
v -1 33 0
v -2 32.875 -0.125
v -2 32.875 0
v -2 33 -0.125
v -2 33 0
v -1 32.875 -1
v -1 32.875 -0.875
v -1 33 -1
v -1 33 -0.875
v -1.125 32.875 -1
v -1.125 33 -1
v -1 32.875 -1
v -1 33 -1
v -1.875 32.875 0
v -1.875 33 0
v -1 32.875 0
v -1 33 0
v -2 32 -1
v -2 32 -0.875
v -2 32.875 -1
v -2 32.875 -0.875
v -1.875 32 -1
v -1.875 32 -0.875
v -1.875 32.875 -1
v -1.875 32.875 -0.875
v -2 32 -0.125
v -2 32 0
v -2 32.875 -0.125
v -2 32.875 0
v -1.875 32 -0.125
v -1.875 32 0
v -1.875 32.875 -0.125
v -1.875 32.875 0
v -1.125 32 -1
v -1.125 32 -0.875
v -1.125 32.875 -1
v -1.125 32.875 -0.875
v -1 32 -1
v -1 32 -0.875
v -1 32.875 -1
v -1 32.875 -0.875
v -1.125 32 -0.125
v -1.125 32 0
v -1.125 32.875 -0.125
v -1.125 32.875 0
v -1 32 -0.125
v -1 32 0
v -1 32.875 -0.125
v -1 32.875 0
v -2 33.875 -1
v -2 33.875 0
v -2 34 -1
v -2 34 0
v -1 33.875 -1
v -1 33.875 0
v -1 34 -1
v -1 34 0
v -2 33.875 -0.125
v -2 33.875 0
v -2 34 -0.125
v -2 34 0
v -1 33.875 -1
v -1 33.875 -0.875
v -1 34 -1
v -1 34 -0.875
v -1.125 33.875 -1
v -1.125 34 -1
v -1 33.875 -1
v -1 34 -1
v -1.875 33.875 0
v -1.875 34 0
v -1 33.875 0
v -1 34 0
v -2 33 -1
v -2 33 -0.875
v -2 33.875 -1
v -2 33.875 -0.875
v -1.875 33 -1
v -1.875 33 -0.875
v -1.875 33.875 -1
v -1.875 33.875 -0.875
v -2 33 -0.125
v -2 33 0
v -2 33.875 -0.125
v -2 33.875 0
v -1.875 33 -0.125
v -1.875 33 0
v -1.875 33.875 -0.125
v -1.875 33.875 0
v -1.125 33 -1
v -1.125 33 -0.875
v -1.125 33.875 -1
v -1.125 33.875 -0.875
v -1 33 -1
v -1 33 -0.875
v -1 33.875 -1
v -1 33.875 -0.875
v -1.125 33 -0.125
v -1.125 33 0
v -1.125 33.875 -0.125
v -1.125 33.875 0
v -1 33 -0.125
v -1 33 0
v -1 33.875 -0.125
v -1 33.875 0
v -2 34.875 -1
v -2 34.875 0
v -2 35 -1
v -2 35 0
v -1 34.875 -1
v -1 34.875 0
v -1 35 -1
v -1 35 0
v -2 34.875 -0.125
v -2 34.875 0
v -2 35 -0.125
v -2 35 0
v -1 34.875 -1
v -1 34.875 -0.875
v -1 35 -1
v -1 35 -0.875
v -1.125 34.875 -1
v -1.125 35 -1
v -1 34.875 -1
v -1 35 -1
v -1.875 34.875 0
v -1.875 35 0
v -1 34.875 0
v -1 35 0
v -2 34 -1
v -2 34 -0.875
v -2 34.875 -1
v -2 34.875 -0.875
v -1.875 34 -1
v -1.875 34 -0.875
v -1.875 34.875 -1
v -1.875 34.875 -0.875
v -2 34 -0.125
v -2 34 0
v -2 34.875 -0.125
v -2 34.875 0
v -1.875 34 -0.125
v -1.875 34 0
v -1.875 34.875 -0.125
v -1.875 34.875 0
v -1.125 34 -1
v -1.125 34 -0.875
v -1.125 34.875 -1
v -1.125 34.875 -0.875
v -1 34 -1
v -1 34 -0.875
v -1 34.875 -1
v -1 34.875 -0.875
v -1.125 34 -0.125
v -1.125 34 0
v -1.125 34.875 -0.125
v -1.125 34.875 0
v -1 34 -0.125
v -1 34 0
v -1 34.875 -0.125
v -1 34.875 0
v -2 35.875 -1
v -2 35.875 0
v -2 36 -1
v -2 36 0
v -1 35.875 -1
v -1 35.875 0
v -1 36 -1
v -1 36 0
v -2 35.875 -0.125
v -2 35.875 0
v -2 36 -0.125
v -2 36 0
v -1 35.875 -1
v -1 35.875 -0.875
v -1 36 -1
v -1 36 -0.875
v -1.125 35.875 -1
v -1.125 36 -1
v -1 35.875 -1
v -1 36 -1
v -1.875 35.875 0
v -1.875 36 0
v -1 35.875 0
v -1 36 0
v -2 35 -1
v -2 35 -0.875
v -2 35.875 -1
v -2 35.875 -0.875
v -1.875 35 -1
v -1.875 35 -0.875
v -1.875 35.875 -1
v -1.875 35.875 -0.875
v -2 35 -0.125
v -2 35 0
v -2 35.875 -0.125
v -2 35.875 0
v -1.875 35 -0.125
v -1.875 35 0
v -1.875 35.875 -0.125
v -1.875 35.875 0
v -1.125 35 -1
v -1.125 35 -0.875
v -1.125 35.875 -1
v -1.125 35.875 -0.875
v -1 35 -1
v -1 35 -0.875
v -1 35.875 -1
v -1 35.875 -0.875
v -1.125 35 -0.125
v -1.125 35 0
v -1.125 35.875 -0.125
v -1.125 35.875 0
v -1 35 -0.125
v -1 35 0
v -1 35.875 -0.125
v -1 35.875 0
v -2 36.875 -1
v -2 36.875 0
v -2 37 -1
v -2 37 0
v -1 36.875 -1
v -1 36.875 0
v -1 37 -1
v -1 37 0
v -2 36.875 -0.125
v -2 36.875 0
v -2 37 -0.125
v -2 37 0
v -1 36.875 -1
v -1 36.875 -0.875
v -1 37 -1
v -1 37 -0.875
v -1.125 36.875 -1
v -1.125 37 -1
v -1 36.875 -1
v -1 37 -1
v -1.875 36.875 0
v -1.875 37 0
v -1 36.875 0
v -1 37 0
v -2 36 -1
v -2 36 -0.875
v -2 36.875 -1
v -2 36.875 -0.875
v -1.875 36 -1
v -1.875 36 -0.875
v -1.875 36.875 -1
v -1.875 36.875 -0.875
v -2 36 -0.125
v -2 36 0
v -2 36.875 -0.125
v -2 36.875 0
v -1.875 36 -0.125
v -1.875 36 0
v -1.875 36.875 -0.125
v -1.875 36.875 0
v -1.125 36 -1
v -1.125 36 -0.875
v -1.125 36.875 -1
v -1.125 36.875 -0.875
v -1 36 -1
v -1 36 -0.875
v -1 36.875 -1
v -1 36.875 -0.875
v -1.125 36 -0.125
v -1.125 36 0
v -1.125 36.875 -0.125
v -1.125 36.875 0
v -1 36 -0.125
v -1 36 0
v -1 36.875 -0.125
v -1 36.875 0
v 2 21.875 -1
v 2 21.875 0
v 2 22 -1
v 2 22 0
v 3 21.875 -1
v 3 21.875 0
v 3 22 -1
v 3 22 0
v 2 21.875 -0.125
v 2 21.875 0
v 2 22 -0.125
v 2 22 0
v 3 21.875 -1
v 3 21.875 -0.875
v 3 22 -1
v 3 22 -0.875
v 2.875 21.875 -1
v 2.875 22 -1
v 3 21.875 -1
v 3 22 -1
v 2.125 21.875 0
v 2.125 22 0
v 3 21.875 0
v 3 22 0
v 2 21 -1
v 2 21 -0.875
v 2 21.875 -1
v 2 21.875 -0.875
v 2.125 21 -1
v 2.125 21 -0.875
v 2.125 21.875 -1
v 2.125 21.875 -0.875
v 2 21 -0.125
v 2 21 0
v 2 21.875 -0.125
v 2 21.875 0
v 2.125 21 -0.125
v 2.125 21 0
v 2.125 21.875 -0.125
v 2.125 21.875 0
v 2.875 21 -1
v 2.875 21 -0.875
v 2.875 21.875 -1
v 2.875 21.875 -0.875
v 3 21 -1
v 3 21 -0.875
v 3 21.875 -1
v 3 21.875 -0.875
v 2.875 21 -0.125
v 2.875 21 0
v 2.875 21.875 -0.125
v 2.875 21.875 0
v 3 21 -0.125
v 3 21 0
v 3 21.875 -0.125
v 3 21.875 0
v 2 22.875 -1
v 2 22.875 0
v 2 23 -1
v 2 23 0
v 3 22.875 -1
v 3 22.875 0
v 3 23 -1
v 3 23 0
v 2 22.875 -0.125
v 2 22.875 0
v 2 23 -0.125
v 2 23 0
v 3 22.875 -1
v 3 22.875 -0.875
v 3 23 -1
v 3 23 -0.875
v 2.875 22.875 -1
v 2.875 23 -1
v 3 22.875 -1
v 3 23 -1
v 2.125 22.875 0
v 2.125 23 0
v 3 22.875 0
v 3 23 0
v 2 22 -1
v 2 22 -0.875
v 2 22.875 -1
v 2 22.875 -0.875
v 2.125 22 -1
v 2.125 22 -0.875
v 2.125 22.875 -1
v 2.125 22.875 -0.875
v 2 22 -0.125
v 2 22 0
v 2 22.875 -0.125
v 2 22.875 0
v 2.125 22 -0.125
v 2.125 22 0
v 2.125 22.875 -0.125
v 2.125 22.875 0
v 2.875 22 -1
v 2.875 22 -0.875
v 2.875 22.875 -1
v 2.875 22.875 -0.875
v 3 22 -1
v 3 22 -0.875
v 3 22.875 -1
v 3 22.875 -0.875
v 2.875 22 -0.125
v 2.875 22 0
v 2.875 22.875 -0.125
v 2.875 22.875 0
v 3 22 -0.125
v 3 22 0
v 3 22.875 -0.125
v 3 22.875 0
v 2 23.875 -1
v 2 23.875 0
v 2 24 -1
v 2 24 0
v 3 23.875 -1
v 3 23.875 0
v 3 24 -1
v 3 24 0
v 2 23.875 -0.125
v 2 23.875 0
v 2 24 -0.125
v 2 24 0
v 3 23.875 -1
v 3 23.875 -0.875
v 3 24 -1
v 3 24 -0.875
v 2.875 23.875 -1
v 2.875 24 -1
v 3 23.875 -1
v 3 24 -1
v 2.125 23.875 0
v 2.125 24 0
v 3 23.875 0
v 3 24 0
v 2 23 -1
v 2 23 -0.875
v 2 23.875 -1
v 2 23.875 -0.875
v 2.125 23 -1
v 2.125 23 -0.875
v 2.125 23.875 -1
v 2.125 23.875 -0.875
v 2 23 -0.125
v 2 23 0
v 2 23.875 -0.125
v 2 23.875 0
v 2.125 23 -0.125
v 2.125 23 0
v 2.125 23.875 -0.125
v 2.125 23.875 0
v 2.875 23 -1
v 2.875 23 -0.875
v 2.875 23.875 -1
v 2.875 23.875 -0.875
v 3 23 -1
v 3 23 -0.875
v 3 23.875 -1
v 3 23.875 -0.875
v 2.875 23 -0.125
v 2.875 23 0
v 2.875 23.875 -0.125
v 2.875 23.875 0
v 3 23 -0.125
v 3 23 0
v 3 23.875 -0.125
v 3 23.875 0
v 2 24.875 -1
v 2 24.875 0
v 2 25 -1
v 2 25 0
v 3 24.875 -1
v 3 24.875 0
v 3 25 -1
v 3 25 0
v 2 24.875 -0.125
v 2 24.875 0
v 2 25 -0.125
v 2 25 0
v 3 24.875 -1
v 3 24.875 -0.875
v 3 25 -1
v 3 25 -0.875
v 2.875 24.875 -1
v 2.875 25 -1
v 3 24.875 -1
v 3 25 -1
v 2.125 24.875 0
v 2.125 25 0
v 3 24.875 0
v 3 25 0
v 2 24 -1
v 2 24 -0.875
v 2 24.875 -1
v 2 24.875 -0.875
v 2.125 24 -1
v 2.125 24 -0.875
v 2.125 24.875 -1
v 2.125 24.875 -0.875
v 2 24 -0.125
v 2 24 0
v 2 24.875 -0.125
v 2 24.875 0
v 2.125 24 -0.125
v 2.125 24 0
v 2.125 24.875 -0.125
v 2.125 24.875 0
v 2.875 24 -1
v 2.875 24 -0.875
v 2.875 24.875 -1
v 2.875 24.875 -0.875
v 3 24 -1
v 3 24 -0.875
v 3 24.875 -1
v 3 24.875 -0.875
v 2.875 24 -0.125
v 2.875 24 0
v 2.875 24.875 -0.125
v 2.875 24.875 0
v 3 24 -0.125
v 3 24 0
v 3 24.875 -0.125
v 3 24.875 0
v 2 25.875 -1
v 2 25.875 0
v 2 26 -1
v 2 26 0
v 3 25.875 -1
v 3 25.875 0
v 3 26 -1
v 3 26 0
v 2 25.875 -0.125
v 2 25.875 0
v 2 26 -0.125
v 2 26 0
v 3 25.875 -1
v 3 25.875 -0.875
v 3 26 -1
v 3 26 -0.875
v 2.875 25.875 -1
v 2.875 26 -1
v 3 25.875 -1
v 3 26 -1
v 2.125 25.875 0
v 2.125 26 0
v 3 25.875 0
v 3 26 0
v 2 25 -1
v 2 25 -0.875
v 2 25.875 -1
v 2 25.875 -0.875
v 2.125 25 -1
v 2.125 25 -0.875
v 2.125 25.875 -1
v 2.125 25.875 -0.875
v 2 25 -0.125
v 2 25 0
v 2 25.875 -0.125
v 2 25.875 0
v 2.125 25 -0.125
v 2.125 25 0
v 2.125 25.875 -0.125
v 2.125 25.875 0
v 2.875 25 -1
v 2.875 25 -0.875
v 2.875 25.875 -1
v 2.875 25.875 -0.875
v 3 25 -1
v 3 25 -0.875
v 3 25.875 -1
v 3 25.875 -0.875
v 2.875 25 -0.125
v 2.875 25 0
v 2.875 25.875 -0.125
v 2.875 25.875 0
v 3 25 -0.125
v 3 25 0
v 3 25.875 -0.125
v 3 25.875 0
vt 0.000000000 0.000000000
vt 0.125000000 0.000000000
vt 0.875000000 0.000000000
vt 1.000000000 0.000000000
vt 0.000000000 0.875000000
vt 0.125000000 0.875000000
vt 0.875000000 0.875000000
vt 1.000000000 0.875000000
vt 0.000000000 1.000000000
vt 0.125000000 1.000000000
vt 0.875000000 1.000000000
vt 1.000000000 1.000000000
vn -1 0 0
vn 0 0 -1
vn 1 0 0
vn 0 0 1
f 3/9/1 1/5/1 2/8/1 4/12/1
f 7/9/2 5/5/2 1/8/2 3/12/2
f 7/12/3 8/9/3 6/5/3 5/8/3
f 8/12/4 4/9/4 2/5/4 6/8/4
f 11/11/1 9/7/1 10/8/1 12/12/1
f 15/12/3 16/11/3 14/7/3 13/8/3
f 20/9/2 19/5/2 17/6/2 18/10/2
f 24/12/4 22/10/4 21/6/4 23/8/4
f 27/5/1 25/1/1 26/2/1 28/6/1
f 31/7/2 29/3/2 25/4/2 27/8/2
f 31/8/3 32/7/3 30/3/3 29/4/3
f 32/6/4 28/5/4 26/1/4 30/2/4
f 35/7/1 33/3/1 34/4/1 36/8/1
f 39/7/2 37/3/2 33/4/2 35/8/2
f 39/6/3 40/5/3 38/1/3 37/2/3
f 40/6/4 36/5/4 34/1/4 38/2/4
f 43/5/1 41/1/1 42/2/1 44/6/1
f 47/5/2 45/1/2 41/2/2 43/6/2
f 47/8/3 48/7/3 46/3/3 45/4/3
f 48/8/4 44/7/4 42/3/4 46/4/4
f 51/7/1 49/3/1 50/4/1 52/8/1
f 55/5/2 53/1/2 49/2/2 51/6/2
f 55/6/3 56/5/3 54/1/3 53/2/3
f 56/8/4 52/7/4 50/3/4 54/4/4
f 59/9/1 57/5/1 58/8/1 60/12/1
f 63/9/2 61/5/2 57/8/2 59/12/2
f 63/12/3 64/9/3 62/5/3 61/8/3
f 64/12/4 60/9/4 58/5/4 62/8/4
f 67/11/1 65/7/1 66/8/1 68/12/1
f 71/12/3 72/11/3 70/7/3 69/8/3
f 76/9/2 75/5/2 73/6/2 74/10/2
f 80/12/4 78/10/4 77/6/4 79/8/4
f 83/5/1 81/1/1 82/2/1 84/6/1
f 87/7/2 85/3/2 81/4/2 83/8/2
f 87/8/3 88/7/3 86/3/3 85/4/3
f 88/6/4 84/5/4 82/1/4 86/2/4
f 91/7/1 89/3/1 90/4/1 92/8/1
f 95/7/2 93/3/2 89/4/2 91/8/2
f 95/6/3 96/5/3 94/1/3 93/2/3
f 96/6/4 92/5/4 90/1/4 94/2/4
f 99/5/1 97/1/1 98/2/1 100/6/1
f 103/5/2 101/1/2 97/2/2 99/6/2
f 103/8/3 104/7/3 102/3/3 101/4/3
f 104/8/4 100/7/4 98/3/4 102/4/4
f 107/7/1 105/3/1 106/4/1 108/8/1
f 111/5/2 109/1/2 105/2/2 107/6/2
f 111/6/3 112/5/3 110/1/3 109/2/3
f 112/8/4 108/7/4 106/3/4 110/4/4
f 115/9/1 113/5/1 114/8/1 116/12/1
f 119/9/2 117/5/2 113/8/2 115/12/2
f 119/12/3 120/9/3 118/5/3 117/8/3
f 120/12/4 116/9/4 114/5/4 118/8/4
f 123/11/1 121/7/1 122/8/1 124/12/1
f 127/12/3 128/11/3 126/7/3 125/8/3
f 132/9/2 131/5/2 129/6/2 130/10/2
f 136/12/4 134/10/4 133/6/4 135/8/4
f 139/5/1 137/1/1 138/2/1 140/6/1
f 143/7/2 141/3/2 137/4/2 139/8/2
f 143/8/3 144/7/3 142/3/3 141/4/3
f 144/6/4 140/5/4 138/1/4 142/2/4
f 147/7/1 145/3/1 146/4/1 148/8/1
f 151/7/2 149/3/2 145/4/2 147/8/2
f 151/6/3 152/5/3 150/1/3 149/2/3
f 152/6/4 148/5/4 146/1/4 150/2/4
f 155/5/1 153/1/1 154/2/1 156/6/1
f 159/5/2 157/1/2 153/2/2 155/6/2
f 159/8/3 160/7/3 158/3/3 157/4/3
f 160/8/4 156/7/4 154/3/4 158/4/4
f 163/7/1 161/3/1 162/4/1 164/8/1
f 167/5/2 165/1/2 161/2/2 163/6/2
f 167/6/3 168/5/3 166/1/3 165/2/3
f 168/8/4 164/7/4 162/3/4 166/4/4
f 171/9/1 169/5/1 170/8/1 172/12/1
f 175/9/2 173/5/2 169/8/2 171/12/2
f 175/12/3 176/9/3 174/5/3 173/8/3
f 176/12/4 172/9/4 170/5/4 174/8/4
f 179/11/1 177/7/1 178/8/1 180/12/1
f 183/12/3 184/11/3 182/7/3 181/8/3
f 188/9/2 187/5/2 185/6/2 186/10/2
f 192/12/4 190/10/4 189/6/4 191/8/4
f 195/5/1 193/1/1 194/2/1 196/6/1
f 199/7/2 197/3/2 193/4/2 195/8/2
f 199/8/3 200/7/3 198/3/3 197/4/3
f 200/6/4 196/5/4 194/1/4 198/2/4
f 203/7/1 201/3/1 202/4/1 204/8/1
f 207/7/2 205/3/2 201/4/2 203/8/2
f 207/6/3 208/5/3 206/1/3 205/2/3
f 208/6/4 204/5/4 202/1/4 206/2/4
f 211/5/1 209/1/1 210/2/1 212/6/1
f 215/5/2 213/1/2 209/2/2 211/6/2
f 215/8/3 216/7/3 214/3/3 213/4/3
f 216/8/4 212/7/4 210/3/4 214/4/4
f 219/7/1 217/3/1 218/4/1 220/8/1
f 223/5/2 221/1/2 217/2/2 219/6/2
f 223/6/3 224/5/3 222/1/3 221/2/3
f 224/8/4 220/7/4 218/3/4 222/4/4
f 227/9/1 225/5/1 226/8/1 228/12/1
f 231/9/2 229/5/2 225/8/2 227/12/2
f 231/12/3 232/9/3 230/5/3 229/8/3
f 232/12/4 228/9/4 226/5/4 230/8/4
f 235/11/1 233/7/1 234/8/1 236/12/1
f 239/12/3 240/11/3 238/7/3 237/8/3
f 244/9/2 243/5/2 241/6/2 242/10/2
f 248/12/4 246/10/4 245/6/4 247/8/4
f 251/5/1 249/1/1 250/2/1 252/6/1
f 255/7/2 253/3/2 249/4/2 251/8/2
f 255/8/3 256/7/3 254/3/3 253/4/3
f 256/6/4 252/5/4 250/1/4 254/2/4
f 259/7/1 257/3/1 258/4/1 260/8/1
f 263/7/2 261/3/2 257/4/2 259/8/2
f 263/6/3 264/5/3 262/1/3 261/2/3
f 264/6/4 260/5/4 258/1/4 262/2/4
f 267/5/1 265/1/1 266/2/1 268/6/1
f 271/5/2 269/1/2 265/2/2 267/6/2
f 271/8/3 272/7/3 270/3/3 269/4/3
f 272/8/4 268/7/4 266/3/4 270/4/4
f 275/7/1 273/3/1 274/4/1 276/8/1
f 279/5/2 277/1/2 273/2/2 275/6/2
f 279/6/3 280/5/3 278/1/3 277/2/3
f 280/8/4 276/7/4 274/3/4 278/4/4
f 283/9/1 281/5/1 282/8/1 284/12/1
f 287/9/2 285/5/2 281/8/2 283/12/2
f 287/12/3 288/9/3 286/5/3 285/8/3
f 288/12/4 284/9/4 282/5/4 286/8/4
f 291/11/1 289/7/1 290/8/1 292/12/1
f 295/12/3 296/11/3 294/7/3 293/8/3
f 300/9/2 299/5/2 297/6/2 298/10/2
f 304/12/4 302/10/4 301/6/4 303/8/4
f 307/5/1 305/1/1 306/2/1 308/6/1
f 311/7/2 309/3/2 305/4/2 307/8/2
f 311/8/3 312/7/3 310/3/3 309/4/3
f 312/6/4 308/5/4 306/1/4 310/2/4
f 315/7/1 313/3/1 314/4/1 316/8/1
f 319/7/2 317/3/2 313/4/2 315/8/2
f 319/6/3 320/5/3 318/1/3 317/2/3
f 320/6/4 316/5/4 314/1/4 318/2/4
f 323/5/1 321/1/1 322/2/1 324/6/1
f 327/5/2 325/1/2 321/2/2 323/6/2
f 327/8/3 328/7/3 326/3/3 325/4/3
f 328/8/4 324/7/4 322/3/4 326/4/4
f 331/7/1 329/3/1 330/4/1 332/8/1
f 335/5/2 333/1/2 329/2/2 331/6/2
f 335/6/3 336/5/3 334/1/3 333/2/3
f 336/8/4 332/7/4 330/3/4 334/4/4
f 339/9/1 337/5/1 338/8/1 340/12/1
f 343/9/2 341/5/2 337/8/2 339/12/2
f 343/12/3 344/9/3 342/5/3 341/8/3
f 344/12/4 340/9/4 338/5/4 342/8/4
f 347/11/1 345/7/1 346/8/1 348/12/1
f 351/12/3 352/11/3 350/7/3 349/8/3
f 356/9/2 355/5/2 353/6/2 354/10/2
f 360/12/4 358/10/4 357/6/4 359/8/4
f 363/5/1 361/1/1 362/2/1 364/6/1
f 367/7/2 365/3/2 361/4/2 363/8/2
f 367/8/3 368/7/3 366/3/3 365/4/3
f 368/6/4 364/5/4 362/1/4 366/2/4
f 371/7/1 369/3/1 370/4/1 372/8/1
f 375/7/2 373/3/2 369/4/2 371/8/2
f 375/6/3 376/5/3 374/1/3 373/2/3
f 376/6/4 372/5/4 370/1/4 374/2/4
f 379/5/1 377/1/1 378/2/1 380/6/1
f 383/5/2 381/1/2 377/2/2 379/6/2
f 383/8/3 384/7/3 382/3/3 381/4/3
f 384/8/4 380/7/4 378/3/4 382/4/4
f 387/7/1 385/3/1 386/4/1 388/8/1
f 391/5/2 389/1/2 385/2/2 387/6/2
f 391/6/3 392/5/3 390/1/3 389/2/3
f 392/8/4 388/7/4 386/3/4 390/4/4
f 395/9/1 393/5/1 394/8/1 396/12/1
f 399/9/2 397/5/2 393/8/2 395/12/2
f 399/12/3 400/9/3 398/5/3 397/8/3
f 400/12/4 396/9/4 394/5/4 398/8/4
f 403/11/1 401/7/1 402/8/1 404/12/1
f 407/12/3 408/11/3 406/7/3 405/8/3
f 412/9/2 411/5/2 409/6/2 410/10/2
f 416/12/4 414/10/4 413/6/4 415/8/4
f 419/5/1 417/1/1 418/2/1 420/6/1
f 423/7/2 421/3/2 417/4/2 419/8/2
f 423/8/3 424/7/3 422/3/3 421/4/3
f 424/6/4 420/5/4 418/1/4 422/2/4
f 427/7/1 425/3/1 426/4/1 428/8/1
f 431/7/2 429/3/2 425/4/2 427/8/2
f 431/6/3 432/5/3 430/1/3 429/2/3
f 432/6/4 428/5/4 426/1/4 430/2/4
f 435/5/1 433/1/1 434/2/1 436/6/1
f 439/5/2 437/1/2 433/2/2 435/6/2
f 439/8/3 440/7/3 438/3/3 437/4/3
f 440/8/4 436/7/4 434/3/4 438/4/4
f 443/7/1 441/3/1 442/4/1 444/8/1
f 447/5/2 445/1/2 441/2/2 443/6/2
f 447/6/3 448/5/3 446/1/3 445/2/3
f 448/8/4 444/7/4 442/3/4 446/4/4
f 451/9/1 449/5/1 450/8/1 452/12/1
f 455/9/2 453/5/2 449/8/2 451/12/2
f 455/12/3 456/9/3 454/5/3 453/8/3
f 456/12/4 452/9/4 450/5/4 454/8/4
f 459/11/1 457/7/1 458/8/1 460/12/1
f 463/12/3 464/11/3 462/7/3 461/8/3
f 468/9/2 467/5/2 465/6/2 466/10/2
f 472/12/4 470/10/4 469/6/4 471/8/4
f 475/5/1 473/1/1 474/2/1 476/6/1
f 479/7/2 477/3/2 473/4/2 475/8/2
f 479/8/3 480/7/3 478/3/3 477/4/3
f 480/6/4 476/5/4 474/1/4 478/2/4
f 483/7/1 481/3/1 482/4/1 484/8/1
f 487/7/2 485/3/2 481/4/2 483/8/2
f 487/6/3 488/5/3 486/1/3 485/2/3
f 488/6/4 484/5/4 482/1/4 486/2/4
f 491/5/1 489/1/1 490/2/1 492/6/1
f 495/5/2 493/1/2 489/2/2 491/6/2
f 495/8/3 496/7/3 494/3/3 493/4/3
f 496/8/4 492/7/4 490/3/4 494/4/4
f 499/7/1 497/3/1 498/4/1 500/8/1
f 503/5/2 501/1/2 497/2/2 499/6/2
f 503/6/3 504/5/3 502/1/3 501/2/3
f 504/8/4 500/7/4 498/3/4 502/4/4
f 507/9/1 505/5/1 506/8/1 508/12/1
f 511/9/2 509/5/2 505/8/2 507/12/2
f 511/12/3 512/9/3 510/5/3 509/8/3
f 512/12/4 508/9/4 506/5/4 510/8/4
f 515/11/1 513/7/1 514/8/1 516/12/1
f 519/12/3 520/11/3 518/7/3 517/8/3
f 524/9/2 523/5/2 521/6/2 522/10/2
f 528/12/4 526/10/4 525/6/4 527/8/4
f 531/5/1 529/1/1 530/2/1 532/6/1
f 535/7/2 533/3/2 529/4/2 531/8/2
f 535/8/3 536/7/3 534/3/3 533/4/3
f 536/6/4 532/5/4 530/1/4 534/2/4
f 539/7/1 537/3/1 538/4/1 540/8/1
f 543/7/2 541/3/2 537/4/2 539/8/2
f 543/6/3 544/5/3 542/1/3 541/2/3
f 544/6/4 540/5/4 538/1/4 542/2/4
f 547/5/1 545/1/1 546/2/1 548/6/1
f 551/5/2 549/1/2 545/2/2 547/6/2
f 551/8/3 552/7/3 550/3/3 549/4/3
f 552/8/4 548/7/4 546/3/4 550/4/4
f 555/7/1 553/3/1 554/4/1 556/8/1
f 559/5/2 557/1/2 553/2/2 555/6/2
f 559/6/3 560/5/3 558/1/3 557/2/3
f 560/8/4 556/7/4 554/3/4 558/4/4
f 563/9/1 561/5/1 562/8/1 564/12/1
f 567/9/2 565/5/2 561/8/2 563/12/2
f 567/12/3 568/9/3 566/5/3 565/8/3
f 568/12/4 564/9/4 562/5/4 566/8/4
f 571/11/1 569/7/1 570/8/1 572/12/1
f 575/12/3 576/11/3 574/7/3 573/8/3
f 580/9/2 579/5/2 577/6/2 578/10/2
f 584/12/4 582/10/4 581/6/4 583/8/4
f 587/5/1 585/1/1 586/2/1 588/6/1
f 591/7/2 589/3/2 585/4/2 587/8/2
f 591/8/3 592/7/3 590/3/3 589/4/3
f 592/6/4 588/5/4 586/1/4 590/2/4
f 595/7/1 593/3/1 594/4/1 596/8/1
f 599/7/2 597/3/2 593/4/2 595/8/2
f 599/6/3 600/5/3 598/1/3 597/2/3
f 600/6/4 596/5/4 594/1/4 598/2/4
f 603/5/1 601/1/1 602/2/1 604/6/1
f 607/5/2 605/1/2 601/2/2 603/6/2
f 607/8/3 608/7/3 606/3/3 605/4/3
f 608/8/4 604/7/4 602/3/4 606/4/4
f 611/7/1 609/3/1 610/4/1 612/8/1
f 615/5/2 613/1/2 609/2/2 611/6/2
f 615/6/3 616/5/3 614/1/3 613/2/3
f 616/8/4 612/7/4 610/3/4 614/4/4
f 619/9/1 617/5/1 618/8/1 620/12/1
f 623/9/2 621/5/2 617/8/2 619/12/2
f 623/12/3 624/9/3 622/5/3 621/8/3
f 624/12/4 620/9/4 618/5/4 622/8/4
f 627/11/1 625/7/1 626/8/1 628/12/1
f 631/12/3 632/11/3 630/7/3 629/8/3
f 636/9/2 635/5/2 633/6/2 634/10/2
f 640/12/4 638/10/4 637/6/4 639/8/4
f 643/5/1 641/1/1 642/2/1 644/6/1
f 647/7/2 645/3/2 641/4/2 643/8/2
f 647/8/3 648/7/3 646/3/3 645/4/3
f 648/6/4 644/5/4 642/1/4 646/2/4
f 651/7/1 649/3/1 650/4/1 652/8/1
f 655/7/2 653/3/2 649/4/2 651/8/2
f 655/6/3 656/5/3 654/1/3 653/2/3
f 656/6/4 652/5/4 650/1/4 654/2/4
f 659/5/1 657/1/1 658/2/1 660/6/1
f 663/5/2 661/1/2 657/2/2 659/6/2
f 663/8/3 664/7/3 662/3/3 661/4/3
f 664/8/4 660/7/4 658/3/4 662/4/4
f 667/7/1 665/3/1 666/4/1 668/8/1
f 671/5/2 669/1/2 665/2/2 667/6/2
f 671/6/3 672/5/3 670/1/3 669/2/3
f 672/8/4 668/7/4 666/3/4 670/4/4
