mtllib lighthouse.mtl
usemtl azalea_leaves
v -15 13 14
v -14 13 14
v -15 13 15
v -14 13 15
v -15 14 15
v -15 14 14
v -14 14 14
v -14 14 15
v -13 13 14
v -13 13 15
v -13 14 14
v -13 14 15
v -11 11 15
v -11 11 16
v -11 12 15
v -11 12 16
v -10 11 15
v -10 11 16
v -10 12 15
v -10 12 16
v -9 11 15
v -9 11 16
v -8 11 15
v -8 11 16
v -9 12 16
v -9 12 15
v -8 12 15
v -8 12 16
vt 0.000000000 0.000000000
vt 1.000000000 0.000000000
vt 0.000000000 1.000000000
vt 1.000000000 1.000000000
vn -1 0 0
vn 0 -1 0
vn 0 0 -1
vn 1 0 0
vn 0 1 0
vn 0 0 1
f 3/2/1 5/4/1 6/3/1 1/1/1
f 3/3/2 1/1/2 2/2/2 4/4/2
f 1/2/3 6/4/3 7/3/3 2/1/3
f 4/1/4 2/2/4 7/4/4 8/3/4
f 5/1/5 8/2/5 7/4/5 6/3/5
f 3/1/6 4/2/6 8/4/6 5/3/6
f 4/2/1 8/4/1 7/3/1 2/1/1
f 4/3/2 2/1/2 9/2/2 10/4/2
f 2/2/3 7/4/3 11/3/3 9/1/3
f 10/1/4 9/2/4 11/4/4 12/3/4
f 8/1/5 12/2/5 11/4/5 7/3/5
f 4/1/6 10/2/6 12/4/6 8/3/6
f 14/2/1 16/4/1 15/3/1 13/1/1
f 14/3/2 13/1/2 17/2/2 18/4/2
f 13/2/3 15/4/3 19/3/3 17/1/3
f 18/1/4 17/2/4 19/4/4 20/3/4
f 16/1/5 20/2/5 19/4/5 15/3/5
f 14/1/6 18/2/6 20/4/6 16/3/6
f 22/2/1 25/4/1 26/3/1 21/1/1
f 22/3/2 21/1/2 23/2/2 24/4/2
f 21/2/3 26/4/3 27/3/3 23/1/3
f 24/1/4 23/2/4 27/4/4 28/3/4
f 25/1/5 28/2/5 27/4/5 26/3/5
f 22/1/6 24/2/6 28/4/6 25/3/6
