mtllib lighthouse.mtl
usemtl coarse_dirt
v -15 9 4
v -14 9 4
v -15 10 4
v -14 10 4
v -15 9 5
v -14 9 5
v -15 10 5
v -14 10 5
v -15 9 6
v -14 9 6
v -15 10 6
v -14 10 6
v -13 9 4
v -13 10 4
v -13 9 5
v -13 10 5
v -13 9 6
v -13 10 6
v -12 9 4
v -12 10 4
v -12 9 5
v -12 10 5
v -12 9 6
v -12 10 6
v -12 9 7
v -12 10 7
v -11 9 4
v -11 10 4
v -11 9 5
v -11 10 5
v -11 9 6
v -11 10 6
v -11 9 7
v -11 10 7
v -10 9 4
v -10 9 5
v -10 10 4
v -10 10 5
v -10 9 6
v -10 10 6
v -10 9 7
v -10 10 7
v -9 9 4
v -9 9 5
v -9 10 4
v -9 10 5
v -9 9 6
v -9 10 6
v -9 9 7
v -9 10 7
v -8 8 5
v -8 9 5
v -8 8 6
v -8 9 6
v -8 10 5
v -8 10 6
v -8 8 7
v -8 9 7
v -8 10 7
v -8 8 8
v -8 9 8
v -7 8 5
v -7 9 5
v -7 8 6
v -7 9 6
v -7 8 7
v -7 9 7
v -7 8 8
v -7 9 8
v -6 8 5
v -6 9 5
v -6 8 6
v -6 9 6
v -6 8 7
v -6 9 7
v -6 8 8
v -6 9 8
v -6 8 9
v -6 9 9
v -6 8 10
v -6 9 10
v -5 8 5
v -5 9 5
v -5 8 6
v -5 9 6
v -5 8 7
v -5 9 7
v -5 8 8
v -5 9 8
v -5 8 9
v -5 9 9
v -5 8 10
v -5 9 10
v -4 8 6
v -4 9 6
v -4 8 7
v -4 9 7
v -4 8 8
v -4 9 8
v -4 8 9
v -4 9 9
v -4 8 10
v -4 9 10
v -4 8 11
v -4 9 11
v -3 8 6
v -3 9 6
v -3 8 7
v -3 9 7
v -3 8 8
v -3 9 8
v -3 8 9
v -3 9 9
v -3 8 10
v -3 9 10
v -3 8 11
v -3 9 11
v -3 8 12
v -3 9 12
v -2 8 8
v -2 9 8
v -2 8 9
v -2 9 9
v -2 8 10
v -2 9 10
v -2 8 11
v -2 9 11
v -2 8 12
v -2 9 12
v -1 8 7
v -1 9 7
v -1 8 8
v -1 9 8
v -1 8 9
v -1 9 9
v -1 8 10
v -1 9 10
v -1 8 11
v -1 9 11
v -1 8 12
v -1 9 12
v 0 8 7
v 0 9 7
v 0 8 8
v 0 9 8
v 0 8 9
v 0 9 9
v 0 8 10
v 0 9 10
v 0 8 11
v 0 9 11
v 1 8 7
v 1 9 7
v 1 8 8
v 1 9 8
v 1 8 9
v 1 9 9
v 1 8 10
v 1 9 10
v 1 8 11
v 1 9 11
v 1 8 12
v 1 9 12
v 1 8 13
v 1 9 13
v 1 8 14
v 1 9 14
v 1 8 15
v 1 9 15
v 1 8 16
v 1 9 16
v 2 8 7
v 2 9 7
v 2 8 8
v 2 9 8
v 2 8 9
v 2 9 9
v 2 8 10
v 2 9 10
v 2 8 11
v 2 9 11
v 2 8 12
v 2 9 12
v 2 8 13
v 2 9 13
v 2 8 14
v 2 9 14
v 2 8 15
v 2 9 15
v 2 8 16
v 2 9 16
v 3 8 8
v 3 9 8
v 3 8 9
v 3 9 9
v 3 8 10
v 3 9 10
v 3 8 11
v 3 9 11
v 3 8 12
v 3 9 12
v 3 8 13
v 3 9 13
v 3 8 14
v 3 9 14
v 3 8 15
v 3 9 15
v 3 8 16
v 3 9 16
v 4 8 8
v 4 9 8
v 4 8 9
v 4 9 9
v 4 8 10
v 4 9 10
v 4 8 13
v 4 9 13
v 4 8 14
v 4 9 14
v 4 8 15
v 4 9 15
v 4 8 16
v 4 9 16
v 5 8 15
v 5 9 15
v 5 8 16
v 5 9 16
vt 0.000000000 0.000000000
vt 1.000000000 0.000000000
vt 0.000000000 1.000000000
vt 1.000000000 1.000000000
vn -1 0 0
vn 0 -1 0
vn 0 0 -1
vn 1 0 0
vn 0 1 0
vn 0 0 1
f 5/2/1 7/4/1 3/3/1 1/1/1
f 5/2/2 1/4/2 2/3/2 6/1/2
f 1/2/3 3/4/3 4/3/3 2/1/3
f 6/1/4 2/2/4 4/4/4 8/3/4
f 7/4/5 8/3/5 4/1/5 3/2/5
f 5/1/6 6/2/6 8/4/6 7/3/6
f 9/2/1 11/4/1 7/3/1 5/1/1
f 9/1/2 5/2/2 6/4/2 10/3/2
f 5/2/3 7/4/3 8/3/3 6/1/3
f 10/1/4 6/2/4 8/4/4 12/3/4
f 11/2/5 12/4/5 8/3/5 7/1/5
f 9/1/6 10/2/6 12/4/6 11/3/6
f 6/2/1 8/4/1 4/3/1 2/1/1
f 6/2/2 2/4/2 13/3/2 15/1/2
f 2/2/3 4/4/3 14/3/3 13/1/3
f 15/1/4 13/2/4 14/4/4 16/3/4
f 8/4/5 16/3/5 14/1/5 4/2/5
f 6/1/6 15/2/6 16/4/6 8/3/6
f 10/2/1 12/4/1 8/3/1 6/1/1
f 10/3/2 6/1/2 15/2/2 17/4/2
f 6/2/3 8/4/3 16/3/3 15/1/3
f 17/1/4 15/2/4 16/4/4 18/3/4
f 12/1/5 18/2/5 16/4/5 8/3/5
f 10/1/6 17/2/6 18/4/6 12/3/6
f 15/2/1 16/4/1 14/3/1 13/1/1
f 15/4/2 13/3/2 19/1/2 21/2/2
f 13/2/3 14/4/3 20/3/3 19/1/3
f 21/1/4 19/2/4 20/4/4 22/3/4
f 16/3/5 22/1/5 20/2/5 14/4/5
f 15/1/6 21/2/6 22/4/6 16/3/6
f 17/2/1 18/4/1 16/3/1 15/1/1
f 17/3/2 15/1/2 21/2/2 23/4/2
f 15/2/3 16/4/3 22/3/3 21/1/3
f 23/1/4 21/2/4 22/4/4 24/3/4
f 18/1/5 24/2/5 22/4/5 16/3/5
f 17/1/6 23/2/6 24/4/6 18/3/6
f 21/2/1 22/4/1 20/3/1 19/1/1
f 21/4/2 19/3/2 27/1/2 29/2/2
f 19/2/3 20/4/3 28/3/3 27/1/3
f 29/1/4 27/2/4 28/4/4 30/3/4
f 22/3/5 30/1/5 28/2/5 20/4/5
f 21/1/6 29/2/6 30/4/6 22/3/6
f 23/2/1 24/4/1 22/3/1 21/1/1
f 23/1/2 21/2/2 29/4/2 31/3/2
f 21/2/3 22/4/3 30/3/3 29/1/3
f 31/1/4 29/2/4 30/4/4 32/3/4
f 24/2/5 32/4/5 30/3/5 22/1/5
f 23/1/6 31/2/6 32/4/6 24/3/6
f 25/2/1 26/4/1 24/3/1 23/1/1
f 25/3/2 23/1/2 31/2/2 33/4/2
f 23/2/3 24/4/3 32/3/3 31/1/3
f 33/1/4 31/2/4 32/4/4 34/3/4
f 26/1/5 34/2/5 32/4/5 24/3/5
f 25/1/6 33/2/6 34/4/6 26/3/6
f 29/2/1 30/4/1 28/3/1 27/1/1
f 29/4/2 27/3/2 35/1/2 36/2/2
f 27/2/3 28/4/3 37/3/3 35/1/3
f 36/1/4 35/2/4 37/4/4 38/3/4
f 30/3/5 38/1/5 37/2/5 28/4/5
f 29/1/6 36/2/6 38/4/6 30/3/6
f 31/2/1 32/4/1 30/3/1 29/1/1
f 31/3/2 29/1/2 36/2/2 39/4/2
f 29/2/3 30/4/3 38/3/3 36/1/3
f 39/1/4 36/2/4 38/4/4 40/3/4
f 32/1/5 40/2/5 38/4/5 30/3/5
f 31/1/6 39/2/6 40/4/6 32/3/6
f 33/2/1 34/4/1 32/3/1 31/1/1
f 33/3/2 31/1/2 39/2/2 41/4/2
f 31/2/3 32/4/3 40/3/3 39/1/3
f 41/1/4 39/2/4 40/4/4 42/3/4
f 34/1/5 42/2/5 40/4/5 32/3/5
f 33/1/6 41/2/6 42/4/6 34/3/6
f 36/2/1 38/4/1 37/3/1 35/1/1
f 36/2/2 35/4/2 43/3/2 44/1/2
f 35/2/3 37/4/3 45/3/3 43/1/3
f 44/1/4 43/2/4 45/4/4 46/3/4
f 38/4/5 46/3/5 45/1/5 37/2/5
f 36/1/6 44/2/6 46/4/6 38/3/6
f 39/2/1 40/4/1 38/3/1 36/1/1
f 39/1/2 36/2/2 44/4/2 47/3/2
f 36/2/3 38/4/3 46/3/3 44/1/3
f 47/1/4 44/2/4 46/4/4 48/3/4
f 40/2/5 48/4/5 46/3/5 38/1/5
f 39/1/6 47/2/6 48/4/6 40/3/6
f 41/2/1 42/4/1 40/3/1 39/1/1
f 41/1/2 39/2/2 47/4/2 49/3/2
f 39/2/3 40/4/3 48/3/3 47/1/3
f 49/1/4 47/2/4 48/4/4 50/3/4
f 42/2/5 50/4/5 48/3/5 40/1/5
f 41/1/6 49/2/6 50/4/6 42/3/6
f 47/2/1 48/4/1 46/3/1 44/1/1
f 47/4/2 44/3/2 52/1/2 54/2/2
f 44/2/3 46/4/3 55/3/3 52/1/3
f 54/1/4 52/2/4 55/4/4 56/3/4
f 48/3/5 56/1/5 55/2/5 46/4/5
f 47/1/6 54/2/6 56/4/6 48/3/6
f 49/2/1 50/4/1 48/3/1 47/1/1
f 49/1/2 47/2/2 54/4/2 58/3/2
f 47/2/3 48/4/3 56/3/3 54/1/3
f 58/1/4 54/2/4 56/4/4 59/3/4
f 50/2/5 59/4/5 56/3/5 48/1/5
f 49/1/6 58/2/6 59/4/6 50/3/6
f 53/2/1 54/4/1 52/3/1 51/1/1
f 53/4/2 51/3/2 62/1/2 64/2/2
f 51/2/3 52/4/3 63/3/3 62/1/3
f 64/1/4 62/2/4 63/4/4 65/3/4
f 54/3/5 65/1/5 63/2/5 52/4/5
f 53/1/6 64/2/6 65/4/6 54/3/6
f 57/2/1 58/4/1 54/3/1 53/1/1
f 57/1/2 53/2/2 64/4/2 66/3/2
f 53/2/3 54/4/3 65/3/3 64/1/3
f 66/1/4 64/2/4 65/4/4 67/3/4
f 58/2/5 67/4/5 65/3/5 54/1/5
f 57/1/6 66/2/6 67/4/6 58/3/6
f 60/2/1 61/4/1 58/3/1 57/1/1
f 60/3/2 57/1/2 66/2/2 68/4/2
f 57/2/3 58/4/3 67/3/3 66/1/3
f 68/1/4 66/2/4 67/4/4 69/3/4
f 61/1/5 69/2/5 67/4/5 58/3/5
f 60/1/6 68/2/6 69/4/6 61/3/6
f 64/2/1 65/4/1 63/3/1 62/1/1
f 64/2/2 62/4/2 70/3/2 72/1/2
f 62/2/3 63/4/3 71/3/3 70/1/3
f 72/1/4 70/2/4 71/4/4 73/3/4
f 65/4/5 73/3/5 71/1/5 63/2/5
f 64/1/6 72/2/6 73/4/6 65/3/6
f 66/2/1 67/4/1 65/3/1 64/1/1
f 66/3/2 64/1/2 72/2/2 74/4/2
f 64/2/3 65/4/3 73/3/3 72/1/3
f 74/1/4 72/2/4 73/4/4 75/3/4
f 67/1/5 75/2/5 73/4/5 65/3/5
f 66/1/6 74/2/6 75/4/6 67/3/6
f 68/2/1 69/4/1 67/3/1 66/1/1
f 68/4/2 66/3/2 74/1/2 76/2/2
f 66/2/3 67/4/3 75/3/3 74/1/3
f 76/1/4 74/2/4 75/4/4 77/3/4
f 69/3/5 77/1/5 75/2/5 67/4/5
f 68/1/6 76/2/6 77/4/6 69/3/6
f 72/2/1 73/4/1 71/3/1 70/1/1
f 72/3/2 70/1/2 82/2/2 84/4/2
f 70/2/3 71/4/3 83/3/3 82/1/3
f 84/1/4 82/2/4 83/4/4 85/3/4
f 73/1/5 85/2/5 83/4/5 71/3/5
f 72/1/6 84/2/6 85/4/6 73/3/6
f 74/2/1 75/4/1 73/3/1 72/1/1
f 74/4/2 72/3/2 84/1/2 86/2/2
f 72/2/3 73/4/3 85/3/3 84/1/3
f 86/1/4 84/2/4 85/4/4 87/3/4
f 75/3/5 87/1/5 85/2/5 73/4/5
f 74/1/6 86/2/6 87/4/6 75/3/6
f 76/2/1 77/4/1 75/3/1 74/1/1
f 76/3/2 74/1/2 86/2/2 88/4/2
f 74/2/3 75/4/3 87/3/3 86/1/3
f 88/1/4 86/2/4 87/4/4 89/3/4
f 77/1/5 89/2/5 87/4/5 75/3/5
f 76/1/6 88/2/6 89/4/6 77/3/6
f 78/2/1 79/4/1 77/3/1 76/1/1
f 78/1/2 76/2/2 88/4/2 90/3/2
f 76/2/3 77/4/3 89/3/3 88/1/3
f 90/1/4 88/2/4 89/4/4 91/3/4
f 79/2/5 91/4/5 89/3/5 77/1/5
f 78/1/6 90/2/6 91/4/6 79/3/6
f 80/2/1 81/4/1 79/3/1 78/1/1
f 80/2/2 78/4/2 90/3/2 92/1/2
f 78/2/3 79/4/3 91/3/3 90/1/3
f 92/1/4 90/2/4 91/4/4 93/3/4
f 81/4/5 93/3/5 91/1/5 79/2/5
f 80/1/6 92/2/6 93/4/6 81/3/6
f 86/2/1 87/4/1 85/3/1 84/1/1
f 86/4/2 84/3/2 94/1/2 96/2/2
f 84/2/3 85/4/3 95/3/3 94/1/3
f 96/1/4 94/2/4 95/4/4 97/3/4
f 87/3/5 97/1/5 95/2/5 85/4/5
f 86/1/6 96/2/6 97/4/6 87/3/6
f 88/2/1 89/4/1 87/3/1 86/1/1
f 88/2/2 86/4/2 96/3/2 98/1/2
f 86/2/3 87/4/3 97/3/3 96/1/3
f 98/1/4 96/2/4 97/4/4 99/3/4
f 89/4/5 99/3/5 97/1/5 87/2/5
f 88/1/6 98/2/6 99/4/6 89/3/6
f 90/2/1 91/4/1 89/3/1 88/1/1
f 90/3/2 88/1/2 98/2/2 100/4/2
f 88/2/3 89/4/3 99/3/3 98/1/3
f 100/1/4 98/2/4 99/4/4 101/3/4
f 91/1/5 101/2/5 99/4/5 89/3/5
f 90/1/6 100/2/6 101/4/6 91/3/6
f 92/2/1 93/4/1 91/3/1 90/1/1
f 92/1/2 90/2/2 100/4/2 102/3/2
f 90/2/3 91/4/3 101/3/3 100/1/3
f 102/1/4 100/2/4 101/4/4 103/3/4
f 93/2/5 103/4/5 101/3/5 91/1/5
f 92/1/6 102/2/6 103/4/6 93/3/6
f 96/2/1 97/4/1 95/3/1 94/1/1
f 96/2/2 94/4/2 106/3/2 108/1/2
f 94/2/3 95/4/3 107/3/3 106/1/3
f 108/1/4 106/2/4 107/4/4 109/3/4
f 97/4/5 109/3/5 107/1/5 95/2/5
f 96/1/6 108/2/6 109/4/6 97/3/6
f 98/2/1 99/4/1 97/3/1 96/1/1
f 98/2/2 96/4/2 108/3/2 110/1/2
f 96/2/3 97/4/3 109/3/3 108/1/3
f 110/1/4 108/2/4 109/4/4 111/3/4
f 99/4/5 111/3/5 109/1/5 97/2/5
f 98/1/6 110/2/6 111/4/6 99/3/6
f 100/2/1 101/4/1 99/3/1 98/1/1
f 100/4/2 98/3/2 110/1/2 112/2/2
f 98/2/3 99/4/3 111/3/3 110/1/3
f 112/1/4 110/2/4 111/4/4 113/3/4
f 101/3/5 113/1/5 111/2/5 99/4/5
f 100/1/6 112/2/6 113/4/6 101/3/6
f 102/2/1 103/4/1 101/3/1 100/1/1
f 102/1/2 100/2/2 112/4/2 114/3/2
f 100/2/3 101/4/3 113/3/3 112/1/3
f 114/1/4 112/2/4 113/4/4 115/3/4
f 103/2/5 115/4/5 113/3/5 101/1/5
f 102/1/6 114/2/6 115/4/6 103/3/6
f 104/2/1 105/4/1 103/3/1 102/1/1
f 104/2/2 102/4/2 114/3/2 116/1/2
f 102/2/3 103/4/3 115/3/3 114/1/3
f 116/1/4 114/2/4 115/4/4 117/3/4
f 105/4/5 117/3/5 115/1/5 103/2/5
f 104/1/6 116/2/6 117/4/6 105/3/6
f 112/2/1 113/4/1 111/3/1 110/1/1
f 112/2/2 110/4/2 120/3/2 122/1/2
f 110/2/3 111/4/3 121/3/3 120/1/3
f 122/1/4 120/2/4 121/4/4 123/3/4
f 113/4/5 123/3/5 121/1/5 111/2/5
f 112/1/6 122/2/6 123/4/6 113/3/6
f 114/2/1 115/4/1 113/3/1 112/1/1
f 114/2/2 112/4/2 122/3/2 124/1/2
f 112/2/3 113/4/3 123/3/3 122/1/3
f 124/1/4 122/2/4 123/4/4 125/3/4
f 115/4/5 125/3/5 123/1/5 113/2/5
f 114/1/6 124/2/6 125/4/6 115/3/6
f 116/2/1 117/4/1 115/3/1 114/1/1
f 116/4/2 114/3/2 124/1/2 126/2/2
f 114/2/3 115/4/3 125/3/3 124/1/3
f 126/1/4 124/2/4 125/4/4 127/3/4
f 117/3/5 127/1/5 125/2/5 115/4/5
f 116/1/6 126/2/6 127/4/6 117/3/6
f 118/2/1 119/4/1 117/3/1 116/1/1
f 118/1/2 116/2/2 126/4/2 128/3/2
f 116/2/3 117/4/3 127/3/3 126/1/3
f 128/1/4 126/2/4 127/4/4 129/3/4
f 119/2/5 129/4/5 127/3/5 117/1/5
f 118/1/6 128/2/6 129/4/6 119/3/6
f 126/2/1 127/4/1 125/3/1 124/1/1
f 126/3/2 124/1/2 136/2/2 138/4/2
f 124/2/3 125/4/3 137/3/3 136/1/3
f 138/1/4 136/2/4 137/4/4 139/3/4
f 127/1/5 139/2/5 137/4/5 125/3/5
f 126/1/6 138/2/6 139/4/6 127/3/6
f 128/2/1 129/4/1 127/3/1 126/1/1
f 128/4/2 126/3/2 138/1/2 140/2/2
f 126/2/3 127/4/3 139/3/3 138/1/3
f 140/1/4 138/2/4 139/4/4 141/3/4
f 129/3/5 141/1/5 139/2/5 127/4/5
f 128/1/6 140/2/6 141/4/6 129/3/6
f 132/2/1 133/4/1 131/3/1 130/1/1
f 132/4/2 130/3/2 142/1/2 144/2/2
f 130/2/3 131/4/3 143/3/3 142/1/3
f 144/1/4 142/2/4 143/4/4 145/3/4
f 133/3/5 145/1/5 143/2/5 131/4/5
f 132/1/6 144/2/6 145/4/6 133/3/6
f 134/2/1 135/4/1 133/3/1 132/1/1
f 134/4/2 132/3/2 144/1/2 146/2/2
f 132/2/3 133/4/3 145/3/3 144/1/3
f 146/1/4 144/2/4 145/4/4 147/3/4
f 135/3/5 147/1/5 145/2/5 133/4/5
f 134/1/6 146/2/6 147/4/6 135/3/6
f 136/2/1 137/4/1 135/3/1 134/1/1
f 136/2/2 134/4/2 146/3/2 148/1/2
f 134/2/3 135/4/3 147/3/3 146/1/3
f 148/1/4 146/2/4 147/4/4 149/3/4
f 137/4/5 149/3/5 147/1/5 135/2/5
f 136/1/6 148/2/6 149/4/6 137/3/6
f 144/2/1 145/4/1 143/3/1 142/1/1
f 144/4/2 142/3/2 152/1/2 154/2/2
f 142/2/3 143/4/3 153/3/3 152/1/3
f 154/1/4 152/2/4 153/4/4 155/3/4
f 145/3/5 155/1/5 153/2/5 143/4/5
f 144/1/6 154/2/6 155/4/6 145/3/6
f 146/2/1 147/4/1 145/3/1 144/1/1
f 146/3/2 144/1/2 154/2/2 156/4/2
f 144/2/3 145/4/3 155/3/3 154/1/3
f 156/1/4 154/2/4 155/4/4 157/3/4
f 147/1/5 157/2/5 155/4/5 145/3/5
f 146/1/6 156/2/6 157/4/6 147/3/6
f 148/2/1 149/4/1 147/3/1 146/1/1
f 148/1/2 146/2/2 156/4/2 158/3/2
f 146/2/3 147/4/3 157/3/3 156/1/3
f 158/1/4 156/2/4 157/4/4 159/3/4
f 149/2/5 159/4/5 157/3/5 147/1/5
f 148/1/6 158/2/6 159/4/6 149/3/6
f 150/2/1 151/4/1 149/3/1 148/1/1
f 150/3/2 148/1/2 158/2/2 160/4/2
f 148/2/3 149/4/3 159/3/3 158/1/3
f 160/1/4 158/2/4 159/4/4 161/3/4
f 151/1/5 161/2/5 159/4/5 149/3/5
f 150/1/6 160/2/6 161/4/6 151/3/6
f 154/2/1 155/4/1 153/3/1 152/1/1
f 154/1/2 152/2/2 172/4/2 174/3/2
f 152/2/3 153/4/3 173/3/3 172/1/3
f 174/1/4 172/2/4 173/4/4 175/3/4
f 155/2/5 175/4/5 173/3/5 153/1/5
f 154/1/6 174/2/6 175/4/6 155/3/6
f 156/2/1 157/4/1 155/3/1 154/1/1
f 156/4/2 154/3/2 174/1/2 176/2/2
f 154/2/3 155/4/3 175/3/3 174/1/3
f 176/1/4 174/2/4 175/4/4 177/3/4
f 157/3/5 177/1/5 175/2/5 155/4/5
f 156/1/6 176/2/6 177/4/6 157/3/6
f 160/2/1 161/4/1 159/3/1 158/1/1
f 160/3/2 158/1/2 178/2/2 180/4/2
f 158/2/3 159/4/3 179/3/3 178/1/3
f 180/1/4 178/2/4 179/4/4 181/3/4
f 161/1/5 181/2/5 179/4/5 159/3/5
f 160/1/6 180/2/6 181/4/6 161/3/6
f 162/2/1 163/4/1 161/3/1 160/1/1
f 162/3/2 160/1/2 180/2/2 182/4/2
f 160/2/3 161/4/3 181/3/3 180/1/3
f 182/1/4 180/2/4 181/4/4 183/3/4
f 163/1/5 183/2/5 181/4/5 161/3/5
f 162/1/6 182/2/6 183/4/6 163/3/6
f 164/2/1 165/4/1 163/3/1 162/1/1
f 164/4/2 162/3/2 182/1/2 184/2/2
f 162/2/3 163/4/3 183/3/3 182/1/3
f 184/1/4 182/2/4 183/4/4 185/3/4
f 165/3/5 185/1/5 183/2/5 163/4/5
f 164/1/6 184/2/6 185/4/6 165/3/6
f 166/2/1 167/4/1 165/3/1 164/1/1
f 166/1/2 164/2/2 184/4/2 186/3/2
f 164/2/3 165/4/3 185/3/3 184/1/3
f 186/1/4 184/2/4 185/4/4 187/3/4
f 167/2/5 187/4/5 185/3/5 165/1/5
f 166/1/6 186/2/6 187/4/6 167/3/6
f 168/2/1 169/4/1 167/3/1 166/1/1
f 168/1/2 166/2/2 186/4/2 188/3/2
f 166/2/3 167/4/3 187/3/3 186/1/3
f 188/1/4 186/2/4 187/4/4 189/3/4
f 169/2/5 189/4/5 187/3/5 167/1/5
f 168/1/6 188/2/6 189/4/6 169/3/6
f 170/2/1 171/4/1 169/3/1 168/1/1
f 170/2/2 168/4/2 188/3/2 190/1/2
f 168/2/3 169/4/3 189/3/3 188/1/3
f 190/1/4 188/2/4 189/4/4 191/3/4
f 171/4/5 191/3/5 189/1/5 169/2/5
f 170/1/6 190/2/6 191/4/6 171/3/6
f 182/2/1 183/4/1 181/3/1 180/1/1
f 182/4/2 180/3/2 198/1/2 200/2/2
f 180/2/3 181/4/3 199/3/3 198/1/3
f 200/1/4 198/2/4 199/4/4 201/3/4
f 183/3/5 201/1/5 199/2/5 181/4/5
f 182/1/6 200/2/6 201/4/6 183/3/6
f 188/2/1 189/4/1 187/3/1 186/1/1
f 188/4/2 186/3/2 204/1/2 206/2/2
f 186/2/3 187/4/3 205/3/3 204/1/3
f 206/1/4 204/2/4 205/4/4 207/3/4
f 189/3/5 207/1/5 205/2/5 187/4/5
f 188/1/6 206/2/6 207/4/6 189/3/6
f 194/2/1 195/4/1 193/3/1 192/1/1
f 194/4/2 192/3/2 210/1/2 212/2/2
f 192/2/3 193/4/3 211/3/3 210/1/3
f 212/1/4 210/2/4 211/4/4 213/3/4
f 195/3/5 213/1/5 211/2/5 193/4/5
f 194/1/6 212/2/6 213/4/6 195/3/6
f 196/2/1 197/4/1 195/3/1 194/1/1
f 196/1/2 194/2/2 212/4/2 214/3/2
f 194/2/3 195/4/3 213/3/3 212/1/3
f 214/1/4 212/2/4 213/4/4 215/3/4
f 197/2/5 215/4/5 213/3/5 195/1/5
f 196/1/6 214/2/6 215/4/6 197/3/6
f 204/2/1 205/4/1 203/3/1 202/1/1
f 204/2/2 202/4/2 216/3/2 218/1/2
f 202/2/3 203/4/3 217/3/3 216/1/3
f 218/1/4 216/2/4 217/4/4 219/3/4
f 205/4/5 219/3/5 217/1/5 203/2/5
f 204/1/6 218/2/6 219/4/6 205/3/6
f 206/2/1 207/4/1 205/3/1 204/1/1
f 206/3/2 204/1/2 218/2/2 220/4/2
f 204/2/3 205/4/3 219/3/3 218/1/3
f 220/1/4 218/2/4 219/4/4 221/3/4
f 207/1/5 221/2/5 219/4/5 205/3/5
f 206/1/6 220/2/6 221/4/6 207/3/6
f 208/2/1 209/4/1 207/3/1 206/1/1
f 208/1/2 206/2/2 220/4/2 222/3/2
f 206/2/3 207/4/3 221/3/3 220/1/3
f 222/1/4 220/2/4 221/4/4 223/3/4
f 209/2/5 223/4/5 221/3/5 207/1/5
f 208/1/6 222/2/6 223/4/6 209/3/6
f 222/2/1 223/4/1 221/3/1 220/1/1
f 222/1/2 220/2/2 224/4/2 226/3/2
f 220/2/3 221/4/3 225/3/3 224/1/3
f 226/1/4 224/2/4 225/4/4 227/3/4
f 223/2/5 227/4/5 225/3/5 221/1/5
f 222/1/6 226/2/6 227/4/6 223/3/6
