mtllib lighthouse.mtl
usemtl purple_stained_glass_pane_top
v -10.6875 46 -11.6875
v -10.6875 46 -11
v -10.6875 47 -11.6875
v -10.6875 47 -11
v -10.3125 46 -11.6875
v -10.3125 46 -11
v -10.3125 47 -11.6875
v -10.3125 47 -11
v -10.3125 46 -11.6875
v -10.3125 46 -11.3125
v -10.3125 47 -11.6875
v -10.3125 47 -11.3125
v -10 46 -11.6875
v -10 46 -11.3125
v -10 47 -11.6875
v -10 47 -11.3125
v -10.6875 47 -11.6875
v -10.6875 47 -11
v -10.6875 48 -11.6875
v -10.6875 48 -11
v -10.3125 47 -11.6875
v -10.3125 47 -11
v -10.3125 48 -11.6875
v -10.3125 48 -11
v -10.6875 46 -11
v -10.6875 46 -10.3125
v -10.6875 47 -11
v -10.6875 47 -10.3125
v -10.3125 46 -11
v -10.3125 46 -10.3125
v -10.3125 47 -11
v -10.3125 47 -10.3125
v -10.6875 48 -10.6875
v -10.6875 48 -10.3125
v -10.6875 49 -10.6875
v -10.6875 49 -10.3125
v -10 48 -10.6875
v -10 48 -10.3125
v -10 49 -10.6875
v -10 49 -10.3125
v -9.6875 46 -12.6875
v -9.6875 46 -12
v -9.6875 47 -12.6875
v -9.6875 47 -12
v -9.3125 46 -12.6875
v -9.3125 46 -12
v -9.3125 47 -12.6875
v -9.3125 47 -12
v -9.6875 46 -12
v -9.6875 46 -11.3125
v -9.6875 47 -12
v -9.6875 47 -11.3125
v -9.3125 46 -12
v -9.3125 46 -11.3125
v -9.3125 47 -12
v -9.3125 47 -11.3125
v -10 46 -11.6875
v -10 46 -11.3125
v -10 47 -11.6875
v -10 47 -11.3125
v -9.6875 46 -11.6875
v -9.6875 46 -11.3125
v -9.6875 47 -11.6875
v -9.6875 47 -11.3125
v -9.6875 48 -11.6875
v -9.6875 48 -11
v -9.6875 49 -11.6875
v -9.6875 49 -11
v -9.3125 48 -11.6875
v -9.3125 48 -11
v -9.3125 49 -11.6875
v -9.3125 49 -11
v -9.3125 48 -11.6875
v -9.3125 48 -11.3125
v -9.3125 49 -11.6875
v -9.3125 49 -11.3125
v -9 48 -11.6875
v -9 48 -11.3125
v -9 49 -11.6875
v -9 49 -11.3125
v -9.6875 48 -11
v -9.6875 48 -10.3125
v -9.6875 49 -11
v -9.6875 49 -10.3125
v -9.3125 48 -11
v -9.3125 48 -10.3125
v -9.3125 49 -11
v -9.3125 49 -10.3125
v -10 48 -10.6875
v -10 48 -10.3125
v -10 49 -10.6875
v -10 49 -10.3125
v -9.6875 48 -10.6875
v -9.6875 48 -10.3125
v -9.6875 49 -10.6875
v -9.6875 49 -10.3125
v -9 48 -11.6875
v -9 48 -11.3125
v -9 49 -11.6875
v -9 49 -11.3125
v -8.3125 48 -11.6875
v -8.3125 48 -11.3125
v -8.3125 49 -11.6875
v -8.3125 49 -11.3125
v -6.6875 48 -7.6875
v -6.6875 48 -7
v -6.6875 49 -7.6875
v -6.6875 49 -7
v -6.3125 48 -7.6875
v -6.3125 48 -7
v -6.3125 49 -7.6875
v -6.3125 49 -7
v -6.3125 48 -7.6875
v -6.3125 48 -7.3125
v -6.3125 49 -7.6875
v -6.3125 49 -7.3125
v -6 48 -7.6875
v -6 48 -7.3125
v -6 49 -7.6875
v -6 49 -7.3125
v -6.6875 46 -6.6875
v -6.6875 46 -6.3125
v -6.6875 47 -6.6875
v -6.6875 47 -6.3125
v -6 46 -6.6875
v -6 46 -6.3125
v -6 47 -6.6875
v -6 47 -6.3125
v -6.6875 48 -7
v -6.6875 48 -6.3125
v -6.6875 49 -7
v -6.6875 49 -6.3125
v -6.3125 48 -7
v -6.3125 48 -6.3125
v -6.3125 49 -7
v -6.3125 49 -6.3125
v -5.6875 46 -7.6875
v -5.6875 46 -7
v -5.6875 47 -7.6875
v -5.6875 47 -7
v -5.3125 46 -7.6875
v -5.3125 46 -7
v -5.3125 47 -7.6875
v -5.3125 47 -7
v -5.3125 46 -7.6875
v -5.3125 46 -7.3125
v -5.3125 47 -7.6875
v -5.3125 47 -7.3125
v -5 46 -7.6875
v -5 46 -7.3125
v -5 47 -7.6875
v -5 47 -7.3125
v -6 48 -7.6875
v -6 48 -7.3125
v -6 49 -7.6875
v -6 49 -7.3125
v -5.3125 48 -7.6875
v -5.3125 48 -7.3125
v -5.3125 49 -7.6875
v -5.3125 49 -7.3125
v -5.6875 46 -7
v -5.6875 46 -6.3125
v -5.6875 47 -7
v -5.6875 47 -6.3125
v -5.3125 46 -7
v -5.3125 46 -6.3125
v -5.3125 47 -7
v -5.3125 47 -6.3125
v -6 46 -6.6875
v -6 46 -6.3125
v -6 47 -6.6875
v -6 47 -6.3125
v -5.6875 46 -6.6875
v -5.6875 46 -6.3125
v -5.6875 47 -6.6875
v -5.6875 47 -6.3125
v -6 47 -6.6875
v -6 47 -6.3125
v -6 48 -6.6875
v -6 48 -6.3125
v -5.3125 47 -6.6875
v -5.3125 47 -6.3125
v -5.3125 48 -6.6875
v -5.3125 48 -6.3125
v -4.6875 50 -11.6875
v -4.6875 50 -11
v -4.6875 51 -11.6875
v -4.6875 51 -11
v -4.3125 50 -11.6875
v -4.3125 50 -11
v -4.3125 51 -11.6875
v -4.3125 51 -11
v -4.3125 50 -11.6875
v -4.3125 50 -11.3125
v -4.3125 51 -11.6875
v -4.3125 51 -11.3125
v -4 50 -11.6875
v -4 50 -11.3125
v -4 51 -11.6875
v -4 51 -11.3125
v -4.6875 51 -11.6875
v -4.6875 51 -11
v -4.6875 52 -11.6875
v -4.6875 52 -11
v -4.3125 51 -11.6875
v -4.3125 51 -11
v -4.3125 52 -11.6875
v -4.3125 52 -11
v -4.3125 51 -11.6875
v -4.3125 51 -11.3125
v -4.3125 52 -11.6875
v -4.3125 52 -11.3125
v -4 51 -11.6875
v -4 51 -11.3125
v -4 52 -11.6875
v -4 52 -11.3125
v -4.6875 51 -11
v -4.6875 51 -10.3125
v -4.6875 52 -11
v -4.6875 52 -10.3125
v -4.3125 51 -11
v -4.3125 51 -10.3125
v -4.3125 52 -11
v -4.3125 52 -10.3125
v -4.6875 46 -8.6875
v -4.6875 46 -8
v -4.6875 47 -8.6875
v -4.6875 47 -8
v -4.3125 46 -8.6875
v -4.3125 46 -8
v -4.3125 47 -8.6875
v -4.3125 47 -8
v -4.6875 46 -8
v -4.6875 46 -7.3125
v -4.6875 47 -8
v -4.6875 47 -7.3125
v -4.3125 46 -8
v -4.3125 46 -7.3125
v -4.3125 47 -8
v -4.3125 47 -7.3125
v -5 46 -7.6875
v -5 46 -7.3125
v -5 47 -7.6875
v -5 47 -7.3125
v -4.6875 46 -7.6875
v -4.6875 46 -7.3125
v -4.6875 47 -7.6875
v -4.6875 47 -7.3125
v -3.6875 45 -12.6875
v -3.6875 45 -12.3125
v -3.6875 46 -12.6875
v -3.6875 46 -12.3125
v -3 45 -12.6875
v -3 45 -12.3125
v -3 46 -12.6875
v -3 46 -12.3125
v -3.6875 50 -12.6875
v -3.6875 50 -12
v -3.6875 51 -12.6875
v -3.6875 51 -12
v -3.3125 50 -12.6875
v -3.3125 50 -12
v -3.3125 51 -12.6875
v -3.3125 51 -12
v -3.3125 50 -12.6875
v -3.3125 50 -12.3125
v -3.3125 51 -12.6875
v -3.3125 51 -12.3125
v -3 50 -12.6875
v -3 50 -12.3125
v -3 51 -12.6875
v -3 51 -12.3125
v -3.6875 46 -12
v -3.6875 46 -11.3125
v -3.6875 47 -12
v -3.6875 47 -11.3125
v -3.3125 46 -12
v -3.3125 46 -11.3125
v -3.3125 47 -12
v -3.3125 47 -11.3125
v -4 46 -11.6875
v -4 46 -11.3125
v -4 47 -11.6875
v -4 47 -11.3125
v -3.6875 46 -11.6875
v -3.6875 46 -11.3125
v -3.6875 47 -11.6875
v -3.6875 47 -11.3125
v -3.6875 50 -12
v -3.6875 50 -11.3125
v -3.6875 51 -12
v -3.6875 51 -11.3125
v -3.3125 50 -12
v -3.3125 50 -11.3125
v -3.3125 51 -12
v -3.3125 51 -11.3125
v -4 50 -11.6875
v -4 50 -11.3125
v -4 51 -11.6875
v -4 51 -11.3125
v -3.6875 50 -11.6875
v -3.6875 50 -11.3125
v -3.6875 51 -11.6875
v -3.6875 51 -11.3125
v -4 51 -11.6875
v -4 51 -11.3125
v -4 52 -11.6875
v -4 52 -11.3125
v -3.3125 51 -11.6875
v -3.3125 51 -11.3125
v -3.3125 52 -11.6875
v -3.3125 52 -11.3125
v -2.6875 46 -13.6875
v -2.6875 46 -13
v -2.6875 47 -13.6875
v -2.6875 47 -13
v -2.3125 46 -13.6875
v -2.3125 46 -13
v -2.3125 47 -13.6875
v -2.3125 47 -13
v -3 45 -12.6875
v -3 45 -12.3125
v -3 46 -12.6875
v -3 46 -12.3125
v -2 45 -12.6875
v -2 45 -12.3125
v -2 46 -12.6875
v -2 46 -12.3125
v -2.6875 46 -13
v -2.6875 46 -12.3125
v -2.6875 47 -13
v -2.6875 47 -12.3125
v -2.3125 46 -13
v -2.3125 46 -12.3125
v -2.3125 47 -13
v -2.3125 47 -12.3125
v -3 46 -12.6875
v -3 46 -12.3125
v -3 47 -12.6875
v -3 47 -12.3125
v -2.6875 46 -12.6875
v -2.6875 46 -12.3125
v -2.6875 47 -12.6875
v -2.6875 47 -12.3125
v -3 50 -12.6875
v -3 50 -12.3125
v -3 51 -12.6875
v -3 51 -12.3125
v -2.3125 50 -12.6875
v -2.3125 50 -12.3125
v -2.3125 51 -12.6875
v -2.3125 51 -12.3125
v -1.6875 45 -13.6875
v -1.6875 45 -13
v -1.6875 46 -13.6875
v -1.6875 46 -13
v -1.3125 45 -13.6875
v -1.3125 45 -13
v -1.3125 46 -13.6875
v -1.3125 46 -13
v -1.6875 45 -13
v -1.6875 45 -12.3125
v -1.6875 46 -13
v -1.6875 46 -12.3125
v -1.3125 45 -13
v -1.3125 45 -12.3125
v -1.3125 46 -13
v -1.3125 46 -12.3125
v -2 45 -12.6875
v -2 45 -12.3125
v -2 46 -12.6875
v -2 46 -12.3125
v -1.6875 45 -12.6875
v -1.6875 45 -12.3125
v -1.6875 46 -12.6875
v -1.6875 46 -12.3125
vt 0.312500000 0.000000000
vt 0.687500000 0.000000000
vt 0.312500000 0.312500000
vt 0.687500000 0.312500000
vt 0.312500000 0.687500000
vt 0.687500000 0.687500000
vt 0.312500000 1.000000000
vt 0.687500000 1.000000000
vn 0 -1 0
vn 0 1 0
f 2/5/1 1/1/1 5/2/1 6/6/1
f 7/6/2 3/5/2 4/1/2 8/2/2
f 10/5/1 9/6/1 13/8/1 14/7/1
f 15/7/2 11/5/2 12/6/2 16/8/2
f 18/5/1 17/1/1 21/2/1 22/6/1
f 23/6/2 19/5/2 20/1/2 24/2/2
f 26/7/1 25/3/1 29/4/1 30/8/1
f 31/8/2 27/7/2 28/3/2 32/4/2
f 34/3/1 33/4/1 37/8/1 38/7/1
f 39/7/2 35/3/2 36/4/2 40/8/2
f 42/5/1 41/1/1 45/2/1 46/6/1
f 47/6/2 43/5/2 44/1/2 48/2/2
f 50/7/1 49/3/1 53/4/1 54/8/1
f 55/8/2 51/7/2 52/3/2 56/4/2
f 58/1/1 57/2/1 61/4/1 62/3/1
f 63/3/2 59/1/2 60/2/2 64/4/2
f 66/5/1 65/1/1 69/2/1 70/6/1
f 71/6/2 67/5/2 68/1/2 72/2/2
f 74/5/1 73/6/1 77/8/1 78/7/1
f 79/7/2 75/5/2 76/6/2 80/8/2
f 82/7/1 81/3/1 85/4/1 86/8/1
f 87/8/2 83/7/2 84/3/2 88/4/2
f 90/1/1 89/2/1 93/4/1 94/3/1
f 95/3/2 91/1/2 92/2/2 96/4/2
f 98/1/1 97/2/1 101/6/1 102/5/1
f 103/5/2 99/1/2 100/2/2 104/6/2
f 106/5/1 105/1/1 109/2/1 110/6/1
f 111/6/2 107/5/2 108/1/2 112/2/2
f 114/5/1 113/6/1 117/8/1 118/7/1
f 119/7/2 115/5/2 116/6/2 120/8/2
f 122/3/1 121/4/1 125/8/1 126/7/1
f 127/7/2 123/3/2 124/4/2 128/8/2
f 130/7/1 129/3/1 133/4/1 134/8/1
f 135/8/2 131/7/2 132/3/2 136/4/2
f 138/5/1 137/1/1 141/2/1 142/6/1
f 143/6/2 139/5/2 140/1/2 144/2/2
f 146/5/1 145/6/1 149/8/1 150/7/1
f 151/7/2 147/5/2 148/6/2 152/8/2
f 154/1/1 153/2/1 157/6/1 158/5/1
f 159/5/2 155/1/2 156/2/2 160/6/2
f 162/7/1 161/3/1 165/4/1 166/8/1
f 167/8/2 163/7/2 164/3/2 168/4/2
f 170/1/1 169/2/1 173/4/1 174/3/1
f 175/3/2 171/1/2 172/2/2 176/4/2
f 178/1/1 177/2/1 181/6/1 182/5/1
f 183/5/2 179/1/2 180/2/2 184/6/2
f 186/5/1 185/1/1 189/2/1 190/6/1
f 191/6/2 187/5/2 188/1/2 192/2/2
f 194/5/1 193/6/1 197/8/1 198/7/1
f 199/7/2 195/5/2 196/6/2 200/8/2
f 202/5/1 201/1/1 205/2/1 206/6/1
f 207/6/2 203/5/2 204/1/2 208/2/2
f 210/5/1 209/6/1 213/8/1 214/7/1
f 215/7/2 211/5/2 212/6/2 216/8/2
f 218/7/1 217/3/1 221/4/1 222/8/1
f 223/8/2 219/7/2 220/3/2 224/4/2
f 226/5/1 225/1/1 229/2/1 230/6/1
f 231/6/2 227/5/2 228/1/2 232/2/2
f 234/7/1 233/3/1 237/4/1 238/8/1
f 239/8/2 235/7/2 236/3/2 240/4/2
f 242/1/1 241/2/1 245/4/1 246/3/1
f 247/3/2 243/1/2 244/2/2 248/4/2
f 250/3/1 249/4/1 253/8/1 254/7/1
f 255/7/2 251/3/2 252/4/2 256/8/2
f 258/5/1 257/1/1 261/2/1 262/6/1
f 263/6/2 259/5/2 260/1/2 264/2/2
f 266/5/1 265/6/1 269/8/1 270/7/1
f 271/7/2 267/5/2 268/6/2 272/8/2
f 274/7/1 273/3/1 277/4/1 278/8/1
f 279/8/2 275/7/2 276/3/2 280/4/2
f 282/1/1 281/2/1 285/4/1 286/3/1
f 287/3/2 283/1/2 284/2/2 288/4/2
f 290/7/1 289/3/1 293/4/1 294/8/1
f 295/8/2 291/7/2 292/3/2 296/4/2
f 298/1/1 297/2/1 301/4/1 302/3/1
f 303/3/2 299/1/2 300/2/2 304/4/2
f 306/1/1 305/2/1 309/6/1 310/5/1
f 311/5/2 307/1/2 308/2/2 312/6/2
f 314/5/1 313/1/1 317/2/1 318/6/1
f 319/6/2 315/5/2 316/1/2 320/2/2
f 322/1/1 321/2/1 325/8/1 326/7/1
f 327/7/2 323/1/2 324/2/2 328/8/2
f 330/7/1 329/3/1 333/4/1 334/8/1
f 335/8/2 331/7/2 332/3/2 336/4/2
f 338/1/1 337/2/1 341/4/1 342/3/1
f 343/3/2 339/1/2 340/2/2 344/4/2
f 346/1/1 345/2/1 349/6/1 350/5/1
f 351/5/2 347/1/2 348/2/2 352/6/2
f 354/5/1 353/1/1 357/2/1 358/6/1
f 359/6/2 355/5/2 356/1/2 360/2/2
f 362/7/1 361/3/1 365/4/1 366/8/1
f 367/8/2 363/7/2 364/3/2 368/4/2
f 370/1/1 369/2/1 373/4/1 374/3/1
f 375/3/2 371/1/2 372/2/2 376/4/2
