mtllib lighthouse.mtl
usemtl bamboo_fence_particle
v -2.75 36 0.25
v -2.75 36 0.75
v -2.75 37 0.25
v -2.75 37 0.75
v -2.25 36 0.25
v -2.25 36 0.75
v -2.25 37 0.25
v -2.25 37 0.75
v -2.6875 36 0.75
v -2.6875 36 1
v -2.6875 36.8125 0.75
v -2.6875 36.8125 1
v -2.3125 36 0.75
v -2.3125 36 1
v -2.3125 36.8125 0.75
v -2.3125 36.8125 1
v -2.75 31 1.25
v -2.75 31 1.75
v -2.75 32 1.25
v -2.75 32 1.75
v -2.25 31 1.25
v -2.25 31 1.75
v -2.25 32 1.25
v -2.25 32 1.75
v -2.25 31 1.3125
v -2.25 31 1.6875
v -2.25 31.8125 1.3125
v -2.25 31.8125 1.6875
v -2 31 1.3125
v -2 31 1.6875
v -2 31.8125 1.3125
v -2 31.8125 1.6875
v -2.6875 31 1.75
v -2.6875 31 2
v -2.6875 31.8125 1.75
v -2.6875 31.8125 2
v -2.3125 31 1.75
v -2.3125 31 2
v -2.3125 31.8125 1.75
v -2.3125 31.8125 2
v -2.75 35 1.25
v -2.75 35 1.75
v -2.75 36 1.25
v -2.75 36 1.75
v -2.25 35 1.25
v -2.25 35 1.75
v -2.25 36 1.25
v -2.25 36 1.75
v -2.6875 35 1.75
v -2.6875 35 2
v -2.6875 35.8125 1.75
v -2.6875 35.8125 2
v -2.3125 35 1.75
v -2.3125 35 2
v -2.3125 35.8125 1.75
v -2.3125 35.8125 2
v -2.75 36 1.25
v -2.75 36 1.75
v -2.75 37 1.25
v -2.75 37 1.75
v -2.25 36 1.25
v -2.25 36 1.75
v -2.25 37 1.25
v -2.25 37 1.75
v -2.25 36 1.3125
v -2.25 36 1.6875
v -2.25 36.8125 1.3125
v -2.25 36.8125 1.6875
v -2 36 1.3125
v -2 36 1.6875
v -2 36.8125 1.3125
v -2 36.8125 1.6875
v -2.6875 36 1
v -2.6875 36 1.25
v -2.6875 36.8125 1
v -2.6875 36.8125 1.25
v -2.3125 36 1
v -2.3125 36 1.25
v -2.3125 36.8125 1
v -2.3125 36.8125 1.25
v -2.6875 36 1.75
v -2.6875 36 2
v -2.6875 36.8125 1.75
v -2.6875 36.8125 2
v -2.3125 36 1.75
v -2.3125 36 2
v -2.3125 36.8125 1.75
v -2.3125 36.8125 2
v -2.75 32 2.25
v -2.75 32 2.75
v -2.75 33 2.25
v -2.75 33 2.75
v -2.25 32 2.25
v -2.25 32 2.75
v -2.25 33 2.25
v -2.25 33 2.75
v -2.75 33 2.25
v -2.75 33 2.75
v -2.75 34 2.25
v -2.75 34 2.75
v -2.25 33 2.25
v -2.25 33 2.75
v -2.25 34 2.25
v -2.25 34 2.75
v -2.75 35 2.25
v -2.75 35 2.75
v -2.75 36 2.25
v -2.75 36 2.75
v -2.25 35 2.25
v -2.25 35 2.75
v -2.25 36 2.25
v -2.25 36 2.75
v -2.25 35 2.3125
v -2.25 35 2.6875
v -2.25 35.8125 2.3125
v -2.25 35.8125 2.6875
v -2 35 2.3125
v -2 35 2.6875
v -2 35.8125 2.3125
v -2 35.8125 2.6875
v -2.6875 35 2
v -2.6875 35 2.25
v -2.6875 35.8125 2
v -2.6875 35.8125 2.25
v -2.3125 35 2
v -2.3125 35 2.25
v -2.3125 35.8125 2
v -2.3125 35.8125 2.25
v -1.75 31 1.25
v -1.75 31 1.75
v -1.75 32 1.25
v -1.75 32 1.75
v -1.25 31 1.25
v -1.25 31 1.75
v -1.25 32 1.25
v -1.25 32 1.75
v -2 31 1.3125
v -2 31 1.6875
v -2 31.8125 1.3125
v -2 31.8125 1.6875
v -1.75 31 1.3125
v -1.75 31 1.6875
v -1.75 31.8125 1.3125
v -1.75 31.8125 1.6875
v -1.6875 31 1.75
v -1.6875 31 2
v -1.6875 31.8125 1.75
v -1.6875 31.8125 2
v -1.3125 31 1.75
v -1.3125 31 2
v -1.3125 31.8125 1.75
v -1.3125 31.8125 2
v -1.75 31 2.25
v -1.75 31 2.75
v -1.75 32 2.25
v -1.75 32 2.75
v -1.25 31 2.25
v -1.25 31 2.75
v -1.25 32 2.25
v -1.25 32 2.75
v -2 31 2.3125
v -2 31 2.6875
v -2 31.8125 2.3125
v -2 31.8125 2.6875
v -1.75 31 2.3125
v -1.75 31 2.6875
v -1.75 31.8125 2.3125
v -1.75 31.8125 2.6875
v -1.6875 31 2
v -1.6875 31 2.25
v -1.6875 31.8125 2
v -1.6875 31.8125 2.25
v -1.3125 31 2
v -1.3125 31 2.25
v -1.3125 31.8125 2
v -1.3125 31.8125 2.25
v -1.6875 31 2.75
v -1.6875 31 3
v -1.6875 31.8125 2.75
v -1.6875 31.8125 3
v -1.3125 31 2.75
v -1.3125 31 3
v -1.3125 31.8125 2.75
v -1.3125 31.8125 3
v -1.75 34 2.25
v -1.75 34 2.75
v -1.75 35 2.25
v -1.75 35 2.75
v -1.25 34 2.25
v -1.25 34 2.75
v -1.25 35 2.25
v -1.25 35 2.75
v -1.6875 34 2.75
v -1.6875 34 3
v -1.6875 34.8125 2.75
v -1.6875 34.8125 3
v -1.3125 34 2.75
v -1.3125 34 3
v -1.3125 34.8125 2.75
v -1.3125 34.8125 3
v -1.75 35 2.25
v -1.75 35 2.75
v -1.75 36 2.25
v -1.75 36 2.75
v -1.25 35 2.25
v -1.25 35 2.75
v -1.25 36 2.25
v -1.25 36 2.75
v -2 35 2.3125
v -2 35 2.6875
v -2 35.8125 2.3125
v -2 35.8125 2.6875
v -1.75 35 2.3125
v -1.75 35 2.6875
v -1.75 35.8125 2.3125
v -1.75 35.8125 2.6875
v -1.6875 35 2.75
v -1.6875 35 3
v -1.6875 35.8125 2.75
v -1.6875 35.8125 3
v -1.3125 35 2.75
v -1.3125 35 3
v -1.3125 35.8125 2.75
v -1.3125 35.8125 3
v -0.75 32 -0.75
v -0.75 32 -0.25
v -0.75 33 -0.75
v -0.75 33 -0.25
v -0.25 32 -0.75
v -0.25 32 -0.25
v -0.25 33 -0.75
v -0.25 33 -0.25
v -0.25 32 -0.6875
v -0.25 32 -0.3125
v -0.25 32.8125 -0.6875
v -0.25 32.8125 -0.3125
v 0 32 -0.6875
v 0 32 -0.3125
v 0 32.8125 -0.6875
v 0 32.8125 -0.3125
v -0.75 33 -0.75
v -0.75 33 -0.25
v -0.75 34 -0.75
v -0.75 34 -0.25
v -0.25 33 -0.75
v -0.25 33 -0.25
v -0.25 34 -0.75
v -0.25 34 -0.25
v 0.25 23 -1.75
v 0.25 23 -1.25
v 0.25 24 -1.75
v 0.25 24 -1.25
v 0.75 23 -1.75
v 0.75 23 -1.25
v 0.75 24 -1.75
v 0.75 24 -1.25
v 0 23 -1.6875
v 0 23 -1.3125
v 0 23.8125 -1.6875
v 0 23.8125 -1.3125
v 0.25 23 -1.6875
v 0.25 23 -1.3125
v 0.25 23.8125 -1.6875
v 0.25 23.8125 -1.3125
v 0.25 24 -1.75
v 0.25 24 -1.25
v 0.25 25 -1.75
v 0.25 25 -1.25
v 0.75 24 -1.75
v 0.75 24 -1.25
v 0.75 25 -1.75
v 0.75 25 -1.25
v 0 24 -1.6875
v 0 24 -1.3125
v 0 24.8125 -1.6875
v 0 24.8125 -1.3125
v 0.25 24 -1.6875
v 0.25 24 -1.3125
v 0.25 24.8125 -1.6875
v 0.25 24.8125 -1.3125
v 0.75 24 -1.6875
v 0.75 24 -1.3125
v 0.75 24.8125 -1.6875
v 0.75 24.8125 -1.3125
v 1 24 -1.6875
v 1 24 -1.3125
v 1 24.8125 -1.6875
v 1 24.8125 -1.3125
v 0.3125 24 -2
v 0.3125 24 -1.75
v 0.3125 24.8125 -2
v 0.3125 24.8125 -1.75
v 0.6875 24 -2
v 0.6875 24 -1.75
v 0.6875 24.8125 -2
v 0.6875 24.8125 -1.75
v 0.3125 24 -1.25
v 0.3125 24 -1
v 0.3125 24.8125 -1.25
v 0.3125 24.8125 -1
v 0.6875 24 -1.25
v 0.6875 24 -1
v 0.6875 24.8125 -1.25
v 0.6875 24.8125 -1
v 0.25 31 -1.75
v 0.25 31 -1.25
v 0.25 32 -1.75
v 0.25 32 -1.25
v 0.75 31 -1.75
v 0.75 31 -1.25
v 0.75 32 -1.75
v 0.75 32 -1.25
v 0.75 31 -1.6875
v 0.75 31 -1.3125
v 0.75 31.8125 -1.6875
v 0.75 31.8125 -1.3125
v 1 31 -1.6875
v 1 31 -1.3125
v 1 31.8125 -1.6875
v 1 31.8125 -1.3125
v 0.3125 31 -1.25
v 0.3125 31 -1
v 0.3125 31.8125 -1.25
v 0.3125 31.8125 -1
v 0.6875 31 -1.25
v 0.6875 31 -1
v 0.6875 31.8125 -1.25
v 0.6875 31.8125 -1
v 0.25 31 -0.75
v 0.25 31 -0.25
v 0.25 32 -0.75
v 0.25 32 -0.25
v 0.75 31 -0.75
v 0.75 31 -0.25
v 0.75 32 -0.75
v 0.75 32 -0.25
v 0.75 31 -0.6875
v 0.75 31 -0.3125
v 0.75 31.8125 -0.6875
v 0.75 31.8125 -0.3125
v 1 31 -0.6875
v 1 31 -0.3125
v 1 31.8125 -0.6875
v 1 31.8125 -0.3125
v 0.3125 31 -1
v 0.3125 31 -0.75
v 0.3125 31.8125 -1
v 0.3125 31.8125 -0.75
v 0.6875 31 -1
v 0.6875 31 -0.75
v 0.6875 31.8125 -1
v 0.6875 31.8125 -0.75
v 0.25 32 -0.75
v 0.25 32 -0.25
v 0.25 33 -0.75
v 0.25 33 -0.25
v 0.75 32 -0.75
v 0.75 32 -0.25
v 0.75 33 -0.75
v 0.75 33 -0.25
v 0 32 -0.6875
v 0 32 -0.3125
v 0 32.8125 -0.6875
v 0 32.8125 -0.3125
v 0.25 32 -0.6875
v 0.25 32 -0.3125
v 0.25 32.8125 -0.6875
v 0.25 32.8125 -0.3125
v 1.25 24 -1.75
v 1.25 24 -1.25
v 1.25 25 -1.75
v 1.25 25 -1.25
v 1.75 24 -1.75
v 1.75 24 -1.25
v 1.75 25 -1.75
v 1.75 25 -1.25
v 1 24 -1.6875
v 1 24 -1.3125
v 1 24.8125 -1.6875
v 1 24.8125 -1.3125
v 1.25 24 -1.6875
v 1.25 24 -1.3125
v 1.25 24.8125 -1.6875
v 1.25 24.8125 -1.3125
v 1.25 31 -0.75
v 1.25 31 -0.25
v 1.25 32 -0.75
v 1.25 32 -0.25
v 1.75 31 -0.75
v 1.75 31 -0.25
v 1.75 32 -0.75
v 1.75 32 -0.25
v 1 31 -0.6875
v 1 31 -0.3125
v 1 31.8125 -0.6875
v 1 31.8125 -0.3125
v 1.25 31 -0.6875
v 1.25 31 -0.3125
v 1.25 31.8125 -0.6875
v 1.25 31.8125 -0.3125
v 1.75 31 -0.6875
v 1.75 31 -0.3125
v 1.75 31.8125 -0.6875
v 1.75 31.8125 -0.3125
v 2 31 -0.6875
v 2 31 -0.3125
v 2 31.8125 -0.6875
v 2 31.8125 -0.3125
v 1.3125 31 -1
v 1.3125 31 -0.75
v 1.3125 31.8125 -1
v 1.3125 31.8125 -0.75
v 1.6875 31 -1
v 1.6875 31 -0.75
v 1.6875 31.8125 -1
v 1.6875 31.8125 -0.75
v 2.25 20 -1.75
v 2.25 20 -1.25
v 2.25 21 -1.75
v 2.25 21 -1.25
v 2.75 20 -1.75
v 2.75 20 -1.25
v 2.75 21 -1.75
v 2.75 21 -1.25
v 2 20 -1.6875
v 2 20 -1.3125
v 2 20.8125 -1.6875
v 2 20.8125 -1.3125
v 2.25 20 -1.6875
v 2.25 20 -1.3125
v 2.25 20.8125 -1.6875
v 2.25 20.8125 -1.3125
v 2.3125 20 -1.25
v 2.3125 20 -1
v 2.3125 20.8125 -1.25
v 2.3125 20.8125 -1
v 2.6875 20 -1.25
v 2.6875 20 -1
v 2.6875 20.8125 -1.25
v 2.6875 20.8125 -1
v 3.25 22 0.25
v 3.25 22 0.75
v 3.25 23 0.25
v 3.25 23 0.75
v 3.75 22 0.25
v 3.75 22 0.75
v 3.75 23 0.25
v 3.75 23 0.75
v 3.3125 22 0.75
v 3.3125 22 1
v 3.3125 22.8125 0.75
v 3.3125 22.8125 1
v 3.6875 22 0.75
v 3.6875 22 1
v 3.6875 22.8125 0.75
v 3.6875 22.8125 1
v 3.25 23 0.25
v 3.25 23 0.75
v 3.25 24 0.25
v 3.25 24 0.75
v 3.75 23 0.25
v 3.75 23 0.75
v 3.75 24 0.25
v 3.75 24 0.75
v 3.3125 23 0.75
v 3.3125 23 1
v 3.3125 23.8125 0.75
v 3.3125 23.8125 1
v 3.6875 23 0.75
v 3.6875 23 1
v 3.6875 23.8125 0.75
v 3.6875 23.8125 1
vt 0.000000000 0.000000000
vt 0.250000000 0.000000000
vt 0.312500000 0.000000000
vt 0.687500000 0.000000000
vt 0.750000000 0.000000000
vt 1.000000000 0.000000000
vt 0.250000000 0.250000000
vt 0.312500000 0.250000000
vt 0.687500000 0.250000000
vt 0.750000000 0.250000000
vt 0.000000000 0.312500000
vt 0.250000000 0.312500000
vt 0.750000000 0.312500000
vt 1.000000000 0.312500000
vt 0.000000000 0.687500000
vt 0.250000000 0.687500000
vt 0.750000000 0.687500000
vt 1.000000000 0.687500000
vt 0.250000000 0.750000000
vt 0.312500000 0.750000000
vt 0.687500000 0.750000000
vt 0.750000000 0.750000000
vt 0.000000000 0.812500000
vt 0.250000000 0.812500000
vt 0.312500000 0.812500000
vt 0.687500000 0.812500000
vt 0.750000000 0.812500000
vt 1.000000000 0.812500000
vt 0.250000000 1.000000000
vt 0.312500000 1.000000000
vt 0.687500000 1.000000000
vt 0.750000000 1.000000000
vn -1 0 0
vn 0 -1 0
vn 0 0 -1
vn 1 0 0
vn 0 1 0
vn 0 0 1
f 3/29/1 1/2/1 2/5/1 4/32/1
f 2/19/2 1/7/2 5/10/2 6/22/2
f 7/29/3 5/2/3 1/5/3 3/32/3
f 7/32/4 8/29/4 6/2/4 5/5/4
f 7/22/5 3/19/5 4/7/5 8/10/5
f 8/32/6 4/29/6 2/2/6 6/5/6
f 11/27/1 9/5/1 10/6/1 12/28/1
f 10/8/2 9/3/2 13/4/2 14/9/2
f 15/25/3 13/3/3 9/4/3 11/26/3
f 15/24/4 16/23/4 14/1/4 13/2/4
f 15/9/5 11/8/5 12/3/5 16/4/5
f 16/26/6 12/25/6 10/3/6 14/4/6
f 19/29/1 17/2/1 18/5/1 20/32/1
f 18/19/2 17/7/2 21/10/2 22/22/2
f 23/29/3 21/2/3 17/5/3 19/32/3
f 23/32/4 24/29/4 22/2/4 21/5/4
f 23/22/5 19/19/5 20/7/5 24/10/5
f 24/32/6 20/29/6 18/2/6 22/5/6
f 27/25/1 25/3/1 26/4/1 28/26/1
f 26/17/2 25/13/2 29/14/2 30/18/2
f 31/23/3 29/1/3 25/2/3 27/24/3
f 31/26/4 32/25/4 30/3/4 29/4/4
f 31/18/5 27/17/5 28/13/5 32/14/5
f 32/28/6 28/27/6 26/5/6 30/6/6
f 35/27/1 33/5/1 34/6/1 36/28/1
f 34/8/2 33/3/2 37/4/2 38/9/2
f 39/25/3 37/3/3 33/4/3 35/26/3
f 39/24/4 40/23/4 38/1/4 37/2/4
f 39/9/5 35/8/5 36/3/5 40/4/5
f 40/26/6 36/25/6 34/3/6 38/4/6
f 43/29/1 41/2/1 42/5/1 44/32/1
f 42/19/2 41/7/2 45/10/2 46/22/2
f 47/29/3 45/2/3 41/5/3 43/32/3
f 47/32/4 48/29/4 46/2/4 45/5/4
f 47/22/5 43/19/5 44/7/5 48/10/5
f 48/32/6 44/29/6 42/2/6 46/5/6
f 51/27/1 49/5/1 50/6/1 52/28/1
f 50/8/2 49/3/2 53/4/2 54/9/2
f 55/25/3 53/3/3 49/4/3 51/26/3
f 55/24/4 56/23/4 54/1/4 53/2/4
f 55/9/5 51/8/5 52/3/5 56/4/5
f 56/26/6 52/25/6 50/3/6 54/4/6
f 59/29/1 57/2/1 58/5/1 60/32/1
f 58/19/2 57/7/2 61/10/2 62/22/2
f 63/29/3 61/2/3 57/5/3 59/32/3
f 63/32/4 64/29/4 62/2/4 61/5/4
f 63/22/5 59/19/5 60/7/5 64/10/5
f 64/32/6 60/29/6 58/2/6 62/5/6
f 67/25/1 65/3/1 66/4/1 68/26/1
f 66/17/2 65/13/2 69/14/2 70/18/2
f 71/23/3 69/1/3 65/2/3 67/24/3
f 71/26/4 72/25/4 70/3/4 69/4/4
f 71/18/5 67/17/5 68/13/5 72/14/5
f 72/28/6 68/27/6 66/5/6 70/6/6
f 75/23/1 73/1/1 74/2/1 76/24/1
f 74/30/2 73/20/2 77/21/2 78/31/2
f 79/25/3 77/3/3 73/4/3 75/26/3
f 79/28/4 80/27/4 78/5/4 77/6/4
f 79/31/5 75/30/5 76/20/5 80/21/5
f 80/26/6 76/25/6 74/3/6 78/4/6
f 83/27/1 81/5/1 82/6/1 84/28/1
f 82/8/2 81/3/2 85/4/2 86/9/2
f 87/25/3 85/3/3 81/4/3 83/26/3
f 87/24/4 88/23/4 86/1/4 85/2/4
f 87/9/5 83/8/5 84/3/5 88/4/5
f 88/26/6 84/25/6 82/3/6 86/4/6
f 91/29/1 89/2/1 90/5/1 92/32/1
f 90/19/2 89/7/2 93/10/2 94/22/2
f 95/29/3 93/2/3 89/5/3 91/32/3
f 95/32/4 96/29/4 94/2/4 93/5/4
f 95/22/5 91/19/5 92/7/5 96/10/5
f 96/32/6 92/29/6 90/2/6 94/5/6
f 99/29/1 97/2/1 98/5/1 100/32/1
f 98/19/2 97/7/2 101/10/2 102/22/2
f 103/29/3 101/2/3 97/5/3 99/32/3
f 103/32/4 104/29/4 102/2/4 101/5/4
f 103/22/5 99/19/5 100/7/5 104/10/5
f 104/32/6 100/29/6 98/2/6 102/5/6
f 107/29/1 105/2/1 106/5/1 108/32/1
f 106/19/2 105/7/2 109/10/2 110/22/2
f 111/29/3 109/2/3 105/5/3 107/32/3
f 111/32/4 112/29/4 110/2/4 109/5/4
f 111/22/5 107/19/5 108/7/5 112/10/5
f 112/32/6 108/29/6 106/2/6 110/5/6
f 115/25/1 113/3/1 114/4/1 116/26/1
f 114/17/2 113/13/2 117/14/2 118/18/2
f 119/23/3 117/1/3 113/2/3 115/24/3
f 119/26/4 120/25/4 118/3/4 117/4/4
f 119/18/5 115/17/5 116/13/5 120/14/5
f 120/28/6 116/27/6 114/5/6 118/6/6
f 123/23/1 121/1/1 122/2/1 124/24/1
f 122/30/2 121/20/2 125/21/2 126/31/2
f 127/25/3 125/3/3 121/4/3 123/26/3
f 127/28/4 128/27/4 126/5/4 125/6/4
f 127/31/5 123/30/5 124/20/5 128/21/5
f 128/26/6 124/25/6 122/3/6 126/4/6
f 131/29/1 129/2/1 130/5/1 132/32/1
f 130/19/2 129/7/2 133/10/2 134/22/2
f 135/29/3 133/2/3 129/5/3 131/32/3
f 135/32/4 136/29/4 134/2/4 133/5/4
f 135/22/5 131/19/5 132/7/5 136/10/5
f 136/32/6 132/29/6 130/2/6 134/5/6
f 139/25/1 137/3/1 138/4/1 140/26/1
f 138/15/2 137/11/2 141/12/2 142/16/2
f 143/27/3 141/5/3 137/6/3 139/28/3
f 143/26/4 144/25/4 142/3/4 141/4/4
f 143/16/5 139/15/5 140/11/5 144/12/5
f 144/24/6 140/23/6 138/1/6 142/2/6
f 147/27/1 145/5/1 146/6/1 148/28/1
f 146/8/2 145/3/2 149/4/2 150/9/2
f 151/25/3 149/3/3 145/4/3 147/26/3
f 151/24/4 152/23/4 150/1/4 149/2/4
f 151/9/5 147/8/5 148/3/5 152/4/5
f 152/26/6 148/25/6 146/3/6 150/4/6
f 155/29/1 153/2/1 154/5/1 156/32/1
f 154/19/2 153/7/2 157/10/2 158/22/2
f 159/29/3 157/2/3 153/5/3 155/32/3
f 159/32/4 160/29/4 158/2/4 157/5/4
f 159/22/5 155/19/5 156/7/5 160/10/5
f 160/32/6 156/29/6 154/2/6 158/5/6
f 163/25/1 161/3/1 162/4/1 164/26/1
f 162/15/2 161/11/2 165/12/2 166/16/2
f 167/27/3 165/5/3 161/6/3 163/28/3
f 167/26/4 168/25/4 166/3/4 165/4/4
f 167/16/5 163/15/5 164/11/5 168/12/5
f 168/24/6 164/23/6 162/1/6 166/2/6
f 171/23/1 169/1/1 170/2/1 172/24/1
f 170/30/2 169/20/2 173/21/2 174/31/2
f 175/25/3 173/3/3 169/4/3 171/26/3
f 175/28/4 176/27/4 174/5/4 173/6/4
f 175/31/5 171/30/5 172/20/5 176/21/5
f 176/26/6 172/25/6 170/3/6 174/4/6
f 179/27/1 177/5/1 178/6/1 180/28/1
f 178/8/2 177/3/2 181/4/2 182/9/2
f 183/25/3 181/3/3 177/4/3 179/26/3
f 183/24/4 184/23/4 182/1/4 181/2/4
f 183/9/5 179/8/5 180/3/5 184/4/5
f 184/26/6 180/25/6 178/3/6 182/4/6
f 187/29/1 185/2/1 186/5/1 188/32/1
f 186/19/2 185/7/2 189/10/2 190/22/2
f 191/29/3 189/2/3 185/5/3 187/32/3
f 191/32/4 192/29/4 190/2/4 189/5/4
f 191/22/5 187/19/5 188/7/5 192/10/5
f 192/32/6 188/29/6 186/2/6 190/5/6
f 195/27/1 193/5/1 194/6/1 196/28/1
f 194/8/2 193/3/2 197/4/2 198/9/2
f 199/25/3 197/3/3 193/4/3 195/26/3
f 199/24/4 200/23/4 198/1/4 197/2/4
f 199/9/5 195/8/5 196/3/5 200/4/5
f 200/26/6 196/25/6 194/3/6 198/4/6
f 203/29/1 201/2/1 202/5/1 204/32/1
f 202/19/2 201/7/2 205/10/2 206/22/2
f 207/29/3 205/2/3 201/5/3 203/32/3
f 207/32/4 208/29/4 206/2/4 205/5/4
f 207/22/5 203/19/5 204/7/5 208/10/5
f 208/32/6 204/29/6 202/2/6 206/5/6
f 211/25/1 209/3/1 210/4/1 212/26/1
f 210/15/2 209/11/2 213/12/2 214/16/2
f 215/27/3 213/5/3 209/6/3 211/28/3
f 215/26/4 216/25/4 214/3/4 213/4/4
f 215/16/5 211/15/5 212/11/5 216/12/5
f 216/24/6 212/23/6 210/1/6 214/2/6
f 219/27/1 217/5/1 218/6/1 220/28/1
f 218/8/2 217/3/2 221/4/2 222/9/2
f 223/25/3 221/3/3 217/4/3 219/26/3
f 223/24/4 224/23/4 222/1/4 221/2/4
f 223/9/5 219/8/5 220/3/5 224/4/5
f 224/26/6 220/25/6 218/3/6 222/4/6
f 227/29/1 225/2/1 226/5/1 228/32/1
f 226/19/2 225/7/2 229/10/2 230/22/2
f 231/29/3 229/2/3 225/5/3 227/32/3
f 231/32/4 232/29/4 230/2/4 229/5/4
f 231/22/5 227/19/5 228/7/5 232/10/5
f 232/32/6 228/29/6 226/2/6 230/5/6
f 235/25/1 233/3/1 234/4/1 236/26/1
f 234/17/2 233/13/2 237/14/2 238/18/2
f 239/23/3 237/1/3 233/2/3 235/24/3
f 239/26/4 240/25/4 238/3/4 237/4/4
f 239/18/5 235/17/5 236/13/5 240/14/5
f 240/28/6 236/27/6 234/5/6 238/6/6
f 243/29/1 241/2/1 242/5/1 244/32/1
f 242/19/2 241/7/2 245/10/2 246/22/2
f 247/29/3 245/2/3 241/5/3 243/32/3
f 247/32/4 248/29/4 246/2/4 245/5/4
f 247/22/5 243/19/5 244/7/5 248/10/5
f 248/32/6 244/29/6 242/2/6 246/5/6
f 251/29/1 249/2/1 250/5/1 252/32/1
f 250/19/2 249/7/2 253/10/2 254/22/2
f 255/29/3 253/2/3 249/5/3 251/32/3
f 255/32/4 256/29/4 254/2/4 253/5/4
f 255/22/5 251/19/5 252/7/5 256/10/5
f 256/32/6 252/29/6 250/2/6 254/5/6
f 259/25/1 257/3/1 258/4/1 260/26/1
f 258/15/2 257/11/2 261/12/2 262/16/2
f 263/27/3 261/5/3 257/6/3 259/28/3
f 263/26/4 264/25/4 262/3/4 261/4/4
f 263/16/5 259/15/5 260/11/5 264/12/5
f 264/24/6 260/23/6 258/1/6 262/2/6
f 267/29/1 265/2/1 266/5/1 268/32/1
f 266/19/2 265/7/2 269/10/2 270/22/2
f 271/29/3 269/2/3 265/5/3 267/32/3
f 271/32/4 272/29/4 270/2/4 269/5/4
f 271/22/5 267/19/5 268/7/5 272/10/5
f 272/32/6 268/29/6 266/2/6 270/5/6
f 275/25/1 273/3/1 274/4/1 276/26/1
f 274/15/2 273/11/2 277/12/2 278/16/2
f 279/27/3 277/5/3 273/6/3 275/28/3
f 279/26/4 280/25/4 278/3/4 277/4/4
f 279/16/5 275/15/5 276/11/5 280/12/5
f 280/24/6 276/23/6 274/1/6 278/2/6
f 283/25/1 281/3/1 282/4/1 284/26/1
f 282/17/2 281/13/2 285/14/2 286/18/2
f 287/23/3 285/1/3 281/2/3 283/24/3
f 287/26/4 288/25/4 286/3/4 285/4/4
f 287/18/5 283/17/5 284/13/5 288/14/5
f 288/28/6 284/27/6 282/5/6 286/6/6
f 291/23/1 289/1/1 290/2/1 292/24/1
f 290/30/2 289/20/2 293/21/2 294/31/2
f 295/25/3 293/3/3 289/4/3 291/26/3
f 295/28/4 296/27/4 294/5/4 293/6/4
f 295/31/5 291/30/5 292/20/5 296/21/5
f 296/26/6 292/25/6 290/3/6 294/4/6
f 299/27/1 297/5/1 298/6/1 300/28/1
f 298/8/2 297/3/2 301/4/2 302/9/2
f 303/25/3 301/3/3 297/4/3 299/26/3
f 303/24/4 304/23/4 302/1/4 301/2/4
f 303/9/5 299/8/5 300/3/5 304/4/5
f 304/26/6 300/25/6 298/3/6 302/4/6
f 307/29/1 305/2/1 306/5/1 308/32/1
f 306/19/2 305/7/2 309/10/2 310/22/2
f 311/29/3 309/2/3 305/5/3 307/32/3
f 311/32/4 312/29/4 310/2/4 309/5/4
f 311/22/5 307/19/5 308/7/5 312/10/5
f 312/32/6 308/29/6 306/2/6 310/5/6
f 315/25/1 313/3/1 314/4/1 316/26/1
f 314/17/2 313/13/2 317/14/2 318/18/2
f 319/23/3 317/1/3 313/2/3 315/24/3
f 319/26/4 320/25/4 318/3/4 317/4/4
f 319/18/5 315/17/5 316/13/5 320/14/5
f 320/28/6 316/27/6 314/5/6 318/6/6
f 323/27/1 321/5/1 322/6/1 324/28/1
f 322/8/2 321/3/2 325/4/2 326/9/2
f 327/25/3 325/3/3 321/4/3 323/26/3
f 327/24/4 328/23/4 326/1/4 325/2/4
f 327/9/5 323/8/5 324/3/5 328/4/5
f 328/26/6 324/25/6 322/3/6 326/4/6
f 331/29/1 329/2/1 330/5/1 332/32/1
f 330/19/2 329/7/2 333/10/2 334/22/2
f 335/29/3 333/2/3 329/5/3 331/32/3
f 335/32/4 336/29/4 334/2/4 333/5/4
f 335/22/5 331/19/5 332/7/5 336/10/5
f 336/32/6 332/29/6 330/2/6 334/5/6
f 339/25/1 337/3/1 338/4/1 340/26/1
f 338/17/2 337/13/2 341/14/2 342/18/2
f 343/23/3 341/1/3 337/2/3 339/24/3
f 343/26/4 344/25/4 342/3/4 341/4/4
f 343/18/5 339/17/5 340/13/5 344/14/5
f 344/28/6 340/27/6 338/5/6 342/6/6
f 347/23/1 345/1/1 346/2/1 348/24/1
f 346/30/2 345/20/2 349/21/2 350/31/2
f 351/25/3 349/3/3 345/4/3 347/26/3
f 351/28/4 352/27/4 350/5/4 349/6/4
f 351/31/5 347/30/5 348/20/5 352/21/5
f 352/26/6 348/25/6 346/3/6 350/4/6
f 355/29/1 353/2/1 354/5/1 356/32/1
f 354/19/2 353/7/2 357/10/2 358/22/2
f 359/29/3 357/2/3 353/5/3 355/32/3
f 359/32/4 360/29/4 358/2/4 357/5/4
f 359/22/5 355/19/5 356/7/5 360/10/5
f 360/32/6 356/29/6 354/2/6 358/5/6
f 363/25/1 361/3/1 362/4/1 364/26/1
f 362/15/2 361/11/2 365/12/2 366/16/2
f 367/27/3 365/5/3 361/6/3 363/28/3
f 367/26/4 368/25/4 366/3/4 365/4/4
f 367/16/5 363/15/5 364/11/5 368/12/5
f 368/24/6 364/23/6 362/1/6 366/2/6
f 371/29/1 369/2/1 370/5/1 372/32/1
f 370/19/2 369/7/2 373/10/2 374/22/2
f 375/29/3 373/2/3 369/5/3 371/32/3
f 375/32/4 376/29/4 374/2/4 373/5/4
f 375/22/5 371/19/5 372/7/5 376/10/5
f 376/32/6 372/29/6 370/2/6 374/5/6
f 379/25/1 377/3/1 378/4/1 380/26/1
f 378/15/2 377/11/2 381/12/2 382/16/2
f 383/27/3 381/5/3 377/6/3 379/28/3
f 383/26/4 384/25/4 382/3/4 381/4/4
f 383/16/5 379/15/5 380/11/5 384/12/5
f 384/24/6 380/23/6 378/1/6 382/2/6
f 387/29/1 385/2/1 386/5/1 388/32/1
f 386/19/2 385/7/2 389/10/2 390/22/2
f 391/29/3 389/2/3 385/5/3 387/32/3
f 391/32/4 392/29/4 390/2/4 389/5/4
f 391/22/5 387/19/5 388/7/5 392/10/5
f 392/32/6 388/29/6 386/2/6 390/5/6
f 395/25/1 393/3/1 394/4/1 396/26/1
f 394/15/2 393/11/2 397/12/2 398/16/2
f 399/27/3 397/5/3 393/6/3 395/28/3
f 399/26/4 400/25/4 398/3/4 397/4/4
f 399/16/5 395/15/5 396/11/5 400/12/5
f 400/24/6 396/23/6 394/1/6 398/2/6
f 403/25/1 401/3/1 402/4/1 404/26/1
f 402/17/2 401/13/2 405/14/2 406/18/2
f 407/23/3 405/1/3 401/2/3 403/24/3
f 407/26/4 408/25/4 406/3/4 405/4/4
f 407/18/5 403/17/5 404/13/5 408/14/5
f 408/28/6 404/27/6 402/5/6 406/6/6
f 411/23/1 409/1/1 410/2/1 412/24/1
f 410/30/2 409/20/2 413/21/2 414/31/2
f 415/25/3 413/3/3 409/4/3 411/26/3
f 415/28/4 416/27/4 414/5/4 413/6/4
f 415/31/5 411/30/5 412/20/5 416/21/5
f 416/26/6 412/25/6 410/3/6 414/4/6
f 419/29/1 417/2/1 418/5/1 420/32/1
f 418/19/2 417/7/2 421/10/2 422/22/2
f 423/29/3 421/2/3 417/5/3 419/32/3
f 423/32/4 424/29/4 422/2/4 421/5/4
f 423/22/5 419/19/5 420/7/5 424/10/5
f 424/32/6 420/29/6 418/2/6 422/5/6
f 427/25/1 425/3/1 426/4/1 428/26/1
f 426/15/2 425/11/2 429/12/2 430/16/2
f 431/27/3 429/5/3 425/6/3 427/28/3
f 431/26/4 432/25/4 430/3/4 429/4/4
f 431/16/5 427/15/5 428/11/5 432/12/5
f 432/24/6 428/23/6 426/1/6 430/2/6
f 435/27/1 433/5/1 434/6/1 436/28/1
f 434/8/2 433/3/2 437/4/2 438/9/2
f 439/25/3 437/3/3 433/4/3 435/26/3
f 439/24/4 440/23/4 438/1/4 437/2/4
f 439/9/5 435/8/5 436/3/5 440/4/5
f 440/26/6 436/25/6 434/3/6 438/4/6
f 443/29/1 441/2/1 442/5/1 444/32/1
f 442/19/2 441/7/2 445/10/2 446/22/2
f 447/29/3 445/2/3 441/5/3 443/32/3
f 447/32/4 448/29/4 446/2/4 445/5/4
f 447/22/5 443/19/5 444/7/5 448/10/5
f 448/32/6 444/29/6 442/2/6 446/5/6
f 451/27/1 449/5/1 450/6/1 452/28/1
f 450/8/2 449/3/2 453/4/2 454/9/2
f 455/25/3 453/3/3 449/4/3 451/26/3
f 455/24/4 456/23/4 454/1/4 453/2/4
f 455/9/5 451/8/5 452/3/5 456/4/5
f 456/26/6 452/25/6 450/3/6 454/4/6
f 459/29/1 457/2/1 458/5/1 460/32/1
f 458/19/2 457/7/2 461/10/2 462/22/2
f 463/29/3 461/2/3 457/5/3 459/32/3
f 463/32/4 464/29/4 462/2/4 461/5/4
f 463/22/5 459/19/5 460/7/5 464/10/5
f 464/32/6 460/29/6 458/2/6 462/5/6
f 467/27/1 465/5/1 466/6/1 468/28/1
f 466/8/2 465/3/2 469/4/2 470/9/2
f 471/25/3 469/3/3 465/4/3 467/26/3
f 471/24/4 472/23/4 470/1/4 469/2/4
f 471/9/5 467/8/5 468/3/5 472/4/5
f 472/26/6 468/25/6 466/3/6 470/4/6
