mtllib lighthouse.mtl
usemtl smooth_stone
v -3 10 -2
v -3 10 -1
v -3 11 -2
v -3 11 -1
v -3 9 0
v -3 9 1
v -2 10 -2
v -2 11 -2
v -2 12 -2
v -2 10 -1
v -2 11 -1
v -2 9 0
v -2 9 1
v -3 10 1
v -3 10 0
v -2 10 0
v -2 10 1
v -2 11 2
v -2 11 1
v -2 12 1
v -2 12 2
v -1 9 -1
v -2 12 -1
v -1 11 -1
v -1 11 -2
v -1 12 -2
v -1 12 -1
v -1 9 0
v -2 11 0
v -1 10 0
v -1 10 -1
v -1 11 0
v -1 9 1
v -1 10 1
v -1 12 1
v -1 12 0
v -1 11 1
v -1 11 2
v -1 12 2
v 0 9 -1
v -1 10 -2
v 0 10 -1
v 0 10 -2
v 0 11 -2
v 0 11 -1
v -1 13 -1
v -1 13 -2
v 0 12 -1
v 0 12 -2
v 0 13 -2
v 0 13 -1
v 0 9 0
v 0 10 0
v 0 9 1
v 0 10 1
v 0 11 0
v 0 11 1
v 0 12 0
v 0 12 1
v 0 11 2
v 0 9 2
v 1 12 -1
v 1 12 -2
v 1 13 -2
v 1 13 -1
v 1 9 -1
v 1 9 0
v 1 11 0
v 1 11 -1
v 1 12 0
v 1 9 1
v 1 10 1
v 1 10 0
v 1 11 1
v 1 9 2
v 0 10 2
v 1 10 2
v 1 11 2
v 2 9 -1
v 1 10 -2
v 1 10 -1
v 1 11 -2
v 2 10 -1
v 2 10 -2
v 2 11 -2
v 2 11 -1
v 2 9 0
v 2 10 0
v 2 9 1
v 2 10 1
v 2 11 0
v 2 11 1
v 2 9 2
v 2 10 2
vt 0.000000000 0.000000000
vt 1.000000000 0.000000000
vt 0.000000000 1.000000000
vt 1.000000000 1.000000000
vn -1 0 0
vn 0 -1 0
vn 0 0 -1
vn 1 0 0
vn 0 1 0
vn 0 0 1
f 2/2/1 4/4/1 3/3/1 1/1/1
f 2/3/2 1/1/2 7/2/2 10/4/2
f 1/2/3 3/4/3 8/3/3 7/1/3
f 10/1/4 7/2/4 8/4/4 11/3/4
f 4/1/5 11/2/5 8/4/5 3/3/5
f 2/1/6 10/2/6 11/4/6 4/3/6
f 6/2/1 14/4/1 15/3/1 5/1/1
f 6/3/2 5/1/2 12/2/2 13/4/2
f 5/2/3 15/4/3 16/3/3 12/1/3
f 13/1/4 12/2/4 16/4/4 17/3/4
f 14/1/5 17/2/5 16/4/5 15/3/5
f 6/1/6 13/2/6 17/4/6 14/3/6
f 11/2/1 23/4/1 9/3/1 8/1/1
f 11/3/2 8/1/2 25/2/2 24/4/2
f 8/2/3 9/4/3 26/3/3 25/1/3
f 24/1/4 25/2/4 26/4/4 27/3/4
f 23/1/5 27/2/5 26/4/5 9/3/5
f 11/1/6 24/2/6 27/4/6 23/3/6
f 16/2/1 29/4/1 11/3/1 10/1/1
f 16/3/2 10/1/2 31/2/2 30/4/2
f 10/2/3 11/4/3 24/3/3 31/1/3
f 30/1/4 31/2/4 24/4/4 32/3/4
f 29/1/5 32/2/5 24/4/5 11/3/5
f 16/1/6 30/2/6 32/4/6 29/3/6
f 13/2/1 17/4/1 16/3/1 12/1/1
f 13/3/2 12/1/2 28/2/2 33/4/2
f 12/2/3 16/4/3 30/3/3 28/1/3
f 33/1/4 28/2/4 30/4/4 34/3/4
f 17/1/5 34/2/5 30/4/5 16/3/5
f 13/1/6 33/2/6 34/4/6 17/3/6
f 18/2/1 21/4/1 20/3/1 19/1/1
f 18/3/2 19/1/2 37/2/2 38/4/2
f 19/2/3 20/4/3 35/3/3 37/1/3
f 38/1/4 37/2/4 35/4/4 39/3/4
f 21/1/5 39/2/5 35/4/5 20/3/5
f 18/1/6 38/2/6 39/4/6 21/3/6
f 31/2/1 24/4/1 25/3/1 41/1/1
f 31/3/2 41/1/2 43/2/2 42/4/2
f 41/2/3 25/4/3 44/3/3 43/1/3
f 42/1/4 43/2/4 44/4/4 45/3/4
f 24/1/5 45/2/5 44/4/5 25/3/5
f 31/1/6 42/2/6 45/4/6 24/3/6
f 27/2/1 46/4/1 47/3/1 26/1/1
f 27/3/2 26/1/2 49/2/2 48/4/2
f 26/2/3 47/4/3 50/3/3 49/1/3
f 48/1/4 49/2/4 50/4/4 51/3/4
f 46/1/5 51/2/5 50/4/5 47/3/5
f 27/1/6 48/2/6 51/4/6 46/3/6
f 28/2/1 30/4/1 31/3/1 22/1/1
f 28/3/2 22/1/2 40/2/2 52/4/2
f 22/2/3 31/4/3 42/3/3 40/1/3
f 52/1/4 40/2/4 42/4/4 53/3/4
f 30/1/5 53/2/5 42/4/5 31/3/5
f 28/1/6 52/2/6 53/4/6 30/3/6
f 33/2/1 34/4/1 30/3/1 28/1/1
f 33/3/2 28/1/2 52/2/2 54/4/2
f 28/2/3 30/4/3 53/3/3 52/1/3
f 54/1/4 52/2/4 53/4/4 55/3/4
f 34/1/5 55/2/5 53/4/5 30/3/5
f 33/1/6 54/2/6 55/4/6 34/3/6
f 34/2/1 37/4/1 32/3/1 30/1/1
f 34/3/2 30/1/2 53/2/2 55/4/2
f 30/2/3 32/4/3 56/3/3 53/1/3
f 55/1/4 53/2/4 56/4/4 57/3/4
f 37/1/5 57/2/5 56/4/5 32/3/5
f 34/1/6 55/2/6 57/4/6 37/3/6
f 37/2/1 35/4/1 36/3/1 32/1/1
f 37/3/2 32/1/2 56/2/2 57/4/2
f 32/2/3 36/4/3 58/3/3 56/1/3
f 57/1/4 56/2/4 58/4/4 59/3/4
f 35/1/5 59/2/5 58/4/5 36/3/5
f 37/1/6 57/2/6 59/4/6 35/3/6
f 48/2/1 51/4/1 50/3/1 49/1/1
f 48/3/2 49/1/2 63/2/2 62/4/2
f 49/2/3 50/4/3 64/3/3 63/1/3
f 62/1/4 63/2/4 64/4/4 65/3/4
f 51/1/5 65/2/5 64/4/5 50/3/5
f 48/1/6 62/2/6 65/4/6 51/3/6
f 56/2/1 58/4/1 48/3/1 45/1/1
f 56/3/2 45/1/2 69/2/2 68/4/2
f 45/2/3 48/4/3 62/3/3 69/1/3
f 68/1/4 69/2/4 62/4/4 70/3/4
f 58/1/5 70/2/5 62/4/5 48/3/5
f 56/1/6 68/2/6 70/4/6 58/3/6
f 55/2/1 57/4/1 56/3/1 53/1/1
f 55/3/2 53/1/2 73/2/2 72/4/2
f 53/2/3 56/4/3 68/3/3 73/1/3
f 72/1/4 73/2/4 68/4/4 74/3/4
f 57/1/5 74/2/5 68/4/5 56/3/5
f 55/1/6 72/2/6 74/4/6 57/3/6
f 61/2/1 76/4/1 55/3/1 54/1/1
f 61/3/2 54/1/2 71/2/2 75/4/2
f 54/2/3 55/4/3 72/3/3 71/1/3
f 75/1/4 71/2/4 72/4/4 77/3/4
f 76/1/5 77/2/5 72/4/5 55/3/5
f 61/1/6 75/2/6 77/4/6 76/3/6
f 76/2/1 60/4/1 57/3/1 55/1/1
f 76/3/2 55/1/2 72/2/2 77/4/2
f 55/2/3 57/4/3 74/3/3 72/1/3
f 77/1/4 72/2/4 74/4/4 78/3/4
f 60/1/5 78/2/5 74/4/5 57/3/5
f 76/1/6 77/2/6 78/4/6 60/3/6
f 81/2/1 69/4/1 82/3/1 80/1/1
f 81/3/2 80/1/2 84/2/2 83/4/2
f 80/2/3 82/4/3 85/3/3 84/1/3
f 83/1/4 84/2/4 85/4/4 86/3/4
f 69/1/5 86/2/5 85/4/5 82/3/5
f 81/1/6 83/2/6 86/4/6 69/3/6
f 67/2/1 73/4/1 81/3/1 66/1/1
f 67/3/2 66/1/2 79/2/2 87/4/2
f 66/2/3 81/4/3 83/3/3 79/1/3
f 87/1/4 79/2/4 83/4/4 88/3/4
f 73/1/5 88/2/5 83/4/5 81/3/5
f 67/1/6 87/2/6 88/4/6 73/3/6
f 72/2/1 74/4/1 68/3/1 73/1/1
f 72/3/2 73/1/2 88/2/2 90/4/2
f 73/2/3 68/4/3 91/3/3 88/1/3
f 90/1/4 88/2/4 91/4/4 92/3/4
f 74/1/5 92/2/5 91/4/5 68/3/5
f 72/1/6 90/2/6 92/4/6 74/3/6
f 75/2/1 77/4/1 72/3/1 71/1/1
f 75/3/2 71/1/2 89/2/2 93/4/2
f 71/2/3 72/4/3 90/3/3 89/1/3
f 93/1/4 89/2/4 90/4/4 94/3/4
f 77/1/5 94/2/5 90/4/5 72/3/5
f 75/1/6 93/2/6 94/4/6 77/3/6
