mtllib lighthouse.mtl
usemtl andesite
v -12 4 -13
v -12 4 -12
v -12 5 -13
v -12 5 -12
v -12 5 -11
v -12 6 -12
v -12 6 -11
v -11 4 -14
v -11 4 -13
v -11 4 -12
v -11 5 -13
v -11 5 -12
v -11 6 -12
v -11 4 -11
v -11 5 -11
v -11 6 -11
v -10 4 -14
v -11 5 -14
v -10 5 -14
v -10 4 -13
v -10 5 -13
v -10 4 -12
v -10 5 -12
v -10 6 -12
v -10 4 -11
v -10 5 -11
v -10 6 -11
v -10 4 -10
v -10 5 -10
v -9 4 -12
v -9 5 -12
v -9 4 -11
v -9 5 -11
v -9 4 -10
v -9 5 -10
v -4 0 10
v -4 1 10
v -4 0 11
v -4 1 11
v -4 1 13
v -4 2 13
v -4 1 14
v -4 2 14
v -4 0 15
v -4 1 15
v -4 2 15
v -4 0 16
v -4 1 16
v -4 2 16
v -3 0 8
v -3 1 8
v -3 0 9
v -3 1 9
v -3 2 9
v -3 0 10
v -3 1 10
v -3 2 10
v -3 0 11
v -3 1 11
v -3 2 11
v -3 1 12
v -3 2 12
v -3 1 13
v -3 2 13
v -3 1 14
v -3 2 14
v -3 0 15
v -3 1 15
v -3 2 15
v -3 0 16
v -3 1 16
v -3 2 16
v -2 0 8
v -2 1 8
v -2 2 8
v -2 0 9
v -2 1 9
v -2 2 9
v -2 0 10
v -2 1 10
v -2 2 10
v -2 0 11
v -2 1 11
v -2 2 11
v -2 0 12
v -2 1 12
v -2 2 12
v -2 0 13
v -2 1 13
v -2 2 13
v -2 0 14
v -2 1 14
v -2 2 14
v -2 3 14
v -2 0 15
v -2 1 15
v -2 2 15
v -2 3 15
v -2 0 16
v -2 1 16
v -2 2 16
v -1 0 4
v -1 1 4
v -1 0 5
v -1 1 5
v -1 0 8
v -1 1 8
v -1 2 8
v -1 0 9
v -1 1 9
v -1 2 9
v -1 3 9
v -1 0 10
v -1 1 10
v -1 2 10
v -1 3 10
v -1 0 11
v -1 1 11
v -1 2 11
v -1 3 11
v -1 0 12
v -1 1 12
v -1 2 12
v -1 3 12
v -1 0 13
v -1 1 13
v -1 2 13
v -1 3 13
v -1 0 14
v -1 1 14
v -1 2 14
v -1 3 14
v -1 0 15
v -1 1 15
v -1 2 15
v -1 3 15
v -1 0 16
v -1 1 16
v -1 2 16
v 0 0 3
v 0 0 2
v 0 1 2
v 0 1 3
v 0 0 4
v 0 1 4
v 0 0 5
v 0 1 5
v 0 0 8
v 0 1 8
v 0 2 8
v 0 0 9
v 0 1 9
v 0 2 9
v 0 3 9
v 0 0 10
v 0 1 10
v 0 2 10
v 0 3 10
v 0 0 11
v 0 1 11
v 0 2 11
v 0 3 11
v 0 0 12
v 0 1 12
v 0 2 12
v 0 3 12
v 0 0 13
v 0 1 13
v 0 2 13
v 0 3 13
v 0 0 14
v 0 1 14
v 0 2 14
v 0 3 14
v 0 0 15
v 0 1 15
v 0 2 15
v 0 3 15
v 0 0 16
v 0 1 16
v 0 2 16
v 1 0 2
v 1 1 2
v 1 0 3
v 1 1 3
v 1 0 4
v 1 1 4
v 1 2 4
v 1 0 5
v 1 1 5
v 1 2 5
v 1 0 9
v 1 1 9
v 1 2 9
v 1 3 9
v 1 0 10
v 1 1 10
v 1 2 10
v 1 3 10
v 1 0 11
v 1 1 11
v 1 2 11
v 1 3 11
v 1 0 12
v 1 1 12
v 1 2 12
v 1 3 12
v 1 0 13
v 1 1 13
v 1 2 13
v 1 0 14
v 1 1 14
v 1 2 14
v 1 0 15
v 1 1 15
v 1 2 15
v 1 0 16
v 1 1 16
v 1 2 16
v 2 0 2
v 2 1 2
v 2 0 3
v 2 1 3
v 2 0 4
v 2 1 4
v 2 2 4
v 2 0 5
v 2 1 5
v 2 2 5
v 2 0 9
v 2 1 9
v 2 2 9
v 2 3 9
v 2 0 10
v 2 1 10
v 2 2 10
v 2 3 10
v 2 0 11
v 2 1 11
v 2 2 11
v 2 3 11
v 2 0 12
v 2 1 12
v 2 2 12
v 2 3 12
v 2 0 13
v 2 1 13
v 2 2 13
v 2 0 14
v 2 1 14
v 2 2 14
v 2 0 15
v 2 1 15
v 2 2 15
v 2 0 16
v 2 1 16
v 2 2 16
v 3 0 2
v 3 1 2
v 3 0 3
v 3 1 3
v 3 0 4
v 3 1 4
v 3 0 5
v 3 1 5
v 3 0 10
v 3 1 10
v 3 2 10
v 3 0 11
v 3 1 11
v 3 2 11
v 3 0 12
v 3 1 12
v 3 2 12
v 3 0 13
v 3 1 13
v 3 2 13
v 3 0 14
v 3 1 14
v 3 0 15
v 3 1 15
v 3 0 16
v 3 1 16
v 4 0 10
v 4 1 10
v 4 0 11
v 4 1 11
v 4 0 12
v 4 1 12
v 4 0 13
v 4 1 13
vt 0.000000000 0.000000000
vt 1.000000000 0.000000000
vt 0.000000000 1.000000000
vt 1.000000000 1.000000000
vn -1 0 0
vn 0 -1 0
vn 0 0 -1
vn 1 0 0
vn 0 1 0
vn 0 0 1
f 2/2/1 4/4/1 3/3/1 1/1/1
f 2/3/2 1/1/2 9/2/2 10/4/2
f 1/2/3 3/4/3 11/3/3 9/1/3
f 10/1/4 9/2/4 11/4/4 12/3/4
f 4/1/5 12/2/5 11/4/5 3/3/5
f 2/1/6 10/2/6 12/4/6 4/3/6
f 5/2/1 7/4/1 6/3/1 4/1/1
f 5/3/2 4/1/2 12/2/2 15/4/2
f 4/2/3 6/4/3 13/3/3 12/1/3
f 15/1/4 12/2/4 13/4/4 16/3/4
f 7/1/5 16/2/5 13/4/5 6/3/5
f 5/1/6 15/2/6 16/4/6 7/3/6
f 9/2/1 11/4/1 18/3/1 8/1/1
f 9/3/2 8/1/2 17/2/2 20/4/2
f 8/2/3 18/4/3 19/3/3 17/1/3
f 20/1/4 17/2/4 19/4/4 21/3/4
f 11/1/5 21/2/5 19/4/5 18/3/5
f 9/1/6 20/2/6 21/4/6 11/3/6
f 10/2/1 12/4/1 11/3/1 9/1/1
f 10/3/2 9/1/2 20/2/2 22/4/2
f 9/2/3 11/4/3 21/3/3 20/1/3
f 22/1/4 20/2/4 21/4/4 23/3/4
f 12/1/5 23/2/5 21/4/5 11/3/5
f 10/1/6 22/2/6 23/4/6 12/3/6
f 14/2/1 15/4/1 12/3/1 10/1/1
f 14/3/2 10/1/2 22/2/2 25/4/2
f 10/2/3 12/4/3 23/3/3 22/1/3
f 25/1/4 22/2/4 23/4/4 26/3/4
f 15/1/5 26/2/5 23/4/5 12/3/5
f 14/1/6 25/2/6 26/4/6 15/3/6
f 15/2/1 16/4/1 13/3/1 12/1/1
f 15/3/2 12/1/2 23/2/2 26/4/2
f 12/2/3 13/4/3 24/3/3 23/1/3
f 26/1/4 23/2/4 24/4/4 27/3/4
f 16/1/5 27/2/5 24/4/5 13/3/5
f 15/1/6 26/2/6 27/4/6 16/3/6
f 25/2/1 26/4/1 23/3/1 22/1/1
f 25/3/2 22/1/2 30/2/2 32/4/2
f 22/2/3 23/4/3 31/3/3 30/1/3
f 32/1/4 30/2/4 31/4/4 33/3/4
f 26/1/5 33/2/5 31/4/5 23/3/5
f 25/1/6 32/2/6 33/4/6 26/3/6
f 28/2/1 29/4/1 26/3/1 25/1/1
f 28/3/2 25/1/2 32/2/2 34/4/2
f 25/2/3 26/4/3 33/3/3 32/1/3
f 34/1/4 32/2/4 33/4/4 35/3/4
f 29/1/5 35/2/5 33/4/5 26/3/5
f 28/1/6 34/2/6 35/4/6 29/3/6
f 38/2/1 39/4/1 37/3/1 36/1/1
f 38/3/2 36/1/2 55/2/2 58/4/2
f 36/2/3 37/4/3 56/3/3 55/1/3
f 58/1/4 55/2/4 56/4/4 59/3/4
f 39/1/5 59/2/5 56/4/5 37/3/5
f 38/1/6 58/2/6 59/4/6 39/3/6
f 42/2/1 43/4/1 41/3/1 40/1/1
f 42/3/2 40/1/2 63/2/2 65/4/2
f 40/2/3 41/4/3 64/3/3 63/1/3
f 65/1/4 63/2/4 64/4/4 66/3/4
f 43/1/5 66/2/5 64/4/5 41/3/5
f 42/1/6 65/2/6 66/4/6 43/3/6
f 45/2/1 46/4/1 43/3/1 42/1/1
f 45/3/2 42/1/2 65/2/2 68/4/2
f 42/2/3 43/4/3 66/3/3 65/1/3
f 68/1/4 65/2/4 66/4/4 69/3/4
f 46/1/5 69/2/5 66/4/5 43/3/5
f 45/1/6 68/2/6 69/4/6 46/3/6
f 47/2/1 48/4/1 45/3/1 44/1/1
f 47/3/2 44/1/2 67/2/2 70/4/2
f 44/2/3 45/4/3 68/3/3 67/1/3
f 70/1/4 67/2/4 68/4/4 71/3/4
f 48/1/5 71/2/5 68/4/5 45/3/5
f 47/1/6 70/2/6 71/4/6 48/3/6
f 48/2/1 49/4/1 46/3/1 45/1/1
f 48/3/2 45/1/2 68/2/2 71/4/2
f 45/2/3 46/4/3 69/3/3 68/1/3
f 71/1/4 68/2/4 69/4/4 72/3/4
f 49/1/5 72/2/5 69/4/5 46/3/5
f 48/1/6 71/2/6 72/4/6 49/3/6
f 52/2/1 53/4/1 51/3/1 50/1/1
f 52/3/2 50/1/2 73/2/2 76/4/2
f 50/2/3 51/4/3 74/3/3 73/1/3
f 76/1/4 73/2/4 74/4/4 77/3/4
f 53/1/5 77/2/5 74/4/5 51/3/5
f 52/1/6 76/2/6 77/4/6 53/3/6
f 55/2/1 56/4/1 53/3/1 52/1/1
f 55/3/2 52/1/2 76/2/2 79/4/2
f 52/2/3 53/4/3 77/3/3 76/1/3
f 79/1/4 76/2/4 77/4/4 80/3/4
f 56/1/5 80/2/5 77/4/5 53/3/5
f 55/1/6 79/2/6 80/4/6 56/3/6
f 56/2/1 57/4/1 54/3/1 53/1/1
f 56/3/2 53/1/2 77/2/2 80/4/2
f 53/2/3 54/4/3 78/3/3 77/1/3
f 80/1/4 77/2/4 78/4/4 81/3/4
f 57/1/5 81/2/5 78/4/5 54/3/5
f 56/1/6 80/2/6 81/4/6 57/3/6
f 58/2/1 59/4/1 56/3/1 55/1/1
f 58/3/2 55/1/2 79/2/2 82/4/2
f 55/2/3 56/4/3 80/3/3 79/1/3
f 82/1/4 79/2/4 80/4/4 83/3/4
f 59/1/5 83/2/5 80/4/5 56/3/5
f 58/1/6 82/2/6 83/4/6 59/3/6
f 59/2/1 60/4/1 57/3/1 56/1/1
f 59/3/2 56/1/2 80/2/2 83/4/2
f 56/2/3 57/4/3 81/3/3 80/1/3
f 83/1/4 80/2/4 81/4/4 84/3/4
f 60/1/5 84/2/5 81/4/5 57/3/5
f 59/1/6 83/2/6 84/4/6 60/3/6
f 61/2/1 62/4/1 60/3/1 59/1/1
f 61/3/2 59/1/2 83/2/2 86/4/2
f 59/2/3 60/4/3 84/3/3 83/1/3
f 86/1/4 83/2/4 84/4/4 87/3/4
f 62/1/5 87/2/5 84/4/5 60/3/5
f 61/1/6 86/2/6 87/4/6 62/3/6
f 63/2/1 64/4/1 62/3/1 61/1/1
f 63/3/2 61/1/2 86/2/2 89/4/2
f 61/2/3 62/4/3 87/3/3 86/1/3
f 89/1/4 86/2/4 87/4/4 90/3/4
f 64/1/5 90/2/5 87/4/5 62/3/5
f 63/1/6 89/2/6 90/4/6 64/3/6
f 65/2/1 66/4/1 64/3/1 63/1/1
f 65/3/2 63/1/2 89/2/2 92/4/2
f 63/2/3 64/4/3 90/3/3 89/1/3
f 92/1/4 89/2/4 90/4/4 93/3/4
f 66/1/5 93/2/5 90/4/5 64/3/5
f 65/1/6 92/2/6 93/4/6 66/3/6
f 68/2/1 69/4/1 66/3/1 65/1/1
f 68/3/2 65/1/2 92/2/2 96/4/2
f 65/2/3 66/4/3 93/3/3 92/1/3
f 96/1/4 92/2/4 93/4/4 97/3/4
f 69/1/5 97/2/5 93/4/5 66/3/5
f 68/1/6 96/2/6 97/4/6 69/3/6
f 70/2/1 71/4/1 68/3/1 67/1/1
f 70/3/2 67/1/2 95/2/2 99/4/2
f 67/2/3 68/4/3 96/3/3 95/1/3
f 99/1/4 95/2/4 96/4/4 100/3/4
f 71/1/5 100/2/5 96/4/5 68/3/5
f 70/1/6 99/2/6 100/4/6 71/3/6
f 71/2/1 72/4/1 69/3/1 68/1/1
f 71/3/2 68/1/2 96/2/2 100/4/2
f 68/2/3 69/4/3 97/3/3 96/1/3
f 100/1/4 96/2/4 97/4/4 101/3/4
f 72/1/5 101/2/5 97/4/5 69/3/5
f 71/1/6 100/2/6 101/4/6 72/3/6
f 76/2/1 77/4/1 74/3/1 73/1/1
f 76/3/2 73/1/2 106/2/2 109/4/2
f 73/2/3 74/4/3 107/3/3 106/1/3
f 109/1/4 106/2/4 107/4/4 110/3/4
f 77/1/5 110/2/5 107/4/5 74/3/5
f 76/1/6 109/2/6 110/4/6 77/3/6
f 77/2/1 78/4/1 75/3/1 74/1/1
f 77/3/2 74/1/2 107/2/2 110/4/2
f 74/2/3 75/4/3 108/3/3 107/1/3
f 110/1/4 107/2/4 108/4/4 111/3/4
f 78/1/5 111/2/5 108/4/5 75/3/5
f 77/1/6 110/2/6 111/4/6 78/3/6
f 79/2/1 80/4/1 77/3/1 76/1/1
f 79/3/2 76/1/2 109/2/2 113/4/2
f 76/2/3 77/4/3 110/3/3 109/1/3
f 113/1/4 109/2/4 110/4/4 114/3/4
f 80/1/5 114/2/5 110/4/5 77/3/5
f 79/1/6 113/2/6 114/4/6 80/3/6
f 80/2/1 81/4/1 78/3/1 77/1/1
f 80/3/2 77/1/2 110/2/2 114/4/2
f 77/2/3 78/4/3 111/3/3 110/1/3
f 114/1/4 110/2/4 111/4/4 115/3/4
f 81/1/5 115/2/5 111/4/5 78/3/5
f 80/1/6 114/2/6 115/4/6 81/3/6
f 82/2/1 83/4/1 80/3/1 79/1/1
f 82/3/2 79/1/2 113/2/2 117/4/2
f 79/2/3 80/4/3 114/3/3 113/1/3
f 117/1/4 113/2/4 114/4/4 118/3/4
f 83/1/5 118/2/5 114/4/5 80/3/5
f 82/1/6 117/2/6 118/4/6 83/3/6
f 83/2/1 84/4/1 81/3/1 80/1/1
f 83/3/2 80/1/2 114/2/2 118/4/2
f 80/2/3 81/4/3 115/3/3 114/1/3
f 118/1/4 114/2/4 115/4/4 119/3/4
f 84/1/5 119/2/5 115/4/5 81/3/5
f 83/1/6 118/2/6 119/4/6 84/3/6
f 85/2/1 86/4/1 83/3/1 82/1/1
f 85/3/2 82/1/2 117/2/2 121/4/2
f 82/2/3 83/4/3 118/3/3 117/1/3
f 121/1/4 117/2/4 118/4/4 122/3/4
f 86/1/5 122/2/5 118/4/5 83/3/5
f 85/1/6 121/2/6 122/4/6 86/3/6
f 86/2/1 87/4/1 84/3/1 83/1/1
f 86/3/2 83/1/2 118/2/2 122/4/2
f 83/2/3 84/4/3 119/3/3 118/1/3
f 122/1/4 118/2/4 119/4/4 123/3/4
f 87/1/5 123/2/5 119/4/5 84/3/5
f 86/1/6 122/2/6 123/4/6 87/3/6
f 88/2/1 89/4/1 86/3/1 85/1/1
f 88/3/2 85/1/2 121/2/2 125/4/2
f 85/2/3 86/4/3 122/3/3 121/1/3
f 125/1/4 121/2/4 122/4/4 126/3/4
f 89/1/5 126/2/5 122/4/5 86/3/5
f 88/1/6 125/2/6 126/4/6 89/3/6
f 89/2/1 90/4/1 87/3/1 86/1/1
f 89/3/2 86/1/2 122/2/2 126/4/2
f 86/2/3 87/4/3 123/3/3 122/1/3
f 126/1/4 122/2/4 123/4/4 127/3/4
f 90/1/5 127/2/5 123/4/5 87/3/5
f 89/1/6 126/2/6 127/4/6 90/3/6
f 91/2/1 92/4/1 89/3/1 88/1/1
f 91/3/2 88/1/2 125/2/2 129/4/2
f 88/2/3 89/4/3 126/3/3 125/1/3
f 129/1/4 125/2/4 126/4/4 130/3/4
f 92/1/5 130/2/5 126/4/5 89/3/5
f 91/1/6 129/2/6 130/4/6 92/3/6
f 92/2/1 93/4/1 90/3/1 89/1/1
f 92/3/2 89/1/2 126/2/2 130/4/2
f 89/2/3 90/4/3 127/3/3 126/1/3
f 130/1/4 126/2/4 127/4/4 131/3/4
f 93/1/5 131/2/5 127/4/5 90/3/5
f 92/1/6 130/2/6 131/4/6 93/3/6
f 95/2/1 96/4/1 92/3/1 91/1/1
f 95/3/2 91/1/2 129/2/2 133/4/2
f 91/2/3 92/4/3 130/3/3 129/1/3
f 133/1/4 129/2/4 130/4/4 134/3/4
f 96/1/5 134/2/5 130/4/5 92/3/5
f 95/1/6 133/2/6 134/4/6 96/3/6
f 96/2/1 97/4/1 93/3/1 92/1/1
f 96/3/2 92/1/2 130/2/2 134/4/2
f 92/2/3 93/4/3 131/3/3 130/1/3
f 134/1/4 130/2/4 131/4/4 135/3/4
f 97/1/5 135/2/5 131/4/5 93/3/5
f 96/1/6 134/2/6 135/4/6 97/3/6
f 97/2/1 98/4/1 94/3/1 93/1/1
f 97/3/2 93/1/2 131/2/2 135/4/2
f 93/2/3 94/4/3 132/3/3 131/1/3
f 135/1/4 131/2/4 132/4/4 136/3/4
f 98/1/5 136/2/5 132/4/5 94/3/5
f 97/1/6 135/2/6 136/4/6 98/3/6
f 99/2/1 100/4/1 96/3/1 95/1/1
f 99/3/2 95/1/2 133/2/2 137/4/2
f 95/2/3 96/4/3 134/3/3 133/1/3
f 137/1/4 133/2/4 134/4/4 138/3/4
f 100/1/5 138/2/5 134/4/5 96/3/5
f 99/1/6 137/2/6 138/4/6 100/3/6
f 100/2/1 101/4/1 97/3/1 96/1/1
f 100/3/2 96/1/2 134/2/2 138/4/2
f 96/2/3 97/4/3 135/3/3 134/1/3
f 138/1/4 134/2/4 135/4/4 139/3/4
f 101/1/5 139/2/5 135/4/5 97/3/5
f 100/1/6 138/2/6 139/4/6 101/3/6
f 104/2/1 105/4/1 103/3/1 102/1/1
f 104/3/2 102/1/2 144/2/2 146/4/2
f 102/2/3 103/4/3 145/3/3 144/1/3
f 146/1/4 144/2/4 145/4/4 147/3/4
f 105/1/5 147/2/5 145/4/5 103/3/5
f 104/1/6 146/2/6 147/4/6 105/3/6
f 109/2/1 110/4/1 107/3/1 106/1/1
f 109/3/2 106/1/2 148/2/2 151/4/2
f 106/2/3 107/4/3 149/3/3 148/1/3
f 151/1/4 148/2/4 149/4/4 152/3/4
f 110/1/5 152/2/5 149/4/5 107/3/5
f 109/1/6 151/2/6 152/4/6 110/3/6
f 110/2/1 111/4/1 108/3/1 107/1/1
f 110/3/2 107/1/2 149/2/2 152/4/2
f 107/2/3 108/4/3 150/3/3 149/1/3
f 152/1/4 149/2/4 150/4/4 153/3/4
f 111/1/5 153/2/5 150/4/5 108/3/5
f 110/1/6 152/2/6 153/4/6 111/3/6
f 113/2/1 114/4/1 110/3/1 109/1/1
f 113/3/2 109/1/2 151/2/2 155/4/2
f 109/2/3 110/4/3 152/3/3 151/1/3
f 155/1/4 151/2/4 152/4/4 156/3/4
f 114/1/5 156/2/5 152/4/5 110/3/5
f 113/1/6 155/2/6 156/4/6 114/3/6
f 114/2/1 115/4/1 111/3/1 110/1/1
f 114/3/2 110/1/2 152/2/2 156/4/2
f 110/2/3 111/4/3 153/3/3 152/1/3
f 156/1/4 152/2/4 153/4/4 157/3/4
f 115/1/5 157/2/5 153/4/5 111/3/5
f 114/1/6 156/2/6 157/4/6 115/3/6
f 115/2/1 116/4/1 112/3/1 111/1/1
f 115/3/2 111/1/2 153/2/2 157/4/2
f 111/2/3 112/4/3 154/3/3 153/1/3
f 157/1/4 153/2/4 154/4/4 158/3/4
f 116/1/5 158/2/5 154/4/5 112/3/5
f 115/1/6 157/2/6 158/4/6 116/3/6
f 117/2/1 118/4/1 114/3/1 113/1/1
f 117/3/2 113/1/2 155/2/2 159/4/2
f 113/2/3 114/4/3 156/3/3 155/1/3
f 159/1/4 155/2/4 156/4/4 160/3/4
f 118/1/5 160/2/5 156/4/5 114/3/5
f 117/1/6 159/2/6 160/4/6 118/3/6
f 118/2/1 119/4/1 115/3/1 114/1/1
f 118/3/2 114/1/2 156/2/2 160/4/2
f 114/2/3 115/4/3 157/3/3 156/1/3
f 160/1/4 156/2/4 157/4/4 161/3/4
f 119/1/5 161/2/5 157/4/5 115/3/5
f 118/1/6 160/2/6 161/4/6 119/3/6
f 119/2/1 120/4/1 116/3/1 115/1/1
f 119/3/2 115/1/2 157/2/2 161/4/2
f 115/2/3 116/4/3 158/3/3 157/1/3
f 161/1/4 157/2/4 158/4/4 162/3/4
f 120/1/5 162/2/5 158/4/5 116/3/5
f 119/1/6 161/2/6 162/4/6 120/3/6
f 121/2/1 122/4/1 118/3/1 117/1/1
f 121/3/2 117/1/2 159/2/2 163/4/2
f 117/2/3 118/4/3 160/3/3 159/1/3
f 163/1/4 159/2/4 160/4/4 164/3/4
f 122/1/5 164/2/5 160/4/5 118/3/5
f 121/1/6 163/2/6 164/4/6 122/3/6
f 122/2/1 123/4/1 119/3/1 118/1/1
f 122/3/2 118/1/2 160/2/2 164/4/2
f 118/2/3 119/4/3 161/3/3 160/1/3
f 164/1/4 160/2/4 161/4/4 165/3/4
f 123/1/5 165/2/5 161/4/5 119/3/5
f 122/1/6 164/2/6 165/4/6 123/3/6
f 123/2/1 124/4/1 120/3/1 119/1/1
f 123/3/2 119/1/2 161/2/2 165/4/2
f 119/2/3 120/4/3 162/3/3 161/1/3
f 165/1/4 161/2/4 162/4/4 166/3/4
f 124/1/5 166/2/5 162/4/5 120/3/5
f 123/1/6 165/2/6 166/4/6 124/3/6
f 125/2/1 126/4/1 122/3/1 121/1/1
f 125/3/2 121/1/2 163/2/2 167/4/2
f 121/2/3 122/4/3 164/3/3 163/1/3
f 167/1/4 163/2/4 164/4/4 168/3/4
f 126/1/5 168/2/5 164/4/5 122/3/5
f 125/1/6 167/2/6 168/4/6 126/3/6
f 126/2/1 127/4/1 123/3/1 122/1/1
f 126/3/2 122/1/2 164/2/2 168/4/2
f 122/2/3 123/4/3 165/3/3 164/1/3
f 168/1/4 164/2/4 165/4/4 169/3/4
f 127/1/5 169/2/5 165/4/5 123/3/5
f 126/1/6 168/2/6 169/4/6 127/3/6
f 127/2/1 128/4/1 124/3/1 123/1/1
f 127/3/2 123/1/2 165/2/2 169/4/2
f 123/2/3 124/4/3 166/3/3 165/1/3
f 169/1/4 165/2/4 166/4/4 170/3/4
f 128/1/5 170/2/5 166/4/5 124/3/5
f 127/1/6 169/2/6 170/4/6 128/3/6
f 129/2/1 130/4/1 126/3/1 125/1/1
f 129/3/2 125/1/2 167/2/2 171/4/2
f 125/2/3 126/4/3 168/3/3 167/1/3
f 171/1/4 167/2/4 168/4/4 172/3/4
f 130/1/5 172/2/5 168/4/5 126/3/5
f 129/1/6 171/2/6 172/4/6 130/3/6
f 130/2/1 131/4/1 127/3/1 126/1/1
f 130/3/2 126/1/2 168/2/2 172/4/2
f 126/2/3 127/4/3 169/3/3 168/1/3
f 172/1/4 168/2/4 169/4/4 173/3/4
f 131/1/5 173/2/5 169/4/5 127/3/5
f 130/1/6 172/2/6 173/4/6 131/3/6
f 133/2/1 134/4/1 130/3/1 129/1/1
f 133/3/2 129/1/2 171/2/2 175/4/2
f 129/2/3 130/4/3 172/3/3 171/1/3
f 175/1/4 171/2/4 172/4/4 176/3/4
f 134/1/5 176/2/5 172/4/5 130/3/5
f 133/1/6 175/2/6 176/4/6 134/3/6
f 134/2/1 135/4/1 131/3/1 130/1/1
f 134/3/2 130/1/2 172/2/2 176/4/2
f 130/2/3 131/4/3 173/3/3 172/1/3
f 176/1/4 172/2/4 173/4/4 177/3/4
f 135/1/5 177/2/5 173/4/5 131/3/5
f 134/1/6 176/2/6 177/4/6 135/3/6
f 135/2/1 136/4/1 132/3/1 131/1/1
f 135/3/2 131/1/2 173/2/2 177/4/2
f 131/2/3 132/4/3 174/3/3 173/1/3
f 177/1/4 173/2/4 174/4/4 178/3/4
f 136/1/5 178/2/5 174/4/5 132/3/5
f 135/1/6 177/2/6 178/4/6 136/3/6
f 137/2/1 138/4/1 134/3/1 133/1/1
f 137/3/2 133/1/2 175/2/2 179/4/2
f 133/2/3 134/4/3 176/3/3 175/1/3
f 179/1/4 175/2/4 176/4/4 180/3/4
f 138/1/5 180/2/5 176/4/5 134/3/5
f 137/1/6 179/2/6 180/4/6 138/3/6
f 138/2/1 139/4/1 135/3/1 134/1/1
f 138/3/2 134/1/2 176/2/2 180/4/2
f 134/2/3 135/4/3 177/3/3 176/1/3
f 180/1/4 176/2/4 177/4/4 181/3/4
f 139/1/5 181/2/5 177/4/5 135/3/5
f 138/1/6 180/2/6 181/4/6 139/3/6
f 140/2/1 143/4/1 142/3/1 141/1/1
f 140/3/2 141/1/2 182/2/2 184/4/2
f 141/2/3 142/4/3 183/3/3 182/1/3
f 184/1/4 182/2/4 183/4/4 185/3/4
f 143/1/5 185/2/5 183/4/5 142/3/5
f 140/1/6 184/2/6 185/4/6 143/3/6
f 144/2/1 145/4/1 143/3/1 140/1/1
f 144/3/2 140/1/2 184/2/2 186/4/2
f 140/2/3 143/4/3 185/3/3 184/1/3
f 186/1/4 184/2/4 185/4/4 187/3/4
f 145/1/5 187/2/5 185/4/5 143/3/5
f 144/1/6 186/2/6 187/4/6 145/3/6
f 146/2/1 147/4/1 145/3/1 144/1/1
f 146/3/2 144/1/2 186/2/2 189/4/2
f 144/2/3 145/4/3 187/3/3 186/1/3
f 189/1/4 186/2/4 187/4/4 190/3/4
f 147/1/5 190/2/5 187/4/5 145/3/5
f 146/1/6 189/2/6 190/4/6 147/3/6
f 155/2/1 156/4/1 152/3/1 151/1/1
f 155/3/2 151/1/2 192/2/2 196/4/2
f 151/2/3 152/4/3 193/3/3 192/1/3
f 196/1/4 192/2/4 193/4/4 197/3/4
f 156/1/5 197/2/5 193/4/5 152/3/5
f 155/1/6 196/2/6 197/4/6 156/3/6
f 156/2/1 157/4/1 153/3/1 152/1/1
f 156/3/2 152/1/2 193/2/2 197/4/2
f 152/2/3 153/4/3 194/3/3 193/1/3
f 197/1/4 193/2/4 194/4/4 198/3/4
f 157/1/5 198/2/5 194/4/5 153/3/5
f 156/1/6 197/2/6 198/4/6 157/3/6
f 157/2/1 158/4/1 154/3/1 153/1/1
f 157/3/2 153/1/2 194/2/2 198/4/2
f 153/2/3 154/4/3 195/3/3 194/1/3
f 198/1/4 194/2/4 195/4/4 199/3/4
f 158/1/5 199/2/5 195/4/5 154/3/5
f 157/1/6 198/2/6 199/4/6 158/3/6
f 159/2/1 160/4/1 156/3/1 155/1/1
f 159/3/2 155/1/2 196/2/2 200/4/2
f 155/2/3 156/4/3 197/3/3 196/1/3
f 200/1/4 196/2/4 197/4/4 201/3/4
f 160/1/5 201/2/5 197/4/5 156/3/5
f 159/1/6 200/2/6 201/4/6 160/3/6
f 160/2/1 161/4/1 157/3/1 156/1/1
f 160/3/2 156/1/2 197/2/2 201/4/2
f 156/2/3 157/4/3 198/3/3 197/1/3
f 201/1/4 197/2/4 198/4/4 202/3/4
f 161/1/5 202/2/5 198/4/5 157/3/5
f 160/1/6 201/2/6 202/4/6 161/3/6
f 161/2/1 162/4/1 158/3/1 157/1/1
f 161/3/2 157/1/2 198/2/2 202/4/2
f 157/2/3 158/4/3 199/3/3 198/1/3
f 202/1/4 198/2/4 199/4/4 203/3/4
f 162/1/5 203/2/5 199/4/5 158/3/5
f 161/1/6 202/2/6 203/4/6 162/3/6
f 163/2/1 164/4/1 160/3/1 159/1/1
f 163/3/2 159/1/2 200/2/2 204/4/2
f 159/2/3 160/4/3 201/3/3 200/1/3
f 204/1/4 200/2/4 201/4/4 205/3/4
f 164/1/5 205/2/5 201/4/5 160/3/5
f 163/1/6 204/2/6 205/4/6 164/3/6
f 164/2/1 165/4/1 161/3/1 160/1/1
f 164/3/2 160/1/2 201/2/2 205/4/2
f 160/2/3 161/4/3 202/3/3 201/1/3
f 205/1/4 201/2/4 202/4/4 206/3/4
f 165/1/5 206/2/5 202/4/5 161/3/5
f 164/1/6 205/2/6 206/4/6 165/3/6
f 165/2/1 166/4/1 162/3/1 161/1/1
f 165/3/2 161/1/2 202/2/2 206/4/2
f 161/2/3 162/4/3 203/3/3 202/1/3
f 206/1/4 202/2/4 203/4/4 207/3/4
f 166/1/5 207/2/5 203/4/5 162/3/5
f 165/1/6 206/2/6 207/4/6 166/3/6
f 167/2/1 168/4/1 164/3/1 163/1/1
f 167/3/2 163/1/2 204/2/2 208/4/2
f 163/2/3 164/4/3 205/3/3 204/1/3
f 208/1/4 204/2/4 205/4/4 209/3/4
f 168/1/5 209/2/5 205/4/5 164/3/5
f 167/1/6 208/2/6 209/4/6 168/3/6
f 168/2/1 169/4/1 165/3/1 164/1/1
f 168/3/2 164/1/2 205/2/2 209/4/2
f 164/2/3 165/4/3 206/3/3 205/1/3
f 209/1/4 205/2/4 206/4/4 210/3/4
f 169/1/5 210/2/5 206/4/5 165/3/5
f 168/1/6 209/2/6 210/4/6 169/3/6
f 171/2/1 172/4/1 168/3/1 167/1/1
f 171/3/2 167/1/2 208/2/2 211/4/2
f 167/2/3 168/4/3 209/3/3 208/1/3
f 211/1/4 208/2/4 209/4/4 212/3/4
f 172/1/5 212/2/5 209/4/5 168/3/5
f 171/1/6 211/2/6 212/4/6 172/3/6
f 172/2/1 173/4/1 169/3/1 168/1/1
f 172/3/2 168/1/2 209/2/2 212/4/2
f 168/2/3 169/4/3 210/3/3 209/1/3
f 212/1/4 209/2/4 210/4/4 213/3/4
f 173/1/5 213/2/5 210/4/5 169/3/5
f 172/1/6 212/2/6 213/4/6 173/3/6
f 175/2/1 176/4/1 172/3/1 171/1/1
f 175/3/2 171/1/2 211/2/2 214/4/2
f 171/2/3 172/4/3 212/3/3 211/1/3
f 214/1/4 211/2/4 212/4/4 215/3/4
f 176/1/5 215/2/5 212/4/5 172/3/5
f 175/1/6 214/2/6 215/4/6 176/3/6
f 176/2/1 177/4/1 173/3/1 172/1/1
f 176/3/2 172/1/2 212/2/2 215/4/2
f 172/2/3 173/4/3 213/3/3 212/1/3
f 215/1/4 212/2/4 213/4/4 216/3/4
f 177/1/5 216/2/5 213/4/5 173/3/5
f 176/1/6 215/2/6 216/4/6 177/3/6
f 179/2/1 180/4/1 176/3/1 175/1/1
f 179/3/2 175/1/2 214/2/2 217/4/2
f 175/2/3 176/4/3 215/3/3 214/1/3
f 217/1/4 214/2/4 215/4/4 218/3/4
f 180/1/5 218/2/5 215/4/5 176/3/5
f 179/1/6 217/2/6 218/4/6 180/3/6
f 180/2/1 181/4/1 177/3/1 176/1/1
f 180/3/2 176/1/2 215/2/2 218/4/2
f 176/2/3 177/4/3 216/3/3 215/1/3
f 218/1/4 215/2/4 216/4/4 219/3/4
f 181/1/5 219/2/5 216/4/5 177/3/5
f 180/1/6 218/2/6 219/4/6 181/3/6
f 184/2/1 185/4/1 183/3/1 182/1/1
f 184/3/2 182/1/2 220/2/2 222/4/2
f 182/2/3 183/4/3 221/3/3 220/1/3
f 222/1/4 220/2/4 221/4/4 223/3/4
f 185/1/5 223/2/5 221/4/5 183/3/5
f 184/1/6 222/2/6 223/4/6 185/3/6
f 186/2/1 187/4/1 185/3/1 184/1/1
f 186/3/2 184/1/2 222/2/2 224/4/2
f 184/2/3 185/4/3 223/3/3 222/1/3
f 224/1/4 222/2/4 223/4/4 225/3/4
f 187/1/5 225/2/5 223/4/5 185/3/5
f 186/1/6 224/2/6 225/4/6 187/3/6
f 189/2/1 190/4/1 187/3/1 186/1/1
f 189/3/2 186/1/2 224/2/2 227/4/2
f 186/2/3 187/4/3 225/3/3 224/1/3
f 227/1/4 224/2/4 225/4/4 228/3/4
f 190/1/5 228/2/5 225/4/5 187/3/5
f 189/1/6 227/2/6 228/4/6 190/3/6
f 190/2/1 191/4/1 188/3/1 187/1/1
f 190/3/2 187/1/2 225/2/2 228/4/2
f 187/2/3 188/4/3 226/3/3 225/1/3
f 228/1/4 225/2/4 226/4/4 229/3/4
f 191/1/5 229/2/5 226/4/5 188/3/5
f 190/1/6 228/2/6 229/4/6 191/3/6
f 196/2/1 197/4/1 193/3/1 192/1/1
f 196/3/2 192/1/2 230/2/2 234/4/2
f 192/2/3 193/4/3 231/3/3 230/1/3
f 234/1/4 230/2/4 231/4/4 235/3/4
f 197/1/5 235/2/5 231/4/5 193/3/5
f 196/1/6 234/2/6 235/4/6 197/3/6
f 197/2/1 198/4/1 194/3/1 193/1/1
f 197/3/2 193/1/2 231/2/2 235/4/2
f 193/2/3 194/4/3 232/3/3 231/1/3
f 235/1/4 231/2/4 232/4/4 236/3/4
f 198/1/5 236/2/5 232/4/5 194/3/5
f 197/1/6 235/2/6 236/4/6 198/3/6
f 198/2/1 199/4/1 195/3/1 194/1/1
f 198/3/2 194/1/2 232/2/2 236/4/2
f 194/2/3 195/4/3 233/3/3 232/1/3
f 236/1/4 232/2/4 233/4/4 237/3/4
f 199/1/5 237/2/5 233/4/5 195/3/5
f 198/1/6 236/2/6 237/4/6 199/3/6
f 200/2/1 201/4/1 197/3/1 196/1/1
f 200/3/2 196/1/2 234/2/2 238/4/2
f 196/2/3 197/4/3 235/3/3 234/1/3
f 238/1/4 234/2/4 235/4/4 239/3/4
f 201/1/5 239/2/5 235/4/5 197/3/5
f 200/1/6 238/2/6 239/4/6 201/3/6
f 201/2/1 202/4/1 198/3/1 197/1/1
f 201/3/2 197/1/2 235/2/2 239/4/2
f 197/2/3 198/4/3 236/3/3 235/1/3
f 239/1/4 235/2/4 236/4/4 240/3/4
f 202/1/5 240/2/5 236/4/5 198/3/5
f 201/1/6 239/2/6 240/4/6 202/3/6
f 202/2/1 203/4/1 199/3/1 198/1/1
f 202/3/2 198/1/2 236/2/2 240/4/2
f 198/2/3 199/4/3 237/3/3 236/1/3
f 240/1/4 236/2/4 237/4/4 241/3/4
f 203/1/5 241/2/5 237/4/5 199/3/5
f 202/1/6 240/2/6 241/4/6 203/3/6
f 204/2/1 205/4/1 201/3/1 200/1/1
f 204/3/2 200/1/2 238/2/2 242/4/2
f 200/2/3 201/4/3 239/3/3 238/1/3
f 242/1/4 238/2/4 239/4/4 243/3/4
f 205/1/5 243/2/5 239/4/5 201/3/5
f 204/1/6 242/2/6 243/4/6 205/3/6
f 205/2/1 206/4/1 202/3/1 201/1/1
f 205/3/2 201/1/2 239/2/2 243/4/2
f 201/2/3 202/4/3 240/3/3 239/1/3
f 243/1/4 239/2/4 240/4/4 244/3/4
f 206/1/5 244/2/5 240/4/5 202/3/5
f 205/1/6 243/2/6 244/4/6 206/3/6
f 206/2/1 207/4/1 203/3/1 202/1/1
f 206/3/2 202/1/2 240/2/2 244/4/2
f 202/2/3 203/4/3 241/3/3 240/1/3
f 244/1/4 240/2/4 241/4/4 245/3/4
f 207/1/5 245/2/5 241/4/5 203/3/5
f 206/1/6 244/2/6 245/4/6 207/3/6
f 208/2/1 209/4/1 205/3/1 204/1/1
f 208/3/2 204/1/2 242/2/2 246/4/2
f 204/2/3 205/4/3 243/3/3 242/1/3
f 246/1/4 242/2/4 243/4/4 247/3/4
f 209/1/5 247/2/5 243/4/5 205/3/5
f 208/1/6 246/2/6 247/4/6 209/3/6
f 209/2/1 210/4/1 206/3/1 205/1/1
f 209/3/2 205/1/2 243/2/2 247/4/2
f 205/2/3 206/4/3 244/3/3 243/1/3
f 247/1/4 243/2/4 244/4/4 248/3/4
f 210/1/5 248/2/5 244/4/5 206/3/5
f 209/1/6 247/2/6 248/4/6 210/3/6
f 211/2/1 212/4/1 209/3/1 208/1/1
f 211/3/2 208/1/2 246/2/2 249/4/2
f 208/2/3 209/4/3 247/3/3 246/1/3
f 249/1/4 246/2/4 247/4/4 250/3/4
f 212/1/5 250/2/5 247/4/5 209/3/5
f 211/1/6 249/2/6 250/4/6 212/3/6
f 212/2/1 213/4/1 210/3/1 209/1/1
f 212/3/2 209/1/2 247/2/2 250/4/2
f 209/2/3 210/4/3 248/3/3 247/1/3
f 250/1/4 247/2/4 248/4/4 251/3/4
f 213/1/5 251/2/5 248/4/5 210/3/5
f 212/1/6 250/2/6 251/4/6 213/3/6
f 214/2/1 215/4/1 212/3/1 211/1/1
f 214/3/2 211/1/2 249/2/2 252/4/2
f 211/2/3 212/4/3 250/3/3 249/1/3
f 252/1/4 249/2/4 250/4/4 253/3/4
f 215/1/5 253/2/5 250/4/5 212/3/5
f 214/1/6 252/2/6 253/4/6 215/3/6
f 215/2/1 216/4/1 213/3/1 212/1/1
f 215/3/2 212/1/2 250/2/2 253/4/2
f 212/2/3 213/4/3 251/3/3 250/1/3
f 253/1/4 250/2/4 251/4/4 254/3/4
f 216/1/5 254/2/5 251/4/5 213/3/5
f 215/1/6 253/2/6 254/4/6 216/3/6
f 217/2/1 218/4/1 215/3/1 214/1/1
f 217/3/2 214/1/2 252/2/2 255/4/2
f 214/2/3 215/4/3 253/3/3 252/1/3
f 255/1/4 252/2/4 253/4/4 256/3/4
f 218/1/5 256/2/5 253/4/5 215/3/5
f 217/1/6 255/2/6 256/4/6 218/3/6
f 218/2/1 219/4/1 216/3/1 215/1/1
f 218/3/2 215/1/2 253/2/2 256/4/2
f 215/2/3 216/4/3 254/3/3 253/1/3
f 256/1/4 253/2/4 254/4/4 257/3/4
f 219/1/5 257/2/5 254/4/5 216/3/5
f 218/1/6 256/2/6 257/4/6 219/3/6
f 222/2/1 223/4/1 221/3/1 220/1/1
f 222/3/2 220/1/2 258/2/2 260/4/2
f 220/2/3 221/4/3 259/3/3 258/1/3
f 260/1/4 258/2/4 259/4/4 261/3/4
f 223/1/5 261/2/5 259/4/5 221/3/5
f 222/1/6 260/2/6 261/4/6 223/3/6
f 224/2/1 225/4/1 223/3/1 222/1/1
f 224/3/2 222/1/2 260/2/2 262/4/2
f 222/2/3 223/4/3 261/3/3 260/1/3
f 262/1/4 260/2/4 261/4/4 263/3/4
f 225/1/5 263/2/5 261/4/5 223/3/5
f 224/1/6 262/2/6 263/4/6 225/3/6
f 227/2/1 228/4/1 225/3/1 224/1/1
f 227/3/2 224/1/2 262/2/2 264/4/2
f 224/2/3 225/4/3 263/3/3 262/1/3
f 264/1/4 262/2/4 263/4/4 265/3/4
f 228/1/5 265/2/5 263/4/5 225/3/5
f 227/1/6 264/2/6 265/4/6 228/3/6
f 238/2/1 239/4/1 235/3/1 234/1/1
f 238/3/2 234/1/2 266/2/2 269/4/2
f 234/2/3 235/4/3 267/3/3 266/1/3
f 269/1/4 266/2/4 267/4/4 270/3/4
f 239/1/5 270/2/5 267/4/5 235/3/5
f 238/1/6 269/2/6 270/4/6 239/3/6
f 239/2/1 240/4/1 236/3/1 235/1/1
f 239/3/2 235/1/2 267/2/2 270/4/2
f 235/2/3 236/4/3 268/3/3 267/1/3
f 270/1/4 267/2/4 268/4/4 271/3/4
f 240/1/5 271/2/5 268/4/5 236/3/5
f 239/1/6 270/2/6 271/4/6 240/3/6
f 242/2/1 243/4/1 239/3/1 238/1/1
f 242/3/2 238/1/2 269/2/2 272/4/2
f 238/2/3 239/4/3 270/3/3 269/1/3
f 272/1/4 269/2/4 270/4/4 273/3/4
f 243/1/5 273/2/5 270/4/5 239/3/5
f 242/1/6 272/2/6 273/4/6 243/3/6
f 243/2/1 244/4/1 240/3/1 239/1/1
f 243/3/2 239/1/2 270/2/2 273/4/2
f 239/2/3 240/4/3 271/3/3 270/1/3
f 273/1/4 270/2/4 271/4/4 274/3/4
f 244/1/5 274/2/5 271/4/5 240/3/5
f 243/1/6 273/2/6 274/4/6 244/3/6
f 246/2/1 247/4/1 243/3/1 242/1/1
f 246/3/2 242/1/2 272/2/2 275/4/2
f 242/2/3 243/4/3 273/3/3 272/1/3
f 275/1/4 272/2/4 273/4/4 276/3/4
f 247/1/5 276/2/5 273/4/5 243/3/5
f 246/1/6 275/2/6 276/4/6 247/3/6
f 247/2/1 248/4/1 244/3/1 243/1/1
f 247/3/2 243/1/2 273/2/2 276/4/2
f 243/2/3 244/4/3 274/3/3 273/1/3
f 276/1/4 273/2/4 274/4/4 277/3/4
f 248/1/5 277/2/5 274/4/5 244/3/5
f 247/1/6 276/2/6 277/4/6 248/3/6
f 249/2/1 250/4/1 247/3/1 246/1/1
f 249/3/2 246/1/2 275/2/2 278/4/2
f 246/2/3 247/4/3 276/3/3 275/1/3
f 278/1/4 275/2/4 276/4/4 279/3/4
f 250/1/5 279/2/5 276/4/5 247/3/5
f 249/1/6 278/2/6 279/4/6 250/3/6
f 252/2/1 253/4/1 250/3/1 249/1/1
f 252/3/2 249/1/2 278/2/2 280/4/2
f 249/2/3 250/4/3 279/3/3 278/1/3
f 280/1/4 278/2/4 279/4/4 281/3/4
f 253/1/5 281/2/5 279/4/5 250/3/5
f 252/1/6 280/2/6 281/4/6 253/3/6
f 255/2/1 256/4/1 253/3/1 252/1/1
f 255/3/2 252/1/2 280/2/2 282/4/2
f 252/2/3 253/4/3 281/3/3 280/1/3
f 282/1/4 280/2/4 281/4/4 283/3/4
f 256/1/5 283/2/5 281/4/5 253/3/5
f 255/1/6 282/2/6 283/4/6 256/3/6
f 269/2/1 270/4/1 267/3/1 266/1/1
f 269/3/2 266/1/2 284/2/2 286/4/2
f 266/2/3 267/4/3 285/3/3 284/1/3
f 286/1/4 284/2/4 285/4/4 287/3/4
f 270/1/5 287/2/5 285/4/5 267/3/5
f 269/1/6 286/2/6 287/4/6 270/3/6
f 272/2/1 273/4/1 270/3/1 269/1/1
f 272/3/2 269/1/2 286/2/2 288/4/2
f 269/2/3 270/4/3 287/3/3 286/1/3
f 288/1/4 286/2/4 287/4/4 289/3/4
f 273/1/5 289/2/5 287/4/5 270/3/5
f 272/1/6 288/2/6 289/4/6 273/3/6
f 275/2/1 276/4/1 273/3/1 272/1/1
f 275/3/2 272/1/2 288/2/2 290/4/2
f 272/2/3 273/4/3 289/3/3 288/1/3
f 290/1/4 288/2/4 289/4/4 291/3/4
f 276/1/5 291/2/5 289/4/5 273/3/5
f 275/1/6 290/2/6 291/4/6 276/3/6
