mtllib lighthouse.mtl
usemtl cyan_terracotta
v -5 5 -8
v -5 7 -4
v -5 7 -3
v -5 8 -2
v -5 8 -1
v -5 5 -9
v -4 5 -9
v -4 5 -8
v -5 6 -8
v -5 6 -9
v -4 6 -9
v -4 6 -8
v -4 7 -4
v -4 7 -3
v -5 8 -3
v -5 8 -4
v -4 8 -4
v -4 8 -3
v -4 7 -2
v -5 9 -2
v -4 8 -2
v -4 9 -2
v -4 8 -1
v -5 9 -1
v -4 9 -1
v -4 7 -5
v -3 7 -5
v -3 7 -4
v -4 8 -5
v -3 8 -5
v -3 8 -4
v -3 7 -3
v -3 8 -3
v -3 7 -2
v -3 8 -2
v -2 6 -5
v -2 7 -5
v -2 6 -6
v -1 6 -6
v -1 6 -5
v -2 7 -6
v -1 7 -6
v -1 7 -5
v -1 7 -3
v -1 8 -3
v -1 7 -2
v -1 8 -2
v -1 4 -11
v 0 4 -11
v -1 4 -10
v 0 4 -10
v -1 5 -10
v -1 5 -11
v 0 5 -11
v 0 5 -10
v 0 8 -3
v 0 9 -3
v 0 7 -3
v 0 7 -2
v 0 8 -2
v 0 9 -2
v 0 5 -8
v 0 5 -9
v 1 5 -9
v 1 5 -8
v 0 6 -8
v 0 6 -9
v 1 6 -9
v 1 6 -8
v 1 9 -3
v 1 7 -3
v 1 7 -2
v 1 8 -3
v 1 8 -2
v 1 9 -2
v 2 9 -3
v 2 8 -2
v 2 8 -3
v 2 9 -2
v 2 6 -2
v 2 6 -1
v 2 7 -2
v 2 7 -1
v 2 8 -1
v 3 6 -3
v 3 7 -3
v 3 8 -3
v 3 9 -3
v 3 8 -2
v 3 9 -2
v 3 6 -2
v 3 6 -1
v 3 7 -2
v 3 7 -1
v 3 8 -1
v 3 8 5
v 3 9 5
v 3 8 6
v 3 9 6
v 4 8 -3
v 4 9 -3
v 4 6 -3
v 4 6 -2
v 4 7 -3
v 4 7 -2
v 4 8 -2
v 4 9 -2
v 4 7 -1
v 4 8 -1
v 4 9 -1
v 4 7 0
v 4 8 0
v 4 9 0
v 4 7 4
v 4 8 4
v 4 9 4
v 4 7 5
v 4 8 5
v 4 9 5
v 4 8 6
v 4 9 6
v 5 8 -3
v 5 9 -3
v 5 6 -2
v 5 7 -3
v 5 7 -2
v 5 8 -2
v 5 9 -2
v 5 6 -1
v 5 7 -1
v 5 8 -1
v 5 9 -1
v 5 7 0
v 5 8 0
v 5 9 0
v 5 8 1
v 5 9 1
v 5 8 2
v 5 9 2
v 5 7 4
v 5 8 4
v 5 9 4
v 5 7 5
v 5 8 5
v 5 9 5
v 5 4 -8
v 6 4 -8
v 5 5 -8
v 6 5 -8
v 5 4 -7
v 6 4 -7
v 5 5 -7
v 6 5 -7
v 6 5 -1
v 6 6 -2
v 6 6 -1
v 6 7 -2
v 6 7 -1
v 6 5 0
v 6 6 0
v 6 7 0
v 6 8 0
v 6 9 0
v 6 6 1
v 6 7 1
v 6 8 1
v 6 9 1
v 6 8 2
v 6 9 2
v 6 7 9
v 6 7 10
v 6 8 9
v 6 8 10
v 7 5 -1
v 7 6 -1
v 7 5 0
v 7 6 0
v 7 7 0
v 7 6 1
v 7 7 1
v 7 8 0
v 7 8 1
v 7 6 2
v 7 7 2
v 7 8 2
v 7 7 8
v 7 7 9
v 7 8 8
v 7 8 9
v 7 9 8
v 7 9 9
v 7 7 10
v 7 8 10
v 7 9 10
v 8 6 0
v 8 6 1
v 8 7 0
v 8 7 1
v 8 6 2
v 8 7 2
v 8 8 1
v 8 8 2
v 8 2 5
v 8 3 5
v 8 2 6
v 8 3 6
v 8 7 8
v 8 7 9
v 8 8 8
v 8 8 9
v 8 9 8
v 8 9 9
v 8 4 10
v 8 5 10
v 8 8 10
v 8 9 10
v 8 4 11
v 8 5 11
v 9 2 5
v 9 3 5
v 9 2 6
v 9 3 6
v 9 7 8
v 9 7 9
v 9 8 8
v 9 8 9
v 9 4 10
v 9 5 10
v 9 4 11
v 9 5 11
v 10 6 0
v 10 6 -1
v 11 6 -1
v 10 7 -1
v 11 7 -1
v 11 6 0
v 10 7 0
v 11 7 0
v 14 5 13
v 14 5 12
v 15 5 12
v 15 5 13
v 14 6 13
v 14 6 12
v 15 6 12
v 15 6 13
vt 0.000000000 0.000000000
vt 1.000000000 0.000000000
vt 0.000000000 1.000000000
vt 1.000000000 1.000000000
vn -1 0 0
vn 0 -1 0
vn 0 0 -1
vn 1 0 0
vn 0 1 0
vn 0 0 1
f 1/2/1 9/4/1 10/3/1 6/1/1
f 1/3/2 6/1/2 7/2/2 8/4/2
f 6/2/3 10/4/3 11/3/3 7/1/3
f 8/1/4 7/2/4 11/4/4 12/3/4
f 9/1/5 12/2/5 11/4/5 10/3/5
f 1/1/6 8/2/6 12/4/6 9/3/6
f 3/2/1 15/4/1 16/3/1 2/1/1
f 3/3/2 2/1/2 13/2/2 14/4/2
f 2/2/3 16/4/3 17/3/3 13/1/3
f 14/1/4 13/2/4 17/4/4 18/3/4
f 15/1/5 18/2/5 17/4/5 16/3/5
f 3/1/6 14/2/6 18/4/6 15/3/6
f 5/2/1 24/4/1 20/3/1 4/1/1
f 5/3/2 4/1/2 21/2/2 23/4/2
f 4/2/3 20/4/3 22/3/3 21/1/3
f 23/1/4 21/2/4 22/4/4 25/3/4
f 24/1/5 25/2/5 22/4/5 20/3/5
f 5/1/6 23/2/6 25/4/6 24/3/6
f 13/2/1 17/4/1 29/3/1 26/1/1
f 13/3/2 26/1/2 27/2/2 28/4/2
f 26/2/3 29/4/3 30/3/3 27/1/3
f 28/1/4 27/2/4 30/4/4 31/3/4
f 17/1/5 31/2/5 30/4/5 29/3/5
f 13/1/6 28/2/6 31/4/6 17/3/6
f 19/2/1 21/4/1 18/3/1 14/1/1
f 19/3/2 14/1/2 32/2/2 34/4/2
f 14/2/3 18/4/3 33/3/3 32/1/3
f 34/1/4 32/2/4 33/4/4 35/3/4
f 21/1/5 35/2/5 33/4/5 18/3/5
f 19/1/6 34/2/6 35/4/6 21/3/6
f 36/2/1 37/4/1 41/3/1 38/1/1
f 36/3/2 38/1/2 39/2/2 40/4/2
f 38/2/3 41/4/3 42/3/3 39/1/3
f 40/1/4 39/2/4 42/4/4 43/3/4
f 37/1/5 43/2/5 42/4/5 41/3/5
f 36/1/6 40/2/6 43/4/6 37/3/6
f 50/2/1 52/4/1 53/3/1 48/1/1
f 50/3/2 48/1/2 49/2/2 51/4/2
f 48/2/3 53/4/3 54/3/3 49/1/3
f 51/1/4 49/2/4 54/4/4 55/3/4
f 52/1/5 55/2/5 54/4/5 53/3/5
f 50/1/6 51/2/6 55/4/6 52/3/6
f 46/2/1 47/4/1 45/3/1 44/1/1
f 46/3/2 44/1/2 58/2/2 59/4/2
f 44/2/3 45/4/3 56/3/3 58/1/3
f 59/1/4 58/2/4 56/4/4 60/3/4
f 47/1/5 60/2/5 56/4/5 45/3/5
f 46/1/6 59/2/6 60/4/6 47/3/6
f 62/2/1 66/4/1 67/3/1 63/1/1
f 62/3/2 63/1/2 64/2/2 65/4/2
f 63/2/3 67/4/3 68/3/3 64/1/3
f 65/1/4 64/2/4 68/4/4 69/3/4
f 66/1/5 69/2/5 68/4/5 67/3/5
f 62/1/6 65/2/6 69/4/6 66/3/6
f 59/2/1 60/4/1 56/3/1 58/1/1
f 59/3/2 58/1/2 71/2/2 72/4/2
f 58/2/3 56/4/3 73/3/3 71/1/3
f 72/1/4 71/2/4 73/4/4 74/3/4
f 60/1/5 74/2/5 73/4/5 56/3/5
f 59/1/6 72/2/6 74/4/6 60/3/6
f 60/2/1 61/4/1 57/3/1 56/1/1
f 60/3/2 56/1/2 73/2/2 74/4/2
f 56/2/3 57/4/3 70/3/3 73/1/3
f 74/1/4 73/2/4 70/4/4 75/3/4
f 61/1/5 75/2/5 70/4/5 57/3/5
f 60/1/6 74/2/6 75/4/6 61/3/6
f 74/2/1 75/4/1 70/3/1 73/1/1
f 74/3/2 73/1/2 78/2/2 77/4/2
f 73/2/3 70/4/3 76/3/3 78/1/3
f 77/1/4 78/2/4 76/4/4 79/3/4
f 75/1/5 79/2/5 76/4/5 70/3/5
f 74/1/6 77/2/6 79/4/6 75/3/6
f 77/2/1 79/4/1 76/3/1 78/1/1
f 77/3/2 78/1/2 87/2/2 89/4/2
f 78/2/3 76/4/3 88/3/3 87/1/3
f 89/1/4 87/2/4 88/4/4 90/3/4
f 79/1/5 90/2/5 88/4/5 76/3/5
f 77/1/6 89/2/6 90/4/6 79/3/6
f 81/2/1 83/4/1 82/3/1 80/1/1
f 81/3/2 80/1/2 91/2/2 92/4/2
f 80/2/3 82/4/3 93/3/3 91/1/3
f 92/1/4 91/2/4 93/4/4 94/3/4
f 83/1/5 94/2/5 93/4/5 82/3/5
f 81/1/6 92/2/6 94/4/6 83/3/6
f 83/2/1 84/4/1 77/3/1 82/1/1
f 83/3/2 82/1/2 93/2/2 94/4/2
f 82/2/3 77/4/3 89/3/3 93/1/3
f 94/1/4 93/2/4 89/4/4 95/3/4
f 84/1/5 95/2/5 89/4/5 77/3/5
f 83/1/6 94/2/6 95/4/6 84/3/6
f 91/2/1 93/4/1 86/3/1 85/1/1
f 91/3/2 85/1/2 102/2/2 103/4/2
f 85/2/3 86/4/3 104/3/3 102/1/3
f 103/1/4 102/2/4 104/4/4 105/3/4
f 93/1/5 105/2/5 104/4/5 86/3/5
f 91/1/6 103/2/6 105/4/6 93/3/6
f 93/2/1 89/4/1 87/3/1 86/1/1
f 93/3/2 86/1/2 104/2/2 105/4/2
f 86/2/3 87/4/3 100/3/3 104/1/3
f 105/1/4 104/2/4 100/4/4 106/3/4
f 89/1/5 106/2/5 100/4/5 87/3/5
f 93/1/6 105/2/6 106/4/6 89/3/6
f 89/2/1 90/4/1 88/3/1 87/1/1
f 89/3/2 87/1/2 100/2/2 106/4/2
f 87/2/3 88/4/3 101/3/3 100/1/3
f 106/1/4 100/2/4 101/4/4 107/3/4
f 90/1/5 107/2/5 101/4/5 88/3/5
f 89/1/6 106/2/6 107/4/6 90/3/6
f 98/2/1 99/4/1 97/3/1 96/1/1
f 98/3/2 96/1/2 118/2/2 120/4/2
f 96/2/3 97/4/3 119/3/3 118/1/3
f 120/1/4 118/2/4 119/4/4 121/3/4
f 99/1/5 121/2/5 119/4/5 97/3/5
f 98/1/6 120/2/6 121/4/6 99/3/6
f 105/2/1 106/4/1 100/3/1 104/1/1
f 105/3/2 104/1/2 125/2/2 126/4/2
f 104/2/3 100/4/3 122/3/3 125/1/3
f 126/1/4 125/2/4 122/4/4 127/3/4
f 106/1/5 127/2/5 122/4/5 100/3/5
f 105/1/6 126/2/6 127/4/6 106/3/6
f 106/2/1 107/4/1 101/3/1 100/1/1
f 106/3/2 100/1/2 122/2/2 127/4/2
f 100/2/3 101/4/3 123/3/3 122/1/3
f 127/1/4 122/2/4 123/4/4 128/3/4
f 107/1/5 128/2/5 123/4/5 101/3/5
f 106/1/6 127/2/6 128/4/6 107/3/6
f 108/2/1 109/4/1 106/3/1 105/1/1
f 108/3/2 105/1/2 126/2/2 130/4/2
f 105/2/3 106/4/3 127/3/3 126/1/3
f 130/1/4 126/2/4 127/4/4 131/3/4
f 109/1/5 131/2/5 127/4/5 106/3/5
f 108/1/6 130/2/6 131/4/6 109/3/6
f 109/2/1 110/4/1 107/3/1 106/1/1
f 109/3/2 106/1/2 127/2/2 131/4/2
f 106/2/3 107/4/3 128/3/3 127/1/3
f 131/1/4 127/2/4 128/4/4 132/3/4
f 110/1/5 132/2/5 128/4/5 107/3/5
f 109/1/6 131/2/6 132/4/6 110/3/6
f 111/2/1 112/4/1 109/3/1 108/1/1
f 111/3/2 108/1/2 130/2/2 133/4/2
f 108/2/3 109/4/3 131/3/3 130/1/3
f 133/1/4 130/2/4 131/4/4 134/3/4
f 112/1/5 134/2/5 131/4/5 109/3/5
f 111/1/6 133/2/6 134/4/6 112/3/6
f 112/2/1 113/4/1 110/3/1 109/1/1
f 112/3/2 109/1/2 131/2/2 134/4/2
f 109/2/3 110/4/3 132/3/3 131/1/3
f 134/1/4 131/2/4 132/4/4 135/3/4
f 113/1/5 135/2/5 132/4/5 110/3/5
f 112/1/6 134/2/6 135/4/6 113/3/6
f 117/2/1 118/4/1 115/3/1 114/1/1
f 117/3/2 114/1/2 140/2/2 143/4/2
f 114/2/3 115/4/3 141/3/3 140/1/3
f 143/1/4 140/2/4 141/4/4 144/3/4
f 118/1/5 144/2/5 141/4/5 115/3/5
f 117/1/6 143/2/6 144/4/6 118/3/6
f 118/2/1 119/4/1 116/3/1 115/1/1
f 118/3/2 115/1/2 141/2/2 144/4/2
f 115/2/3 116/4/3 142/3/3 141/1/3
f 144/1/4 141/2/4 142/4/4 145/3/4
f 119/1/5 145/2/5 142/4/5 116/3/5
f 118/1/6 144/2/6 145/4/6 119/3/6
f 150/2/1 152/4/1 148/3/1 146/1/1
f 150/3/2 146/1/2 147/2/2 151/4/2
f 146/2/3 148/4/3 149/3/3 147/1/3
f 151/1/4 147/2/4 149/4/4 153/3/4
f 152/1/5 153/2/5 149/4/5 148/3/5
f 150/1/6 151/2/6 153/4/6 152/3/6
f 129/2/1 130/4/1 126/3/1 124/1/1
f 129/3/2 124/1/2 155/2/2 156/4/2
f 124/2/3 126/4/3 157/3/3 155/1/3
f 156/1/4 155/2/4 157/4/4 158/3/4
f 130/1/5 158/2/5 157/4/5 126/3/5
f 129/1/6 156/2/6 158/4/6 130/3/6
f 136/2/1 137/4/1 135/3/1 134/1/1
f 136/3/2 134/1/2 162/2/2 166/4/2
f 134/2/3 135/4/3 163/3/3 162/1/3
f 166/1/4 162/2/4 163/4/4 167/3/4
f 137/1/5 167/2/5 163/4/5 135/3/5
f 136/1/6 166/2/6 167/4/6 137/3/6
f 138/2/1 139/4/1 137/3/1 136/1/1
f 138/3/2 136/1/2 166/2/2 168/4/2
f 136/2/3 137/4/3 167/3/3 166/1/3
f 168/1/4 166/2/4 167/4/4 169/3/4
f 139/1/5 169/2/5 167/4/5 137/3/5
f 138/1/6 168/2/6 169/4/6 139/3/6
f 159/2/1 160/4/1 156/3/1 154/1/1
f 159/3/2 154/1/2 174/2/2 176/4/2
f 154/2/3 156/4/3 175/3/3 174/1/3
f 176/1/4 174/2/4 175/4/4 177/3/4
f 160/1/5 177/2/5 175/4/5 156/3/5
f 159/1/6 176/2/6 177/4/6 160/3/6
f 164/2/1 165/4/1 161/3/1 160/1/1
f 164/3/2 160/1/2 177/2/2 179/4/2
f 160/2/3 161/4/3 178/3/3 177/1/3
f 179/1/4 177/2/4 178/4/4 180/3/4
f 165/1/5 180/2/5 178/4/5 161/3/5
f 164/1/6 179/2/6 180/4/6 165/3/6
f 165/2/1 166/4/1 162/3/1 161/1/1
f 165/3/2 161/1/2 178/2/2 180/4/2
f 161/2/3 162/4/3 181/3/3 178/1/3
f 180/1/4 178/2/4 181/4/4 182/3/4
f 166/1/5 182/2/5 181/4/5 162/3/5
f 165/1/6 180/2/6 182/4/6 166/3/6
f 171/2/1 173/4/1 172/3/1 170/1/1
f 171/3/2 170/1/2 187/2/2 192/4/2
f 170/2/3 172/4/3 189/3/3 187/1/3
f 192/1/4 187/2/4 189/4/4 193/3/4
f 173/1/5 193/2/5 189/4/5 172/3/5
f 171/1/6 192/2/6 193/4/6 173/3/6
f 179/2/1 180/4/1 178/3/1 177/1/1
f 179/3/2 177/1/2 195/2/2 196/4/2
f 177/2/3 178/4/3 197/3/3 195/1/3
f 196/1/4 195/2/4 197/4/4 198/3/4
f 180/1/5 198/2/5 197/4/5 178/3/5
f 179/1/6 196/2/6 198/4/6 180/3/6
f 183/2/1 184/4/1 180/3/1 179/1/1
f 183/3/2 179/1/2 196/2/2 199/4/2
f 179/2/3 180/4/3 198/3/3 196/1/3
f 199/1/4 196/2/4 198/4/4 200/3/4
f 184/1/5 200/2/5 198/4/5 180/3/5
f 183/1/6 199/2/6 200/4/6 184/3/6
f 184/2/1 185/4/1 182/3/1 180/1/1
f 184/3/2 180/1/2 198/2/2 200/4/2
f 180/2/3 182/4/3 201/3/3 198/1/3
f 200/1/4 198/2/4 201/4/4 202/3/4
f 185/1/5 202/2/5 201/4/5 182/3/5
f 184/1/6 200/2/6 202/4/6 185/3/6
f 187/2/1 189/4/1 188/3/1 186/1/1
f 187/3/2 186/1/2 207/2/2 208/4/2
f 186/2/3 188/4/3 209/3/3 207/1/3
f 208/1/4 207/2/4 209/4/4 210/3/4
f 189/1/5 210/2/5 209/4/5 188/3/5
f 187/1/6 208/2/6 210/4/6 189/3/6
f 189/2/1 191/4/1 190/3/1 188/1/1
f 189/3/2 188/1/2 209/2/2 210/4/2
f 188/2/3 190/4/3 211/3/3 209/1/3
f 210/1/4 209/2/4 211/4/4 212/3/4
f 191/1/5 212/2/5 211/4/5 190/3/5
f 189/1/6 210/2/6 212/4/6 191/3/6
f 193/2/1 194/4/1 191/3/1 189/1/1
f 193/3/2 189/1/2 210/2/2 215/4/2
f 189/2/3 191/4/3 212/3/3 210/1/3
f 215/1/4 210/2/4 212/4/4 216/3/4
f 194/1/5 216/2/5 212/4/5 191/3/5
f 193/1/6 215/2/6 216/4/6 194/3/6
f 205/2/1 206/4/1 204/3/1 203/1/1
f 205/3/2 203/1/2 219/2/2 221/4/2
f 203/2/3 204/4/3 220/3/3 219/1/3
f 221/1/4 219/2/4 220/4/4 222/3/4
f 206/1/5 222/2/5 220/4/5 204/3/5
f 205/1/6 221/2/6 222/4/6 206/3/6
f 208/2/1 210/4/1 209/3/1 207/1/1
f 208/3/2 207/1/2 223/2/2 224/4/2
f 207/2/3 209/4/3 225/3/3 223/1/3
f 224/1/4 223/2/4 225/4/4 226/3/4
f 210/1/5 226/2/5 225/4/5 209/3/5
f 208/1/6 224/2/6 226/4/6 210/3/6
f 217/2/1 218/4/1 214/3/1 213/1/1
f 217/3/2 213/1/2 227/2/2 229/4/2
f 213/2/3 214/4/3 228/3/3 227/1/3
f 229/1/4 227/2/4 228/4/4 230/3/4
f 218/1/5 230/2/5 228/4/5 214/3/5
f 217/1/6 229/2/6 230/4/6 218/3/6
f 231/2/1 237/4/1 234/3/1 232/1/1
f 231/3/2 232/1/2 233/2/2 236/4/2
f 232/2/3 234/4/3 235/3/3 233/1/3
f 236/1/4 233/2/4 235/4/4 238/3/4
f 237/1/5 238/2/5 235/4/5 234/3/5
f 231/1/6 236/2/6 238/4/6 237/3/6
f 239/2/1 243/4/1 244/3/1 240/1/1
f 239/3/2 240/1/2 241/2/2 242/4/2
f 240/2/3 244/4/3 245/3/3 241/1/3
f 242/1/4 241/2/4 245/4/4 246/3/4
f 243/1/5 246/2/5 245/4/5 244/3/5
f 239/1/6 242/2/6 246/4/6 243/3/6
