mtllib lighthouse.mtl
usemtl polished_andesite
v -4 20 0
v -4 20 1
v -4 20.5 0
v -4 20.5 1
v -3 20 0
v -3 20 1
v -3 20.5 0
v -3 20.5 1
v -3.5 20.5 0
v -3.5 20.5 1
v -3.5 21 0
v -3.5 21 1
v -3 20.5 0
v -3 20.5 1
v -3 21 0
v -3 21 1
v -4 20 2
v -4 20 3
v -4 20.5 2
v -4 20.5 3
v -3 20 2
v -3 20 3
v -3 20.5 2
v -3 20.5 3
v -3.5 20.5 2
v -3.5 20.5 3
v -3.5 21 2
v -3.5 21 3
v -3 20.5 2
v -3 20.5 3
v -3 21 2
v -3 21 3
v -2 9 2
v -2 9 3
v -2 9.5 2
v -2 9.5 3
v -1 9 2
v -1 9 3
v -1 9.5 2
v -1 9.5 3
v -2 9.5 2
v -2 9.5 2.5
v -2 10 2
v -2 10 2.5
v -1 9.5 2
v -1 9.5 2.5
v -1 10 2
v -1 10 2.5
v -2 11.5 2
v -2 11.5 3
v -2 12 2
v -2 12 3
v -1 11.5 2
v -1 11.5 3
v -1 12 2
v -1 12 3
v -2 11 2
v -2 11 2.5
v -2 11.5 2
v -2 11.5 2.5
v -1 11 2
v -1 11 2.5
v -1 11.5 2
v -1 11.5 2.5
v -1 13.5 -3
v -1 13.5 -2
v -1 14 -3
v -1 14 -2
v 0 13.5 -3
v 0 13.5 -2
v 0 14 -3
v 0 14 -2
v -1 13 -3
v -1 13 -2.5
v -1 13.5 -3
v -1 13.5 -2.5
v 0 13 -3
v 0 13 -2.5
v 0 13.5 -3
v 0 13.5 -2.5
v -1 20 -3
v -1 20 -2
v -1 20.5 -3
v -1 20.5 -2
v 0 20 -3
v 0 20 -2
v 0 20.5 -3
v 0 20.5 -2
v -1 20.5 -2.5
v -1 20.5 -2
v -1 21 -2.5
v -1 21 -2
v 0 20.5 -2.5
v 0 20.5 -2
v 0 21 -2.5
v 0 21 -2
v -1 9 2
v -1 9 3
v -1 9.5 2
v -1 9.5 3
v 0 9 2
v 0 9 3
v 0 9.5 2
v 0 9.5 3
v -1 9.5 2
v -1 9.5 2.5
v -1 10 2
v -1 10 2.5
v 0 9.5 2
v 0 9.5 2.5
v 0 10 2
v 0 10 2.5
v -1 11.5 2
v -1 11.5 3
v -1 12 2
v -1 12 3
v 0 11.5 2
v 0 11.5 3
v 0 12 2
v 0 12 3
v -1 11 2
v -1 11 2.5
v -1 11.5 2
v -1 11.5 2.5
v 0 11 2
v 0 11 2.5
v 0 11.5 2
v 0 11.5 2.5
v -1 20 5
v -1 20 6
v -1 20.5 5
v -1 20.5 6
v 0 20 5
v 0 20 6
v 0 20.5 5
v 0 20.5 6
v -1 20.5 5
v -1 20.5 5.5
v -1 21 5
v -1 21 5.5
v 0 20.5 5
v 0 20.5 5.5
v 0 21 5
v 0 21 5.5
v 1 20 -3
v 1 20 -2
v 1 20.5 -3
v 1 20.5 -2
v 2 20 -3
v 2 20 -2
v 2 20.5 -3
v 2 20.5 -2
v 1 20.5 -2.5
v 1 20.5 -2
v 1 21 -2.5
v 1 21 -2
v 2 20.5 -2.5
v 2 20.5 -2
v 2 21 -2.5
v 2 21 -2
v 1 11.5 2
v 1 11.5 3
v 1 12 2
v 1 12 3
v 2 11.5 2
v 2 11.5 3
v 2 12 2
v 2 12 3
v 1 11 2
v 1 11 2.5
v 1 11.5 2
v 1 11.5 2.5
v 2 11 2
v 2 11 2.5
v 2 11.5 2
v 2 11.5 2.5
v 1 20 5
v 1 20 6
v 1 20.5 5
v 1 20.5 6
v 2 20 5
v 2 20 6
v 2 20.5 5
v 2 20.5 6
v 1 20.5 5
v 1 20.5 5.5
v 1 21 5
v 1 21 5.5
v 2 20.5 5
v 2 20.5 5.5
v 2 21 5
v 2 21 5.5
v 4 20 0
v 4 20 1
v 4 20.5 0
v 4 20.5 1
v 5 20 0
v 5 20 1
v 5 20.5 0
v 5 20.5 1
v 4 20.5 0
v 4 20.5 1
v 4 21 0
v 4 21 1
v 4.5 20.5 0
v 4.5 20.5 1
v 4.5 21 0
v 4.5 21 1
v 4 20 2
v 4 20 3
v 4 20.5 2
v 4 20.5 3
v 5 20 2
v 5 20 3
v 5 20.5 2
v 5 20.5 3
v 4 20.5 2
v 4 20.5 3
v 4 21 2
v 4 21 3
v 4.5 20.5 2
v 4.5 20.5 3
v 4.5 21 2
v 4.5 21 3
v -5 13 0
v -5 13 1
v -5 13 2
v -5 13 3
v -4 13 -1
v -4 13 -2
v -5 12 0
v -4 12 -1
v -4 12 0
v -4 13 0
v -5 12 1
v -4 12 1
v -4 13 1
v -5 12 2
v -4 12 2
v -4 13 2
v -5 12 3
v -4 12 3
v -4 13 3
v -4 12 4
v -4 13 4
v -4 13 5
v -3 13 -2
v -3 13 -3
v -4 12 -2
v -3 12 -2
v -3 12 -1
v -3 13 -1
v -4 19 0
v -3 19 -1
v -3 19 0
v -4 19 1
v -3 19 1
v -4 20 1
v -4 20 0
v -3 20 0
v -3 20 1
v -4 19 2
v -3 19 2
v -4 20 2
v -3 20 2
v -4 19 3
v -3 19 3
v -4 20 3
v -3 20 3
v -3 19 4
v -4 12 5
v -3 12 4
v -3 12 5
v -3 13 4
v -3 13 5
v -3 13 6
v -2 13 -3
v -3 12 -3
v -2 12 -3
v -2 12 -2
v -2 13 -2
v -2 19 -2
v -2 19 -1
v -2 19 0
v -3 20 -1
v -2 20 -1
v -2 20 0
v -2 12 2
v -2 13 2
v -2 12 3
v -2 13 3
v -2 19 3
v -2 20 3
v -2 19 4
v -3 20 4
v -2 20 4
v -2 19 5
v -3 12 6
v -2 12 5
v -2 12 6
v -2 13 5
v -2 13 6
v -1 13 -4
v -1 12 -4
v -1 12 -3
v -1 13 -3
v -1 14 -2
v -1 15 -2
v -1 19 -3
v -1 19 -2
v -1 19 -1
v -2 20 -2
v -1 20 -2
v -1 20 -1
v -1 12 2
v -1 12 3
v -1 13 2
v -1 13 3
v -1 14 2
v -1 14 3
v -1 19 4
v -1 20 4
v -1 19 5
v -2 20 5
v -1 20 5
v -1 19 6
v -1 12 6
v -1 12 7
v -1 13 6
v -1 13 7
v 0 13 -4
v 0 12 -4
v 0 12 -3
v 0 13 -3
v 0 14 -2
v 0 15 -2
v 0 19 -3
v 0 19 -2
v -1 20 -3
v 0 20 -3
v 0 20 -2
v -1 14 -1
v -1 15 -1
v 0 14 -1
v 0 15 -1
v -1 14 0
v -1 15 0
v 0 14 0
v 0 15 0
v -1 14 1
v -1 15 1
v 0 14 1
v 0 15 1
v 0 12 2
v -1 15 2
v 0 14 2
v 0 15 2
v 0 12 3
v 0 13 2
v 0 13 3
v -1 15 3
v 0 14 3
v 0 15 3
v 0 19 5
v 0 20 5
v 0 19 6
v -1 20 6
v 0 20 6
v 0 12 6
v 0 12 7
v 0 13 6
v 0 13 7
v 1 13 -4
v 1 12 -4
v 1 12 -3
v 1 13 -3
v 1 19 -3
v 1 19 -2
v 1 20 -3
v 1 20 -2
v 1 15 2
v 1 14 3
v 1 14 2
v 1 15 3
v 1 19 5
v 1 20 5
v 1 19 6
v 1 20 6
v 1 12 6
v 1 12 7
v 1 13 6
v 1 13 7
v 2 13 -4
v 2 12 -4
v 2 12 -3
v 2 13 -3
v 2 19 -3
v 2 19 -2
v 2 20 -3
v 2 20 -2
v 2 19 -1
v 2 20 -1
v 2 14 2
v 2 15 2
v 2 14 3
v 2 15 3
v 2 19 4
v 2 19 5
v 2 20 4
v 2 20 5
v 2 19 6
v 2 20 6
v 2 12 6
v 2 12 7
v 2 13 6
v 2 13 7
v 3 12 -3
v 3 13 -3
v 3 19 -2
v 3 13 -2
v 3 19 -1
v 3 20 -2
v 3 20 -1
v 3 19 0
v 3 20 0
v 3 19 3
v 3 20 3
v 3 19 4
v 3 20 4
v 3 19 5
v 3 20 5
v 3 12 6
v 3 12 5
v 3 13 5
v 3 13 6
v 4 13 -3
v 3 12 -2
v 4 12 -3
v 4 12 -2
v 4 13 -2
v 4 19 -1
v 4 19 0
v 4 20 -1
v 4 20 0
v 4 19 1
v 4 20 1
v 4 19 2
v 4 20 2
v 4 19 3
v 4 20 3
v 4 12 4
v 4 13 4
v 4 19 4
v 4 20 4
v 4 13 5
v 4 12 5
v 4 12 6
v 4 13 6
v 5 13 -2
v 4 12 -1
v 5 12 -2
v 5 12 -1
v 4 13 -1
v 5 13 -1
v 5 19 0
v 5 19 1
v 5 20 0
v 5 20 1
v 5 19 2
v 5 20 2
v 5 19 3
v 5 20 3
v 5 12 4
v 5 12 5
v 5 13 4
v 5 13 5
v 5 12 0
v 6 12 0
v 5 13 0
v 6 13 0
v 5 12 1
v 6 12 1
v 5 13 1
v 6 13 1
v 5 12 2
v 6 12 2
v 5 13 2
v 6 13 2
v 5 12 3
v 6 12 3
v 5 13 3
v 6 13 3
vt 0.000000000 0.000000000
vt 0.500000000 0.000000000
vt 1.000000000 0.000000000
vt 0.000000000 0.500000000
vt 0.500000000 0.500000000
vt 1.000000000 0.500000000
vt 0.000000000 1.000000000
vt 0.500000000 1.000000000
vt 1.000000000 1.000000000
vn -1 0 0
vn 0 -1 0
vn 0 0 -1
vn 1 0 0
vn 0 1 0
vn 0 0 1
f 3/4/1 1/1/1 2/3/1 4/6/1
f 2/7/2 1/1/2 5/3/2 6/9/2
f 7/4/3 5/1/3 1/3/3 3/6/3
f 7/6/4 8/4/4 6/1/4 5/3/4
f 7/9/5 3/7/5 4/1/5 8/3/5
f 8/6/6 4/4/6 2/1/6 6/3/6
f 11/7/1 9/4/1 10/6/1 12/9/1
f 15/7/3 13/4/3 9/5/3 11/8/3
f 15/9/4 16/7/4 14/4/4 13/6/4
f 15/9/5 11/8/5 12/2/5 16/3/5
f 16/9/6 12/8/6 10/5/6 14/6/6
f 19/4/1 17/1/1 18/3/1 20/6/1
f 18/7/2 17/1/2 21/3/2 22/9/2
f 23/4/3 21/1/3 17/3/3 19/6/3
f 23/6/4 24/4/4 22/1/4 21/3/4
f 23/9/5 19/7/5 20/1/5 24/3/5
f 24/6/6 20/4/6 18/1/6 22/3/6
f 27/7/1 25/4/1 26/6/1 28/9/1
f 31/7/3 29/4/3 25/5/3 27/8/3
f 31/9/4 32/7/4 30/4/4 29/6/4
f 31/9/5 27/8/5 28/2/5 32/3/5
f 32/9/6 28/8/6 26/5/6 30/6/6
f 35/4/1 33/1/1 34/3/1 36/6/1
f 34/7/2 33/1/2 37/3/2 38/9/2
f 39/4/3 37/1/3 33/3/3 35/6/3
f 39/6/4 40/4/4 38/1/4 37/3/4
f 39/9/5 35/7/5 36/1/5 40/3/5
f 40/6/6 36/4/6 34/1/6 38/3/6
f 43/7/1 41/4/1 42/5/1 44/8/1
f 47/7/3 45/4/3 41/6/3 43/9/3
f 47/9/4 48/8/4 46/5/4 45/6/4
f 47/9/5 43/7/5 44/4/5 48/6/5
f 48/9/6 44/7/6 42/4/6 46/6/6
f 51/7/1 49/4/1 50/6/1 52/9/1
f 50/7/2 49/1/2 53/3/2 54/9/2
f 55/7/3 53/4/3 49/6/3 51/9/3
f 55/9/4 56/7/4 54/4/4 53/6/4
f 55/9/5 51/7/5 52/1/5 56/3/5
f 56/9/6 52/7/6 50/4/6 54/6/6
f 59/4/1 57/1/1 58/2/1 60/5/1
f 58/7/2 57/4/2 61/6/2 62/9/2
f 63/4/3 61/1/3 57/3/3 59/6/3
f 63/6/4 64/5/4 62/2/4 61/3/4
f 64/6/6 60/4/6 58/1/6 62/3/6
f 67/7/1 65/4/1 66/6/1 68/9/1
f 66/7/2 65/1/2 69/3/2 70/9/2
f 71/7/3 69/4/3 65/6/3 67/9/3
f 71/9/4 72/7/4 70/4/4 69/6/4
f 71/9/5 67/7/5 68/1/5 72/3/5
f 72/9/6 68/7/6 66/4/6 70/6/6
f 75/4/1 73/1/1 74/2/1 76/5/1
f 74/7/2 73/4/2 77/6/2 78/9/2
f 79/4/3 77/1/3 73/3/3 75/6/3
f 79/6/4 80/5/4 78/2/4 77/3/4
f 80/6/6 76/4/6 74/1/6 78/3/6
f 83/4/1 81/1/1 82/3/1 84/6/1
f 82/7/2 81/1/2 85/3/2 86/9/2
f 87/4/3 85/1/3 81/3/3 83/6/3
f 87/6/4 88/4/4 86/1/4 85/3/4
f 87/9/5 83/7/5 84/1/5 88/3/5
f 88/6/6 84/4/6 82/1/6 86/3/6
f 91/8/1 89/5/1 90/6/1 92/9/1
f 95/7/3 93/4/3 89/6/3 91/9/3
f 95/8/4 96/7/4 94/4/4 93/5/4
f 95/6/5 91/4/5 92/1/5 96/3/5
f 96/9/6 92/7/6 90/4/6 94/6/6
f 99/4/1 97/1/1 98/3/1 100/6/1
f 98/7/2 97/1/2 101/3/2 102/9/2
f 103/4/3 101/1/3 97/3/3 99/6/3
f 103/6/4 104/4/4 102/1/4 101/3/4
f 103/9/5 99/7/5 100/1/5 104/3/5
f 104/6/6 100/4/6 98/1/6 102/3/6
f 107/7/1 105/4/1 106/5/1 108/8/1
f 111/7/3 109/4/3 105/6/3 107/9/3
f 111/9/4 112/8/4 110/5/4 109/6/4
f 111/9/5 107/7/5 108/4/5 112/6/5
f 112/9/6 108/7/6 106/4/6 110/6/6
f 115/7/1 113/4/1 114/6/1 116/9/1
f 114/7/2 113/1/2 117/3/2 118/9/2
f 119/7/3 117/4/3 113/6/3 115/9/3
f 119/9/4 120/7/4 118/4/4 117/6/4
f 119/9/5 115/7/5 116/1/5 120/3/5
f 120/9/6 116/7/6 114/4/6 118/6/6
f 123/4/1 121/1/1 122/2/1 124/5/1
f 122/7/2 121/4/2 125/6/2 126/9/2
f 127/4/3 125/1/3 121/3/3 123/6/3
f 127/6/4 128/5/4 126/2/4 125/3/4
f 128/6/6 124/4/6 122/1/6 126/3/6
f 131/4/1 129/1/1 130/3/1 132/6/1
f 130/7/2 129/1/2 133/3/2 134/9/2
f 135/4/3 133/1/3 129/3/3 131/6/3
f 135/6/4 136/4/4 134/1/4 133/3/4
f 135/9/5 131/7/5 132/1/5 136/3/5
f 136/6/6 132/4/6 130/1/6 134/3/6
f 139/7/1 137/4/1 138/5/1 140/8/1
f 143/7/3 141/4/3 137/6/3 139/9/3
f 143/9/4 144/8/4 142/5/4 141/6/4
f 143/9/5 139/7/5 140/4/5 144/6/5
f 144/9/6 140/7/6 138/4/6 142/6/6
f 147/4/1 145/1/1 146/3/1 148/6/1
f 146/7/2 145/1/2 149/3/2 150/9/2
f 151/4/3 149/1/3 145/3/3 147/6/3
f 151/6/4 152/4/4 150/1/4 149/3/4
f 151/9/5 147/7/5 148/1/5 152/3/5
f 152/6/6 148/4/6 146/1/6 150/3/6
f 155/8/1 153/5/1 154/6/1 156/9/1
f 159/7/3 157/4/3 153/6/3 155/9/3
f 159/8/4 160/7/4 158/4/4 157/5/4
f 159/6/5 155/4/5 156/1/5 160/3/5
f 160/9/6 156/7/6 154/4/6 158/6/6
f 163/7/1 161/4/1 162/6/1 164/9/1
f 162/7/2 161/1/2 165/3/2 166/9/2
f 167/7/3 165/4/3 161/6/3 163/9/3
f 167/9/4 168/7/4 166/4/4 165/6/4
f 167/9/5 163/7/5 164/1/5 168/3/5
f 168/9/6 164/7/6 162/4/6 166/6/6
f 171/4/1 169/1/1 170/2/1 172/5/1
f 170/7/2 169/4/2 173/6/2 174/9/2
f 175/4/3 173/1/3 169/3/3 171/6/3
f 175/6/4 176/5/4 174/2/4 173/3/4
f 176/6/6 172/4/6 170/1/6 174/3/6
f 179/4/1 177/1/1 178/3/1 180/6/1
f 178/7/2 177/1/2 181/3/2 182/9/2
f 183/4/3 181/1/3 177/3/3 179/6/3
f 183/6/4 184/4/4 182/1/4 181/3/4
f 183/9/5 179/7/5 180/1/5 184/3/5
f 184/6/6 180/4/6 178/1/6 182/3/6
f 187/7/1 185/4/1 186/5/1 188/8/1
f 191/7/3 189/4/3 185/6/3 187/9/3
f 191/9/4 192/8/4 190/5/4 189/6/4
f 191/9/5 187/7/5 188/4/5 192/6/5
f 192/9/6 188/7/6 186/4/6 190/6/6
f 195/4/1 193/1/1 194/3/1 196/6/1
f 194/7/2 193/1/2 197/3/2 198/9/2
f 199/4/3 197/1/3 193/3/3 195/6/3
f 199/6/4 200/4/4 198/1/4 197/3/4
f 199/9/5 195/7/5 196/1/5 200/3/5
f 200/6/6 196/4/6 194/1/6 198/3/6
f 203/7/1 201/4/1 202/6/1 204/9/1
f 207/8/3 205/5/3 201/6/3 203/9/3
f 207/9/4 208/7/4 206/4/4 205/6/4
f 207/8/5 203/7/5 204/1/5 208/2/5
f 208/8/6 204/7/6 202/4/6 206/5/6
f 211/4/1 209/1/1 210/3/1 212/6/1
f 210/7/2 209/1/2 213/3/2 214/9/2
f 215/4/3 213/1/3 209/3/3 211/6/3
f 215/6/4 216/4/4 214/1/4 213/3/4
f 215/9/5 211/7/5 212/1/5 216/3/5
f 216/6/6 212/4/6 210/1/6 214/3/6
f 219/7/1 217/4/1 218/6/1 220/9/1
f 223/8/3 221/5/3 217/6/3 219/9/3
f 223/9/4 224/7/4 222/4/4 221/6/4
f 223/8/5 219/7/5 220/1/5 224/2/5
f 224/8/6 220/7/6 218/4/6 222/5/6
f 235/3/1 226/9/1 225/7/1 231/1/1
f 235/7/2 231/1/2 233/3/2 236/9/2
f 231/3/3 225/9/3 234/7/3 233/1/3
f 236/1/4 233/3/4 234/9/4 237/7/4
f 226/1/5 237/3/5 234/9/5 225/7/5
f 235/1/6 236/3/6 237/9/6 226/7/6
f 238/3/1 227/9/1 226/7/1 235/1/1
f 238/7/2 235/1/2 236/3/2 239/9/2
f 235/3/3 226/9/3 237/7/3 236/1/3
f 239/1/4 236/3/4 237/9/4 240/7/4
f 227/1/5 240/3/5 237/9/5 226/7/5
f 238/1/6 239/3/6 240/9/6 227/7/6
f 241/3/1 228/9/1 227/7/1 238/1/1
f 241/7/2 238/1/2 239/3/2 242/9/2
f 238/3/3 227/9/3 240/7/3 239/1/3
f 242/1/4 239/3/4 240/9/4 243/7/4
f 228/1/5 243/3/5 240/9/5 227/7/5
f 241/1/6 242/3/6 243/9/6 228/7/6
f 232/3/1 229/9/1 230/7/1 249/1/1
f 232/7/2 249/1/2 250/3/2 251/9/2
f 249/3/3 230/9/3 247/7/3 250/1/3
f 251/1/4 250/3/4 247/9/4 252/7/4
f 229/1/5 252/3/5 247/9/5 230/7/5
f 232/1/6 251/3/6 252/9/6 229/7/6
f 256/3/1 258/9/1 259/7/1 253/1/1
f 256/7/2 253/1/2 255/3/2 257/9/2
f 253/3/3 259/9/3 260/7/3 255/1/3
f 257/1/4 255/3/4 260/9/4 261/7/4
f 258/1/5 261/3/5 260/9/5 259/7/5
f 256/1/6 257/3/6 261/9/6 258/7/6
f 262/3/1 264/9/1 258/7/1 256/1/1
f 262/7/2 256/1/2 257/3/2 263/9/2
f 256/3/3 258/9/3 261/7/3 257/1/3
f 263/1/4 257/3/4 261/9/4 265/7/4
f 264/1/5 265/3/5 261/9/5 258/7/5
f 262/1/6 263/3/6 265/9/6 264/7/6
f 266/3/1 268/9/1 264/7/1 262/1/1
f 266/7/2 262/1/2 263/3/2 267/9/2
f 262/3/3 264/9/3 265/7/3 263/1/3
f 267/1/4 263/3/4 265/9/4 269/7/4
f 268/1/5 269/3/5 265/9/5 264/7/5
f 266/1/6 267/3/6 269/9/6 268/7/6
f 271/3/1 246/9/1 245/7/1 244/1/1
f 271/7/2 244/1/2 272/3/2 273/9/2
f 244/3/3 245/9/3 274/7/3 272/1/3
f 273/1/4 272/3/4 274/9/4 275/7/4
f 246/1/5 275/3/5 274/9/5 245/7/5
f 271/1/6 273/3/6 275/9/6 246/7/6
f 250/3/1 247/9/1 248/7/1 278/1/1
f 250/7/2 278/1/2 279/3/2 280/9/2
f 278/3/3 248/9/3 277/7/3 279/1/3
f 280/1/4 279/3/4 277/9/4 281/7/4
f 247/1/5 281/3/5 277/9/5 248/7/5
f 250/1/6 280/3/6 281/9/6 247/7/6
f 255/3/1 260/9/1 285/7/1 254/1/1
f 255/7/2 254/1/2 283/3/2 284/9/2
f 254/3/3 285/9/3 286/7/3 283/1/3
f 284/1/4 283/3/4 286/9/4 287/7/4
f 260/1/5 287/3/5 286/9/5 285/7/5
f 255/1/6 284/3/6 287/9/6 260/7/6
f 270/3/1 295/9/1 269/7/1 267/1/1
f 270/7/2 267/1/2 292/3/2 294/9/2
f 267/3/3 269/9/3 293/7/3 292/1/3
f 294/1/4 292/3/4 293/9/4 296/7/4
f 295/1/5 296/3/5 293/9/5 269/7/5
f 270/1/6 294/3/6 296/9/6 295/7/6
f 298/3/1 276/9/1 275/7/1 273/1/1
f 298/7/2 273/1/2 299/3/2 300/9/2
f 273/3/3 275/9/3 301/7/3 299/1/3
f 300/1/4 299/3/4 301/9/4 302/7/4
f 276/1/5 302/3/5 301/9/5 275/7/5
f 298/1/6 300/3/6 302/9/6 276/7/6
f 283/3/1 286/9/1 312/7/1 282/1/1
f 283/7/2 282/1/2 310/3/2 311/9/2
f 282/3/3 312/9/3 313/7/3 310/1/3
f 311/1/4 310/3/4 313/9/4 314/7/4
f 286/1/5 314/3/5 313/9/5 312/7/5
f 283/1/6 311/3/6 314/9/6 286/7/6
f 290/3/1 291/9/1 289/7/1 288/1/1
f 290/7/2 288/1/2 315/3/2 316/9/2
f 288/3/3 289/9/3 317/7/3 315/1/3
f 316/1/4 315/3/4 317/9/4 318/7/4
f 291/1/5 318/3/5 317/9/5 289/7/5
f 290/1/6 316/3/6 318/9/6 291/7/6
f 297/3/1 324/9/1 296/7/1 294/1/1
f 297/7/2 294/1/2 321/3/2 323/9/2
f 294/3/3 296/9/3 322/7/3 321/1/3
f 323/1/4 321/3/4 322/9/4 325/7/4
f 324/1/5 325/3/5 322/9/5 296/7/5
f 297/1/6 323/3/6 325/9/6 324/7/6
f 305/3/1 306/9/1 303/7/1 304/1/1
f 305/7/2 304/1/2 332/3/2 333/9/2
f 304/3/3 303/9/3 331/7/3 332/1/3
f 333/1/4 332/3/4 331/9/4 334/7/4
f 306/1/5 334/3/5 331/9/5 303/7/5
f 305/1/6 333/3/6 334/9/6 306/7/6
f 310/3/1 313/9/1 339/7/1 309/1/1
f 310/7/2 309/1/2 337/3/2 338/9/2
f 309/3/3 339/9/3 340/7/3 337/1/3
f 338/1/4 337/3/4 340/9/4 341/7/4
f 313/1/5 341/3/5 340/9/5 339/7/5
f 310/1/6 338/3/6 341/9/6 313/7/6
f 342/3/1 343/9/1 308/7/1 307/1/1
f 342/7/2 307/1/2 335/3/2 344/9/2
f 307/3/3 308/9/3 336/7/3 335/1/3
f 344/1/4 335/3/4 336/9/4 345/7/4
f 343/1/5 345/3/5 336/9/5 308/7/5
f 342/1/6 344/3/6 345/9/6 343/7/6
f 346/3/1 347/9/1 343/7/1 342/1/1
f 346/7/2 342/1/2 344/3/2 348/9/2
f 342/3/3 343/9/3 345/7/3 344/1/3
f 348/1/4 344/3/4 345/9/4 349/7/4
f 347/1/5 349/3/5 345/9/5 343/7/5
f 346/1/6 348/3/6 349/9/6 347/7/6
f 350/3/1 351/9/1 347/7/1 346/1/1
f 350/7/2 346/1/2 348/3/2 352/9/2
f 346/3/3 347/9/3 349/7/3 348/1/3
f 352/1/4 348/3/4 349/9/4 353/7/4
f 351/1/5 353/3/5 349/9/5 347/7/5
f 350/1/6 352/3/6 353/9/6 351/7/6
f 319/3/1 355/9/1 351/7/1 350/1/1
f 319/7/2 350/1/2 352/3/2 356/9/2
f 350/3/3 351/9/3 353/7/3 352/1/3
f 356/1/4 352/3/4 353/9/4 357/7/4
f 355/1/5 357/3/5 353/9/5 351/7/5
f 319/1/6 356/3/6 357/9/6 355/7/6
f 316/3/1 318/9/1 317/7/1 315/1/1
f 316/7/2 315/1/2 354/3/2 358/9/2
f 315/3/3 317/9/3 359/7/3 354/1/3
f 358/1/4 354/3/4 359/9/4 360/7/4
f 318/1/5 360/3/5 359/9/5 317/7/5
f 316/1/6 358/3/6 360/9/6 318/7/6
f 320/3/1 361/9/1 355/7/1 319/1/1
f 320/7/2 319/1/2 356/3/2 362/9/2
f 319/3/3 355/9/3 357/7/3 356/1/3
f 362/1/4 356/3/4 357/9/4 363/7/4
f 361/1/5 363/3/5 357/9/5 355/7/5
f 320/1/6 362/3/6 363/9/6 361/7/6
f 326/3/1 367/9/1 325/7/1 323/1/1
f 326/7/2 323/1/2 364/3/2 366/9/2
f 323/3/3 325/9/3 365/7/3 364/1/3
f 366/1/4 364/3/4 365/9/4 368/7/4
f 367/1/5 368/3/5 365/9/5 325/7/5
f 326/1/6 366/3/6 368/9/6 367/7/6
f 328/3/1 330/9/1 329/7/1 327/1/1
f 328/7/2 327/1/2 369/3/2 370/9/2
f 327/3/3 329/9/3 371/7/3 369/1/3
f 370/1/4 369/3/4 371/9/4 372/7/4
f 330/1/5 372/3/5 371/9/5 329/7/5
f 328/1/6 370/3/6 372/9/6 330/7/6
f 333/3/1 334/9/1 331/7/1 332/1/1
f 333/7/2 332/1/2 374/3/2 375/9/2
f 332/3/3 331/9/3 373/7/3 374/1/3
f 375/1/4 374/3/4 373/9/4 376/7/4
f 334/1/5 376/3/5 373/9/5 331/7/5
f 333/1/6 375/3/6 376/9/6 334/7/6
f 338/3/1 341/9/1 340/7/1 337/1/1
f 338/7/2 337/1/2 377/3/2 378/9/2
f 337/3/3 340/9/3 379/7/3 377/1/3
f 378/1/4 377/3/4 379/9/4 380/7/4
f 341/1/5 380/3/5 379/9/5 340/7/5
f 338/1/6 378/3/6 380/9/6 341/7/6
f 362/3/1 363/9/1 357/7/1 356/1/1
f 362/7/2 356/1/2 383/3/2 382/9/2
f 356/3/3 357/9/3 381/7/3 383/1/3
f 382/1/4 383/3/4 381/9/4 384/7/4
f 363/1/5 384/3/5 381/9/5 357/7/5
f 362/1/6 382/3/6 384/9/6 363/7/6
f 366/3/1 368/9/1 365/7/1 364/1/1
f 366/7/2 364/1/2 385/3/2 387/9/2
f 364/3/3 365/9/3 386/7/3 385/1/3
f 387/1/4 385/3/4 386/9/4 388/7/4
f 368/1/5 388/3/5 386/9/5 365/7/5
f 366/1/6 387/3/6 388/9/6 368/7/6
f 370/3/1 372/9/1 371/7/1 369/1/1
f 370/7/2 369/1/2 389/3/2 390/9/2
f 369/3/3 371/9/3 391/7/3 389/1/3
f 390/1/4 389/3/4 391/9/4 392/7/4
f 372/1/5 392/3/5 391/9/5 371/7/5
f 370/1/6 390/3/6 392/9/6 372/7/6
f 375/3/1 376/9/1 373/7/1 374/1/1
f 375/7/2 374/1/2 394/3/2 395/9/2
f 374/3/3 373/9/3 393/7/3 394/1/3
f 395/1/4 394/3/4 393/9/4 396/7/4
f 376/1/5 396/3/5 393/9/5 373/7/5
f 375/1/6 395/3/6 396/9/6 376/7/6
f 378/3/1 380/9/1 379/7/1 377/1/1
f 378/7/2 377/1/2 397/3/2 398/9/2
f 377/3/3 379/9/3 399/7/3 397/1/3
f 398/1/4 397/3/4 399/9/4 400/7/4
f 380/1/5 400/3/5 399/9/5 379/7/5
f 378/1/6 398/3/6 400/9/6 380/7/6
f 382/3/1 384/9/1 381/7/1 383/1/1
f 382/7/2 383/1/2 403/3/2 405/9/2
f 383/3/3 381/9/3 404/7/3 403/1/3
f 405/1/4 403/3/4 404/9/4 406/7/4
f 384/1/5 406/3/5 404/9/5 381/7/5
f 382/1/6 405/3/6 406/9/6 384/7/6
f 387/3/1 388/9/1 386/7/1 385/1/1
f 387/7/2 385/1/2 408/3/2 411/9/2
f 385/3/3 386/9/3 410/7/3 408/1/3
f 411/1/4 408/3/4 410/9/4 412/7/4
f 388/1/5 412/3/5 410/9/5 386/7/5
f 387/1/6 411/3/6 412/9/6 388/7/6
f 390/3/1 392/9/1 391/7/1 389/1/1
f 390/7/2 389/1/2 413/3/2 414/9/2
f 389/3/3 391/9/3 415/7/3 413/1/3
f 414/1/4 413/3/4 415/9/4 416/7/4
f 392/1/5 416/3/5 415/9/5 391/7/5
f 390/1/6 414/3/6 416/9/6 392/7/6
f 401/3/1 402/9/1 400/7/1 398/1/1
f 401/7/2 398/1/2 419/3/2 421/9/2
f 398/3/3 400/9/3 422/7/3 419/1/3
f 421/1/4 419/3/4 422/9/4 423/7/4
f 402/1/5 423/3/5 422/9/5 400/7/5
f 401/1/6 421/3/6 423/9/6 402/7/6
f 408/3/1 410/9/1 409/7/1 407/1/1
f 408/7/2 407/1/2 428/3/2 430/9/2
f 407/3/3 409/9/3 429/7/3 428/1/3
f 430/1/4 428/3/4 429/9/4 431/7/4
f 410/1/5 431/3/5 429/9/5 409/7/5
f 408/1/6 430/3/6 431/9/6 410/7/6
f 437/3/1 420/9/1 418/7/1 417/1/1
f 437/7/2 417/1/2 438/3/2 439/9/2
f 417/3/3 418/9/3 436/7/3 438/1/3
f 439/1/4 438/3/4 436/9/4 440/7/4
f 420/1/5 440/3/5 436/9/5 418/7/5
f 437/1/6 439/3/6 440/9/6 420/7/6
f 424/3/1 425/9/1 423/7/1 421/1/1
f 424/7/2 421/1/2 441/3/2 442/9/2
f 421/3/3 423/9/3 443/7/3 441/1/3
f 442/1/4 441/3/4 443/9/4 444/7/4
f 425/1/5 444/3/5 443/9/5 423/7/5
f 424/1/6 442/3/6 444/9/6 425/7/6
f 428/3/1 429/9/1 427/7/1 426/1/1
f 428/7/2 426/1/2 449/3/2 453/9/2
f 426/3/3 427/9/3 450/7/3 449/1/3
f 453/1/4 449/3/4 450/9/4 454/7/4
f 429/1/5 454/3/5 450/9/5 427/7/5
f 428/1/6 453/3/6 454/9/6 429/7/6
f 432/3/1 435/9/1 434/7/1 433/1/1
f 432/7/2 433/1/2 456/3/2 457/9/2
f 433/3/3 434/9/3 455/7/3 456/1/3
f 457/1/4 456/3/4 455/9/4 458/7/4
f 435/1/5 458/3/5 455/9/5 434/7/5
f 432/1/6 457/3/6 458/9/6 435/7/6
f 460/3/1 463/9/1 440/7/1 439/1/1
f 460/7/2 439/1/2 461/3/2 462/9/2
f 439/3/3 440/9/3 459/7/3 461/1/3
f 462/1/4 461/3/4 459/9/4 464/7/4
f 463/1/5 464/3/5 459/9/5 440/7/5
f 460/1/6 462/3/6 464/9/6 463/7/6
f 445/3/1 446/9/1 444/7/1 442/1/1
f 445/7/2 442/1/2 465/3/2 466/9/2
f 442/3/3 444/9/3 467/7/3 465/1/3
f 466/1/4 465/3/4 467/9/4 468/7/4
f 446/1/5 468/3/5 467/9/5 444/7/5
f 445/1/6 466/3/6 468/9/6 446/7/6
f 447/3/1 448/9/1 446/7/1 445/1/1
f 447/7/2 445/1/2 466/3/2 469/9/2
f 445/3/3 446/9/3 468/7/3 466/1/3
f 469/1/4 466/3/4 468/9/4 470/7/4
f 448/1/5 470/3/5 468/9/5 446/7/5
f 447/1/6 469/3/6 470/9/6 448/7/6
f 449/3/1 450/9/1 448/7/1 447/1/1
f 449/7/2 447/1/2 469/3/2 471/9/2
f 447/3/3 448/9/3 470/7/3 469/1/3
f 471/1/4 469/3/4 470/9/4 472/7/4
f 450/1/5 472/3/5 470/9/5 448/7/5
f 449/1/6 471/3/6 472/9/6 450/7/6
f 456/3/1 455/9/1 452/7/1 451/1/1
f 456/7/2 451/1/2 473/3/2 474/9/2
f 451/3/3 452/9/3 475/7/3 473/1/3
f 474/1/4 473/3/4 475/9/4 476/7/4
f 455/1/5 476/3/5 475/9/5 452/7/5
f 456/1/6 474/3/6 476/9/6 455/7/6
f 481/3/1 483/9/1 479/7/1 477/1/1
f 481/7/2 477/1/2 478/3/2 482/9/2
f 477/3/3 479/9/3 480/7/3 478/1/3
f 482/1/4 478/3/4 480/9/4 484/7/4
f 483/1/5 484/3/5 480/9/5 479/7/5
f 481/1/6 482/3/6 484/9/6 483/7/6
f 485/3/1 487/9/1 483/7/1 481/1/1
f 485/7/2 481/1/2 482/3/2 486/9/2
f 481/3/3 483/9/3 484/7/3 482/1/3
f 486/1/4 482/3/4 484/9/4 488/7/4
f 487/1/5 488/3/5 484/9/5 483/7/5
f 485/1/6 486/3/6 488/9/6 487/7/6
f 489/3/1 491/9/1 487/7/1 485/1/1
f 489/7/2 485/1/2 486/3/2 490/9/2
f 485/3/3 487/9/3 488/7/3 486/1/3
f 490/1/4 486/3/4 488/9/4 492/7/4
f 491/1/5 492/3/5 488/9/5 487/7/5
f 489/1/6 490/3/6 492/9/6 491/7/6
