mtllib lighthouse.mtl
usemtl oak_leaves
v -3 2 -6
v -3 2 -5
v -2 2 -6
v -2 2 -5
v -3 2.88889 -5
v -3 2.88889 -6
v -2 2.88889 -6
v -2 2.88889 -5
v 1 2 -4
v 1 2 -3
v 1 3 -4
v 1 3 -3
v 1 4 -4
v 1 4 -3
v 2 2 -5
v 2 2 -4
v 2 2 -3
v 2 3 -4
v 2 3 -3
v 2 4 -4
v 2 4 -3
v 3 2 -5
v 3 2 -4
v 2 2.88889 -4
v 2 2.88889 -5
v 3 2.88889 -5
v 3 2.88889 -4
v 4 8 5
v 4 9 5
v 4 8 6
v 4 9 6
v 5 7 5
v 5 8 5
v 5 9 5
v 5 7 6
v 5 8 6
v 5 9 6
v 6 2 -9
v 6 2 -8
v 6 2 -2
v 6 2 -1
v 6 7 5
v 6 7 6
v 6 8 5
v 6 8 6
v 7 2 -9
v 7 1 -8
v 7 2 -8
v 6 2.88889 -8
v 6 2.88889 -9
v 7 2.88889 -9
v 7 2.88889 -8
v 7 0 -7
v 7 1 -7
v 7 2 -7
v 7 0 -6
v 7 1 -6
v 7 2 -2
v 7 2 -1
v 6 2.88889 -1
v 6 2.88889 -2
v 7 2.88889 -2
v 7 2.88889 -1
v 7 2 0
v 7 3 -1
v 7 3 0
v 8 1 -8
v 8 2 -8
v 8 0 -7
v 8 1 -7
v 8 2 -7
v 8 0 -6
v 8 1 -6
v 8 1 -5
v 8 2 -5
v 8 1 -4
v 8 2 -4
v 8 2 -3
v 8 2 -1
v 8 2 0
v 8 3 -1
v 8 3 0
v 8 4 0
v 9 1 -5
v 9 2 -5
v 9 1 -4
v 9 2 -4
v 9 2 -3
v 8 2.88889 -3
v 8 2.88889 -4
v 9 2.88889 -4
v 9 2.88889 -3
v 9 3 -1
v 9 3 0
v 8 4 -1
v 9 4 -1
v 9 4 0
vt 0.000000000 0.000000000
vt 1.000000000 0.000000000
vt 0.000000000 1.000000000
vt 1.000000000 1.000000000
vn -1 0 0
vn 0 -1 0
vn 0 0 -1
vn 1 0 0
vn 0 1 0
vn 0 0 1
f 2/3/2 1/1/2 3/2/2 4/4/2
f 5/1/5 8/2/5 7/4/5 6/3/5
f 10/2/1 12/4/1 11/3/1 9/1/1
f 10/3/2 9/1/2 16/2/2 17/4/2
f 9/2/3 11/4/3 18/3/3 16/1/3
f 17/1/4 16/2/4 18/4/4 19/3/4
f 12/1/5 19/2/5 18/4/5 11/3/5
f 10/1/6 17/2/6 19/4/6 12/3/6
f 12/2/1 14/4/1 13/3/1 11/1/1
f 12/3/2 11/1/2 18/2/2 19/4/2
f 11/2/3 13/4/3 20/3/3 18/1/3
f 19/1/4 18/2/4 20/4/4 21/3/4
f 14/1/5 21/2/5 20/4/5 13/3/5
f 12/1/6 19/2/6 21/4/6 14/3/6
f 16/3/2 15/1/2 22/2/2 23/4/2
f 24/1/5 27/2/5 26/4/5 25/3/5
f 30/2/1 31/4/1 29/3/1 28/1/1
f 30/3/2 28/1/2 33/2/2 36/4/2
f 28/2/3 29/4/3 34/3/3 33/1/3
f 36/1/4 33/2/4 34/4/4 37/3/4
f 31/1/5 37/2/5 34/4/5 29/3/5
f 30/1/6 36/2/6 37/4/6 31/3/6
f 35/2/1 36/4/1 33/3/1 32/1/1
f 35/3/2 32/1/2 42/2/2 43/4/2
f 32/2/3 33/4/3 44/3/3 42/1/3
f 43/1/4 42/2/4 44/4/4 45/3/4
f 36/1/5 45/2/5 44/4/5 33/3/5
f 35/1/6 43/2/6 45/4/6 36/3/6
f 39/3/2 38/1/2 46/2/2 48/4/2
f 49/1/5 52/2/5 51/4/5 50/3/5
f 41/3/2 40/1/2 58/2/2 59/4/2
f 60/1/5 63/2/5 62/4/5 61/3/5
f 54/2/1 55/4/1 48/3/1 47/1/1
f 54/3/2 47/1/2 67/2/2 70/4/2
f 47/2/3 48/4/3 68/3/3 67/1/3
f 70/1/4 67/2/4 68/4/4 71/3/4
f 55/1/5 71/2/5 68/4/5 48/3/5
f 54/1/6 70/2/6 71/4/6 55/3/6
f 56/2/1 57/4/1 54/3/1 53/1/1
f 56/3/2 53/1/2 69/2/2 72/4/2
f 53/2/3 54/4/3 70/3/3 69/1/3
f 72/1/4 69/2/4 70/4/4 73/3/4
f 57/1/5 73/2/5 70/4/5 54/3/5
f 56/1/6 72/2/6 73/4/6 57/3/6
f 64/2/1 66/4/1 65/3/1 59/1/1
f 64/3/2 59/1/2 79/2/2 80/4/2
f 59/2/3 65/4/3 81/3/3 79/1/3
f 80/1/4 79/2/4 81/4/4 82/3/4
f 66/1/5 82/2/5 81/4/5 65/3/5
f 64/1/6 80/2/6 82/4/6 66/3/6
f 76/2/1 77/4/1 75/3/1 74/1/1
f 76/3/2 74/1/2 84/2/2 86/4/2
f 74/2/3 75/4/3 85/3/3 84/1/3
f 86/1/4 84/2/4 85/4/4 87/3/4
f 77/1/5 87/2/5 85/4/5 75/3/5
f 76/1/6 86/2/6 87/4/6 77/3/6
f 78/3/2 77/1/2 87/2/2 88/4/2
f 89/1/5 92/2/5 91/4/5 90/3/5
f 82/2/1 83/4/1 95/3/1 81/1/1
f 82/3/2 81/1/2 93/2/2 94/4/2
f 81/2/3 95/4/3 96/3/3 93/1/3
f 94/1/4 93/2/4 96/4/4 97/3/4
f 83/1/5 97/2/5 96/4/5 95/3/5
f 82/1/6 94/2/6 97/4/6 83/3/6
