mtllib lighthouse.mtl
usemtl purpur_block
v -13 48.5 -8
v -13 48.5 -7
v -13 49 -8
v -13 49 -7
v -12 48.5 -8
v -12 48.5 -7
v -12 49 -8
v -12 49 -7
v -13 47.5 -7
v -13 47.5 -6
v -13 48 -7
v -13 48 -6
v -12 47.5 -7
v -12 47.5 -6
v -12 48 -7
v -12 48 -6
v -12.5 47 -7
v -12.5 47 -6
v -12.5 47.5 -7
v -12.5 47.5 -6
v -12 47 -7
v -12 47 -6
v -12 47.5 -7
v -12 47.5 -6
v -13 49 -7
v -13 49 -6
v -13 49.5 -7
v -13 49.5 -6
v -12 49 -7
v -12 49 -6
v -12 49.5 -7
v -12 49.5 -6
v -13 47.5 -6
v -13 47.5 -5
v -13 48 -6
v -13 48 -5
v -12 47.5 -6
v -12 47.5 -5
v -12 48 -6
v -12 48 -5
v -13 49 -5
v -13 49 -4
v -13 49.5 -5
v -13 49.5 -4
v -12 49 -5
v -12 49 -4
v -12 49.5 -5
v -12 49.5 -4
v -12 47.5 -10
v -12 47.5 -9
v -12 48 -10
v -12 48 -9
v -11 47.5 -10
v -11 47.5 -9
v -11 48 -10
v -11 48 -9
v -12 49 -8
v -12 49 -7
v -12 49.5 -8
v -12 49.5 -7
v -11 49 -8
v -11 49 -7
v -11 49.5 -8
v -11 49.5 -7
v -12 50 -6
v -12 50 -5
v -12 50.5 -6
v -12 50.5 -5
v -11 50 -6
v -11 50 -5
v -11 50.5 -6
v -11 50.5 -5
v -12 47.5 -5
v -12 47.5 -4
v -12 48 -5
v -12 48 -4
v -11 47.5 -5
v -11 47.5 -4
v -11 48 -5
v -11 48 -4
v -11 47.5 -9
v -11 47.5 -8
v -11 48 -9
v -11 48 -8
v -10 47.5 -9
v -10 47.5 -8
v -10 48 -9
v -10 48 -8
v -11 48 -9
v -11 48 -8
v -11 48.5 -9
v -11 48.5 -8
v -10 48 -9
v -10 48 -8
v -10 48.5 -9
v -10 48.5 -8
v -11 50 -7
v -11 50 -6
v -11 50.5 -7
v -11 50.5 -6
v -10 50 -7
v -10 50 -6
v -10 50.5 -7
v -10 50.5 -6
v -11 47.5 -5
v -11 47.5 -4
v -11 48 -5
v -11 48 -4
v -10 47.5 -5
v -10 47.5 -4
v -10 48 -5
v -10 48 -4
v -11 47 -5
v -11 47 -4.5
v -11 47.5 -5
v -11 47.5 -4.5
v -10 47 -5
v -10 47 -4.5
v -10 47.5 -5
v -10 47.5 -4.5
v -11 49 -5
v -11 49 -4
v -11 49.5 -5
v -11 49.5 -4
v -10 49 -5
v -10 49 -4
v -10 49.5 -5
v -10 49.5 -4
v -10 49 -8
v -10 49 -7
v -10 49.5 -8
v -10 49.5 -7
v -9 49 -8
v -9 49 -7
v -9 49.5 -8
v -9 49.5 -7
v -10 50.5 -8
v -10 50.5 -7
v -10 51 -8
v -10 51 -7
v -9 50.5 -8
v -9 50.5 -7
v -9 51 -8
v -9 51 -7
v -10 49 -6
v -10 49 -5
v -10 49.5 -6
v -10 49.5 -5
v -9 49 -6
v -9 49 -5
v -9 49.5 -6
v -9 49.5 -5
v -10 48.5 -5
v -10 48.5 -4
v -10 49 -5
v -10 49 -4
v -9 48.5 -5
v -9 48.5 -4
v -9 49 -5
v -9 49 -4
v -9 49 -9
v -9 49 -8
v -9 49.5 -9
v -9 49.5 -8
v -8 49 -9
v -8 49 -8
v -8 49.5 -9
v -8 49.5 -8
v -9 47.5 -7
v -9 47.5 -6
v -9 48 -7
v -9 48 -6
v -8 47.5 -7
v -8 47.5 -6
v -8 48 -7
v -8 48 -6
v -9 48 -7
v -9 48 -6
v -9 48.5 -7
v -9 48.5 -6
v -8 48 -7
v -8 48 -6
v -8 48.5 -7
v -8 48.5 -6
v -8 49 -10
v -8 49 -9
v -8 49.5 -10
v -8 49.5 -9
v -7 49 -10
v -7 49 -9
v -7 49.5 -10
v -7 49.5 -9
v -8 47.5 -6
v -8 47.5 -5
v -8 48 -6
v -8 48 -5
v -7 47.5 -6
v -7 47.5 -5
v -7 48 -6
v -7 48 -5
v -7 46.5 -10
v -7 46.5 -9
v -7 47 -10
v -7 47 -9
v -6 46.5 -10
v -6 46.5 -9
v -6 47 -10
v -6 47 -9
v -7 50 -10
v -7 50 -9
v -7 50.5 -10
v -7 50.5 -9
v -6 50 -10
v -6 50 -9
v -6 50.5 -10
v -6 50.5 -9
v -6 47 -11
v -6 47 -10
v -6 47.5 -11
v -6 47.5 -10
v -5 47 -11
v -5 47 -10
v -5 47.5 -11
v -5 47.5 -10
v -6 49.5 -11
v -6 49.5 -10
v -6 50 -11
v -6 50 -10
v -5 49.5 -11
v -5 49.5 -10
v -5 50 -11
v -5 50 -10
v -6 50 -11
v -6 50 -10
v -6 50.5 -11
v -6 50.5 -10
v -5 50 -11
v -5 50 -10
v -5 50.5 -11
v -5 50.5 -10
v -5 45.5 -12
v -5 45.5 -11
v -5 46 -12
v -5 46 -11
v -4 45.5 -12
v -4 45.5 -11
v -4 46 -12
v -4 46 -11
v -13 48 -6
v -13 49 -6
v -12 48 -6
v -12 48 -7
v -12 49 -7
v -12 49 -6
v -13 48 -5
v -13 49 -5
v -12 48 -5
v -12 49 -5
v -13 50 -5
v -13 50 -6
v -12 50 -6
v -12 50 -5
v -13 48 -4
v -13 49 -4
v -12 48 -4
v -12 49 -4
v -12 48 -8
v -12 49 -8
v -11 48 -7
v -11 48 -8
v -11 49 -8
v -11 49 -7
v -12 47 -7
v -12 47 -6
v -11 47 -6
v -11 47 -7
v -11 48 -6
v -11 49 -6
v -12 50 -7
v -11 50 -7
v -11 50 -6
v -12 47 -5
v -11 47 -5
v -11 48 -5
v -11 49 -5
v -11 50 -5
v -11 48 -4
v -11 49 -4
v -12 50 -4
v -11 50 -4
v -11 47 -11
v -11 47 -10
v -11 48 -10
v -11 48 -11
v -10 47 -10
v -10 47 -11
v -10 48 -11
v -10 48 -10
v -11 47 -8
v -10 47 -7
v -10 47 -8
v -10 48 -8
v -10 48 -7
v -10 49 -8
v -10 49 -7
v -10 47 -6
v -10 48 -6
v -10 49 -6
v -10 50 -7
v -10 50 -6
v -10 47 -5
v -10 48 -5
v -10 49 -5
v -10 50 -5
v -10 47 -9
v -10 48 -9
v -9 47 -8
v -9 47 -9
v -9 48 -9
v -9 48 -8
v -10 49 -9
v -9 49 -9
v -9 49 -8
v -9 47 -7
v -9 48 -7
v -9 49 -7
v -9 47 -6
v -9 48 -6
v -9 49 -6
v -9 48 -5
v -9 49 -5
v -9 47 -10
v -9 48 -10
v -8 47 -9
v -8 47 -10
v -8 48 -10
v -8 48 -9
v -9 49 -10
v -8 49 -10
v -8 49 -9
v -8 47 -8
v -8 48 -8
v -8 49 -8
v -8 47 -7
v -8 48 -7
v -8 49 -7
v -7 47 -9
v -7 47 -10
v -7 48 -10
v -7 48 -9
v -7 49 -10
v -7 49 -9
v -6 47 -9
v -6 47 -10
v -6 48 -10
v -6 48 -9
v -6 49 -10
v -6 49 -9
v -7 50 -9
v -7 50 -10
v -6 50 -10
v -6 50 -9
v -7 47 -7
v -7 47 -6
v -7 48 -6
v -7 48 -7
v -6 47 -6
v -6 47 -7
v -6 48 -7
v -6 48 -6
v -6 46 -11
v -6 46 -10
v -6 47 -11
v -5 46 -10
v -5 46 -11
v -5 47 -11
v -5 47 -10
v -5 50 -11
v -5 50 -10
v -5 51 -10
v -5 51 -11
v -4 50 -10
v -4 50 -11
v -4 51 -11
v -4 51 -10
vt 0.000000000 0.000000000
vt 0.500000000 0.000000000
vt 1.000000000 0.000000000
vt 0.000000000 0.500000000
vt 0.500000000 0.500000000
vt 1.000000000 0.500000000
vt 0.000000000 1.000000000
vt 0.500000000 1.000000000
vt 1.000000000 1.000000000
vn -1 0 0
vn 0 -1 0
vn 0 0 -1
vn 1 0 0
vn 0 1 0
vn 0 0 1
f 3/7/1 1/4/1 2/6/1 4/9/1
f 2/7/2 1/1/2 5/3/2 6/9/2
f 7/7/3 5/4/3 1/6/3 3/9/3
f 7/9/4 8/7/4 6/4/4 5/6/4
f 7/9/5 3/7/5 4/1/5 8/3/5
f 8/9/6 4/7/6 2/4/6 6/6/6
f 11/7/1 9/4/1 10/6/1 12/9/1
f 10/7/2 9/1/2 13/3/2 14/9/2
f 15/7/3 13/4/3 9/6/3 11/9/3
f 15/9/4 16/7/4 14/4/4 13/6/4
f 15/9/5 11/7/5 12/1/5 16/3/5
f 16/9/6 12/7/6 10/4/6 14/6/6
f 19/4/1 17/1/1 18/3/1 20/6/1
f 18/8/2 17/2/2 21/3/2 22/9/2
f 23/4/3 21/1/3 17/2/3 19/5/3
f 23/6/4 24/4/4 22/1/4 21/3/4
f 24/6/6 20/5/6 18/2/6 22/3/6
f 27/4/1 25/1/1 26/3/1 28/6/1
f 26/7/2 25/1/2 29/3/2 30/9/2
f 31/4/3 29/1/3 25/3/3 27/6/3
f 31/6/4 32/4/4 30/1/4 29/3/4
f 31/9/5 27/7/5 28/1/5 32/3/5
f 32/6/6 28/4/6 26/1/6 30/3/6
f 35/7/1 33/4/1 34/6/1 36/9/1
f 34/7/2 33/1/2 37/3/2 38/9/2
f 39/7/3 37/4/3 33/6/3 35/9/3
f 39/9/4 40/7/4 38/4/4 37/6/4
f 39/9/5 35/7/5 36/1/5 40/3/5
f 40/9/6 36/7/6 34/4/6 38/6/6
f 43/4/1 41/1/1 42/3/1 44/6/1
f 42/7/2 41/1/2 45/3/2 46/9/2
f 47/4/3 45/1/3 41/3/3 43/6/3
f 47/6/4 48/4/4 46/1/4 45/3/4
f 47/9/5 43/7/5 44/1/5 48/3/5
f 48/6/6 44/4/6 42/1/6 46/3/6
f 51/7/1 49/4/1 50/6/1 52/9/1
f 50/7/2 49/1/2 53/3/2 54/9/2
f 55/7/3 53/4/3 49/6/3 51/9/3
f 55/9/4 56/7/4 54/4/4 53/6/4
f 55/9/5 51/7/5 52/1/5 56/3/5
f 56/9/6 52/7/6 50/4/6 54/6/6
f 59/4/1 57/1/1 58/3/1 60/6/1
f 58/7/2 57/1/2 61/3/2 62/9/2
f 63/4/3 61/1/3 57/3/3 59/6/3
f 63/6/4 64/4/4 62/1/4 61/3/4
f 63/9/5 59/7/5 60/1/5 64/3/5
f 64/6/6 60/4/6 58/1/6 62/3/6
f 67/4/1 65/1/1 66/3/1 68/6/1
f 66/7/2 65/1/2 69/3/2 70/9/2
f 71/4/3 69/1/3 65/3/3 67/6/3
f 71/6/4 72/4/4 70/1/4 69/3/4
f 71/9/5 67/7/5 68/1/5 72/3/5
f 72/6/6 68/4/6 66/1/6 70/3/6
f 75/7/1 73/4/1 74/6/1 76/9/1
f 74/7/2 73/1/2 77/3/2 78/9/2
f 79/7/3 77/4/3 73/6/3 75/9/3
f 79/9/4 80/7/4 78/4/4 77/6/4
f 79/9/5 75/7/5 76/1/5 80/3/5
f 80/9/6 76/7/6 74/4/6 78/6/6
f 83/7/1 81/4/1 82/6/1 84/9/1
f 82/7/2 81/1/2 85/3/2 86/9/2
f 87/7/3 85/4/3 81/6/3 83/9/3
f 87/9/4 88/7/4 86/4/4 85/6/4
f 87/9/5 83/7/5 84/1/5 88/3/5
f 88/9/6 84/7/6 82/4/6 86/6/6
f 91/4/1 89/1/1 90/3/1 92/6/1
f 90/7/2 89/1/2 93/3/2 94/9/2
f 95/4/3 93/1/3 89/3/3 91/6/3
f 95/6/4 96/4/4 94/1/4 93/3/4
f 95/9/5 91/7/5 92/1/5 96/3/5
f 96/6/6 92/4/6 90/1/6 94/3/6
f 99/4/1 97/1/1 98/3/1 100/6/1
f 98/7/2 97/1/2 101/3/2 102/9/2
f 103/4/3 101/1/3 97/3/3 99/6/3
f 103/6/4 104/4/4 102/1/4 101/3/4
f 103/9/5 99/7/5 100/1/5 104/3/5
f 104/6/6 100/4/6 98/1/6 102/3/6
f 107/7/1 105/4/1 106/6/1 108/9/1
f 106/7/2 105/1/2 109/3/2 110/9/2
f 111/7/3 109/4/3 105/6/3 107/9/3
f 111/9/4 112/7/4 110/4/4 109/6/4
f 111/9/5 107/7/5 108/1/5 112/3/5
f 112/9/6 108/7/6 106/4/6 110/6/6
f 115/4/1 113/1/1 114/2/1 116/5/1
f 114/7/2 113/4/2 117/6/2 118/9/2
f 119/4/3 117/1/3 113/3/3 115/6/3
f 119/6/4 120/5/4 118/2/4 117/3/4
f 120/6/6 116/4/6 114/1/6 118/3/6
f 123/4/1 121/1/1 122/3/1 124/6/1
f 122/7/2 121/1/2 125/3/2 126/9/2
f 127/4/3 125/1/3 121/3/3 123/6/3
f 127/6/4 128/4/4 126/1/4 125/3/4
f 127/9/5 123/7/5 124/1/5 128/3/5
f 128/6/6 124/4/6 122/1/6 126/3/6
f 131/4/1 129/1/1 130/3/1 132/6/1
f 130/7/2 129/1/2 133/3/2 134/9/2
f 135/4/3 133/1/3 129/3/3 131/6/3
f 135/6/4 136/4/4 134/1/4 133/3/4
f 135/9/5 131/7/5 132/1/5 136/3/5
f 136/6/6 132/4/6 130/1/6 134/3/6
f 139/7/1 137/4/1 138/6/1 140/9/1
f 138/7/2 137/1/2 141/3/2 142/9/2
f 143/7/3 141/4/3 137/6/3 139/9/3
f 143/9/4 144/7/4 142/4/4 141/6/4
f 143/9/5 139/7/5 140/1/5 144/3/5
f 144/9/6 140/7/6 138/4/6 142/6/6
f 147/4/1 145/1/1 146/3/1 148/6/1
f 146/7/2 145/1/2 149/3/2 150/9/2
f 151/4/3 149/1/3 145/3/3 147/6/3
f 151/6/4 152/4/4 150/1/4 149/3/4
f 151/9/5 147/7/5 148/1/5 152/3/5
f 152/6/6 148/4/6 146/1/6 150/3/6
f 155/7/1 153/4/1 154/6/1 156/9/1
f 154/7/2 153/1/2 157/3/2 158/9/2
f 159/7/3 157/4/3 153/6/3 155/9/3
f 159/9/4 160/7/4 158/4/4 157/6/4
f 159/9/5 155/7/5 156/1/5 160/3/5
f 160/9/6 156/7/6 154/4/6 158/6/6
f 163/4/1 161/1/1 162/3/1 164/6/1
f 162/7/2 161/1/2 165/3/2 166/9/2
f 167/4/3 165/1/3 161/3/3 163/6/3
f 167/6/4 168/4/4 166/1/4 165/3/4
f 167/9/5 163/7/5 164/1/5 168/3/5
f 168/6/6 164/4/6 162/1/6 166/3/6
f 171/7/1 169/4/1 170/6/1 172/9/1
f 170/7/2 169/1/2 173/3/2 174/9/2
f 175/7/3 173/4/3 169/6/3 171/9/3
f 175/9/4 176/7/4 174/4/4 173/6/4
f 175/9/5 171/7/5 172/1/5 176/3/5
f 176/9/6 172/7/6 170/4/6 174/6/6
f 179/4/1 177/1/1 178/3/1 180/6/1
f 178/7/2 177/1/2 181/3/2 182/9/2
f 183/4/3 181/1/3 177/3/3 179/6/3
f 183/6/4 184/4/4 182/1/4 181/3/4
f 183/9/5 179/7/5 180/1/5 184/3/5
f 184/6/6 180/4/6 178/1/6 182/3/6
f 187/4/1 185/1/1 186/3/1 188/6/1
f 186/7/2 185/1/2 189/3/2 190/9/2
f 191/4/3 189/1/3 185/3/3 187/6/3
f 191/6/4 192/4/4 190/1/4 189/3/4
f 191/9/5 187/7/5 188/1/5 192/3/5
f 192/6/6 188/4/6 186/1/6 190/3/6
f 195/7/1 193/4/1 194/6/1 196/9/1
f 194/7/2 193/1/2 197/3/2 198/9/2
f 199/7/3 197/4/3 193/6/3 195/9/3
f 199/9/4 200/7/4 198/4/4 197/6/4
f 199/9/5 195/7/5 196/1/5 200/3/5
f 200/9/6 196/7/6 194/4/6 198/6/6
f 203/7/1 201/4/1 202/6/1 204/9/1
f 202/7/2 201/1/2 205/3/2 206/9/2
f 207/7/3 205/4/3 201/6/3 203/9/3
f 207/9/4 208/7/4 206/4/4 205/6/4
f 207/9/5 203/7/5 204/1/5 208/3/5
f 208/9/6 204/7/6 202/4/6 206/6/6
f 211/4/1 209/1/1 210/3/1 212/6/1
f 210/7/2 209/1/2 213/3/2 214/9/2
f 215/4/3 213/1/3 209/3/3 211/6/3
f 215/6/4 216/4/4 214/1/4 213/3/4
f 215/9/5 211/7/5 212/1/5 216/3/5
f 216/6/6 212/4/6 210/1/6 214/3/6
f 219/4/1 217/1/1 218/3/1 220/6/1
f 218/7/2 217/1/2 221/3/2 222/9/2
f 223/4/3 221/1/3 217/3/3 219/6/3
f 223/6/4 224/4/4 222/1/4 221/3/4
f 223/9/5 219/7/5 220/1/5 224/3/5
f 224/6/6 220/4/6 218/1/6 222/3/6
f 227/7/1 225/4/1 226/6/1 228/9/1
f 226/7/2 225/1/2 229/3/2 230/9/2
f 231/7/3 229/4/3 225/6/3 227/9/3
f 231/9/4 232/7/4 230/4/4 229/6/4
f 231/9/5 227/7/5 228/1/5 232/3/5
f 232/9/6 228/7/6 226/4/6 230/6/6
f 235/4/1 233/1/1 234/3/1 236/6/1
f 234/7/2 233/1/2 237/3/2 238/9/2
f 239/4/3 237/1/3 233/3/3 235/6/3
f 239/6/4 240/4/4 238/1/4 237/3/4
f 239/9/5 235/7/5 236/1/5 240/3/5
f 240/6/6 236/4/6 234/1/6 238/3/6
f 243/7/1 241/4/1 242/6/1 244/9/1
f 242/7/2 241/1/2 245/3/2 246/9/2
f 247/7/3 245/4/3 241/6/3 243/9/3
f 247/9/4 248/7/4 246/4/4 245/6/4
f 247/9/5 243/7/5 244/1/5 248/3/5
f 248/9/6 244/7/6 242/4/6 246/6/6
f 255/3/1 256/9/1 250/7/1 249/1/1
f 255/7/2 249/1/2 251/3/2 257/9/2
f 249/3/3 250/9/3 254/7/3 251/1/3
f 257/1/4 251/3/4 254/9/4 258/7/4
f 256/1/5 258/3/5 254/9/5 250/7/5
f 255/1/6 257/3/6 258/9/6 256/7/6
f 256/3/1 259/9/1 260/7/1 250/1/1
f 256/7/2 250/1/2 254/3/2 258/9/2
f 250/3/3 260/9/3 261/7/3 254/1/3
f 258/1/4 254/3/4 261/9/4 262/7/4
f 259/1/5 262/3/5 261/9/5 260/7/5
f 256/1/6 258/3/6 262/9/6 259/7/6
f 263/3/1 264/9/1 256/7/1 255/1/1
f 263/7/2 255/1/2 257/3/2 265/9/2
f 255/3/3 256/9/3 258/7/3 257/1/3
f 265/1/4 257/3/4 258/9/4 266/7/4
f 264/1/5 266/3/5 258/9/5 256/7/5
f 263/1/6 265/3/6 266/9/6 264/7/6
f 252/3/1 253/9/1 268/7/1 267/1/1
f 252/7/2 267/1/2 270/3/2 269/9/2
f 267/3/3 268/9/3 271/7/3 270/1/3
f 269/1/4 270/3/4 271/9/4 272/7/4
f 253/1/5 272/3/5 271/9/5 268/7/5
f 252/1/6 269/3/6 272/9/6 253/7/6
f 274/3/1 251/9/1 252/7/1 273/1/1
f 274/7/2 273/1/2 276/3/2 275/9/2
f 273/3/3 252/9/3 269/7/3 276/1/3
f 275/1/4 276/3/4 269/9/4 277/7/4
f 251/1/5 277/3/5 269/9/5 252/7/5
f 274/1/6 275/3/6 277/9/6 251/7/6
f 251/3/1 254/9/1 253/7/1 252/1/1
f 251/7/2 252/1/2 269/3/2 277/9/2
f 252/3/3 253/9/3 272/7/3 269/1/3
f 277/1/4 269/3/4 272/9/4 278/7/4
f 254/1/5 278/3/5 272/9/5 253/7/5
f 251/1/6 277/3/6 278/9/6 254/7/6
f 254/3/1 261/9/1 279/7/1 253/1/1
f 254/7/2 253/1/2 272/3/2 278/9/2
f 253/3/3 279/9/3 280/7/3 272/1/3
f 278/1/4 272/3/4 280/9/4 281/7/4
f 261/1/5 281/3/5 280/9/5 279/7/5
f 254/1/6 278/3/6 281/9/6 261/7/6
f 282/3/1 257/9/1 251/7/1 274/1/1
f 282/7/2 274/1/2 275/3/2 283/9/2
f 274/3/3 251/9/3 277/7/3 275/1/3
f 283/1/4 275/3/4 277/9/4 284/7/4
f 257/1/5 284/3/5 277/9/5 251/7/5
f 282/1/6 283/3/6 284/9/6 257/7/6
f 257/3/1 258/9/1 254/7/1 251/1/1
f 257/7/2 251/1/2 277/3/2 284/9/2
f 251/3/3 254/9/3 278/7/3 277/1/3
f 284/1/4 277/3/4 278/9/4 285/7/4
f 258/1/5 285/3/5 278/9/5 254/7/5
f 257/1/6 284/3/6 285/9/6 258/7/6
f 258/3/1 262/9/1 261/7/1 254/1/1
f 258/7/2 254/1/2 278/3/2 285/9/2
f 254/3/3 261/9/3 281/7/3 278/1/3
f 285/1/4 278/3/4 281/9/4 286/7/4
f 262/1/5 286/3/5 281/9/5 261/7/5
f 258/1/6 285/3/6 286/9/6 262/7/6
f 265/3/1 266/9/1 258/7/1 257/1/1
f 265/7/2 257/1/2 284/3/2 287/9/2
f 257/3/3 258/9/3 285/7/3 284/1/3
f 287/1/4 284/3/4 285/9/4 288/7/4
f 266/1/5 288/3/5 285/9/5 258/7/5
f 265/1/6 287/3/6 288/9/6 266/7/6
f 266/3/1 289/9/1 262/7/1 258/1/1
f 266/7/2 258/1/2 285/3/2 288/9/2
f 258/3/3 262/9/3 286/7/3 285/1/3
f 288/1/4 285/3/4 286/9/4 290/7/4
f 289/1/5 290/3/5 286/9/5 262/7/5
f 266/1/6 288/3/6 290/9/6 289/7/6
f 292/3/1 293/9/1 294/7/1 291/1/1
f 292/7/2 291/1/2 296/3/2 295/9/2
f 291/3/3 294/9/3 297/7/3 296/1/3
f 295/1/4 296/3/4 297/9/4 298/7/4
f 293/1/5 298/3/5 297/9/5 294/7/5
f 292/1/6 295/3/6 298/9/6 293/7/6
f 276/3/1 269/9/1 270/7/1 299/1/1
f 276/7/2 299/1/2 301/3/2 300/9/2
f 299/3/3 270/9/3 302/7/3 301/1/3
f 300/1/4 301/3/4 302/9/4 303/7/4
f 269/1/5 303/3/5 302/9/5 270/7/5
f 276/1/6 300/3/6 303/9/6 269/7/6
f 269/3/1 272/9/1 271/7/1 270/1/1
f 269/7/2 270/1/2 302/3/2 303/9/2
f 270/3/3 271/9/3 304/7/3 302/1/3
f 303/1/4 302/3/4 304/9/4 305/7/4
f 272/1/5 305/3/5 304/9/5 271/7/5
f 269/1/6 303/3/6 305/9/6 272/7/6
f 275/3/1 277/9/1 269/7/1 276/1/1
f 275/7/2 276/1/2 300/3/2 306/9/2
f 276/3/3 269/9/3 303/7/3 300/1/3
f 306/1/4 300/3/4 303/9/4 307/7/4
f 277/1/5 307/3/5 303/9/5 269/7/5
f 275/1/6 306/3/6 307/9/6 277/7/6
f 277/3/1 278/9/1 272/7/1 269/1/1
f 277/7/2 269/1/2 303/3/2 307/9/2
f 269/3/3 272/9/3 305/7/3 303/1/3
f 307/1/4 303/3/4 305/9/4 308/7/4
f 278/1/5 308/3/5 305/9/5 272/7/5
f 277/1/6 307/3/6 308/9/6 278/7/6
f 278/3/1 281/9/1 280/7/1 272/1/1
f 278/7/2 272/1/2 305/3/2 308/9/2
f 272/3/3 280/9/3 309/7/3 305/1/3
f 308/1/4 305/3/4 309/9/4 310/7/4
f 281/1/5 310/3/5 309/9/5 280/7/5
f 278/1/6 308/3/6 310/9/6 281/7/6
f 283/3/1 284/9/1 277/7/1 275/1/1
f 283/7/2 275/1/2 306/3/2 311/9/2
f 275/3/3 277/9/3 307/7/3 306/1/3
f 311/1/4 306/3/4 307/9/4 312/7/4
f 284/1/5 312/3/5 307/9/5 277/7/5
f 283/1/6 311/3/6 312/9/6 284/7/6
f 284/3/1 285/9/1 278/7/1 277/1/1
f 284/7/2 277/1/2 307/3/2 312/9/2
f 277/3/3 278/9/3 308/7/3 307/1/3
f 312/1/4 307/3/4 308/9/4 313/7/4
f 285/1/5 313/3/5 308/9/5 278/7/5
f 284/1/6 312/3/6 313/9/6 285/7/6
f 285/3/1 286/9/1 281/7/1 278/1/1
f 285/7/2 278/1/2 308/3/2 313/9/2
f 278/3/3 281/9/3 310/7/3 308/1/3
f 313/1/4 308/3/4 310/9/4 314/7/4
f 286/1/5 314/3/5 310/9/5 281/7/5
f 285/1/6 313/3/6 314/9/6 286/7/6
f 301/3/1 302/9/1 316/7/1 315/1/1
f 301/7/2 315/1/2 318/3/2 317/9/2
f 315/3/3 316/9/3 319/7/3 318/1/3
f 317/1/4 318/3/4 319/9/4 320/7/4
f 302/1/5 320/3/5 319/9/5 316/7/5
f 301/1/6 317/3/6 320/9/6 302/7/6
f 302/3/1 304/9/1 321/7/1 316/1/1
f 302/7/2 316/1/2 319/3/2 320/9/2
f 316/3/3 321/9/3 322/7/3 319/1/3
f 320/1/4 319/3/4 322/9/4 323/7/4
f 304/1/5 323/3/5 322/9/5 321/7/5
f 302/1/6 320/3/6 323/9/6 304/7/6
f 300/3/1 303/9/1 302/7/1 301/1/1
f 300/7/2 301/1/2 317/3/2 324/9/2
f 301/3/3 302/9/3 320/7/3 317/1/3
f 324/1/4 317/3/4 320/9/4 325/7/4
f 303/1/5 325/3/5 320/9/5 302/7/5
f 300/1/6 324/3/6 325/9/6 303/7/6
f 303/3/1 305/9/1 304/7/1 302/1/1
f 303/7/2 302/1/2 320/3/2 325/9/2
f 302/3/3 304/9/3 323/7/3 320/1/3
f 325/1/4 320/3/4 323/9/4 326/7/4
f 305/1/5 326/3/5 323/9/5 304/7/5
f 303/1/6 325/3/6 326/9/6 305/7/6
f 306/3/1 307/9/1 303/7/1 300/1/1
f 306/7/2 300/1/2 324/3/2 327/9/2
f 300/3/3 303/9/3 325/7/3 324/1/3
f 327/1/4 324/3/4 325/9/4 328/7/4
f 307/1/5 328/3/5 325/9/5 303/7/5
f 306/1/6 327/3/6 328/9/6 307/7/6
f 307/3/1 308/9/1 305/7/1 303/1/1
f 307/7/2 303/1/2 325/3/2 328/9/2
f 303/3/3 305/9/3 326/7/3 325/1/3
f 328/1/4 325/3/4 326/9/4 329/7/4
f 308/1/5 329/3/5 326/9/5 305/7/5
f 307/1/6 328/3/6 329/9/6 308/7/6
f 312/3/1 313/9/1 308/7/1 307/1/1
f 312/7/2 307/1/2 328/3/2 330/9/2
f 307/3/3 308/9/3 329/7/3 328/1/3
f 330/1/4 328/3/4 329/9/4 331/7/4
f 313/1/5 331/3/5 329/9/5 308/7/5
f 312/1/6 330/3/6 331/9/6 313/7/6
f 318/3/1 319/9/1 333/7/1 332/1/1
f 318/7/2 332/1/2 335/3/2 334/9/2
f 332/3/3 333/9/3 336/7/3 335/1/3
f 334/1/4 335/3/4 336/9/4 337/7/4
f 319/1/5 337/3/5 336/9/5 333/7/5
f 318/1/6 334/3/6 337/9/6 319/7/6
f 319/3/1 322/9/1 338/7/1 333/1/1
f 319/7/2 333/1/2 336/3/2 337/9/2
f 333/3/3 338/9/3 339/7/3 336/1/3
f 337/1/4 336/3/4 339/9/4 340/7/4
f 322/1/5 340/3/5 339/9/5 338/7/5
f 319/1/6 337/3/6 340/9/6 322/7/6
f 317/3/1 320/9/1 319/7/1 318/1/1
f 317/7/2 318/1/2 334/3/2 341/9/2
f 318/3/3 319/9/3 337/7/3 334/1/3
f 341/1/4 334/3/4 337/9/4 342/7/4
f 320/1/5 342/3/5 337/9/5 319/7/5
f 317/1/6 341/3/6 342/9/6 320/7/6
f 320/3/1 323/9/1 322/7/1 319/1/1
f 320/7/2 319/1/2 337/3/2 342/9/2
f 319/3/3 322/9/3 340/7/3 337/1/3
f 342/1/4 337/3/4 340/9/4 343/7/4
f 323/1/5 343/3/5 340/9/5 322/7/5
f 320/1/6 342/3/6 343/9/6 323/7/6
f 324/3/1 325/9/1 320/7/1 317/1/1
f 324/7/2 317/1/2 341/3/2 344/9/2
f 317/3/3 320/9/3 342/7/3 341/1/3
f 344/1/4 341/3/4 342/9/4 345/7/4
f 325/1/5 345/3/5 342/9/5 320/7/5
f 324/1/6 344/3/6 345/9/6 325/7/6
f 325/3/1 326/9/1 323/7/1 320/1/1
f 325/7/2 320/1/2 342/3/2 345/9/2
f 320/3/3 323/9/3 343/7/3 342/1/3
f 345/1/4 342/3/4 343/9/4 346/7/4
f 326/1/5 346/3/5 343/9/5 323/7/5
f 325/1/6 345/3/6 346/9/6 326/7/6
f 334/3/1 337/9/1 336/7/1 335/1/1
f 334/7/2 335/1/2 348/3/2 347/9/2
f 335/3/3 336/9/3 349/7/3 348/1/3
f 347/1/4 348/3/4 349/9/4 350/7/4
f 337/1/5 350/3/5 349/9/5 336/7/5
f 334/1/6 347/3/6 350/9/6 337/7/6
f 337/3/1 340/9/1 339/7/1 336/1/1
f 337/7/2 336/1/2 349/3/2 350/9/2
f 336/3/3 339/9/3 351/7/3 349/1/3
f 350/1/4 349/3/4 351/9/4 352/7/4
f 340/1/5 352/3/5 351/9/5 339/7/5
f 337/1/6 350/3/6 352/9/6 340/7/6
f 347/3/1 350/9/1 349/7/1 348/1/1
f 347/7/2 348/1/2 354/3/2 353/9/2
f 348/3/3 349/9/3 355/7/3 354/1/3
f 353/1/4 354/3/4 355/9/4 356/7/4
f 350/1/5 356/3/5 355/9/5 349/7/5
f 347/1/6 353/3/6 356/9/6 350/7/6
f 352/3/1 359/9/1 360/7/1 351/1/1
f 352/7/2 351/1/2 357/3/2 358/9/2
f 351/3/3 360/9/3 361/7/3 357/1/3
f 358/1/4 357/3/4 361/9/4 362/7/4
f 359/1/5 362/3/5 361/9/5 360/7/5
f 352/1/6 358/3/6 362/9/6 359/7/6
f 364/3/1 365/9/1 366/7/1 363/1/1
f 364/7/2 363/1/2 368/3/2 367/9/2
f 363/3/3 366/9/3 369/7/3 368/1/3
f 367/1/4 368/3/4 369/9/4 370/7/4
f 365/1/5 370/3/5 369/9/5 366/7/5
f 364/1/6 367/3/6 370/9/6 365/7/6
f 372/3/1 354/9/1 373/7/1 371/1/1
f 372/7/2 371/1/2 375/3/2 374/9/2
f 371/3/3 373/9/3 376/7/3 375/1/3
f 374/1/4 375/3/4 376/9/4 377/7/4
f 354/1/5 377/3/5 376/9/5 373/7/5
f 372/1/6 374/3/6 377/9/6 354/7/6
f 379/3/1 380/9/1 381/7/1 378/1/1
f 379/7/2 378/1/2 383/3/2 382/9/2
f 378/3/3 381/9/3 384/7/3 383/1/3
f 382/1/4 383/3/4 384/9/4 385/7/4
f 380/1/5 385/3/5 384/9/5 381/7/5
f 379/1/6 382/3/6 385/9/6 380/7/6
