mtllib lighthouse.mtl
usemtl tall_seagrass_top
v -3.75 1 -15
v -3.75 1 -14
v -3.75 2 -14
v -3.75 2 -15
v -3.25 1 -15
v -3.25 1 -14
v -3.25 2 -14
v -3.25 2 -15
v -4 1 -14.75
v -3 1 -14.75
v -3 2 -14.75
v -4 2 -14.75
v -4 1 -14.25
v -3 1 -14.25
v -3 2 -14.25
v -4 2 -14.25
v -2.75 1 -14
v -2.75 1 -13
v -2.75 2 -13
v -2.75 2 -14
v -2.25 1 -14
v -2.25 1 -13
v -2.25 2 -13
v -2.25 2 -14
v -3 1 -13.75
v -2 1 -13.75
v -2 2 -13.75
v -3 2 -13.75
v -3 1 -13.25
v -2 1 -13.25
v -2 2 -13.25
v -3 2 -13.25
v -2.75 1 -10
v -2.75 1 -9
v -2.75 2 -9
v -2.75 2 -10
v -2.25 1 -10
v -2.25 1 -9
v -2.25 2 -9
v -2.25 2 -10
v -3 1 -9.75
v -2 1 -9.75
v -2 2 -9.75
v -3 2 -9.75
v -3 1 -9.25
v -2 1 -9.25
v -2 2 -9.25
v -3 2 -9.25
v -2.75 2 -9
v -2.75 2 -8
v -2.75 3 -8
v -2.75 3 -9
v -2.25 2 -9
v -2.25 2 -8
v -2.25 3 -8
v -2.25 3 -9
v -3 2 -8.75
v -2 2 -8.75
v -2 3 -8.75
v -3 3 -8.75
v -3 2 -8.25
v -2 2 -8.25
v -2 3 -8.25
v -3 3 -8.25
v -1.75 1 -12
v -1.75 1 -11
v -1.75 2 -11
v -1.75 2 -12
v -1.25 1 -12
v -1.25 1 -11
v -1.25 2 -11
v -1.25 2 -12
v -2 1 -11.75
v -1 1 -11.75
v -1 2 -11.75
v -2 2 -11.75
v -2 1 -11.25
v -1 1 -11.25
v -1 2 -11.25
v -2 2 -11.25
v -1.9264 2 -9.81666
v -1.9264 2 -8.81666
v -1.9264 3 -8.81666
v -1.9264 3 -9.81666
v -1.4264 2 -9.81666
v -1.4264 2 -8.81666
v -1.4264 3 -8.81666
v -1.4264 3 -9.81666
v -2.1764 2 -9.56666
v -1.1764 2 -9.56666
v -1.1764 3 -9.56666
v -2.1764 3 -9.56666
v -2.1764 2 -9.06666
v -1.1764 2 -9.06666
v -1.1764 3 -9.06666
v -2.1764 3 -9.06666
v -1.75 1 -9
v -1.75 1 -8
v -1.75 2 -8
v -1.75 2 -9
v -1.25 1 -9
v -1.25 1 -8
v -1.25 2 -8
v -1.25 2 -9
v -2 1 -8.75
v -1 1 -8.75
v -1 2 -8.75
v -2 2 -8.75
v -2 1 -8.25
v -1 1 -8.25
v -1 2 -8.25
v -2 2 -8.25
v -1.75 1 -8
v -1.75 1 -7
v -1.75 2 -7
v -1.75 2 -8
v -1.25 1 -8
v -1.25 1 -7
v -1.25 2 -7
v -1.25 2 -8
v -2 1 -7.75
v -1 1 -7.75
v -1 2 -7.75
v -2 2 -7.75
v -2 1 -7.25
v -1 1 -7.25
v -1 2 -7.25
v -2 2 -7.25
v -1.75 1 -7
v -1.75 1 -6
v -1.75 2 -6
v -1.75 2 -7
v -1.25 1 -7
v -1.25 1 -6
v -1.25 2 -6
v -1.25 2 -7
v -2 1 -6.75
v -1 1 -6.75
v -1 2 -6.75
v -2 2 -6.75
v -2 1 -6.25
v -1 1 -6.25
v -1 2 -6.25
v -2 2 -6.25
v -1.75 2 -6
v -1.75 2 -5
v -1.75 3 -5
v -1.75 3 -6
v -1.25 2 -6
v -1.25 2 -5
v -1.25 3 -5
v -1.25 3 -6
v -2 2 -5.75
v -1 2 -5.75
v -1 3 -5.75
v -2 3 -5.75
v -2 2 -5.25
v -1 2 -5.25
v -1 3 -5.25
v -2 3 -5.25
v -0.576948 2 -8.96879
v -0.576948 2 -7.96879
v -0.576948 3 -7.96879
v -0.576948 3 -8.96879
v -0.0769482 2 -8.96879
v -0.0769482 2 -7.96879
v -0.0769482 3 -7.96879
v -0.0769482 3 -8.96879
v -0.826948 2 -8.71879
v 0.173052 2 -8.71879
v 0.173052 3 -8.71879
v -0.826948 3 -8.71879
v -0.826948 2 -8.21879
v 0.173052 2 -8.21879
v 0.173052 3 -8.21879
v -0.826948 3 -8.21879
v -0.798182 2 -8.17533
v -0.798182 2 -7.17533
v -0.798182 3 -7.17533
v -0.798182 3 -8.17533
v -0.298182 2 -8.17533
v -0.298182 2 -7.17533
v -0.298182 3 -7.17533
v -0.298182 3 -8.17533
v -1.04818 2 -7.92533
v -0.0481825 2 -7.92533
v -0.0481825 3 -7.92533
v -1.04818 3 -7.92533
v -1.04818 2 -7.42533
v -0.0481825 2 -7.42533
v -0.0481825 3 -7.42533
v -1.04818 3 -7.42533
v -0.671006 2 -6.82128
v -0.671006 2 -5.82128
v -0.671006 3 -5.82128
v -0.671006 3 -6.82128
v -0.171006 2 -6.82128
v -0.171006 2 -5.82128
v -0.171006 3 -5.82128
v -0.171006 3 -6.82128
v -0.921006 2 -6.57128
v 0.0789928 2 -6.57128
v 0.0789928 3 -6.57128
v -0.921006 3 -6.57128
v -0.921006 2 -6.07128
v 0.0789928 2 -6.07128
v 0.0789928 3 -6.07128
v -0.921006 3 -6.07128
v 0.25 1 -7
v 0.25 1 -6
v 0.25 2 -6
v 0.25 2 -7
v 0.75 1 -7
v 0.75 1 -6
v 0.75 2 -6
v 0.75 2 -7
v 0 1 -6.75
v 1 1 -6.75
v 1 2 -6.75
v 0 2 -6.75
v 0 1 -6.25
v 1 1 -6.25
v 1 2 -6.25
v 0 2 -6.25
v 2.25 1 -7
v 2.25 1 -6
v 2.25 2 -6
v 2.25 2 -7
v 2.75 1 -7
v 2.75 1 -6
v 2.75 2 -6
v 2.75 2 -7
v 2 1 -6.75
v 3 1 -6.75
v 3 2 -6.75
v 2 2 -6.75
v 2 1 -6.25
v 3 1 -6.25
v 3 2 -6.25
v 2 2 -6.25
v 3.16666 0 -14.9822
v 3.16666 0 -13.9822
v 3.16666 1 -13.9822
v 3.16666 1 -14.9822
v 3.66666 0 -14.9822
v 3.66666 0 -13.9822
v 3.66666 1 -13.9822
v 3.66666 1 -14.9822
v 2.91666 0 -14.7322
v 3.91666 0 -14.7322
v 3.91666 1 -14.7322
v 2.91666 1 -14.7322
v 2.91666 0 -14.2322
v 3.91666 0 -14.2322
v 3.91666 1 -14.2322
v 2.91666 1 -14.2322
v 4.25 1 -6
v 4.25 1 -5
v 4.25 2 -5
v 4.25 2 -6
v 4.75 1 -6
v 4.75 1 -5
v 4.75 2 -5
v 4.75 2 -6
v 4 1 -5.75
v 5 1 -5.75
v 5 2 -5.75
v 4 2 -5.75
v 4 1 -5.25
v 5 1 -5.25
v 5 2 -5.25
v 4 2 -5.25
v 4.25 1 -5
v 4.25 1 -4
v 4.25 2 -4
v 4.25 2 -5
v 4.75 1 -5
v 4.75 1 -4
v 4.75 2 -4
v 4.75 2 -5
v 4 1 -4.75
v 5 1 -4.75
v 5 2 -4.75
v 4 2 -4.75
v 4 1 -4.25
v 5 1 -4.25
v 5 2 -4.25
v 4 2 -4.25
v 5.25 2 -7
v 5.25 2 -6
v 5.25 3 -6
v 5.25 3 -7
v 5.75 2 -7
v 5.75 2 -6
v 5.75 3 -6
v 5.75 3 -7
v 5 2 -6.75
v 6 2 -6.75
v 6 3 -6.75
v 5 3 -6.75
v 5 2 -6.25
v 6 2 -6.25
v 6 3 -6.25
v 5 3 -6.25
v 5.25 1 -6
v 5.25 1 -5
v 5.25 2 -5
v 5.25 2 -6
v 5.75 1 -6
v 5.75 1 -5
v 5.75 2 -5
v 5.75 2 -6
v 5 1 -5.75
v 6 1 -5.75
v 6 2 -5.75
v 5 2 -5.75
v 5 1 -5.25
v 6 1 -5.25
v 6 2 -5.25
v 5 2 -5.25
v 5.39479 2 -4.93067
v 5.39479 2 -3.93067
v 5.39479 3 -3.93067
v 5.39479 3 -4.93067
v 5.89479 2 -4.93067
v 5.89479 2 -3.93067
v 5.89479 3 -3.93067
v 5.89479 3 -4.93067
v 5.14479 2 -4.68067
v 6.14479 2 -4.68067
v 6.14479 3 -4.68067
v 5.14479 3 -4.68067
v 5.14479 2 -4.18067
v 6.14479 2 -4.18067
v 6.14479 3 -4.18067
v 5.14479 3 -4.18067
v 5.25 2 -3
v 5.25 2 -2
v 5.25 3 -2
v 5.25 3 -3
v 5.75 2 -3
v 5.75 2 -2
v 5.75 3 -2
v 5.75 3 -3
v 5 2 -2.75
v 6 2 -2.75
v 6 3 -2.75
v 5 3 -2.75
v 5 2 -2.25
v 6 2 -2.25
v 6 3 -2.25
v 5 3 -2.25
v 6.25 1 -7
v 6.25 1 -6
v 6.25 2 -6
v 6.25 2 -7
v 6.75 1 -7
v 6.75 1 -6
v 6.75 2 -6
v 6.75 2 -7
v 6 1 -6.75
v 7 1 -6.75
v 7 2 -6.75
v 6 2 -6.75
v 6 1 -6.25
v 7 1 -6.25
v 7 2 -6.25
v 6 2 -6.25
v 6.20368 2 -5.81324
v 6.20368 2 -4.81324
v 6.20368 3 -4.81324
v 6.20368 3 -5.81324
v 6.70368 2 -5.81324
v 6.70368 2 -4.81324
v 6.70368 3 -4.81324
v 6.70368 3 -5.81324
v 5.95368 2 -5.56324
v 6.95368 2 -5.56324
v 6.95368 3 -5.56324
v 5.95368 3 -5.56324
v 5.95368 2 -5.06324
v 6.95368 2 -5.06324
v 6.95368 3 -5.06324
v 5.95368 3 -5.06324
v 6.25 1 -5
v 6.25 1 -4
v 6.25 2 -4
v 6.25 2 -5
v 6.75 1 -5
v 6.75 1 -4
v 6.75 2 -4
v 6.75 2 -5
v 6 1 -4.75
v 7 1 -4.75
v 7 2 -4.75
v 6 2 -4.75
v 6 1 -4.25
v 7 1 -4.25
v 7 2 -4.25
v 6 2 -4.25
v 9.25 2 -4
v 9.25 2 -3
v 9.25 3 -3
v 9.25 3 -4
v 9.75 2 -4
v 9.75 2 -3
v 9.75 3 -3
v 9.75 3 -4
v 9 2 -3.75
v 10 2 -3.75
v 10 3 -3.75
v 9 3 -3.75
v 9 2 -3.25
v 10 2 -3.25
v 10 3 -3.25
v 9 3 -3.25
v 9.25 2 -3
v 9.25 2 -2
v 9.25 3 -2
v 9.25 3 -3
v 9.75 2 -3
v 9.75 2 -2
v 9.75 3 -2
v 9.75 3 -3
v 9 2 -2.75
v 10 2 -2.75
v 10 3 -2.75
v 9 3 -2.75
v 9 2 -2.25
v 10 2 -2.25
v 10 3 -2.25
v 9 3 -2.25
v 9.25 2 6
v 9.25 2 7
v 9.25 3 7
v 9.25 3 6
v 9.75 2 6
v 9.75 2 7
v 9.75 3 7
v 9.75 3 6
v 9 2 6.25
v 10 2 6.25
v 10 3 6.25
v 9 3 6.25
v 9 2 6.75
v 10 2 6.75
v 10 3 6.75
v 9 3 6.75
v 10.25 2 -3
v 10.25 2 -2
v 10.25 3 -2
v 10.25 3 -3
v 10.75 2 -3
v 10.75 2 -2
v 10.75 3 -2
v 10.75 3 -3
v 10 2 -2.75
v 11 2 -2.75
v 11 3 -2.75
v 10 3 -2.75
v 10 2 -2.25
v 11 2 -2.25
v 11 3 -2.25
v 10 3 -2.25
v 10.25 2 4
v 10.25 2 5
v 10.25 3 5
v 10.25 3 4
v 10.75 2 4
v 10.75 2 5
v 10.75 3 5
v 10.75 3 4
v 10 2 4.25
v 11 2 4.25
v 11 3 4.25
v 10 3 4.25
v 10 2 4.75
v 11 2 4.75
v 11 3 4.75
v 10 3 4.75
v 10.25 2 5
v 10.25 2 6
v 10.25 3 6
v 10.25 3 5
v 10.75 2 5
v 10.75 2 6
v 10.75 3 6
v 10.75 3 5
v 10 2 5.25
v 11 2 5.25
v 11 3 5.25
v 10 3 5.25
v 10 2 5.75
v 11 2 5.75
v 11 3 5.75
v 10 3 5.75
v 10.25 2 7
v 10.25 2 8
v 10.25 3 8
v 10.25 3 7
v 10.75 2 7
v 10.75 2 8
v 10.75 3 8
v 10.75 3 7
v 10 2 7.25
v 11 2 7.25
v 11 3 7.25
v 10 3 7.25
v 10 2 7.75
v 11 2 7.75
v 11 3 7.75
v 10 3 7.75
v 11.25 2 -2
v 11.25 2 -1
v 11.25 3 -1
v 11.25 3 -2
v 11.75 2 -2
v 11.75 2 -1
v 11.75 3 -1
v 11.75 3 -2
v 11 2 -1.75
v 12 2 -1.75
v 12 3 -1.75
v 11 3 -1.75
v 11 2 -1.25
v 12 2 -1.25
v 12 3 -1.25
v 11 3 -1.25
v 11.25 1 0
v 11.25 1 1
v 11.25 2 1
v 11.25 2 0
v 11.75 1 0
v 11.75 1 1
v 11.75 2 1
v 11.75 2 0
v 11 1 0.25
v 12 1 0.25
v 12 2 0.25
v 11 2 0.25
v 11 1 0.75
v 12 1 0.75
v 12 2 0.75
v 11 2 0.75
v 11.25 1 1
v 11.25 1 2
v 11.25 2 2
v 11.25 2 1
v 11.75 1 1
v 11.75 1 2
v 11.75 2 2
v 11.75 2 1
v 11 1 1.25
v 12 1 1.25
v 12 2 1.25
v 11 2 1.25
v 11 1 1.75
v 12 1 1.75
v 12 2 1.75
v 11 2 1.75
v 11.25 1 2
v 11.25 1 3
v 11.25 2 3
v 11.25 2 2
v 11.75 1 2
v 11.75 1 3
v 11.75 2 3
v 11.75 2 2
v 11 1 2.25
v 12 1 2.25
v 12 2 2.25
v 11 2 2.25
v 11 1 2.75
v 12 1 2.75
v 12 2 2.75
v 11 2 2.75
v 11.25 2 6
v 11.25 2 7
v 11.25 3 7
v 11.25 3 6
v 11.75 2 6
v 11.75 2 7
v 11.75 3 7
v 11.75 3 6
v 11 2 6.25
v 12 2 6.25
v 12 3 6.25
v 11 3 6.25
v 11 2 6.75
v 12 2 6.75
v 12 3 6.75
v 11 3 6.75
v 11.25 2 7
v 11.25 2 8
v 11.25 3 8
v 11.25 3 7
v 11.75 2 7
v 11.75 2 8
v 11.75 3 8
v 11.75 3 7
v 11 2 7.25
v 12 2 7.25
v 12 3 7.25
v 11 3 7.25
v 11 2 7.75
v 12 2 7.75
v 12 3 7.75
v 11 3 7.75
v 11.25 2 8
v 11.25 2 9
v 11.25 3 9
v 11.25 3 8
v 11.75 2 8
v 11.75 2 9
v 11.75 3 9
v 11.75 3 8
v 11 2 8.25
v 12 2 8.25
v 12 3 8.25
v 11 3 8.25
v 11 2 8.75
v 12 2 8.75
v 12 3 8.75
v 11 3 8.75
v 12.25 0 -1
v 12.25 0 0
v 12.25 1 0
v 12.25 1 -1
v 12.75 0 -1
v 12.75 0 0
v 12.75 1 0
v 12.75 1 -1
v 12 0 -0.75
v 13 0 -0.75
v 13 1 -0.75
v 12 1 -0.75
v 12 0 -0.25
v 13 0 -0.25
v 13 1 -0.25
v 12 1 -0.25
v 12.25 1 1
v 12.25 1 2
v 12.25 2 2
v 12.25 2 1
v 12.75 1 1
v 12.75 1 2
v 12.75 2 2
v 12.75 2 1
v 12 1 1.25
v 13 1 1.25
v 13 2 1.25
v 12 2 1.25
v 12 1 1.75
v 13 1 1.75
v 13 2 1.75
v 12 2 1.75
v 12.25 2 8
v 12.25 2 9
v 12.25 3 9
v 12.25 3 8
v 12.75 2 8
v 12.75 2 9
v 12.75 3 9
v 12.75 3 8
v 12 2 8.25
v 13 2 8.25
v 13 3 8.25
v 12 3 8.25
v 12 2 8.75
v 13 2 8.75
v 13 3 8.75
v 12 3 8.75
v 13.25 0 -2
v 13.25 0 -1
v 13.25 1 -1
v 13.25 1 -2
v 13.75 0 -2
v 13.75 0 -1
v 13.75 1 -1
v 13.75 1 -2
v 13 0 -1.75
v 14 0 -1.75
v 14 1 -1.75
v 13 1 -1.75
v 13 0 -1.25
v 14 0 -1.25
v 14 1 -1.25
v 13 1 -1.25
v 13.0788 2 1.03235
v 13.0788 2 2.03235
v 13.0788 3 2.03235
v 13.0788 3 1.03235
v 13.5788 2 1.03235
v 13.5788 2 2.03235
v 13.5788 3 2.03235
v 13.5788 3 1.03235
v 12.8288 2 1.28235
v 13.8288 2 1.28235
v 13.8288 3 1.28235
v 12.8288 3 1.28235
v 12.8288 2 1.78235
v 13.8288 2 1.78235
v 13.8288 3 1.78235
v 12.8288 3 1.78235
v 14.25 0 -1
v 14.25 0 0
v 14.25 1 0
v 14.25 1 -1
v 14.75 0 -1
v 14.75 0 0
v 14.75 1 0
v 14.75 1 -1
v 14 0 -0.75
v 15 0 -0.75
v 15 1 -0.75
v 14 1 -0.75
v 14 0 -0.25
v 15 0 -0.25
v 15 1 -0.25
v 14 1 -0.25
vt 0.000000000 0.000000000
vt 1.000000000 0.000000000
vt 0.000000000 1.000000000
vt 1.000000000 1.000000000
vn -1 0 0
vn 0 0 1
f 2/2/1 3/4/1 4/3/1 1/1/1
f 6/2/1 7/4/1 8/3/1 5/1/1
f 9/1/2 10/2/2 11/4/2 12/3/2
f 13/1/2 14/2/2 15/4/2 16/3/2
f 18/2/1 19/4/1 20/3/1 17/1/1
f 22/2/1 23/4/1 24/3/1 21/1/1
f 25/1/2 26/2/2 27/4/2 28/3/2
f 29/1/2 30/2/2 31/4/2 32/3/2
f 34/2/1 35/4/1 36/3/1 33/1/1
f 38/2/1 39/4/1 40/3/1 37/1/1
f 41/1/2 42/2/2 43/4/2 44/3/2
f 45/1/2 46/2/2 47/4/2 48/3/2
f 50/2/1 51/4/1 52/3/1 49/1/1
f 54/2/1 55/4/1 56/3/1 53/1/1
f 57/1/2 58/2/2 59/4/2 60/3/2
f 61/1/2 62/2/2 63/4/2 64/3/2
f 66/2/1 67/4/1 68/3/1 65/1/1
f 70/2/1 71/4/1 72/3/1 69/1/1
f 73/1/2 74/2/2 75/4/2 76/3/2
f 77/1/2 78/2/2 79/4/2 80/3/2
f 82/2/1 83/4/1 84/3/1 81/1/1
f 86/2/1 87/4/1 88/3/1 85/1/1
f 89/1/2 90/2/2 91/4/2 92/3/2
f 93/1/2 94/2/2 95/4/2 96/3/2
f 98/2/1 99/4/1 100/3/1 97/1/1
f 102/2/1 103/4/1 104/3/1 101/1/1
f 105/1/2 106/2/2 107/4/2 108/3/2
f 109/1/2 110/2/2 111/4/2 112/3/2
f 114/2/1 115/4/1 116/3/1 113/1/1
f 118/2/1 119/4/1 120/3/1 117/1/1
f 121/1/2 122/2/2 123/4/2 124/3/2
f 125/1/2 126/2/2 127/4/2 128/3/2
f 130/2/1 131/4/1 132/3/1 129/1/1
f 134/2/1 135/4/1 136/3/1 133/1/1
f 137/1/2 138/2/2 139/4/2 140/3/2
f 141/1/2 142/2/2 143/4/2 144/3/2
f 146/2/1 147/4/1 148/3/1 145/1/1
f 150/2/1 151/4/1 152/3/1 149/1/1
f 153/1/2 154/2/2 155/4/2 156/3/2
f 157/1/2 158/2/2 159/4/2 160/3/2
f 162/2/1 163/4/1 164/3/1 161/1/1
f 166/2/1 167/4/1 168/3/1 165/1/1
f 169/1/2 170/2/2 171/4/2 172/3/2
f 173/1/2 174/2/2 175/4/2 176/3/2
f 178/2/1 179/4/1 180/3/1 177/1/1
f 182/2/1 183/4/1 184/3/1 181/1/1
f 185/1/2 186/2/2 187/4/2 188/3/2
f 189/1/2 190/2/2 191/4/2 192/3/2
f 194/2/1 195/4/1 196/3/1 193/1/1
f 198/2/1 199/4/1 200/3/1 197/1/1
f 201/1/2 202/2/2 203/4/2 204/3/2
f 205/1/2 206/2/2 207/4/2 208/3/2
f 210/2/1 211/4/1 212/3/1 209/1/1
f 214/2/1 215/4/1 216/3/1 213/1/1
f 217/1/2 218/2/2 219/4/2 220/3/2
f 221/1/2 222/2/2 223/4/2 224/3/2
f 226/2/1 227/4/1 228/3/1 225/1/1
f 230/2/1 231/4/1 232/3/1 229/1/1
f 233/1/2 234/2/2 235/4/2 236/3/2
f 237/1/2 238/2/2 239/4/2 240/3/2
f 242/2/1 243/4/1 244/3/1 241/1/1
f 246/2/1 247/4/1 248/3/1 245/1/1
f 249/1/2 250/2/2 251/4/2 252/3/2
f 253/1/2 254/2/2 255/4/2 256/3/2
f 258/2/1 259/4/1 260/3/1 257/1/1
f 262/2/1 263/4/1 264/3/1 261/1/1
f 265/1/2 266/2/2 267/4/2 268/3/2
f 269/1/2 270/2/2 271/4/2 272/3/2
f 274/2/1 275/4/1 276/3/1 273/1/1
f 278/2/1 279/4/1 280/3/1 277/1/1
f 281/1/2 282/2/2 283/4/2 284/3/2
f 285/1/2 286/2/2 287/4/2 288/3/2
f 290/2/1 291/4/1 292/3/1 289/1/1
f 294/2/1 295/4/1 296/3/1 293/1/1
f 297/1/2 298/2/2 299/4/2 300/3/2
f 301/1/2 302/2/2 303/4/2 304/3/2
f 306/2/1 307/4/1 308/3/1 305/1/1
f 310/2/1 311/4/1 312/3/1 309/1/1
f 313/1/2 314/2/2 315/4/2 316/3/2
f 317/1/2 318/2/2 319/4/2 320/3/2
f 322/2/1 323/4/1 324/3/1 321/1/1
f 326/2/1 327/4/1 328/3/1 325/1/1
f 329/1/2 330/2/2 331/4/2 332/3/2
f 333/1/2 334/2/2 335/4/2 336/3/2
f 338/2/1 339/4/1 340/3/1 337/1/1
f 342/2/1 343/4/1 344/3/1 341/1/1
f 345/1/2 346/2/2 347/4/2 348/3/2
f 349/1/2 350/2/2 351/4/2 352/3/2
f 354/2/1 355/4/1 356/3/1 353/1/1
f 358/2/1 359/4/1 360/3/1 357/1/1
f 361/1/2 362/2/2 363/4/2 364/3/2
f 365/1/2 366/2/2 367/4/2 368/3/2
f 370/2/1 371/4/1 372/3/1 369/1/1
f 374/2/1 375/4/1 376/3/1 373/1/1
f 377/1/2 378/2/2 379/4/2 380/3/2
f 381/1/2 382/2/2 383/4/2 384/3/2
f 386/2/1 387/4/1 388/3/1 385/1/1
f 390/2/1 391/4/1 392/3/1 389/1/1
f 393/1/2 394/2/2 395/4/2 396/3/2
f 397/1/2 398/2/2 399/4/2 400/3/2
f 402/2/1 403/4/1 404/3/1 401/1/1
f 406/2/1 407/4/1 408/3/1 405/1/1
f 409/1/2 410/2/2 411/4/2 412/3/2
f 413/1/2 414/2/2 415/4/2 416/3/2
f 418/2/1 419/4/1 420/3/1 417/1/1
f 422/2/1 423/4/1 424/3/1 421/1/1
f 425/1/2 426/2/2 427/4/2 428/3/2
f 429/1/2 430/2/2 431/4/2 432/3/2
f 434/2/1 435/4/1 436/3/1 433/1/1
f 438/2/1 439/4/1 440/3/1 437/1/1
f 441/1/2 442/2/2 443/4/2 444/3/2
f 445/1/2 446/2/2 447/4/2 448/3/2
f 450/2/1 451/4/1 452/3/1 449/1/1
f 454/2/1 455/4/1 456/3/1 453/1/1
f 457/1/2 458/2/2 459/4/2 460/3/2
f 461/1/2 462/2/2 463/4/2 464/3/2
f 466/2/1 467/4/1 468/3/1 465/1/1
f 470/2/1 471/4/1 472/3/1 469/1/1
f 473/1/2 474/2/2 475/4/2 476/3/2
f 477/1/2 478/2/2 479/4/2 480/3/2
f 482/2/1 483/4/1 484/3/1 481/1/1
f 486/2/1 487/4/1 488/3/1 485/1/1
f 489/1/2 490/2/2 491/4/2 492/3/2
f 493/1/2 494/2/2 495/4/2 496/3/2
f 498/2/1 499/4/1 500/3/1 497/1/1
f 502/2/1 503/4/1 504/3/1 501/1/1
f 505/1/2 506/2/2 507/4/2 508/3/2
f 509/1/2 510/2/2 511/4/2 512/3/2
f 514/2/1 515/4/1 516/3/1 513/1/1
f 518/2/1 519/4/1 520/3/1 517/1/1
f 521/1/2 522/2/2 523/4/2 524/3/2
f 525/1/2 526/2/2 527/4/2 528/3/2
f 530/2/1 531/4/1 532/3/1 529/1/1
f 534/2/1 535/4/1 536/3/1 533/1/1
f 537/1/2 538/2/2 539/4/2 540/3/2
f 541/1/2 542/2/2 543/4/2 544/3/2
f 546/2/1 547/4/1 548/3/1 545/1/1
f 550/2/1 551/4/1 552/3/1 549/1/1
f 553/1/2 554/2/2 555/4/2 556/3/2
f 557/1/2 558/2/2 559/4/2 560/3/2
f 562/2/1 563/4/1 564/3/1 561/1/1
f 566/2/1 567/4/1 568/3/1 565/1/1
f 569/1/2 570/2/2 571/4/2 572/3/2
f 573/1/2 574/2/2 575/4/2 576/3/2
f 578/2/1 579/4/1 580/3/1 577/1/1
f 582/2/1 583/4/1 584/3/1 581/1/1
f 585/1/2 586/2/2 587/4/2 588/3/2
f 589/1/2 590/2/2 591/4/2 592/3/2
f 594/2/1 595/4/1 596/3/1 593/1/1
f 598/2/1 599/4/1 600/3/1 597/1/1
f 601/1/2 602/2/2 603/4/2 604/3/2
f 605/1/2 606/2/2 607/4/2 608/3/2
f 610/2/1 611/4/1 612/3/1 609/1/1
f 614/2/1 615/4/1 616/3/1 613/1/1
f 617/1/2 618/2/2 619/4/2 620/3/2
f 621/1/2 622/2/2 623/4/2 624/3/2
f 626/2/1 627/4/1 628/3/1 625/1/1
f 630/2/1 631/4/1 632/3/1 629/1/1
f 633/1/2 634/2/2 635/4/2 636/3/2
f 637/1/2 638/2/2 639/4/2 640/3/2
f 642/2/1 643/4/1 644/3/1 641/1/1
f 646/2/1 647/4/1 648/3/1 645/1/1
f 649/1/2 650/2/2 651/4/2 652/3/2
f 653/1/2 654/2/2 655/4/2 656/3/2
f 658/2/1 659/4/1 660/3/1 657/1/1
f 662/2/1 663/4/1 664/3/1 661/1/1
f 665/1/2 666/2/2 667/4/2 668/3/2
f 669/1/2 670/2/2 671/4/2 672/3/2
f 674/2/1 675/4/1 676/3/1 673/1/1
f 678/2/1 679/4/1 680/3/1 677/1/1
f 681/1/2 682/2/2 683/4/2 684/3/2
f 685/1/2 686/2/2 687/4/2 688/3/2
f 690/2/1 691/4/1 692/3/1 689/1/1
f 694/2/1 695/4/1 696/3/1 693/1/1
f 697/1/2 698/2/2 699/4/2 700/3/2
f 701/1/2 702/2/2 703/4/2 704/3/2
f 706/2/1 707/4/1 708/3/1 705/1/1
f 710/2/1 711/4/1 712/3/1 709/1/1
f 713/1/2 714/2/2 715/4/2 716/3/2
f 717/1/2 718/2/2 719/4/2 720/3/2
