mtllib lighthouse.mtl
usemtl acacia_log
v -15 11 13
v -14 11 13
v -15 11 14
v -14 11 14
v -15 12 14
v -15 12 13
v -14 12 13
v -14 12 14
v -13 11 14
v -13 12 14
v -13 11 15
v -13 12 15
v -12 5 -13
v -12 5 -12
v -12 6 -12
v -12 6 -11
v -12 11 14
v -12 11 15
v -12 12 14
v -12 12 15
v -11 5 -13
v -11 5 -12
v -12 6 -13
v -11 6 -13
v -11 6 -12
v -11 6 -11
v -12 7 -11
v -12 7 -12
v -11 7 -12
v -11 7 -11
v -10 5 -13
v -10 6 -13
v -10 5 -12
v -10 6 -12
v -4 10 -5
v -4 10 -4
v -5 11 -4
v -5 11 -5
v -4 11 -5
v -4 11 -4
v -5 12 -4
v -5 12 -5
v -4 12 -5
v -4 12 -4
v -3 10 -5
v -3 10 -4
v -3 11 -5
v -3 11 -4
v -3 9 2
v -3 14 2
v -3 15 2
v -3 16 2
v -3 17 2
v -3 18 2
v -3 9 3
v -3 14 3
v -3 15 3
v -3 16 3
v -3 17 3
v -3 18 3
v -2 9 2
v -3 10 2
v -2 10 2
v -3 11 2
v -3 12 2
v -2 11 2
v -2 12 2
v -3 13 2
v -2 13 2
v -2 14 2
v -2 18 2
v -2 9 3
v -3 10 3
v -2 10 3
v -3 11 3
v -2 11 3
v -3 12 3
v -2 12 3
v -3 13 3
v -2 13 3
v -2 14 3
v -2 15 2
v -2 15 3
v -2 16 2
v -2 16 3
v -2 17 2
v -2 17 3
v -2 18 3
v 0 11 2
v 0 12 2
v 0 9 2
v 0 9 3
v 0 12 3
v 0 13 2
v 0 13 3
v 1 9 2
v 0 10 2
v 1 10 2
v 1 11 2
v 1 12 2
v 1 13 2
v 1 9 3
v 0 10 3
v 1 10 3
v 0 11 3
v 1 11 3
v 1 12 3
v 1 13 3
v 2 9 2
v 2 10 2
v 2 11 2
v 2 12 2
v 2 13 2
v 2 14 2
v 2 15 2
v 2 16 2
v 2 17 2
v 2 18 2
v 2 9 3
v 2 10 3
v 2 12 3
v 2 13 3
v 2 14 3
v 2 15 3
v 2 16 3
v 3 9 2
v 3 10 2
v 3 11 2
v 3 12 2
v 3 13 2
v 3 14 2
v 3 16 2
v 3 17 2
v 3 18 2
v 3 9 3
v 3 10 3
v 2 11 3
v 3 11 3
v 3 12 3
v 3 13 3
v 3 14 3
v 3 15 2
v 3 15 3
v 3 16 3
v 2 17 3
v 3 17 3
v 2 18 3
v 3 18 3
v 2 19 3
v 2 19 2
v 3 19 2
v 3 19 3
v 2 20 3
v 2 20 2
v 3 20 2
v 3 20 3
v 3 9 4
v 3 10 4
v 3 13 4
v 3 14 4
v 3 15 4
v 3 18 4
v 4 10 -3
v 4 11 -3
v 4 9 3
v 4 18 3
v 4 9 4
v 4 10 3
v 4 10 4
v 3 11 4
v 4 11 3
v 4 11 4
v 3 12 4
v 4 12 3
v 4 12 4
v 4 13 3
v 4 13 4
v 4 14 3
v 4 14 4
v 4 15 3
v 4 15 4
v 3 16 4
v 4 16 3
v 4 16 4
v 3 17 4
v 4 17 3
v 4 17 4
v 4 18 4
v 4 10 -4
v 5 10 -4
v 5 10 -3
v 4 11 -4
v 5 11 -4
v 5 11 -3
v 6 9 9
v 7 9 9
v 6 10 9
v 6 10 8
v 7 10 8
v 7 10 9
v 6 11 9
v 6 11 8
v 7 11 8
v 7 11 9
v 6 9 10
v 7 9 10
v 6 10 10
v 7 10 10
v 8 10 8
v 8 10 9
v 8 11 8
v 8 11 9
v 7 12 9
v 7 12 8
v 8 12 8
v 8 12 9
vt 0.000000000 0.000000000
vt 1.000000000 0.000000000
vt 0.000000000 1.000000000
vt 1.000000000 1.000000000
vn -1 0 0
vn 0 -1 0
vn 0 0 -1
vn 1 0 0
vn 0 1 0
vn 0 0 1
f 3/2/1 5/4/1 6/3/1 1/1/1
f 3/3/2 1/1/2 2/2/2 4/4/2
f 1/2/3 6/4/3 7/3/3 2/1/3
f 4/1/4 2/2/4 7/4/4 8/3/4
f 5/1/5 8/2/5 7/4/5 6/3/5
f 3/1/6 4/2/6 8/4/6 5/3/6
f 11/2/1 12/4/1 10/3/1 9/1/1
f 11/3/2 9/1/2 17/2/2 18/4/2
f 9/2/3 10/4/3 19/3/3 17/1/3
f 18/1/4 17/2/4 19/4/4 20/3/4
f 12/1/5 20/2/5 19/4/5 10/3/5
f 11/1/6 18/2/6 20/4/6 12/3/6
f 14/2/1 15/4/1 23/3/1 13/1/1
f 14/3/2 13/1/2 21/2/2 22/4/2
f 13/2/3 23/4/3 24/3/3 21/1/3
f 22/1/4 21/2/4 24/4/4 25/3/4
f 15/1/5 25/2/5 24/4/5 23/3/5
f 14/1/6 22/2/6 25/4/6 15/3/6
f 16/2/1 27/4/1 28/3/1 15/1/1
f 16/3/2 15/1/2 25/2/2 26/4/2
f 15/2/3 28/4/3 29/3/3 25/1/3
f 26/1/4 25/2/4 29/4/4 30/3/4
f 27/1/5 30/2/5 29/4/5 28/3/5
f 16/1/6 26/2/6 30/4/6 27/3/6
f 22/2/1 25/4/1 24/3/1 21/1/1
f 22/3/2 21/1/2 31/2/2 33/4/2
f 21/2/3 24/4/3 32/3/3 31/1/3
f 33/1/4 31/2/4 32/4/4 34/3/4
f 25/1/5 34/2/5 32/4/5 24/3/5
f 22/1/6 33/2/6 34/4/6 25/3/6
f 37/2/1 41/4/1 42/3/1 38/1/1
f 37/3/2 38/1/2 39/2/2 40/4/2
f 38/2/3 42/4/3 43/3/3 39/1/3
f 40/1/4 39/2/4 43/4/4 44/3/4
f 41/1/5 44/2/5 43/4/5 42/3/5
f 37/1/6 40/2/6 44/4/6 41/3/6
f 36/2/1 40/4/1 39/3/1 35/1/1
f 36/3/2 35/1/2 45/2/2 46/4/2
f 35/2/3 39/4/3 47/3/3 45/1/3
f 46/1/4 45/2/4 47/4/4 48/3/4
f 40/1/5 48/2/5 47/4/5 39/3/5
f 36/1/6 46/2/6 48/4/6 40/3/6
f 55/2/1 73/4/1 62/3/1 49/1/1
f 49/2/3 62/4/3 63/3/3 61/1/3
f 72/1/4 61/2/4 63/4/4 74/3/4
f 55/1/6 72/2/6 74/4/6 73/3/6
f 73/2/1 75/4/1 64/3/1 62/1/1
f 62/2/3 64/4/3 66/3/3 63/1/3
f 74/1/4 63/2/4 66/4/4 76/3/4
f 73/1/6 74/2/6 76/4/6 75/3/6
f 75/2/1 77/4/1 65/3/1 64/1/1
f 64/2/3 65/4/3 67/3/3 66/1/3
f 76/1/4 66/2/4 67/4/4 78/3/4
f 75/1/6 76/2/6 78/4/6 77/3/6
f 77/2/1 79/4/1 68/3/1 65/1/1
f 65/2/3 68/4/3 69/3/3 67/1/3
f 78/1/4 67/2/4 69/4/4 80/3/4
f 77/1/6 78/2/6 80/4/6 79/3/6
f 79/2/1 56/4/1 50/3/1 68/1/1
f 68/2/3 50/4/3 70/3/3 69/1/3
f 80/1/4 69/2/4 70/4/4 81/3/4
f 79/1/6 80/2/6 81/4/6 56/3/6
f 56/2/1 57/4/1 51/3/1 50/1/1
f 50/2/3 51/4/3 82/3/3 70/1/3
f 81/1/4 70/2/4 82/4/4 83/3/4
f 56/1/6 81/2/6 83/4/6 57/3/6
f 57/2/1 58/4/1 52/3/1 51/1/1
f 51/2/3 52/4/3 84/3/3 82/1/3
f 83/1/4 82/2/4 84/4/4 85/3/4
f 57/1/6 83/2/6 85/4/6 58/3/6
f 58/2/1 59/4/1 53/3/1 52/1/1
f 52/2/3 53/4/3 86/3/3 84/1/3
f 85/1/4 84/2/4 86/4/4 87/3/4
f 58/1/6 85/2/6 87/4/6 59/3/6
f 59/2/1 60/4/1 54/3/1 53/1/1
f 53/2/3 54/4/3 71/3/3 86/1/3
f 87/1/4 86/2/4 71/4/4 88/3/4
f 59/1/6 87/2/6 88/4/6 60/3/6
f 92/2/1 103/4/1 97/3/1 91/1/1
f 91/2/3 97/4/3 98/3/3 96/1/3
f 102/1/4 96/2/4 98/4/4 104/3/4
f 92/1/6 102/2/6 104/4/6 103/3/6
f 103/2/1 105/4/1 89/3/1 97/1/1
f 97/2/3 89/4/3 99/3/3 98/1/3
f 104/1/4 98/2/4 99/4/4 106/3/4
f 103/1/6 104/2/6 106/4/6 105/3/6
f 105/2/1 93/4/1 90/3/1 89/1/1
f 89/2/3 90/4/3 100/3/3 99/1/3
f 106/1/4 99/2/4 100/4/4 107/3/4
f 105/1/6 106/2/6 107/4/6 93/3/6
f 93/2/1 95/4/1 94/3/1 90/1/1
f 90/2/3 94/4/3 101/3/3 100/1/3
f 107/1/4 100/2/4 101/4/4 108/3/4
f 93/1/6 107/2/6 108/4/6 95/3/6
f 119/2/1 120/4/1 110/3/1 109/1/1
f 109/2/3 110/4/3 127/3/3 126/1/3
f 135/1/4 126/2/4 127/4/4 136/3/4
f 119/1/6 135/2/6 136/4/6 120/3/6
f 120/2/1 137/4/1 111/3/1 110/1/1
f 110/2/3 111/4/3 128/3/3 127/1/3
f 136/1/4 127/2/4 128/4/4 138/3/4
f 120/1/6 136/2/6 138/4/6 137/3/6
f 137/2/1 121/4/1 112/3/1 111/1/1
f 111/2/3 112/4/3 129/3/3 128/1/3
f 138/1/4 128/2/4 129/4/4 139/3/4
f 137/1/6 138/2/6 139/4/6 121/3/6
f 121/2/1 122/4/1 113/3/1 112/1/1
f 112/2/3 113/4/3 130/3/3 129/1/3
f 139/1/4 129/2/4 130/4/4 140/3/4
f 121/1/6 139/2/6 140/4/6 122/3/6
f 122/2/1 123/4/1 114/3/1 113/1/1
f 113/2/3 114/4/3 131/3/3 130/1/3
f 140/1/4 130/2/4 131/4/4 141/3/4
f 122/1/6 140/2/6 141/4/6 123/3/6
f 123/2/1 124/4/1 115/3/1 114/1/1
f 114/2/3 115/4/3 142/3/3 131/1/3
f 141/1/4 131/2/4 142/4/4 143/3/4
f 123/1/6 141/2/6 143/4/6 124/3/6
f 124/2/1 125/4/1 116/3/1 115/1/1
f 115/2/3 116/4/3 132/3/3 142/1/3
f 143/1/4 142/2/4 132/4/4 144/3/4
f 124/1/6 143/2/6 144/4/6 125/3/6
f 125/2/1 145/4/1 117/3/1 116/1/1
f 116/2/3 117/4/3 133/3/3 132/1/3
f 144/1/4 132/2/4 133/4/4 146/3/4
f 125/1/6 144/2/6 146/4/6 145/3/6
f 145/2/1 147/4/1 118/3/1 117/1/1
f 117/2/3 118/4/3 134/3/3 133/1/3
f 146/1/4 133/2/4 134/4/4 148/3/4
f 145/1/6 146/2/6 148/4/6 147/3/6
f 147/2/1 149/4/1 150/3/1 118/1/1
f 118/2/3 150/4/3 151/3/3 134/1/3
f 148/1/4 134/2/4 151/4/4 152/3/4
f 147/1/6 148/2/6 152/4/6 149/3/6
f 149/1/2 150/2/2 151/4/2 152/3/2
f 150/1/3 154/2/3 155/4/3 151/3/3
f 153/2/5 156/4/5 155/3/5 154/1/5
f 149/2/6 152/4/6 156/3/6 153/1/6
f 157/2/1 158/4/1 136/3/1 135/1/1
f 135/2/3 136/4/3 168/3/3 165/1/3
f 167/1/4 165/2/4 168/4/4 169/3/4
f 157/1/6 167/2/6 169/4/6 158/3/6
f 158/2/1 170/4/1 138/3/1 136/1/1
f 136/2/3 138/4/3 171/3/3 168/1/3
f 169/1/4 168/2/4 171/4/4 172/3/4
f 158/1/6 169/2/6 172/4/6 170/3/6
f 170/2/1 173/4/1 139/3/1 138/1/1
f 138/2/3 139/4/3 174/3/3 171/1/3
f 172/1/4 171/2/4 174/4/4 175/3/4
f 170/1/6 172/2/6 175/4/6 173/3/6
f 173/2/1 159/4/1 140/3/1 139/1/1
f 139/2/3 140/4/3 176/3/3 174/1/3
f 175/1/4 174/2/4 176/4/4 177/3/4
f 173/1/6 175/2/6 177/4/6 159/3/6
f 159/2/1 160/4/1 141/3/1 140/1/1
f 140/2/3 141/4/3 178/3/3 176/1/3
f 177/1/4 176/2/4 178/4/4 179/3/4
f 159/1/6 177/2/6 179/4/6 160/3/6
f 160/2/1 161/4/1 143/3/1 141/1/1
f 141/2/3 143/4/3 180/3/3 178/1/3
f 179/1/4 178/2/4 180/4/4 181/3/4
f 160/1/6 179/2/6 181/4/6 161/3/6
f 161/2/1 182/4/1 144/3/1 143/1/1
f 143/2/3 144/4/3 183/3/3 180/1/3
f 181/1/4 180/2/4 183/4/4 184/3/4
f 161/1/6 181/2/6 184/4/6 182/3/6
f 182/2/1 185/4/1 146/3/1 144/1/1
f 144/2/3 146/4/3 186/3/3 183/1/3
f 184/1/4 183/2/4 186/4/4 187/3/4
f 182/1/6 184/2/6 187/4/6 185/3/6
f 185/2/1 162/4/1 148/3/1 146/1/1
f 146/2/3 148/4/3 166/3/3 186/1/3
f 187/1/4 186/2/4 166/4/4 188/3/4
f 185/1/6 187/2/6 188/4/6 162/3/6
f 163/2/1 164/4/1 192/3/1 189/1/1
f 163/3/2 189/1/2 190/2/2 191/4/2
f 189/2/3 192/4/3 193/3/3 190/1/3
f 191/1/4 190/2/4 193/4/4 194/3/4
f 164/1/5 194/2/5 193/4/5 192/3/5
f 163/1/6 191/2/6 194/4/6 164/3/6
f 197/2/1 201/4/1 202/3/1 198/1/1
f 197/3/2 198/1/2 199/2/2 200/4/2
f 198/2/3 202/4/3 203/3/3 199/1/3
f 200/1/4 199/2/4 203/4/4 204/3/4
f 201/1/5 204/2/5 203/4/5 202/3/5
f 197/1/6 200/2/6 204/4/6 201/3/6
f 205/2/1 207/4/1 197/3/1 195/1/1
f 205/3/2 195/1/2 196/2/2 206/4/2
f 195/2/3 197/4/3 200/3/3 196/1/3
f 206/1/4 196/2/4 200/4/4 208/3/4
f 207/1/5 208/2/5 200/4/5 197/3/5
f 205/1/6 206/2/6 208/4/6 207/3/6
f 200/2/1 204/4/1 203/3/1 199/1/1
f 200/3/2 199/1/2 209/2/2 210/4/2
f 199/2/3 203/4/3 211/3/3 209/1/3
f 210/1/4 209/2/4 211/4/4 212/3/4
f 204/1/5 212/2/5 211/4/5 203/3/5
f 200/1/6 210/2/6 212/4/6 204/3/6
f 204/2/1 213/4/1 214/3/1 203/1/1
f 204/3/2 203/1/2 211/2/2 212/4/2
f 203/2/3 214/4/3 215/3/3 211/1/3
f 212/1/4 211/2/4 215/4/4 216/3/4
f 213/1/5 216/2/5 215/4/5 214/3/5
f 204/1/6 212/2/6 216/4/6 213/3/6
