mtllib lighthouse.mtl
usemtl muddy_mangrove_roots_side
v 11 1 4
v 11 2 4
v 11 1 5
v 11 2 5
v 11 1 6
v 11 2 6
v 12 0 3
v 12 1 3
v 12 0 4
v 12 1 4
v 12 2 4
v 12 0 5
v 12 1 5
v 12 2 5
v 12 0 6
v 12 1 6
v 12 2 6
v 13 0 3
v 13 1 3
v 13 0 4
v 13 1 4
v 13 0 5
v 13 1 5
v 13 0 6
v 13 1 6
v 14 0 2
v 14 1 2
v 14 0 3
v 14 1 3
v 14 0 4
v 14 1 4
v 14 0 5
v 14 1 5
v 14 0 6
v 14 1 6
v 15 0 2
v 15 1 2
v 15 0 3
v 15 1 3
v 15 0 4
v 15 1 4
v 15 0 5
v 15 1 5
v 15 0 6
v 15 1 6
vt 0.000000000 0.000000000
vt 1.000000000 0.000000000
vt 0.000000000 1.000000000
vt 1.000000000 1.000000000
vn -1 0 0
vn 0 -1 0
vn 0 0 -1
vn 1 0 0
vn 0 1 0
vn 0 0 1
f 3/1/2 1/2/2 10/4/2 13/3/2
f 1/1/3 2/2/3 11/4/3 10/3/3
f 4/2/5 14/4/5 11/3/5 2/1/5
f 3/2/6 13/4/6 14/3/6 4/1/6
f 5/1/2 3/2/2 13/4/2 16/3/2
f 3/1/3 4/2/3 14/4/3 13/3/3
f 6/2/5 17/4/5 14/3/5 4/1/5
f 5/2/6 16/4/6 17/3/6 6/1/6
f 9/2/1 10/4/1 8/3/1 7/1/1
f 7/2/3 8/4/3 19/3/3 18/1/3
f 20/1/4 18/2/4 19/4/4 21/3/4
f 9/1/6 20/2/6 21/4/6 10/3/6
f 12/1/1 13/2/1 10/4/1 9/3/1
f 12/2/2 9/4/2 20/3/2 22/1/2
f 22/2/4 20/4/4 21/3/4 23/1/4
f 13/1/5 23/2/5 21/4/5 10/3/5
f 15/1/2 12/2/2 22/4/2 24/3/2
f 12/1/3 13/2/3 23/4/3 22/3/3
f 16/2/5 25/4/5 23/3/5 13/1/5
f 15/2/6 24/4/6 25/3/6 16/1/6
f 20/1/2 18/2/2 28/4/2 30/3/2
f 18/1/3 19/2/3 29/4/3 28/3/3
f 21/2/5 31/4/5 29/3/5 19/1/5
f 20/2/6 30/4/6 31/3/6 21/1/6
f 22/1/2 20/2/2 30/4/2 32/3/2
f 20/1/3 21/2/3 31/4/3 30/3/3
f 23/2/5 33/4/5 31/3/5 21/1/5
f 22/2/6 32/4/6 33/3/6 23/1/6
f 24/2/1 25/4/1 23/3/1 22/1/1
f 22/2/3 23/4/3 33/3/3 32/1/3
f 34/1/4 32/2/4 33/4/4 35/3/4
f 24/1/6 34/2/6 35/4/6 25/3/6
f 28/1/2 26/2/2 36/4/2 38/3/2
f 26/1/3 27/2/3 37/4/3 36/3/3
f 29/2/5 39/4/5 37/3/5 27/1/5
f 28/2/6 38/4/6 39/3/6 29/1/6
f 30/1/2 28/2/2 38/4/2 40/3/2
f 28/1/3 29/2/3 39/4/3 38/3/3
f 31/2/5 41/4/5 39/3/5 29/1/5
f 30/2/6 40/4/6 41/3/6 31/1/6
f 32/1/2 30/2/2 40/4/2 42/3/2
f 30/1/3 31/2/3 41/4/3 40/3/3
f 33/2/5 43/4/5 41/3/5 31/1/5
f 32/2/6 42/4/6 43/3/6 33/1/6
f 34/1/2 32/2/2 42/4/2 44/3/2
f 32/1/3 33/2/3 43/4/3 42/3/3
f 35/2/5 45/4/5 43/3/5 33/1/5
f 34/2/6 44/4/6 45/3/6 35/1/6
