mtllib lighthouse.mtl
usemtl anvil_top
v -4.1875 51 1
v -4.1875 51 0
v -4.8125 51 1
v -4.8125 51 0
v -4.1875 51 3
v -4.1875 51 2
v -4.8125 51 3
v -4.8125 51 2
v -1 51 -3.1875
v 0 51 -3.1875
v -1 51 -3.8125
v 0 51 -3.8125
v -1 51 6.8125
v 0 51 6.8125
v -1 51 6.1875
v 0 51 6.1875
v 1 51 -3.1875
v 2 51 -3.1875
v 1 51 -3.8125
v 2 51 -3.8125
v 1 51 6.8125
v 2 51 6.8125
v 1 51 6.1875
v 2 51 6.1875
v 3.1875 11 4
v 3.1875 11 5
v 3.8125 11 4
v 3.8125 11 5
v 5.1875 51 0
v 5.1875 51 1
v 5.8125 51 0
v 5.8125 51 1
v 5.1875 51 2
v 5.1875 51 3
v 5.8125 51 2
v 5.8125 51 3
vt 0.187500000 0.000000000
vt 0.812500000 0.000000000
vt 0.187500000 1.000000000
vt 0.812500000 1.000000000
vn 0 1 0
f 3/4/1 1/3/1 2/1/1 4/2/1
f 7/4/1 5/3/1 6/1/1 8/2/1
f 11/4/1 9/3/1 10/1/1 12/2/1
f 15/4/1 13/3/1 14/1/1 16/2/1
f 19/4/1 17/3/1 18/1/1 20/2/1
f 23/4/1 21/3/1 22/1/1 24/2/1
f 27/4/1 25/3/1 26/1/1 28/2/1
f 31/4/1 29/3/1 30/1/1 32/2/1
f 35/4/1 33/3/1 34/1/1 36/2/1
