mtllib lighthouse.mtl
usemtl brown_mushroom_block
v -1 8 10
v -1 9 10
v -1 8 11
v -1 9 11
v -1 8 12
v -1 9 12
v 0 8 10
v 0 9 10
v 0 8 11
v 0 9 11
v 0 8 12
v 0 9 12
v 1 8 11
v 1 9 11
v 1 8 12
v 1 9 12
v 2 8 7
v 2 9 7
v 2 8 8
v 2 9 8
v 2 8 9
v 2 9 9
v 2 8 10
v 2 9 10
v 2 8 13
v 2 9 13
v 2 8 14
v 2 9 14
v 3 8 7
v 3 9 7
v 3 8 8
v 3 9 8
v 3 8 9
v 3 9 9
v 3 8 10
v 3 9 10
v 3 8 13
v 3 9 13
v 3 8 14
v 3 9 14
vt 0.000000000 0.000000000
vt 1.000000000 0.000000000
vt 0.000000000 1.000000000
vt 1.000000000 1.000000000
vn -1 0 0
vn 0 -1 0
vn 0 0 -1
vn 1 0 0
vn 0 1 0
vn 0 0 1
f 3/2/1 4/4/1 2/3/1 1/1/1
f 3/3/2 1/1/2 7/2/2 9/4/2
f 1/2/3 2/4/3 8/3/3 7/1/3
f 9/1/4 7/2/4 8/4/4 10/3/4
f 4/1/5 10/2/5 8/4/5 2/3/5
f 5/2/1 6/4/1 4/3/1 3/1/1
f 5/3/2 3/1/2 9/2/2 11/4/2
f 6/1/5 12/2/5 10/4/5 4/3/5
f 5/1/6 11/2/6 12/4/6 6/3/6
f 11/3/2 9/1/2 13/2/2 15/4/2
f 9/2/3 10/4/3 14/3/3 13/1/3
f 15/1/4 13/2/4 14/4/4 16/3/4
f 12/1/5 16/2/5 14/4/5 10/3/5
f 11/1/6 15/2/6 16/4/6 12/3/6
f 19/2/1 20/4/1 18/3/1 17/1/1
f 19/3/2 17/1/2 29/2/2 31/4/2
f 17/2/3 18/4/3 30/3/3 29/1/3
f 31/1/4 29/2/4 30/4/4 32/3/4
f 20/1/5 32/2/5 30/4/5 18/3/5
f 19/1/6 31/2/6 32/4/6 20/3/6
f 23/2/1 24/4/1 22/3/1 21/1/1
f 23/3/2 21/1/2 33/2/2 35/4/2
f 21/2/3 22/4/3 34/3/3 33/1/3
f 35/1/4 33/2/4 34/4/4 36/3/4
f 24/1/5 36/2/5 34/4/5 22/3/5
f 23/1/6 35/2/6 36/4/6 24/3/6
f 27/2/1 28/4/1 26/3/1 25/1/1
f 27/3/2 25/1/2 37/2/2 39/4/2
f 25/2/3 26/4/3 38/3/3 37/1/3
f 39/1/4 37/2/4 38/4/4 40/3/4
f 28/1/5 40/2/5 38/4/5 26/3/5
f 27/1/6 39/2/6 40/4/6 28/3/6
