mtllib lighthouse.mtl
usemtl closed_eyeblossom
v -14.0989 13 15.2323
v -13.1926 13 16.1385
v -13.1926 14 16.1385
v -14.0989 14 15.2323
v -14.0989 13 16.1385
v -13.1926 13 15.2323
v -13.1926 14 15.2323
v -14.0989 14 16.1385
v 3.16016 11.25 4.16016
v 3.83984 11.25 4.83984
v 3.83984 12 4.83984
v 3.16016 12 4.16016
v 3.16016 11.25 4.83984
v 3.83984 11.25 4.16016
v 3.83984 12 4.16016
v 3.16016 12 4.83984
vt 0.000000000 0.000000000
vt 1.000000000 0.000000000
vt 0.000000000 1.000000000
vt 1.000000000 1.000000000
vn -0.707107 0 0.707107
vn 0.707107 0 0.707107
f 1/1/1 2/2/1 3/4/1 4/3/1
f 5/1/2 6/2/2 7/4/2 8/3/2
f 9/1/1 10/2/1 11/4/1 12/3/1
f 13/1/2 14/2/2 15/4/2 16/3/2
