mtllib lighthouse.mtl
usemtl redstone_torch
v -1.625 10.1948 -1.05774
v -1.625 10.2427 -0.942257
v -1.625 10.83 -1.32084
v -1.625 10.8778 -1.20535
v -1.375 10.1948 -1.05774
v -1.375 10.2427 -0.942257
v -1.375 10.83 -1.32084
v -1.375 10.8778 -1.20535
v -1.5625 10.1709 -1.11549
v -1.5625 10.2666 -0.884515
v -1.5625 10.8061 -1.37858
v -1.5625 10.9018 -1.14761
v -1.4375 10.1709 -1.11549
v -1.4375 10.2666 -0.884515
v -1.4375 10.8061 -1.37858
v -1.4375 10.9018 -1.14761
v -1.5625 10.2427 -0.942257
v -1.4375 10.2427 -0.942257
v -1.5625 10.8201 -1.18143
v -1.4375 10.8201 -1.18143
v -1.5625 10.1948 -1.05774
v -1.4375 10.1948 -1.05774
v -1.5625 10.7723 -1.29692
v -1.4375 10.7723 -1.29692
v -0.625 11 -1.5625
v -0.625 11 -1.4375
v -0.625 11.6875 -1.5625
v -0.625 11.6875 -1.4375
v -0.375 11 -1.5625
v -0.375 11 -1.4375
v -0.375 11.6875 -1.5625
v -0.375 11.6875 -1.4375
v -0.5625 11 -1.625
v -0.5625 11 -1.375
v -0.5625 11.6875 -1.625
v -0.5625 11.6875 -1.375
v -0.4375 11 -1.625
v -0.4375 11 -1.375
v -0.4375 11.6875 -1.625
v -0.4375 11.6875 -1.375
v -0.5625 11 -1.4375
v -0.4375 11 -1.4375
v -0.5625 11.625 -1.4375
v -0.4375 11.625 -1.4375
v -0.5625 11 -1.5625
v -0.4375 11 -1.5625
v -0.5625 11.625 -1.5625
v -0.4375 11.625 -1.5625
v 0.375 11.1948 -1.05774
v 0.375 11.2427 -0.942257
v 0.375 11.83 -1.32084
v 0.375 11.8778 -1.20535
v 0.625 11.1948 -1.05774
v 0.625 11.2427 -0.942257
v 0.625 11.83 -1.32084
v 0.625 11.8778 -1.20535
v 0.4375 11.1709 -1.11549
v 0.4375 11.2666 -0.884515
v 0.4375 11.8061 -1.37858
v 0.4375 11.9018 -1.14761
v 0.5625 11.1709 -1.11549
v 0.5625 11.2666 -0.884515
v 0.5625 11.8061 -1.37858
v 0.5625 11.9018 -1.14761
v 0.4375 11.2427 -0.942257
v 0.5625 11.2427 -0.942257
v 0.4375 11.8201 -1.18143
v 0.5625 11.8201 -1.18143
v 0.4375 11.1948 -1.05774
v 0.5625 11.1948 -1.05774
v 0.4375 11.7723 -1.29692
v 0.5625 11.7723 -1.29692
v 1.1875 10.125 -0.3125
v 1.1875 10.125 -0.1875
v 1.1875 10.5 -0.3125
v 1.1875 10.5 -0.1875
v 1.4375 10.125 -0.3125
v 1.4375 10.125 -0.1875
v 1.4375 10.5 -0.3125
v 1.4375 10.5 -0.1875
v 1.25 10.125 -0.375
v 1.25 10.125 -0.125
v 1.25 10.5 -0.375
v 1.25 10.5 -0.125
v 1.375 10.125 -0.375
v 1.375 10.125 -0.125
v 1.375 10.5 -0.375
v 1.375 10.5 -0.125
v 1.25 10.125 -0.1875
v 1.375 10.125 -0.1875
v 1.25 10.4375 -0.1875
v 1.375 10.4375 -0.1875
v 1.25 10.125 -0.3125
v 1.375 10.125 -0.3125
v 1.25 10.4375 -0.3125
v 1.375 10.4375 -0.3125
v 1.5625 10.125 -0.3125
v 1.5625 10.125 -0.1875
v 1.5625 10.5 -0.3125
v 1.5625 10.5 -0.1875
v 1.8125 10.125 -0.3125
v 1.8125 10.125 -0.1875
v 1.8125 10.5 -0.3125
v 1.8125 10.5 -0.1875
v 1.625 10.125 -0.375
v 1.625 10.125 -0.125
v 1.625 10.5 -0.375
v 1.625 10.5 -0.125
v 1.75 10.125 -0.375
v 1.75 10.125 -0.125
v 1.75 10.5 -0.375
v 1.75 10.5 -0.125
v 1.625 10.125 -0.1875
v 1.75 10.125 -0.1875
v 1.625 10.4375 -0.1875
v 1.75 10.4375 -0.1875
v 1.625 10.125 -0.3125
v 1.75 10.125 -0.3125
v 1.625 10.4375 -0.3125
v 1.75 10.4375 -0.3125
v 1.625 9.125 0.625
v 1.625 9.125 0.5
v 1.625 9.5 0.625
v 1.625 9.5 0.5
v 1.375 9.125 0.625
v 1.375 9.125 0.5
v 1.375 9.5 0.625
v 1.375 9.5 0.5
v 1.5625 9.125 0.6875
v 1.5625 9.125 0.4375
v 1.5625 9.5 0.6875
v 1.5625 9.5 0.4375
v 1.4375 9.125 0.6875
v 1.4375 9.125 0.4375
v 1.4375 9.5 0.6875
v 1.4375 9.5 0.4375
v 1.5625 9.125 0.5
v 1.4375 9.125 0.5
v 1.5625 9.4375 0.5
v 1.4375 9.4375 0.5
v 1.5625 9.125 0.625
v 1.4375 9.125 0.625
v 1.5625 9.4375 0.625
v 1.4375 9.4375 0.625
v 1.625 9.125 0.875
v 1.625 9.125 0.75
v 1.625 9.5 0.875
v 1.625 9.5 0.75
v 1.375 9.125 0.875
v 1.375 9.125 0.75
v 1.375 9.5 0.875
v 1.375 9.5 0.75
v 1.5625 9.125 0.9375
v 1.5625 9.125 0.6875
v 1.5625 9.5 0.9375
v 1.5625 9.5 0.6875
v 1.4375 9.125 0.9375
v 1.4375 9.125 0.6875
v 1.4375 9.5 0.9375
v 1.4375 9.5 0.6875
v 1.5625 9.125 0.75
v 1.4375 9.125 0.75
v 1.5625 9.4375 0.75
v 1.4375 9.4375 0.75
v 1.5625 9.125 0.875
v 1.4375 9.125 0.875
v 1.5625 9.4375 0.875
v 1.4375 9.4375 0.875
v 2.05774 12.1948 -1.625
v 1.94226 12.2427 -1.625
v 2.32084 12.83 -1.625
v 2.20535 12.8778 -1.625
v 2.05774 12.1948 -1.375
v 1.94226 12.2427 -1.375
v 2.32084 12.83 -1.375
v 2.20535 12.8778 -1.375
v 2.11548 12.1709 -1.5625
v 1.88451 12.2666 -1.5625
v 2.37858 12.8061 -1.5625
v 2.14761 12.9018 -1.5625
v 2.11548 12.1709 -1.4375
v 1.88451 12.2666 -1.4375
v 2.37858 12.8061 -1.4375
v 2.14761 12.9018 -1.4375
v 1.94226 12.2427 -1.5625
v 1.94226 12.2427 -1.4375
v 2.18143 12.8201 -1.5625
v 2.18143 12.8201 -1.4375
v 2.05774 12.1948 -1.5625
v 2.05774 12.1948 -1.4375
v 2.29692 12.7723 -1.5625
v 2.29692 12.7723 -1.4375
vt 0.375000000 0.000000000
vt 0.625000000 0.000000000
vt 0.437500000 0.187500000
vt 0.562500000 0.187500000
vt 0.375000000 0.312500000
vt 0.437500000 0.312500000
vt 0.562500000 0.312500000
vt 0.625000000 0.312500000
vt 0.437500000 0.500000000
vt 0.562500000 0.500000000
vt 0.437500000 0.625000000
vt 0.562500000 0.625000000
vt 0.375000000 0.687500000
vt 0.625000000 0.687500000
vn -1 0 0
vn 0 -1 0
vn 0 0 -1
vn 1 0 0
vn 0 1 0
vn 0 0 1
vn 0.397273 0.9177 0
vn -0.397273 -0.9177 0
vn 0 0.9177 -0.397273
vn 0 -0.9177 0.397273
vn 0.923879 -0.382685 0
vn -0.923879 0.382685 0
vn -0 -0.382684 -0.92388
vn -0 0.382684 0.92388
f 7/13/13 5/1/13 1/2/13 3/14/13
f 8/14/14 4/13/14 2/1/14 6/2/14
f 11/13/1 9/1/1 10/2/1 12/14/1
f 15/14/4 16/13/4 14/1/4 13/2/4
f 23/12/9 19/11/9 20/9/9 24/10/9
f 18/6/10 17/3/10 21/4/10 22/7/10
f 31/13/3 29/1/3 25/2/3 27/14/3
f 32/14/6 28/13/6 26/1/6 30/2/6
f 35/13/1 33/1/1 34/2/1 36/14/1
f 39/14/4 40/13/4 38/1/4 37/2/4
f 47/12/5 43/11/5 44/9/5 48/10/5
f 42/6/2 41/3/2 45/4/2 46/7/2
f 55/13/13 53/1/13 49/2/13 51/14/13
f 56/14/14 52/13/14 50/1/14 54/2/14
f 59/13/1 57/1/1 58/2/1 60/14/1
f 63/14/4 64/13/4 62/1/4 61/2/4
f 71/12/9 67/11/9 68/9/9 72/10/9
f 66/6/10 65/3/10 69/4/10 70/7/10
f 79/13/3 77/5/3 73/8/3 75/14/3
f 80/14/6 76/13/6 74/5/6 78/8/6
f 83/13/1 81/5/1 82/8/1 84/14/1
f 87/14/4 88/13/4 86/5/4 85/8/4
f 95/12/5 91/11/5 92/9/5 96/10/5
f 90/6/2 89/3/2 93/4/2 94/7/2
f 103/13/3 101/5/3 97/8/3 99/14/3
f 104/14/6 100/13/6 98/5/6 102/8/6
f 107/13/1 105/5/1 106/8/1 108/14/1
f 111/14/4 112/13/4 110/5/4 109/8/4
f 119/12/5 115/11/5 116/9/5 120/10/5
f 114/6/2 113/3/2 117/4/2 118/7/2
f 123/14/6 127/13/6 125/5/6 121/8/6
f 124/13/3 122/5/3 126/8/3 128/14/3
f 132/14/4 131/13/4 129/5/4 130/8/4
f 136/13/1 134/5/1 133/8/1 135/14/1
f 143/12/5 139/11/5 140/9/5 144/10/5
f 138/6/2 137/3/2 141/4/2 142/7/2
f 147/14/6 151/13/6 149/5/6 145/8/6
f 148/13/3 146/5/3 150/8/3 152/14/3
f 156/14/4 155/13/4 153/5/4 154/8/4
f 160/13/1 158/5/1 157/8/1 159/14/1
f 167/12/5 163/11/5 164/9/5 168/10/5
f 162/6/2 161/3/2 165/4/2 166/7/2
f 171/14/11 175/13/11 173/1/11 169/2/11
f 172/13/12 170/1/12 174/2/12 176/14/12
f 179/13/3 177/1/3 178/2/3 180/14/3
f 183/14/6 184/13/6 182/1/6 181/2/6
f 191/12/7 187/11/7 188/9/7 192/10/7
f 186/6/8 185/3/8 189/4/8 190/7/8
