mtllib lighthouse.mtl
usemtl observer_front
v -2 49 0
v -2 50 0
v -2 49 1
v -2 50 1
v -2 49 2
v -2 50 2
v -2 50 3
v -1 50 -1
v -1 49 0
v -1 50 0
v -1 49 1
v -1 50 1
v -1 49 2
v -1 50 2
v -1 49 3
v -1 50 3
v -1 49 4
v -1 50 4
v 0 49 -1
v 0 50 -1
v 0 49 0
v 0 50 0
v 0 49 3
v 0 49 4
v 0 50 3
v 0 50 4
v 1 49 -1
v 1 50 -1
v 1 49 0
v 1 50 0
v 1 49 3
v 1 49 4
v 1 50 3
v 1 50 4
v 2 49 -1
v 2 50 -1
v 2 49 0
v 2 50 0
v 2 49 3
v 2 50 3
v 2 50 4
v 3 50 0
v 2 49 1
v 3 49 1
v 2 50 1
v 3 50 1
v 2 49 2
v 3 49 2
v 2 50 2
v 3 50 2
v 3 49 3
v 3 50 3
vt 0.000000000 0.000000000
vt 1.000000000 0.000000000
vt 0.000000000 1.000000000
vt 1.000000000 1.000000000
vn -1 0 0
vn 0 -1 0
vn 0 0 -1
vn 1 0 0
vn 0 0 1
f 1/2/3 2/4/3 10/3/3 9/1/3
f 4/2/2 2/4/2 10/3/2 12/1/2
f 3/2/3 4/4/3 12/3/3 11/1/3
f 6/2/2 4/4/2 12/3/2 14/1/2
f 5/2/3 6/4/3 14/3/3 13/1/3
f 7/2/2 6/4/2 14/3/2 16/1/2
f 21/1/4 19/2/4 20/4/4 22/3/4
f 10/2/2 8/4/2 20/3/2 22/1/2
f 17/2/1 18/4/1 16/3/1 15/1/1
f 18/2/2 16/4/2 25/3/2 26/1/2
f 29/1/4 27/2/4 28/4/4 30/3/4
f 22/2/2 20/4/2 28/3/2 30/1/2
f 24/2/1 26/4/1 25/3/1 23/1/1
f 26/2/2 25/4/2 33/3/2 34/1/2
f 37/1/4 35/2/4 36/4/4 38/3/4
f 30/2/2 28/4/2 36/3/2 38/1/2
f 32/2/1 34/4/1 33/3/1 31/1/1
f 34/2/2 33/4/2 40/3/2 41/1/2
f 43/1/5 44/2/5 46/4/5 45/3/5
f 45/2/2 38/4/2 42/3/2 46/1/2
f 47/1/5 48/2/5 50/4/5 49/3/5
f 49/2/2 45/4/2 46/3/2 50/1/2
f 39/1/5 51/2/5 52/4/5 40/3/5
f 40/2/2 49/4/2 50/3/2 52/1/2
