mtllib lighthouse.mtl
usemtl red_concrete
v 2.9375 11 9.1875
v 2.9375 11 9.125
v 2.9375 11.875 9.1875
v 2.9375 11.875 9.125
v 2.0625 11 9.1875
v 2.0625 11 9.125
v 2.0625 11.875 9.1875
v 2.0625 11.875 9.125
v 2.9375 10.1875 9.1875
v 2.9375 10.1875 9.125
v 2.9375 11 9.1875
v 2.9375 11 9.125
v 2.0625 10.1875 9.1875
v 2.0625 10.1875 9.125
v 2.0625 11 9.1875
v 2.0625 11 9.125
vt 0.062500000 0.000000000
vt 0.125000000 0.000000000
vt 0.187500000 0.000000000
vt 0.812500000 0.000000000
vt 0.875000000 0.000000000
vt 0.937500000 0.000000000
vt 0.062500000 0.187500000
vt 0.187500000 0.187500000
vt 0.250000000 0.187500000
vt 0.750000000 0.187500000
vt 0.812500000 0.187500000
vt 0.937500000 0.187500000
vt 0.062500000 0.250000000
vt 0.937500000 0.250000000
vt 0.062500000 0.812500000
vt 0.937500000 0.812500000
vt 0.062500000 0.875000000
vt 0.125000000 0.875000000
vt 0.187500000 0.875000000
vt 0.812500000 0.875000000
vt 0.875000000 0.875000000
vt 0.937500000 0.875000000
vt 0.062500000 1.000000000
vt 0.187500000 1.000000000
vt 0.250000000 1.000000000
vt 0.750000000 1.000000000
vt 0.812500000 1.000000000
vt 0.937500000 1.000000000
vn -1 0 0
vn 0 -1 0
vn 0 0 -1
vn 1 0 0
vn 0 1 0
vn 0 0 1
f 4/19/4 3/18/4 1/2/4 2/3/4
f 3/22/6 7/17/6 5/1/6 1/6/6
f 8/20/1 6/4/1 5/5/1 7/21/1
f 7/22/5 3/17/5 4/15/5 8/16/5
f 4/17/3 2/1/3 6/6/3 8/22/3
f 12/27/4 11/26/4 9/10/4 10/11/4
f 10/13/2 9/7/2 13/12/2 14/14/2
f 11/28/6 15/23/6 13/7/6 9/12/6
f 16/24/1 14/8/1 13/9/1 15/25/1
f 12/23/3 10/7/3 14/12/3 16/28/3
