mtllib lighthouse.mtl
usemtl cobblestone
v -5 13 0
v -5 14 0
v -5 13 1
v -5 14 1
v -5 13 2
v -5 14 2
v -5 13 3
v -5 14 3
v -4 13 -1
v -4 13 -2
v -4 14 -2
v -4 14 -1
v -4 13 0
v -4 14 0
v -4 13 1
v -4 14 1
v -4 13 2
v -4 14 2
v -4 13 3
v -4 14 3
v -4 9 4
v -4 10 4
v -4 13 4
v -4 14 4
v -4 9 5
v -4 13 5
v -4 14 5
v -3 13 -2
v -3 13 -3
v -3 14 -3
v -3 14 -2
v -3 13 -1
v -3 14 -1
v -3 18 -1
v -3 18 0
v -3 19 -1
v -3 19 0
v -3 18 1
v -3 19 1
v -3 18 2
v -3 19 2
v -3 18 3
v -3 19 3
v -3 9 4
v -3 14 4
v -3 18 4
v -3 19 4
v -3 9 5
v -4 10 5
v -3 10 4
v -3 10 5
v -3 13 4
v -3 13 5
v -3 14 5
v -3 9 6
v -3 13 6
v -3 14 6
v -2 13 -3
v -2 14 -3
v -2 13 -2
v -2 14 -2
v -2 18 -2
v -2 18 -1
v -2 19 -2
v -2 19 -1
v -2 18 0
v -2 19 0
v -2 49 0
v -2 18 1
v -2 19 1
v -2 48 0
v -2 48 1
v -2 49 1
v -2 18 2
v -2 19 2
v -2 48 2
v -2 49 2
v -2 18 3
v -2 19 3
v -2 48 3
v -2 49 3
v -2 18 4
v -2 19 4
v -2 9 5
v -2 14 5
v -2 18 5
v -2 19 5
v -2 9 6
v -3 10 6
v -2 10 5
v -2 10 6
v -2 13 5
v -2 13 6
v -2 14 6
v -1 13 -4
v -1 14 -4
v -1 13 -3
v -1 14 -3
v -1 18 -2
v -1 19 -2
v -1 18 -1
v -1 19 -1
v -1 49 -1
v -1 18 0
v -1 19 0
v -1 48 -1
v -1 48 0
v -1 49 0
v -1 48 1
v -1 49 1
v -1 48 2
v -1 49 2
v -1 48 3
v -1 49 3
v -1 18 4
v -1 18 3
v -1 19 3
v -1 19 4
v -1 48 4
v -1 49 4
v -1 18 5
v -1 19 5
v -1 14 6
v -1 13 6
v -1 13 7
v -1 14 7
v 0 13 -4
v 0 14 -4
v 0 13 -3
v 0 14 -3
v 0 18 -2
v 0 19 -2
v 0 18 -1
v 0 19 -1
v 0 48 -1
v 0 49 -1
v 0 48 0
v 0 49 0
v 0 48 4
v 0 48 3
v 0 49 3
v 0 49 4
v 0 18 5
v 0 18 4
v 0 19 4
v 0 19 5
v 0 14 6
v 0 13 6
v 0 13 7
v 0 14 7
v 1 13 -4
v 1 14 -4
v 1 13 -3
v 1 14 -3
v 1 18 -2
v 1 19 -2
v 1 18 -1
v 1 19 -1
v 1 48 -1
v 1 49 -1
v 1 48 0
v 1 49 0
v 1 48 4
v 1 48 3
v 1 49 3
v 1 49 4
v 1 18 5
v 1 18 4
v 1 19 4
v 1 19 5
v 1 14 6
v 1 13 6
v 1 13 7
v 1 14 7
v 2 13 -4
v 2 14 -4
v 2 13 -3
v 2 14 -3
v 2 18 -2
v 2 19 -2
v 2 18 -1
v 2 19 -1
v 2 48 -1
v 2 49 -1
v 2 48 0
v 2 49 0
v 2 48 4
v 2 48 3
v 2 49 3
v 2 49 4
v 2 18 5
v 2 18 4
v 2 19 4
v 2 19 5
v 2 14 6
v 2 13 6
v 2 13 7
v 2 14 7
v 3 13 -3
v 3 14 -3
v 3 14 -2
v 3 18 -2
v 3 19 -2
v 3 13 -2
v 3 18 -1
v 3 19 -1
v 2 18 0
v 2 19 0
v 3 18 0
v 3 19 0
v 3 48 0
v 3 49 0
v 2 48 1
v 2 49 1
v 3 48 1
v 3 49 1
v 3 18 1
v 3 18 2
v 2 48 2
v 2 49 2
v 3 48 2
v 3 49 2
v 2 18 3
v 3 18 3
v 2 19 3
v 3 19 2
v 3 19 3
v 3 48 3
v 3 49 3
v 3 18 4
v 3 19 4
v 3 14 5
v 3 18 5
v 3 19 5
v 3 13 5
v 3 13 6
v 3 14 6
v 4 13 -3
v 4 14 -3
v 4 13 -2
v 4 14 -2
v 4 14 -1
v 4 18 -1
v 4 19 -1
v 4 18 0
v 4 19 0
v 3 19 1
v 4 18 1
v 4 19 1
v 4 18 2
v 4 19 2
v 4 18 3
v 4 19 3
v 4 13 4
v 4 14 4
v 4 18 4
v 4 19 4
v 4 13 5
v 4 14 5
v 4 13 6
v 4 14 6
v 5 13 -2
v 5 14 -2
v 4 13 -1
v 5 13 -1
v 5 14 -1
v 5 14 0
v 5 14 1
v 5 14 2
v 5 14 3
v 5 14 4
v 5 13 4
v 5 13 5
v 5 14 5
v 5 13 0
v 6 13 0
v 6 14 0
v 5 13 1
v 6 13 1
v 6 14 1
v 5 13 2
v 6 13 2
v 6 14 2
v 5 13 3
v 6 13 3
v 6 14 3
vt 0.000000000 0.000000000
vt 1.000000000 0.000000000
vt 0.000000000 1.000000000
vt 1.000000000 1.000000000
vn -1 0 0
vn 0 -1 0
vn 0 0 -1
vn 1 0 0
vn 0 1 0
vn 0 0 1
f 3/2/1 4/4/1 2/3/1 1/1/1
f 3/3/2 1/1/2 13/2/2 15/4/2
f 1/2/3 2/4/3 14/3/3 13/1/3
f 15/1/4 13/2/4 14/4/4 16/3/4
f 4/1/5 16/2/5 14/4/5 2/3/5
f 3/1/6 15/2/6 16/4/6 4/3/6
f 5/2/1 6/4/1 4/3/1 3/1/1
f 5/3/2 3/1/2 15/2/2 17/4/2
f 3/2/3 4/4/3 16/3/3 15/1/3
f 17/1/4 15/2/4 16/4/4 18/3/4
f 6/1/5 18/2/5 16/4/5 4/3/5
f 5/1/6 17/2/6 18/4/6 6/3/6
f 7/2/1 8/4/1 6/3/1 5/1/1
f 7/3/2 5/1/2 17/2/2 19/4/2
f 5/2/3 6/4/3 18/3/3 17/1/3
f 19/1/4 17/2/4 18/4/4 20/3/4
f 8/1/5 20/2/5 18/4/5 6/3/5
f 7/1/6 19/2/6 20/4/6 8/3/6
f 9/2/1 12/4/1 11/3/1 10/1/1
f 9/3/2 10/1/2 28/2/2 32/4/2
f 10/2/3 11/4/3 31/3/3 28/1/3
f 32/1/4 28/2/4 31/4/4 33/3/4
f 12/1/5 33/2/5 31/4/5 11/3/5
f 9/1/6 32/2/6 33/4/6 12/3/6
f 25/2/1 49/4/1 22/3/1 21/1/1
f 25/3/2 21/1/2 44/2/2 48/4/2
f 21/2/3 22/4/3 50/3/3 44/1/3
f 48/1/4 44/2/4 50/4/4 51/3/4
f 49/1/5 51/2/5 50/4/5 22/3/5
f 25/1/6 48/2/6 51/4/6 49/3/6
f 26/2/1 27/4/1 24/3/1 23/1/1
f 26/3/2 23/1/2 52/2/2 53/4/2
f 23/2/3 24/4/3 45/3/3 52/1/3
f 53/1/4 52/2/4 45/4/4 54/3/4
f 27/1/5 54/2/5 45/4/5 24/3/5
f 26/1/6 53/2/6 54/4/6 27/3/6
f 28/2/1 31/4/1 30/3/1 29/1/1
f 28/3/2 29/1/2 58/2/2 60/4/2
f 29/2/3 30/4/3 59/3/3 58/1/3
f 60/1/4 58/2/4 59/4/4 61/3/4
f 31/1/5 61/2/5 59/4/5 30/3/5
f 28/1/6 60/2/6 61/4/6 31/3/6
f 35/2/1 37/4/1 36/3/1 34/1/1
f 35/3/2 34/1/2 63/2/2 66/4/2
f 34/2/3 36/4/3 65/3/3 63/1/3
f 66/1/4 63/2/4 65/4/4 67/3/4
f 37/1/5 67/2/5 65/4/5 36/3/5
f 35/1/6 66/2/6 67/4/6 37/3/6
f 38/2/1 39/4/1 37/3/1 35/1/1
f 38/3/2 35/1/2 66/2/2 69/4/2
f 35/2/3 37/4/3 67/3/3 66/1/3
f 69/1/4 66/2/4 67/4/4 70/3/4
f 39/1/5 70/2/5 67/4/5 37/3/5
f 38/1/6 69/2/6 70/4/6 39/3/6
f 40/2/1 41/4/1 39/3/1 38/1/1
f 40/3/2 38/1/2 69/2/2 74/4/2
f 38/2/3 39/4/3 70/3/3 69/1/3
f 74/1/4 69/2/4 70/4/4 75/3/4
f 41/1/5 75/2/5 70/4/5 39/3/5
f 40/1/6 74/2/6 75/4/6 41/3/6
f 42/2/1 43/4/1 41/3/1 40/1/1
f 42/3/2 40/1/2 74/2/2 78/4/2
f 40/2/3 41/4/3 75/3/3 74/1/3
f 78/1/4 74/2/4 75/4/4 79/3/4
f 43/1/5 79/2/5 75/4/5 41/3/5
f 42/1/6 78/2/6 79/4/6 43/3/6
f 46/2/1 47/4/1 43/3/1 42/1/1
f 46/3/2 42/1/2 78/2/2 82/4/2
f 42/2/3 43/4/3 79/3/3 78/1/3
f 82/1/4 78/2/4 79/4/4 83/3/4
f 47/1/5 83/2/5 79/4/5 43/3/5
f 46/1/6 82/2/6 83/4/6 47/3/6
f 55/2/1 89/4/1 51/3/1 48/1/1
f 55/3/2 48/1/2 84/2/2 88/4/2
f 48/2/3 51/4/3 90/3/3 84/1/3
f 88/1/4 84/2/4 90/4/4 91/3/4
f 89/1/5 91/2/5 90/4/5 51/3/5
f 55/1/6 88/2/6 91/4/6 89/3/6
f 56/2/1 57/4/1 54/3/1 53/1/1
f 56/3/2 53/1/2 92/2/2 93/4/2
f 53/2/3 54/4/3 85/3/3 92/1/3
f 93/1/4 92/2/4 85/4/4 94/3/4
f 57/1/5 94/2/5 85/4/5 54/3/5
f 56/1/6 93/2/6 94/4/6 57/3/6
f 63/2/1 65/4/1 64/3/1 62/1/1
f 63/3/2 62/1/2 99/2/2 101/4/2
f 62/2/3 64/4/3 100/3/3 99/1/3
f 101/1/4 99/2/4 100/4/4 102/3/4
f 65/1/5 102/2/5 100/4/5 64/3/5
f 63/1/6 101/2/6 102/4/6 65/3/6
f 66/2/1 67/4/1 65/3/1 63/1/1
f 66/3/2 63/1/2 101/2/2 104/4/2
f 63/2/3 65/4/3 102/3/3 101/1/3
f 104/1/4 101/2/4 102/4/4 105/3/4
f 67/1/5 105/2/5 102/4/5 65/3/5
f 66/1/6 104/2/6 105/4/6 67/3/6
f 72/2/1 73/4/1 68/3/1 71/1/1
f 72/3/2 71/1/2 107/2/2 109/4/2
f 71/2/3 68/4/3 108/3/3 107/1/3
f 109/1/4 107/2/4 108/4/4 110/3/4
f 73/1/5 110/2/5 108/4/5 68/3/5
f 72/1/6 109/2/6 110/4/6 73/3/6
f 76/2/1 77/4/1 73/3/1 72/1/1
f 76/3/2 72/1/2 109/2/2 111/4/2
f 72/2/3 73/4/3 110/3/3 109/1/3
f 111/1/4 109/2/4 110/4/4 112/3/4
f 77/1/5 112/2/5 110/4/5 73/3/5
f 76/1/6 111/2/6 112/4/6 77/3/6
f 80/2/1 81/4/1 77/3/1 76/1/1
f 80/3/2 76/1/2 111/2/2 113/4/2
f 76/2/3 77/4/3 112/3/3 111/1/3
f 113/1/4 111/2/4 112/4/4 114/3/4
f 81/1/5 114/2/5 112/4/5 77/3/5
f 80/1/6 113/2/6 114/4/6 81/3/6
f 82/2/1 83/4/1 79/3/1 78/1/1
f 82/3/2 78/1/2 116/2/2 115/4/2
f 78/2/3 79/4/3 117/3/3 116/1/3
f 115/1/4 116/2/4 117/4/4 118/3/4
f 83/1/5 118/2/5 117/4/5 79/3/5
f 82/1/6 115/2/6 118/4/6 83/3/6
f 86/2/1 87/4/1 83/3/1 82/1/1
f 86/3/2 82/1/2 115/2/2 121/4/2
f 82/2/3 83/4/3 118/3/3 115/1/3
f 121/1/4 115/2/4 118/4/4 122/3/4
f 87/1/5 122/2/5 118/4/5 83/3/5
f 86/1/6 121/2/6 122/4/6 87/3/6
f 97/2/1 98/4/1 96/3/1 95/1/1
f 97/3/2 95/1/2 127/2/2 129/4/2
f 95/2/3 96/4/3 128/3/3 127/1/3
f 129/1/4 127/2/4 128/4/4 130/3/4
f 98/1/5 130/2/5 128/4/5 96/3/5
f 97/1/6 129/2/6 130/4/6 98/3/6
f 101/2/1 102/4/1 100/3/1 99/1/1
f 101/3/2 99/1/2 131/2/2 133/4/2
f 99/2/3 100/4/3 132/3/3 131/1/3
f 133/1/4 131/2/4 132/4/4 134/3/4
f 102/1/5 134/2/5 132/4/5 100/3/5
f 101/1/6 133/2/6 134/4/6 102/3/6
f 107/2/1 108/4/1 103/3/1 106/1/1
f 107/3/2 106/1/2 135/2/2 137/4/2
f 106/2/3 103/4/3 136/3/3 135/1/3
f 137/1/4 135/2/4 136/4/4 138/3/4
f 108/1/5 138/2/5 136/4/5 103/3/5
f 107/1/6 137/2/6 138/4/6 108/3/6
f 119/2/1 120/4/1 114/3/1 113/1/1
f 119/3/2 113/1/2 140/2/2 139/4/2
f 113/2/3 114/4/3 141/3/3 140/1/3
f 139/1/4 140/2/4 141/4/4 142/3/4
f 120/1/5 142/2/5 141/4/5 114/3/5
f 119/1/6 139/2/6 142/4/6 120/3/6
f 121/2/1 122/4/1 118/3/1 115/1/1
f 121/3/2 115/1/2 144/2/2 143/4/2
f 115/2/3 118/4/3 145/3/3 144/1/3
f 143/1/4 144/2/4 145/4/4 146/3/4
f 122/1/5 146/2/5 145/4/5 118/3/5
f 121/1/6 143/2/6 146/4/6 122/3/6
f 125/2/1 126/4/1 123/3/1 124/1/1
f 125/3/2 124/1/2 148/2/2 149/4/2
f 124/2/3 123/4/3 147/3/3 148/1/3
f 149/1/4 148/2/4 147/4/4 150/3/4
f 126/1/5 150/2/5 147/4/5 123/3/5
f 125/1/6 149/2/6 150/4/6 126/3/6
f 129/2/1 130/4/1 128/3/1 127/1/1
f 129/3/2 127/1/2 151/2/2 153/4/2
f 127/2/3 128/4/3 152/3/3 151/1/3
f 153/1/4 151/2/4 152/4/4 154/3/4
f 130/1/5 154/2/5 152/4/5 128/3/5
f 129/1/6 153/2/6 154/4/6 130/3/6
f 133/2/1 134/4/1 132/3/1 131/1/1
f 133/3/2 131/1/2 155/2/2 157/4/2
f 131/2/3 132/4/3 156/3/3 155/1/3
f 157/1/4 155/2/4 156/4/4 158/3/4
f 134/1/5 158/2/5 156/4/5 132/3/5
f 133/1/6 157/2/6 158/4/6 134/3/6
f 137/2/1 138/4/1 136/3/1 135/1/1
f 137/3/2 135/1/2 159/2/2 161/4/2
f 135/2/3 136/4/3 160/3/3 159/1/3
f 161/1/4 159/2/4 160/4/4 162/3/4
f 138/1/5 162/2/5 160/4/5 136/3/5
f 137/1/6 161/2/6 162/4/6 138/3/6
f 139/2/1 142/4/1 141/3/1 140/1/1
f 139/3/2 140/1/2 164/2/2 163/4/2
f 140/2/3 141/4/3 165/3/3 164/1/3
f 163/1/4 164/2/4 165/4/4 166/3/4
f 142/1/5 166/2/5 165/4/5 141/3/5
f 139/1/6 163/2/6 166/4/6 142/3/6
f 143/2/1 146/4/1 145/3/1 144/1/1
f 143/3/2 144/1/2 168/2/2 167/4/2
f 144/2/3 145/4/3 169/3/3 168/1/3
f 167/1/4 168/2/4 169/4/4 170/3/4
f 146/1/5 170/2/5 169/4/5 145/3/5
f 143/1/6 167/2/6 170/4/6 146/3/6
f 149/2/1 150/4/1 147/3/1 148/1/1
f 149/3/2 148/1/2 172/2/2 173/4/2
f 148/2/3 147/4/3 171/3/3 172/1/3
f 173/1/4 172/2/4 171/4/4 174/3/4
f 150/1/5 174/2/5 171/4/5 147/3/5
f 149/1/6 173/2/6 174/4/6 150/3/6
f 153/2/1 154/4/1 152/3/1 151/1/1
f 153/3/2 151/1/2 175/2/2 177/4/2
f 151/2/3 152/4/3 176/3/3 175/1/3
f 177/1/4 175/2/4 176/4/4 178/3/4
f 154/1/5 178/2/5 176/4/5 152/3/5
f 153/1/6 177/2/6 178/4/6 154/3/6
f 157/2/1 158/4/1 156/3/1 155/1/1
f 157/3/2 155/1/2 179/2/2 181/4/2
f 155/2/3 156/4/3 180/3/3 179/1/3
f 181/1/4 179/2/4 180/4/4 182/3/4
f 158/1/5 182/2/5 180/4/5 156/3/5
f 157/1/6 181/2/6 182/4/6 158/3/6
f 161/2/1 162/4/1 160/3/1 159/1/1
f 161/3/2 159/1/2 183/2/2 185/4/2
f 159/2/3 160/4/3 184/3/3 183/1/3
f 185/1/4 183/2/4 184/4/4 186/3/4
f 162/1/5 186/2/5 184/4/5 160/3/5
f 161/1/6 185/2/6 186/4/6 162/3/6
f 163/2/1 166/4/1 165/3/1 164/1/1
f 163/3/2 164/1/2 188/2/2 187/4/2
f 164/2/3 165/4/3 189/3/3 188/1/3
f 187/1/4 188/2/4 189/4/4 190/3/4
f 166/1/5 190/2/5 189/4/5 165/3/5
f 163/1/6 187/2/6 190/4/6 166/3/6
f 167/2/1 170/4/1 169/3/1 168/1/1
f 167/3/2 168/1/2 192/2/2 191/4/2
f 168/2/3 169/4/3 193/3/3 192/1/3
f 191/1/4 192/2/4 193/4/4 194/3/4
f 170/1/5 194/2/5 193/4/5 169/3/5
f 167/1/6 191/2/6 194/4/6 170/3/6
f 173/2/1 174/4/1 171/3/1 172/1/1
f 173/3/2 172/1/2 196/2/2 197/4/2
f 172/2/3 171/4/3 195/3/3 196/1/3
f 197/1/4 196/2/4 195/4/4 198/3/4
f 174/1/5 198/2/5 195/4/5 171/3/5
f 173/1/6 197/2/6 198/4/6 174/3/6
f 181/2/1 182/4/1 180/3/1 179/1/1
f 181/3/2 179/1/2 202/2/2 205/4/2
f 179/2/3 180/4/3 203/3/3 202/1/3
f 205/1/4 202/2/4 203/4/4 206/3/4
f 182/1/5 206/2/5 203/4/5 180/3/5
f 181/1/6 205/2/6 206/4/6 182/3/6
f 207/2/1 208/4/1 182/3/1 181/1/1
f 207/3/2 181/1/2 205/2/2 209/4/2
f 181/2/3 182/4/3 206/3/3 205/1/3
f 209/1/4 205/2/4 206/4/4 210/3/4
f 208/1/5 210/2/5 206/4/5 182/3/5
f 207/1/6 209/2/6 210/4/6 208/3/6
f 213/2/1 214/4/1 186/3/1 185/1/1
f 213/3/2 185/1/2 211/2/2 215/4/2
f 185/2/3 186/4/3 212/3/3 211/1/3
f 215/1/4 211/2/4 212/4/4 216/3/4
f 214/1/5 216/2/5 212/4/5 186/3/5
f 213/1/6 215/2/6 216/4/6 214/3/6
f 219/2/1 220/4/1 214/3/1 213/1/1
f 219/3/2 213/1/2 215/2/2 221/4/2
f 213/2/3 214/4/3 216/3/3 215/1/3
f 221/1/4 215/2/4 216/4/4 222/3/4
f 220/1/5 222/2/5 216/4/5 214/3/5
f 219/1/6 221/2/6 222/4/6 220/3/6
f 188/2/1 189/4/1 220/3/1 219/1/1
f 188/3/2 219/1/2 221/2/2 228/4/2
f 219/2/3 220/4/3 222/3/3 221/1/3
f 228/1/4 221/2/4 222/4/4 229/3/4
f 189/1/5 229/2/5 222/4/5 220/3/5
f 188/1/6 228/2/6 229/4/6 189/3/6
f 192/2/1 193/4/1 225/3/1 223/1/1
f 192/3/2 223/1/2 224/2/2 230/4/2
f 223/2/3 225/4/3 227/3/3 224/1/3
f 230/1/4 224/2/4 227/4/4 231/3/4
f 193/1/5 231/2/5 227/4/5 225/3/5
f 192/1/6 230/2/6 231/4/6 193/3/6
f 191/2/1 194/4/1 193/3/1 192/1/1
f 191/3/2 192/1/2 230/2/2 233/4/2
f 192/2/3 193/4/3 231/3/3 230/1/3
f 233/1/4 230/2/4 231/4/4 234/3/4
f 194/1/5 234/2/5 231/4/5 193/3/5
f 191/1/6 233/2/6 234/4/6 194/3/6
f 204/2/1 201/4/1 200/3/1 199/1/1
f 204/3/2 199/1/2 238/2/2 240/4/2
f 199/2/3 200/4/3 239/3/3 238/1/3
f 240/1/4 238/2/4 239/4/4 241/3/4
f 201/1/5 241/2/5 239/4/5 200/3/5
f 204/1/6 240/2/6 241/4/6 201/3/6
f 209/2/1 210/4/1 206/3/1 205/1/1
f 209/3/2 205/1/2 243/2/2 245/4/2
f 205/2/3 206/4/3 244/3/3 243/1/3
f 245/1/4 243/2/4 244/4/4 246/3/4
f 210/1/5 246/2/5 244/4/5 206/3/5
f 209/1/6 245/2/6 246/4/6 210/3/6
f 217/2/1 247/4/1 210/3/1 209/1/1
f 217/3/2 209/1/2 245/2/2 248/4/2
f 209/2/3 210/4/3 246/3/3 245/1/3
f 248/1/4 245/2/4 246/4/4 249/3/4
f 247/1/5 249/2/5 246/4/5 210/3/5
f 217/1/6 248/2/6 249/4/6 247/3/6
f 218/2/1 226/4/1 247/3/1 217/1/1
f 218/3/2 217/1/2 248/2/2 250/4/2
f 217/2/3 247/4/3 249/3/3 248/1/3
f 250/1/4 248/2/4 249/4/4 251/3/4
f 226/1/5 251/2/5 249/4/5 247/3/5
f 218/1/6 250/2/6 251/4/6 226/3/6
f 224/2/1 227/4/1 226/3/1 218/1/1
f 224/3/2 218/1/2 250/2/2 252/4/2
f 218/2/3 226/4/3 251/3/3 250/1/3
f 252/1/4 250/2/4 251/4/4 253/3/4
f 227/1/5 253/2/5 251/4/5 226/3/5
f 224/1/6 252/2/6 253/4/6 227/3/6
f 230/2/1 231/4/1 227/3/1 224/1/1
f 230/3/2 224/1/2 252/2/2 256/4/2
f 224/2/3 227/4/3 253/3/3 252/1/3
f 256/1/4 252/2/4 253/4/4 257/3/4
f 231/1/5 257/2/5 253/4/5 227/3/5
f 230/1/6 256/2/6 257/4/6 231/3/6
f 236/2/1 237/4/1 232/3/1 235/1/1
f 236/3/2 235/1/2 258/2/2 260/4/2
f 235/2/3 232/4/3 259/3/3 258/1/3
f 260/1/4 258/2/4 259/4/4 261/3/4
f 237/1/5 261/2/5 259/4/5 232/3/5
f 236/1/6 260/2/6 261/4/6 237/3/6
f 264/2/1 242/4/1 241/3/1 240/1/1
f 264/3/2 240/1/2 262/2/2 265/4/2
f 240/2/3 241/4/3 263/3/3 262/1/3
f 265/1/4 262/2/4 263/4/4 266/3/4
f 242/1/5 266/2/5 263/4/5 241/3/5
f 264/1/6 265/2/6 266/4/6 242/3/6
f 258/2/1 259/4/1 255/3/1 254/1/1
f 258/3/2 254/1/2 272/2/2 273/4/2
f 254/2/3 255/4/3 271/3/3 272/1/3
f 273/1/4 272/2/4 271/4/4 274/3/4
f 259/1/5 274/2/5 271/4/5 255/3/5
f 258/1/6 273/2/6 274/4/6 259/3/6
f 278/2/1 268/4/1 267/3/1 275/1/1
f 278/3/2 275/1/2 276/2/2 279/4/2
f 275/2/3 267/4/3 277/3/3 276/1/3
f 279/1/4 276/2/4 277/4/4 280/3/4
f 268/1/5 280/2/5 277/4/5 267/3/5
f 278/1/6 279/2/6 280/4/6 268/3/6
f 281/2/1 269/4/1 268/3/1 278/1/1
f 281/3/2 278/1/2 279/2/2 282/4/2
f 278/2/3 268/4/3 280/3/3 279/1/3
f 282/1/4 279/2/4 280/4/4 283/3/4
f 269/1/5 283/2/5 280/4/5 268/3/5
f 281/1/6 282/2/6 283/4/6 269/3/6
f 284/2/1 270/4/1 269/3/1 281/1/1
f 284/3/2 281/1/2 282/2/2 285/4/2
f 281/2/3 269/4/3 283/3/3 282/1/3
f 285/1/4 282/2/4 283/4/4 286/3/4
f 270/1/5 286/2/5 283/4/5 269/3/5
f 284/1/6 285/2/6 286/4/6 270/3/6
