mtllib lighthouse.mtl
usemtl sand
v -6 1 -15
v -6 1 -14
v -6 2 -15
v -6 2 -14
v -5 0 -14
v -5 0 -15
v -5 1 -15
v -5 1 -14
v -5 2 -15
v -5 2 -14
v -5 1 -13
v -5 2 -13
v -4 0 -14
v -4 0 -15
v -4 1 -15
v -4 1 -14
v -4 2 -14
v -4 1 -13
v -4 2 -13
v -1 0 -10
v -1 1 -10
v -1 0 -9
v -1 1 -9
v 0 0 -13
v 0 1 -13
v 0 0 -12
v 0 1 -12
v 0 0 -11
v 0 1 -11
v 0 0 -10
v 0 1 -10
v 0 0 -9
v 0 1 -9
v 0 0 -8
v 0 1 -8
v 0 0 -7
v 0 1 -7
v 0 0 -6
v 0 1 -6
v 1 0 -13
v 1 1 -13
v 1 0 -12
v 1 1 -12
v 1 0 -11
v 1 1 -11
v 1 0 -10
v 1 1 -10
v 1 0 -9
v 1 1 -9
v 1 0 -8
v 1 1 -8
v 1 0 -7
v 1 1 -7
v 1 0 -6
v 1 1 -6
v 1 0 -5
v 1 1 -5
v 2 0 -13
v 2 1 -13
v 2 0 -12
v 2 1 -12
v 2 0 -11
v 2 1 -11
v 2 0 -10
v 2 1 -10
v 2 0 -9
v 2 1 -9
v 2 0 -8
v 2 1 -8
v 2 0 -7
v 2 1 -7
v 2 0 -6
v 2 1 -6
v 2 0 -5
v 2 1 -5
v 2 0 -4
v 2 1 -4
v 3 0 -11
v 3 1 -11
v 3 0 -10
v 3 1 -10
v 3 0 -9
v 3 1 -9
v 3 0 -8
v 3 1 -8
v 3 0 -7
v 3 1 -7
v 3 0 -6
v 3 1 -6
v 3 0 -5
v 3 1 -5
v 3 0 -4
v 3 1 -4
v 4 0 -9
v 4 1 -9
v 4 0 -8
v 4 1 -8
v 4 0 -7
v 4 1 -7
v 4 0 -6
v 4 1 -6
v 4 0 -5
v 4 1 -5
v 4 0 -4
v 4 1 -4
v 5 0 -8
v 5 1 -8
v 5 0 -7
v 5 1 -7
v 5 0 -6
v 5 1 -6
v 5 0 -5
v 5 1 -5
v 5 0 -4
v 5 1 -4
v 5 0 -3
v 5 1 -3
v 6 0 -7
v 6 1 -7
v 6 0 -6
v 6 1 -6
v 6 0 -5
v 6 1 -5
v 6 0 -4
v 6 1 -4
v 6 0 -3
v 6 1 -3
v 7 0 -6
v 7 1 -6
v 7 0 -5
v 7 1 -5
v 7 0 -4
v 7 1 -4
v 8 0 -6
v 8 1 -6
v 8 0 -5
v 8 1 -5
v 8 0 -4
v 8 1 -4
v 9 0 -5
v 9 1 -5
v 9 0 -4
v 9 1 -4
vt 0.000000000 0.000000000
vt 1.000000000 0.000000000
vt 0.000000000 1.000000000
vt 1.000000000 1.000000000
vn -1 0 0
vn 0 -1 0
vn 0 0 -1
vn 1 0 0
vn 0 1 0
vn 0 0 1
f 2/2/1 4/4/1 3/3/1 1/1/1
f 2/2/2 1/4/2 7/3/2 8/1/2
f 1/2/3 3/4/3 9/3/3 7/1/3
f 8/1/4 7/2/4 9/4/4 10/3/4
f 4/4/5 10/3/5 9/1/5 3/2/5
f 2/1/6 8/2/6 10/4/6 4/3/6
f 5/2/1 8/4/1 7/3/1 6/1/1
f 5/4/2 6/3/2 14/1/2 13/2/2
f 6/2/3 7/4/3 15/3/3 14/1/3
f 13/1/4 14/2/4 15/4/4 16/3/4
f 8/3/5 16/1/5 15/2/5 7/4/5
f 5/1/6 13/2/6 16/4/6 8/3/6
f 11/2/1 12/4/1 10/3/1 8/1/1
f 11/2/2 8/4/2 16/3/2 18/1/2
f 8/2/3 10/4/3 17/3/3 16/1/3
f 18/1/4 16/2/4 17/4/4 19/3/4
f 12/4/5 19/3/5 17/1/5 10/2/5
f 11/1/6 18/2/6 19/4/6 12/3/6
f 22/2/1 23/4/1 21/3/1 20/1/1
f 22/3/2 20/1/2 30/2/2 32/4/2
f 20/2/3 21/4/3 31/3/3 30/1/3
f 32/1/4 30/2/4 31/4/4 33/3/4
f 23/1/5 33/2/5 31/4/5 21/3/5
f 22/1/6 32/2/6 33/4/6 23/3/6
f 26/2/1 27/4/1 25/3/1 24/1/1
f 26/3/2 24/1/2 40/2/2 42/4/2
f 24/2/3 25/4/3 41/3/3 40/1/3
f 42/1/4 40/2/4 41/4/4 43/3/4
f 27/1/5 43/2/5 41/4/5 25/3/5
f 26/1/6 42/2/6 43/4/6 27/3/6
f 28/2/1 29/4/1 27/3/1 26/1/1
f 28/1/2 26/2/2 42/4/2 44/3/2
f 26/2/3 27/4/3 43/3/3 42/1/3
f 44/1/4 42/2/4 43/4/4 45/3/4
f 29/2/5 45/4/5 43/3/5 27/1/5
f 28/1/6 44/2/6 45/4/6 29/3/6
f 30/2/1 31/4/1 29/3/1 28/1/1
f 30/4/2 28/3/2 44/1/2 46/2/2
f 28/2/3 29/4/3 45/3/3 44/1/3
f 46/1/4 44/2/4 45/4/4 47/3/4
f 31/3/5 47/1/5 45/2/5 29/4/5
f 30/1/6 46/2/6 47/4/6 31/3/6
f 32/2/1 33/4/1 31/3/1 30/1/1
f 32/2/2 30/4/2 46/3/2 48/1/2
f 30/2/3 31/4/3 47/3/3 46/1/3
f 48/1/4 46/2/4 47/4/4 49/3/4
f 33/4/5 49/3/5 47/1/5 31/2/5
f 32/1/6 48/2/6 49/4/6 33/3/6
f 34/2/1 35/4/1 33/3/1 32/1/1
f 34/2/2 32/4/2 48/3/2 50/1/2
f 32/2/3 33/4/3 49/3/3 48/1/3
f 50/1/4 48/2/4 49/4/4 51/3/4
f 35/4/5 51/3/5 49/1/5 33/2/5
f 34/1/6 50/2/6 51/4/6 35/3/6
f 38/2/1 39/4/1 37/3/1 36/1/1
f 38/2/2 36/4/2 52/3/2 54/1/2
f 36/2/3 37/4/3 53/3/3 52/1/3
f 54/1/4 52/2/4 53/4/4 55/3/4
f 39/4/5 55/3/5 53/1/5 37/2/5
f 38/1/6 54/2/6 55/4/6 39/3/6
f 42/2/1 43/4/1 41/3/1 40/1/1
f 42/3/2 40/1/2 58/2/2 60/4/2
f 40/2/3 41/4/3 59/3/3 58/1/3
f 60/1/4 58/2/4 59/4/4 61/3/4
f 43/1/5 61/2/5 59/4/5 41/3/5
f 42/1/6 60/2/6 61/4/6 43/3/6
f 44/2/1 45/4/1 43/3/1 42/1/1
f 44/4/2 42/3/2 60/1/2 62/2/2
f 42/2/3 43/4/3 61/3/3 60/1/3
f 62/1/4 60/2/4 61/4/4 63/3/4
f 45/3/5 63/1/5 61/2/5 43/4/5
f 44/1/6 62/2/6 63/4/6 45/3/6
f 46/2/1 47/4/1 45/3/1 44/1/1
f 46/1/2 44/2/2 62/4/2 64/3/2
f 44/2/3 45/4/3 63/3/3 62/1/3
f 64/1/4 62/2/4 63/4/4 65/3/4
f 47/2/5 65/4/5 63/3/5 45/1/5
f 46/1/6 64/2/6 65/4/6 47/3/6
f 48/2/1 49/4/1 47/3/1 46/1/1
f 48/4/2 46/3/2 64/1/2 66/2/2
f 46/2/3 47/4/3 65/3/3 64/1/3
f 66/1/4 64/2/4 65/4/4 67/3/4
f 49/3/5 67/1/5 65/2/5 47/4/5
f 48/1/6 66/2/6 67/4/6 49/3/6
f 50/2/1 51/4/1 49/3/1 48/1/1
f 50/1/2 48/2/2 66/4/2 68/3/2
f 48/2/3 49/4/3 67/3/3 66/1/3
f 68/1/4 66/2/4 67/4/4 69/3/4
f 51/2/5 69/4/5 67/3/5 49/1/5
f 50/1/6 68/2/6 69/4/6 51/3/6
f 52/2/1 53/4/1 51/3/1 50/1/1
f 52/3/2 50/1/2 68/2/2 70/4/2
f 50/2/3 51/4/3 69/3/3 68/1/3
f 70/1/4 68/2/4 69/4/4 71/3/4
f 53/1/5 71/2/5 69/4/5 51/3/5
f 52/1/6 70/2/6 71/4/6 53/3/6
f 54/2/1 55/4/1 53/3/1 52/1/1
f 54/2/2 52/4/2 70/3/2 72/1/2
f 52/2/3 53/4/3 71/3/3 70/1/3
f 72/1/4 70/2/4 71/4/4 73/3/4
f 55/4/5 73/3/5 71/1/5 53/2/5
f 54/1/6 72/2/6 73/4/6 55/3/6
f 56/2/1 57/4/1 55/3/1 54/1/1
f 56/3/2 54/1/2 72/2/2 74/4/2
f 54/2/3 55/4/3 73/3/3 72/1/3
f 74/1/4 72/2/4 73/4/4 75/3/4
f 57/1/5 75/2/5 73/4/5 55/3/5
f 56/1/6 74/2/6 75/4/6 57/3/6
f 64/2/1 65/4/1 63/3/1 62/1/1
f 64/4/2 62/3/2 78/1/2 80/2/2
f 62/2/3 63/4/3 79/3/3 78/1/3
f 80/1/4 78/2/4 79/4/4 81/3/4
f 65/3/5 81/1/5 79/2/5 63/4/5
f 64/1/6 80/2/6 81/4/6 65/3/6
f 66/2/1 67/4/1 65/3/1 64/1/1
f 66/1/2 64/2/2 80/4/2 82/3/2
f 64/2/3 65/4/3 81/3/3 80/1/3
f 82/1/4 80/2/4 81/4/4 83/3/4
f 67/2/5 83/4/5 81/3/5 65/1/5
f 66/1/6 82/2/6 83/4/6 67/3/6
f 68/2/1 69/4/1 67/3/1 66/1/1
f 68/4/2 66/3/2 82/1/2 84/2/2
f 66/2/3 67/4/3 83/3/3 82/1/3
f 84/1/4 82/2/4 83/4/4 85/3/4
f 69/3/5 85/1/5 83/2/5 67/4/5
f 68/1/6 84/2/6 85/4/6 69/3/6
f 72/2/1 73/4/1 71/3/1 70/1/1
f 72/1/2 70/2/2 86/4/2 88/3/2
f 70/2/3 71/4/3 87/3/3 86/1/3
f 88/1/4 86/2/4 87/4/4 89/3/4
f 73/2/5 89/4/5 87/3/5 71/1/5
f 72/1/6 88/2/6 89/4/6 73/3/6
f 74/2/1 75/4/1 73/3/1 72/1/1
f 74/2/2 72/4/2 88/3/2 90/1/2
f 72/2/3 73/4/3 89/3/3 88/1/3
f 90/1/4 88/2/4 89/4/4 91/3/4
f 75/4/5 91/3/5 89/1/5 73/2/5
f 74/1/6 90/2/6 91/4/6 75/3/6
f 76/2/1 77/4/1 75/3/1 74/1/1
f 76/4/2 74/3/2 90/1/2 92/2/2
f 74/2/3 75/4/3 91/3/3 90/1/3
f 92/1/4 90/2/4 91/4/4 93/3/4
f 77/3/5 93/1/5 91/2/5 75/4/5
f 76/1/6 92/2/6 93/4/6 77/3/6
f 84/2/1 85/4/1 83/3/1 82/1/1
f 84/3/2 82/1/2 94/2/2 96/4/2
f 82/2/3 83/4/3 95/3/3 94/1/3
f 96/1/4 94/2/4 95/4/4 97/3/4
f 85/1/5 97/2/5 95/4/5 83/3/5
f 84/1/6 96/2/6 97/4/6 85/3/6
f 86/2/1 87/4/1 85/3/1 84/1/1
f 86/2/2 84/4/2 96/3/2 98/1/2
f 84/2/3 85/4/3 97/3/3 96/1/3
f 98/1/4 96/2/4 97/4/4 99/3/4
f 87/4/5 99/3/5 97/1/5 85/2/5
f 86/1/6 98/2/6 99/4/6 87/3/6
f 88/2/1 89/4/1 87/3/1 86/1/1
f 88/1/2 86/2/2 98/4/2 100/3/2
f 86/2/3 87/4/3 99/3/3 98/1/3
f 100/1/4 98/2/4 99/4/4 101/3/4
f 89/2/5 101/4/5 99/3/5 87/1/5
f 88/1/6 100/2/6 101/4/6 89/3/6
f 90/2/1 91/4/1 89/3/1 88/1/1
f 90/1/2 88/2/2 100/4/2 102/3/2
f 88/2/3 89/4/3 101/3/3 100/1/3
f 102/1/4 100/2/4 101/4/4 103/3/4
f 91/2/5 103/4/5 101/3/5 89/1/5
f 90/1/6 102/2/6 103/4/6 91/3/6
f 92/2/1 93/4/1 91/3/1 90/1/1
f 92/4/2 90/3/2 102/1/2 104/2/2
f 90/2/3 91/4/3 103/3/3 102/1/3
f 104/1/4 102/2/4 103/4/4 105/3/4
f 93/3/5 105/1/5 103/2/5 91/4/5
f 92/1/6 104/2/6 105/4/6 93/3/6
f 98/2/1 99/4/1 97/3/1 96/1/1
f 98/4/2 96/3/2 106/1/2 108/2/2
f 96/2/3 97/4/3 107/3/3 106/1/3
f 108/1/4 106/2/4 107/4/4 109/3/4
f 99/3/5 109/1/5 107/2/5 97/4/5
f 98/1/6 108/2/6 109/4/6 99/3/6
f 100/2/1 101/4/1 99/3/1 98/1/1
f 100/1/2 98/2/2 108/4/2 110/3/2
f 98/2/3 99/4/3 109/3/3 108/1/3
f 110/1/4 108/2/4 109/4/4 111/3/4
f 101/2/5 111/4/5 109/3/5 99/1/5
f 100/1/6 110/2/6 111/4/6 101/3/6
f 102/2/1 103/4/1 101/3/1 100/1/1
f 102/2/2 100/4/2 110/3/2 112/1/2
f 100/2/3 101/4/3 111/3/3 110/1/3
f 112/1/4 110/2/4 111/4/4 113/3/4
f 103/4/5 113/3/5 111/1/5 101/2/5
f 102/1/6 112/2/6 113/4/6 103/3/6
f 104/2/1 105/4/1 103/3/1 102/1/1
f 104/3/2 102/1/2 112/2/2 114/4/2
f 102/2/3 103/4/3 113/3/3 112/1/3
f 114/1/4 112/2/4 113/4/4 115/3/4
f 105/1/5 115/2/5 113/4/5 103/3/5
f 104/1/6 114/2/6 115/4/6 105/3/6
f 110/2/1 111/4/1 109/3/1 108/1/1
f 110/2/2 108/4/2 118/3/2 120/1/2
f 108/2/3 109/4/3 119/3/3 118/1/3
f 120/1/4 118/2/4 119/4/4 121/3/4
f 111/4/5 121/3/5 119/1/5 109/2/5
f 110/1/6 120/2/6 121/4/6 111/3/6
f 112/2/1 113/4/1 111/3/1 110/1/1
f 112/3/2 110/1/2 120/2/2 122/4/2
f 110/2/3 111/4/3 121/3/3 120/1/3
f 122/1/4 120/2/4 121/4/4 123/3/4
f 113/1/5 123/2/5 121/4/5 111/3/5
f 112/1/6 122/2/6 123/4/6 113/3/6
f 114/2/1 115/4/1 113/3/1 112/1/1
f 114/2/2 112/4/2 122/3/2 124/1/2
f 112/2/3 113/4/3 123/3/3 122/1/3
f 124/1/4 122/2/4 123/4/4 125/3/4
f 115/4/5 125/3/5 123/1/5 113/2/5
f 114/1/6 124/2/6 125/4/6 115/3/6
f 116/2/1 117/4/1 115/3/1 114/1/1
f 116/4/2 114/3/2 124/1/2 126/2/2
f 114/2/3 115/4/3 125/3/3 124/1/3
f 126/1/4 124/2/4 125/4/4 127/3/4
f 117/3/5 127/1/5 125/2/5 115/4/5
f 116/1/6 126/2/6 127/4/6 117/3/6
f 122/2/1 123/4/1 121/3/1 120/1/1
f 122/4/2 120/3/2 128/1/2 130/2/2
f 120/2/3 121/4/3 129/3/3 128/1/3
f 130/1/4 128/2/4 129/4/4 131/3/4
f 123/3/5 131/1/5 129/2/5 121/4/5
f 122/1/6 130/2/6 131/4/6 123/3/6
f 124/2/1 125/4/1 123/3/1 122/1/1
f 124/4/2 122/3/2 130/1/2 132/2/2
f 122/2/3 123/4/3 131/3/3 130/1/3
f 132/1/4 130/2/4 131/4/4 133/3/4
f 125/3/5 133/1/5 131/2/5 123/4/5
f 124/1/6 132/2/6 133/4/6 125/3/6
f 130/2/1 131/4/1 129/3/1 128/1/1
f 130/2/2 128/4/2 134/3/2 136/1/2
f 128/2/3 129/4/3 135/3/3 134/1/3
f 136/1/4 134/2/4 135/4/4 137/3/4
f 131/4/5 137/3/5 135/1/5 129/2/5
f 130/1/6 136/2/6 137/4/6 131/3/6
f 132/2/1 133/4/1 131/3/1 130/1/1
f 132/2/2 130/4/2 136/3/2 138/1/2
f 130/2/3 131/4/3 137/3/3 136/1/3
f 138/1/4 136/2/4 137/4/4 139/3/4
f 133/4/5 139/3/5 137/1/5 131/2/5
f 132/1/6 138/2/6 139/4/6 133/3/6
f 138/2/1 139/4/1 137/3/1 136/1/1
f 138/2/2 136/4/2 140/3/2 142/1/2
f 136/2/3 137/4/3 141/3/3 140/1/3
f 142/1/4 140/2/4 141/4/4 143/3/4
f 139/4/5 143/3/5 141/1/5 137/2/5
f 138/1/6 142/2/6 143/4/6 139/3/6
