mtllib lighthouse.mtl
usemtl iron_ore
v -4 2 10
v -4 3 10
v -4 2 11
v -4 3 11
v -4 2 12
v -4 3 12
v -3 2 10
v -3 3 10
v -3 4 10
v -3 5 10
v -3 2 11
v -3 3 11
v -3 4 11
v -3 5 11
v -3 2 12
v -3 3 12
v -2 3 10
v -2 4 10
v -2 5 10
v -2 3 11
v -2 4 11
v -2 5 11
vt 0.000000000 0.000000000
vt 1.000000000 0.000000000
vt 0.000000000 1.000000000
vt 1.000000000 1.000000000
vn -1 0 0
vn 0 -1 0
vn 0 0 -1
vn 1 0 0
vn 0 1 0
vn 0 0 1
f 3/2/1 4/4/1 2/3/1 1/1/1
f 3/3/2 1/1/2 7/2/2 11/4/2
f 1/2/3 2/4/3 8/3/3 7/1/3
f 11/1/4 7/2/4 8/4/4 12/3/4
f 4/1/5 12/2/5 8/4/5 2/3/5
f 3/1/6 11/2/6 12/4/6 4/3/6
f 5/2/1 6/4/1 4/3/1 3/1/1
f 5/3/2 3/1/2 11/2/2 15/4/2
f 3/2/3 4/4/3 12/3/3 11/1/3
f 15/1/4 11/2/4 12/4/4 16/3/4
f 6/1/5 16/2/5 12/4/5 4/3/5
f 5/1/6 15/2/6 16/4/6 6/3/6
f 12/2/1 13/4/1 9/3/1 8/1/1
f 12/3/2 8/1/2 17/2/2 20/4/2
f 8/2/3 9/4/3 18/3/3 17/1/3
f 20/1/4 17/2/4 18/4/4 21/3/4
f 13/1/5 21/2/5 18/4/5 9/3/5
f 12/1/6 20/2/6 21/4/6 13/3/6
f 13/2/1 14/4/1 10/3/1 9/1/1
f 13/3/2 9/1/2 18/2/2 21/4/2
f 9/2/3 10/4/3 19/3/3 18/1/3
f 21/1/4 18/2/4 19/4/4 22/3/4
f 14/1/5 22/2/5 19/4/5 10/3/5
f 13/1/6 21/2/6 22/4/6 14/3/6
