mtllib lighthouse.mtl
usemtl water_still
v -14 5 6
v -14 5 7
v -13 5 6
v -13 5 7
v -14 5.44444 7
v -14 5.44444 6
v -13 5.5 6
v -13 5.48148 7
v -13 5 8
v -13 5 9
v -12 6 4
v -12 6 5
v -12 5 6
v -12 5 7
v -13 5.48148 7
v -13 5.5 6
v -12 5.61111 6
v -12 5.55556 7
v -12 5 8
v -13 5.38889 8
v -13 5.48148 7
v -12 5.55556 7
v -12 5.44444 8
v -12 5 9
v -13 5.33333 9
v -13 5.38889 8
v -12 5.44444 8
v -12 5.38889 9
v -11 6 4
v -11 6 5
v -12 6.44444 5
v -12 6.44444 4
v -11 6.5 4
v -11 6.55556 5
v -11 5 6
v -11 6 6
v -11 5 7
v -12 5.55556 7
v -12 5.61111 6
v -11 5.66667 7
v -11 5 8
v -12 5.44444 8
v -12 5.55556 7
v -11 5.66667 7
v -11 5.5 8
v -11 5 9
v -12 5.38889 9
v -12 5.44444 8
v -11 5.5 8
v -11 5.44444 9
v -10 6 3
v -10 6 4
v -10 6 5
v -11 6.55556 5
v -11 6.5 4
v -10 6.59259 4
v -10 6.66667 5
v -10 5 6
v -10 6 6
v -11 6.33333 6
v -11 6.55556 5
v -10 6.66667 5
v -10 6.86325 6
v -10 5 7
v -11 5.66667 7
v -10 6 7
v -9 6 3
v -9 6 4
v -10 6.59259 4
v -10 6.55556 3
v -9 6.55556 3
v -9 6.59259 4
v -9 6 5
v -10 6.66667 5
v -10 6.59259 4
v -9 6.59259 4
v -9 6.66667 5
v -9 5 6
v -9 6 6
v -10 6.86325 6
v -10 6.66667 5
v -9 6.66667 5
v -9 6.87963 6
v -9 5 7
v -9 6 7
v -10 6.88889 7
v -10 6.86325 6
v -9 6.87963 6
v -9 6.88889 7
v -8 6 4
v -8 6 5
v -9 6.66667 5
v -9 6.59259 4
v -8 6.55556 4
v -8 6.55556 5
v -6 2 -15
v -6 2 -14
v -5 1 -15
v -5 1 -14
v -5 2 -15
v -5 2 -14
v -6 2.88889 -14
v -6 2.88889 -15
v -5 2.88889 -15
v -5 2.88889 -14
v -5 2 -13
v -4 1 -15
v -4 1 -14
v -4 2 -15
v -4 2 -14
v -5 2.88889 -14
v -5 2.88889 -15
v -4 2.88889 -15
v -4 2.88889 -14
v -4 1 -13
v -4 2 -13
v -5 2.88889 -13
v -5 2.88889 -14
v -4 2.88889 -14
v -4 2.88889 -13
v -4 1 -12
v -4 2 -12
v -4 1 -11
v -4 2 -11
v -4 2 -10
v -4 2 -7
v -4 2 -6
v -3 1 -15
v -3 1 -14
v -3 2 -15
v -3 2 -14
v -4 2.88889 -14
v -4 2.88889 -15
v -3 2.88889 -15
v -3 2.88889 -14
v -3 1 -13
v -3 2 -13
v -4 2.88889 -13
v -4 2.88889 -14
v -3 2.88889 -14
v -3 2.88889 -13
v -3 1 -12
v -4 2.88889 -12
v -4 2.88889 -13
v -3 2 -12
v -3 2.88889 -13
v -3 2.88889 -12
v -3 1 -11
v -3 2 -11
v -4 2.88889 -11
v -4 2.88889 -12
v -3 2.88889 -12
v -3 2.88889 -11
v -3 1 -10
v -3 2 -10
v -4 2.88889 -10
v -4 2.88889 -11
v -3 2.88889 -11
v -3 2.88889 -10
v -3 1 -9
v -3 2 -9
v -3 1 -8
v -3 2 -8
v -3 1 -7
v -3 2 -7
v -3 2 -6
v -4 2.88889 -6
v -4 2.88889 -7
v -3 2.88889 -7
v -3 2.88889 -6
v -2 1 -15
v -2 1 -14
v -2 2 -15
v -2 2 -14
v -3 2.88889 -14
v -3 2.88889 -15
v -2 2.88889 -15
v -2 2.88889 -14
v -2 1 -13
v -2 2 -13
v -3 2.88889 -13
v -3 2.88889 -14
v -2 2.88889 -14
v -2 2.88889 -13
v -2 1 -12
v -2 2 -12
v -3 2.88889 -12
v -3 2.88889 -13
v -2 2.88889 -13
v -2 2.88889 -12
v -2 1 -11
v -2 2 -11
v -3 2.88889 -11
v -3 2.88889 -12
v -2 2.88889 -12
v -2 2.88889 -11
v -2 1 -10
v -2 2 -10
v -3 2.88889 -10
v -3 2.88889 -11
v -2 2.88889 -11
v -2 2.88889 -10
v -2 1 -9
v -2 2 -9
v -3 2.88889 -9
v -3 2.88889 -10
v -2 2.88889 -10
v -2 2.88889 -9
v -2 1 -8
v -3 2.88889 -8
v -3 2.88889 -9
v -2 2 -8
v -2 2.88889 -9
v -2 2.88889 -8
v -2 1 -7
v -2 2 -7
v -3 2.88889 -7
v -3 2.88889 -8
v -2 2.88889 -8
v -2 2.88889 -7
v -2 1 -6
v -2 2 -6
v -3 2.88889 -6
v -3 2.88889 -7
v -2 2.88889 -7
v -2 2.88889 -6
v -2 2 -5
v -2 2 -4
v -1 1 -15
v -1 1 -14
v -1 2 -15
v -1 2 -14
v -2 2.88889 -14
v -2 2.88889 -15
v -1 2.88889 -15
v -1 2.88889 -14
v -1 1 -13
v -1 2 -13
v -2 2.88889 -13
v -2 2.88889 -14
v -1 2.88889 -14
v -1 2.88889 -13
v -1 1 -12
v -1 2 -12
v -2 2.88889 -12
v -2 2.88889 -13
v -1 2.88889 -13
v -1 2.88889 -12
v -1 1 -11
v -1 2 -11
v -2 2.88889 -11
v -2 2.88889 -12
v -1 2.88889 -12
v -1 2.88889 -11
v -1 1 -10
v -1 2 -10
v -2 2.88889 -10
v -2 2.88889 -11
v -1 2.88889 -11
v -1 2.88889 -10
v -1 1 -9
v -1 2 -9
v -2 2.88889 -9
v -2 2.88889 -10
v -1 2.88889 -10
v -1 2.88889 -9
v -1 1 -8
v -1 2 -8
v -2 2.88889 -8
v -2 2.88889 -9
v -1 2.88889 -9
v -1 2.88889 -8
v -1 1 -7
v -1 2 -7
v -2 2.88889 -7
v -2 2.88889 -8
v -1 2.88889 -8
v -1 2.88889 -7
v -1 1 -6
v -1 2 -6
v -2 2.88889 -6
v -2 2.88889 -7
v -1 2.88889 -7
v -1 2.88889 -6
v -1 2 -5
v -2 2.88889 -5
v -2 2.88889 -6
v -1 2.88889 -6
v -1 2.88889 -5
v -1 2 -4
v -2 2.88889 -4
v -2 2.88889 -5
v -1 2.88889 -5
v -1 2.88889 -4
v 0 1 -15
v 0 1 -14
v 0 2 -15
v 0 2 -14
v -1 2.88889 -14
v -1 2.88889 -15
v 0 2.88889 -15
v 0 2.88889 -14
v 0 1 -13
v 0 2 -13
v -1 2.88889 -13
v -1 2.88889 -14
v 0 2.88889 -14
v 0 2.88889 -13
v 0 2 -12
v 0 2 -11
v 0 1 -10
v 0 2 -10
v 0 1 -9
v 0 2 -9
v -1 2.88889 -9
v -1 2.88889 -10
v 0 2.88889 -10
v 0 2.88889 -9
v 0 0 -8
v 0 1 -8
v 0 2 -8
v -1 2.88889 -8
v -1 2.88889 -9
v 0 2.88889 -9
v 0 2.88889 -8
v 0 0 -7
v 0 1 -7
v 0 2 -7
v -1 2.88889 -7
v -1 2.88889 -8
v 0 2.88889 -8
v 0 2.88889 -7
v 0 1 -6
v 0 2 -6
v -1 2.88889 -6
v -1 2.88889 -7
v 0 2.88889 -7
v 0 2.88889 -6
v 0 2 -5
v -1 2.88889 -5
v -1 2.88889 -6
v 0 2.88889 -6
v 0 2.88889 -5
v 0 2 -4
v 1 0 -14
v 1 0 -15
v 1 1 -15
v 1 1 -14
v 1 2 -15
v 1 2 -14
v 0 2.88889 -14
v 0 2.88889 -15
v 1 2.88889 -15
v 1 2.88889 -14
v 1 1 -13
v 1 2 -13
v 0 2.88889 -13
v 0 2.88889 -14
v 1 2.88889 -14
v 1 2.88889 -13
v 1 1 -12
v 1 2 -12
v 0 2.88889 -12
v 0 2.88889 -13
v 1 2.88889 -13
v 1 2.88889 -12
v 1 1 -11
v 1 2 -11
v 0 2.88889 -11
v 0 2.88889 -12
v 1 2.88889 -12
v 1 2.88889 -11
v 1 1 -10
v 1 2 -10
v 1 1 -9
v 1 2 -9
v 0 2.88889 -9
v 0 2.88889 -10
v 1 2.88889 -10
v 1 2.88889 -9
v 1 0 -8
v 1 1 -8
v 1 2 -8
v 1 0 -7
v 1 1 -7
v 1 2 -7
v 0 2.88889 -7
v 0 2.88889 -8
v 1 2.88889 -8
v 1 2.88889 -7
v 1 1 -6
v 1 2 -6
v 0 2.88889 -6
v 0 2.88889 -7
v 1 2.88889 -7
v 1 2.88889 -6
v 1 1 -5
v 1 2 -5
v 0 2.88889 -5
v 0 2.88889 -6
v 1 2.88889 -6
v 1 2.88889 -5
v 1 2 -4
v 0 2.88889 -4
v 0 2.88889 -5
v 1 2.88889 -5
v 1 2.88889 -4
v 1 12 2
v 1 12 1
v 2 0 -14
v 2 0 -15
v 2 1 -15
v 2 1 -14
v 2 2 -15
v 2 2 -14
v 1 2.88889 -14
v 1 2.88889 -15
v 2 2.88889 -15
v 2 2.88889 -14
v 2 0 -13
v 2 1 -13
v 2 2 -13
v 1 2.88889 -13
v 1 2.88889 -14
v 2 2.88889 -14
v 2 2.88889 -13
v 2 1 -12
v 2 2 -12
v 1 2.88889 -12
v 1 2.88889 -13
v 2 2.88889 -13
v 2 2.88889 -12
v 2 1 -11
v 2 2 -11
v 1 2.88889 -11
v 1 2.88889 -12
v 2 2.88889 -12
v 2 2.88889 -11
v 2 2 -10
v 1 2.88889 -10
v 1 2.88889 -11
v 2 2.88889 -11
v 2 2.88889 -10
v 2 2 -9
v 2 0 -8
v 2 1 -8
v 2 2 -8
v 2 0 -7
v 2 1 -7
v 2 2 -7
v 2 1 -6
v 2 2 -6
v 1 2.88889 -6
v 1 2.88889 -7
v 2 2.88889 -7
v 2 2.88889 -6
v 2 1 -5
v 2 2 -5
v 1 2.88889 -5
v 1 2.88889 -6
v 2 2.88889 -6
v 2 2.88889 -5
v 2 2 -4
v 1 2.88889 -4
v 1 2.88889 -5
v 2 2.88889 -5
v 2 2.88889 -4
v 2 0 1
v 2 1 1
v 2 2 1
v 2 3 1
v 2 4 1
v 2 5 1
v 2 6 1
v 2 7 1
v 2 8 1
v 2 9 1
v 2 10 1
v 2 11 1
v 2 12 1
v 2 0 2
v 2 1 2
v 2 2 2
v 2 3 2
v 2 4 2
v 2 5 2
v 2 6 2
v 2 7 2
v 2 8 2
v 2 9 2
v 2 10 2
v 2 11 2
v 1 12.7778 2
v 1 12.3889 1
v 2 12 2
v 2 12.8796 1
v 2 12.8796 2
v 3 0 -14
v 3 0 -15
v 3 1 -15
v 3 1 -14
v 3 2 -15
v 3 2 -14
v 2 2.88889 -14
v 2 2.88889 -15
v 3 2.88889 -15
v 3 2.88889 -14
v 3 0 -13
v 3 1 -13
v 3 2 -13
v 2 2.88889 -13
v 2 2.88889 -14
v 3 2.88889 -14
v 3 2.88889 -13
v 3 1 -12
v 3 2 -12
v 2 2.88889 -12
v 2 2.88889 -13
v 3 2.88889 -13
v 3 2.88889 -12
v 3 0 -11
v 3 0 -12
v 3 1 -11
v 3 2 -11
v 2 2.88889 -11
v 2 2.88889 -12
v 3 2.88889 -12
v 3 2.88889 -11
v 3 0 -10
v 3 1 -10
v 2 2.88889 -10
v 2 2.88889 -11
v 3 2 -10
v 3 2.88889 -11
v 3 2.88889 -10
v 3 0 -9
v 3 1 -9
v 3 2 -9
v 2 2.88889 -9
v 2 2.88889 -10
v 3 2.88889 -10
v 3 2.88889 -9
v 3 0 -8
v 3 1 -8
v 3 2 -8
v 3 0 -7
v 3 1 -7
v 3 2 -7
v 2 2.88889 -7
v 2 2.88889 -8
v 3 2.88889 -8
v 3 2.88889 -7
v 3 1 -6
v 3 2 -6
v 2 2.88889 -6
v 2 2.88889 -7
v 3 2.88889 -7
v 3 2.88889 -6
v 3 1 -5
v 3 2 -5
v 2 2.88889 -5
v 2 2.88889 -6
v 3 2.88889 -6
v 3 2.88889 -5
v 3 2 -4
v 3 2 -3
v 3 2 -2
v 3 0 1
v 3 1 1
v 3 2 1
v 3 3 1
v 3 4 1
v 3 5 1
v 3 6 1
v 3 7 1
v 3 8 1
v 3 9 1
v 3 10 1
v 3 11 1
v 3 12 1
v 3 0 2
v 3 1 2
v 3 2 2
v 3 3 2
v 3 4 2
v 3 5 2
v 3 6 2
v 3 7 2
v 3 8 2
v 3 9 2
v 3 10 2
v 3 11 2
v 3 12 2
v 2 12.8796 2
v 2 12.8796 1
v 3 12.8148 1
v 3 12.8148 2
v 4 0 -14
v 4 0 -15
v 4 1 -15
v 4 1 -14
v 4 2 -15
v 4 2 -14
v 3 2.88889 -14
v 3 2.88889 -15
v 4 2.88889 -15
v 4 2.88889 -14
v 4 0 -13
v 4 1 -13
v 4 2 -13
v 3 2.88889 -13
v 3 2.88889 -14
v 4 2.88889 -14
v 4 2.88889 -13
v 4 0 -12
v 4 1 -12
v 4 2 -12
v 3 2.88889 -12
v 3 2.88889 -13
v 4 2.88889 -13
v 4 2.88889 -12
v 4 0 -11
v 4 1 -11
v 4 2 -11
v 3 2.88889 -11
v 3 2.88889 -12
v 4 2.88889 -12
v 4 2.88889 -11
v 4 0 -10
v 4 1 -10
v 4 2 -10
v 3 2.88889 -10
v 3 2.88889 -11
v 4 2.88889 -11
v 4 2.88889 -10
v 4 0 -9
v 4 1 -9
v 4 2 -9
v 3 2.88889 -9
v 3 2.88889 -10
v 4 2.88889 -10
v 4 2.88889 -9
v 4 0 -8
v 4 1 -8
v 4 2 -8
v 3 2.88889 -8
v 3 2.88889 -9
v 4 2.88889 -9
v 4 2.88889 -8
v 4 1 -7
v 4 2 -7
v 3 2.88889 -7
v 3 2.88889 -8
v 4 2.88889 -8
v 4 2.88889 -7
v 4 1 -6
v 4 2 -6
v 3 2.88889 -6
v 3 2.88889 -7
v 4 2.88889 -7
v 4 2.88889 -6
v 4 1 -5
v 4 2 -5
v 3 2.88889 -5
v 3 2.88889 -6
v 4 2.88889 -6
v 4 2.88889 -5
v 4 1 -4
v 4 2 -4
v 3 2.88889 -4
v 3 2.88889 -5
v 4 2.88889 -5
v 4 2.88889 -4
v 4 2 -3
v 4 2 -2
v 3 2.88889 -2
v 3 2.88889 -3
v 4 2.88889 -3
v 4 2.88889 -2
v 5 0 -14
v 5 0 -15
v 5 1 -15
v 5 1 -14
v 5 2 -15
v 5 2 -14
v 4 2.88889 -14
v 4 2.88889 -15
v 5 2.88889 -15
v 5 2.88889 -14
v 5 0 -13
v 5 1 -13
v 5 2 -13
v 4 2.88889 -13
v 4 2.88889 -14
v 5 2.88889 -14
v 5 2.88889 -13
v 5 0 -12
v 5 1 -12
v 5 2 -12
v 4 2.88889 -12
v 4 2.88889 -13
v 5 2.88889 -13
v 5 2.88889 -12
v 5 0 -11
v 5 1 -11
v 5 2 -11
v 4 2.88889 -11
v 4 2.88889 -12
v 5 2.88889 -12
v 5 2.88889 -11
v 5 0 -10
v 5 1 -10
v 5 2 -10
v 4 2.88889 -10
v 4 2.88889 -11
v 5 2.88889 -11
v 5 2.88889 -10
v 5 0 -9
v 5 1 -9
v 5 2 -9
v 4 2.88889 -9
v 4 2.88889 -10
v 5 2.88889 -10
v 5 2.88889 -9
v 5 0 -8
v 5 1 -8
v 5 2 -8
v 4 2.88889 -8
v 4 2.88889 -9
v 5 2.88889 -9
v 5 2.88889 -8
v 5 1 -7
v 5 2 -7
v 4 2.88889 -7
v 4 2.88889 -8
v 5 2.88889 -8
v 5 2.88889 -7
v 5 1 -6
v 5 2 -6
v 4 2.88889 -6
v 4 2.88889 -7
v 5 2.88889 -7
v 5 2.88889 -6
v 5 1 -5
v 5 2 -5
v 4 2.88889 -5
v 4 2.88889 -6
v 5 2.88889 -6
v 5 2.88889 -5
v 5 1 -4
v 5 2 -4
v 4 2.88889 -4
v 4 2.88889 -5
v 5 2.88889 -5
v 5 2.88889 -4
v 5 2 -3
v 4 2.88889 -3
v 4 2.88889 -4
v 5 2.88889 -4
v 5 2.88889 -3
v 5 2 -2
v 4 2.88889 -2
v 4 2.88889 -3
v 5 2.88889 -3
v 5 2.88889 -2
v 5 2 -1
v 6 0 -14
v 6 0 -15
v 6 1 -15
v 6 1 -14
v 6 2 -15
v 6 2 -14
v 5 2.88889 -14
v 5 2.88889 -15
v 6 2.88889 -15
v 6 2.88889 -14
v 6 0 -13
v 6 1 -13
v 6 2 -13
v 5 2.88889 -13
v 5 2.88889 -14
v 6 2.88889 -14
v 6 2.88889 -13
v 6 0 -12
v 6 1 -12
v 6 2 -12
v 5 2.88889 -12
v 5 2.88889 -13
v 6 2.88889 -13
v 6 2.88889 -12
v 6 0 -11
v 6 1 -11
v 6 2 -11
v 5 2.88889 -11
v 5 2.88889 -12
v 6 2.88889 -12
v 6 2.88889 -11
v 6 0 -10
v 6 1 -10
v 6 2 -10
v 5 2.88889 -10
v 5 2.88889 -11
v 6 2.88889 -11
v 6 2.88889 -10
v 6 0 -9
v 6 1 -9
v 6 2 -9
v 5 2.88889 -9
v 5 2.88889 -10
v 6 2.88889 -10
v 6 2.88889 -9
v 6 1 -7
v 6 2 -7
v 6 1 -6
v 6 2 -6
v 5 2.88889 -6
v 5 2.88889 -7
v 6 2.88889 -7
v 6 2.88889 -6
v 6 1 -5
v 6 2 -5
v 5 2.88889 -5
v 5 2.88889 -6
v 6 2.88889 -6
v 6 2.88889 -5
v 6 1 -4
v 6 2 -4
v 5 2.88889 -4
v 5 2.88889 -5
v 6 2.88889 -5
v 6 2.88889 -4
v 6 2 -3
v 5 2.88889 -3
v 5 2.88889 -4
v 6 2.88889 -4
v 6 2.88889 -3
v 6 2 -2
v 5 2.88889 -2
v 5 2.88889 -3
v 6 2.88889 -3
v 6 2.88889 -2
v 6 2 -1
v 5 2.88889 -1
v 5 2.88889 -2
v 6 2.88889 -2
v 6 2.88889 -1
v 7 0 -14
v 7 0 -15
v 7 1 -15
v 7 1 -14
v 7 2 -15
v 7 2 -14
v 6 2.88889 -14
v 6 2.88889 -15
v 7 2.88889 -15
v 7 2.88889 -14
v 7 0 -13
v 7 1 -13
v 7 2 -13
v 6 2.88889 -13
v 6 2.88889 -14
v 7 2.88889 -14
v 7 2.88889 -13
v 7 0 -12
v 7 1 -12
v 7 2 -12
v 6 2.88889 -12
v 6 2.88889 -13
v 7 2.88889 -13
v 7 2.88889 -12
v 7 0 -11
v 7 1 -11
v 7 2 -11
v 6 2.88889 -11
v 6 2.88889 -12
v 7 2.88889 -12
v 7 2.88889 -11
v 7 0 -10
v 7 1 -10
v 7 2 -10
v 6 2.88889 -10
v 6 2.88889 -11
v 7 2.88889 -11
v 7 2.88889 -10
v 7 0 -9
v 7 1 -9
v 7 2 -9
v 6 2.88889 -9
v 6 2.88889 -10
v 7 2.88889 -10
v 7 2.88889 -9
v 7 0 -8
v 7 1 -8
v 7 2 -8
v 7 0 -7
v 7 1 -7
v 7 2 -7
v 7 1 -6
v 7 2 -6
v 6 2.88889 -6
v 6 2.88889 -7
v 7 2.88889 -7
v 7 2.88889 -6
v 7 1 -5
v 7 2 -5
v 6 2.88889 -5
v 6 2.88889 -6
v 7 2.88889 -6
v 7 2.88889 -5
v 7 1 -4
v 7 2 -4
v 6 2.88889 -4
v 6 2.88889 -5
v 7 2.88889 -5
v 7 2.88889 -4
v 7 2 -3
v 6 2.88889 -3
v 6 2.88889 -4
v 7 2.88889 -4
v 7 2.88889 -3
v 7 2 -2
v 6 2.88889 -2
v 6 2.88889 -3
v 7 2.88889 -3
v 7 2.88889 -2
v 7 2 -1
v 8 0 -14
v 8 0 -15
v 8 1 -15
v 8 1 -14
v 8 2 -15
v 8 2 -14
v 7 2.88889 -14
v 7 2.88889 -15
v 8 2.88889 -15
v 8 2.88889 -14
v 8 0 -13
v 8 1 -13
v 8 2 -13
v 7 2.88889 -13
v 7 2.88889 -14
v 8 2.88889 -14
v 8 2.88889 -13
v 8 0 -12
v 8 1 -12
v 8 2 -12
v 7 2.88889 -12
v 7 2.88889 -13
v 8 2.88889 -13
v 8 2.88889 -12
v 8 0 -11
v 8 1 -11
v 8 2 -11
v 7 2.88889 -11
v 7 2.88889 -12
v 8 2.88889 -12
v 8 2.88889 -11
v 8 0 -10
v 8 1 -10
v 8 2 -10
v 7 2.88889 -10
v 7 2.88889 -11
v 8 2.88889 -11
v 8 2.88889 -10
v 8 0 -9
v 8 1 -9
v 8 2 -9
v 7 2.88889 -9
v 7 2.88889 -10
v 8 2.88889 -10
v 8 2.88889 -9
v 8 0 -8
v 8 1 -8
v 8 2 -8
v 7 2.88889 -8
v 7 2.88889 -9
v 8 2.88889 -9
v 8 2.88889 -8
v 8 0 -7
v 8 1 -7
v 8 2 -7
v 7 2.88889 -7
v 7 2.88889 -8
v 8 2.88889 -8
v 8 2.88889 -7
v 8 0 -6
v 8 1 -6
v 8 2 -6
v 7 2.88889 -6
v 7 2.88889 -7
v 8 2.88889 -7
v 8 2.88889 -6
v 8 0 -5
v 8 1 -5
v 8 2 -5
v 7 2.88889 -5
v 7 2.88889 -6
v 8 2.88889 -6
v 8 2.88889 -5
v 8 1 -4
v 8 2 -4
v 7 2.88889 -4
v 7 2.88889 -5
v 8 2.88889 -5
v 8 2.88889 -4
v 8 2 -3
v 7 2.88889 -3
v 7 2.88889 -4
v 8 2.88889 -4
v 8 2.88889 -3
v 8 2 -2
v 7 2.88889 -2
v 7 2.88889 -3
v 8 2.88889 -3
v 8 2.88889 -2
v 8 2 -1
v 7 2.88889 -1
v 7 2.88889 -2
v 8 2.88889 -2
v 8 2.88889 -1
v 8 2 6
v 8 2 7
v 9 0 -14
v 9 0 -15
v 9 1 -15
v 9 1 -14
v 9 2 -15
v 9 2 -14
v 8 2.88889 -14
v 8 2.88889 -15
v 9 2.88889 -15
v 9 2.88889 -14
v 9 0 -13
v 9 1 -13
v 9 2 -13
v 8 2.88889 -13
v 8 2.88889 -14
v 9 2.88889 -14
v 9 2.88889 -13
v 9 0 -12
v 9 1 -12
v 9 2 -12
v 8 2.88889 -12
v 8 2.88889 -13
v 9 2.88889 -13
v 9 2.88889 -12
v 9 0 -11
v 9 1 -11
v 9 2 -11
v 8 2.88889 -11
v 8 2.88889 -12
v 9 2.88889 -12
v 9 2.88889 -11
v 9 0 -10
v 9 1 -10
v 9 2 -10
v 8 2.88889 -10
v 8 2.88889 -11
v 9 2.88889 -11
v 9 2.88889 -10
v 9 0 -9
v 9 1 -9
v 9 2 -9
v 8 2.88889 -9
v 8 2.88889 -10
v 9 2.88889 -10
v 9 2.88889 -9
v 9 0 -8
v 9 1 -8
v 9 2 -8
v 8 2.88889 -8
v 8 2.88889 -9
v 9 2.88889 -9
v 9 2.88889 -8
v 9 0 -7
v 9 1 -7
v 9 2 -7
v 8 2.88889 -7
v 8 2.88889 -8
v 9 2.88889 -8
v 9 2.88889 -7
v 9 0 -6
v 9 1 -6
v 9 2 -6
v 8 2.88889 -6
v 8 2.88889 -7
v 9 2.88889 -7
v 9 2.88889 -6
v 9 0 -5
v 9 1 -5
v 9 2 -5
v 8 2.88889 -5
v 8 2.88889 -6
v 9 2.88889 -6
v 9 2.88889 -5
v 9 1 -4
v 9 2 -4
v 8 2.88889 -4
v 8 2.88889 -5
v 9 2.88889 -5
v 9 2.88889 -4
v 9 2 -3
v 9 2 -2
v 8 2.88889 -2
v 8 2.88889 -3
v 9 2.88889 -3
v 9 2.88889 -2
v 9 2 -1
v 8 2.88889 -1
v 8 2.88889 -2
v 9 2.88889 -2
v 9 2.88889 -1
v 9 2 6
v 9 2 7
v 8 2.77778 7
v 8 2.77778 6
v 9 2.87963 6
v 9 2.88406 7
v 10 0 -14
v 10 0 -15
v 10 1 -15
v 10 1 -14
v 10 2 -15
v 10 2 -14
v 9 2.88889 -14
v 9 2.88889 -15
v 10 2.88889 -15
v 10 2.88889 -14
v 10 0 -13
v 10 1 -13
v 10 2 -13
v 9 2.88889 -13
v 9 2.88889 -14
v 10 2.88889 -14
v 10 2.88889 -13
v 10 0 -12
v 10 1 -12
v 10 2 -12
v 9 2.88889 -12
v 9 2.88889 -13
v 10 2.88889 -13
v 10 2.88889 -12
v 10 0 -11
v 10 1 -11
v 10 2 -11
v 9 2.88889 -11
v 9 2.88889 -12
v 10 2.88889 -12
v 10 2.88889 -11
v 10 0 -10
v 10 1 -10
v 10 2 -10
v 9 2.88889 -10
v 9 2.88889 -11
v 10 2.88889 -11
v 10 2.88889 -10
v 10 0 -9
v 10 1 -9
v 10 2 -9
v 9 2.88889 -9
v 9 2.88889 -10
v 10 2.88889 -10
v 10 2.88889 -9
v 10 0 -8
v 10 1 -8
v 10 2 -8
v 9 2.88889 -8
v 9 2.88889 -9
v 10 2.88889 -9
v 10 2.88889 -8
v 10 0 -7
v 10 1 -7
v 10 2 -7
v 9 2.88889 -7
v 9 2.88889 -8
v 10 2.88889 -8
v 10 2.88889 -7
v 10 0 -6
v 10 1 -6
v 10 2 -6
v 9 2.88889 -6
v 9 2.88889 -7
v 10 2.88889 -7
v 10 2.88889 -6
v 10 0 -5
v 10 1 -5
v 10 2 -5
v 9 2.88889 -5
v 9 2.88889 -6
v 10 2.88889 -6
v 10 2.88889 -5
v 10 0 -4
v 10 1 -4
v 10 2 -4
v 9 2.88889 -4
v 9 2.88889 -5
v 10 2.88889 -5
v 10 2.88889 -4
v 10 1 -3
v 10 2 -3
v 9 2.88889 -3
v 9 2.88889 -4
v 10 2.88889 -4
v 10 2.88889 -3
v 10 2 -2
v 9 2.88889 -2
v 9 2.88889 -3
v 10 2.88889 -3
v 10 2.88889 -2
v 10 2 -1
v 9 2.88889 -1
v 9 2.88889 -2
v 10 2.88889 -2
v 10 2.88889 -1
v 10 2 0
v 10 2 1
v 10 2 2
v 10 2 3
v 10 2 4
v 10 2 5
v 10 2 6
v 10 2 7
v 9 2.88406 7
v 9 2.87963 6
v 10 2.88889 6
v 10 2.88889 7
v 10 2 8
v 11 0 -14
v 11 0 -15
v 11 1 -15
v 11 1 -14
v 11 2 -15
v 11 2 -14
v 10 2.88889 -14
v 10 2.88889 -15
v 11 2.88889 -15
v 11 2.88889 -14
v 11 0 -13
v 11 1 -13
v 11 2 -13
v 10 2.88889 -13
v 10 2.88889 -14
v 11 2.88889 -14
v 11 2.88889 -13
v 11 0 -12
v 11 1 -12
v 11 2 -12
v 10 2.88889 -12
v 10 2.88889 -13
v 11 2.88889 -13
v 11 2.88889 -12
v 11 0 -11
v 11 1 -11
v 11 2 -11
v 10 2.88889 -11
v 10 2.88889 -12
v 11 2.88889 -12
v 11 2.88889 -11
v 11 0 -10
v 11 1 -10
v 11 2 -10
v 10 2.88889 -10
v 10 2.88889 -11
v 11 2.88889 -11
v 11 2.88889 -10
v 11 0 -9
v 11 1 -9
v 11 2 -9
v 10 2.88889 -9
v 10 2.88889 -10
v 11 2.88889 -10
v 11 2.88889 -9
v 11 0 -8
v 11 1 -8
v 11 2 -8
v 10 2.88889 -8
v 10 2.88889 -9
v 11 2.88889 -9
v 11 2.88889 -8
v 11 0 -7
v 11 1 -7
v 11 2 -7
v 10 2.88889 -7
v 10 2.88889 -8
v 11 2.88889 -8
v 11 2.88889 -7
v 11 0 -6
v 11 1 -6
v 11 2 -6
v 10 2.88889 -6
v 10 2.88889 -7
v 11 2.88889 -7
v 11 2.88889 -6
v 11 0 -5
v 11 1 -5
v 11 2 -5
v 10 2.88889 -5
v 10 2.88889 -6
v 11 2.88889 -6
v 11 2.88889 -5
v 11 0 -4
v 11 1 -4
v 11 2 -4
v 10 2.88889 -4
v 10 2.88889 -5
v 11 2.88889 -5
v 11 2.88889 -4
v 11 0 -3
v 11 1 -3
v 11 2 -3
v 10 2.88889 -3
v 10 2.88889 -4
v 11 2.88889 -4
v 11 2.88889 -3
v 11 1 -2
v 11 2 -2
v 10 2.88889 -2
v 10 2.88889 -3
v 11 2.88889 -3
v 11 2.88889 -2
v 11 2 -1
v 11 1 0
v 11 2 0
v 11 1 1
v 11 2 1
v 10 2.88889 1
v 10 2.88889 0
v 11 2.88889 0
v 11 2.88889 1
v 11 1 2
v 11 2 2
v 11 1 3
v 11 2 3
v 10 2.88889 3
v 10 2.88889 2
v 11 2.88889 2
v 11 2.88889 3
v 11 2 4
v 11 2 5
v 10 2.88889 5
v 10 2.88889 4
v 11 2.88889 4
v 11 2.88889 5
v 11 2 6
v 10 2.88889 6
v 10 2.88889 5
v 11 2.88889 5
v 11 2.88889 6
v 11 2 7
v 11 2 8
v 10 2.88889 8
v 10 2.88889 7
v 11 2.88889 7
v 11 2.88889 8
v 11 1 9
v 11 2 9
v 11 1 10
v 11 2 10
v 11 2 11
v 12 0 -14
v 12 0 -15
v 12 1 -15
v 12 1 -14
v 12 2 -15
v 12 2 -14
v 11 2.88889 -14
v 11 2.88889 -15
v 12 2.88889 -15
v 12 2.88889 -14
v 12 0 -13
v 12 1 -13
v 12 2 -13
v 11 2.88889 -13
v 11 2.88889 -14
v 12 2.88889 -14
v 12 2.88889 -13
v 12 0 -12
v 12 1 -12
v 12 2 -12
v 11 2.88889 -12
v 11 2.88889 -13
v 12 2.88889 -13
v 12 2.88889 -12
v 12 0 -11
v 12 1 -11
v 12 2 -11
v 11 2.88889 -11
v 11 2.88889 -12
v 12 2.88889 -12
v 12 2.88889 -11
v 12 0 -10
v 12 1 -10
v 12 2 -10
v 11 2.88889 -10
v 11 2.88889 -11
v 12 2.88889 -11
v 12 2.88889 -10
v 12 0 -9
v 12 1 -9
v 12 2 -9
v 11 2.88889 -9
v 11 2.88889 -10
v 12 2.88889 -10
v 12 2.88889 -9
v 12 0 -8
v 12 1 -8
v 12 2 -8
v 11 2.88889 -8
v 11 2.88889 -9
v 12 2.88889 -9
v 12 2.88889 -8
v 12 0 -7
v 12 1 -7
v 12 2 -7
v 11 2.88889 -7
v 11 2.88889 -8
v 12 2.88889 -8
v 12 2.88889 -7
v 12 0 -6
v 12 1 -6
v 12 2 -6
v 11 2.88889 -6
v 11 2.88889 -7
v 12 2.88889 -7
v 12 2.88889 -6
v 12 0 -5
v 12 1 -5
v 12 2 -5
v 11 2.88889 -5
v 11 2.88889 -6
v 12 2.88889 -6
v 12 2.88889 -5
v 12 0 -4
v 12 1 -4
v 12 2 -4
v 11 2.88889 -4
v 11 2.88889 -5
v 12 2.88889 -5
v 12 2.88889 -4
v 12 0 -3
v 12 1 -3
v 12 2 -3
v 11 2.88889 -3
v 11 2.88889 -4
v 12 2.88889 -4
v 12 2.88889 -3
v 12 0 -2
v 12 1 -2
v 12 2 -2
v 11 2.88889 -2
v 11 2.88889 -3
v 12 2.88889 -3
v 12 2.88889 -2
v 12 0 -1
v 12 1 -1
v 12 2 -1
v 11 2.88889 -1
v 11 2.88889 -2
v 12 2.88889 -2
v 12 2.88889 -1
v 12 0 0
v 12 1 0
v 11 2.88889 0
v 11 2.88889 -1
v 12 2 0
v 12 2.88889 -1
v 12 2.88889 0
v 12 1 1
v 12 2 1
v 11 2.88889 1
v 11 2.88889 0
v 12 2.88889 0
v 12 2.88889 1
v 12 1 2
v 12 2 2
v 11 2.88889 2
v 11 2.88889 1
v 12 2.88889 1
v 12 2.88889 2
v 12 1 3
v 12 2 3
v 11 2.88889 3
v 11 2.88889 2
v 12 2.88889 2
v 12 2.88889 3
v 12 1 4
v 12 2 4
v 11 2.88889 4
v 11 2.88889 3
v 12 2.88889 3
v 12 2.88889 4
v 12 1 5
v 12 2 5
v 11 2.88889 5
v 11 2.88889 4
v 12 2.88889 4
v 12 2.88889 5
v 12 1 6
v 12 2 6
v 11 2.88889 6
v 11 2.88889 5
v 12 2.88889 5
v 12 2.88889 6
v 12 2 7
v 11 2.88889 7
v 11 2.88889 6
v 12 2.88889 6
v 12 2.88889 7
v 12 2 8
v 11 2.88889 8
v 11 2.88889 7
v 12 2.88889 7
v 12 2.88889 8
v 12 1 9
v 12 2 9
v 11 2.88889 9
v 11 2.88889 8
v 12 2.88889 8
v 12 2.88889 9
v 12 1 10
v 12 2 10
v 11 2.88889 10
v 11 2.88889 9
v 12 2.88889 9
v 12 2.88889 10
v 12 2 11
v 11 2.88889 11
v 11 2.88889 10
v 12 2.88889 10
v 12 2.88889 11
v 12 2 12
v 13 0 -14
v 13 0 -15
v 13 1 -15
v 13 1 -14
v 13 2 -15
v 13 2 -14
v 12 2.88889 -14
v 12 2.88889 -15
v 13 2.88889 -15
v 13 2.88889 -14
v 13 0 -13
v 13 1 -13
v 13 2 -13
v 12 2.88889 -13
v 12 2.88889 -14
v 13 2.88889 -14
v 13 2.88889 -13
v 13 0 -12
v 13 1 -12
v 13 2 -12
v 12 2.88889 -12
v 12 2.88889 -13
v 13 2.88889 -13
v 13 2.88889 -12
v 13 0 -11
v 13 1 -11
v 13 2 -11
v 12 2.88889 -11
v 12 2.88889 -12
v 13 2.88889 -12
v 13 2.88889 -11
v 13 0 -10
v 13 1 -10
v 13 2 -10
v 12 2.88889 -10
v 12 2.88889 -11
v 13 2.88889 -11
v 13 2.88889 -10
v 13 0 -9
v 13 1 -9
v 13 2 -9
v 12 2.88889 -9
v 12 2.88889 -10
v 13 2.88889 -10
v 13 2.88889 -9
v 13 0 -8
v 13 1 -8
v 13 2 -8
v 12 2.88889 -8
v 12 2.88889 -9
v 13 2.88889 -9
v 13 2.88889 -8
v 13 0 -7
v 13 1 -7
v 13 2 -7
v 12 2.88889 -7
v 12 2.88889 -8
v 13 2.88889 -8
v 13 2.88889 -7
v 13 0 -6
v 13 1 -6
v 13 2 -6
v 12 2.88889 -6
v 12 2.88889 -7
v 13 2.88889 -7
v 13 2.88889 -6
v 13 0 -5
v 13 1 -5
v 13 2 -5
v 12 2.88889 -5
v 12 2.88889 -6
v 13 2.88889 -6
v 13 2.88889 -5
v 13 0 -4
v 13 1 -4
v 13 2 -4
v 12 2.88889 -4
v 12 2.88889 -5
v 13 2.88889 -5
v 13 2.88889 -4
v 13 0 -3
v 13 1 -3
v 13 2 -3
v 12 2.88889 -3
v 12 2.88889 -4
v 13 2.88889 -4
v 13 2.88889 -3
v 13 0 -2
v 13 1 -2
v 13 2 -2
v 12 2.88889 -2
v 12 2.88889 -3
v 13 2.88889 -3
v 13 2.88889 -2
v 13 0 -1
v 13 1 -1
v 13 2 -1
v 12 2.88889 -1
v 12 2.88889 -2
v 13 2.88889 -2
v 13 2.88889 -1
v 13 0 0
v 13 1 0
v 13 2 0
v 12 2.88889 0
v 12 2.88889 -1
v 13 2.88889 -1
v 13 2.88889 0
v 13 1 1
v 13 2 1
v 12 2.88889 1
v 12 2.88889 0
v 13 2.88889 0
v 13 2.88889 1
v 13 0 1
v 13 1 2
v 13 2 2
v 12 2.88889 2
v 12 2.88889 1
v 13 2.88889 1
v 13 2.88889 2
v 13 1 3
v 13 2 3
v 12 2.88889 3
v 12 2.88889 2
v 13 2.88889 2
v 13 2.88889 3
v 13 1 4
v 13 2 4
v 12 2.88889 4
v 12 2.88889 3
v 13 2.88889 3
v 13 2.88889 4
v 13 1 5
v 13 2 5
v 12 2.88889 5
v 12 2.88889 4
v 13 2.88889 4
v 13 2.88889 5
v 13 1 6
v 13 2 6
v 12 2.88889 6
v 12 2.88889 5
v 13 2.88889 5
v 13 2.88889 6
v 13 2 7
v 13 2 8
v 13 2 9
v 12 2.88889 9
v 12 2.88889 8
v 13 2.88889 8
v 13 2.88889 9
v 13 2 10
v 12 2.88889 10
v 12 2.88889 9
v 13 2.88889 9
v 13 2.88889 10
v 13 2 11
v 12 2.88889 11
v 12 2.88889 10
v 13 2.88889 10
v 13 2.88889 11
v 13 2 12
v 12 2.88889 12
v 12 2.88889 11
v 13 2.88889 11
v 13 2.88889 12
v 14 0 -14
v 14 0 -15
v 14 1 -15
v 14 1 -14
v 14 2 -15
v 14 2 -14
v 13 2.88889 -14
v 13 2.88889 -15
v 14 2.88889 -15
v 14 2.88889 -14
v 14 0 -13
v 14 1 -13
v 14 2 -13
v 13 2.88889 -13
v 13 2.88889 -14
v 14 2.88889 -14
v 14 2.88889 -13
v 14 0 -12
v 14 1 -12
v 14 2 -12
v 13 2.88889 -12
v 13 2.88889 -13
v 14 2.88889 -13
v 14 2.88889 -12
v 14 0 -11
v 14 1 -11
v 14 2 -11
v 13 2.88889 -11
v 13 2.88889 -12
v 14 2.88889 -12
v 14 2.88889 -11
v 14 0 -10
v 14 1 -10
v 14 2 -10
v 13 2.88889 -10
v 13 2.88889 -11
v 14 2.88889 -11
v 14 2.88889 -10
v 14 0 -9
v 14 1 -9
v 14 2 -9
v 13 2.88889 -9
v 13 2.88889 -10
v 14 2.88889 -10
v 14 2.88889 -9
v 14 0 -8
v 14 1 -8
v 14 2 -8
v 13 2.88889 -8
v 13 2.88889 -9
v 14 2.88889 -9
v 14 2.88889 -8
v 14 0 -7
v 14 1 -7
v 14 2 -7
v 13 2.88889 -7
v 13 2.88889 -8
v 14 2.88889 -8
v 14 2.88889 -7
v 14 0 -6
v 14 1 -6
v 14 2 -6
v 13 2.88889 -6
v 13 2.88889 -7
v 14 2.88889 -7
v 14 2.88889 -6
v 14 0 -5
v 14 1 -5
v 14 2 -5
v 13 2.88889 -5
v 13 2.88889 -6
v 14 2.88889 -6
v 14 2.88889 -5
v 14 0 -4
v 14 1 -4
v 14 2 -4
v 13 2.88889 -4
v 13 2.88889 -5
v 14 2.88889 -5
v 14 2.88889 -4
v 14 0 -3
v 14 1 -3
v 14 2 -3
v 13 2.88889 -3
v 13 2.88889 -4
v 14 2.88889 -4
v 14 2.88889 -3
v 14 0 -2
v 14 1 -2
v 14 2 -2
v 13 2.88889 -2
v 13 2.88889 -3
v 14 2.88889 -3
v 14 2.88889 -2
v 14 0 -1
v 14 1 -1
v 14 2 -1
v 13 2.88889 -1
v 13 2.88889 -2
v 14 2.88889 -2
v 14 2.88889 -1
v 14 1 0
v 14 2 0
v 13 2.88889 0
v 13 2.88889 -1
v 14 2.88889 -1
v 14 2.88889 0
v 14 0 1
v 14 0 0
v 14 1 1
v 14 2 1
v 13 2.88889 1
v 13 2.88889 0
v 14 2.88889 0
v 14 2.88889 1
v 14 0 2
v 14 1 2
v 14 2 2
v 13 2.88889 2
v 13 2.88889 1
v 14 2.88889 1
v 14 2.88889 2
v 14 1 3
v 14 2 3
v 13 2.88889 3
v 13 2.88889 2
v 14 2.88889 2
v 14 2.88889 3
v 14 1 4
v 14 2 4
v 13 2.88889 4
v 13 2.88889 3
v 14 2.88889 3
v 14 2.88889 4
v 14 1 5
v 14 2 5
v 13 2.88889 5
v 13 2.88889 4
v 14 2.88889 4
v 14 2.88889 5
v 14 1 6
v 14 2 6
v 13 2.88889 6
v 13 2.88889 5
v 14 2.88889 5
v 14 2.88889 6
v 14 1 7
v 14 2 7
v 13 2.88889 7
v 13 2.88889 6
v 14 2.88889 6
v 14 2.88889 7
v 14 1 8
v 14 2 8
v 13 2.88889 8
v 13 2.88889 7
v 14 2.88889 7
v 14 2.88889 8
v 14 2 9
v 14 2 10
v 13 2.88889 10
v 13 2.88889 9
v 14 2.88889 9
v 14 2.88889 10
v 14 2 11
v 13 2.88889 11
v 13 2.88889 10
v 14 2.88889 10
v 14 2.88889 11
v 15 0 -14
v 15 0 -15
v 15 1 -15
v 15 1 -14
v 15 2 -15
v 15 2 -14
v 14 2.88889 -14
v 14 2.88889 -15
v 15 2.88889 -15
v 15 2.88889 -14
v 15 0 -13
v 15 1 -13
v 15 2 -13
v 14 2.88889 -13
v 14 2.88889 -14
v 15 2.88889 -14
v 15 2.88889 -13
v 15 0 -12
v 15 1 -12
v 15 2 -12
v 14 2.88889 -12
v 14 2.88889 -13
v 15 2.88889 -13
v 15 2.88889 -12
v 15 0 -11
v 15 1 -11
v 15 2 -11
v 14 2.88889 -11
v 14 2.88889 -12
v 15 2.88889 -12
v 15 2.88889 -11
v 15 0 -10
v 15 1 -10
v 15 2 -10
v 14 2.88889 -10
v 14 2.88889 -11
v 15 2.88889 -11
v 15 2.88889 -10
v 15 0 -9
v 15 1 -9
v 15 2 -9
v 14 2.88889 -9
v 14 2.88889 -10
v 15 2.88889 -10
v 15 2.88889 -9
v 15 0 -8
v 15 1 -8
v 15 2 -8
v 14 2.88889 -8
v 14 2.88889 -9
v 15 2.88889 -9
v 15 2.88889 -8
v 15 0 -7
v 15 1 -7
v 15 2 -7
v 14 2.88889 -7
v 14 2.88889 -8
v 15 2.88889 -8
v 15 2.88889 -7
v 15 0 -6
v 15 1 -6
v 15 2 -6
v 14 2.88889 -6
v 14 2.88889 -7
v 15 2.88889 -7
v 15 2.88889 -6
v 15 0 -5
v 15 1 -5
v 15 2 -5
v 14 2.88889 -5
v 14 2.88889 -6
v 15 2.88889 -6
v 15 2.88889 -5
v 15 0 -4
v 15 1 -4
v 15 2 -4
v 14 2.88889 -4
v 14 2.88889 -5
v 15 2.88889 -5
v 15 2.88889 -4
v 15 0 -3
v 15 1 -3
v 15 2 -3
v 14 2.88889 -3
v 14 2.88889 -4
v 15 2.88889 -4
v 15 2.88889 -3
v 15 0 -2
v 15 1 -2
v 15 2 -2
v 14 2.88889 -2
v 14 2.88889 -3
v 15 2.88889 -3
v 15 2.88889 -2
v 15 0 -1
v 15 1 -1
v 15 2 -1
v 14 2.88889 -1
v 14 2.88889 -2
v 15 2.88889 -2
v 15 2.88889 -1
v 15 0 0
v 15 1 0
v 15 2 0
v 14 2.88889 0
v 14 2.88889 -1
v 15 2.88889 -1
v 15 2.88889 0
v 15 0 1
v 15 1 1
v 15 2 1
v 14 2.88889 1
v 14 2.88889 0
v 15 2.88889 0
v 15 2.88889 1
v 15 0 2
v 15 1 2
v 15 2 2
v 14 2.88889 2
v 14 2.88889 1
v 15 2.88889 1
v 15 2.88889 2
v 15 1 3
v 15 2 3
v 14 2.88889 3
v 14 2.88889 2
v 15 2.88889 2
v 15 2.88889 3
v 15 1 4
v 15 2 4
v 14 2.88889 4
v 14 2.88889 3
v 15 2.88889 3
v 15 2.88889 4
v 15 1 5
v 15 2 5
v 14 2.88889 5
v 14 2.88889 4
v 15 2.88889 4
v 15 2.88889 5
v 15 1 6
v 15 2 6
v 14 2.88889 6
v 14 2.88889 5
v 15 2.88889 5
v 15 2.88889 6
v 15 1 7
v 14 2.88889 7
v 14 2.88889 6
v 15 2 7
v 15 2.88889 6
v 15 2.88889 7
v 15 1 8
v 15 2 8
v 14 2.88889 8
v 14 2.88889 7
v 15 2.88889 7
v 15 2.88889 8
v 15 2 9
v 14 2.88889 9
v 14 2.88889 8
v 15 2.88889 8
v 15 2.88889 9
v 15 2 10
v 14 2.88889 10
v 14 2.88889 9
v 15 2.88889 9
v 15 2.88889 10
vt 0.000000000 0.000000000
vt 1.000000000 0.000000000
vt 0.000000000 1.000000000
vt 1.000000000 1.000000000
vn 0 -1 0
vn 0 1 0
vn -0.0737583 0.995741 0.0553192
vn -0.0551321 0.992372 0.110263
vn -0.110263 0.992372 -0.0551316
vn -0.104829 0.943456 0.314486
vn -0.0547174 0.984916 0.164153
vn -0.461327 0.870569 -0.171138
vn -0.316228 0.948683 0
vn 0 0.997268 -0.0738714
vn -0.0160204 0.977941 -0.208265
vn 0.110432 0.993884 0
vn -0.101327 0.994853 0
vn 0.0646789 0.997906 0
f 2/3/1 1/1/1 3/2/1 4/4/1
f 5/1/2 8/2/2 7/4/2 6/3/2
f 4/3/1 3/1/1 13/2/1 14/4/1
f 15/1/3 18/2/3 17/4/3 16/3/3
f 9/3/1 4/1/1 14/2/1 19/4/1
f 20/1/4 23/2/4 22/4/4 21/3/4
f 10/3/1 9/1/1 19/2/1 24/4/1
f 25/1/3 28/2/3 27/4/3 26/3/3
f 12/3/1 11/1/1 29/2/1 30/4/1
f 31/1/5 34/2/5 33/4/5 32/3/5
f 14/3/1 13/1/1 35/2/1 37/4/1
f 38/1/6 40/2/6 36/4/6 39/3/6
f 19/3/1 14/1/1 37/2/1 41/4/1
f 42/1/7 45/2/7 44/4/7 43/3/7
f 24/3/1 19/1/1 41/2/1 46/4/1
f 47/1/3 50/2/3 49/4/3 48/3/3
f 30/3/1 29/1/1 52/2/1 53/4/1
f 54/1/5 57/2/5 56/4/5 55/3/5
f 36/3/1 30/1/1 53/2/1 59/4/1
f 60/1/8 63/2/8 62/4/8 61/3/8
f 37/3/1 35/1/1 58/2/1 64/4/1
f 65/1/9 66/2/9 59/4/9 36/3/9
f 52/3/1 51/1/1 67/2/1 68/4/1
f 69/1/2 72/2/2 71/4/2 70/3/2
f 53/3/1 52/1/1 68/2/1 73/4/1
f 74/1/10 77/2/10 76/4/10 75/3/10
f 59/3/1 53/1/1 73/2/1 79/4/1
f 80/1/11 83/2/11 82/4/11 81/3/11
f 64/3/1 58/1/1 78/2/1 84/4/1
f 66/1/2 85/2/2 79/4/2 59/3/2
f 66/3/1 59/1/1 79/2/1 85/4/1
f 86/1/2 89/2/2 88/4/2 87/3/2
f 73/3/1 68/1/1 90/2/1 91/4/1
f 92/1/12 95/2/12 94/4/12 93/3/12
f 97/3/1 96/1/1 100/2/1 101/4/1
f 102/1/2 105/2/2 104/4/2 103/3/2
f 99/3/1 98/1/1 107/2/1 108/4/1
f 101/1/2 110/2/2 109/4/2 100/3/2
f 101/3/1 100/1/1 109/2/1 110/4/1
f 111/1/2 114/2/2 113/4/2 112/3/2
f 106/3/1 101/1/1 110/2/1 116/4/1
f 117/1/2 120/2/2 119/4/2 118/3/2
f 108/3/1 107/1/1 128/2/1 129/4/1
f 110/1/2 131/2/2 130/4/2 109/3/2
f 110/3/1 109/1/1 130/2/1 131/4/1
f 132/1/2 135/2/2 134/4/2 133/3/2
f 115/3/1 108/1/1 129/2/1 136/4/1
f 116/1/2 137/2/2 131/4/2 110/3/2
f 116/3/1 110/1/1 131/2/1 137/4/1
f 138/1/2 141/2/2 140/4/2 139/3/2
f 122/3/1 116/1/1 137/2/1 145/4/1
f 143/1/2 147/2/2 146/4/2 144/3/2
f 123/3/1 121/1/1 142/2/1 148/4/1
f 124/1/2 149/2/2 145/4/2 122/3/2
f 124/3/1 122/1/1 145/2/1 149/4/1
f 150/1/2 153/2/2 152/4/2 151/3/2
f 125/3/1 124/1/1 149/2/1 155/4/1
f 156/1/2 159/2/2 158/4/2 157/3/2
f 127/3/1 126/1/1 165/2/1 166/4/1
f 167/1/2 170/2/2 169/4/2 168/3/2
f 129/3/1 128/1/1 171/2/1 172/4/1
f 131/1/2 174/2/2 173/4/2 130/3/2
f 131/3/1 130/1/1 173/2/1 174/4/1
f 175/1/2 178/2/2 177/4/2 176/3/2
f 136/3/1 129/1/1 172/2/1 179/4/1
f 137/1/2 180/2/2 174/4/2 131/3/2
f 137/3/1 131/1/1 174/2/1 180/4/1
f 181/1/2 184/2/2 183/4/2 182/3/2
f 142/3/1 136/1/1 179/2/1 185/4/1
f 145/1/2 186/2/2 180/4/2 137/3/2
f 145/3/1 137/1/1 180/2/1 186/4/1
f 187/1/2 190/2/2 189/4/2 188/3/2
f 148/3/1 142/1/1 185/2/1 191/4/1
f 149/1/2 192/2/2 186/4/2 145/3/2
f 149/3/1 145/1/1 186/2/1 192/4/1
f 193/1/2 196/2/2 195/4/2 194/3/2
f 154/3/1 148/1/1 191/2/1 197/4/1
f 155/1/2 198/2/2 192/4/2 149/3/2
f 155/3/1 149/1/1 192/2/1 198/4/1
f 199/1/2 202/2/2 201/4/2 200/3/2
f 160/3/1 154/1/1 197/2/1 203/4/1
f 161/1/2 204/2/2 198/4/2 155/3/2
f 161/3/1 155/1/1 198/2/1 204/4/1
f 205/1/2 208/2/2 207/4/2 206/3/2
f 163/3/1 161/1/1 204/2/1 212/4/1
f 210/1/2 214/2/2 213/4/2 211/3/2
f 164/3/1 162/1/1 209/2/1 215/4/1
f 165/1/2 216/2/2 212/4/2 163/3/2
f 165/3/1 163/1/1 212/2/1 216/4/1
f 217/1/2 220/2/2 219/4/2 218/3/2
f 166/3/1 165/1/1 216/2/1 222/4/1
f 223/1/2 226/2/2 225/4/2 224/3/2
f 172/3/1 171/1/1 229/2/1 230/4/1
f 174/1/2 232/2/2 231/4/2 173/3/2
f 174/3/1 173/1/1 231/2/1 232/4/1
f 233/1/2 236/2/2 235/4/2 234/3/2
f 179/3/1 172/1/1 230/2/1 237/4/1
f 180/1/2 238/2/2 232/4/2 174/3/2
f 180/3/1 174/1/1 232/2/1 238/4/1
f 239/1/2 242/2/2 241/4/2 240/3/2
f 185/3/1 179/1/1 237/2/1 243/4/1
f 186/1/2 244/2/2 238/4/2 180/3/2
f 186/3/1 180/1/1 238/2/1 244/4/1
f 245/1/2 248/2/2 247/4/2 246/3/2
f 191/3/1 185/1/1 243/2/1 249/4/1
f 192/1/2 250/2/2 244/4/2 186/3/2
f 192/3/1 186/1/1 244/2/1 250/4/1
f 251/1/2 254/2/2 253/4/2 252/3/2
f 197/3/1 191/1/1 249/2/1 255/4/1
f 198/1/2 256/2/2 250/4/2 192/3/2
f 198/3/1 192/1/1 250/2/1 256/4/1
f 257/1/2 260/2/2 259/4/2 258/3/2
f 203/3/1 197/1/1 255/2/1 261/4/1
f 204/1/2 262/2/2 256/4/2 198/3/2
f 204/3/1 198/1/1 256/2/1 262/4/1
f 263/1/2 266/2/2 265/4/2 264/3/2
f 209/3/1 203/1/1 261/2/1 267/4/1
f 212/1/2 268/2/2 262/4/2 204/3/2
f 212/3/1 204/1/1 262/2/1 268/4/1
f 269/1/2 272/2/2 271/4/2 270/3/2
f 215/3/1 209/1/1 267/2/1 273/4/1
f 216/1/2 274/2/2 268/4/2 212/3/2
f 216/3/1 212/1/1 268/2/1 274/4/1
f 275/1/2 278/2/2 277/4/2 276/3/2
f 221/3/1 215/1/1 273/2/1 279/4/1
f 222/1/2 280/2/2 274/4/2 216/3/2
f 222/3/1 216/1/1 274/2/1 280/4/1
f 281/1/2 284/2/2 283/4/2 282/3/2
f 227/3/1 222/1/1 280/2/1 285/4/1
f 286/1/2 289/2/2 288/4/2 287/3/2
f 228/3/1 227/1/1 285/2/1 290/4/1
f 291/1/2 294/2/2 293/4/2 292/3/2
f 230/3/1 229/1/1 295/2/1 296/4/1
f 232/1/2 298/2/2 297/4/2 231/3/2
f 232/3/1 231/1/1 297/2/1 298/4/1
f 299/1/2 302/2/2 301/4/2 300/3/2
f 237/3/1 230/1/1 296/2/1 303/4/1
f 238/1/2 304/2/2 298/4/2 232/3/2
f 238/3/1 232/1/1 298/2/1 304/4/1
f 305/1/2 308/2/2 307/4/2 306/3/2
f 261/3/1 255/1/1 311/2/1 313/4/1
f 262/1/2 314/2/2 312/4/2 256/3/2
f 262/3/1 256/1/1 312/2/1 314/4/1
f 315/1/2 318/2/2 317/4/2 316/3/2
f 267/3/1 261/1/1 313/2/1 320/4/1
f 268/1/2 321/2/2 314/4/2 262/3/2
f 268/3/1 262/1/1 314/2/1 321/4/1
f 322/1/2 325/2/2 324/4/2 323/3/2
f 273/3/1 267/1/1 320/2/1 327/4/1
f 274/1/2 328/2/2 321/4/2 268/3/2
f 274/3/1 268/1/1 321/2/1 328/4/1
f 329/1/2 332/2/2 331/4/2 330/3/2
f 279/3/1 273/1/1 327/2/1 333/4/1
f 280/1/2 334/2/2 328/4/2 274/3/2
f 280/3/1 274/1/1 328/2/1 334/4/1
f 335/1/2 338/2/2 337/4/2 336/3/2
f 285/3/1 280/1/1 334/2/1 339/4/1
f 340/1/2 343/2/2 342/4/2 341/3/2
f 296/3/1 295/1/1 347/2/1 348/4/1
f 298/1/2 350/2/2 349/4/2 297/3/2
f 298/3/1 297/1/1 349/2/1 350/4/1
f 351/1/2 354/2/2 353/4/2 352/3/2
f 303/3/1 296/1/1 348/2/1 355/4/1
f 304/1/2 356/2/2 350/4/2 298/3/2
f 304/3/1 298/1/1 350/2/1 356/4/1
f 357/1/2 360/2/2 359/4/2 358/3/2
f 309/3/1 304/1/1 356/2/1 362/4/1
f 363/1/2 366/2/2 365/4/2 364/3/2
f 310/3/1 309/1/1 362/2/1 368/4/1
f 369/1/2 372/2/2 371/4/2 370/3/2
f 313/3/1 311/1/1 373/2/1 375/4/1
f 314/1/2 376/2/2 374/4/2 312/3/2
f 314/3/1 312/1/1 374/2/1 376/4/1
f 377/1/2 380/2/2 379/4/2 378/3/2
f 326/3/1 319/1/1 381/2/1 384/4/1
f 327/1/2 385/2/2 382/4/2 320/3/2
f 327/3/1 320/1/1 382/2/1 385/4/1
f 328/1/2 386/2/2 383/4/2 321/3/2
f 328/3/1 321/1/1 383/2/1 386/4/1
f 387/1/2 390/2/2 389/4/2 388/3/2
f 333/3/1 327/1/1 385/2/1 391/4/1
f 334/1/2 392/2/2 386/4/2 328/3/2
f 334/3/1 328/1/1 386/2/1 392/4/1
f 393/1/2 396/2/2 395/4/2 394/3/2
f 339/3/1 334/1/1 392/2/1 398/4/1
f 399/1/2 402/2/2 401/4/2 400/3/2
f 344/3/1 339/1/1 398/2/1 403/4/1
f 404/1/2 407/2/2 406/4/2 405/3/2
f 345/3/1 346/1/1 411/2/1 410/4/1
f 348/1/2 413/2/2 412/4/2 347/3/2
f 348/3/1 347/1/1 412/2/1 413/4/1
f 350/1/2 415/2/2 414/4/2 349/3/2
f 350/3/1 349/1/1 414/2/1 415/4/1
f 416/1/2 419/2/2 418/4/2 417/3/2
f 355/3/1 348/1/1 413/2/1 421/4/1
f 356/1/2 422/2/2 415/4/2 350/3/2
f 356/3/1 350/1/1 415/2/1 422/4/1
f 423/1/2 426/2/2 425/4/2 424/3/2
f 361/3/1 355/1/1 421/2/1 427/4/1
f 362/1/2 428/2/2 422/4/2 356/3/2
f 362/3/1 356/1/1 422/2/1 428/4/1
f 429/1/2 432/2/2 431/4/2 430/3/2
f 367/3/1 361/1/1 427/2/1 433/4/1
f 368/1/2 434/2/2 428/4/2 362/3/2
f 368/3/1 362/1/1 428/2/1 434/4/1
f 435/1/2 438/2/2 437/4/2 436/3/2
f 374/3/1 368/1/1 434/2/1 439/4/1
f 440/1/2 443/2/2 442/4/2 441/3/2
f 391/3/1 385/1/1 449/2/1 451/4/1
f 392/1/2 452/2/2 450/4/2 386/3/2
f 392/3/1 386/1/1 450/2/1 452/4/1
f 453/1/2 456/2/2 455/4/2 454/3/2
f 397/3/1 391/1/1 451/2/1 457/4/1
f 398/1/2 458/2/2 452/4/2 392/3/2
f 398/3/1 392/1/1 452/2/1 458/4/1
f 459/1/2 462/2/2 461/4/2 460/3/2
f 403/3/1 398/1/1 458/2/1 463/4/1
f 464/1/2 467/2/2 466/4/2 465/3/2
f 408/3/1 409/1/1 480/2/1 495/4/1
f 493/1/13 497/2/13 496/4/13 494/3/13
f 410/3/1 411/1/1 499/2/1 498/4/1
f 413/1/2 501/2/2 500/4/2 412/3/2
f 413/3/1 412/1/1 500/2/1 501/4/1
f 415/1/2 503/2/2 502/4/2 414/3/2
f 415/3/1 414/1/1 502/2/1 503/4/1
f 504/1/2 507/2/2 506/4/2 505/3/2
f 420/3/1 410/1/1 498/2/1 508/4/1
f 421/1/2 509/2/2 501/4/2 413/3/2
f 421/3/1 413/1/1 501/2/1 509/4/1
f 422/1/2 510/2/2 503/4/2 415/3/2
f 422/3/1 415/1/1 503/2/1 510/4/1
f 511/1/2 514/2/2 513/4/2 512/3/2
f 427/3/1 421/1/1 509/2/1 515/4/1
f 428/1/2 516/2/2 510/4/2 422/3/2
f 428/3/1 422/1/1 510/2/1 516/4/1
f 517/1/2 520/2/2 519/4/2 518/3/2
f 433/3/1 427/1/1 515/2/1 523/4/1
f 434/1/2 524/2/2 516/4/2 428/3/2
f 434/3/1 428/1/1 516/2/1 524/4/1
f 525/1/2 528/2/2 527/4/2 526/3/2
f 439/3/1 434/1/1 524/2/1 533/4/1
f 531/1/2 535/2/2 534/4/2 532/3/2
f 444/3/1 439/1/1 533/2/1 538/4/1
f 539/1/2 542/2/2 541/4/2 540/3/2
f 448/3/1 445/1/1 543/2/1 546/4/1
f 449/1/2 547/2/2 544/4/2 446/3/2
f 449/3/1 446/1/1 544/2/1 547/4/1
f 450/1/2 548/2/2 545/4/2 447/3/2
f 450/3/1 447/1/1 545/2/1 548/4/1
f 549/1/2 552/2/2 551/4/2 550/3/2
f 451/3/1 449/1/1 547/2/1 553/4/1
f 452/1/2 554/2/2 548/4/2 450/3/2
f 452/3/1 450/1/1 548/2/1 554/4/1
f 555/1/2 558/2/2 557/4/2 556/3/2
f 457/3/1 451/1/1 553/2/1 559/4/1
f 458/1/2 560/2/2 554/4/2 452/3/2
f 458/3/1 452/1/1 554/2/1 560/4/1
f 561/1/2 564/2/2 563/4/2 562/3/2
f 481/3/1 468/1/1 568/2/1 581/4/1
f 482/1/2 582/2/2 569/4/2 469/3/2
f 482/3/1 469/1/1 569/2/1 582/4/1
f 483/1/2 583/2/2 570/4/2 470/3/2
f 483/3/1 470/1/1 570/2/1 583/4/1
f 484/1/2 584/2/2 571/4/2 471/3/2
f 484/3/1 471/1/1 571/2/1 584/4/1
f 485/1/2 585/2/2 572/4/2 472/3/2
f 485/3/1 472/1/1 572/2/1 585/4/1
f 486/1/2 586/2/2 573/4/2 473/3/2
f 486/3/1 473/1/1 573/2/1 586/4/1
f 487/1/2 587/2/2 574/4/2 474/3/2
f 487/3/1 474/1/1 574/2/1 587/4/1
f 488/1/2 588/2/2 575/4/2 475/3/2
f 488/3/1 475/1/1 575/2/1 588/4/1
f 489/1/2 589/2/2 576/4/2 476/3/2
f 489/3/1 476/1/1 576/2/1 589/4/1
f 490/1/2 590/2/2 577/4/2 477/3/2
f 490/3/1 477/1/1 577/2/1 590/4/1
f 491/1/2 591/2/2 578/4/2 478/3/2
f 491/3/1 478/1/1 578/2/1 591/4/1
f 492/1/2 592/2/2 579/4/2 479/3/2
f 492/3/1 479/1/1 579/2/1 592/4/1
f 495/1/2 593/2/2 580/4/2 480/3/2
f 495/3/1 480/1/1 580/2/1 593/4/1
f 594/1/14 597/2/14 596/4/14 595/3/14
f 498/3/1 499/1/1 599/2/1 598/4/1
f 501/1/2 601/2/2 600/4/2 500/3/2
f 501/3/1 500/1/1 600/2/1 601/4/1
f 503/1/2 603/2/2 602/4/2 502/3/2
f 503/3/1 502/1/1 602/2/1 603/4/1
f 604/1/2 607/2/2 606/4/2 605/3/2
f 508/3/1 498/1/1 598/2/1 608/4/1
f 509/1/2 609/2/2 601/4/2 501/3/2
f 509/3/1 501/1/1 601/2/1 609/4/1
f 510/1/2 610/2/2 603/4/2 503/3/2
f 510/3/1 503/1/1 603/2/1 610/4/1
f 611/1/2 614/2/2 613/4/2 612/3/2
f 522/3/1 508/1/1 608/2/1 615/4/1
f 515/1/2 616/2/2 609/4/2 509/3/2
f 515/3/1 509/1/1 609/2/1 616/4/1
f 516/1/2 617/2/2 610/4/2 510/3/2
f 516/3/1 510/1/1 610/2/1 617/4/1
f 618/1/2 621/2/2 620/4/2 619/3/2
f 521/3/1 522/1/1 615/2/1 622/4/1
f 523/1/2 623/2/2 616/4/2 515/3/2
f 523/3/1 515/1/1 616/2/1 623/4/1
f 524/1/2 624/2/2 617/4/2 516/3/2
f 524/3/1 516/1/1 617/2/1 624/4/1
f 625/1/2 628/2/2 627/4/2 626/3/2
f 530/3/1 523/1/1 623/2/1 630/4/1
f 533/1/2 631/2/2 624/4/2 524/3/2
f 533/3/1 524/1/1 624/2/1 631/4/1
f 632/1/2 635/2/2 634/4/2 633/3/2
f 536/3/1 529/1/1 629/2/1 636/4/1
f 537/1/2 637/2/2 630/4/2 530/3/2
f 537/3/1 530/1/1 630/2/1 637/4/1
f 538/1/2 638/2/2 631/4/2 533/3/2
f 538/3/1 533/1/1 631/2/1 638/4/1
f 639/1/2 642/2/2 641/4/2 640/3/2
f 544/3/1 537/1/1 637/2/1 644/4/1
f 545/1/2 645/2/2 638/4/2 538/3/2
f 545/3/1 538/1/1 638/2/1 645/4/1
f 646/1/2 649/2/2 648/4/2 647/3/2
f 547/3/1 544/1/1 644/2/1 650/4/1
f 548/1/2 651/2/2 645/4/2 545/3/2
f 548/3/1 545/1/1 645/2/1 651/4/1
f 652/1/2 655/2/2 654/4/2 653/3/2
f 553/3/1 547/1/1 650/2/1 656/4/1
f 554/1/2 657/2/2 651/4/2 548/3/2
f 554/3/1 548/1/1 651/2/1 657/4/1
f 658/1/2 661/2/2 660/4/2 659/3/2
f 560/3/1 554/1/1 657/2/1 663/4/1
f 664/1/2 667/2/2 666/4/2 665/3/2
f 565/3/1 560/1/1 663/2/1 669/4/1
f 670/1/2 673/2/2 672/4/2 671/3/2
f 567/3/1 566/1/1 674/2/1 675/4/1
f 676/1/2 679/2/2 678/4/2 677/3/2
f 598/3/1 599/1/1 681/2/1 680/4/1
f 601/1/2 683/2/2 682/4/2 600/3/2
f 601/3/1 600/1/1 682/2/1 683/4/1
f 603/1/2 685/2/2 684/4/2 602/3/2
f 603/3/1 602/1/1 684/2/1 685/4/1
f 686/1/2 689/2/2 688/4/2 687/3/2
f 608/3/1 598/1/1 680/2/1 690/4/1
f 609/1/2 691/2/2 683/4/2 601/3/2
f 609/3/1 601/1/1 683/2/1 691/4/1
f 610/1/2 692/2/2 685/4/2 603/3/2
f 610/3/1 603/1/1 685/2/1 692/4/1
f 693/1/2 696/2/2 695/4/2 694/3/2
f 615/3/1 608/1/1 690/2/1 697/4/1
f 616/1/2 698/2/2 691/4/2 609/3/2
f 616/3/1 609/1/1 691/2/1 698/4/1
f 617/1/2 699/2/2 692/4/2 610/3/2
f 617/3/1 610/1/1 692/2/1 699/4/1
f 700/1/2 703/2/2 702/4/2 701/3/2
f 622/3/1 615/1/1 697/2/1 704/4/1
f 623/1/2 705/2/2 698/4/2 616/3/2
f 623/3/1 616/1/1 698/2/1 705/4/1
f 624/1/2 706/2/2 699/4/2 617/3/2
f 624/3/1 617/1/1 699/2/1 706/4/1
f 707/1/2 710/2/2 709/4/2 708/3/2
f 630/3/1 623/1/1 705/2/1 712/4/1
f 631/1/2 713/2/2 706/4/2 624/3/2
f 631/3/1 624/1/1 706/2/1 713/4/1
f 714/1/2 717/2/2 716/4/2 715/3/2
f 636/3/1 629/1/1 711/2/1 718/4/1
f 637/1/2 719/2/2 712/4/2 630/3/2
f 637/3/1 630/1/1 712/2/1 719/4/1
f 638/1/2 720/2/2 713/4/2 631/3/2
f 638/3/1 631/1/1 713/2/1 720/4/1
f 721/1/2 724/2/2 723/4/2 722/3/2
f 643/3/1 636/1/1 718/2/1 725/4/1
f 644/1/2 726/2/2 719/4/2 637/3/2
f 644/3/1 637/1/1 719/2/1 726/4/1
f 645/1/2 727/2/2 720/4/2 638/3/2
f 645/3/1 638/1/1 720/2/1 727/4/1
f 728/1/2 731/2/2 730/4/2 729/3/2
f 650/3/1 644/1/1 726/2/1 732/4/1
f 651/1/2 733/2/2 727/4/2 645/3/2
f 651/3/1 645/1/1 727/2/1 733/4/1
f 734/1/2 737/2/2 736/4/2 735/3/2
f 656/3/1 650/1/1 732/2/1 738/4/1
f 657/1/2 739/2/2 733/4/2 651/3/2
f 657/3/1 651/1/1 733/2/1 739/4/1
f 740/1/2 743/2/2 742/4/2 741/3/2
f 662/3/1 656/1/1 738/2/1 744/4/1
f 663/1/2 745/2/2 739/4/2 657/3/2
f 663/3/1 657/1/1 739/2/1 745/4/1
f 746/1/2 749/2/2 748/4/2 747/3/2
f 668/3/1 662/1/1 744/2/1 750/4/1
f 669/1/2 751/2/2 745/4/2 663/3/2
f 669/3/1 663/1/1 745/2/1 751/4/1
f 752/1/2 755/2/2 754/4/2 753/3/2
f 674/3/1 669/1/1 751/2/1 756/4/1
f 757/1/2 760/2/2 759/4/2 758/3/2
f 675/3/1 674/1/1 756/2/1 761/4/1
f 762/1/2 765/2/2 764/4/2 763/3/2
f 680/3/1 681/1/1 768/2/1 767/4/1
f 683/1/2 770/2/2 769/4/2 682/3/2
f 683/3/1 682/1/1 769/2/1 770/4/1
f 685/1/2 772/2/2 771/4/2 684/3/2
f 685/3/1 684/1/1 771/2/1 772/4/1
f 773/1/2 776/2/2 775/4/2 774/3/2
f 690/3/1 680/1/1 767/2/1 777/4/1
f 691/1/2 778/2/2 770/4/2 683/3/2
f 691/3/1 683/1/1 770/2/1 778/4/1
f 692/1/2 779/2/2 772/4/2 685/3/2
f 692/3/1 685/1/1 772/2/1 779/4/1
f 780/1/2 783/2/2 782/4/2 781/3/2
f 697/3/1 690/1/1 777/2/1 784/4/1
f 698/1/2 785/2/2 778/4/2 691/3/2
f 698/3/1 691/1/1 778/2/1 785/4/1
f 699/1/2 786/2/2 779/4/2 692/3/2
f 699/3/1 692/1/1 779/2/1 786/4/1
f 787/1/2 790/2/2 789/4/2 788/3/2
f 704/3/1 697/1/1 784/2/1 791/4/1
f 705/1/2 792/2/2 785/4/2 698/3/2
f 705/3/1 698/1/1 785/2/1 792/4/1
f 706/1/2 793/2/2 786/4/2 699/3/2
f 706/3/1 699/1/1 786/2/1 793/4/1
f 794/1/2 797/2/2 796/4/2 795/3/2
f 711/3/1 704/1/1 791/2/1 798/4/1
f 712/1/2 799/2/2 792/4/2 705/3/2
f 712/3/1 705/1/1 792/2/1 799/4/1
f 713/1/2 800/2/2 793/4/2 706/3/2
f 713/3/1 706/1/1 793/2/1 800/4/1
f 801/1/2 804/2/2 803/4/2 802/3/2
f 720/3/1 713/1/1 800/2/1 807/4/1
f 808/1/2 811/2/2 810/4/2 809/3/2
f 739/3/1 733/1/1 813/2/1 815/4/1
f 816/1/2 819/2/2 818/4/2 817/3/2
f 744/3/1 738/1/1 814/2/1 820/4/1
f 745/1/2 821/2/2 815/4/2 739/3/2
f 745/3/1 739/1/1 815/2/1 821/4/1
f 822/1/2 825/2/2 824/4/2 823/3/2
f 750/3/1 744/1/1 820/2/1 826/4/1
f 751/1/2 827/2/2 821/4/2 745/3/2
f 751/3/1 745/1/1 821/2/1 827/4/1
f 828/1/2 831/2/2 830/4/2 829/3/2
f 756/3/1 751/1/1 827/2/1 832/4/1
f 833/1/2 836/2/2 835/4/2 834/3/2
f 761/3/1 756/1/1 832/2/1 837/4/1
f 838/1/2 841/2/2 840/4/2 839/3/2
f 766/3/1 761/1/1 837/2/1 842/4/1
f 843/1/2 846/2/2 845/4/2 844/3/2
f 767/3/1 768/1/1 848/2/1 847/4/1
f 770/1/2 850/2/2 849/4/2 769/3/2
f 770/3/1 769/1/1 849/2/1 850/4/1
f 772/1/2 852/2/2 851/4/2 771/3/2
f 772/3/1 771/1/1 851/2/1 852/4/1
f 853/1/2 856/2/2 855/4/2 854/3/2
f 777/3/1 767/1/1 847/2/1 857/4/1
f 778/1/2 858/2/2 850/4/2 770/3/2
f 778/3/1 770/1/1 850/2/1 858/4/1
f 779/1/2 859/2/2 852/4/2 772/3/2
f 779/3/1 772/1/1 852/2/1 859/4/1
f 860/1/2 863/2/2 862/4/2 861/3/2
f 784/3/1 777/1/1 857/2/1 864/4/1
f 785/1/2 865/2/2 858/4/2 778/3/2
f 785/3/1 778/1/1 858/2/1 865/4/1
f 786/1/2 866/2/2 859/4/2 779/3/2
f 786/3/1 779/1/1 859/2/1 866/4/1
f 867/1/2 870/2/2 869/4/2 868/3/2
f 791/3/1 784/1/1 864/2/1 871/4/1
f 792/1/2 872/2/2 865/4/2 785/3/2
f 792/3/1 785/1/1 865/2/1 872/4/1
f 793/1/2 873/2/2 866/4/2 786/3/2
f 793/3/1 786/1/1 866/2/1 873/4/1
f 874/1/2 877/2/2 876/4/2 875/3/2
f 798/3/1 791/1/1 871/2/1 878/4/1
f 799/1/2 879/2/2 872/4/2 792/3/2
f 799/3/1 792/1/1 872/2/1 879/4/1
f 800/1/2 880/2/2 873/4/2 793/3/2
f 800/3/1 793/1/1 873/2/1 880/4/1
f 881/1/2 884/2/2 883/4/2 882/3/2
f 805/3/1 798/1/1 878/2/1 885/4/1
f 806/1/2 886/2/2 879/4/2 799/3/2
f 806/3/1 799/1/1 879/2/1 886/4/1
f 807/1/2 887/2/2 880/4/2 800/3/2
f 807/3/1 800/1/1 880/2/1 887/4/1
f 888/1/2 891/2/2 890/4/2 889/3/2
f 814/3/1 812/1/1 896/2/1 898/4/1
f 815/1/2 899/2/2 897/4/2 813/3/2
f 815/3/1 813/1/1 897/2/1 899/4/1
f 900/1/2 903/2/2 902/4/2 901/3/2
f 820/3/1 814/1/1 898/2/1 904/4/1
f 821/1/2 905/2/2 899/4/2 815/3/2
f 821/3/1 815/1/1 899/2/1 905/4/1
f 906/1/2 909/2/2 908/4/2 907/3/2
f 826/3/1 820/1/1 904/2/1 910/4/1
f 827/1/2 911/2/2 905/4/2 821/3/2
f 827/3/1 821/1/1 905/2/1 911/4/1
f 912/1/2 915/2/2 914/4/2 913/3/2
f 832/3/1 827/1/1 911/2/1 916/4/1
f 917/1/2 920/2/2 919/4/2 918/3/2
f 837/3/1 832/1/1 916/2/1 921/4/1
f 922/1/2 925/2/2 924/4/2 923/3/2
f 847/3/1 848/1/1 928/2/1 927/4/1
f 850/1/2 930/2/2 929/4/2 849/3/2
f 850/3/1 849/1/1 929/2/1 930/4/1
f 852/1/2 932/2/2 931/4/2 851/3/2
f 852/3/1 851/1/1 931/2/1 932/4/1
f 933/1/2 936/2/2 935/4/2 934/3/2
f 857/3/1 847/1/1 927/2/1 937/4/1
f 858/1/2 938/2/2 930/4/2 850/3/2
f 858/3/1 850/1/1 930/2/1 938/4/1
f 859/1/2 939/2/2 932/4/2 852/3/2
f 859/3/1 852/1/1 932/2/1 939/4/1
f 940/1/2 943/2/2 942/4/2 941/3/2
f 864/3/1 857/1/1 937/2/1 944/4/1
f 865/1/2 945/2/2 938/4/2 858/3/2
f 865/3/1 858/1/1 938/2/1 945/4/1
f 866/1/2 946/2/2 939/4/2 859/3/2
f 866/3/1 859/1/1 939/2/1 946/4/1
f 947/1/2 950/2/2 949/4/2 948/3/2
f 871/3/1 864/1/1 944/2/1 951/4/1
f 872/1/2 952/2/2 945/4/2 865/3/2
f 872/3/1 865/1/1 945/2/1 952/4/1
f 873/1/2 953/2/2 946/4/2 866/3/2
f 873/3/1 866/1/1 946/2/1 953/4/1
f 954/1/2 957/2/2 956/4/2 955/3/2
f 878/3/1 871/1/1 951/2/1 958/4/1
f 879/1/2 959/2/2 952/4/2 872/3/2
f 879/3/1 872/1/1 952/2/1 959/4/1
f 880/1/2 960/2/2 953/4/2 873/3/2
f 880/3/1 873/1/1 953/2/1 960/4/1
f 961/1/2 964/2/2 963/4/2 962/3/2
f 885/3/1 878/1/1 958/2/1 965/4/1
f 886/1/2 966/2/2 959/4/2 879/3/2
f 886/3/1 879/1/1 959/2/1 966/4/1
f 887/1/2 967/2/2 960/4/2 880/3/2
f 887/3/1 880/1/1 960/2/1 967/4/1
f 968/1/2 971/2/2 970/4/2 969/3/2
f 892/3/1 885/1/1 965/2/1 972/4/1
f 893/1/2 973/2/2 966/4/2 886/3/2
f 893/3/1 886/1/1 966/2/1 973/4/1
f 894/1/2 974/2/2 967/4/2 887/3/2
f 894/3/1 887/1/1 967/2/1 974/4/1
f 975/1/2 978/2/2 977/4/2 976/3/2
f 895/3/1 892/1/1 972/2/1 979/4/1
f 896/1/2 980/2/2 973/4/2 893/3/2
f 897/3/1 894/1/1 974/2/1 981/4/1
f 982/1/2 985/2/2 984/4/2 983/3/2
f 898/3/1 896/1/1 980/2/1 987/4/1
f 899/1/2 988/2/2 981/4/2 897/3/2
f 899/3/1 897/1/1 981/2/1 988/4/1
f 989/1/2 992/2/2 991/4/2 990/3/2
f 904/3/1 898/1/1 987/2/1 994/4/1
f 905/1/2 995/2/2 988/4/2 899/3/2
f 905/3/1 899/1/1 988/2/1 995/4/1
f 996/1/2 999/2/2 998/4/2 997/3/2
f 910/3/1 904/1/1 994/2/1 1000/4/1
f 911/1/2 1001/2/2 995/4/2 905/3/2
f 911/3/1 905/1/1 995/2/1 1001/4/1
f 1002/1/2 1005/2/2 1004/4/2 1003/3/2
f 916/3/1 911/1/1 1001/2/1 1006/4/1
f 1007/1/2 1010/2/2 1009/4/2 1008/3/2
f 921/3/1 916/1/1 1006/2/1 1011/4/1
f 1012/1/2 1015/2/2 1014/4/2 1013/3/2
f 926/3/1 921/1/1 1011/2/1 1016/4/1
f 1017/1/2 1020/2/2 1019/4/2 1018/3/2
f 927/3/1 928/1/1 1024/2/1 1023/4/1
f 930/1/2 1026/2/2 1025/4/2 929/3/2
f 930/3/1 929/1/1 1025/2/1 1026/4/1
f 932/1/2 1028/2/2 1027/4/2 931/3/2
f 932/3/1 931/1/1 1027/2/1 1028/4/1
f 1029/1/2 1032/2/2 1031/4/2 1030/3/2
f 937/3/1 927/1/1 1023/2/1 1033/4/1
f 938/1/2 1034/2/2 1026/4/2 930/3/2
f 938/3/1 930/1/1 1026/2/1 1034/4/1
f 939/1/2 1035/2/2 1028/4/2 932/3/2
f 939/3/1 932/1/1 1028/2/1 1035/4/1
f 1036/1/2 1039/2/2 1038/4/2 1037/3/2
f 944/3/1 937/1/1 1033/2/1 1040/4/1
f 945/1/2 1041/2/2 1034/4/2 938/3/2
f 945/3/1 938/1/1 1034/2/1 1041/4/1
f 946/1/2 1042/2/2 1035/4/2 939/3/2
f 946/3/1 939/1/1 1035/2/1 1042/4/1
f 1043/1/2 1046/2/2 1045/4/2 1044/3/2
f 951/3/1 944/1/1 1040/2/1 1047/4/1
f 952/1/2 1048/2/2 1041/4/2 945/3/2
f 952/3/1 945/1/1 1041/2/1 1048/4/1
f 953/1/2 1049/2/2 1042/4/2 946/3/2
f 953/3/1 946/1/1 1042/2/1 1049/4/1
f 1050/1/2 1053/2/2 1052/4/2 1051/3/2
f 958/3/1 951/1/1 1047/2/1 1054/4/1
f 959/1/2 1055/2/2 1048/4/2 952/3/2
f 959/3/1 952/1/1 1048/2/1 1055/4/1
f 960/1/2 1056/2/2 1049/4/2 953/3/2
f 960/3/1 953/1/1 1049/2/1 1056/4/1
f 1057/1/2 1060/2/2 1059/4/2 1058/3/2
f 965/3/1 958/1/1 1054/2/1 1061/4/1
f 966/1/2 1062/2/2 1055/4/2 959/3/2
f 966/3/1 959/1/1 1055/2/1 1062/4/1
f 967/1/2 1063/2/2 1056/4/2 960/3/2
f 967/3/1 960/1/1 1056/2/1 1063/4/1
f 1064/1/2 1067/2/2 1066/4/2 1065/3/2
f 972/3/1 965/1/1 1061/2/1 1068/4/1
f 973/1/2 1069/2/2 1062/4/2 966/3/2
f 973/3/1 966/1/1 1062/2/1 1069/4/1
f 974/1/2 1070/2/2 1063/4/2 967/3/2
f 974/3/1 967/1/1 1063/2/1 1070/4/1
f 1071/1/2 1074/2/2 1073/4/2 1072/3/2
f 979/3/1 972/1/1 1068/2/1 1075/4/1
f 980/1/2 1076/2/2 1069/4/2 973/3/2
f 980/3/1 973/1/1 1069/2/1 1076/4/1
f 981/1/2 1077/2/2 1070/4/2 974/3/2
f 981/3/1 974/1/1 1070/2/1 1077/4/1
f 1078/1/2 1081/2/2 1080/4/2 1079/3/2
f 986/3/1 979/1/1 1075/2/1 1082/4/1
f 987/1/2 1083/2/2 1076/4/2 980/3/2
f 987/3/1 980/1/1 1076/2/1 1083/4/1
f 988/1/2 1084/2/2 1077/4/2 981/3/2
f 988/3/1 981/1/1 1077/2/1 1084/4/1
f 1085/1/2 1088/2/2 1087/4/2 1086/3/2
f 993/3/1 986/1/1 1082/2/1 1089/4/1
f 994/1/2 1090/2/2 1083/4/2 987/3/2
f 994/3/1 987/1/1 1083/2/1 1090/4/1
f 995/1/2 1091/2/2 1084/4/2 988/3/2
f 995/3/1 988/1/1 1084/2/1 1091/4/1
f 1092/1/2 1095/2/2 1094/4/2 1093/3/2
f 1001/3/1 995/1/1 1091/2/1 1097/4/1
f 1098/1/2 1101/2/2 1100/4/2 1099/3/2
f 1011/3/1 1006/1/1 1102/2/1 1103/4/1
f 1104/1/2 1107/2/2 1106/4/2 1105/3/2
f 1016/3/1 1011/1/1 1103/2/1 1108/4/1
f 1109/1/2 1112/2/2 1111/4/2 1110/3/2
f 1022/3/1 1021/1/1 1113/2/1 1114/4/1
f 1115/1/13 1118/2/13 1117/4/13 1116/3/13
f 1023/3/1 1024/1/1 1120/2/1 1119/4/1
f 1026/1/2 1122/2/2 1121/4/2 1025/3/2
f 1026/3/1 1025/1/1 1121/2/1 1122/4/1
f 1028/1/2 1124/2/2 1123/4/2 1027/3/2
f 1028/3/1 1027/1/1 1123/2/1 1124/4/1
f 1125/1/2 1128/2/2 1127/4/2 1126/3/2
f 1033/3/1 1023/1/1 1119/2/1 1129/4/1
f 1034/1/2 1130/2/2 1122/4/2 1026/3/2
f 1034/3/1 1026/1/1 1122/2/1 1130/4/1
f 1035/1/2 1131/2/2 1124/4/2 1028/3/2
f 1035/3/1 1028/1/1 1124/2/1 1131/4/1
f 1132/1/2 1135/2/2 1134/4/2 1133/3/2
f 1040/3/1 1033/1/1 1129/2/1 1136/4/1
f 1041/1/2 1137/2/2 1130/4/2 1034/3/2
f 1041/3/1 1034/1/1 1130/2/1 1137/4/1
f 1042/1/2 1138/2/2 1131/4/2 1035/3/2
f 1042/3/1 1035/1/1 1131/2/1 1138/4/1
f 1139/1/2 1142/2/2 1141/4/2 1140/3/2
f 1047/3/1 1040/1/1 1136/2/1 1143/4/1
f 1048/1/2 1144/2/2 1137/4/2 1041/3/2
f 1048/3/1 1041/1/1 1137/2/1 1144/4/1
f 1049/1/2 1145/2/2 1138/4/2 1042/3/2
f 1049/3/1 1042/1/1 1138/2/1 1145/4/1
f 1146/1/2 1149/2/2 1148/4/2 1147/3/2
f 1054/3/1 1047/1/1 1143/2/1 1150/4/1
f 1055/1/2 1151/2/2 1144/4/2 1048/3/2
f 1055/3/1 1048/1/1 1144/2/1 1151/4/1
f 1056/1/2 1152/2/2 1145/4/2 1049/3/2
f 1056/3/1 1049/1/1 1145/2/1 1152/4/1
f 1153/1/2 1156/2/2 1155/4/2 1154/3/2
f 1061/3/1 1054/1/1 1150/2/1 1157/4/1
f 1062/1/2 1158/2/2 1151/4/2 1055/3/2
f 1062/3/1 1055/1/1 1151/2/1 1158/4/1
f 1063/1/2 1159/2/2 1152/4/2 1056/3/2
f 1063/3/1 1056/1/1 1152/2/1 1159/4/1
f 1160/1/2 1163/2/2 1162/4/2 1161/3/2
f 1068/3/1 1061/1/1 1157/2/1 1164/4/1
f 1069/1/2 1165/2/2 1158/4/2 1062/3/2
f 1069/3/1 1062/1/1 1158/2/1 1165/4/1
f 1070/1/2 1166/2/2 1159/4/2 1063/3/2
f 1070/3/1 1063/1/1 1159/2/1 1166/4/1
f 1167/1/2 1170/2/2 1169/4/2 1168/3/2
f 1075/3/1 1068/1/1 1164/2/1 1171/4/1
f 1076/1/2 1172/2/2 1165/4/2 1069/3/2
f 1076/3/1 1069/1/1 1165/2/1 1172/4/1
f 1077/1/2 1173/2/2 1166/4/2 1070/3/2
f 1077/3/1 1070/1/1 1166/2/1 1173/4/1
f 1174/1/2 1177/2/2 1176/4/2 1175/3/2
f 1082/3/1 1075/1/1 1171/2/1 1178/4/1
f 1083/1/2 1179/2/2 1172/4/2 1076/3/2
f 1083/3/1 1076/1/1 1172/2/1 1179/4/1
f 1084/1/2 1180/2/2 1173/4/2 1077/3/2
f 1084/3/1 1077/1/1 1173/2/1 1180/4/1
f 1181/1/2 1184/2/2 1183/4/2 1182/3/2
f 1089/3/1 1082/1/1 1178/2/1 1185/4/1
f 1090/1/2 1186/2/2 1179/4/2 1083/3/2
f 1090/3/1 1083/1/1 1179/2/1 1186/4/1
f 1091/1/2 1187/2/2 1180/4/2 1084/3/2
f 1091/3/1 1084/1/1 1180/2/1 1187/4/1
f 1188/1/2 1191/2/2 1190/4/2 1189/3/2
f 1096/3/1 1090/1/1 1186/2/1 1193/4/1
f 1097/1/2 1194/2/2 1187/4/2 1091/3/2
f 1097/3/1 1091/1/1 1187/2/1 1194/4/1
f 1195/1/2 1198/2/2 1197/4/2 1196/3/2
f 1102/3/1 1097/1/1 1194/2/1 1200/4/1
f 1201/1/2 1204/2/2 1203/4/2 1202/3/2
f 1103/3/1 1102/1/1 1200/2/1 1205/4/1
f 1206/1/2 1209/2/2 1208/4/2 1207/3/2
f 1108/3/1 1103/1/1 1205/2/1 1210/4/1
f 1211/1/2 1214/2/2 1213/4/2 1212/3/2
f 1114/3/1 1113/1/1 1221/2/1 1222/4/1
f 1223/1/2 1226/2/2 1225/4/2 1224/3/2
f 1119/3/1 1120/1/1 1229/2/1 1228/4/1
f 1122/1/2 1231/2/2 1230/4/2 1121/3/2
f 1122/3/1 1121/1/1 1230/2/1 1231/4/1
f 1124/1/2 1233/2/2 1232/4/2 1123/3/2
f 1124/3/1 1123/1/1 1232/2/1 1233/4/1
f 1234/1/2 1237/2/2 1236/4/2 1235/3/2
f 1129/3/1 1119/1/1 1228/2/1 1238/4/1
f 1130/1/2 1239/2/2 1231/4/2 1122/3/2
f 1130/3/1 1122/1/1 1231/2/1 1239/4/1
f 1131/1/2 1240/2/2 1233/4/2 1124/3/2
f 1131/3/1 1124/1/1 1233/2/1 1240/4/1
f 1241/1/2 1244/2/2 1243/4/2 1242/3/2
f 1136/3/1 1129/1/1 1238/2/1 1245/4/1
f 1137/1/2 1246/2/2 1239/4/2 1130/3/2
f 1137/3/1 1130/1/1 1239/2/1 1246/4/1
f 1138/1/2 1247/2/2 1240/4/2 1131/3/2
f 1138/3/1 1131/1/1 1240/2/1 1247/4/1
f 1248/1/2 1251/2/2 1250/4/2 1249/3/2
f 1143/3/1 1136/1/1 1245/2/1 1252/4/1
f 1144/1/2 1253/2/2 1246/4/2 1137/3/2
f 1144/3/1 1137/1/1 1246/2/1 1253/4/1
f 1145/1/2 1254/2/2 1247/4/2 1138/3/2
f 1145/3/1 1138/1/1 1247/2/1 1254/4/1
f 1255/1/2 1258/2/2 1257/4/2 1256/3/2
f 1150/3/1 1143/1/1 1252/2/1 1259/4/1
f 1151/1/2 1260/2/2 1253/4/2 1144/3/2
f 1151/3/1 1144/1/1 1253/2/1 1260/4/1
f 1152/1/2 1261/2/2 1254/4/2 1145/3/2
f 1152/3/1 1145/1/1 1254/2/1 1261/4/1
f 1262/1/2 1265/2/2 1264/4/2 1263/3/2
f 1157/3/1 1150/1/1 1259/2/1 1266/4/1
f 1158/1/2 1267/2/2 1260/4/2 1151/3/2
f 1158/3/1 1151/1/1 1260/2/1 1267/4/1
f 1159/1/2 1268/2/2 1261/4/2 1152/3/2
f 1159/3/1 1152/1/1 1261/2/1 1268/4/1
f 1269/1/2 1272/2/2 1271/4/2 1270/3/2
f 1164/3/1 1157/1/1 1266/2/1 1273/4/1
f 1165/1/2 1274/2/2 1267/4/2 1158/3/2
f 1165/3/1 1158/1/1 1267/2/1 1274/4/1
f 1166/1/2 1275/2/2 1268/4/2 1159/3/2
f 1166/3/1 1159/1/1 1268/2/1 1275/4/1
f 1276/1/2 1279/2/2 1278/4/2 1277/3/2
f 1171/3/1 1164/1/1 1273/2/1 1280/4/1
f 1172/1/2 1281/2/2 1274/4/2 1165/3/2
f 1172/3/1 1165/1/1 1274/2/1 1281/4/1
f 1173/1/2 1282/2/2 1275/4/2 1166/3/2
f 1173/3/1 1166/1/1 1275/2/1 1282/4/1
f 1283/1/2 1286/2/2 1285/4/2 1284/3/2
f 1178/3/1 1171/1/1 1280/2/1 1287/4/1
f 1179/1/2 1288/2/2 1281/4/2 1172/3/2
f 1179/3/1 1172/1/1 1281/2/1 1288/4/1
f 1180/1/2 1289/2/2 1282/4/2 1173/3/2
f 1180/3/1 1173/1/1 1282/2/1 1289/4/1
f 1290/1/2 1293/2/2 1292/4/2 1291/3/2
f 1185/3/1 1178/1/1 1287/2/1 1294/4/1
f 1186/1/2 1295/2/2 1288/4/2 1179/3/2
f 1186/3/1 1179/1/1 1288/2/1 1295/4/1
f 1187/1/2 1296/2/2 1289/4/2 1180/3/2
f 1187/3/1 1180/1/1 1289/2/1 1296/4/1
f 1297/1/2 1300/2/2 1299/4/2 1298/3/2
f 1192/3/1 1185/1/1 1294/2/1 1301/4/1
f 1193/1/2 1302/2/2 1295/4/2 1186/3/2
f 1193/3/1 1186/1/1 1295/2/1 1302/4/1
f 1194/1/2 1303/2/2 1296/4/2 1187/3/2
f 1194/3/1 1187/1/1 1296/2/1 1303/4/1
f 1304/1/2 1307/2/2 1306/4/2 1305/3/2
f 1199/3/1 1193/1/1 1302/2/1 1309/4/1
f 1200/1/2 1310/2/2 1303/4/2 1194/3/2
f 1200/3/1 1194/1/1 1303/2/1 1310/4/1
f 1311/1/2 1314/2/2 1313/4/2 1312/3/2
f 1205/3/1 1200/1/1 1310/2/1 1316/4/1
f 1317/1/2 1320/2/2 1319/4/2 1318/3/2
f 1216/3/1 1215/1/1 1323/2/1 1325/4/1
f 1326/1/2 1329/2/2 1328/4/2 1327/3/2
f 1218/3/1 1217/1/1 1331/2/1 1333/4/1
f 1334/1/2 1337/2/2 1336/4/2 1335/3/2
f 1220/3/1 1219/1/1 1338/2/1 1339/4/1
f 1340/1/2 1343/2/2 1342/4/2 1341/3/2
f 1221/3/1 1220/1/1 1339/2/1 1344/4/1
f 1345/1/2 1348/2/2 1347/4/2 1346/3/2
f 1227/3/1 1222/1/1 1349/2/1 1350/4/1
f 1351/1/2 1354/2/2 1353/4/2 1352/3/2
f 1228/3/1 1229/1/1 1361/2/1 1360/4/1
f 1231/1/2 1363/2/2 1362/4/2 1230/3/2
f 1231/3/1 1230/1/1 1362/2/1 1363/4/1
f 1233/1/2 1365/2/2 1364/4/2 1232/3/2
f 1233/3/1 1232/1/1 1364/2/1 1365/4/1
f 1366/1/2 1369/2/2 1368/4/2 1367/3/2
f 1238/3/1 1228/1/1 1360/2/1 1370/4/1
f 1239/1/2 1371/2/2 1363/4/2 1231/3/2
f 1239/3/1 1231/1/1 1363/2/1 1371/4/1
f 1240/1/2 1372/2/2 1365/4/2 1233/3/2
f 1240/3/1 1233/1/1 1365/2/1 1372/4/1
f 1373/1/2 1376/2/2 1375/4/2 1374/3/2
f 1245/3/1 1238/1/1 1370/2/1 1377/4/1
f 1246/1/2 1378/2/2 1371/4/2 1239/3/2
f 1246/3/1 1239/1/1 1371/2/1 1378/4/1
f 1247/1/2 1379/2/2 1372/4/2 1240/3/2
f 1247/3/1 1240/1/1 1372/2/1 1379/4/1
f 1380/1/2 1383/2/2 1382/4/2 1381/3/2
f 1252/3/1 1245/1/1 1377/2/1 1384/4/1
f 1253/1/2 1385/2/2 1378/4/2 1246/3/2
f 1253/3/1 1246/1/1 1378/2/1 1385/4/1
f 1254/1/2 1386/2/2 1379/4/2 1247/3/2
f 1254/3/1 1247/1/1 1379/2/1 1386/4/1
f 1387/1/2 1390/2/2 1389/4/2 1388/3/2
f 1259/3/1 1252/1/1 1384/2/1 1391/4/1
f 1260/1/2 1392/2/2 1385/4/2 1253/3/2
f 1260/3/1 1253/1/1 1385/2/1 1392/4/1
f 1261/1/2 1393/2/2 1386/4/2 1254/3/2
f 1261/3/1 1254/1/1 1386/2/1 1393/4/1
f 1394/1/2 1397/2/2 1396/4/2 1395/3/2
f 1266/3/1 1259/1/1 1391/2/1 1398/4/1
f 1267/1/2 1399/2/2 1392/4/2 1260/3/2
f 1267/3/1 1260/1/1 1392/2/1 1399/4/1
f 1268/1/2 1400/2/2 1393/4/2 1261/3/2
f 1268/3/1 1261/1/1 1393/2/1 1400/4/1
f 1401/1/2 1404/2/2 1403/4/2 1402/3/2
f 1273/3/1 1266/1/1 1398/2/1 1405/4/1
f 1274/1/2 1406/2/2 1399/4/2 1267/3/2
f 1274/3/1 1267/1/1 1399/2/1 1406/4/1
f 1275/1/2 1407/2/2 1400/4/2 1268/3/2
f 1275/3/1 1268/1/1 1400/2/1 1407/4/1
f 1408/1/2 1411/2/2 1410/4/2 1409/3/2
f 1280/3/1 1273/1/1 1405/2/1 1412/4/1
f 1281/1/2 1413/2/2 1406/4/2 1274/3/2
f 1281/3/1 1274/1/1 1406/2/1 1413/4/1
f 1282/1/2 1414/2/2 1407/4/2 1275/3/2
f 1282/3/1 1275/1/1 1407/2/1 1414/4/1
f 1415/1/2 1418/2/2 1417/4/2 1416/3/2
f 1287/3/1 1280/1/1 1412/2/1 1419/4/1
f 1288/1/2 1420/2/2 1413/4/2 1281/3/2
f 1288/3/1 1281/1/1 1413/2/1 1420/4/1
f 1289/1/2 1421/2/2 1414/4/2 1282/3/2
f 1289/3/1 1282/1/1 1414/2/1 1421/4/1
f 1422/1/2 1425/2/2 1424/4/2 1423/3/2
f 1294/3/1 1287/1/1 1419/2/1 1426/4/1
f 1295/1/2 1427/2/2 1420/4/2 1288/3/2
f 1295/3/1 1288/1/1 1420/2/1 1427/4/1
f 1296/1/2 1428/2/2 1421/4/2 1289/3/2
f 1296/3/1 1289/1/1 1421/2/1 1428/4/1
f 1429/1/2 1432/2/2 1431/4/2 1430/3/2
f 1301/3/1 1294/1/1 1426/2/1 1433/4/1
f 1302/1/2 1434/2/2 1427/4/2 1295/3/2
f 1302/3/1 1295/1/1 1427/2/1 1434/4/1
f 1303/1/2 1435/2/2 1428/4/2 1296/3/2
f 1303/3/1 1296/1/1 1428/2/1 1435/4/1
f 1436/1/2 1439/2/2 1438/4/2 1437/3/2
f 1308/3/1 1301/1/1 1433/2/1 1440/4/1
f 1309/1/2 1441/2/2 1434/4/2 1302/3/2
f 1309/3/1 1302/1/1 1434/2/1 1441/4/1
f 1310/1/2 1442/2/2 1435/4/2 1303/3/2
f 1310/3/1 1303/1/1 1435/2/1 1442/4/1
f 1443/1/2 1446/2/2 1445/4/2 1444/3/2
f 1315/3/1 1309/1/1 1441/2/1 1448/4/1
f 1316/1/2 1449/2/2 1442/4/2 1310/3/2
f 1316/3/1 1310/1/1 1442/2/1 1449/4/1
f 1450/1/2 1453/2/2 1452/4/2 1451/3/2
f 1321/3/1 1316/1/1 1449/2/1 1456/4/1
f 1457/1/2 1460/2/2 1459/4/2 1458/3/2
f 1323/3/1 1321/1/1 1456/2/1 1465/4/1
f 1463/1/2 1467/2/2 1466/4/2 1464/3/2
f 1324/3/1 1322/1/1 1462/2/1 1468/4/1
f 1325/1/2 1469/2/2 1465/4/2 1323/3/2
f 1325/3/1 1323/1/1 1465/2/1 1469/4/1
f 1470/1/2 1473/2/2 1472/4/2 1471/3/2
f 1330/3/1 1324/1/1 1468/2/1 1474/4/1
f 1331/1/2 1475/2/2 1469/4/2 1325/3/2
f 1331/3/1 1325/1/1 1469/2/1 1475/4/1
f 1476/1/2 1479/2/2 1478/4/2 1477/3/2
f 1332/3/1 1330/1/1 1474/2/1 1480/4/1
f 1333/1/2 1481/2/2 1475/4/2 1331/3/2
f 1333/3/1 1331/1/1 1475/2/1 1481/4/1
f 1482/1/2 1485/2/2 1484/4/2 1483/3/2
f 1338/3/1 1333/1/1 1481/2/1 1487/4/1
f 1488/1/2 1491/2/2 1490/4/2 1489/3/2
f 1339/3/1 1338/1/1 1487/2/1 1493/4/1
f 1494/1/2 1497/2/2 1496/4/2 1495/3/2
f 1344/3/1 1339/1/1 1493/2/1 1499/4/1
f 1500/1/2 1503/2/2 1502/4/2 1501/3/2
f 1349/3/1 1344/1/1 1499/2/1 1504/4/1
f 1505/1/2 1508/2/2 1507/4/2 1506/3/2
f 1350/3/1 1349/1/1 1504/2/1 1509/4/1
f 1510/1/2 1513/2/2 1512/4/2 1511/3/2
f 1356/3/1 1350/1/1 1509/2/1 1515/4/1
f 1516/1/2 1519/2/2 1518/4/2 1517/3/2
f 1357/3/1 1355/1/1 1514/2/1 1520/4/1
f 1358/1/2 1521/2/2 1515/4/2 1356/3/2
f 1358/3/1 1356/1/1 1515/2/1 1521/4/1
f 1522/1/2 1525/2/2 1524/4/2 1523/3/2
f 1359/3/1 1358/1/1 1521/2/1 1526/4/1
f 1527/1/2 1530/2/2 1529/4/2 1528/3/2
f 1360/3/1 1361/1/1 1533/2/1 1532/4/1
f 1363/1/2 1535/2/2 1534/4/2 1362/3/2
f 1363/3/1 1362/1/1 1534/2/1 1535/4/1
f 1365/1/2 1537/2/2 1536/4/2 1364/3/2
f 1365/3/1 1364/1/1 1536/2/1 1537/4/1
f 1538/1/2 1541/2/2 1540/4/2 1539/3/2
f 1370/3/1 1360/1/1 1532/2/1 1542/4/1
f 1371/1/2 1543/2/2 1535/4/2 1363/3/2
f 1371/3/1 1363/1/1 1535/2/1 1543/4/1
f 1372/1/2 1544/2/2 1537/4/2 1365/3/2
f 1372/3/1 1365/1/1 1537/2/1 1544/4/1
f 1545/1/2 1548/2/2 1547/4/2 1546/3/2
f 1377/3/1 1370/1/1 1542/2/1 1549/4/1
f 1378/1/2 1550/2/2 1543/4/2 1371/3/2
f 1378/3/1 1371/1/1 1543/2/1 1550/4/1
f 1379/1/2 1551/2/2 1544/4/2 1372/3/2
f 1379/3/1 1372/1/1 1544/2/1 1551/4/1
f 1552/1/2 1555/2/2 1554/4/2 1553/3/2
f 1384/3/1 1377/1/1 1549/2/1 1556/4/1
f 1385/1/2 1557/2/2 1550/4/2 1378/3/2
f 1385/3/1 1378/1/1 1550/2/1 1557/4/1
f 1386/1/2 1558/2/2 1551/4/2 1379/3/2
f 1386/3/1 1379/1/1 1551/2/1 1558/4/1
f 1559/1/2 1562/2/2 1561/4/2 1560/3/2
f 1391/3/1 1384/1/1 1556/2/1 1563/4/1
f 1392/1/2 1564/2/2 1557/4/2 1385/3/2
f 1392/3/1 1385/1/1 1557/2/1 1564/4/1
f 1393/1/2 1565/2/2 1558/4/2 1386/3/2
f 1393/3/1 1386/1/1 1558/2/1 1565/4/1
f 1566/1/2 1569/2/2 1568/4/2 1567/3/2
f 1398/3/1 1391/1/1 1563/2/1 1570/4/1
f 1399/1/2 1571/2/2 1564/4/2 1392/3/2
f 1399/3/1 1392/1/1 1564/2/1 1571/4/1
f 1400/1/2 1572/2/2 1565/4/2 1393/3/2
f 1400/3/1 1393/1/1 1565/2/1 1572/4/1
f 1573/1/2 1576/2/2 1575/4/2 1574/3/2
f 1405/3/1 1398/1/1 1570/2/1 1577/4/1
f 1406/1/2 1578/2/2 1571/4/2 1399/3/2
f 1406/3/1 1399/1/1 1571/2/1 1578/4/1
f 1407/1/2 1579/2/2 1572/4/2 1400/3/2
f 1407/3/1 1400/1/1 1572/2/1 1579/4/1
f 1580/1/2 1583/2/2 1582/4/2 1581/3/2
f 1412/3/1 1405/1/1 1577/2/1 1584/4/1
f 1413/1/2 1585/2/2 1578/4/2 1406/3/2
f 1413/3/1 1406/1/1 1578/2/1 1585/4/1
f 1414/1/2 1586/2/2 1579/4/2 1407/3/2
f 1414/3/1 1407/1/1 1579/2/1 1586/4/1
f 1587/1/2 1590/2/2 1589/4/2 1588/3/2
f 1419/3/1 1412/1/1 1584/2/1 1591/4/1
f 1420/1/2 1592/2/2 1585/4/2 1413/3/2
f 1420/3/1 1413/1/1 1585/2/1 1592/4/1
f 1421/1/2 1593/2/2 1586/4/2 1414/3/2
f 1421/3/1 1414/1/1 1586/2/1 1593/4/1
f 1594/1/2 1597/2/2 1596/4/2 1595/3/2
f 1426/3/1 1419/1/1 1591/2/1 1598/4/1
f 1427/1/2 1599/2/2 1592/4/2 1420/3/2
f 1427/3/1 1420/1/1 1592/2/1 1599/4/1
f 1428/1/2 1600/2/2 1593/4/2 1421/3/2
f 1428/3/1 1421/1/1 1593/2/1 1600/4/1
f 1601/1/2 1604/2/2 1603/4/2 1602/3/2
f 1433/3/1 1426/1/1 1598/2/1 1605/4/1
f 1434/1/2 1606/2/2 1599/4/2 1427/3/2
f 1434/3/1 1427/1/1 1599/2/1 1606/4/1
f 1435/1/2 1607/2/2 1600/4/2 1428/3/2
f 1435/3/1 1428/1/1 1600/2/1 1607/4/1
f 1608/1/2 1611/2/2 1610/4/2 1609/3/2
f 1440/3/1 1433/1/1 1605/2/1 1612/4/1
f 1441/1/2 1613/2/2 1606/4/2 1434/3/2
f 1441/3/1 1434/1/1 1606/2/1 1613/4/1
f 1442/1/2 1614/2/2 1607/4/2 1435/3/2
f 1442/3/1 1435/1/1 1607/2/1 1614/4/1
f 1615/1/2 1618/2/2 1617/4/2 1616/3/2
f 1447/3/1 1440/1/1 1612/2/1 1619/4/1
f 1448/1/2 1620/2/2 1613/4/2 1441/3/2
f 1448/3/1 1441/1/1 1613/2/1 1620/4/1
f 1449/1/2 1621/2/2 1614/4/2 1442/3/2
f 1449/3/1 1442/1/1 1614/2/1 1621/4/1
f 1622/1/2 1625/2/2 1624/4/2 1623/3/2
f 1454/3/1 1447/1/1 1619/2/1 1626/4/1
f 1455/1/2 1627/2/2 1620/4/2 1448/3/2
f 1455/3/1 1448/1/1 1620/2/1 1627/4/1
f 1456/1/2 1628/2/2 1621/4/2 1449/3/2
f 1456/3/1 1449/1/1 1621/2/1 1628/4/1
f 1629/1/2 1632/2/2 1631/4/2 1630/3/2
f 1461/3/1 1454/1/1 1626/2/1 1633/4/1
f 1462/1/2 1634/2/2 1627/4/2 1455/3/2
f 1462/3/1 1455/1/1 1627/2/1 1634/4/1
f 1465/1/2 1635/2/2 1628/4/2 1456/3/2
f 1465/3/1 1456/1/1 1628/2/1 1635/4/1
f 1636/1/2 1639/2/2 1638/4/2 1637/3/2
f 1469/3/1 1465/1/1 1635/2/1 1641/4/1
f 1642/1/2 1645/2/2 1644/4/2 1643/3/2
f 1474/3/1 1468/1/1 1640/2/1 1647/4/1
f 1475/1/2 1648/2/2 1641/4/2 1469/3/2
f 1475/3/1 1469/1/1 1641/2/1 1648/4/1
f 1649/1/2 1652/2/2 1651/4/2 1650/3/2
f 1481/3/1 1475/1/1 1648/2/1 1654/4/1
f 1655/1/2 1658/2/2 1657/4/2 1656/3/2
f 1486/3/1 1480/1/1 1653/2/1 1659/4/1
f 1487/1/2 1660/2/2 1654/4/2 1481/3/2
f 1487/3/1 1481/1/1 1654/2/1 1660/4/1
f 1661/1/2 1664/2/2 1663/4/2 1662/3/2
f 1492/3/1 1486/1/1 1659/2/1 1665/4/1
f 1493/1/2 1666/2/2 1660/4/2 1487/3/2
f 1493/3/1 1487/1/1 1660/2/1 1666/4/1
f 1667/1/2 1670/2/2 1669/4/2 1668/3/2
f 1498/3/1 1492/1/1 1665/2/1 1671/4/1
f 1499/1/2 1672/2/2 1666/4/2 1493/3/2
f 1499/3/1 1493/1/1 1666/2/1 1672/4/1
f 1673/1/2 1676/2/2 1675/4/2 1674/3/2
f 1515/3/1 1509/1/1 1678/2/1 1679/4/1
f 1680/1/2 1683/2/2 1682/4/2 1681/3/2
f 1521/3/1 1515/1/1 1679/2/1 1684/4/1
f 1685/1/2 1688/2/2 1687/4/2 1686/3/2
f 1526/3/1 1521/1/1 1684/2/1 1689/4/1
f 1690/1/2 1693/2/2 1692/4/2 1691/3/2
f 1531/3/1 1526/1/1 1689/2/1 1694/4/1
f 1695/1/2 1698/2/2 1697/4/2 1696/3/2
f 1532/3/1 1533/1/1 1700/2/1 1699/4/1
f 1535/1/2 1702/2/2 1701/4/2 1534/3/2
f 1535/3/1 1534/1/1 1701/2/1 1702/4/1
f 1537/1/2 1704/2/2 1703/4/2 1536/3/2
f 1537/3/1 1536/1/1 1703/2/1 1704/4/1
f 1705/1/2 1708/2/2 1707/4/2 1706/3/2
f 1542/3/1 1532/1/1 1699/2/1 1709/4/1
f 1543/1/2 1710/2/2 1702/4/2 1535/3/2
f 1543/3/1 1535/1/1 1702/2/1 1710/4/1
f 1544/1/2 1711/2/2 1704/4/2 1537/3/2
f 1544/3/1 1537/1/1 1704/2/1 1711/4/1
f 1712/1/2 1715/2/2 1714/4/2 1713/3/2
f 1549/3/1 1542/1/1 1709/2/1 1716/4/1
f 1550/1/2 1717/2/2 1710/4/2 1543/3/2
f 1550/3/1 1543/1/1 1710/2/1 1717/4/1
f 1551/1/2 1718/2/2 1711/4/2 1544/3/2
f 1551/3/1 1544/1/1 1711/2/1 1718/4/1
f 1719/1/2 1722/2/2 1721/4/2 1720/3/2
f 1556/3/1 1549/1/1 1716/2/1 1723/4/1
f 1557/1/2 1724/2/2 1717/4/2 1550/3/2
f 1557/3/1 1550/1/1 1717/2/1 1724/4/1
f 1558/1/2 1725/2/2 1718/4/2 1551/3/2
f 1558/3/1 1551/1/1 1718/2/1 1725/4/1
f 1726/1/2 1729/2/2 1728/4/2 1727/3/2
f 1563/3/1 1556/1/1 1723/2/1 1730/4/1
f 1564/1/2 1731/2/2 1724/4/2 1557/3/2
f 1564/3/1 1557/1/1 1724/2/1 1731/4/1
f 1565/1/2 1732/2/2 1725/4/2 1558/3/2
f 1565/3/1 1558/1/1 1725/2/1 1732/4/1
f 1733/1/2 1736/2/2 1735/4/2 1734/3/2
f 1570/3/1 1563/1/1 1730/2/1 1737/4/1
f 1571/1/2 1738/2/2 1731/4/2 1564/3/2
f 1571/3/1 1564/1/1 1731/2/1 1738/4/1
f 1572/1/2 1739/2/2 1732/4/2 1565/3/2
f 1572/3/1 1565/1/1 1732/2/1 1739/4/1
f 1740/1/2 1743/2/2 1742/4/2 1741/3/2
f 1577/3/1 1570/1/1 1737/2/1 1744/4/1
f 1578/1/2 1745/2/2 1738/4/2 1571/3/2
f 1578/3/1 1571/1/1 1738/2/1 1745/4/1
f 1579/1/2 1746/2/2 1739/4/2 1572/3/2
f 1579/3/1 1572/1/1 1739/2/1 1746/4/1
f 1747/1/2 1750/2/2 1749/4/2 1748/3/2
f 1584/3/1 1577/1/1 1744/2/1 1751/4/1
f 1585/1/2 1752/2/2 1745/4/2 1578/3/2
f 1585/3/1 1578/1/1 1745/2/1 1752/4/1
f 1586/1/2 1753/2/2 1746/4/2 1579/3/2
f 1586/3/1 1579/1/1 1746/2/1 1753/4/1
f 1754/1/2 1757/2/2 1756/4/2 1755/3/2
f 1591/3/1 1584/1/1 1751/2/1 1758/4/1
f 1592/1/2 1759/2/2 1752/4/2 1585/3/2
f 1592/3/1 1585/1/1 1752/2/1 1759/4/1
f 1593/1/2 1760/2/2 1753/4/2 1586/3/2
f 1593/3/1 1586/1/1 1753/2/1 1760/4/1
f 1761/1/2 1764/2/2 1763/4/2 1762/3/2
f 1598/3/1 1591/1/1 1758/2/1 1765/4/1
f 1599/1/2 1766/2/2 1759/4/2 1592/3/2
f 1599/3/1 1592/1/1 1759/2/1 1766/4/1
f 1600/1/2 1767/2/2 1760/4/2 1593/3/2
f 1600/3/1 1593/1/1 1760/2/1 1767/4/1
f 1768/1/2 1771/2/2 1770/4/2 1769/3/2
f 1605/3/1 1598/1/1 1765/2/1 1772/4/1
f 1606/1/2 1773/2/2 1766/4/2 1599/3/2
f 1606/3/1 1599/1/1 1766/2/1 1773/4/1
f 1607/1/2 1774/2/2 1767/4/2 1600/3/2
f 1607/3/1 1600/1/1 1767/2/1 1774/4/1
f 1775/1/2 1778/2/2 1777/4/2 1776/3/2
f 1612/3/1 1605/1/1 1772/2/1 1779/4/1
f 1613/1/2 1780/2/2 1773/4/2 1606/3/2
f 1613/3/1 1606/1/1 1773/2/1 1780/4/1
f 1614/1/2 1781/2/2 1774/4/2 1607/3/2
f 1614/3/1 1607/1/1 1774/2/1 1781/4/1
f 1782/1/2 1785/2/2 1784/4/2 1783/3/2
f 1619/3/1 1612/1/1 1779/2/1 1786/4/1
f 1620/1/2 1787/2/2 1780/4/2 1613/3/2
f 1620/3/1 1613/1/1 1780/2/1 1787/4/1
f 1621/1/2 1788/2/2 1781/4/2 1614/3/2
f 1621/3/1 1614/1/1 1781/2/1 1788/4/1
f 1789/1/2 1792/2/2 1791/4/2 1790/3/2
f 1626/3/1 1619/1/1 1786/2/1 1793/4/1
f 1627/1/2 1794/2/2 1787/4/2 1620/3/2
f 1627/3/1 1620/1/1 1787/2/1 1794/4/1
f 1628/1/2 1795/2/2 1788/4/2 1621/3/2
f 1628/3/1 1621/1/1 1788/2/1 1795/4/1
f 1796/1/2 1799/2/2 1798/4/2 1797/3/2
f 1634/3/1 1627/1/1 1794/2/1 1800/4/1
f 1635/1/2 1801/2/2 1795/4/2 1628/3/2
f 1635/3/1 1628/1/1 1795/2/1 1801/4/1
f 1802/1/2 1805/2/2 1804/4/2 1803/3/2
f 1646/3/1 1633/1/1 1807/2/1 1806/4/1
f 1640/1/2 1808/2/2 1800/4/2 1634/3/2
f 1640/3/1 1634/1/1 1800/2/1 1808/4/1
f 1641/1/2 1809/2/2 1801/4/2 1635/3/2
f 1641/3/1 1635/1/1 1801/2/1 1809/4/1
f 1810/1/2 1813/2/2 1812/4/2 1811/3/2
f 1647/3/1 1640/1/1 1808/2/1 1815/4/1
f 1648/1/2 1816/2/2 1809/4/2 1641/3/2
f 1648/3/1 1641/1/1 1809/2/1 1816/4/1
f 1817/1/2 1820/2/2 1819/4/2 1818/3/2
f 1653/3/1 1647/1/1 1815/2/1 1821/4/1
f 1654/1/2 1822/2/2 1816/4/2 1648/3/2
f 1654/3/1 1648/1/1 1816/2/1 1822/4/1
f 1823/1/2 1826/2/2 1825/4/2 1824/3/2
f 1659/3/1 1653/1/1 1821/2/1 1827/4/1
f 1660/1/2 1828/2/2 1822/4/2 1654/3/2
f 1660/3/1 1654/1/1 1822/2/1 1828/4/1
f 1829/1/2 1832/2/2 1831/4/2 1830/3/2
f 1665/3/1 1659/1/1 1827/2/1 1833/4/1
f 1666/1/2 1834/2/2 1828/4/2 1660/3/2
f 1666/3/1 1660/1/1 1828/2/1 1834/4/1
f 1835/1/2 1838/2/2 1837/4/2 1836/3/2
f 1671/3/1 1665/1/1 1833/2/1 1839/4/1
f 1672/1/2 1840/2/2 1834/4/2 1666/3/2
f 1672/3/1 1666/1/1 1834/2/1 1840/4/1
f 1841/1/2 1844/2/2 1843/4/2 1842/3/2
f 1677/3/1 1672/1/1 1840/2/1 1846/4/1
f 1847/1/2 1850/2/2 1849/4/2 1848/3/2
f 1678/3/1 1677/1/1 1846/2/1 1852/4/1
f 1853/1/2 1856/2/2 1855/4/2 1854/3/2
f 1684/3/1 1679/1/1 1857/2/1 1858/4/1
f 1859/1/2 1862/2/2 1861/4/2 1860/3/2
f 1689/3/1 1684/1/1 1858/2/1 1863/4/1
f 1864/1/2 1867/2/2 1866/4/2 1865/3/2
f 1699/3/1 1700/1/1 1869/2/1 1868/4/1
f 1702/1/2 1871/2/2 1870/4/2 1701/3/2
f 1702/3/1 1701/1/1 1870/2/1 1871/4/1
f 1704/1/2 1873/2/2 1872/4/2 1703/3/2
f 1704/3/1 1703/1/1 1872/2/1 1873/4/1
f 1874/1/2 1877/2/2 1876/4/2 1875/3/2
f 1709/3/1 1699/1/1 1868/2/1 1878/4/1
f 1710/1/2 1879/2/2 1871/4/2 1702/3/2
f 1710/3/1 1702/1/1 1871/2/1 1879/4/1
f 1711/1/2 1880/2/2 1873/4/2 1704/3/2
f 1711/3/1 1704/1/1 1873/2/1 1880/4/1
f 1881/1/2 1884/2/2 1883/4/2 1882/3/2
f 1716/3/1 1709/1/1 1878/2/1 1885/4/1
f 1717/1/2 1886/2/2 1879/4/2 1710/3/2
f 1717/3/1 1710/1/1 1879/2/1 1886/4/1
f 1718/1/2 1887/2/2 1880/4/2 1711/3/2
f 1718/3/1 1711/1/1 1880/2/1 1887/4/1
f 1888/1/2 1891/2/2 1890/4/2 1889/3/2
f 1723/3/1 1716/1/1 1885/2/1 1892/4/1
f 1724/1/2 1893/2/2 1886/4/2 1717/3/2
f 1724/3/1 1717/1/1 1886/2/1 1893/4/1
f 1725/1/2 1894/2/2 1887/4/2 1718/3/2
f 1725/3/1 1718/1/1 1887/2/1 1894/4/1
f 1895/1/2 1898/2/2 1897/4/2 1896/3/2
f 1730/3/1 1723/1/1 1892/2/1 1899/4/1
f 1731/1/2 1900/2/2 1893/4/2 1724/3/2
f 1731/3/1 1724/1/1 1893/2/1 1900/4/1
f 1732/1/2 1901/2/2 1894/4/2 1725/3/2
f 1732/3/1 1725/1/1 1894/2/1 1901/4/1
f 1902/1/2 1905/2/2 1904/4/2 1903/3/2
f 1737/3/1 1730/1/1 1899/2/1 1906/4/1
f 1738/1/2 1907/2/2 1900/4/2 1731/3/2
f 1738/3/1 1731/1/1 1900/2/1 1907/4/1
f 1739/1/2 1908/2/2 1901/4/2 1732/3/2
f 1739/3/1 1732/1/1 1901/2/1 1908/4/1
f 1909/1/2 1912/2/2 1911/4/2 1910/3/2
f 1744/3/1 1737/1/1 1906/2/1 1913/4/1
f 1745/1/2 1914/2/2 1907/4/2 1738/3/2
f 1745/3/1 1738/1/1 1907/2/1 1914/4/1
f 1746/1/2 1915/2/2 1908/4/2 1739/3/2
f 1746/3/1 1739/1/1 1908/2/1 1915/4/1
f 1916/1/2 1919/2/2 1918/4/2 1917/3/2
f 1751/3/1 1744/1/1 1913/2/1 1920/4/1
f 1752/1/2 1921/2/2 1914/4/2 1745/3/2
f 1752/3/1 1745/1/1 1914/2/1 1921/4/1
f 1753/1/2 1922/2/2 1915/4/2 1746/3/2
f 1753/3/1 1746/1/1 1915/2/1 1922/4/1
f 1923/1/2 1926/2/2 1925/4/2 1924/3/2
f 1758/3/1 1751/1/1 1920/2/1 1927/4/1
f 1759/1/2 1928/2/2 1921/4/2 1752/3/2
f 1759/3/1 1752/1/1 1921/2/1 1928/4/1
f 1760/1/2 1929/2/2 1922/4/2 1753/3/2
f 1760/3/1 1753/1/1 1922/2/1 1929/4/1
f 1930/1/2 1933/2/2 1932/4/2 1931/3/2
f 1765/3/1 1758/1/1 1927/2/1 1934/4/1
f 1766/1/2 1935/2/2 1928/4/2 1759/3/2
f 1766/3/1 1759/1/1 1928/2/1 1935/4/1
f 1767/1/2 1936/2/2 1929/4/2 1760/3/2
f 1767/3/1 1760/1/1 1929/2/1 1936/4/1
f 1937/1/2 1940/2/2 1939/4/2 1938/3/2
f 1772/3/1 1765/1/1 1934/2/1 1941/4/1
f 1773/1/2 1942/2/2 1935/4/2 1766/3/2
f 1773/3/1 1766/1/1 1935/2/1 1942/4/1
f 1774/1/2 1943/2/2 1936/4/2 1767/3/2
f 1774/3/1 1767/1/1 1936/2/1 1943/4/1
f 1944/1/2 1947/2/2 1946/4/2 1945/3/2
f 1779/3/1 1772/1/1 1941/2/1 1948/4/1
f 1780/1/2 1949/2/2 1942/4/2 1773/3/2
f 1780/3/1 1773/1/1 1942/2/1 1949/4/1
f 1781/1/2 1950/2/2 1943/4/2 1774/3/2
f 1781/3/1 1774/1/1 1943/2/1 1950/4/1
f 1951/1/2 1954/2/2 1953/4/2 1952/3/2
f 1786/3/1 1779/1/1 1948/2/1 1955/4/1
f 1787/1/2 1956/2/2 1949/4/2 1780/3/2
f 1787/3/1 1780/1/1 1949/2/1 1956/4/1
f 1788/1/2 1957/2/2 1950/4/2 1781/3/2
f 1788/3/1 1781/1/1 1950/2/1 1957/4/1
f 1958/1/2 1961/2/2 1960/4/2 1959/3/2
f 1793/3/1 1786/1/1 1955/2/1 1962/4/1
f 1794/1/2 1963/2/2 1956/4/2 1787/3/2
f 1794/3/1 1787/1/1 1956/2/1 1963/4/1
f 1795/1/2 1964/2/2 1957/4/2 1788/3/2
f 1795/3/1 1788/1/1 1957/2/1 1964/4/1
f 1965/1/2 1968/2/2 1967/4/2 1966/3/2
f 1807/3/1 1793/1/1 1962/2/1 1969/4/1
f 1800/1/2 1970/2/2 1963/4/2 1794/3/2
f 1800/3/1 1794/1/1 1963/2/1 1970/4/1
f 1801/1/2 1971/2/2 1964/4/2 1795/3/2
f 1801/3/1 1795/1/1 1964/2/1 1971/4/1
f 1972/1/2 1975/2/2 1974/4/2 1973/3/2
f 1806/3/1 1807/1/1 1969/2/1 1976/4/1
f 1808/1/2 1977/2/2 1970/4/2 1800/3/2
f 1808/3/1 1800/1/1 1970/2/1 1977/4/1
f 1809/1/2 1978/2/2 1971/4/2 1801/3/2
f 1809/3/1 1801/1/1 1971/2/1 1978/4/1
f 1979/1/2 1982/2/2 1981/4/2 1980/3/2
f 1814/3/1 1806/1/1 1976/2/1 1983/4/1
f 1815/1/2 1984/2/2 1977/4/2 1808/3/2
f 1815/3/1 1808/1/1 1977/2/1 1984/4/1
f 1816/1/2 1985/2/2 1978/4/2 1809/3/2
f 1816/3/1 1809/1/1 1978/2/1 1985/4/1
f 1986/1/2 1989/2/2 1988/4/2 1987/3/2
f 1821/3/1 1815/1/1 1984/2/1 1990/4/1
f 1822/1/2 1991/2/2 1985/4/2 1816/3/2
f 1822/3/1 1816/1/1 1985/2/1 1991/4/1
f 1992/1/2 1995/2/2 1994/4/2 1993/3/2
f 1827/3/1 1821/1/1 1990/2/1 1996/4/1
f 1828/1/2 1997/2/2 1991/4/2 1822/3/2
f 1828/3/1 1822/1/1 1991/2/1 1997/4/1
f 1998/1/2 2001/2/2 2000/4/2 1999/3/2
f 1833/3/1 1827/1/1 1996/2/1 2002/4/1
f 1834/1/2 2003/2/2 1997/4/2 1828/3/2
f 1834/3/1 1828/1/1 1997/2/1 2003/4/1
f 2004/1/2 2007/2/2 2006/4/2 2005/3/2
f 1839/3/1 1833/1/1 2002/2/1 2008/4/1
f 1840/1/2 2009/2/2 2003/4/2 1834/3/2
f 1840/3/1 1834/1/1 2003/2/1 2009/4/1
f 2010/1/2 2013/2/2 2012/4/2 2011/3/2
f 1846/3/1 1840/1/1 2009/2/1 2017/4/1
f 2015/1/2 2019/2/2 2018/4/2 2016/3/2
f 1851/3/1 1845/1/1 2014/2/1 2020/4/1
f 1852/1/2 2021/2/2 2017/4/2 1846/3/2
f 1852/3/1 1846/1/1 2017/2/1 2021/4/1
f 2022/1/2 2025/2/2 2024/4/2 2023/3/2
f 1857/3/1 1852/1/1 2021/2/1 2026/4/1
f 2027/1/2 2030/2/2 2029/4/2 2028/3/2
f 1858/3/1 1857/1/1 2026/2/1 2031/4/1
f 2032/1/2 2035/2/2 2034/4/2 2033/3/2
