mtllib lighthouse.mtl
usemtl red_wool
v 2 10 9
v 2 10 8
v 3 10 8
v 3 10 9
v 2 11 9
v 2 11 8
v 3 11 8
v 3 11 9
v 2 12 9
v 2 12 8
v 3 12 8
v 3 12 9
vt 0.000000000 0.000000000
vt 1.000000000 0.000000000
vt 0.000000000 1.000000000
vt 1.000000000 1.000000000
vn -1 0 0
vn 0 -1 0
vn 0 0 -1
vn 1 0 0
vn 0 1 0
vn 0 0 1
f 1/2/1 5/4/1 6/3/1 2/1/1
f 1/3/2 2/1/2 3/2/2 4/4/2
f 2/2/3 6/4/3 7/3/3 3/1/3
f 4/1/4 3/2/4 7/4/4 8/3/4
f 5/1/5 8/2/5 7/4/5 6/3/5
f 1/1/6 4/2/6 8/4/6 5/3/6
f 5/2/1 9/4/1 10/3/1 6/1/1
f 5/3/2 6/1/2 7/2/2 8/4/2
f 6/2/3 10/4/3 11/3/3 7/1/3
f 8/1/4 7/2/4 11/4/4 12/3/4
f 9/1/5 12/2/5 11/4/5 10/3/5
f 5/1/6 8/2/6 12/4/6 9/3/6
