mtllib lighthouse.mtl
usemtl ladder
v -2 0 -0.0625
v -3 0 -0.0625
v -3 1 -0.0625
v -2 1 -0.0625
v -2 1 -0.0625
v -3 1 -0.0625
v -3 2 -0.0625
v -2 2 -0.0625
v -2 2 -0.0625
v -3 2 -0.0625
v -3 3 -0.0625
v -2 3 -0.0625
v -2 3 -0.0625
v -3 3 -0.0625
v -3 4 -0.0625
v -2 4 -0.0625
v -2 4 -0.0625
v -3 4 -0.0625
v -3 5 -0.0625
v -2 5 -0.0625
v -2 5 -0.0625
v -3 5 -0.0625
v -3 6 -0.0625
v -2 6 -0.0625
v -2 6 -0.0625
v -3 6 -0.0625
v -3 7 -0.0625
v -2 7 -0.0625
v -2 7 -0.0625
v -3 7 -0.0625
v -3 8 -0.0625
v -2 8 -0.0625
v -2 8 -0.0625
v -3 8 -0.0625
v -3 9 -0.0625
v -2 9 -0.0625
v -2 9 -0.0625
v -3 9 -0.0625
v -3 10 -0.0625
v -2 10 -0.0625
v 3 10 2.0625
v 4 10 2.0625
v 4 11 2.0625
v 3 11 2.0625
v 3 11 2.0625
v 4 11 2.0625
v 4 12 2.0625
v 3 12 2.0625
vt 0.000000000 0.000000000
vt 1.000000000 0.000000000
vt 0.000000000 1.000000000
vt 1.000000000 1.000000000
vn 0 0 -1
vn 0 0 1
f 2/2/1 3/4/1 4/3/1 1/1/1
f 6/2/1 7/4/1 8/3/1 5/1/1
f 10/2/1 11/4/1 12/3/1 9/1/1
f 14/2/1 15/4/1 16/3/1 13/1/1
f 18/2/1 19/4/1 20/3/1 17/1/1
f 22/2/1 23/4/1 24/3/1 21/1/1
f 26/2/1 27/4/1 28/3/1 25/1/1
f 30/2/1 31/4/1 32/3/1 29/1/1
f 34/2/1 35/4/1 36/3/1 33/1/1
f 38/2/1 39/4/1 40/3/1 37/1/1
f 41/1/2 42/2/2 43/4/2 44/3/2
f 45/1/2 46/2/2 47/4/2 48/3/2
