mtllib lighthouse.mtl
usemtl bell_side
v 0.25 8.25 -1.75
v 0.25 8.25 -1.25
v 0.25 8.375 -1.75
v 0.25 8.375 -1.25
v 0.75 8.25 -1.75
v 0.75 8.25 -1.25
v 0.75 8.375 -1.75
v 0.75 8.375 -1.25
v 0.3125 8.375 -1.6875
v 0.3125 8.375 -1.3125
v 0.3125 8.8125 -1.6875
v 0.3125 8.8125 -1.3125
v 0.6875 8.375 -1.6875
v 0.6875 8.375 -1.3125
v 0.6875 8.8125 -1.6875
v 0.6875 8.8125 -1.3125
vt 0.000000000 0.437500000
vt 0.500000000 0.437500000
vt 0.000000000 0.562500000
vt 0.062500000 0.562500000
vt 0.437500000 0.562500000
vt 0.500000000 0.562500000
vt 0.062500000 1.000000000
vt 0.437500000 1.000000000
vn -1 0 0
vn 0 0 -1
vn 1 0 0
vn 0 0 1
f 3/6/1 1/2/1 2/1/1 4/3/1
f 7/6/2 5/2/2 1/1/2 3/3/2
f 7/6/3 8/3/3 6/1/3 5/2/3
f 8/6/4 4/3/4 2/1/4 6/2/4
f 11/8/1 9/5/1 10/4/1 12/7/1
f 15/8/2 13/5/2 9/4/2 11/7/2
f 15/8/3 16/7/3 14/4/3 13/5/3
f 16/8/4 12/7/4 10/4/4 14/5/4
