mtllib lighthouse.mtl
usemtl flower_pot
v 3.3125 11 4.3125
v 3.3125 11 4.6875
v 3.3125 11.375 4.3125
v 3.3125 11.375 4.6875
v 3.6875 11 4.3125
v 3.6875 11 4.6875
v 3.6875 11.375 4.3125
v 3.6875 11.375 4.6875
v 3.625 11.25 4.375
v 3.625 11.25 4.625
v 3.625 11.375 4.375
v 3.625 11.375 4.625
v 3.6875 11.375 4.375
v 3.6875 11.375 4.625
v 3.3125 11.375 4.375
v 3.3125 11.375 4.625
v 3.375 11.25 4.375
v 3.375 11.25 4.625
v 3.375 11.375 4.375
v 3.375 11.375 4.625
v 3.375 11.25 4.625
v 3.375 11.375 4.625
v 3.375 11.375 4.6875
v 3.625 11.25 4.625
v 3.625 11.375 4.625
v 3.625 11.375 4.6875
v 3.375 11.25 4.375
v 3.375 11.375 4.3125
v 3.375 11.375 4.375
v 3.625 11.25 4.375
v 3.625 11.375 4.3125
v 3.625 11.375 4.375
v 3.3125 11.375 4.3125
v 3.3125 11.375 4.375
v 3.375 11.375 4.3125
v 3.375 11.375 4.375
v 3.3125 11.375 4.625
v 3.3125 11.375 4.6875
v 3.375 11.375 4.625
v 3.375 11.375 4.6875
v 3.625 11.375 4.3125
v 3.625 11.375 4.375
v 3.6875 11.375 4.3125
v 3.6875 11.375 4.375
v 3.625 11.375 4.625
v 3.625 11.375 4.6875
v 3.6875 11.375 4.625
v 3.6875 11.375 4.6875
vt 0.312500000 0.000000000
vt 0.687500000 0.000000000
vt 0.375000000 0.250000000
vt 0.625000000 0.250000000
vt 0.312500000 0.312500000
vt 0.375000000 0.312500000
vt 0.625000000 0.312500000
vt 0.687500000 0.312500000
vt 0.312500000 0.375000000
vt 0.375000000 0.375000000
vt 0.625000000 0.375000000
vt 0.687500000 0.375000000
vt 0.312500000 0.625000000
vt 0.375000000 0.625000000
vt 0.625000000 0.625000000
vt 0.687500000 0.625000000
vt 0.312500000 0.687500000
vt 0.375000000 0.687500000
vt 0.625000000 0.687500000
vt 0.687500000 0.687500000
vn -1 0 0
vn 0 0 -1
vn 1 0 0
vn 0 1 0
vn 0 0 1
f 3/9/1 1/1/1 2/2/1 4/12/1
f 7/9/2 5/1/2 1/2/2 3/12/2
f 7/12/3 8/9/3 6/1/3 5/2/3
f 8/12/5 4/9/5 2/1/5 6/2/5
f 11/10/1 9/3/1 10/4/1 12/11/1
f 13/16/4 11/15/4 12/11/4 14/12/4
f 19/11/3 20/10/3 18/3/3 17/4/3
f 19/14/4 15/13/4 16/9/4 20/10/4
f 25/10/2 24/3/2 21/4/2 22/11/2
f 25/11/4 22/10/4 23/6/4 26/7/4
f 31/19/4 28/18/4 29/14/4 32/15/4
f 32/11/5 29/10/5 27/3/5 30/4/5
f 35/18/4 33/17/4 34/13/4 36/14/4
f 39/10/4 37/9/4 38/5/4 40/6/4
f 43/20/4 41/19/4 42/15/4 44/16/4
f 47/12/4 45/11/4 46/7/4 48/8/4
