mtllib lighthouse.mtl
usemtl mangrove_leaves
v -11 4 -15
v -11 4 -14
v -11 5 -13
v -11 6 -13
v -10 4 -15
v -10 4 -14
v -11 5 -14
v -11 5 -15
v -10 5 -15
v -10 5 -14
v -10 5 -13
v -11 6 -14
v -10 6 -14
v -10 6 -13
v -9 4 -8
v -9 5 -8
v -9 4 -7
v -9 5 -7
v -8 4 -9
v -8 4 -8
v -8 4 -7
v -8 5 -8
v -8 5 -7
v -7 4 -9
v -7 4 -8
v -8 5 -9
v -7 5 -9
v -7 5 -8
v -7 4 -6
v -7 4 -5
v -7 5 -6
v -7 5 -5
v -6 4 -6
v -6 4 -5
v -6 5 -6
v -6 5 -5
v -6 5 -4
v -6 6 -4
v -6 6 -3
v -6 7 -3
v -6 8 0
v -6 8 1
v -6 9 2
v -5 5 -5
v -5 5 -4
v -6 6 -5
v -5 6 -5
v -5 6 -4
v -5 6 -3
v -6 7 -4
v -5 7 -4
v -5 7 -3
v -5 8 -2
v -5 8 0
v -5 8 1
v -6 9 1
v -6 9 0
v -5 9 0
v -5 9 1
v -5 9 2
v -6 10 2
v -6 10 1
v -5 10 1
v -5 10 2
v -4 2 -8
v -4 2 -7
v -5 8 -3
v -4 8 -3
v -5 9 -3
v -4 9 -3
v -5 9 -2
v -4 8 -2
v -4 9 -2
v -5 9 -1
v -4 9 -1
v -5 10 -1
v -5 10 -2
v -4 10 -2
v -4 10 -1
v -3 2 -8
v -3 2 -7
v -4 2.88889 -7
v -4 2.88889 -8
v -3 2.88889 -8
v -3 2.88889 -7
v -1 2 -13
v -1 2 -12
v -1 2 -5
v -1 4 -5
v -1 2 -4
v -1 3 -4
v -1 3 -5
v -1 4 -4
v 0 1 -13
v 0 2 -13
v 0 1 -12
v 0 2 -12
v -1 2.88889 -12
v -1 2.88889 -13
v 0 2.88889 -13
v 0 2.88889 -12
v 0 2 -5
v 0 2 -4
v -1 2.88889 -4
v -1 2.88889 -5
v 0 2.88889 -5
v 0 2.88889 -4
v 0 3 -4
v 0 3 -5
v 0 4 -5
v 0 4 -4
v 1 0 -14
v 1 1 -14
v 1 0 -13
v 1 1 -13
v 1 2 -13
v 1 1 -12
v 1 2 -12
v 1 1 -11
v 1 2 -11
v 1 1 -10
v 1 2 -10
v 2 0 -14
v 2 1 -14
v 2 0 -13
v 2 1 -13
v 2 0 -12
v 2 1 -12
v 2 0 -11
v 2 1 -11
v 2 2 -11
v 2 1 -10
v 2 2 -10
v 3 1 -12
v 3 0 -11
v 3 0 -12
v 3 1 -11
v 3 0 -10
v 3 1 -10
v 3 1 -6
v 3 2 -6
v 3 1 -5
v 3 2 -5
v 3 2 -4
v 3 2 -3
v 4 0 -11
v 4 1 -11
v 4 0 -10
v 4 1 -10
v 4 1 -6
v 4 2 -6
v 4 1 -5
v 4 2 -5
v 4 2 -4
v 4 2 -3
v 3 2.88889 -3
v 3 2.88889 -4
v 4 2.88889 -4
v 4 2.88889 -3
v 4 9 12
v 4 9 13
v 4 9 14
v 5 0 -11
v 5 1 -11
v 5 0 -10
v 5 1 -10
v 5 2 -10
v 5 1 -9
v 5 2 -9
v 5 3 -2
v 5 3 -1
v 5 4 -2
v 5 4 -1
v 5 5 -2
v 5 5 -1
v 5 10 4
v 5 10 5
v 5 11 4
v 5 11 5
v 5 8 12
v 5 8 13
v 5 9 12
v 5 9 13
v 4 10 13
v 4 10 12
v 5 10 12
v 5 10 13
v 5 9 14
v 4 10 14
v 5 10 14
v 4 11 14
v 4 11 13
v 5 11 13
v 5 11 14
v 6 1 -10
v 6 2 -10
v 6 1 -9
v 6 2 -9
v 6 3 -1
v 6 3 -2
v 6 4 -2
v 6 4 -1
v 6 5 -2
v 6 5 -1
v 6 6 -2
v 6 6 -1
v 6 7 -1
v 6 6 0
v 6 7 0
v 6 9 0
v 6 10 0
v 6 8 1
v 6 9 1
v 6 10 1
v 6 7 2
v 6 8 2
v 6 9 2
v 6 10 2
v 6 11 2
v 6 7 3
v 6 8 3
v 6 9 3
v 6 10 3
v 6 11 3
v 6 12 3
v 6 10 4
v 6 11 4
v 6 12 4
v 6 10 5
v 6 11 5
v 6 7 10
v 6 8 10
v 6 7 11
v 6 8 11
v 6 8 12
v 6 8 13
v 6 9 12
v 6 9 13
v 7 5 -1
v 7 5 -2
v 7 6 -2
v 7 6 -1
v 7 6 0
v 7 7 -1
v 7 7 0
v 7 8 1
v 7 9 1
v 7 9 0
v 7 10 0
v 7 10 1
v 7 7 2
v 7 8 2
v 7 9 2
v 7 7 3
v 7 8 3
v 7 9 3
v 7 10 2
v 7 10 3
v 7 11 2
v 7 11 3
v 7 11 4
v 7 12 3
v 7 12 4
v 7 7 10
v 7 8 10
v 7 7 11
v 7 8 11
v 8 2 7
v 8 3 7
v 8 4 7
v 8 2 8
v 8 3 8
v 8 4 8
v 9 4 1
v 9 5 1
v 9 4 2
v 9 5 2
v 9 2 7
v 9 2 8
v 9 3 7
v 9 3 8
v 9 4 7
v 9 4 8
v 9 5 8
v 9 5 9
v 9 6 8
v 9 6 9
v 10 3 0
v 10 4 0
v 10 2 1
v 10 3 1
v 10 4 1
v 10 5 1
v 10 2 2
v 10 4 2
v 10 5 2
v 10 2 3
v 10 2 4
v 10 2 7
v 10 2 8
v 9 2.88889 8
v 9 2.88406 7
v 10 2.88889 7
v 10 2.88889 8
v 9 5 7
v 10 4 8
v 10 4 7
v 10 5 7
v 10 5 8
v 10 2 9
v 10 5 9
v 10 6 8
v 10 6 9
v 10 2 10
v 10 2 11
v 10 3 11
v 10 4 11
v 10 3 12
v 10 4 12
v 11 3 0
v 11 4 0
v 11 2 1
v 11 3 1
v 11 4 1
v 11 2 2
v 10 2.88889 2
v 10 2.88889 1
v 11 2.88889 1
v 11 2.88889 2
v 11 1 3
v 11 2 3
v 11 1 4
v 11 2 4
v 10 2.88889 4
v 10 2.88889 3
v 11 2.88889 3
v 11 2.88889 4
v 11 2 8
v 11 2 9
v 10 2.88889 9
v 10 2.88889 8
v 11 2.88889 8
v 11 2.88889 9
v 11 2 10
v 11 2 11
v 10 2.88889 11
v 10 2.88889 10
v 11 2.88889 10
v 11 2.88889 11
v 11 3 11
v 11 3 12
v 11 4 11
v 11 4 12
v 12 1 0
v 12 2 0
v 12 1 1
v 12 2 1
v 12 1 2
v 12 2 2
v 12 1 3
v 12 2 3
v 12 1 4
v 12 2 4
v 12 2 7
v 12 2 8
v 13 1 0
v 13 2 0
v 13 1 1
v 13 2 1
v 13 1 2
v 13 2 2
v 13 1 3
v 13 2 3
v 13 1 6
v 13 2 6
v 13 1 7
v 13 2 7
v 13 2 8
v 12 2.88889 8
v 12 2.88889 7
v 13 2.88889 7
v 13 2.88889 8
v 13 2 9
v 14 1 6
v 14 2 6
v 14 1 7
v 14 2 7
v 14 2 8
v 14 2 9
v 13 2.88889 9
v 13 2.88889 8
v 14 2.88889 8
v 14 2.88889 9
v 14 2 10
v 14 2 11
v 15 2 10
v 15 2 11
v 14 2.88889 11
v 14 2.88889 10
v 15 2.88889 10
v 15 2.88889 11
vt 0.000000000 0.000000000
vt 1.000000000 0.000000000
vt 0.000000000 1.000000000
vt 1.000000000 1.000000000
vn -1 0 0
vn 0 -1 0
vn 0 0 -1
vn 1 0 0
vn 0 1 0
vn 0 0 1
f 2/2/1 7/4/1 8/3/1 1/1/1
f 2/3/2 1/1/2 5/2/2 6/4/2
f 1/2/3 8/4/3 9/3/3 5/1/3
f 6/1/4 5/2/4 9/4/4 10/3/4
f 7/1/5 10/2/5 9/4/5 8/3/5
f 2/1/6 6/2/6 10/4/6 7/3/6
f 3/2/1 4/4/1 12/3/1 7/1/1
f 3/3/2 7/1/2 10/2/2 11/4/2
f 7/2/3 12/4/3 13/3/3 10/1/3
f 11/1/4 10/2/4 13/4/4 14/3/4
f 4/1/5 14/2/5 13/4/5 12/3/5
f 3/1/6 11/2/6 14/4/6 4/3/6
f 17/2/1 18/4/1 16/3/1 15/1/1
f 17/3/2 15/1/2 20/2/2 21/4/2
f 15/2/3 16/4/3 22/3/3 20/1/3
f 21/1/4 20/2/4 22/4/4 23/3/4
f 18/1/5 23/2/5 22/4/5 16/3/5
f 17/1/6 21/2/6 23/4/6 18/3/6
f 20/2/1 22/4/1 26/3/1 19/1/1
f 20/3/2 19/1/2 24/2/2 25/4/2
f 19/2/3 26/4/3 27/3/3 24/1/3
f 25/1/4 24/2/4 27/4/4 28/3/4
f 22/1/5 28/2/5 27/4/5 26/3/5
f 20/1/6 25/2/6 28/4/6 22/3/6
f 30/2/1 32/4/1 31/3/1 29/1/1
f 30/3/2 29/1/2 33/2/2 34/4/2
f 29/2/3 31/4/3 35/3/3 33/1/3
f 34/1/4 33/2/4 35/4/4 36/3/4
f 32/1/5 36/2/5 35/4/5 31/3/5
f 30/1/6 34/2/6 36/4/6 32/3/6
f 37/2/1 38/4/1 46/3/1 36/1/1
f 37/3/2 36/1/2 44/2/2 45/4/2
f 36/2/3 46/4/3 47/3/3 44/1/3
f 45/1/4 44/2/4 47/4/4 48/3/4
f 38/1/5 48/2/5 47/4/5 46/3/5
f 37/1/6 45/2/6 48/4/6 38/3/6
f 39/2/1 40/4/1 50/3/1 38/1/1
f 39/3/2 38/1/2 48/2/2 49/4/2
f 38/2/3 50/4/3 51/3/3 48/1/3
f 49/1/4 48/2/4 51/4/4 52/3/4
f 40/1/5 52/2/5 51/4/5 50/3/5
f 39/1/6 49/2/6 52/4/6 40/3/6
f 42/2/1 56/4/1 57/3/1 41/1/1
f 42/3/2 41/1/2 54/2/2 55/4/2
f 41/2/3 57/4/3 58/3/3 54/1/3
f 55/1/4 54/2/4 58/4/4 59/3/4
f 56/1/5 59/2/5 58/4/5 57/3/5
f 42/1/6 55/2/6 59/4/6 56/3/6
f 43/2/1 61/4/1 62/3/1 56/1/1
f 43/3/2 56/1/2 59/2/2 60/4/2
f 56/2/3 62/4/3 63/3/3 59/1/3
f 60/1/4 59/2/4 63/4/4 64/3/4
f 61/1/5 64/2/5 63/4/5 62/3/5
f 43/1/6 60/2/6 64/4/6 61/3/6
f 53/2/1 71/4/1 69/3/1 67/1/1
f 53/3/2 67/1/2 68/2/2 72/4/2
f 67/2/3 69/4/3 70/3/3 68/1/3
f 72/1/4 68/2/4 70/4/4 73/3/4
f 71/1/5 73/2/5 70/4/5 69/3/5
f 53/1/6 72/2/6 73/4/6 71/3/6
f 74/2/1 76/4/1 77/3/1 71/1/1
f 74/3/2 71/1/2 73/2/2 75/4/2
f 71/2/3 77/4/3 78/3/3 73/1/3
f 75/1/4 73/2/4 78/4/4 79/3/4
f 76/1/5 79/2/5 78/4/5 77/3/5
f 74/1/6 75/2/6 79/4/6 76/3/6
f 66/3/2 65/1/2 80/2/2 81/4/2
f 82/1/5 85/2/5 84/4/5 83/3/5
f 87/3/2 86/1/2 95/2/2 97/4/2
f 98/1/5 101/2/5 100/4/5 99/3/5
f 90/3/2 88/1/2 102/2/2 103/4/2
f 104/1/5 107/2/5 106/4/5 105/3/5
f 91/2/1 93/4/1 89/3/1 92/1/1
f 91/3/2 92/1/2 109/2/2 108/4/2
f 92/2/3 89/4/3 110/3/3 109/1/3
f 108/1/4 109/2/4 110/4/4 111/3/4
f 93/1/5 111/2/5 110/4/5 89/3/5
f 91/1/6 108/2/6 111/4/6 93/3/6
f 96/2/1 97/4/1 95/3/1 94/1/1
f 96/3/2 94/1/2 115/2/2 117/4/2
f 94/2/3 95/4/3 116/3/3 115/1/3
f 117/1/4 115/2/4 116/4/4 118/3/4
f 97/1/5 118/2/5 116/4/5 95/3/5
f 96/1/6 117/2/6 118/4/6 97/3/6
f 114/2/1 115/4/1 113/3/1 112/1/1
f 114/3/2 112/1/2 123/2/2 125/4/2
f 112/2/3 113/4/3 124/3/3 123/1/3
f 125/1/4 123/2/4 124/4/4 126/3/4
f 115/1/5 126/2/5 124/4/5 113/3/5
f 114/1/6 125/2/6 126/4/6 115/3/6
f 121/2/1 122/4/1 120/3/1 119/1/1
f 121/3/2 119/1/2 130/2/2 132/4/2
f 119/2/3 120/4/3 131/3/3 130/1/3
f 132/1/4 130/2/4 131/4/4 133/3/4
f 122/1/5 133/2/5 131/4/5 120/3/5
f 121/1/6 132/2/6 133/4/6 122/3/6
f 129/2/1 130/4/1 128/3/1 127/1/1
f 129/3/2 127/1/2 136/2/2 135/4/2
f 127/2/3 128/4/3 134/3/3 136/1/3
f 135/1/4 136/2/4 134/4/4 137/3/4
f 130/1/5 137/2/5 134/4/5 128/3/5
f 129/1/6 135/2/6 137/4/6 130/3/6
f 138/2/1 139/4/1 137/3/1 135/1/1
f 138/3/2 135/1/2 146/2/2 148/4/2
f 135/2/3 137/4/3 147/3/3 146/1/3
f 148/1/4 146/2/4 147/4/4 149/3/4
f 139/1/5 149/2/5 147/4/5 137/3/5
f 138/1/6 148/2/6 149/4/6 139/3/6
f 142/2/1 143/4/1 141/3/1 140/1/1
f 142/3/2 140/1/2 150/2/2 152/4/2
f 140/2/3 141/4/3 151/3/3 150/1/3
f 152/1/4 150/2/4 151/4/4 153/3/4
f 143/1/5 153/2/5 151/4/5 141/3/5
f 142/1/6 152/2/6 153/4/6 143/3/6
f 145/3/2 144/1/2 154/2/2 155/4/2
f 156/1/5 159/2/5 158/4/5 157/3/5
f 148/2/1 149/4/1 147/3/1 146/1/1
f 148/3/2 146/1/2 163/2/2 165/4/2
f 146/2/3 147/4/3 164/3/3 163/1/3
f 165/1/4 163/2/4 164/4/4 166/3/4
f 149/1/5 166/2/5 164/4/5 147/3/5
f 148/1/6 165/2/6 166/4/6 149/3/6
f 161/2/1 184/4/1 185/3/1 160/1/1
f 161/3/2 160/1/2 182/2/2 183/4/2
f 160/2/3 185/4/3 186/3/3 182/1/3
f 183/1/4 182/2/4 186/4/4 187/3/4
f 184/1/5 187/2/5 186/4/5 185/3/5
f 161/1/6 183/2/6 187/4/6 184/3/6
f 162/2/1 189/4/1 184/3/1 161/1/1
f 162/3/2 161/1/2 183/2/2 188/4/2
f 161/2/3 184/4/3 187/3/3 183/1/3
f 188/1/4 183/2/4 187/4/4 190/3/4
f 189/1/5 190/2/5 187/4/5 184/3/5
f 162/1/6 188/2/6 190/4/6 189/3/6
f 189/2/1 191/4/1 192/3/1 184/1/1
f 189/3/2 184/1/2 187/2/2 190/4/2
f 184/2/3 192/4/3 193/3/3 187/1/3
f 190/1/4 187/2/4 193/4/4 194/3/4
f 191/1/5 194/2/5 193/4/5 192/3/5
f 189/1/6 190/2/6 194/4/6 191/3/6
f 168/2/1 169/4/1 167/3/1 166/1/1
f 168/3/2 166/1/2 195/2/2 197/4/2
f 166/2/3 167/4/3 196/3/3 195/1/3
f 197/1/4 195/2/4 196/4/4 198/3/4
f 169/1/5 198/2/5 196/4/5 167/3/5
f 168/1/6 197/2/6 198/4/6 169/3/6
f 171/2/1 173/4/1 172/3/1 170/1/1
f 171/3/2 170/1/2 200/2/2 199/4/2
f 170/2/3 172/4/3 201/3/3 200/1/3
f 199/1/4 200/2/4 201/4/4 202/3/4
f 173/1/5 202/2/5 201/4/5 172/3/5
f 171/1/6 199/2/6 202/4/6 173/3/6
f 173/2/1 175/4/1 174/3/1 172/1/1
f 173/3/2 172/1/2 201/2/2 202/4/2
f 172/2/3 174/4/3 203/3/3 201/1/3
f 202/1/4 201/2/4 203/4/4 204/3/4
f 175/1/5 204/2/5 203/4/5 174/3/5
f 173/1/6 202/2/6 204/4/6 175/3/6
f 177/2/1 179/4/1 178/3/1 176/1/1
f 177/3/2 176/1/2 226/2/2 229/4/2
f 176/2/3 178/4/3 227/3/3 226/1/3
f 229/1/4 226/2/4 227/4/4 230/3/4
f 179/1/5 230/2/5 227/4/5 178/3/5
f 177/1/6 229/2/6 230/4/6 179/3/6
f 181/2/1 183/4/1 182/3/1 180/1/1
f 181/3/2 180/1/2 235/2/2 236/4/2
f 180/2/3 182/4/3 237/3/3 235/1/3
f 236/1/4 235/2/4 237/4/4 238/3/4
f 183/1/5 238/2/5 237/4/5 182/3/5
f 181/1/6 236/2/6 238/4/6 183/3/6
f 204/2/1 206/4/1 205/3/1 203/1/1
f 204/3/2 203/1/2 240/2/2 239/4/2
f 203/2/3 205/4/3 241/3/3 240/1/3
f 239/1/4 240/2/4 241/4/4 242/3/4
f 206/1/5 242/2/5 241/4/5 205/3/5
f 204/1/6 239/2/6 242/4/6 206/3/6
f 208/2/1 209/4/1 207/3/1 206/1/1
f 208/3/2 206/1/2 242/2/2 243/4/2
f 206/2/3 207/4/3 244/3/3 242/1/3
f 243/1/4 242/2/4 244/4/4 245/3/4
f 209/1/5 245/2/5 244/4/5 207/3/5
f 208/1/6 243/2/6 245/4/6 209/3/6
f 213/2/1 214/4/1 211/3/1 210/1/1
f 213/3/2 210/1/2 248/2/2 247/4/2
f 210/2/3 211/4/3 249/3/3 248/1/3
f 247/1/4 248/2/4 249/4/4 250/3/4
f 214/1/5 250/2/5 249/4/5 211/3/5
f 213/1/6 247/2/6 250/4/6 214/3/6
f 216/2/1 217/4/1 213/3/1 212/1/1
f 216/3/2 212/1/2 246/2/2 252/4/2
f 212/2/3 213/4/3 247/3/3 246/1/3
f 252/1/4 246/2/4 247/4/4 253/3/4
f 217/1/5 253/2/5 247/4/5 213/3/5
f 216/1/6 252/2/6 253/4/6 217/3/6
f 220/2/1 221/4/1 216/3/1 215/1/1
f 220/3/2 215/1/2 251/2/2 254/4/2
f 215/2/3 216/4/3 252/3/3 251/1/3
f 254/1/4 251/2/4 252/4/4 255/3/4
f 221/1/5 255/2/5 252/4/5 216/3/5
f 220/1/6 254/2/6 255/4/6 221/3/6
f 222/2/1 223/4/1 218/3/1 217/1/1
f 222/3/2 217/1/2 253/2/2 256/4/2
f 217/2/3 218/4/3 257/3/3 253/1/3
f 256/1/4 253/2/4 257/4/4 258/3/4
f 223/1/5 258/2/5 257/4/5 218/3/5
f 222/1/6 256/2/6 258/4/6 223/3/6
f 223/2/1 224/4/1 219/3/1 218/1/1
f 223/3/2 218/1/2 257/2/2 258/4/2
f 218/2/3 219/4/3 259/3/3 257/1/3
f 258/1/4 257/2/4 259/4/4 260/3/4
f 224/1/5 260/2/5 259/4/5 219/3/5
f 223/1/6 258/2/6 260/4/6 224/3/6
f 227/2/1 228/4/1 225/3/1 224/1/1
f 227/3/2 224/1/2 260/2/2 261/4/2
f 224/2/3 225/4/3 262/3/3 260/1/3
f 261/1/4 260/2/4 262/4/4 263/3/4
f 228/1/5 263/2/5 262/4/5 225/3/5
f 227/1/6 261/2/6 263/4/6 228/3/6
f 233/2/1 234/4/1 232/3/1 231/1/1
f 233/3/2 231/1/2 264/2/2 266/4/2
f 231/2/3 232/4/3 265/3/3 264/1/3
f 266/1/4 264/2/4 265/4/4 267/3/4
f 234/1/5 267/2/5 265/4/5 232/3/5
f 233/1/6 266/2/6 267/4/6 234/3/6
f 271/2/1 272/4/1 269/3/1 268/1/1
f 271/3/2 268/1/2 278/2/2 279/4/2
f 268/2/3 269/4/3 280/3/3 278/1/3
f 279/1/4 278/2/4 280/4/4 281/3/4
f 272/1/5 281/2/5 280/4/5 269/3/5
f 271/1/6 279/2/6 281/4/6 272/3/6
f 272/2/1 273/4/1 270/3/1 269/1/1
f 272/3/2 269/1/2 280/2/2 281/4/2
f 269/2/3 270/4/3 282/3/3 280/1/3
f 281/1/4 280/2/4 282/4/4 283/3/4
f 273/1/5 283/2/5 282/4/5 270/3/5
f 272/1/6 281/2/6 283/4/6 273/3/6
f 276/2/1 277/4/1 275/3/1 274/1/1
f 276/3/2 274/1/2 292/2/2 295/4/2
f 274/2/3 275/4/3 293/3/3 292/1/3
f 295/1/4 292/2/4 293/4/4 296/3/4
f 277/1/5 296/2/5 293/4/5 275/3/5
f 276/1/6 295/2/6 296/4/6 277/3/6
f 279/3/2 278/1/2 299/2/2 300/4/2
f 301/1/5 304/2/5 303/4/5 302/3/5
f 283/2/1 284/4/1 305/3/1 282/1/1
f 283/3/2 282/1/2 307/2/2 306/4/2
f 282/2/3 305/4/3 308/3/3 307/1/3
f 306/1/4 307/2/4 308/4/4 309/3/4
f 284/1/5 309/2/5 308/4/5 305/3/5
f 283/1/6 306/2/6 309/4/6 284/3/6
f 285/2/1 287/4/1 286/3/1 284/1/1
f 285/3/2 284/1/2 309/2/2 311/4/2
f 284/2/3 286/4/3 312/3/3 309/1/3
f 311/1/4 309/2/4 312/4/4 313/3/4
f 287/1/5 313/2/5 312/4/5 286/3/5
f 285/1/6 311/2/6 313/4/6 287/3/6
f 291/2/1 292/4/1 289/3/1 288/1/1
f 291/3/2 288/1/2 320/2/2 323/4/2
f 288/2/3 289/4/3 321/3/3 320/1/3
f 323/1/4 320/2/4 321/4/4 324/3/4
f 292/1/5 324/2/5 321/4/5 289/3/5
f 291/1/6 323/2/6 324/4/6 292/3/6
f 294/3/2 290/1/2 322/2/2 325/4/2
f 326/1/5 329/2/5 328/4/5 327/3/5
f 298/3/2 297/1/2 331/2/2 333/4/2
f 334/1/5 337/2/5 336/4/5 335/3/5
f 310/3/2 300/1/2 338/2/2 339/4/2
f 340/1/5 343/2/5 342/4/5 341/3/5
f 315/3/2 314/1/2 344/2/2 345/4/2
f 346/1/5 349/2/5 348/4/5 347/3/5
f 318/2/1 319/4/1 317/3/1 316/1/1
f 318/3/2 316/1/2 350/2/2 351/4/2
f 316/2/3 317/4/3 352/3/3 350/1/3
f 351/1/4 350/2/4 352/4/4 353/3/4
f 319/1/5 353/2/5 352/4/5 317/3/5
f 318/1/6 351/2/6 353/4/6 319/3/6
f 332/2/1 333/4/1 331/3/1 330/1/1
f 332/3/2 330/1/2 360/2/2 362/4/2
f 330/2/3 331/4/3 361/3/3 360/1/3
f 362/1/4 360/2/4 361/4/4 363/3/4
f 333/1/5 363/2/5 361/4/5 331/3/5
f 332/1/6 362/2/6 363/4/6 333/3/6
f 356/2/1 357/4/1 355/3/1 354/1/1
f 356/3/2 354/1/2 366/2/2 368/4/2
f 354/2/3 355/4/3 367/3/3 366/1/3
f 368/1/4 366/2/4 367/4/4 369/3/4
f 357/1/5 369/2/5 367/4/5 355/3/5
f 356/1/6 368/2/6 369/4/6 357/3/6
f 360/2/1 361/4/1 359/3/1 358/1/1
f 360/3/2 358/1/2 370/2/2 372/4/2
f 358/2/3 359/4/3 371/3/3 370/1/3
f 372/1/4 370/2/4 371/4/4 373/3/4
f 361/1/5 373/2/5 371/4/5 359/3/5
f 360/1/6 372/2/6 373/4/6 361/3/6
f 365/3/2 364/1/2 377/2/2 378/4/2
f 379/1/5 382/2/5 381/4/5 380/3/5
f 376/2/1 377/4/1 375/3/1 374/1/1
f 376/3/2 374/1/2 384/2/2 386/4/2
f 374/2/3 375/4/3 385/3/3 384/1/3
f 386/1/4 384/2/4 385/4/4 387/3/4
f 377/1/5 387/2/5 385/4/5 375/3/5
f 376/1/6 386/2/6 387/4/6 377/3/6
f 383/3/2 378/1/2 388/2/2 389/4/2
f 390/1/5 393/2/5 392/4/5 391/3/5
f 395/3/2 394/1/2 396/2/2 397/4/2
f 398/1/5 401/2/5 400/4/5 399/3/5
