mtllib lighthouse.mtl
usemtl observer_side
v -2 49 0
v -2 50 0
v -2 49 1
v -2 50 1
v -2 51 0
v -2 51 1
v -2 49 2
v -2 50 2
v -2 51 2
v -2 49 3
v -2 50 3
v -2 51 3
v -1 49 -1
v -1 50 -1
v -1 49 0
v -1 50 0
v -1 51 -1
v -1 51 0
v -1 49 1
v -1 50 1
v -1 51 1
v -1 49 2
v -1 50 2
v -1 51 2
v -1 49 3
v -1 50 3
v -1 51 3
v -1 49 4
v -1 50 4
v -1 51 4
v 0 49 -1
v 0 50 -1
v 0 51 -1
v 0 49 0
v 0 50 0
v 0 51 0
v 0 49 3
v 0 49 4
v 0 50 3
v 0 50 4
v 0 51 3
v 0 51 4
v 1 49 -1
v 1 50 -1
v 1 51 -1
v 1 49 0
v 1 50 0
v 1 51 0
v 1 49 3
v 1 49 4
v 1 50 3
v 1 50 4
v 1 51 3
v 1 51 4
v 2 49 -1
v 2 50 -1
v 2 51 -1
v 2 49 0
v 2 50 0
v 2 51 0
v 2 49 3
v 2 49 4
v 2 50 3
v 2 50 4
v 2 51 3
v 2 51 4
v 3 49 0
v 3 50 0
v 3 51 0
v 2 49 1
v 3 49 1
v 2 50 1
v 3 50 1
v 2 51 1
v 3 51 1
v 2 49 2
v 3 49 2
v 2 50 2
v 3 50 2
v 2 51 2
v 3 51 2
v 3 49 3
v 3 50 3
v 3 51 3
vt 0.000000000 0.000000000
vt 1.000000000 0.000000000
vt 0.000000000 1.000000000
vt 1.000000000 1.000000000
vn -1 0 0
vn 0 0 -1
vn 1 0 0
vn 0 0 1
f 3/2/1 4/4/1 2/3/1 1/1/1
f 19/1/3 15/2/3 16/4/3 20/3/3
f 4/1/1 6/2/1 5/4/1 2/3/1
f 20/2/3 16/4/3 18/3/3 21/1/3
f 7/2/1 8/4/1 4/3/1 3/1/1
f 22/1/3 19/2/3 20/4/3 23/3/3
f 8/1/1 9/2/1 6/4/1 4/3/1
f 23/2/3 20/4/3 21/3/3 24/1/3
f 10/2/1 11/4/1 8/3/1 7/1/1
f 25/1/3 22/2/3 23/4/3 26/3/3
f 11/1/1 12/2/1 9/4/1 8/3/1
f 26/2/3 23/4/3 24/3/3 27/1/3
f 13/2/2 14/4/2 32/3/2 31/1/2
f 15/1/4 34/2/4 35/4/4 16/3/4
f 16/1/1 18/2/1 17/4/1 14/3/1
f 35/2/3 32/4/3 33/3/3 36/1/3
f 25/2/2 26/4/2 39/3/2 37/1/2
f 28/1/4 38/2/4 40/4/4 29/3/4
f 29/1/1 30/2/1 27/4/1 26/3/1
f 40/2/3 39/4/3 41/3/3 42/1/3
f 31/2/2 32/4/2 44/3/2 43/1/2
f 34/1/4 46/2/4 47/4/4 35/3/4
f 35/1/1 36/2/1 33/4/1 32/3/1
f 47/2/3 44/4/3 45/3/3 48/1/3
f 37/2/2 39/4/2 51/3/2 49/1/2
f 38/1/4 50/2/4 52/4/4 40/3/4
f 40/1/1 42/2/1 41/4/1 39/3/1
f 52/2/3 51/4/3 53/3/3 54/1/3
f 43/2/2 44/4/2 56/3/2 55/1/2
f 46/1/4 58/2/4 59/4/4 47/3/4
f 47/1/1 48/2/1 45/4/1 44/3/1
f 59/2/3 56/4/3 57/3/3 60/1/3
f 49/2/2 51/4/2 63/3/2 61/1/2
f 50/1/4 62/2/4 64/4/4 52/3/4
f 52/1/1 54/2/1 53/4/1 51/3/1
f 64/2/3 63/4/3 65/3/3 66/1/3
f 70/2/1 72/4/1 59/3/1 58/1/1
f 71/1/3 67/2/3 68/4/3 73/3/3
f 72/1/1 74/2/1 60/4/1 59/3/1
f 73/2/3 68/4/3 69/3/3 75/1/3
f 76/2/1 78/4/1 72/3/1 70/1/1
f 77/1/3 71/2/3 73/4/3 79/3/3
f 78/1/1 80/2/1 74/4/1 72/3/1
f 79/2/3 73/4/3 75/3/3 81/1/3
f 61/2/1 63/4/1 78/3/1 76/1/1
f 82/1/3 77/2/3 79/4/3 83/3/3
f 63/1/1 65/2/1 80/4/1 78/3/1
f 83/2/3 79/4/3 81/3/3 84/1/3
