mtllib lighthouse.mtl
usemtl deepslate_bricks
v -6 14 -1
v -6 14 0
v -6 14.5 -1
v -6 14.5 0
v -5 14 -1
v -5 14 0
v -5 14.5 -1
v -5 14.5 0
v -6 12.5 1
v -6 12.5 2
v -6 13 1
v -6 13 2
v -5 12.5 1
v -5 12.5 2
v -5 13 1
v -5 13 2
v -6 14 1
v -6 14 2
v -6 14.5 1
v -6 14.5 2
v -5 14 1
v -5 14 2
v -5 14.5 1
v -5 14.5 2
v -6 14 3
v -6 14 4
v -6 14.5 3
v -6 14.5 4
v -5 14 3
v -5 14 4
v -5 14.5 3
v -5 14.5 4
v -5 14 -1
v -5 14 0
v -5 14.5 -1
v -5 14.5 0
v -4 14 -1
v -4 14 0
v -4 14.5 -1
v -4 14.5 0
v -4.5 14.5 -1
v -4.5 14.5 0
v -4.5 15 -1
v -4.5 15 0
v -4 14.5 -1
v -4 14.5 0
v -4 15 -1
v -4 15 0
v -5 14 3
v -5 14 4
v -5 14.5 3
v -5 14.5 4
v -4 14 3
v -4 14 4
v -4 14.5 3
v -4 14.5 4
v -4.5 14.5 3
v -4.5 14.5 4
v -4.5 15 3
v -4.5 15 4
v -4 14.5 3
v -4 14.5 4
v -4 15 3
v -4 15 4
v -4 14 -3
v -4 14 -2
v -4 14.5 -3
v -4 14.5 -2
v -3 14 -3
v -3 14 -2
v -3 14.5 -3
v -3 14.5 -2
v -4 19 -1
v -4 19 0
v -4 19.5 -1
v -4 19.5 0
v -3 19 -1
v -3 19 0
v -3 19.5 -1
v -3 19.5 0
v -4 19 3
v -4 19 4
v -4 19.5 3
v -4 19.5 4
v -3 19 3
v -3 19 4
v -3 19.5 3
v -3 19.5 4
v -4 14 5
v -4 14 6
v -4 14.5 5
v -4 14.5 6
v -3 14 5
v -3 14 6
v -3 14.5 5
v -3 14.5 6
v -3 19 -2
v -3 19 -1
v -3 19.5 -2
v -3 19.5 -1
v -2 19 -2
v -2 19 -1
v -2 19.5 -2
v -2 19.5 -1
v -3 19 4
v -3 19 5
v -3 19.5 4
v -3 19.5 5
v -2 19 4
v -2 19 5
v -2 19.5 4
v -2 19.5 5
v -2 14 -5
v -2 14 -4
v -2 14.5 -5
v -2 14.5 -4
v -1 14 -5
v -1 14 -4
v -1 14.5 -5
v -1 14.5 -4
v -2 14 -4
v -2 14 -3
v -2 14.5 -4
v -2 14.5 -3
v -1 14 -4
v -1 14 -3
v -1 14.5 -4
v -1 14.5 -3
v -2 14.5 -3.5
v -2 14.5 -3
v -2 15 -3.5
v -2 15 -3
v -1 14.5 -3.5
v -1 14.5 -3
v -1 15 -3.5
v -1 15 -3
v -2 19 -3
v -2 19 -2
v -2 19.5 -3
v -2 19.5 -2
v -1 19 -3
v -1 19 -2
v -1 19.5 -3
v -1 19.5 -2
v -2 19 5
v -2 19 6
v -2 19.5 5
v -2 19.5 6
v -1 19 5
v -1 19 6
v -1 19.5 5
v -1 19.5 6
v -2 14 6
v -2 14 7
v -2 14.5 6
v -2 14.5 7
v -1 14 6
v -1 14 7
v -1 14.5 6
v -1 14.5 7
v -2 14.5 6
v -2 14.5 6.5
v -2 15 6
v -2 15 6.5
v -1 14.5 6
v -1 14.5 6.5
v -1 15 6
v -1 15 6.5
v -2 14 7
v -2 14 8
v -2 14.5 7
v -2 14.5 8
v -1 14 7
v -1 14 8
v -1 14.5 7
v -1 14.5 8
v 0 12.5 -5
v 0 12.5 -4
v 0 13 -5
v 0 13 -4
v 1 12.5 -5
v 1 12.5 -4
v 1 13 -5
v 1 13 -4
v 0 14 -5
v 0 14 -4
v 0 14.5 -5
v 0 14.5 -4
v 1 14 -5
v 1 14 -4
v 1 14.5 -5
v 1 14.5 -4
v 0 12.5 7
v 0 12.5 8
v 0 13 7
v 0 13 8
v 1 12.5 7
v 1 12.5 8
v 1 13 7
v 1 13 8
v 0 14 7
v 0 14 8
v 0 14.5 7
v 0 14.5 8
v 1 14 7
v 1 14 8
v 1 14.5 7
v 1 14.5 8
v 2 14 -5
v 2 14 -4
v 2 14.5 -5
v 2 14.5 -4
v 3 14 -5
v 3 14 -4
v 3 14.5 -5
v 3 14.5 -4
v 2 14 -4
v 2 14 -3
v 2 14.5 -4
v 2 14.5 -3
v 3 14 -4
v 3 14 -3
v 3 14.5 -4
v 3 14.5 -3
v 2 14.5 -3.5
v 2 14.5 -3
v 2 15 -3.5
v 2 15 -3
v 3 14.5 -3.5
v 3 14.5 -3
v 3 15 -3.5
v 3 15 -3
v 2 19 -3
v 2 19 -2
v 2 19.5 -3
v 2 19.5 -2
v 3 19 -3
v 3 19 -2
v 3 19.5 -3
v 3 19.5 -2
v 2 19 5
v 2 19 6
v 2 19.5 5
v 2 19.5 6
v 3 19 5
v 3 19 6
v 3 19.5 5
v 3 19.5 6
v 2 14 6
v 2 14 7
v 2 14.5 6
v 2 14.5 7
v 3 14 6
v 3 14 7
v 3 14.5 6
v 3 14.5 7
v 2 14.5 6
v 2 14.5 6.5
v 2 15 6
v 2 15 6.5
v 3 14.5 6
v 3 14.5 6.5
v 3 15 6
v 3 15 6.5
v 2 14 7
v 2 14 8
v 2 14.5 7
v 2 14.5 8
v 3 14 7
v 3 14 8
v 3 14.5 7
v 3 14.5 8
v 3 19 -2
v 3 19 -1
v 3 19.5 -2
v 3 19.5 -1
v 4 19 -2
v 4 19 -1
v 4 19.5 -2
v 4 19.5 -1
v 3 19 4
v 3 19 5
v 3 19.5 4
v 3 19.5 5
v 4 19 4
v 4 19 5
v 4 19.5 4
v 4 19.5 5
v 4 14 -3
v 4 14 -2
v 4 14.5 -3
v 4 14.5 -2
v 5 14 -3
v 5 14 -2
v 5 14.5 -3
v 5 14.5 -2
v 4 19 -1
v 4 19 0
v 4 19.5 -1
v 4 19.5 0
v 5 19 -1
v 5 19 0
v 5 19.5 -1
v 5 19.5 0
v 4 19 3
v 4 19 4
v 4 19.5 3
v 4 19.5 4
v 5 19 3
v 5 19 4
v 5 19.5 3
v 5 19.5 4
v 4 14 5
v 4 14 6
v 4 14.5 5
v 4 14.5 6
v 5 14 5
v 5 14 6
v 5 14.5 5
v 5 14.5 6
v 5 14 -1
v 5 14 0
v 5 14.5 -1
v 5 14.5 0
v 6 14 -1
v 6 14 0
v 6 14.5 -1
v 6 14.5 0
v 5 14.5 -1
v 5 14.5 0
v 5 15 -1
v 5 15 0
v 5.5 14.5 -1
v 5.5 14.5 0
v 5.5 15 -1
v 5.5 15 0
v 5 14 3
v 5 14 4
v 5 14.5 3
v 5 14.5 4
v 6 14 3
v 6 14 4
v 6 14.5 3
v 6 14.5 4
v 5 14.5 3
v 5 14.5 4
v 5 15 3
v 5 15 4
v 5.5 14.5 3
v 5.5 14.5 4
v 5.5 15 3
v 5.5 15 4
v 6 14 -1
v 6 14 0
v 6 14.5 -1
v 6 14.5 0
v 7 14 -1
v 7 14 0
v 7 14.5 -1
v 7 14.5 0
v 6 12.5 1
v 6 12.5 2
v 6 13 1
v 6 13 2
v 7 12.5 1
v 7 12.5 2
v 7 13 1
v 7 13 2
v 6 14 1
v 6 14 2
v 6 14.5 1
v 6 14.5 2
v 7 14 1
v 7 14 2
v 7 14.5 1
v 7 14.5 2
v 6 14 3
v 6 14 4
v 6 14.5 3
v 6 14.5 4
v 7 14 3
v 7 14 4
v 7 14.5 3
v 7 14.5 4
v -6 13 -1
v -6 13 0
v -6 14 0
v -6 14 -1
v -5 13 0
v -5 13 -1
v -5 14 -1
v -5 14 0
v -6 13 1
v -6 14 1
v -5 13 1
v -5 14 1
v -6 13 2
v -6 14 2
v -5 13 2
v -5 14 2
v -6 13 3
v -6 14 3
v -5 13 3
v -5 14 3
v -6 13 4
v -6 14 4
v -5 13 4
v -5 14 4
v -4 8 -1
v -4 9 -1
v -5 13 -2
v -5 14 -2
v -4 13 -1
v -4 13 -2
v -4 14 -2
v -4 14 -1
v -4 8 0
v -4 9 0
v -4 14 0
v -4 8 1
v -4 9 1
v -4 8 2
v -4 9 2
v -4 8 3
v -4 9 3
v -4 14 3
v -4 8 4
v -4 9 4
v -4 13 4
v -4 14 4
v -5 13 5
v -5 14 5
v -4 13 5
v -4 14 5
v -4 13 -3
v -4 14 -3
v -3 13 -2
v -3 13 -3
v -3 14 -3
v -3 14 -2
v -3 8 -1
v -3 9 -1
v -3 14 -1
v -3 8 0
v -3 9 0
v -4 15 0
v -4 15 -1
v -3 14 0
v -3 15 -1
v -3 15 0
v -4 16 0
v -4 16 -1
v -3 16 -1
v -3 16 0
v -4 17 0
v -4 17 -1
v -3 17 -1
v -3 17 0
v -4 18 0
v -4 18 -1
v -3 18 -1
v -3 18 0
v -4 19 0
v -4 19 -1
v -3 19 -1
v -3 19 0
v -3 8 1
v -3 9 1
v -3 8 2
v -3 9 2
v -3 8 3
v -3 9 3
v -4 15 3
v -3 14 3
v -3 15 3
v -4 16 3
v -3 16 3
v -4 17 3
v -3 17 3
v -4 18 3
v -3 18 3
v -4 19 3
v -3 19 3
v -3 8 4
v -3 9 4
v -4 15 4
v -3 14 4
v -3 15 4
v -4 16 4
v -3 16 4
v -4 17 4
v -3 17 4
v -4 18 4
v -3 18 4
v -4 19 4
v -3 19 4
v -3 8 5
v -3 9 5
v -3 13 5
v -3 14 5
v -4 13 6
v -4 14 6
v -3 13 6
v -3 14 6
v -3 13 -4
v -3 14 -4
v -2 13 -3
v -2 13 -4
v -2 14 -4
v -2 14 -3
v -2 8 -2
v -2 9 -2
v -2 14 -2
v -2 15 -2
v -2 16 -2
v -2 17 -2
v -2 18 -2
v -2 19 -2
v -2 8 0
v -2 8 1
v -2 9 0
v -2 9 1
v -2 8 2
v -2 9 2
v -2 8 3
v -2 9 3
v -2 8 4
v -2 9 4
v -2 8 5
v -2 9 5
v -2 14 5
v -2 15 5
v -2 16 5
v -2 17 5
v -2 18 5
v -2 19 5
v -2 8 6
v -2 9 6
v -2 13 6
v -2 14 6
v -3 13 7
v -3 14 7
v -2 13 7
v -2 14 7
v -2 13 -5
v -2 14 -5
v -1 13 -4
v -1 13 -5
v -1 14 -5
v -1 14 -4
v -1 14 -3
v -1 8 -2
v -1 9 -2
v -2 15 -3
v -1 14 -2
v -1 15 -3
v -1 15 -2
v -2 16 -3
v -1 16 -3
v -1 16 -2
v -2 17 -3
v -1 17 -3
v -1 17 -2
v -2 18 -3
v -1 18 -3
v -1 18 -2
v -2 19 -3
v -1 19 -3
v -1 19 -2
v -2 8 -1
v -1 8 -1
v -2 9 -1
v -1 9 -1
v -1 8 0
v -1 9 0
v -1 8 1
v -1 9 1
v -1 8 2
v -1 9 2
v -1 8 3
v -1 9 3
v -1 8 4
v -1 8 5
v -1 9 4
v -1 9 5
v -1 18 5
v -1 19 5
v -1 8 6
v -1 9 6
v -2 15 6
v -1 14 6
v -1 14 5
v -1 15 5
v -1 15 6
v -2 16 6
v -1 16 5
v -1 16 6
v -2 17 6
v -1 17 5
v -1 17 6
v -2 18 6
v -1 18 6
v -2 19 6
v -1 19 6
v -1 13 7
v -1 14 7
v -2 13 8
v -2 14 8
v -1 13 8
v -1 14 8
v 0 13 -4
v 0 13 -5
v 0 14 -5
v 0 14 -4
v 0 8 -1
v 0 9 -1
v 0 8 0
v 0 9 0
v 0 8 1
v 0 9 1
v 0 8 2
v 0 8 3
v 0 9 2
v 0 9 3
v 0 8 4
v 0 8 5
v 0 9 4
v 0 9 5
v 0 8 6
v 0 9 6
v 0 8 7
v 0 9 7
v 0 13 7
v 0 14 7
v 0 13 8
v 0 14 8
v 1 13 -4
v 1 13 -5
v 1 14 -5
v 1 14 -4
v 1 8 -1
v 1 8 0
v 1 9 -1
v 1 9 0
v 1 8 1
v 1 9 1
v 1 8 2
v 1 9 2
v 1 8 3
v 1 9 3
v 1 8 4
v 1 9 4
v 1 8 5
v 1 9 5
v 1 8 6
v 1 9 6
v 1 8 7
v 1 9 7
v 1 13 7
v 1 14 7
v 1 13 8
v 1 14 8
v 2 13 -4
v 2 13 -5
v 2 14 -5
v 2 14 -4
v 2 14 -3
v 2 8 -2
v 2 9 -2
v 2 14 -2
v 2 15 -3
v 2 15 -2
v 2 16 -3
v 2 16 -2
v 2 17 -3
v 2 17 -2
v 2 18 -3
v 2 18 -2
v 2 19 -3
v 2 19 -2
v 2 8 -1
v 2 9 -1
v 2 8 0
v 2 9 0
v 2 8 1
v 2 9 1
v 2 8 2
v 2 9 2
v 2 8 3
v 2 9 3
v 2 8 4
v 2 9 4
v 2 8 5
v 2 9 5
v 2 18 5
v 2 19 5
v 2 8 6
v 2 9 6
v 2 14 6
v 2 14 5
v 2 15 5
v 2 15 6
v 2 16 5
v 2 16 6
v 2 17 5
v 2 17 6
v 2 18 6
v 2 19 6
v 2 13 7
v 2 14 7
v 2 13 8
v 2 14 8
v 3 13 -4
v 3 13 -5
v 3 14 -5
v 3 14 -4
v 3 13 -3
v 3 14 -3
v 3 8 -2
v 3 9 -2
v 3 14 -2
v 3 15 -3
v 3 15 -2
v 3 16 -3
v 3 16 -2
v 3 17 -3
v 3 17 -2
v 3 18 -3
v 3 18 -2
v 3 19 -3
v 3 19 -2
v 3 8 -1
v 3 9 -1
v 3 8 0
v 3 9 0
v 3 8 1
v 3 9 1
v 3 8 2
v 3 9 2
v 3 8 3
v 3 9 3
v 3 8 4
v 3 9 4
v 3 8 5
v 3 9 5
v 3 14 5
v 3 15 5
v 3 18 5
v 3 19 5
v 3 13 6
v 3 14 6
v 3 15 6
v 3 16 5
v 3 16 6
v 3 17 5
v 3 17 6
v 3 18 6
v 3 19 6
v 3 13 7
v 3 14 7
v 3 13 8
v 3 14 8
v 4 13 -3
v 4 13 -4
v 4 14 -4
v 4 14 -3
v 4 13 -2
v 4 14 -2
v 4 8 -1
v 4 9 -1
v 4 14 -1
v 4 15 -1
v 4 16 -1
v 4 17 -1
v 4 18 -1
v 4 19 -1
v 4 8 0
v 4 9 0
v 4 18 0
v 4 19 0
v 4 8 1
v 4 9 1
v 4 8 2
v 4 9 2
v 4 8 3
v 4 9 3
v 4 18 3
v 4 19 3
v 4 8 4
v 4 9 4
v 4 14 3
v 4 14 4
v 4 15 3
v 4 15 4
v 4 16 3
v 4 16 4
v 4 17 3
v 4 17 4
v 4 18 4
v 4 19 4
v 4 13 5
v 4 14 5
v 4 13 6
v 4 14 6
v 4 13 7
v 4 14 7
v 5 13 -2
v 5 13 -3
v 5 14 -3
v 5 14 -2
v 5 13 -1
v 5 14 -1
v 4 14 0
v 4 15 0
v 5 14 0
v 5 15 -1
v 5 15 0
v 4 16 0
v 5 16 -1
v 5 16 0
v 4 17 0
v 5 17 -1
v 5 17 0
v 5 18 -1
v 5 18 0
v 5 19 -1
v 5 19 0
v 5 8 1
v 5 9 1
v 5 8 2
v 5 9 2
v 5 8 3
v 5 9 3
v 5 14 3
v 5 15 3
v 5 16 3
v 5 17 3
v 5 18 3
v 5 19 3
v 5 14 4
v 5 15 4
v 5 16 4
v 5 17 4
v 5 18 4
v 5 19 4
v 5 13 4
v 5 13 5
v 5 14 5
v 5 13 6
v 5 14 6
v 6 13 -1
v 6 13 -2
v 6 14 -2
v 6 14 -1
v 6 13 0
v 6 14 0
v 6 13 1
v 6 14 1
v 6 13 2
v 6 14 2
v 6 13 3
v 6 14 3
v 6 13 4
v 6 14 4
v 6 13 5
v 6 14 5
v 7 13 0
v 7 13 -1
v 7 14 -1
v 7 14 0
v 7 13 1
v 7 14 1
v 7 13 2
v 7 14 2
v 7 13 3
v 7 14 3
v 7 13 4
v 7 14 4
vt 0.000000000 0.000000000
vt 0.500000000 0.000000000
vt 1.000000000 0.000000000
vt 0.000000000 0.500000000
vt 0.500000000 0.500000000
vt 1.000000000 0.500000000
vt 0.000000000 1.000000000
vt 0.500000000 1.000000000
vt 1.000000000 1.000000000
vn -1 0 0
vn 0 -1 0
vn 0 0 -1
vn 1 0 0
vn 0 1 0
vn 0 0 1
f 3/4/1 1/1/1 2/3/1 4/6/1
f 2/7/2 1/1/2 5/3/2 6/9/2
f 7/4/3 5/1/3 1/3/3 3/6/3
f 7/6/4 8/4/4 6/1/4 5/3/4
f 7/9/5 3/7/5 4/1/5 8/3/5
f 8/6/6 4/4/6 2/1/6 6/3/6
f 11/7/1 9/4/1 10/6/1 12/9/1
f 10/7/2 9/1/2 13/3/2 14/9/2
f 15/7/3 13/4/3 9/6/3 11/9/3
f 15/9/4 16/7/4 14/4/4 13/6/4
f 15/9/5 11/7/5 12/1/5 16/3/5
f 16/9/6 12/7/6 10/4/6 14/6/6
f 19/4/1 17/1/1 18/3/1 20/6/1
f 18/7/2 17/1/2 21/3/2 22/9/2
f 23/4/3 21/1/3 17/3/3 19/6/3
f 23/6/4 24/4/4 22/1/4 21/3/4
f 23/9/5 19/7/5 20/1/5 24/3/5
f 24/6/6 20/4/6 18/1/6 22/3/6
f 27/4/1 25/1/1 26/3/1 28/6/1
f 26/7/2 25/1/2 29/3/2 30/9/2
f 31/4/3 29/1/3 25/3/3 27/6/3
f 31/6/4 32/4/4 30/1/4 29/3/4
f 31/9/5 27/7/5 28/1/5 32/3/5
f 32/6/6 28/4/6 26/1/6 30/3/6
f 35/4/1 33/1/1 34/3/1 36/6/1
f 34/7/2 33/1/2 37/3/2 38/9/2
f 39/4/3 37/1/3 33/3/3 35/6/3
f 39/6/4 40/4/4 38/1/4 37/3/4
f 39/9/5 35/7/5 36/1/5 40/3/5
f 40/6/6 36/4/6 34/1/6 38/3/6
f 43/7/1 41/4/1 42/6/1 44/9/1
f 47/7/3 45/4/3 41/5/3 43/8/3
f 47/9/4 48/7/4 46/4/4 45/6/4
f 47/9/5 43/8/5 44/2/5 48/3/5
f 48/9/6 44/8/6 42/5/6 46/6/6
f 51/4/1 49/1/1 50/3/1 52/6/1
f 50/7/2 49/1/2 53/3/2 54/9/2
f 55/4/3 53/1/3 49/3/3 51/6/3
f 55/6/4 56/4/4 54/1/4 53/3/4
f 55/9/5 51/7/5 52/1/5 56/3/5
f 56/6/6 52/4/6 50/1/6 54/3/6
f 59/7/1 57/4/1 58/6/1 60/9/1
f 63/7/3 61/4/3 57/5/3 59/8/3
f 63/9/4 64/7/4 62/4/4 61/6/4
f 63/9/5 59/8/5 60/2/5 64/3/5
f 64/9/6 60/8/6 58/5/6 62/6/6
f 67/4/1 65/1/1 66/3/1 68/6/1
f 66/7/2 65/1/2 69/3/2 70/9/2
f 71/4/3 69/1/3 65/3/3 67/6/3
f 71/6/4 72/4/4 70/1/4 69/3/4
f 71/9/5 67/7/5 68/1/5 72/3/5
f 72/6/6 68/4/6 66/1/6 70/3/6
f 75/4/1 73/1/1 74/3/1 76/6/1
f 74/7/2 73/1/2 77/3/2 78/9/2
f 79/4/3 77/1/3 73/3/3 75/6/3
f 79/6/4 80/4/4 78/1/4 77/3/4
f 79/9/5 75/7/5 76/1/5 80/3/5
f 80/6/6 76/4/6 74/1/6 78/3/6
f 83/4/1 81/1/1 82/3/1 84/6/1
f 82/7/2 81/1/2 85/3/2 86/9/2
f 87/4/3 85/1/3 81/3/3 83/6/3
f 87/6/4 88/4/4 86/1/4 85/3/4
f 87/9/5 83/7/5 84/1/5 88/3/5
f 88/6/6 84/4/6 82/1/6 86/3/6
f 91/4/1 89/1/1 90/3/1 92/6/1
f 90/7/2 89/1/2 93/3/2 94/9/2
f 95/4/3 93/1/3 89/3/3 91/6/3
f 95/6/4 96/4/4 94/1/4 93/3/4
f 95/9/5 91/7/5 92/1/5 96/3/5
f 96/6/6 92/4/6 90/1/6 94/3/6
f 99/4/1 97/1/1 98/3/1 100/6/1
f 98/7/2 97/1/2 101/3/2 102/9/2
f 103/4/3 101/1/3 97/3/3 99/6/3
f 103/6/4 104/4/4 102/1/4 101/3/4
f 103/9/5 99/7/5 100/1/5 104/3/5
f 104/6/6 100/4/6 98/1/6 102/3/6
f 107/4/1 105/1/1 106/3/1 108/6/1
f 106/7/2 105/1/2 109/3/2 110/9/2
f 111/4/3 109/1/3 105/3/3 107/6/3
f 111/6/4 112/4/4 110/1/4 109/3/4
f 111/9/5 107/7/5 108/1/5 112/3/5
f 112/6/6 108/4/6 106/1/6 110/3/6
f 115/4/1 113/1/1 114/3/1 116/6/1
f 114/7/2 113/1/2 117/3/2 118/9/2
f 119/4/3 117/1/3 113/3/3 115/6/3
f 119/6/4 120/4/4 118/1/4 117/3/4
f 119/9/5 115/7/5 116/1/5 120/3/5
f 120/6/6 116/4/6 114/1/6 118/3/6
f 123/4/1 121/1/1 122/3/1 124/6/1
f 122/7/2 121/1/2 125/3/2 126/9/2
f 127/4/3 125/1/3 121/3/3 123/6/3
f 127/6/4 128/4/4 126/1/4 125/3/4
f 127/9/5 123/7/5 124/1/5 128/3/5
f 128/6/6 124/4/6 122/1/6 126/3/6
f 131/8/1 129/5/1 130/6/1 132/9/1
f 135/7/3 133/4/3 129/6/3 131/9/3
f 135/8/4 136/7/4 134/4/4 133/5/4
f 135/6/5 131/4/5 132/1/5 136/3/5
f 136/9/6 132/7/6 130/4/6 134/6/6
f 139/4/1 137/1/1 138/3/1 140/6/1
f 138/7/2 137/1/2 141/3/2 142/9/2
f 143/4/3 141/1/3 137/3/3 139/6/3
f 143/6/4 144/4/4 142/1/4 141/3/4
f 143/9/5 139/7/5 140/1/5 144/3/5
f 144/6/6 140/4/6 138/1/6 142/3/6
f 147/4/1 145/1/1 146/3/1 148/6/1
f 146/7/2 145/1/2 149/3/2 150/9/2
f 151/4/3 149/1/3 145/3/3 147/6/3
f 151/6/4 152/4/4 150/1/4 149/3/4
f 151/9/5 147/7/5 148/1/5 152/3/5
f 152/6/6 148/4/6 146/1/6 150/3/6
f 155/4/1 153/1/1 154/3/1 156/6/1
f 154/7/2 153/1/2 157/3/2 158/9/2
f 159/4/3 157/1/3 153/3/3 155/6/3
f 159/6/4 160/4/4 158/1/4 157/3/4
f 159/9/5 155/7/5 156/1/5 160/3/5
f 160/6/6 156/4/6 154/1/6 158/3/6
f 163/7/1 161/4/1 162/5/1 164/8/1
f 167/7/3 165/4/3 161/6/3 163/9/3
f 167/9/4 168/8/4 166/5/4 165/6/4
f 167/9/5 163/7/5 164/4/5 168/6/5
f 168/9/6 164/7/6 162/4/6 166/6/6
f 171/4/1 169/1/1 170/3/1 172/6/1
f 170/7/2 169/1/2 173/3/2 174/9/2
f 175/4/3 173/1/3 169/3/3 171/6/3
f 175/6/4 176/4/4 174/1/4 173/3/4
f 175/9/5 171/7/5 172/1/5 176/3/5
f 176/6/6 172/4/6 170/1/6 174/3/6
f 179/7/1 177/4/1 178/6/1 180/9/1
f 178/7/2 177/1/2 181/3/2 182/9/2
f 183/7/3 181/4/3 177/6/3 179/9/3
f 183/9/4 184/7/4 182/4/4 181/6/4
f 183/9/5 179/7/5 180/1/5 184/3/5
f 184/9/6 180/7/6 178/4/6 182/6/6
f 187/4/1 185/1/1 186/3/1 188/6/1
f 186/7/2 185/1/2 189/3/2 190/9/2
f 191/4/3 189/1/3 185/3/3 187/6/3
f 191/6/4 192/4/4 190/1/4 189/3/4
f 191/9/5 187/7/5 188/1/5 192/3/5
f 192/6/6 188/4/6 186/1/6 190/3/6
f 195/7/1 193/4/1 194/6/1 196/9/1
f 194/7/2 193/1/2 197/3/2 198/9/2
f 199/7/3 197/4/3 193/6/3 195/9/3
f 199/9/4 200/7/4 198/4/4 197/6/4
f 199/9/5 195/7/5 196/1/5 200/3/5
f 200/9/6 196/7/6 194/4/6 198/6/6
f 203/4/1 201/1/1 202/3/1 204/6/1
f 202/7/2 201/1/2 205/3/2 206/9/2
f 207/4/3 205/1/3 201/3/3 203/6/3
f 207/6/4 208/4/4 206/1/4 205/3/4
f 207/9/5 203/7/5 204/1/5 208/3/5
f 208/6/6 204/4/6 202/1/6 206/3/6
f 211/4/1 209/1/1 210/3/1 212/6/1
f 210/7/2 209/1/2 213/3/2 214/9/2
f 215/4/3 213/1/3 209/3/3 211/6/3
f 215/6/4 216/4/4 214/1/4 213/3/4
f 215/9/5 211/7/5 212/1/5 216/3/5
f 216/6/6 212/4/6 210/1/6 214/3/6
f 219/4/1 217/1/1 218/3/1 220/6/1
f 218/7/2 217/1/2 221/3/2 222/9/2
f 223/4/3 221/1/3 217/3/3 219/6/3
f 223/6/4 224/4/4 222/1/4 221/3/4
f 223/9/5 219/7/5 220/1/5 224/3/5
f 224/6/6 220/4/6 218/1/6 222/3/6
f 227/8/1 225/5/1 226/6/1 228/9/1
f 231/7/3 229/4/3 225/6/3 227/9/3
f 231/8/4 232/7/4 230/4/4 229/5/4
f 231/6/5 227/4/5 228/1/5 232/3/5
f 232/9/6 228/7/6 226/4/6 230/6/6
f 235/4/1 233/1/1 234/3/1 236/6/1
f 234/7/2 233/1/2 237/3/2 238/9/2
f 239/4/3 237/1/3 233/3/3 235/6/3
f 239/6/4 240/4/4 238/1/4 237/3/4
f 239/9/5 235/7/5 236/1/5 240/3/5
f 240/6/6 236/4/6 234/1/6 238/3/6
f 243/4/1 241/1/1 242/3/1 244/6/1
f 242/7/2 241/1/2 245/3/2 246/9/2
f 247/4/3 245/1/3 241/3/3 243/6/3
f 247/6/4 248/4/4 246/1/4 245/3/4
f 247/9/5 243/7/5 244/1/5 248/3/5
f 248/6/6 244/4/6 242/1/6 246/3/6
f 251/4/1 249/1/1 250/3/1 252/6/1
f 250/7/2 249/1/2 253/3/2 254/9/2
f 255/4/3 253/1/3 249/3/3 251/6/3
f 255/6/4 256/4/4 254/1/4 253/3/4
f 255/9/5 251/7/5 252/1/5 256/3/5
f 256/6/6 252/4/6 250/1/6 254/3/6
f 259/7/1 257/4/1 258/5/1 260/8/1
f 263/7/3 261/4/3 257/6/3 259/9/3
f 263/9/4 264/8/4 262/5/4 261/6/4
f 263/9/5 259/7/5 260/4/5 264/6/5
f 264/9/6 260/7/6 258/4/6 262/6/6
f 267/4/1 265/1/1 266/3/1 268/6/1
f 266/7/2 265/1/2 269/3/2 270/9/2
f 271/4/3 269/1/3 265/3/3 267/6/3
f 271/6/4 272/4/4 270/1/4 269/3/4
f 271/9/5 267/7/5 268/1/5 272/3/5
f 272/6/6 268/4/6 266/1/6 270/3/6
f 275/4/1 273/1/1 274/3/1 276/6/1
f 274/7/2 273/1/2 277/3/2 278/9/2
f 279/4/3 277/1/3 273/3/3 275/6/3
f 279/6/4 280/4/4 278/1/4 277/3/4
f 279/9/5 275/7/5 276/1/5 280/3/5
f 280/6/6 276/4/6 274/1/6 278/3/6
f 283/4/1 281/1/1 282/3/1 284/6/1
f 282/7/2 281/1/2 285/3/2 286/9/2
f 287/4/3 285/1/3 281/3/3 283/6/3
f 287/6/4 288/4/4 286/1/4 285/3/4
f 287/9/5 283/7/5 284/1/5 288/3/5
f 288/6/6 284/4/6 282/1/6 286/3/6
f 291/4/1 289/1/1 290/3/1 292/6/1
f 290/7/2 289/1/2 293/3/2 294/9/2
f 295/4/3 293/1/3 289/3/3 291/6/3
f 295/6/4 296/4/4 294/1/4 293/3/4
f 295/9/5 291/7/5 292/1/5 296/3/5
f 296/6/6 292/4/6 290/1/6 294/3/6
f 299/4/1 297/1/1 298/3/1 300/6/1
f 298/7/2 297/1/2 301/3/2 302/9/2
f 303/4/3 301/1/3 297/3/3 299/6/3
f 303/6/4 304/4/4 302/1/4 301/3/4
f 303/9/5 299/7/5 300/1/5 304/3/5
f 304/6/6 300/4/6 298/1/6 302/3/6
f 307/4/1 305/1/1 306/3/1 308/6/1
f 306/7/2 305/1/2 309/3/2 310/9/2
f 311/4/3 309/1/3 305/3/3 307/6/3
f 311/6/4 312/4/4 310/1/4 309/3/4
f 311/9/5 307/7/5 308/1/5 312/3/5
f 312/6/6 308/4/6 306/1/6 310/3/6
f 315/4/1 313/1/1 314/3/1 316/6/1
f 314/7/2 313/1/2 317/3/2 318/9/2
f 319/4/3 317/1/3 313/3/3 315/6/3
f 319/6/4 320/4/4 318/1/4 317/3/4
f 319/9/5 315/7/5 316/1/5 320/3/5
f 320/6/6 316/4/6 314/1/6 318/3/6
f 323/4/1 321/1/1 322/3/1 324/6/1
f 322/7/2 321/1/2 325/3/2 326/9/2
f 327/4/3 325/1/3 321/3/3 323/6/3
f 327/6/4 328/4/4 326/1/4 325/3/4
f 327/9/5 323/7/5 324/1/5 328/3/5
f 328/6/6 324/4/6 322/1/6 326/3/6
f 331/7/1 329/4/1 330/6/1 332/9/1
f 335/8/3 333/5/3 329/6/3 331/9/3
f 335/9/4 336/7/4 334/4/4 333/6/4
f 335/8/5 331/7/5 332/1/5 336/2/5
f 336/8/6 332/7/6 330/4/6 334/5/6
f 339/4/1 337/1/1 338/3/1 340/6/1
f 338/7/2 337/1/2 341/3/2 342/9/2
f 343/4/3 341/1/3 337/3/3 339/6/3
f 343/6/4 344/4/4 342/1/4 341/3/4
f 343/9/5 339/7/5 340/1/5 344/3/5
f 344/6/6 340/4/6 338/1/6 342/3/6
f 347/7/1 345/4/1 346/6/1 348/9/1
f 351/8/3 349/5/3 345/6/3 347/9/3
f 351/9/4 352/7/4 350/4/4 349/6/4
f 351/8/5 347/7/5 348/1/5 352/2/5
f 352/8/6 348/7/6 346/4/6 350/5/6
f 355/4/1 353/1/1 354/3/1 356/6/1
f 354/7/2 353/1/2 357/3/2 358/9/2
f 359/4/3 357/1/3 353/3/3 355/6/3
f 359/6/4 360/4/4 358/1/4 357/3/4
f 359/9/5 355/7/5 356/1/5 360/3/5
f 360/6/6 356/4/6 354/1/6 358/3/6
f 363/7/1 361/4/1 362/6/1 364/9/1
f 362/7/2 361/1/2 365/3/2 366/9/2
f 367/7/3 365/4/3 361/6/3 363/9/3
f 367/9/4 368/7/4 366/4/4 365/6/4
f 367/9/5 363/7/5 364/1/5 368/3/5
f 368/9/6 364/7/6 362/4/6 366/6/6
f 371/4/1 369/1/1 370/3/1 372/6/1
f 370/7/2 369/1/2 373/3/2 374/9/2
f 375/4/3 373/1/3 369/3/3 371/6/3
f 375/6/4 376/4/4 374/1/4 373/3/4
f 375/9/5 371/7/5 372/1/5 376/3/5
f 376/6/6 372/4/6 370/1/6 374/3/6
f 379/4/1 377/1/1 378/3/1 380/6/1
f 378/7/2 377/1/2 381/3/2 382/9/2
f 383/4/3 381/1/3 377/3/3 379/6/3
f 383/6/4 384/4/4 382/1/4 381/3/4
f 383/9/5 379/7/5 380/1/5 384/3/5
f 384/6/6 380/4/6 378/1/6 382/3/6
f 386/3/1 387/9/1 388/7/1 385/1/1
f 386/7/2 385/1/2 390/3/2 389/9/2
f 385/3/3 388/9/3 391/7/3 390/1/3
f 389/1/4 390/3/4 391/9/4 392/7/4
f 387/1/5 392/3/5 391/9/5 388/7/5
f 386/1/6 389/3/6 392/9/6 387/7/6
f 393/3/1 394/9/1 387/7/1 386/1/1
f 393/7/2 386/1/2 389/3/2 395/9/2
f 386/3/3 387/9/3 392/7/3 389/1/3
f 395/1/4 389/3/4 392/9/4 396/7/4
f 394/1/5 396/3/5 392/9/5 387/7/5
f 393/1/6 395/3/6 396/9/6 394/7/6
f 397/3/1 398/9/1 394/7/1 393/1/1
f 397/7/2 393/1/2 395/3/2 399/9/2
f 393/3/3 394/9/3 396/7/3 395/1/3
f 399/1/4 395/3/4 396/9/4 400/7/4
f 398/1/5 400/3/5 396/9/5 394/7/5
f 397/1/6 399/3/6 400/9/6 398/7/6
f 401/3/1 402/9/1 398/7/1 397/1/1
f 401/7/2 397/1/2 399/3/2 403/9/2
f 397/3/3 398/9/3 400/7/3 399/1/3
f 403/1/4 399/3/4 400/9/4 404/7/4
f 402/1/5 404/3/5 400/9/5 398/7/5
f 401/1/6 403/3/6 404/9/6 402/7/6
f 405/3/1 406/9/1 402/7/1 401/1/1
f 405/7/2 401/1/2 403/3/2 407/9/2
f 401/3/3 402/9/3 404/7/3 403/1/3
f 407/1/4 403/3/4 404/9/4 408/7/4
f 406/1/5 408/3/5 404/9/5 402/7/5
f 405/1/6 407/3/6 408/9/6 406/7/6
f 390/3/1 391/9/1 412/7/1 411/1/1
f 390/7/2 411/1/2 414/3/2 413/9/2
f 411/3/3 412/9/3 415/7/3 414/1/3
f 413/1/4 414/3/4 415/9/4 416/7/4
f 391/1/5 416/3/5 415/9/5 412/7/5
f 390/1/6 413/3/6 416/9/6 391/7/6
f 431/3/1 432/9/1 408/7/1 407/1/1
f 431/7/2 407/1/2 429/3/2 433/9/2
f 407/3/3 408/9/3 430/7/3 429/1/3
f 433/1/4 429/3/4 430/9/4 434/7/4
f 432/1/5 434/3/5 430/9/5 408/7/5
f 431/1/6 433/3/6 434/9/6 432/7/6
f 414/3/1 415/9/1 436/7/1 435/1/1
f 414/7/2 435/1/2 438/3/2 437/9/2
f 435/3/3 436/9/3 439/7/3 438/1/3
f 437/1/4 438/3/4 439/9/4 440/7/4
f 415/1/5 440/3/5 439/9/5 436/7/5
f 414/1/6 437/3/6 440/9/6 415/7/6
f 417/3/1 418/9/1 410/7/1 409/1/1
f 417/7/2 409/1/2 441/3/2 444/9/2
f 409/3/3 410/9/3 442/7/3 441/1/3
f 444/1/4 441/3/4 442/9/4 445/7/4
f 418/1/5 445/3/5 442/9/5 410/7/5
f 417/1/6 444/3/6 445/9/6 418/7/6
f 419/3/1 446/9/1 447/7/1 416/1/1
f 419/7/2 416/1/2 443/3/2 448/9/2
f 416/3/3 447/9/3 449/7/3 443/1/3
f 448/1/4 443/3/4 449/9/4 450/7/4
f 446/1/5 450/3/5 449/9/5 447/7/5
f 419/1/6 448/3/6 450/9/6 446/7/6
f 446/3/1 451/9/1 452/7/1 447/1/1
f 446/7/2 447/1/2 449/3/2 450/9/2
f 447/3/3 452/9/3 453/7/3 449/1/3
f 450/1/4 449/3/4 453/9/4 454/7/4
f 451/1/5 454/3/5 453/9/5 452/7/5
f 446/1/6 450/3/6 454/9/6 451/7/6
f 451/3/1 455/9/1 456/7/1 452/1/1
f 451/7/2 452/1/2 453/3/2 454/9/2
f 452/3/3 456/9/3 457/7/3 453/1/3
f 454/1/4 453/3/4 457/9/4 458/7/4
f 455/1/5 458/3/5 457/9/5 456/7/5
f 451/1/6 454/3/6 458/9/6 455/7/6
f 455/3/1 459/9/1 460/7/1 456/1/1
f 455/7/2 456/1/2 457/3/2 458/9/2
f 456/3/3 460/9/3 461/7/3 457/1/3
f 458/1/4 457/3/4 461/9/4 462/7/4
f 459/1/5 462/3/5 461/9/5 460/7/5
f 455/1/6 458/3/6 462/9/6 459/7/6
f 459/3/1 463/9/1 464/7/1 460/1/1
f 459/7/2 460/1/2 461/3/2 462/9/2
f 460/3/3 464/9/3 465/7/3 461/1/3
f 462/1/4 461/3/4 465/9/4 466/7/4
f 463/1/5 466/3/5 465/9/5 464/7/5
f 459/1/6 462/3/6 466/9/6 463/7/6
f 420/3/1 421/9/1 418/7/1 417/1/1
f 420/7/2 417/1/2 444/3/2 467/9/2
f 417/3/3 418/9/3 445/7/3 444/1/3
f 467/1/4 444/3/4 445/9/4 468/7/4
f 421/1/5 468/3/5 445/9/5 418/7/5
f 420/1/6 467/3/6 468/9/6 421/7/6
f 422/3/1 423/9/1 421/7/1 420/1/1
f 422/7/2 420/1/2 467/3/2 469/9/2
f 420/3/3 421/9/3 468/7/3 467/1/3
f 469/1/4 467/3/4 468/9/4 470/7/4
f 423/1/5 470/3/5 468/9/5 421/7/5
f 422/1/6 469/3/6 470/9/6 423/7/6
f 424/3/1 425/9/1 423/7/1 422/1/1
f 424/7/2 422/1/2 469/3/2 471/9/2
f 422/3/3 423/9/3 470/7/3 469/1/3
f 471/1/4 469/3/4 470/9/4 472/7/4
f 425/1/5 472/3/5 470/9/5 423/7/5
f 424/1/6 471/3/6 472/9/6 425/7/6
f 427/3/1 428/9/1 425/7/1 424/1/1
f 427/7/2 424/1/2 471/3/2 484/9/2
f 424/3/3 425/9/3 472/7/3 471/1/3
f 484/1/4 471/3/4 472/9/4 485/7/4
f 428/1/5 485/3/5 472/9/5 425/7/5
f 427/1/6 484/3/6 485/9/6 428/7/6
f 430/3/1 486/9/1 473/7/1 426/1/1
f 430/7/2 426/1/2 474/3/2 487/9/2
f 426/3/3 473/9/3 475/7/3 474/1/3
f 487/1/4 474/3/4 475/9/4 488/7/4
f 486/1/5 488/3/5 475/9/5 473/7/5
f 430/1/6 487/3/6 488/9/6 486/7/6
f 486/3/1 489/9/1 476/7/1 473/1/1
f 486/7/2 473/1/2 475/3/2 488/9/2
f 473/3/3 476/9/3 477/7/3 475/1/3
f 488/1/4 475/3/4 477/9/4 490/7/4
f 489/1/5 490/3/5 477/9/5 476/7/5
f 486/1/6 488/3/6 490/9/6 489/7/6
f 489/3/1 491/9/1 478/7/1 476/1/1
f 489/7/2 476/1/2 477/3/2 490/9/2
f 476/3/3 478/9/3 479/7/3 477/1/3
f 490/1/4 477/3/4 479/9/4 492/7/4
f 491/1/5 492/3/5 479/9/5 478/7/5
f 489/1/6 490/3/6 492/9/6 491/7/6
f 491/3/1 493/9/1 480/7/1 478/1/1
f 491/7/2 478/1/2 479/3/2 492/9/2
f 478/3/3 480/9/3 481/7/3 479/1/3
f 492/1/4 479/3/4 481/9/4 494/7/4
f 493/1/5 494/3/5 481/9/5 480/7/5
f 491/1/6 492/3/6 494/9/6 493/7/6
f 493/3/1 495/9/1 482/7/1 480/1/1
f 493/7/2 480/1/2 481/3/2 494/9/2
f 480/3/3 482/9/3 483/7/3 481/1/3
f 494/1/4 481/3/4 483/9/4 496/7/4
f 495/1/5 496/3/5 483/9/5 482/7/5
f 493/1/6 494/3/6 496/9/6 495/7/6
f 501/3/1 502/9/1 434/7/1 433/1/1
f 501/7/2 433/1/2 499/3/2 503/9/2
f 433/3/3 434/9/3 500/7/3 499/1/3
f 503/1/4 499/3/4 500/9/4 504/7/4
f 502/1/5 504/3/5 500/9/5 434/7/5
f 501/1/6 503/3/6 504/9/6 502/7/6
f 438/3/1 439/9/1 506/7/1 505/1/1
f 438/7/2 505/1/2 508/3/2 507/9/2
f 505/3/3 506/9/3 509/7/3 508/1/3
f 507/1/4 508/3/4 509/9/4 510/7/4
f 439/1/5 510/3/5 509/9/5 506/7/5
f 438/1/6 507/3/6 510/9/6 439/7/6
f 467/3/1 468/9/1 445/7/1 444/1/1
f 467/7/2 444/1/2 519/3/2 520/9/2
f 444/3/3 445/9/3 521/7/3 519/1/3
f 520/1/4 519/3/4 521/9/4 522/7/4
f 468/1/5 522/3/5 521/9/5 445/7/5
f 467/1/6 520/3/6 522/9/6 468/7/6
f 469/3/1 470/9/1 468/7/1 467/1/1
f 469/7/2 467/1/2 520/3/2 523/9/2
f 467/3/3 468/9/3 522/7/3 520/1/3
f 523/1/4 520/3/4 522/9/4 524/7/4
f 470/1/5 524/3/5 522/9/5 468/7/5
f 469/1/6 523/3/6 524/9/6 470/7/6
f 471/3/1 472/9/1 470/7/1 469/1/1
f 471/7/2 469/1/2 523/3/2 525/9/2
f 469/3/3 470/9/3 524/7/3 523/1/3
f 525/1/4 523/3/4 524/9/4 526/7/4
f 472/1/5 526/3/5 524/9/5 470/7/5
f 471/1/6 525/3/6 526/9/6 472/7/6
f 484/3/1 485/9/1 472/7/1 471/1/1
f 484/7/2 471/1/2 525/3/2 527/9/2
f 471/3/3 472/9/3 526/7/3 525/1/3
f 527/1/4 525/3/4 526/9/4 528/7/4
f 485/1/5 528/3/5 526/9/5 472/7/5
f 484/1/6 527/3/6 528/9/6 485/7/6
f 497/3/1 498/9/1 485/7/1 484/1/1
f 497/7/2 484/1/2 527/3/2 529/9/2
f 484/3/3 485/9/3 528/7/3 527/1/3
f 529/1/4 527/3/4 528/9/4 530/7/4
f 498/1/5 530/3/5 528/9/5 485/7/5
f 497/1/6 529/3/6 530/9/6 498/7/6
f 541/3/1 542/9/1 504/7/1 503/1/1
f 541/7/2 503/1/2 539/3/2 543/9/2
f 503/3/3 504/9/3 540/7/3 539/1/3
f 543/1/4 539/3/4 540/9/4 544/7/4
f 542/1/5 544/3/5 540/9/5 504/7/5
f 541/1/6 543/3/6 544/9/6 542/7/6
f 508/3/1 509/9/1 546/7/1 545/1/1
f 508/7/2 545/1/2 548/3/2 547/9/2
f 545/3/3 546/9/3 549/7/3 548/1/3
f 547/1/4 548/3/4 549/9/4 550/7/4
f 509/1/5 550/3/5 549/9/5 546/7/5
f 508/1/6 547/3/6 550/9/6 509/7/6
f 513/3/1 514/9/1 554/7/1 510/1/1
f 513/7/2 510/1/2 551/3/2 555/9/2
f 510/3/3 554/9/3 556/7/3 551/1/3
f 555/1/4 551/3/4 556/9/4 557/7/4
f 514/1/5 557/3/5 556/9/5 554/7/5
f 513/1/6 555/3/6 557/9/6 514/7/6
f 514/3/1 515/9/1 558/7/1 554/1/1
f 514/7/2 554/1/2 556/3/2 557/9/2
f 554/3/3 558/9/3 559/7/3 556/1/3
f 557/1/4 556/3/4 559/9/4 560/7/4
f 515/1/5 560/3/5 559/9/5 558/7/5
f 514/1/6 557/3/6 560/9/6 515/7/6
f 515/3/1 516/9/1 561/7/1 558/1/1
f 515/7/2 558/1/2 559/3/2 560/9/2
f 558/3/3 561/9/3 562/7/3 559/1/3
f 560/1/4 559/3/4 562/9/4 563/7/4
f 516/1/5 563/3/5 562/9/5 561/7/5
f 515/1/6 560/3/6 563/9/6 516/7/6
f 516/3/1 517/9/1 564/7/1 561/1/1
f 516/7/2 561/1/2 562/3/2 563/9/2
f 561/3/3 564/9/3 565/7/3 562/1/3
f 563/1/4 562/3/4 565/9/4 566/7/4
f 517/1/5 566/3/5 565/9/5 564/7/5
f 516/1/6 563/3/6 566/9/6 517/7/6
f 517/3/1 518/9/1 567/7/1 564/1/1
f 517/7/2 564/1/2 565/3/2 566/9/2
f 564/3/3 567/9/3 568/7/3 565/1/3
f 566/1/4 565/3/4 568/9/4 569/7/4
f 518/1/5 569/3/5 568/9/5 567/7/5
f 517/1/6 566/3/6 569/9/6 518/7/6
f 570/3/1 572/9/1 512/7/1 511/1/1
f 570/7/2 511/1/2 552/3/2 571/9/2
f 511/3/3 512/9/3 553/7/3 552/1/3
f 571/1/4 552/3/4 553/9/4 573/7/4
f 572/1/5 573/3/5 553/9/5 512/7/5
f 570/1/6 571/3/6 573/9/6 572/7/6
f 519/3/1 521/9/1 572/7/1 570/1/1
f 519/7/2 570/1/2 571/3/2 574/9/2
f 570/3/3 572/9/3 573/7/3 571/1/3
f 574/1/4 571/3/4 573/9/4 575/7/4
f 521/1/5 575/3/5 573/9/5 572/7/5
f 519/1/6 574/3/6 575/9/6 521/7/6
f 520/3/1 522/9/1 521/7/1 519/1/1
f 520/7/2 519/1/2 574/3/2 576/9/2
f 519/3/3 521/9/3 575/7/3 574/1/3
f 576/1/4 574/3/4 575/9/4 577/7/4
f 522/1/5 577/3/5 575/9/5 521/7/5
f 520/1/6 576/3/6 577/9/6 522/7/6
f 523/3/1 524/9/1 522/7/1 520/1/1
f 523/7/2 520/1/2 576/3/2 578/9/2
f 520/3/3 522/9/3 577/7/3 576/1/3
f 578/1/4 576/3/4 577/9/4 579/7/4
f 524/1/5 579/3/5 577/9/5 522/7/5
f 523/1/6 578/3/6 579/9/6 524/7/6
f 525/3/1 526/9/1 524/7/1 523/1/1
f 525/7/2 523/1/2 578/3/2 580/9/2
f 523/3/3 524/9/3 579/7/3 578/1/3
f 580/1/4 578/3/4 579/9/4 581/7/4
f 526/1/5 581/3/5 579/9/5 524/7/5
f 525/1/6 580/3/6 581/9/6 526/7/6
f 529/3/1 530/9/1 528/7/1 527/1/1
f 529/7/2 527/1/2 582/3/2 583/9/2
f 527/3/3 528/9/3 584/7/3 582/1/3
f 583/1/4 582/3/4 584/9/4 585/7/4
f 530/1/5 585/3/5 584/9/5 528/7/5
f 529/1/6 583/3/6 585/9/6 530/7/6
f 537/3/1 538/9/1 530/7/1 529/1/1
f 537/7/2 529/1/2 583/3/2 588/9/2
f 529/3/3 530/9/3 585/7/3 583/1/3
f 588/1/4 583/3/4 585/9/4 589/7/4
f 538/1/5 589/3/5 585/9/5 530/7/5
f 537/1/6 588/3/6 589/9/6 538/7/6
f 540/3/1 590/9/1 532/7/1 531/1/1
f 540/7/2 531/1/2 592/3/2 591/9/2
f 531/3/3 532/9/3 593/7/3 592/1/3
f 591/1/4 592/3/4 593/9/4 594/7/4
f 590/1/5 594/3/5 593/9/5 532/7/5
f 540/1/6 591/3/6 594/9/6 590/7/6
f 590/3/1 595/9/1 533/7/1 532/1/1
f 590/7/2 532/1/2 593/3/2 594/9/2
f 532/3/3 533/9/3 596/7/3 593/1/3
f 594/1/4 593/3/4 596/9/4 597/7/4
f 595/1/5 597/3/5 596/9/5 533/7/5
f 590/1/6 594/3/6 597/9/6 595/7/6
f 595/3/1 598/9/1 534/7/1 533/1/1
f 595/7/2 533/1/2 596/3/2 597/9/2
f 533/3/3 534/9/3 599/7/3 596/1/3
f 597/1/4 596/3/4 599/9/4 600/7/4
f 598/1/5 600/3/5 599/9/5 534/7/5
f 595/1/6 597/3/6 600/9/6 598/7/6
f 598/3/1 601/9/1 535/7/1 534/1/1
f 598/7/2 534/1/2 599/3/2 600/9/2
f 534/3/3 535/9/3 586/7/3 599/1/3
f 600/1/4 599/3/4 586/9/4 602/7/4
f 601/1/5 602/3/5 586/9/5 535/7/5
f 598/1/6 600/3/6 602/9/6 601/7/6
f 601/3/1 603/9/1 536/7/1 535/1/1
f 601/7/2 535/1/2 586/3/2 602/9/2
f 535/3/3 536/9/3 587/7/3 586/1/3
f 602/1/4 586/3/4 587/9/4 604/7/4
f 603/1/5 604/3/5 587/9/5 536/7/5
f 601/1/6 602/3/6 604/9/6 603/7/6
f 607/3/1 608/9/1 544/7/1 543/1/1
f 607/7/2 543/1/2 605/3/2 609/9/2
f 543/3/3 544/9/3 606/7/3 605/1/3
f 609/1/4 605/3/4 606/9/4 610/7/4
f 608/1/5 610/3/5 606/9/5 544/7/5
f 607/1/6 609/3/6 610/9/6 608/7/6
f 547/3/1 550/9/1 549/7/1 548/1/1
f 547/7/2 548/1/2 612/3/2 611/9/2
f 548/3/3 549/9/3 613/7/3 612/1/3
f 611/1/4 612/3/4 613/9/4 614/7/4
f 550/1/5 614/3/5 613/9/5 549/7/5
f 547/1/6 611/3/6 614/9/6 550/7/6
f 574/3/1 575/9/1 573/7/1 571/1/1
f 574/7/2 571/1/2 615/3/2 617/9/2
f 571/3/3 573/9/3 616/7/3 615/1/3
f 617/1/4 615/3/4 616/9/4 618/7/4
f 575/1/5 618/3/5 616/9/5 573/7/5
f 574/1/6 617/3/6 618/9/6 575/7/6
f 576/3/1 577/9/1 575/7/1 574/1/1
f 576/7/2 574/1/2 617/3/2 619/9/2
f 574/3/3 575/9/3 618/7/3 617/1/3
f 619/1/4 617/3/4 618/9/4 620/7/4
f 577/1/5 620/3/5 618/9/5 575/7/5
f 576/1/6 619/3/6 620/9/6 577/7/6
f 580/3/1 581/9/1 579/7/1 578/1/1
f 580/7/2 578/1/2 621/3/2 622/9/2
f 578/3/3 579/9/3 623/7/3 621/1/3
f 622/1/4 621/3/4 623/9/4 624/7/4
f 581/1/5 624/3/5 623/9/5 579/7/5
f 580/1/6 622/3/6 624/9/6 581/7/6
f 583/3/1 585/9/1 584/7/1 582/1/1
f 583/7/2 582/1/2 625/3/2 626/9/2
f 582/3/3 584/9/3 627/7/3 625/1/3
f 626/1/4 625/3/4 627/9/4 628/7/4
f 585/1/5 628/3/5 627/9/5 584/7/5
f 583/1/6 626/3/6 628/9/6 585/7/6
f 588/3/1 589/9/1 585/7/1 583/1/1
f 588/7/2 583/1/2 626/3/2 629/9/2
f 583/3/3 585/9/3 628/7/3 626/1/3
f 629/1/4 626/3/4 628/9/4 630/7/4
f 589/1/5 630/3/5 628/9/5 585/7/5
f 588/1/6 629/3/6 630/9/6 589/7/6
f 609/3/1 610/9/1 606/7/1 605/1/1
f 609/7/2 605/1/2 633/3/2 635/9/2
f 605/3/3 606/9/3 634/7/3 633/1/3
f 635/1/4 633/3/4 634/9/4 636/7/4
f 610/1/5 636/3/5 634/9/5 606/7/5
f 609/1/6 635/3/6 636/9/6 610/7/6
f 611/3/1 614/9/1 613/7/1 612/1/1
f 611/7/2 612/1/2 638/3/2 637/9/2
f 612/3/3 613/9/3 639/7/3 638/1/3
f 637/1/4 638/3/4 639/9/4 640/7/4
f 614/1/5 640/3/5 639/9/5 613/7/5
f 611/1/6 637/3/6 640/9/6 614/7/6
f 617/3/1 618/9/1 616/7/1 615/1/1
f 617/7/2 615/1/2 641/3/2 642/9/2
f 615/3/3 616/9/3 643/7/3 641/1/3
f 642/1/4 641/3/4 643/9/4 644/7/4
f 618/1/5 644/3/5 643/9/5 616/7/5
f 617/1/6 642/3/6 644/9/6 618/7/6
f 619/3/1 620/9/1 618/7/1 617/1/1
f 619/7/2 617/1/2 642/3/2 645/9/2
f 617/3/3 618/9/3 644/7/3 642/1/3
f 645/1/4 642/3/4 644/9/4 646/7/4
f 620/1/5 646/3/5 644/9/5 618/7/5
f 619/1/6 645/3/6 646/9/6 620/7/6
f 621/3/1 623/9/1 620/7/1 619/1/1
f 621/7/2 619/1/2 645/3/2 647/9/2
f 619/3/3 620/9/3 646/7/3 645/1/3
f 647/1/4 645/3/4 646/9/4 648/7/4
f 623/1/5 648/3/5 646/9/5 620/7/5
f 621/1/6 647/3/6 648/9/6 623/7/6
f 622/3/1 624/9/1 623/7/1 621/1/1
f 622/7/2 621/1/2 647/3/2 649/9/2
f 621/3/3 623/9/3 648/7/3 647/1/3
f 649/1/4 647/3/4 648/9/4 650/7/4
f 624/1/5 650/3/5 648/9/5 623/7/5
f 622/1/6 649/3/6 650/9/6 624/7/6
f 626/3/1 628/9/1 627/7/1 625/1/1
f 626/7/2 625/1/2 651/3/2 653/9/2
f 625/3/3 627/9/3 652/7/3 651/1/3
f 653/1/4 651/3/4 652/9/4 654/7/4
f 628/1/5 654/3/5 652/9/5 627/7/5
f 626/1/6 653/3/6 654/9/6 628/7/6
f 629/3/1 630/9/1 628/7/1 626/1/1
f 629/7/2 626/1/2 653/3/2 655/9/2
f 626/3/3 628/9/3 654/7/3 653/1/3
f 655/1/4 653/3/4 654/9/4 656/7/4
f 630/1/5 656/3/5 654/9/5 628/7/5
f 629/1/6 655/3/6 656/9/6 630/7/6
f 631/3/1 632/9/1 630/7/1 629/1/1
f 631/7/2 629/1/2 655/3/2 657/9/2
f 629/3/3 630/9/3 656/7/3 655/1/3
f 657/1/4 655/3/4 656/9/4 658/7/4
f 632/1/5 658/3/5 656/9/5 630/7/5
f 631/1/6 657/3/6 658/9/6 632/7/6
f 635/3/1 636/9/1 634/7/1 633/1/1
f 635/7/2 633/1/2 659/3/2 661/9/2
f 633/3/3 634/9/3 660/7/3 659/1/3
f 661/1/4 659/3/4 660/9/4 662/7/4
f 636/1/5 662/3/5 660/9/5 634/7/5
f 635/1/6 661/3/6 662/9/6 636/7/6
f 637/3/1 640/9/1 639/7/1 638/1/1
f 637/7/2 638/1/2 664/3/2 663/9/2
f 638/3/3 639/9/3 665/7/3 664/1/3
f 663/1/4 664/3/4 665/9/4 666/7/4
f 640/1/5 666/3/5 665/9/5 639/7/5
f 637/1/6 663/3/6 666/9/6 640/7/6
f 642/3/1 644/9/1 643/7/1 641/1/1
f 642/7/2 641/1/2 681/3/2 683/9/2
f 641/3/3 643/9/3 682/7/3 681/1/3
f 683/1/4 681/3/4 682/9/4 684/7/4
f 644/1/5 684/3/5 682/9/5 643/7/5
f 642/1/6 683/3/6 684/9/6 644/7/6
f 645/3/1 646/9/1 644/7/1 642/1/1
f 645/7/2 642/1/2 683/3/2 685/9/2
f 642/3/3 644/9/3 684/7/3 683/1/3
f 685/1/4 683/3/4 684/9/4 686/7/4
f 646/1/5 686/3/5 684/9/5 644/7/5
f 645/1/6 685/3/6 686/9/6 646/7/6
f 647/3/1 648/9/1 646/7/1 645/1/1
f 647/7/2 645/1/2 685/3/2 687/9/2
f 645/3/3 646/9/3 686/7/3 685/1/3
f 687/1/4 685/3/4 686/9/4 688/7/4
f 648/1/5 688/3/5 686/9/5 646/7/5
f 647/1/6 687/3/6 688/9/6 648/7/6
f 649/3/1 650/9/1 648/7/1 647/1/1
f 649/7/2 647/1/2 687/3/2 689/9/2
f 647/3/3 648/9/3 688/7/3 687/1/3
f 689/1/4 687/3/4 688/9/4 690/7/4
f 650/1/5 690/3/5 688/9/5 648/7/5
f 649/1/6 689/3/6 690/9/6 650/7/6
f 651/3/1 652/9/1 650/7/1 649/1/1
f 651/7/2 649/1/2 689/3/2 691/9/2
f 649/3/3 650/9/3 690/7/3 689/1/3
f 691/1/4 689/3/4 690/9/4 692/7/4
f 652/1/5 692/3/5 690/9/5 650/7/5
f 651/1/6 691/3/6 692/9/6 652/7/6
f 653/3/1 654/9/1 652/7/1 651/1/1
f 653/7/2 651/1/2 691/3/2 693/9/2
f 651/3/3 652/9/3 692/7/3 691/1/3
f 693/1/4 691/3/4 692/9/4 694/7/4
f 654/1/5 694/3/5 692/9/5 652/7/5
f 653/1/6 693/3/6 694/9/6 654/7/6
f 655/3/1 656/9/1 654/7/1 653/1/1
f 655/7/2 653/1/2 693/3/2 697/9/2
f 653/3/3 654/9/3 694/7/3 693/1/3
f 697/1/4 693/3/4 694/9/4 698/7/4
f 656/1/5 698/3/5 694/9/5 654/7/5
f 655/1/6 697/3/6 698/9/6 656/7/6
f 661/3/1 662/9/1 660/7/1 659/1/1
f 661/7/2 659/1/2 709/3/2 711/9/2
f 659/3/3 660/9/3 710/7/3 709/1/3
f 711/1/4 709/3/4 710/9/4 712/7/4
f 662/1/5 712/3/5 710/9/5 660/7/5
f 661/1/6 711/3/6 712/9/6 662/7/6
f 663/3/1 666/9/1 665/7/1 664/1/1
f 663/7/2 664/1/2 714/3/2 713/9/2
f 664/3/3 665/9/3 715/7/3 714/1/3
f 713/1/4 714/3/4 715/9/4 716/7/4
f 666/1/5 716/3/5 715/9/5 665/7/5
f 663/1/6 713/3/6 716/9/6 666/7/6
f 670/3/1 672/9/1 671/7/1 667/1/1
f 670/7/2 667/1/2 718/3/2 721/9/2
f 667/3/3 671/9/3 722/7/3 718/1/3
f 721/1/4 718/3/4 722/9/4 723/7/4
f 672/1/5 723/3/5 722/9/5 671/7/5
f 670/1/6 721/3/6 723/9/6 672/7/6
f 672/3/1 674/9/1 673/7/1 671/1/1
f 672/7/2 671/1/2 722/3/2 723/9/2
f 671/3/3 673/9/3 724/7/3 722/1/3
f 723/1/4 722/3/4 724/9/4 725/7/4
f 674/1/5 725/3/5 724/9/5 673/7/5
f 672/1/6 723/3/6 725/9/6 674/7/6
f 674/3/1 676/9/1 675/7/1 673/1/1
f 674/7/2 673/1/2 724/3/2 725/9/2
f 673/3/3 675/9/3 726/7/3 724/1/3
f 725/1/4 724/3/4 726/9/4 727/7/4
f 676/1/5 727/3/5 726/9/5 675/7/5
f 674/1/6 725/3/6 727/9/6 676/7/6
f 676/3/1 678/9/1 677/7/1 675/1/1
f 676/7/2 675/1/2 726/3/2 727/9/2
f 675/3/3 677/9/3 728/7/3 726/1/3
f 727/1/4 726/3/4 728/9/4 729/7/4
f 678/1/5 729/3/5 728/9/5 677/7/5
f 676/1/6 727/3/6 729/9/6 678/7/6
f 678/3/1 680/9/1 679/7/1 677/1/1
f 678/7/2 677/1/2 728/3/2 729/9/2
f 677/3/3 679/9/3 730/7/3 728/1/3
f 729/1/4 728/3/4 730/9/4 731/7/4
f 680/1/5 731/3/5 730/9/5 679/7/5
f 678/1/6 729/3/6 731/9/6 680/7/6
f 681/3/1 682/9/1 669/7/1 668/1/1
f 681/7/2 668/1/2 719/3/2 732/9/2
f 668/3/3 669/9/3 720/7/3 719/1/3
f 732/1/4 719/3/4 720/9/4 733/7/4
f 682/1/5 733/3/5 720/9/5 669/7/5
f 681/1/6 732/3/6 733/9/6 682/7/6
f 685/3/1 686/9/1 684/7/1 683/1/1
f 685/7/2 683/1/2 734/3/2 736/9/2
f 683/3/3 684/9/3 735/7/3 734/1/3
f 736/1/4 734/3/4 735/9/4 737/7/4
f 686/1/5 737/3/5 735/9/5 684/7/5
f 685/1/6 736/3/6 737/9/6 686/7/6
f 689/3/1 690/9/1 688/7/1 687/1/1
f 689/7/2 687/1/2 738/3/2 740/9/2
f 687/3/3 688/9/3 739/7/3 738/1/3
f 740/1/4 738/3/4 739/9/4 741/7/4
f 690/1/5 741/3/5 739/9/5 688/7/5
f 689/1/6 740/3/6 741/9/6 690/7/6
f 691/3/1 692/9/1 690/7/1 689/1/1
f 691/7/2 689/1/2 740/3/2 742/9/2
f 689/3/3 690/9/3 741/7/3 740/1/3
f 742/1/4 740/3/4 741/9/4 743/7/4
f 692/1/5 743/3/5 741/9/5 690/7/5
f 691/1/6 742/3/6 743/9/6 692/7/6
f 693/3/1 694/9/1 692/7/1 691/1/1
f 693/7/2 691/1/2 742/3/2 744/9/2
f 691/3/3 692/9/3 743/7/3 742/1/3
f 744/1/4 742/3/4 743/9/4 745/7/4
f 694/1/5 745/3/5 743/9/5 692/7/5
f 693/1/6 744/3/6 745/9/6 694/7/6
f 699/3/1 702/9/1 701/7/1 700/1/1
f 699/7/2 700/1/2 746/3/2 751/9/2
f 700/3/3 701/9/3 747/7/3 746/1/3
f 751/1/4 746/3/4 747/9/4 752/7/4
f 702/1/5 752/3/5 747/9/5 701/7/5
f 699/1/6 751/3/6 752/9/6 702/7/6
f 702/3/1 704/9/1 703/7/1 701/1/1
f 702/7/2 701/1/2 747/3/2 752/9/2
f 701/3/3 703/9/3 753/7/3 747/1/3
f 752/1/4 747/3/4 753/9/4 754/7/4
f 704/1/5 754/3/5 753/9/5 703/7/5
f 702/1/6 752/3/6 754/9/6 704/7/6
f 704/3/1 706/9/1 705/7/1 703/1/1
f 704/7/2 703/1/2 753/3/2 754/9/2
f 703/3/3 705/9/3 755/7/3 753/1/3
f 754/1/4 753/3/4 755/9/4 756/7/4
f 706/1/5 756/3/5 755/9/5 705/7/5
f 704/1/6 754/3/6 756/9/6 706/7/6
f 706/3/1 707/9/1 695/7/1 705/1/1
f 706/7/2 705/1/2 755/3/2 756/9/2
f 705/3/3 695/9/3 748/7/3 755/1/3
f 756/1/4 755/3/4 748/9/4 757/7/4
f 707/1/5 757/3/5 748/9/5 695/7/5
f 706/1/6 756/3/6 757/9/6 707/7/6
f 707/3/1 708/9/1 696/7/1 695/1/1
f 707/7/2 695/1/2 748/3/2 757/9/2
f 695/3/3 696/9/3 749/7/3 748/1/3
f 757/1/4 748/3/4 749/9/4 758/7/4
f 708/1/5 758/3/5 749/9/5 696/7/5
f 707/1/6 757/3/6 758/9/6 708/7/6
f 711/3/1 712/9/1 710/7/1 709/1/1
f 711/7/2 709/1/2 759/3/2 761/9/2
f 709/3/3 710/9/3 760/7/3 759/1/3
f 761/1/4 759/3/4 760/9/4 762/7/4
f 712/1/5 762/3/5 760/9/5 710/7/5
f 711/1/6 761/3/6 762/9/6 712/7/6
f 717/3/1 718/9/1 716/7/1 713/1/1
f 717/7/2 713/1/2 764/3/2 763/9/2
f 713/3/3 716/9/3 765/7/3 764/1/3
f 763/1/4 764/3/4 765/9/4 766/7/4
f 718/1/5 766/3/5 765/9/5 716/7/5
f 717/1/6 763/3/6 766/9/6 718/7/6
f 734/3/1 735/9/1 733/7/1 732/1/1
f 734/7/2 732/1/2 769/3/2 777/9/2
f 732/3/3 733/9/3 770/7/3 769/1/3
f 777/1/4 769/3/4 770/9/4 778/7/4
f 735/1/5 778/3/5 770/9/5 733/7/5
f 734/1/6 777/3/6 778/9/6 735/7/6
f 736/3/1 737/9/1 735/7/1 734/1/1
f 736/7/2 734/1/2 777/3/2 781/9/2
f 734/3/3 735/9/3 778/7/3 777/1/3
f 781/1/4 777/3/4 778/9/4 782/7/4
f 737/1/5 782/3/5 778/9/5 735/7/5
f 736/1/6 781/3/6 782/9/6 737/7/6
f 738/3/1 739/9/1 737/7/1 736/1/1
f 738/7/2 736/1/2 781/3/2 783/9/2
f 736/3/3 737/9/3 782/7/3 781/1/3
f 783/1/4 781/3/4 782/9/4 784/7/4
f 739/1/5 784/3/5 782/9/5 737/7/5
f 738/1/6 783/3/6 784/9/6 739/7/6
f 740/3/1 741/9/1 739/7/1 738/1/1
f 740/7/2 738/1/2 783/3/2 785/9/2
f 738/3/3 739/9/3 784/7/3 783/1/3
f 785/1/4 783/3/4 784/9/4 786/7/4
f 741/1/5 786/3/5 784/9/5 739/7/5
f 740/1/6 785/3/6 786/9/6 741/7/6
f 742/3/1 743/9/1 741/7/1 740/1/1
f 742/7/2 740/1/2 785/3/2 789/9/2
f 740/3/3 741/9/3 786/7/3 785/1/3
f 789/1/4 785/3/4 786/9/4 790/7/4
f 743/1/5 790/3/5 786/9/5 741/7/5
f 742/1/6 789/3/6 790/9/6 743/7/6
f 759/3/1 760/9/1 751/7/1 750/1/1
f 759/7/2 750/1/2 803/3/2 805/9/2
f 750/3/3 751/9/3 804/7/3 803/1/3
f 805/1/4 803/3/4 804/9/4 806/7/4
f 760/1/5 806/3/5 804/9/5 751/7/5
f 759/1/6 805/3/6 806/9/6 760/7/6
f 767/3/1 768/9/1 766/7/1 763/1/1
f 767/7/2 763/1/2 808/3/2 807/9/2
f 763/3/3 766/9/3 809/7/3 808/1/3
f 807/1/4 808/3/4 809/9/4 810/7/4
f 768/1/5 810/3/5 809/9/5 766/7/5
f 767/1/6 807/3/6 810/9/6 768/7/6
f 813/3/1 814/9/1 772/7/1 771/1/1
f 813/7/2 771/1/2 812/3/2 815/9/2
f 771/3/3 772/9/3 816/7/3 812/1/3
f 815/1/4 812/3/4 816/9/4 817/7/4
f 814/1/5 817/3/5 816/9/5 772/7/5
f 813/1/6 815/3/6 817/9/6 814/7/6
f 814/3/1 818/9/1 773/7/1 772/1/1
f 814/7/2 772/1/2 816/3/2 817/9/2
f 772/3/3 773/9/3 819/7/3 816/1/3
f 817/1/4 816/3/4 819/9/4 820/7/4
f 818/1/5 820/3/5 819/9/5 773/7/5
f 814/1/6 817/3/6 820/9/6 818/7/6
f 818/3/1 821/9/1 774/7/1 773/1/1
f 818/7/2 773/1/2 819/3/2 820/9/2
f 773/3/3 774/9/3 822/7/3 819/1/3
f 820/1/4 819/3/4 822/9/4 823/7/4
f 821/1/5 823/3/5 822/9/5 774/7/5
f 818/1/6 820/3/6 823/9/6 821/7/6
f 821/3/1 779/9/1 775/7/1 774/1/1
f 821/7/2 774/1/2 822/3/2 823/9/2
f 774/3/3 775/9/3 824/7/3 822/1/3
f 823/1/4 822/3/4 824/9/4 825/7/4
f 779/1/5 825/3/5 824/9/5 775/7/5
f 821/1/6 823/3/6 825/9/6 779/7/6
f 779/3/1 780/9/1 776/7/1 775/1/1
f 779/7/2 775/1/2 824/3/2 825/9/2
f 775/3/3 776/9/3 826/7/3 824/1/3
f 825/1/4 824/3/4 826/9/4 827/7/4
f 780/1/5 827/3/5 826/9/5 776/7/5
f 779/1/6 825/3/6 827/9/6 780/7/6
f 783/3/1 784/9/1 782/7/1 781/1/1
f 783/7/2 781/1/2 828/3/2 830/9/2
f 781/3/3 782/9/3 829/7/3 828/1/3
f 830/1/4 828/3/4 829/9/4 831/7/4
f 784/1/5 831/3/5 829/9/5 782/7/5
f 783/1/6 830/3/6 831/9/6 784/7/6
f 785/3/1 786/9/1 784/7/1 783/1/1
f 785/7/2 783/1/2 830/3/2 832/9/2
f 783/3/3 784/9/3 831/7/3 830/1/3
f 832/1/4 830/3/4 831/9/4 833/7/4
f 786/1/5 833/3/5 831/9/5 784/7/5
f 785/1/6 832/3/6 833/9/6 786/7/6
f 792/3/1 794/9/1 793/7/1 791/1/1
f 792/7/2 791/1/2 834/3/2 840/9/2
f 791/3/3 793/9/3 835/7/3 834/1/3
f 840/1/4 834/3/4 835/9/4 841/7/4
f 794/1/5 841/3/5 835/9/5 793/7/5
f 792/1/6 840/3/6 841/9/6 794/7/6
f 794/3/1 796/9/1 795/7/1 793/1/1
f 794/7/2 793/1/2 835/3/2 841/9/2
f 793/3/3 795/9/3 836/7/3 835/1/3
f 841/1/4 835/3/4 836/9/4 842/7/4
f 796/1/5 842/3/5 836/9/5 795/7/5
f 794/1/6 841/3/6 842/9/6 796/7/6
f 796/3/1 798/9/1 797/7/1 795/1/1
f 796/7/2 795/1/2 836/3/2 842/9/2
f 795/3/3 797/9/3 837/7/3 836/1/3
f 842/1/4 836/3/4 837/9/4 843/7/4
f 798/1/5 843/3/5 837/9/5 797/7/5
f 796/1/6 842/3/6 843/9/6 798/7/6
f 798/3/1 799/9/1 787/7/1 797/1/1
f 798/7/2 797/1/2 837/3/2 843/9/2
f 797/3/3 787/9/3 838/7/3 837/1/3
f 843/1/4 837/3/4 838/9/4 844/7/4
f 799/1/5 844/3/5 838/9/5 787/7/5
f 798/1/6 843/3/6 844/9/6 799/7/6
f 799/3/1 800/9/1 788/7/1 787/1/1
f 799/7/2 787/1/2 838/3/2 844/9/2
f 787/3/3 788/9/3 839/7/3 838/1/3
f 844/1/4 838/3/4 839/9/4 845/7/4
f 800/1/5 845/3/5 839/9/5 788/7/5
f 799/1/6 844/3/6 845/9/6 800/7/6
f 803/3/1 804/9/1 802/7/1 801/1/1
f 803/7/2 801/1/2 847/3/2 849/9/2
f 801/3/3 802/9/3 848/7/3 847/1/3
f 849/1/4 847/3/4 848/9/4 850/7/4
f 804/1/5 850/3/5 848/9/5 802/7/5
f 803/1/6 849/3/6 850/9/6 804/7/6
f 811/3/1 812/9/1 810/7/1 807/1/1
f 811/7/2 807/1/2 852/3/2 851/9/2
f 807/3/3 810/9/3 853/7/3 852/1/3
f 851/1/4 852/3/4 853/9/4 854/7/4
f 812/1/5 854/3/5 853/9/5 810/7/5
f 811/1/6 851/3/6 854/9/6 812/7/6
f 847/3/1 848/9/1 840/7/1 846/1/1
f 847/7/2 846/1/2 863/3/2 865/9/2
f 846/3/3 840/9/3 864/7/3 863/1/3
f 865/1/4 863/3/4 864/9/4 866/7/4
f 848/1/5 866/3/5 864/9/5 840/7/5
f 847/1/6 865/3/6 866/9/6 848/7/6
f 855/3/1 856/9/1 854/7/1 851/1/1
f 855/7/2 851/1/2 868/3/2 867/9/2
f 851/3/3 854/9/3 869/7/3 868/1/3
f 867/1/4 868/3/4 869/9/4 870/7/4
f 856/1/5 870/3/5 869/9/5 854/7/5
f 855/1/6 867/3/6 870/9/6 856/7/6
f 857/3/1 858/9/1 856/7/1 855/1/1
f 857/7/2 855/1/2 867/3/2 871/9/2
f 855/3/3 856/9/3 870/7/3 867/1/3
f 871/1/4 867/3/4 870/9/4 872/7/4
f 858/1/5 872/3/5 870/9/5 856/7/5
f 857/1/6 871/3/6 872/9/6 858/7/6
f 859/3/1 860/9/1 858/7/1 857/1/1
f 859/7/2 857/1/2 871/3/2 873/9/2
f 857/3/3 858/9/3 872/7/3 871/1/3
f 873/1/4 871/3/4 872/9/4 874/7/4
f 860/1/5 874/3/5 872/9/5 858/7/5
f 859/1/6 873/3/6 874/9/6 860/7/6
f 861/3/1 862/9/1 860/7/1 859/1/1
f 861/7/2 859/1/2 873/3/2 875/9/2
f 859/3/3 860/9/3 874/7/3 873/1/3
f 875/1/4 873/3/4 874/9/4 876/7/4
f 862/1/5 876/3/5 874/9/5 860/7/5
f 861/1/6 875/3/6 876/9/6 862/7/6
f 863/3/1 864/9/1 862/7/1 861/1/1
f 863/7/2 861/1/2 875/3/2 877/9/2
f 861/3/3 862/9/3 876/7/3 875/1/3
f 877/1/4 875/3/4 876/9/4 878/7/4
f 864/1/5 878/3/5 876/9/5 862/7/5
f 863/1/6 877/3/6 878/9/6 864/7/6
