mtllib lighthouse.mtl
usemtl smooth_basalt
v -5 4 -9
v -5 4 -8
v -5 5 -8
v -4 2 -10
v -4 3 -10
v -4 2 -9
v -4 3 -9
v -4 4 -9
v -4 3 -8
v -4 4 -8
v -5 5 -9
v -4 5 -9
v -4 5 -8
v -4 3 -5
v -4 4 -5
v -4 3 -4
v -4 4 -4
v -3 2 -10
v -3 2 -9
v -3 3 -10
v -3 3 -9
v -3 3 -8
v -3 4 -9
v -3 4 -8
v -3 3 -5
v -3 3 -4
v -3 4 -5
v -3 4 -4
v -3 5 -5
v -3 5 -4
v -2 3 -5
v -2 3 -4
v -2 4 -5
v -2 4 -4
v -2 5 -5
v -2 5 -4
v -2 6 -5
v -1 0 -13
v -1 1 -13
v -1 2 -13
v -1 0 -12
v -1 1 -12
v -1 2 -12
v -1 2 -11
v -2 4 -6
v -2 5 -6
v -1 4 -5
v -1 4 -6
v -1 5 -6
v -1 5 -5
v -2 6 -6
v -1 6 -6
v -1 6 -5
v -1 3 -4
v -1 3 -5
v -1 4 -4
v -1 5 -4
v 0 0 -13
v 0 1 -13
v 0 2 -13
v 0 0 -12
v 0 1 -12
v 0 2 -12
v 0 2 -11
v -1 3 -11
v -1 3 -12
v 0 3 -12
v 0 3 -11
v -1 4 -11
v -1 4 -12
v 0 4 -12
v 0 4 -11
v 0 2 -10
v 0 3 -10
v 1 2 -11
v 1 2 -10
v 1 3 -11
v 1 3 -10
v 1 2 -8
v 1 3 -9
v 1 3 -8
v 1 4 -9
v 1 4 -8
v 1 2 -7
v 1 3 -7
v 1 4 -7
v 1 2 -3
v 1 3 -3
v 1 4 -3
v 1 2 -2
v 1 3 -2
v 1 4 -2
v 2 2 -8
v 2 3 -9
v 2 3 -8
v 2 4 -9
v 2 4 -8
v 2 2 -7
v 2 3 -7
v 2 4 -7
v 2 2 -3
v 2 3 -3
v 2 4 -3
v 2 2 -2
v 2 3 -2
v 2 4 -2
v 3 2 -3
v 3 3 -3
v 3 4 -3
v 3 2 -2
v 3 3 -2
v 3 4 -2
v 3 4 -1
v 3 5 -2
v 3 5 -1
v 4 5 -2
v 4 6 -2
v 4 7 -2
v 4 4 -2
v 4 4 -1
v 4 5 -1
v 4 6 -1
v 4 7 -1
v 5 0 -10
v 5 1 -10
v 5 0 -9
v 5 1 -9
v 5 6 -2
v 5 7 -2
v 5 5 -2
v 5 5 -1
v 5 6 -1
v 5 7 -1
v 6 0 -10
v 6 1 -10
v 6 0 -9
v 6 1 -9
v 6 3 -1
v 6 4 -1
v 6 5 -2
v 6 5 -1
v 6 6 -2
v 6 6 -1
v 6 3 0
v 6 4 0
v 6 5 0
v 7 5 -1
v 7 3 -1
v 7 3 0
v 7 4 -1
v 7 4 0
v 7 5 0
v 7 4 2
v 7 5 2
v 7 6 2
v 7 4 3
v 7 5 3
v 7 6 3
v 7 3 6
v 7 4 6
v 7 3 7
v 7 4 7
v 7 5 7
v 7 4 8
v 7 5 8
v 8 4 2
v 8 5 2
v 8 6 2
v 8 4 3
v 8 5 3
v 8 6 3
v 8 3 6
v 8 4 6
v 8 3 7
v 8 4 7
v 8 5 7
v 8 2 8
v 8 3 8
v 8 4 8
v 8 5 8
v 8 6 8
v 8 2 9
v 8 3 9
v 8 4 9
v 8 5 9
v 8 6 9
v 8 7 8
v 8 7 9
v 9 4 -1
v 9 4 0
v 9 2 1
v 9 3 1
v 9 4 1
v 9 5 0
v 9 5 1
v 9 2 2
v 9 3 2
v 9 4 2
v 9 3 4
v 9 4 4
v 9 5 4
v 9 2 5
v 9 3 5
v 9 4 5
v 9 5 5
v 9 2 6
v 9 3 6
v 9 4 6
v 9 2 8
v 9 3 8
v 9 4 8
v 9 2 9
v 9 3 9
v 9 4 9
v 9 5 8
v 9 5 9
v 9 6 8
v 9 6 9
v 9 7 8
v 9 7 9
v 9 4 10
v 9 5 10
v 10 2 -2
v 10 2 -1
v 10 3 -1
v 10 3 0
v 10 4 -1
v 10 4 0
v 9 5 -1
v 10 5 -1
v 10 5 0
v 10 2 1
v 10 3 1
v 10 4 1
v 10 5 1
v 10 2 2
v 10 3 2
v 10 4 2
v 10 3 4
v 10 4 4
v 10 5 4
v 10 2 5
v 10 3 5
v 10 4 5
v 10 5 5
v 10 2 6
v 10 3 6
v 10 4 6
v 10 4 9
v 10 5 9
v 10 4 10
v 10 5 10
v 11 2 -2
v 11 2 -1
v 10 3 -2
v 11 3 -2
v 11 3 -1
v 10 5 -2
v 10 6 -1
v 10 6 -2
v 11 5 -1
v 11 5 -2
v 11 6 -2
v 11 6 -1
v 11 3 0
v 11 4 -1
v 11 4 0
v 11 5 0
v 14 1 10
v 14 2 10
v 14 1 11
v 14 2 11
v 15 1 10
v 15 2 10
v 15 1 11
v 15 2 11
vt 0.000000000 0.000000000
vt 1.000000000 0.000000000
vt 0.000000000 1.000000000
vt 1.000000000 1.000000000
vn -1 0 0
vn 0 -1 0
vn 0 0 -1
vn 1 0 0
vn 0 1 0
vn 0 0 1
f 2/2/1 3/4/1 11/3/1 1/1/1
f 2/3/2 1/1/2 8/2/2 10/4/2
f 1/2/3 11/4/3 12/3/3 8/1/3
f 10/1/4 8/2/4 12/4/4 13/3/4
f 3/1/5 13/2/5 12/4/5 11/3/5
f 2/1/6 10/2/6 13/4/6 3/3/6
f 6/2/1 7/4/1 5/3/1 4/1/1
f 6/3/2 4/1/2 18/2/2 19/4/2
f 4/2/3 5/4/3 20/3/3 18/1/3
f 19/1/4 18/2/4 20/4/4 21/3/4
f 7/1/5 21/2/5 20/4/5 5/3/5
f 6/1/6 19/2/6 21/4/6 7/3/6
f 9/2/1 10/4/1 8/3/1 7/1/1
f 9/3/2 7/1/2 21/2/2 22/4/2
f 7/2/3 8/4/3 23/3/3 21/1/3
f 22/1/4 21/2/4 23/4/4 24/3/4
f 10/1/5 24/2/5 23/4/5 8/3/5
f 9/1/6 22/2/6 24/4/6 10/3/6
f 16/2/1 17/4/1 15/3/1 14/1/1
f 16/3/2 14/1/2 25/2/2 26/4/2
f 14/2/3 15/4/3 27/3/3 25/1/3
f 26/1/4 25/2/4 27/4/4 28/3/4
f 17/1/5 28/2/5 27/4/5 15/3/5
f 16/1/6 26/2/6 28/4/6 17/3/6
f 26/2/1 28/4/1 27/3/1 25/1/1
f 26/3/2 25/1/2 31/2/2 32/4/2
f 25/2/3 27/4/3 33/3/3 31/1/3
f 32/1/4 31/2/4 33/4/4 34/3/4
f 28/1/5 34/2/5 33/4/5 27/3/5
f 26/1/6 32/2/6 34/4/6 28/3/6
f 28/2/1 30/4/1 29/3/1 27/1/1
f 28/3/2 27/1/2 33/2/2 34/4/2
f 27/2/3 29/4/3 35/3/3 33/1/3
f 34/1/4 33/2/4 35/4/4 36/3/4
f 30/1/5 36/2/5 35/4/5 29/3/5
f 28/1/6 34/2/6 36/4/6 30/3/6
f 33/2/1 35/4/1 46/3/1 45/1/1
f 33/3/2 45/1/2 48/2/2 47/4/2
f 45/2/3 46/4/3 49/3/3 48/1/3
f 47/1/4 48/2/4 49/4/4 50/3/4
f 35/1/5 50/2/5 49/4/5 46/3/5
f 33/1/6 47/2/6 50/4/6 35/3/6
f 35/2/1 37/4/1 51/3/1 46/1/1
f 35/3/2 46/1/2 49/2/2 50/4/2
f 46/2/3 51/4/3 52/3/3 49/1/3
f 50/1/4 49/2/4 52/4/4 53/3/4
f 37/1/5 53/2/5 52/4/5 51/3/5
f 35/1/6 50/2/6 53/4/6 37/3/6
f 32/2/1 34/4/1 33/3/1 31/1/1
f 32/3/2 31/1/2 55/2/2 54/4/2
f 31/2/3 33/4/3 47/3/3 55/1/3
f 54/1/4 55/2/4 47/4/4 56/3/4
f 34/1/5 56/2/5 47/4/5 33/3/5
f 32/1/6 54/2/6 56/4/6 34/3/6
f 34/2/1 36/4/1 35/3/1 33/1/1
f 34/3/2 33/1/2 47/2/2 56/4/2
f 33/2/3 35/4/3 50/3/3 47/1/3
f 56/1/4 47/2/4 50/4/4 57/3/4
f 36/1/5 57/2/5 50/4/5 35/3/5
f 34/1/6 56/2/6 57/4/6 36/3/6
f 41/2/1 42/4/1 39/3/1 38/1/1
f 41/3/2 38/1/2 58/2/2 61/4/2
f 38/2/3 39/4/3 59/3/3 58/1/3
f 61/1/4 58/2/4 59/4/4 62/3/4
f 42/1/5 62/2/5 59/4/5 39/3/5
f 41/1/6 61/2/6 62/4/6 42/3/6
f 42/2/1 43/4/1 40/3/1 39/1/1
f 42/3/2 39/1/2 59/2/2 62/4/2
f 39/2/3 40/4/3 60/3/3 59/1/3
f 62/1/4 59/2/4 60/4/4 63/3/4
f 43/1/5 63/2/5 60/4/5 40/3/5
f 42/1/6 62/2/6 63/4/6 43/3/6
f 44/2/1 65/4/1 66/3/1 43/1/1
f 44/3/2 43/1/2 63/2/2 64/4/2
f 43/2/3 66/4/3 67/3/3 63/1/3
f 64/1/4 63/2/4 67/4/4 68/3/4
f 65/1/5 68/2/5 67/4/5 66/3/5
f 44/1/6 64/2/6 68/4/6 65/3/6
f 65/2/1 69/4/1 70/3/1 66/1/1
f 65/3/2 66/1/2 67/2/2 68/4/2
f 66/2/3 70/4/3 71/3/3 67/1/3
f 68/1/4 67/2/4 71/4/4 72/3/4
f 69/1/5 72/2/5 71/4/5 70/3/5
f 65/1/6 68/2/6 72/4/6 69/3/6
f 73/2/1 74/4/1 68/3/1 64/1/1
f 73/3/2 64/1/2 75/2/2 76/4/2
f 64/2/3 68/4/3 77/3/3 75/1/3
f 76/1/4 75/2/4 77/4/4 78/3/4
f 74/1/5 78/2/5 77/4/5 68/3/5
f 73/1/6 76/2/6 78/4/6 74/3/6
f 81/2/1 83/4/1 82/3/1 80/1/1
f 81/3/2 80/1/2 94/2/2 95/4/2
f 80/2/3 82/4/3 96/3/3 94/1/3
f 95/1/4 94/2/4 96/4/4 97/3/4
f 83/1/5 97/2/5 96/4/5 82/3/5
f 81/1/6 95/2/6 97/4/6 83/3/6
f 84/2/1 85/4/1 81/3/1 79/1/1
f 84/3/2 79/1/2 93/2/2 98/4/2
f 79/2/3 81/4/3 95/3/3 93/1/3
f 98/1/4 93/2/4 95/4/4 99/3/4
f 85/1/5 99/2/5 95/4/5 81/3/5
f 84/1/6 98/2/6 99/4/6 85/3/6
f 85/2/1 86/4/1 83/3/1 81/1/1
f 85/3/2 81/1/2 95/2/2 99/4/2
f 81/2/3 83/4/3 97/3/3 95/1/3
f 99/1/4 95/2/4 97/4/4 100/3/4
f 86/1/5 100/2/5 97/4/5 83/3/5
f 85/1/6 99/2/6 100/4/6 86/3/6
f 90/2/1 91/4/1 88/3/1 87/1/1
f 90/3/2 87/1/2 101/2/2 104/4/2
f 87/2/3 88/4/3 102/3/3 101/1/3
f 104/1/4 101/2/4 102/4/4 105/3/4
f 91/1/5 105/2/5 102/4/5 88/3/5
f 90/1/6 104/2/6 105/4/6 91/3/6
f 91/2/1 92/4/1 89/3/1 88/1/1
f 91/3/2 88/1/2 102/2/2 105/4/2
f 88/2/3 89/4/3 103/3/3 102/1/3
f 105/1/4 102/2/4 103/4/4 106/3/4
f 92/1/5 106/2/5 103/4/5 89/3/5
f 91/1/6 105/2/6 106/4/6 92/3/6
f 104/2/1 105/4/1 102/3/1 101/1/1
f 104/3/2 101/1/2 107/2/2 110/4/2
f 101/2/3 102/4/3 108/3/3 107/1/3
f 110/1/4 107/2/4 108/4/4 111/3/4
f 105/1/5 111/2/5 108/4/5 102/3/5
f 104/1/6 110/2/6 111/4/6 105/3/6
f 105/2/1 106/4/1 103/3/1 102/1/1
f 105/3/2 102/1/2 108/2/2 111/4/2
f 102/2/3 103/4/3 109/3/3 108/1/3
f 111/1/4 108/2/4 109/4/4 112/3/4
f 106/1/5 112/2/5 109/4/5 103/3/5
f 105/1/6 111/2/6 112/4/6 106/3/6
f 113/2/1 115/4/1 114/3/1 112/1/1
f 113/3/2 112/1/2 119/2/2 120/4/2
f 112/2/3 114/4/3 116/3/3 119/1/3
f 120/1/4 119/2/4 116/4/4 121/3/4
f 115/1/5 121/2/5 116/4/5 114/3/5
f 113/1/6 120/2/6 121/4/6 115/3/6
f 121/2/1 122/4/1 117/3/1 116/1/1
f 121/3/2 116/1/2 130/2/2 131/4/2
f 116/2/3 117/4/3 128/3/3 130/1/3
f 131/1/4 130/2/4 128/4/4 132/3/4
f 122/1/5 132/2/5 128/4/5 117/3/5
f 121/1/6 131/2/6 132/4/6 122/3/6
f 122/2/1 123/4/1 118/3/1 117/1/1
f 122/3/2 117/1/2 128/2/2 132/4/2
f 117/2/3 118/4/3 129/3/3 128/1/3
f 132/1/4 128/2/4 129/4/4 133/3/4
f 123/1/5 133/2/5 129/4/5 118/3/5
f 122/1/6 132/2/6 133/4/6 123/3/6
f 126/2/1 127/4/1 125/3/1 124/1/1
f 126/3/2 124/1/2 134/2/2 136/4/2
f 124/2/3 125/4/3 135/3/3 134/1/3
f 136/1/4 134/2/4 135/4/4 137/3/4
f 127/1/5 137/2/5 135/4/5 125/3/5
f 126/1/6 136/2/6 137/4/6 127/3/6
f 131/2/1 132/4/1 128/3/1 130/1/1
f 131/3/2 130/1/2 140/2/2 141/4/2
f 130/2/3 128/4/3 142/3/3 140/1/3
f 141/1/4 140/2/4 142/4/4 143/3/4
f 132/1/5 143/2/5 142/4/5 128/3/5
f 131/1/6 141/2/6 143/4/6 132/3/6
f 144/2/1 145/4/1 139/3/1 138/1/1
f 144/3/2 138/1/2 148/2/2 149/4/2
f 138/2/3 139/4/3 150/3/3 148/1/3
f 149/1/4 148/2/4 150/4/4 151/3/4
f 145/1/5 151/2/5 150/4/5 139/3/5
f 144/1/6 149/2/6 151/4/6 145/3/6
f 145/2/1 146/4/1 141/3/1 139/1/1
f 145/3/2 139/1/2 150/2/2 151/4/2
f 139/2/3 141/4/3 147/3/3 150/1/3
f 151/1/4 150/2/4 147/4/4 152/3/4
f 146/1/5 152/2/5 147/4/5 141/3/5
f 145/1/6 151/2/6 152/4/6 146/3/6
f 156/2/1 157/4/1 154/3/1 153/1/1
f 156/3/2 153/1/2 166/2/2 169/4/2
f 153/2/3 154/4/3 167/3/3 166/1/3
f 169/1/4 166/2/4 167/4/4 170/3/4
f 157/1/5 170/2/5 167/4/5 154/3/5
f 156/1/6 169/2/6 170/4/6 157/3/6
f 157/2/1 158/4/1 155/3/1 154/1/1
f 157/3/2 154/1/2 167/2/2 170/4/2
f 154/2/3 155/4/3 168/3/3 167/1/3
f 170/1/4 167/2/4 168/4/4 171/3/4
f 158/1/5 171/2/5 168/4/5 155/3/5
f 157/1/6 170/2/6 171/4/6 158/3/6
f 161/2/1 162/4/1 160/3/1 159/1/1
f 161/3/2 159/1/2 172/2/2 174/4/2
f 159/2/3 160/4/3 173/3/3 172/1/3
f 174/1/4 172/2/4 173/4/4 175/3/4
f 162/1/5 175/2/5 173/4/5 160/3/5
f 161/1/6 174/2/6 175/4/6 162/3/6
f 164/2/1 165/4/1 163/3/1 162/1/1
f 164/3/2 162/1/2 175/2/2 179/4/2
f 162/2/3 163/4/3 176/3/3 175/1/3
f 179/1/4 175/2/4 176/4/4 180/3/4
f 165/1/5 180/2/5 176/4/5 163/3/5
f 164/1/6 179/2/6 180/4/6 165/3/6
f 182/2/1 183/4/1 178/3/1 177/1/1
f 182/3/2 177/1/2 209/2/2 212/4/2
f 177/2/3 178/4/3 210/3/3 209/1/3
f 212/1/4 209/2/4 210/4/4 213/3/4
f 183/1/5 213/2/5 210/4/5 178/3/5
f 182/1/6 212/2/6 213/4/6 183/3/6
f 183/2/1 184/4/1 179/3/1 178/1/1
f 183/3/2 178/1/2 210/2/2 213/4/2
f 178/2/3 179/4/3 211/3/3 210/1/3
f 213/1/4 210/2/4 211/4/4 214/3/4
f 184/1/5 214/2/5 211/4/5 179/3/5
f 183/1/6 213/2/6 214/4/6 184/3/6
f 184/2/1 185/4/1 180/3/1 179/1/1
f 184/3/2 179/1/2 211/2/2 214/4/2
f 179/2/3 180/4/3 215/3/3 211/1/3
f 214/1/4 211/2/4 215/4/4 216/3/4
f 185/1/5 216/2/5 215/4/5 180/3/5
f 184/1/6 214/2/6 216/4/6 185/3/6
f 186/2/1 188/4/1 187/3/1 181/1/1
f 186/3/2 181/1/2 217/2/2 218/4/2
f 181/2/3 187/4/3 219/3/3 217/1/3
f 218/1/4 217/2/4 219/4/4 220/3/4
f 188/1/5 220/2/5 219/4/5 187/3/5
f 186/1/6 218/2/6 220/4/6 188/3/6
f 190/2/1 194/4/1 229/3/1 189/1/1
f 190/3/2 189/1/2 227/2/2 228/4/2
f 189/2/3 229/4/3 230/3/3 227/1/3
f 228/1/4 227/2/4 230/4/4 231/3/4
f 194/1/5 231/2/5 230/4/5 229/3/5
f 190/1/6 228/2/6 231/4/6 194/3/6
f 193/2/1 195/4/1 194/3/1 190/1/1
f 193/3/2 190/1/2 228/2/2 234/4/2
f 190/2/3 194/4/3 231/3/3 228/1/3
f 234/1/4 228/2/4 231/4/4 235/3/4
f 195/1/5 235/2/5 231/4/5 194/3/5
f 193/1/6 234/2/6 235/4/6 195/3/6
f 196/2/1 197/4/1 192/3/1 191/1/1
f 196/3/2 191/1/2 232/2/2 236/4/2
f 191/2/3 192/4/3 233/3/3 232/1/3
f 236/1/4 232/2/4 233/4/4 237/3/4
f 197/1/5 237/2/5 233/4/5 192/3/5
f 196/1/6 236/2/6 237/4/6 197/3/6
f 197/2/1 198/4/1 193/3/1 192/1/1
f 197/3/2 192/1/2 233/2/2 237/4/2
f 192/2/3 193/4/3 234/3/3 233/1/3
f 237/1/4 233/2/4 234/4/4 238/3/4
f 198/1/5 238/2/5 234/4/5 193/3/5
f 197/1/6 237/2/6 238/4/6 198/3/6
f 203/2/1 204/4/1 200/3/1 199/1/1
f 203/3/2 199/1/2 239/2/2 243/4/2
f 199/2/3 200/4/3 240/3/3 239/1/3
f 243/1/4 239/2/4 240/4/4 244/3/4
f 204/1/5 244/2/5 240/4/5 200/3/5
f 203/1/6 243/2/6 244/4/6 204/3/6
f 204/2/1 205/4/1 201/3/1 200/1/1
f 204/3/2 200/1/2 240/2/2 244/4/2
f 200/2/3 201/4/3 241/3/3 240/1/3
f 244/1/4 240/2/4 241/4/4 245/3/4
f 205/1/5 245/2/5 241/4/5 201/3/5
f 204/1/6 244/2/6 245/4/6 205/3/6
f 206/2/1 207/4/1 203/3/1 202/1/1
f 206/3/2 202/1/2 242/2/2 246/4/2
f 202/2/3 203/4/3 243/3/3 242/1/3
f 246/1/4 242/2/4 243/4/4 247/3/4
f 207/1/5 247/2/5 243/4/5 203/3/5
f 206/1/6 246/2/6 247/4/6 207/3/6
f 207/2/1 208/4/1 204/3/1 203/1/1
f 207/3/2 203/1/2 243/2/2 247/4/2
f 203/2/3 204/4/3 244/3/3 243/1/3
f 247/1/4 243/2/4 244/4/4 248/3/4
f 208/1/5 248/2/5 244/4/5 204/3/5
f 207/1/6 247/2/6 248/4/6 208/3/6
f 221/2/1 222/4/1 216/3/1 214/1/1
f 221/3/2 214/1/2 249/2/2 251/4/2
f 214/2/3 216/4/3 250/3/3 249/1/3
f 251/1/4 249/2/4 250/4/4 252/3/4
f 222/1/5 252/2/5 250/4/5 216/3/5
f 221/1/6 251/2/6 252/4/6 222/3/6
f 224/2/1 225/4/1 255/3/1 223/1/1
f 224/3/2 223/1/2 253/2/2 254/4/2
f 223/2/3 255/4/3 256/3/3 253/1/3
f 254/1/4 253/2/4 256/4/4 257/3/4
f 225/1/5 257/2/5 256/4/5 255/3/5
f 224/1/6 254/2/6 257/4/6 225/3/6
f 230/2/1 259/4/1 260/3/1 258/1/1
f 230/3/2 258/1/2 262/2/2 261/4/2
f 258/2/3 260/4/3 263/3/3 262/1/3
f 261/1/4 262/2/4 263/4/4 264/3/4
f 259/1/5 264/2/5 263/4/5 260/3/5
f 230/1/6 261/2/6 264/4/6 259/3/6
f 226/2/1 228/4/1 227/3/1 225/1/1
f 226/3/2 225/1/2 257/2/2 265/4/2
f 225/2/3 227/4/3 266/3/3 257/1/3
f 265/1/4 257/2/4 266/4/4 267/3/4
f 228/1/5 267/2/5 266/4/5 227/3/5
f 226/1/6 265/2/6 267/4/6 228/3/6
f 228/2/1 231/4/1 230/3/1 227/1/1
f 228/3/2 227/1/2 266/2/2 267/4/2
f 227/2/3 230/4/3 261/3/3 266/1/3
f 267/1/4 266/2/4 261/4/4 268/3/4
f 231/1/5 268/2/5 261/4/5 230/3/5
f 228/1/6 267/2/6 268/4/6 231/3/6
f 271/2/1 272/4/1 270/3/1 269/1/1
f 271/3/2 269/1/2 273/2/2 275/4/2
f 269/2/3 270/4/3 274/3/3 273/1/3
f 275/1/4 273/2/4 274/4/4 276/3/4
f 272/1/5 276/2/5 274/4/5 270/3/5
f 271/1/6 275/2/6 276/4/6 272/3/6
