mtllib lighthouse.mtl
usemtl red_sandstone
v 3 32.5 14
v 3 32.5 15
v 3 33 14
v 3 33 15
v 4 32.5 14
v 4 32.5 15
v 4 33 14
v 4 33 15
v 4 34 13
v 4 34 14
v 4 34.5 13
v 4 34.5 14
v 5 34 13
v 5 34 14
v 5 34.5 13
v 5 34.5 14
v 4 36.5 13
v 4 36.5 14
v 4 37 13
v 4 37 14
v 5 36.5 13
v 5 36.5 14
v 5 37 13
v 5 37 14
v 4 37 13
v 4 37 14
v 4 37.5 13
v 4 37.5 14
v 5 37 13
v 5 37 14
v 5 37.5 13
v 5 37.5 14
v 6 34.5 8
v 6 34.5 9
v 6 35 8
v 6 35 9
v 7 34.5 8
v 7 34.5 9
v 7 35 8
v 7 35 9
v 7 34.5 9
v 7 34.5 10
v 7 35 9
v 7 35 10
v 8 34.5 9
v 8 34.5 10
v 8 35 9
v 8 35 10
v 7 35 9
v 7 35 10
v 7 35.5 9
v 7 35.5 10
v 8 35 9
v 8 35 10
v 8 35.5 9
v 8 35.5 10
v 7 36 11
v 7 36 12
v 7 36.5 11
v 7 36.5 12
v 8 36 11
v 8 36 12
v 8 36.5 11
v 8 36.5 12
v 8 36 8
v 8 36 9
v 8 36.5 8
v 8 36.5 9
v 9 36 8
v 9 36 9
v 9 36.5 8
v 9 36.5 9
v 8 37.5 10
v 8 37.5 11
v 8 38 10
v 8 38 11
v 9 37.5 10
v 9 37.5 11
v 9 38 10
v 9 38 11
v 9 34.5 7
v 9 34.5 8
v 9 35 7
v 9 35 8
v 10 34.5 7
v 10 34.5 8
v 10 35 7
v 10 35 8
v 9 34 7.5
v 9 34 8
v 9 34.5 7.5
v 9 34.5 8
v 10 34 7.5
v 10 34 8
v 10 34.5 7.5
v 10 34.5 8
v 9 37 9
v 9 37 10
v 9 37.5 9
v 9 37.5 10
v 10 37 9
v 10 37 10
v 10 37.5 9
v 10 37.5 10
v 9 34.5 11
v 9 34.5 12
v 9 35 11
v 9 35 12
v 10 34.5 11
v 10 34.5 12
v 10 35 11
v 10 35 12
v 9 35 11
v 9 35 12
v 9 35.5 11
v 9 35.5 12
v 10 35 11
v 10 35 12
v 10 35.5 11
v 10 35.5 12
v 10 34.5 7
v 10 34.5 8
v 10 35 7
v 10 35 8
v 11 34.5 7
v 11 34.5 8
v 11 35 7
v 11 35 8
v 10 37 8
v 10 37 9
v 10 37.5 8
v 10 37.5 9
v 11 37 8
v 11 37 9
v 11 37.5 8
v 11 37.5 9
v 10 36 10
v 10 36 11
v 10 36.5 10
v 10 36.5 11
v 11 36 10
v 11 36 11
v 11 36.5 10
v 11 36.5 11
v 10 34.5 12
v 10 34.5 13
v 10 35 12
v 10 35 13
v 11 34.5 12
v 11 34.5 13
v 11 35 12
v 11 35 13
v 11 36 7
v 11 36 8
v 11 36.5 7
v 11 36.5 8
v 12 36 7
v 12 36 8
v 12 36.5 7
v 12 36.5 8
v 11 34.5 8
v 11 34.5 9
v 11 35 8
v 11 35 9
v 12 34.5 8
v 12 34.5 9
v 12 35 8
v 12 35 9
v 11 34.5 9
v 11 34.5 10
v 11 35 9
v 11 35 10
v 12 34.5 9
v 12 34.5 10
v 12 35 9
v 12 35 10
v 11 34 9
v 11 34 10
v 11 34.5 9
v 11 34.5 10
v 11.5 34 9
v 11.5 34 10
v 11.5 34.5 9
v 11.5 34.5 10
v 3 37 13
v 3 37 14
v 3 38 14
v 3 38 13
v 4 37 14
v 4 37 13
v 4 38 13
v 4 38 14
v 4 33 13
v 4 33 14
v 4 34 14
v 4 34 13
v 5 33 14
v 5 33 13
v 5 34 13
v 5 34 14
v 5 35 13
v 5 34 9
v 5 34 10
v 5 35 10
v 5 35 9
v 6 34 10
v 6 34 9
v 6 35 9
v 6 35 10
v 5 34 12
v 5 35 12
v 6 34 13
v 6 34 12
v 6 35 12
v 6 35 13
v 6 36 12
v 6 36 13
v 7 34 13
v 7 34 12
v 7 35 12
v 7 35 13
v 7 36 12
v 7 36 13
v 7 34 10
v 7 34 11
v 7 35 11
v 7 35 10
v 8 34 11
v 8 34 10
v 8 35 10
v 8 35 11
v 7 36 11
v 8 36 10
v 8 36 11
v 8 34 12
v 8 35 12
v 8 36 12
v 8 34 13
v 8 35 13
v 8 36 13
v 8 35 8
v 8 35 9
v 8 36 9
v 8 36 8
v 9 35 9
v 9 35 8
v 9 36 8
v 9 36 9
v 8 34 9
v 9 34 10
v 9 34 9
v 9 35 10
v 9 36 10
v 9 34 11
v 9 35 11
v 9 36 11
v 9 34 12
v 9 35 12
v 10 35 8
v 10 35 7
v 10 36 7
v 10 36 8
v 9 34 8
v 10 34 9
v 10 34 8
v 10 35 9
v 9 37 9
v 9 37 8
v 10 36 9
v 10 37 8
v 10 37 9
v 10 34 10
v 10 35 10
v 10 36 10
v 9 37 10
v 10 37 10
v 10 34 11
v 10 35 11
v 10 36 11
v 9 34 13
v 9 34 14
v 9 35 14
v 9 35 13
v 10 34 14
v 10 34 13
v 10 35 13
v 10 35 14
v 11 35 8
v 11 35 7
v 11 36 7
v 11 36 8
v 10 37 7
v 11 37 7
v 11 37 8
v 11 34 9
v 11 34 8
v 11 35 9
v 11 36 9
v 11 37 9
v 11 34 10
v 11 35 10
v 11 36 10
v 11 37 10
v 11 35 11
v 11 36 11
v 12 35 8
v 12 35 7
v 12 36 7
v 12 36 8
v 12 35 9
v 12 36 9
v 12 37 8
v 12 37 9
vt 0.000000000 0.000000000
vt 0.500000000 0.000000000
vt 1.000000000 0.000000000
vt 0.000000000 0.500000000
vt 0.500000000 0.500000000
vt 1.000000000 0.500000000
vt 0.000000000 1.000000000
vt 1.000000000 1.000000000
vn -1 0 0
vn 0 0 -1
vn 1 0 0
vn 0 0 1
f 3/7/1 1/4/1 2/6/1 4/8/1
f 7/7/2 5/4/2 1/6/2 3/8/2
f 7/8/3 8/7/3 6/4/3 5/6/3
f 8/8/4 4/7/4 2/4/4 6/6/4
f 11/4/1 9/1/1 10/3/1 12/6/1
f 15/4/2 13/1/2 9/3/2 11/6/2
f 15/6/3 16/4/3 14/1/3 13/3/3
f 16/6/4 12/4/4 10/1/4 14/3/4
f 19/7/1 17/4/1 18/6/1 20/8/1
f 23/7/2 21/4/2 17/6/2 19/8/2
f 23/8/3 24/7/3 22/4/3 21/6/3
f 24/8/4 20/7/4 18/4/4 22/6/4
f 27/4/1 25/1/1 26/3/1 28/6/1
f 31/4/2 29/1/2 25/3/2 27/6/2
f 31/6/3 32/4/3 30/1/3 29/3/3
f 32/6/4 28/4/4 26/1/4 30/3/4
f 35/7/1 33/4/1 34/6/1 36/8/1
f 39/7/2 37/4/2 33/6/2 35/8/2
f 39/8/3 40/7/3 38/4/3 37/6/3
f 40/8/4 36/7/4 34/4/4 38/6/4
f 43/7/1 41/4/1 42/6/1 44/8/1
f 47/7/2 45/4/2 41/6/2 43/8/2
f 47/8/3 48/7/3 46/4/3 45/6/3
f 48/8/4 44/7/4 42/4/4 46/6/4
f 51/4/1 49/1/1 50/3/1 52/6/1
f 55/4/2 53/1/2 49/3/2 51/6/2
f 55/6/3 56/4/3 54/1/3 53/3/3
f 56/6/4 52/4/4 50/1/4 54/3/4
f 59/4/1 57/1/1 58/3/1 60/6/1
f 63/4/2 61/1/2 57/3/2 59/6/2
f 63/6/3 64/4/3 62/1/3 61/3/3
f 64/6/4 60/4/4 58/1/4 62/3/4
f 67/4/1 65/1/1 66/3/1 68/6/1
f 71/4/2 69/1/2 65/3/2 67/6/2
f 71/6/3 72/4/3 70/1/3 69/3/3
f 72/6/4 68/4/4 66/1/4 70/3/4
f 75/7/1 73/4/1 74/6/1 76/8/1
f 79/7/2 77/4/2 73/6/2 75/8/2
f 79/8/3 80/7/3 78/4/3 77/6/3
f 80/8/4 76/7/4 74/4/4 78/6/4
f 83/7/1 81/4/1 82/6/1 84/8/1
f 87/7/2 85/4/2 81/6/2 83/8/2
f 87/8/3 88/7/3 86/4/3 85/6/3
f 88/8/4 84/7/4 82/4/4 86/6/4
f 91/5/1 89/2/1 90/3/1 92/6/1
f 95/4/2 93/1/2 89/3/2 91/6/2
f 95/5/3 96/4/3 94/1/3 93/2/3
f 96/6/4 92/4/4 90/1/4 94/3/4
f 99/4/1 97/1/1 98/3/1 100/6/1
f 103/4/2 101/1/2 97/3/2 99/6/2
f 103/6/3 104/4/3 102/1/3 101/3/3
f 104/6/4 100/4/4 98/1/4 102/3/4
f 107/7/1 105/4/1 106/6/1 108/8/1
f 111/7/2 109/4/2 105/6/2 107/8/2
f 111/8/3 112/7/3 110/4/3 109/6/3
f 112/8/4 108/7/4 106/4/4 110/6/4
f 115/4/1 113/1/1 114/3/1 116/6/1
f 119/4/2 117/1/2 113/3/2 115/6/2
f 119/6/3 120/4/3 118/1/3 117/3/3
f 120/6/4 116/4/4 114/1/4 118/3/4
f 123/7/1 121/4/1 122/6/1 124/8/1
f 127/7/2 125/4/2 121/6/2 123/8/2
f 127/8/3 128/7/3 126/4/3 125/6/3
f 128/8/4 124/7/4 122/4/4 126/6/4
f 131/4/1 129/1/1 130/3/1 132/6/1
f 135/4/2 133/1/2 129/3/2 131/6/2
f 135/6/3 136/4/3 134/1/3 133/3/3
f 136/6/4 132/4/4 130/1/4 134/3/4
f 139/4/1 137/1/1 138/3/1 140/6/1
f 143/4/2 141/1/2 137/3/2 139/6/2
f 143/6/3 144/4/3 142/1/3 141/3/3
f 144/6/4 140/4/4 138/1/4 142/3/4
f 147/7/1 145/4/1 146/6/1 148/8/1
f 151/7/2 149/4/2 145/6/2 147/8/2
f 151/8/3 152/7/3 150/4/3 149/6/3
f 152/8/4 148/7/4 146/4/4 150/6/4
f 155/4/1 153/1/1 154/3/1 156/6/1
f 159/4/2 157/1/2 153/3/2 155/6/2
f 159/6/3 160/4/3 158/1/3 157/3/3
f 160/6/4 156/4/4 154/1/4 158/3/4
f 163/7/1 161/4/1 162/6/1 164/8/1
f 167/7/2 165/4/2 161/6/2 163/8/2
f 167/8/3 168/7/3 166/4/3 165/6/3
f 168/8/4 164/7/4 162/4/4 166/6/4
f 171/7/1 169/4/1 170/6/1 172/8/1
f 175/7/2 173/4/2 169/6/2 171/8/2
f 175/8/3 176/7/3 174/4/3 173/6/3
f 176/8/4 172/7/4 170/4/4 174/6/4
f 179/4/1 177/1/1 178/3/1 180/6/1
f 183/5/2 181/2/2 177/3/2 179/6/2
f 183/6/3 184/4/3 182/1/3 181/3/3
f 184/5/4 180/4/4 178/1/4 182/2/4
f 186/3/1 187/8/1 188/7/1 185/1/1
f 185/3/2 188/8/2 191/7/2 190/1/2
f 189/1/3 190/3/3 191/8/3 192/7/3
f 186/1/4 189/3/4 192/8/4 187/7/4
f 194/3/1 195/8/1 196/7/1 193/1/1
f 193/3/2 196/8/2 199/7/2 198/1/2
f 197/1/3 198/3/3 199/8/3 200/7/3
f 194/1/4 197/3/4 200/8/4 195/7/4
f 203/3/1 204/8/1 205/7/1 202/1/1
f 202/3/2 205/8/2 208/7/2 207/1/2
f 206/1/3 207/3/3 208/8/3 209/7/3
f 203/1/4 206/3/4 209/8/4 204/7/4
f 199/3/1 201/8/1 211/7/1 210/1/1
f 210/3/2 211/8/2 214/7/2 213/1/2
f 212/1/3 213/3/3 214/8/3 215/7/3
f 199/1/4 212/3/4 215/8/4 201/7/4
f 212/3/1 215/8/1 214/7/1 213/1/1
f 213/3/2 214/8/2 220/7/2 219/1/2
f 218/1/3 219/3/3 220/8/3 221/7/3
f 212/1/4 218/3/4 221/8/4 215/7/4
f 215/3/1 217/8/1 216/7/1 214/1/1
f 214/3/2 216/8/2 222/7/2 220/1/2
f 221/1/3 220/3/3 222/8/3 223/7/3
f 215/1/4 221/3/4 223/8/4 217/7/4
f 225/3/1 226/8/1 227/7/1 224/1/1
f 224/3/2 227/8/2 230/7/2 229/1/2
f 228/1/3 229/3/3 230/8/3 231/7/3
f 225/1/4 228/3/4 231/8/4 226/7/4
f 219/3/1 220/8/1 226/7/1 225/1/1
f 225/3/2 226/8/2 231/7/2 228/1/2
f 235/1/3 228/3/3 231/8/3 236/7/3
f 219/1/4 235/3/4 236/8/4 220/7/4
f 220/3/1 222/8/1 232/7/1 226/1/1
f 226/3/2 232/8/2 234/7/2 231/1/2
f 236/1/3 231/3/3 234/8/3 237/7/3
f 220/1/4 236/3/4 237/8/4 222/7/4
f 218/3/1 221/8/1 220/7/1 219/1/1
f 219/3/2 220/8/2 236/7/2 235/1/2
f 238/1/3 235/3/3 236/8/3 239/7/3
f 218/1/4 238/3/4 239/8/4 221/7/4
f 221/3/1 223/8/1 222/7/1 220/1/1
f 220/3/2 222/8/2 237/7/2 236/1/2
f 239/1/3 236/3/3 237/8/3 240/7/3
f 221/1/4 239/3/4 240/8/4 223/7/4
f 242/3/1 243/8/1 244/7/1 241/1/1
f 241/3/2 244/8/2 247/7/2 246/1/2
f 245/1/3 246/3/3 247/8/3 248/7/3
f 242/1/4 245/3/4 248/8/4 243/7/4
f 229/3/1 230/8/1 242/7/1 249/1/1
f 249/3/2 242/8/2 245/7/2 251/1/2
f 250/1/3 251/3/3 245/8/3 252/7/3
f 229/1/4 250/3/4 252/8/4 230/7/4
f 230/3/1 233/8/1 243/7/1 242/1/1
f 242/3/2 243/8/2 248/7/2 245/1/2
f 252/1/3 245/3/3 248/8/3 253/7/3
f 230/1/4 252/3/4 253/8/4 233/7/4
f 228/3/1 231/8/1 230/7/1 229/1/1
f 229/3/2 230/8/2 252/7/2 250/1/2
f 254/1/3 250/3/3 252/8/3 255/7/3
f 228/1/4 254/3/4 255/8/4 231/7/4
f 231/3/1 234/8/1 233/7/1 230/1/1
f 230/3/2 233/8/2 253/7/2 252/1/2
f 255/1/3 252/3/3 253/8/3 256/7/3
f 231/1/4 255/3/4 256/8/4 234/7/4
f 235/3/1 236/8/1 231/7/1 228/1/1
f 228/3/2 231/8/2 255/7/2 254/1/2
f 257/1/3 254/3/3 255/8/3 258/7/3
f 235/1/4 257/3/4 258/8/4 236/7/4
f 251/3/1 245/8/1 246/7/1 263/1/1
f 263/3/2 246/8/2 259/7/2 265/1/2
f 264/1/3 265/3/3 259/8/3 266/7/3
f 251/1/4 264/3/4 266/8/4 245/7/4
f 248/3/1 267/8/1 268/7/1 247/1/1
f 247/3/2 268/8/2 270/7/2 262/1/2
f 269/1/3 262/3/3 270/8/3 271/7/3
f 248/1/4 269/3/4 271/8/4 267/7/4
f 250/3/1 252/8/1 245/7/1 251/1/1
f 251/3/2 245/8/2 266/7/2 264/1/2
f 272/1/3 264/3/3 266/8/3 273/7/3
f 250/1/4 272/3/4 273/8/4 252/7/4
f 252/3/1 253/8/1 248/7/1 245/1/1
f 245/3/2 248/8/2 269/7/2 266/1/2
f 273/1/3 266/3/3 269/8/3 274/7/3
f 252/1/4 273/3/4 274/8/4 253/7/4
f 253/3/1 275/8/1 267/7/1 248/1/1
f 248/3/2 267/8/2 271/7/2 269/1/2
f 274/1/3 269/3/3 271/8/3 276/7/3
f 253/1/4 274/3/4 276/8/4 275/7/4
f 254/3/1 255/8/1 252/7/1 250/1/1
f 250/3/2 252/8/2 273/7/2 272/1/2
f 277/1/3 272/3/3 273/8/3 278/7/3
f 254/1/4 277/3/4 278/8/4 255/7/4
f 255/3/1 256/8/1 253/7/1 252/1/1
f 252/3/2 253/8/2 274/7/2 273/1/2
f 278/1/3 273/3/3 274/8/3 279/7/3
f 255/1/4 278/3/4 279/8/4 256/7/4
f 281/3/1 282/8/1 283/7/1 280/1/1
f 280/3/2 283/8/2 286/7/2 285/1/2
f 284/1/3 285/3/3 286/8/3 287/7/3
f 281/1/4 284/3/4 287/8/4 282/7/4
f 259/3/1 262/8/1 261/7/1 260/1/1
f 260/3/2 261/8/2 290/7/2 289/1/2
f 288/1/3 289/3/3 290/8/3 291/7/3
f 259/1/4 288/3/4 291/8/4 262/7/4
f 262/3/1 270/8/1 292/7/1 261/1/1
f 261/3/2 292/8/2 293/7/2 290/1/2
f 291/1/3 290/3/3 293/8/3 294/7/3
f 262/1/4 291/3/4 294/8/4 270/7/4
f 264/3/1 266/8/1 259/7/1 265/1/1
f 265/3/2 259/8/2 288/7/2 296/1/2
f 295/1/3 296/3/3 288/8/3 297/7/3
f 264/1/4 295/3/4 297/8/4 266/7/4
f 269/3/1 271/8/1 270/7/1 262/1/1
f 262/3/2 270/8/2 294/7/2 291/1/2
f 298/1/3 291/3/3 294/8/3 299/7/3
f 269/1/4 298/3/4 299/8/4 271/7/4
f 272/3/1 273/8/1 266/7/1 264/1/1
f 264/3/2 266/8/2 297/7/2 295/1/2
f 300/1/3 295/3/3 297/8/3 301/7/3
f 272/1/4 300/3/4 301/8/4 273/7/4
f 274/3/1 276/8/1 271/7/1 269/1/1
f 269/3/2 271/8/2 299/7/2 298/1/2
f 302/1/3 298/3/3 299/8/3 303/7/3
f 274/1/4 302/3/4 303/8/4 276/7/4
f 278/3/1 279/8/1 274/7/1 273/1/1
f 273/3/2 274/8/2 302/7/2 301/1/2
f 304/1/3 301/3/3 302/8/3 305/7/3
f 278/1/4 304/3/4 305/8/4 279/7/4
f 288/3/1 291/8/1 290/7/1 289/1/1
f 289/3/2 290/8/2 308/7/2 307/1/2
f 306/1/3 307/3/3 308/8/3 309/7/3
f 288/1/4 306/3/4 309/8/4 291/7/4
f 297/3/1 298/8/1 291/7/1 288/1/1
f 288/3/2 291/8/2 309/7/2 306/1/2
f 310/1/3 306/3/3 309/8/3 311/7/3
f 297/1/4 310/3/4 311/8/4 298/7/4
f 298/3/1 299/8/1 294/7/1 291/1/1
f 291/3/2 294/8/2 312/7/2 309/1/2
f 311/1/3 309/3/3 312/8/3 313/7/3
f 298/1/4 311/3/4 313/8/4 299/7/4
