mtllib lighthouse.mtl
usemtl polished_blackstone
v -13 48 -7
v -13 48 -6
v -13 49 -6
v -13 49 -7
v -12 48 -6
v -12 48 -7
v -12 49 -7
v -12 49 -6
v -11 48 -5
v -11 49 -5
v -11 48 -4
v -11 49 -4
v -10 48 -5
v -10 49 -5
v -10 48 -4
v -10 49 -4
v 2 9 8
v 2 9 9
v 3 9 8
v 3 9 9
v 2 10 9
v 2 10 8
v 3 10 8
v 3 10 9
v 9 35 8
v 9 36 8
v 9 35 7
v 9 36 7
v 10 35 8
v 10 35 7
v 10 36 7
v 10 36 8
v 11 35 9
v 11 36 9
v 11 35 10
v 11 36 10
v 12 35 9
v 12 36 9
v 12 35 10
v 12 36 10
vt 0.000000000 0.000000000
vt 1.000000000 0.000000000
vt 0.000000000 1.000000000
vt 1.000000000 1.000000000
vn -1 0 0
vn 0 -1 0
vn 0 0 -1
vn 1 0 0
vn 0 1 0
vn 0 0 1
f 2/2/1 3/4/1 4/3/1 1/1/1
f 2/3/2 1/1/2 6/2/2 5/4/2
f 1/2/3 4/4/3 7/3/3 6/1/3
f 5/1/4 6/2/4 7/4/4 8/3/4
f 3/1/5 8/2/5 7/4/5 4/3/5
f 2/1/6 5/2/6 8/4/6 3/3/6
f 11/2/1 12/4/1 10/3/1 9/1/1
f 11/3/2 9/1/2 13/2/2 15/4/2
f 9/2/3 10/4/3 14/3/3 13/1/3
f 15/1/4 13/2/4 14/4/4 16/3/4
f 12/1/5 16/2/5 14/4/5 10/3/5
f 11/1/6 15/2/6 16/4/6 12/3/6
f 18/2/1 21/4/1 22/3/1 17/1/1
f 18/3/2 17/1/2 19/2/2 20/4/2
f 17/2/3 22/4/3 23/3/3 19/1/3
f 20/1/4 19/2/4 23/4/4 24/3/4
f 21/1/5 24/2/5 23/4/5 22/3/5
f 18/1/6 20/2/6 24/4/6 21/3/6
f 25/2/1 26/4/1 28/3/1 27/1/1
f 25/3/2 27/1/2 30/2/2 29/4/2
f 27/2/3 28/4/3 31/3/3 30/1/3
f 29/1/4 30/2/4 31/4/4 32/3/4
f 26/1/5 32/2/5 31/4/5 28/3/5
f 25/1/6 29/2/6 32/4/6 26/3/6
f 35/2/1 36/4/1 34/3/1 33/1/1
f 35/3/2 33/1/2 37/2/2 39/4/2
f 33/2/3 34/4/3 38/3/3 37/1/3
f 39/1/4 37/2/4 38/4/4 40/3/4
f 36/1/5 40/2/5 38/4/5 34/3/5
f 35/1/6 39/2/6 40/4/6 36/3/6
