mtllib lighthouse.mtl
usemtl tall_seagrass_bottom
v -1.9264 1 -9.81666
v -1.9264 1 -8.81666
v -1.9264 2 -8.81666
v -1.9264 2 -9.81666
v -1.4264 1 -9.81666
v -1.4264 1 -8.81666
v -1.4264 2 -8.81666
v -1.4264 2 -9.81666
v -2.1764 1 -9.56666
v -1.1764 1 -9.56666
v -1.1764 2 -9.56666
v -2.1764 2 -9.56666
v -2.1764 1 -9.06666
v -1.1764 1 -9.06666
v -1.1764 2 -9.06666
v -2.1764 2 -9.06666
v -0.576948 1 -8.96879
v -0.576948 1 -7.96879
v -0.576948 2 -7.96879
v -0.576948 2 -8.96879
v -0.0769482 1 -8.96879
v -0.0769482 1 -7.96879
v -0.0769482 2 -7.96879
v -0.0769482 2 -8.96879
v -0.826948 1 -8.71879
v 0.173052 1 -8.71879
v 0.173052 2 -8.71879
v -0.826948 2 -8.71879
v -0.826948 1 -8.21879
v 0.173052 1 -8.21879
v 0.173052 2 -8.21879
v -0.826948 2 -8.21879
v -0.798182 1 -8.17533
v -0.798182 1 -7.17533
v -0.798182 2 -7.17533
v -0.798182 2 -8.17533
v -0.298182 1 -8.17533
v -0.298182 1 -7.17533
v -0.298182 2 -7.17533
v -0.298182 2 -8.17533
v -1.04818 1 -7.92533
v -0.0481825 1 -7.92533
v -0.0481825 2 -7.92533
v -1.04818 2 -7.92533
v -1.04818 1 -7.42533
v -0.0481825 1 -7.42533
v -0.0481825 2 -7.42533
v -1.04818 2 -7.42533
v -0.671006 1 -6.82128
v -0.671006 1 -5.82128
v -0.671006 2 -5.82128
v -0.671006 2 -6.82128
v -0.171006 1 -6.82128
v -0.171006 1 -5.82128
v -0.171006 2 -5.82128
v -0.171006 2 -6.82128
v -0.921006 1 -6.57128
v 0.0789928 1 -6.57128
v 0.0789928 2 -6.57128
v -0.921006 2 -6.57128
v -0.921006 1 -6.07128
v 0.0789928 1 -6.07128
v 0.0789928 2 -6.07128
v -0.921006 2 -6.07128
v 5.39479 1 -4.93067
v 5.39479 1 -3.93067
v 5.39479 2 -3.93067
v 5.39479 2 -4.93067
v 5.89479 1 -4.93067
v 5.89479 1 -3.93067
v 5.89479 2 -3.93067
v 5.89479 2 -4.93067
v 5.14479 1 -4.68067
v 6.14479 1 -4.68067
v 6.14479 2 -4.68067
v 5.14479 2 -4.68067
v 5.14479 1 -4.18067
v 6.14479 1 -4.18067
v 6.14479 2 -4.18067
v 5.14479 2 -4.18067
v 6.20368 1 -5.81324
v 6.20368 1 -4.81324
v 6.20368 2 -4.81324
v 6.20368 2 -5.81324
v 6.70368 1 -5.81324
v 6.70368 1 -4.81324
v 6.70368 2 -4.81324
v 6.70368 2 -5.81324
v 5.95368 1 -5.56324
v 6.95368 1 -5.56324
v 6.95368 2 -5.56324
v 5.95368 2 -5.56324
v 5.95368 1 -5.06324
v 6.95368 1 -5.06324
v 6.95368 2 -5.06324
v 5.95368 2 -5.06324
v 13.0788 1 1.03235
v 13.0788 1 2.03235
v 13.0788 2 2.03235
v 13.0788 2 1.03235
v 13.5788 1 1.03235
v 13.5788 1 2.03235
v 13.5788 2 2.03235
v 13.5788 2 1.03235
v 12.8288 1 1.28235
v 13.8288 1 1.28235
v 13.8288 2 1.28235
v 12.8288 2 1.28235
v 12.8288 1 1.78235
v 13.8288 1 1.78235
v 13.8288 2 1.78235
v 12.8288 2 1.78235
vt 0.000000000 0.000000000
vt 1.000000000 0.000000000
vt 0.000000000 1.000000000
vt 1.000000000 1.000000000
vn -1 0 0
vn 0 0 1
f 2/2/1 3/4/1 4/3/1 1/1/1
f 6/2/1 7/4/1 8/3/1 5/1/1
f 9/1/2 10/2/2 11/4/2 12/3/2
f 13/1/2 14/2/2 15/4/2 16/3/2
f 18/2/1 19/4/1 20/3/1 17/1/1
f 22/2/1 23/4/1 24/3/1 21/1/1
f 25/1/2 26/2/2 27/4/2 28/3/2
f 29/1/2 30/2/2 31/4/2 32/3/2
f 34/2/1 35/4/1 36/3/1 33/1/1
f 38/2/1 39/4/1 40/3/1 37/1/1
f 41/1/2 42/2/2 43/4/2 44/3/2
f 45/1/2 46/2/2 47/4/2 48/3/2
f 50/2/1 51/4/1 52/3/1 49/1/1
f 54/2/1 55/4/1 56/3/1 53/1/1
f 57/1/2 58/2/2 59/4/2 60/3/2
f 61/1/2 62/2/2 63/4/2 64/3/2
f 66/2/1 67/4/1 68/3/1 65/1/1
f 70/2/1 71/4/1 72/3/1 69/1/1
f 73/1/2 74/2/2 75/4/2 76/3/2
f 77/1/2 78/2/2 79/4/2 80/3/2
f 82/2/1 83/4/1 84/3/1 81/1/1
f 86/2/1 87/4/1 88/3/1 85/1/1
f 89/1/2 90/2/2 91/4/2 92/3/2
f 93/1/2 94/2/2 95/4/2 96/3/2
f 98/2/1 99/4/1 100/3/1 97/1/1
f 102/2/1 103/4/1 104/3/1 101/1/1
f 105/1/2 106/2/2 107/4/2 108/3/2
f 109/1/2 110/2/2 111/4/2 112/3/2
