mtllib lighthouse.mtl
usemtl repeater
v -2 10 1
v -2 10 0
v -2 10.125 1
v -2 10.125 0
v -3 10 1
v -3 10 0
v -3 10.125 1
v -3 10.125 0
v 0 11 0
v 0 11 1
v 0 11.125 0
v 0 11.125 1
v 1 11 0
v 1 11 1
v 1 11.125 0
v 1 11.125 1
v 0 11 1
v 0 11 2
v 0 11.125 1
v 0 11.125 2
v 1 11 1
v 1 11 2
v 1 11.125 1
v 1 11.125 2
vt 0.000000000 0.000000000
vt 1.000000000 0.000000000
vt 0.000000000 0.875000000
vt 1.000000000 0.875000000
vt 0.000000000 1.000000000
vt 1.000000000 1.000000000
vn -1 0 0
vn 0 -1 0
vn 0 0 -1
vn 1 0 0
vn 0 1 0
vn 0 0 1
f 4/6/4 3/5/4 1/3/4 2/4/4
f 2/5/2 1/1/2 5/2/2 6/6/2
f 3/6/6 7/5/6 5/3/6 1/4/6
f 8/5/1 6/3/1 5/4/1 7/6/1
f 7/6/5 3/5/5 4/1/5 8/2/5
f 4/5/3 2/3/3 6/4/3 8/6/3
f 11/5/1 9/3/1 10/4/1 12/6/1
f 10/5/2 9/1/2 13/2/2 14/6/2
f 15/5/3 13/3/3 9/4/3 11/6/3
f 15/6/4 16/5/4 14/3/4 13/4/4
f 15/6/5 11/5/5 12/1/5 16/2/5
f 16/6/6 12/5/6 10/3/6 14/4/6
f 19/5/1 17/3/1 18/4/1 20/6/1
f 18/5/2 17/1/2 21/2/2 22/6/2
f 23/5/3 21/3/3 17/4/3 19/6/3
f 23/6/4 24/5/4 22/3/4 21/4/4
f 23/6/5 19/5/5 20/1/5 24/2/5
f 24/6/6 20/5/6 18/3/6 22/4/6
