mtllib lighthouse.mtl
usemtl white_tulip
v -15.0035 9 -5.88977
v -14.0973 9 -4.98352
v -14.0973 10 -4.98352
v -15.0035 10 -5.88977
v -15.0035 9 -4.98352
v -14.0973 9 -5.88977
v -14.0973 10 -5.88977
v -15.0035 10 -4.98352
v -13.9178 9 -2.95701
v -13.0116 9 -2.05076
v -13.0116 10 -2.05076
v -13.9178 10 -2.95701
v -13.9178 9 -2.05076
v -13.0116 9 -2.95701
v -13.0116 10 -2.95701
v -13.9178 10 -2.05076
v -12.8813 9 -3.99779
v -11.975 9 -3.09154
v -11.975 10 -3.09154
v -12.8813 10 -3.99779
v -12.8813 9 -3.09154
v -11.975 9 -3.99779
v -11.975 10 -3.99779
v -12.8813 10 -3.09154
v -11.7681 9 -1.81408
v -10.8619 9 -0.907833
v -10.8619 10 -0.907833
v -11.7681 10 -1.81408
v -11.7681 9 -0.907833
v -10.8619 9 -1.81408
v -10.8619 10 -1.81408
v -11.7681 10 -0.907833
v -10.8198 9 -2.78705
v -9.9135 9 -1.8808
v -9.9135 10 -1.8808
v -10.8198 10 -2.78705
v -10.8198 9 -1.8808
v -9.9135 9 -2.78705
v -9.9135 10 -2.78705
v -10.8198 10 -1.8808
v -9.94019 9 -4.0647
v -9.03394 9 -3.15845
v -9.03394 10 -3.15845
v -9.94019 10 -4.0647
v -9.94019 9 -3.15845
v -9.03394 9 -4.0647
v -9.03394 10 -4.0647
v -9.94019 10 -3.15845
v -7.84264 8 -2.04122
v -6.93639 8 -1.13497
v -6.93639 9 -1.13497
v -7.84264 9 -2.04122
v -7.84264 8 -1.13497
v -6.93639 8 -2.04122
v -6.93639 9 -2.04122
v -7.84264 9 -1.13497
v -6.92496 8 1.0184
v -6.01871 8 1.92465
v -6.01871 9 1.92465
v -6.92496 9 1.0184
v -6.92496 8 1.92465
v -6.01871 8 1.0184
v -6.01871 9 1.0184
v -6.92496 9 1.92465
v -5.86751 8 -0.877807
v -4.96126 8 0.0284424
v -4.96126 9 0.0284424
v -5.86751 9 -0.877807
v -5.86751 8 0.0284424
v -4.96126 8 -0.877807
v -4.96126 9 -0.877807
v -5.86751 9 0.0284424
vt 0.000000000 0.000000000
vt 1.000000000 0.000000000
vt 0.000000000 1.000000000
vt 1.000000000 1.000000000
vn -0.707107 0 0.707107
vn 0.707107 0 0.707107
f 1/1/1 2/2/1 3/4/1 4/3/1
f 5/1/2 6/2/2 7/4/2 8/3/2
f 9/1/1 10/2/1 11/4/1 12/3/1
f 13/1/2 14/2/2 15/4/2 16/3/2
f 17/1/1 18/2/1 19/4/1 20/3/1
f 21/1/2 22/2/2 23/4/2 24/3/2
f 25/1/1 26/2/1 27/4/1 28/3/1
f 29/1/2 30/2/2 31/4/2 32/3/2
f 33/1/1 34/2/1 35/4/1 36/3/1
f 37/1/2 38/2/2 39/4/2 40/3/2
f 41/1/1 42/2/1 43/4/1 44/3/1
f 45/1/2 46/2/2 47/4/2 48/3/2
f 49/1/1 50/2/1 51/4/1 52/3/1
f 53/1/2 54/2/2 55/4/2 56/3/2
f 57/1/1 58/2/1 59/4/1 60/3/1
f 61/1/2 62/2/2 63/4/2 64/3/2
f 65/1/1 66/2/1 67/4/1 68/3/1
f 69/1/2 70/2/2 71/4/2 72/3/2
