mtllib lighthouse.mtl
usemtl glow_lichen
v -3.98438 5 -8
v -3.98438 5 -9
v -3.98438 6 -9
v -3.98438 6 -8
v -3.01562 27 0
v -3.01562 27 1
v -3.01562 28 1
v -3.01562 28 0
v -3.01562 28 0
v -3.01562 28 1
v -3.01562 29 1
v -3.01562 29 0
v -3.01562 29 0
v -3.01562 29 1
v -3.01562 30 1
v -3.01562 30 0
v -2 24 -0.015625
v -3 24 -0.015625
v -3 25 -0.015625
v -2 25 -0.015625
v -2 25 -0.015625
v -3 25 -0.015625
v -3 26 -0.015625
v -2 26 -0.015625
v -2 26 -0.015625
v -3 26 -0.015625
v -3 27 -0.015625
v -2 27 -0.015625
v -2 27 -0.015625
v -3 27 -0.015625
v -3 28 -0.015625
v -2 28 -0.015625
v 0 21 -2.01562
v -1 21 -2.01562
v -1 22 -2.01562
v 0 22 -2.01562
v 0 22 -2.01562
v -1 22 -2.01562
v -1 23 -2.01562
v 0 23 -2.01562
v 0 23 -2.01562
v -1 23 -2.01562
v -1 24 -2.01562
v 0 24 -2.01562
v 0 24 -2.01562
v -1 24 -2.01562
v -1 25 -2.01562
v 0 25 -2.01562
v 1 35.9844 1
v 1 35.9844 0
v 0 35.9844 0
v 0 35.9844 1
v 2 31 0.984375
v 1 31 0.984375
v 1 32 0.984375
v 2 32 0.984375
v 2 34.9844 1
v 2 34.9844 0
v 1 34.9844 0
v 1 34.9844 1
v 2 32 1.98438
v 1 32 1.98438
v 1 33 1.98438
v 2 33 1.98438
v 2 33 1.98438
v 1 33 1.98438
v 1 34 1.98438
v 2 34 1.98438
v 2 34 1.98438
v 1 34 1.98438
v 1 35 1.98438
v 2 35 1.98438
v 2 34.9844 2
v 2 34.9844 1
v 1 34.9844 1
v 1 34.9844 2
v 3 31 0.984375
v 2 31 0.984375
v 2 32 0.984375
v 3 32 0.984375
v 5 4 -2.01562
v 4 4 -2.01562
v 4 5 -2.01562
v 5 5 -2.01562
v 5 5 -2.01562
v 4 5 -2.01562
v 4 6 -2.01562
v 5 6 -2.01562
v 10.0156 3 5
v 10.0156 3 4
v 10.0156 4 4
v 10.0156 4 5
vt 0.000000000 0.000000000
vt 1.000000000 0.000000000
vt 0.000000000 1.000000000
vt 1.000000000 1.000000000
vn -1 0 0
vn 0 0 -1
vn 1 0 0
vn 0 1 0
f 1/1/3 2/2/3 3/4/3 4/3/3
f 6/2/1 7/4/1 8/3/1 5/1/1
f 10/2/1 11/4/1 12/3/1 9/1/1
f 14/2/1 15/4/1 16/3/1 13/1/1
f 18/2/2 19/4/2 20/3/2 17/1/2
f 22/2/2 23/4/2 24/3/2 21/1/2
f 26/2/2 27/4/2 28/3/2 25/1/2
f 30/2/2 31/4/2 32/3/2 29/1/2
f 34/2/2 35/4/2 36/3/2 33/1/2
f 38/2/2 39/4/2 40/3/2 37/1/2
f 42/2/2 43/4/2 44/3/2 41/1/2
f 46/2/2 47/4/2 48/3/2 45/1/2
f 49/1/4 50/2/4 51/4/4 52/3/4
f 54/2/2 55/4/2 56/3/2 53/1/2
f 57/1/4 58/2/4 59/4/4 60/3/4
f 62/2/2 63/4/2 64/3/2 61/1/2
f 66/2/2 67/4/2 68/3/2 65/1/2
f 70/2/2 71/4/2 72/3/2 69/1/2
f 73/1/4 74/2/4 75/4/4 76/3/4
f 78/2/2 79/4/2 80/3/2 77/1/2
f 82/2/2 83/4/2 84/3/2 81/1/2
f 86/2/2 87/4/2 88/3/2 85/1/2
f 89/1/3 90/2/3 91/4/3 92/3/3
