mtllib lighthouse.mtl
usemtl granite
v -5 0 15
v -5 1 15
v -5 2 15
v -5 0 16
v -5 1 16
v -5 2 16
v -4 0 15
v -4 1 15
v -4 2 15
v -4 0 16
v -4 1 16
v -4 2 16
vt 0.000000000 0.000000000
vt 1.000000000 0.000000000
vt 0.000000000 1.000000000
vt 1.000000000 1.000000000
vn -1 0 0
vn 0 -1 0
vn 0 0 -1
vn 1 0 0
vn 0 1 0
vn 0 0 1
f 4/2/1 5/4/1 2/3/1 1/1/1
f 4/3/2 1/1/2 7/2/2 10/4/2
f 1/2/3 2/4/3 8/3/3 7/1/3
f 10/1/4 7/2/4 8/4/4 11/3/4
f 5/1/5 11/2/5 8/4/5 2/3/5
f 4/1/6 10/2/6 11/4/6 5/3/6
f 5/2/1 6/4/1 3/3/1 2/1/1
f 5/3/2 2/1/2 8/2/2 11/4/2
f 2/2/3 3/4/3 9/3/3 8/1/3
f 11/1/4 8/2/4 9/4/4 12/3/4
f 6/1/5 12/2/5 9/4/5 3/3/5
f 5/1/6 11/2/6 12/4/6 6/3/6
