mtllib lighthouse.mtl
usemtl oak_planks
v 0.3125 11.375 3
v 0.3125 11.375 3.125
v 0.3125 11.625 3
v 0.3125 11.625 3.125
v 0.6875 11.375 3
v 0.6875 11.375 3.125
v 0.6875 11.625 3
v 0.6875 11.625 3.125
v 0 8 3
v 0 8 4
v 1 8 3
v 1 8 4
v 2 9 10
v 2 9 11
v 3 9 10
v 3 9 11
vt 0.000000000 0.000000000
vt 1.000000000 0.000000000
vt 0.000000000 0.375000000
vt 0.125000000 0.375000000
vt 0.312500000 0.375000000
vt 0.687500000 0.375000000
vt 0.875000000 0.375000000
vt 1.000000000 0.375000000
vt 0.000000000 0.625000000
vt 0.125000000 0.625000000
vt 0.312500000 0.625000000
vt 0.687500000 0.625000000
vt 0.875000000 0.625000000
vt 1.000000000 0.625000000
vt 0.312500000 0.875000000
vt 0.687500000 0.875000000
vt 0.000000000 1.000000000
vt 0.312500000 1.000000000
vt 0.687500000 1.000000000
vt 1.000000000 1.000000000
vn -1 0 0
vn 0 -1 0
vn 0 0 -1
vn 1 0 0
vn 0 1 0
vn 0 0 1
f 3/9/1 1/3/1 2/4/1 4/10/1
f 2/18/2 1/15/2 5/16/2 6/19/2
f 7/11/3 5/5/3 1/6/3 3/12/3
f 7/14/4 8/13/4 6/7/4 5/8/4
f 7/19/5 3/18/5 4/15/5 8/16/5
f 8/12/6 4/11/6 2/5/6 6/6/6
f 10/17/2 9/1/2 11/2/2 12/20/2
f 14/17/2 13/1/2 15/2/2 16/20/2
