mtllib lighthouse.mtl
usemtl redstone_lamp
v -2 52 2
v -2 53 2
v -2 52 3
v -2 53 3
v -1 51 -1
v -1 51 0
v -1 52 -1
v -1 52 0
v -1 52 2
v -1 53 2
v -1 51 3
v -1 52 3
v -1 53 3
v -1 51 4
v -1 52 4
v -1 53 4
v 0 51 -1
v 0 52 -1
v 0 53 -1
v 0 51 0
v 0 52 0
v 0 53 0
v 0 51 3
v 0 51 4
v 0 52 3
v 0 52 4
v 0 53 3
v 0 53 4
v 1 51 -1
v 1 52 -1
v 1 53 -1
v 1 51 0
v 1 52 0
v 1 53 0
v 1 51 3
v 1 51 4
v 1 52 3
v 1 52 4
v 1 53 3
v 1 53 4
v 2 51 -1
v 2 52 -1
v 2 53 -1
v 2 51 0
v 2 52 0
v 2 53 0
v 2 51 3
v 2 51 4
v 2 52 3
v 2 52 4
v 2 53 3
v 2 53 4
v 3 51 0
v 3 52 0
v 3 53 0
v 2 51 1
v 3 51 1
v 2 52 1
v 3 52 1
v 2 53 1
v 3 53 1
v 2 51 2
v 3 51 2
v 2 52 2
v 3 52 2
v 2 53 2
v 3 53 2
v 3 51 3
v 3 52 3
v 3 53 3
vt 0.000000000 0.000000000
vt 1.000000000 0.000000000
vt 0.000000000 1.000000000
vt 1.000000000 1.000000000
vn -1 0 0
vn 0 -1 0
vn 0 0 -1
vn 1 0 0
vn 0 1 0
vn 0 0 1
f 3/2/1 4/4/1 2/3/1 1/1/1
f 3/3/2 1/1/2 9/2/2 12/4/2
f 1/2/3 2/4/3 10/3/3 9/1/3
f 12/1/4 9/2/4 10/4/4 13/3/4
f 4/1/5 13/2/5 10/4/5 2/3/5
f 3/1/6 12/2/6 13/4/6 4/3/6
f 6/2/1 8/4/1 7/3/1 5/1/1
f 6/3/2 5/1/2 17/2/2 20/4/2
f 5/2/3 7/4/3 18/3/3 17/1/3
f 20/1/4 17/2/4 18/4/4 21/3/4
f 8/1/5 21/2/5 18/4/5 7/3/5
f 6/1/6 20/2/6 21/4/6 8/3/6
f 14/2/1 15/4/1 12/3/1 11/1/1
f 14/3/2 11/1/2 23/2/2 24/4/2
f 11/2/3 12/4/3 25/3/3 23/1/3
f 24/1/4 23/2/4 25/4/4 26/3/4
f 15/1/5 26/2/5 25/4/5 12/3/5
f 14/1/6 24/2/6 26/4/6 15/3/6
f 15/2/1 16/4/1 13/3/1 12/1/1
f 15/3/2 12/1/2 25/2/2 26/4/2
f 12/2/3 13/4/3 27/3/3 25/1/3
f 26/1/4 25/2/4 27/4/4 28/3/4
f 16/1/5 28/2/5 27/4/5 13/3/5
f 15/1/6 26/2/6 28/4/6 16/3/6
f 21/2/1 22/4/1 19/3/1 18/1/1
f 21/3/2 18/1/2 30/2/2 33/4/2
f 18/2/3 19/4/3 31/3/3 30/1/3
f 33/1/4 30/2/4 31/4/4 34/3/4
f 22/1/5 34/2/5 31/4/5 19/3/5
f 21/1/6 33/2/6 34/4/6 22/3/6
f 24/2/1 26/4/1 25/3/1 23/1/1
f 24/3/2 23/1/2 35/2/2 36/4/2
f 23/2/3 25/4/3 37/3/3 35/1/3
f 36/1/4 35/2/4 37/4/4 38/3/4
f 26/1/5 38/2/5 37/4/5 25/3/5
f 24/1/6 36/2/6 38/4/6 26/3/6
f 26/2/1 28/4/1 27/3/1 25/1/1
f 26/3/2 25/1/2 37/2/2 38/4/2
f 25/2/3 27/4/3 39/3/3 37/1/3
f 38/1/4 37/2/4 39/4/4 40/3/4
f 28/1/5 40/2/5 39/4/5 27/3/5
f 26/1/6 38/2/6 40/4/6 28/3/6
f 32/2/1 33/4/1 30/3/1 29/1/1
f 32/3/2 29/1/2 41/2/2 44/4/2
f 29/2/3 30/4/3 42/3/3 41/1/3
f 44/1/4 41/2/4 42/4/4 45/3/4
f 33/1/5 45/2/5 42/4/5 30/3/5
f 32/1/6 44/2/6 45/4/6 33/3/6
f 33/2/1 34/4/1 31/3/1 30/1/1
f 33/3/2 30/1/2 42/2/2 45/4/2
f 30/2/3 31/4/3 43/3/3 42/1/3
f 45/1/4 42/2/4 43/4/4 46/3/4
f 34/1/5 46/2/5 43/4/5 31/3/5
f 33/1/6 45/2/6 46/4/6 34/3/6
f 36/2/1 38/4/1 37/3/1 35/1/1
f 36/3/2 35/1/2 47/2/2 48/4/2
f 35/2/3 37/4/3 49/3/3 47/1/3
f 48/1/4 47/2/4 49/4/4 50/3/4
f 38/1/5 50/2/5 49/4/5 37/3/5
f 36/1/6 48/2/6 50/4/6 38/3/6
f 38/2/1 40/4/1 39/3/1 37/1/1
f 38/3/2 37/1/2 49/2/2 50/4/2
f 37/2/3 39/4/3 51/3/3 49/1/3
f 50/1/4 49/2/4 51/4/4 52/3/4
f 40/1/5 52/2/5 51/4/5 39/3/5
f 38/1/6 50/2/6 52/4/6 40/3/6
f 56/2/1 58/4/1 45/3/1 44/1/1
f 56/3/2 44/1/2 53/2/2 57/4/2
f 44/2/3 45/4/3 54/3/3 53/1/3
f 57/1/4 53/2/4 54/4/4 59/3/4
f 58/1/5 59/2/5 54/4/5 45/3/5
f 56/1/6 57/2/6 59/4/6 58/3/6
f 58/2/1 60/4/1 46/3/1 45/1/1
f 58/3/2 45/1/2 54/2/2 59/4/2
f 45/2/3 46/4/3 55/3/3 54/1/3
f 59/1/4 54/2/4 55/4/4 61/3/4
f 60/1/5 61/2/5 55/4/5 46/3/5
f 58/1/6 59/2/6 61/4/6 60/3/6
f 62/2/1 64/4/1 58/3/1 56/1/1
f 62/3/2 56/1/2 57/2/2 63/4/2
f 56/2/3 58/4/3 59/3/3 57/1/3
f 63/1/4 57/2/4 59/4/4 65/3/4
f 64/1/5 65/2/5 59/4/5 58/3/5
f 62/1/6 63/2/6 65/4/6 64/3/6
f 64/2/1 66/4/1 60/3/1 58/1/1
f 64/3/2 58/1/2 59/2/2 65/4/2
f 58/2/3 60/4/3 61/3/3 59/1/3
f 65/1/4 59/2/4 61/4/4 67/3/4
f 66/1/5 67/2/5 61/4/5 60/3/5
f 64/1/6 65/2/6 67/4/6 66/3/6
f 47/2/1 49/4/1 64/3/1 62/1/1
f 47/3/2 62/1/2 63/2/2 68/4/2
f 62/2/3 64/4/3 65/3/3 63/1/3
f 68/1/4 63/2/4 65/4/4 69/3/4
f 49/1/5 69/2/5 65/4/5 64/3/5
f 47/1/6 68/2/6 69/4/6 49/3/6
f 49/2/1 51/4/1 66/3/1 64/1/1
f 49/3/2 64/1/2 65/2/2 69/4/2
f 64/2/3 66/4/3 67/3/3 65/1/3
f 69/1/4 65/2/4 67/4/4 70/3/4
f 51/1/5 70/2/5 67/4/5 66/3/5
f 49/1/6 69/2/6 70/4/6 51/3/6
