mtllib lighthouse.mtl
usemtl torch
v -12.625 8 -8.5625
v -12.625 8 -8.4375
v -12.625 8.6875 -8.5625
v -12.625 8.6875 -8.4375
v -12.375 8 -8.5625
v -12.375 8 -8.4375
v -12.375 8.6875 -8.5625
v -12.375 8.6875 -8.4375
v -12.5625 8 -8.625
v -12.5625 8 -8.375
v -12.5625 8.6875 -8.625
v -12.5625 8.6875 -8.375
v -12.4375 8 -8.625
v -12.4375 8 -8.375
v -12.4375 8.6875 -8.625
v -12.4375 8.6875 -8.375
v -12.5625 8 -8.4375
v -12.4375 8 -8.4375
v -12.5625 8.625 -8.4375
v -12.4375 8.625 -8.4375
v -12.5625 8 -8.5625
v -12.4375 8 -8.5625
v -12.5625 8.625 -8.5625
v -12.4375 8.625 -8.5625
v -12.9423 6.19483 7.375
v -13.0577 6.24267 7.375
v -12.6792 6.83 7.375
v -12.7946 6.87784 7.375
v -12.9423 6.19483 7.625
v -13.0577 6.24267 7.625
v -12.6792 6.83 7.625
v -12.7946 6.87784 7.625
v -12.8845 6.17091 7.4375
v -13.1155 6.26659 7.4375
v -12.6214 6.80608 7.4375
v -12.8524 6.90175 7.4375
v -12.8845 6.17091 7.5625
v -13.1155 6.26659 7.5625
v -12.6214 6.80608 7.5625
v -12.8524 6.90175 7.5625
v -13.0577 6.24267 7.4375
v -13.0577 6.24267 7.5625
v -12.8186 6.82009 7.4375
v -12.8186 6.82009 7.5625
v -12.9423 6.19483 7.4375
v -12.9423 6.19483 7.5625
v -12.7031 6.77226 7.4375
v -12.7031 6.77226 7.5625
v -3.94226 11.1948 2.375
v -4.05774 11.2427 2.375
v -3.67916 11.83 2.375
v -3.79465 11.8778 2.375
v -3.94226 11.1948 2.625
v -4.05774 11.2427 2.625
v -3.67916 11.83 2.625
v -3.79465 11.8778 2.625
v -3.88452 11.1709 2.4375
v -4.11549 11.2666 2.4375
v -3.62142 11.8061 2.4375
v -3.85239 11.9018 2.4375
v -3.88452 11.1709 2.5625
v -4.11549 11.2666 2.5625
v -3.62142 11.8061 2.5625
v -3.85239 11.9018 2.5625
v -4.05774 11.2427 2.4375
v -4.05774 11.2427 2.5625
v -3.81857 11.8201 2.4375
v -3.81857 11.8201 2.5625
v -3.94226 11.1948 2.4375
v -3.94226 11.1948 2.5625
v -3.70308 11.7723 2.4375
v -3.70308 11.7723 2.5625
v -2.375 1.19483 -1.94226
v -2.375 1.24267 -2.05774
v -2.375 1.83 -1.67916
v -2.375 1.87784 -1.79465
v -2.625 1.19483 -1.94226
v -2.625 1.24267 -2.05774
v -2.625 1.83 -1.67916
v -2.625 1.87784 -1.79465
v -2.4375 1.17091 -1.88451
v -2.4375 1.26659 -2.11548
v -2.4375 1.80608 -1.62142
v -2.4375 1.90175 -1.85239
v -2.5625 1.17091 -1.88451
v -2.5625 1.26659 -2.11548
v -2.5625 1.80608 -1.62142
v -2.5625 1.90175 -1.85239
v -2.4375 1.24267 -2.05774
v -2.5625 1.24267 -2.05774
v -2.4375 1.82009 -1.81857
v -2.5625 1.82009 -1.81857
v -2.4375 1.19483 -1.94226
v -2.5625 1.19483 -1.94226
v -2.4375 1.77226 -1.70308
v -2.5625 1.77226 -1.70308
v -0.0577421 11.1948 -0.375
v 0.0577431 11.2427 -0.375
v -0.320837 11.83 -0.375
v -0.205353 11.8778 -0.375
v -0.0577421 11.1948 -0.625
v 0.0577431 11.2427 -0.625
v -0.320837 11.83 -0.625
v -0.205353 11.8778 -0.625
v -0.115485 11.1709 -0.4375
v 0.115486 11.2666 -0.4375
v -0.37858 11.8061 -0.4375
v -0.14761 11.9018 -0.4375
v -0.115485 11.1709 -0.5625
v 0.115486 11.2666 -0.5625
v -0.37858 11.8061 -0.5625
v -0.14761 11.9018 -0.5625
v 0.0577431 11.2427 -0.4375
v 0.0577431 11.2427 -0.5625
v -0.181435 11.8201 -0.4375
v -0.181435 11.8201 -0.5625
v -0.0577421 11.1948 -0.4375
v -0.0577421 11.1948 -0.5625
v -0.296919 11.7723 -0.4375
v -0.296919 11.7723 -0.5625
v 0.625 11.1948 -2.94226
v 0.625 11.2427 -3.05774
v 0.625 11.83 -2.67916
v 0.625 11.8778 -2.79465
v 0.375 11.1948 -2.94226
v 0.375 11.2427 -3.05774
v 0.375 11.83 -2.67916
v 0.375 11.8778 -2.79465
v 0.5625 11.1709 -2.88451
v 0.5625 11.2666 -3.11548
v 0.5625 11.8061 -2.62142
v 0.5625 11.9018 -2.85239
v 0.4375 11.1709 -2.88451
v 0.4375 11.2666 -3.11548
v 0.4375 11.8061 -2.62142
v 0.4375 11.9018 -2.85239
v 0.5625 11.2427 -3.05774
v 0.4375 11.2427 -3.05774
v 0.5625 11.8201 -2.81856
v 0.4375 11.8201 -2.81856
v 0.5625 11.1948 -2.94226
v 0.4375 11.1948 -2.94226
v 0.5625 11.7723 -2.70308
v 0.4375 11.7723 -2.70308
v 0.625 36.1948 1.05774
v 0.625 36.2427 0.942259
v 0.625 36.83 1.32084
v 0.625 36.8778 1.20535
v 0.375 36.1948 1.05774
v 0.375 36.2427 0.942259
v 0.375 36.83 1.32084
v 0.375 36.8778 1.20535
v 0.5625 36.1709 1.11549
v 0.5625 36.2666 0.884516
v 0.5625 36.8061 1.37858
v 0.5625 36.9018 1.14761
v 0.4375 36.1709 1.11549
v 0.4375 36.2666 0.884516
v 0.4375 36.8061 1.37858
v 0.4375 36.9018 1.14761
v 0.5625 36.2427 0.942259
v 0.4375 36.2427 0.942259
v 0.5625 36.8201 1.18143
v 0.4375 36.8201 1.18143
v 0.5625 36.1948 1.05774
v 0.4375 36.1948 1.05774
v 0.5625 36.7723 1.29692
v 0.4375 36.7723 1.29692
v 1.625 3.19483 -6.94226
v 1.625 3.24267 -7.05774
v 1.625 3.83 -6.67916
v 1.625 3.87783 -6.79465
v 1.375 3.19483 -6.94226
v 1.375 3.24267 -7.05774
v 1.375 3.83 -6.67916
v 1.375 3.87783 -6.79465
v 1.5625 3.17091 -6.88451
v 1.5625 3.26659 -7.11549
v 1.5625 3.80608 -6.62142
v 1.5625 3.90175 -6.85239
v 1.4375 3.17091 -6.88451
v 1.4375 3.26659 -7.11549
v 1.4375 3.80608 -6.62142
v 1.4375 3.90175 -6.85239
v 1.5625 3.24267 -7.05774
v 1.4375 3.24267 -7.05774
v 1.5625 3.82009 -6.81856
v 1.4375 3.82009 -6.81856
v 1.5625 3.19483 -6.94226
v 1.4375 3.19483 -6.94226
v 1.5625 3.77226 -6.70308
v 1.4375 3.77226 -6.70308
v 1.94226 15.1948 -0.375
v 2.05774 15.2427 -0.375
v 1.67916 15.83 -0.375
v 1.79465 15.8778 -0.375
v 1.94226 15.1948 -0.625
v 2.05774 15.2427 -0.625
v 1.67916 15.83 -0.625
v 1.79465 15.8778 -0.625
v 1.88452 15.1709 -0.4375
v 2.11549 15.2666 -0.4375
v 1.62142 15.8061 -0.4375
v 1.85239 15.9018 -0.4375
v 1.88452 15.1709 -0.5625
v 2.11549 15.2666 -0.5625
v 1.62142 15.8061 -0.5625
v 1.85239 15.9018 -0.5625
v 2.05774 15.2427 -0.4375
v 2.05774 15.2427 -0.5625
v 1.81857 15.8201 -0.4375
v 1.81857 15.8201 -0.5625
v 1.94226 15.1948 -0.4375
v 1.94226 15.1948 -0.5625
v 1.70308 15.7723 -0.4375
v 1.70308 15.7723 -0.5625
v 2.94226 16.1948 4.625
v 3.05774 16.2427 4.625
v 2.67916 16.83 4.625
v 2.79465 16.8778 4.625
v 2.94226 16.1948 4.375
v 3.05774 16.2427 4.375
v 2.67916 16.83 4.375
v 2.79465 16.8778 4.375
v 2.88452 16.1709 4.5625
v 3.11549 16.2666 4.5625
v 2.62142 16.8061 4.5625
v 2.85239 16.9018 4.5625
v 2.88452 16.1709 4.4375
v 3.11549 16.2666 4.4375
v 2.62142 16.8061 4.4375
v 2.85239 16.9018 4.4375
v 3.05774 16.2427 4.5625
v 3.05774 16.2427 4.4375
v 2.81857 16.8201 4.5625
v 2.81857 16.8201 4.4375
v 2.94226 16.1948 4.5625
v 2.94226 16.1948 4.4375
v 2.70308 16.7723 4.5625
v 2.70308 16.7723 4.4375
v 4.94226 11.1948 1.625
v 5.05774 11.2427 1.625
v 4.67916 11.83 1.625
v 4.79465 11.8778 1.625
v 4.94226 11.1948 1.375
v 5.05774 11.2427 1.375
v 4.67916 11.83 1.375
v 4.79465 11.8778 1.375
v 4.88452 11.1709 1.5625
v 5.11549 11.2666 1.5625
v 4.62142 11.8061 1.5625
v 4.85239 11.9018 1.5625
v 4.88452 11.1709 1.4375
v 5.11549 11.2666 1.4375
v 4.62142 11.8061 1.4375
v 4.85239 11.9018 1.4375
v 5.05774 11.2427 1.5625
v 5.05774 11.2427 1.4375
v 4.81857 11.8201 1.5625
v 4.81857 11.8201 1.4375
v 4.94226 11.1948 1.5625
v 4.94226 11.1948 1.4375
v 4.70308 11.7723 1.5625
v 4.70308 11.7723 1.4375
v 14.9423 0.194832 15.625
v 15.0577 0.242667 15.625
v 14.6792 0.829999 15.625
v 14.7946 0.877834 15.625
v 14.9423 0.194832 15.375
v 15.0577 0.242667 15.375
v 14.6792 0.829999 15.375
v 14.7946 0.877834 15.375
v 14.8845 0.170915 15.5625
v 15.1155 0.266585 15.5625
v 14.6214 0.806082 15.5625
v 14.8524 0.901752 15.5625
v 14.8845 0.170915 15.4375
v 15.1155 0.266585 15.4375
v 14.6214 0.806082 15.4375
v 14.8524 0.901752 15.4375
v 15.0577 0.242667 15.5625
v 15.0577 0.242667 15.4375
v 14.8186 0.820091 15.5625
v 14.8186 0.820091 15.4375
v 14.9423 0.194832 15.5625
v 14.9423 0.194832 15.4375
v 14.7031 0.772256 15.5625
v 14.7031 0.772256 15.4375
vt 0.375000000 0.000000000
vt 0.625000000 0.000000000
vt 0.437500000 0.187500000
vt 0.562500000 0.187500000
vt 0.437500000 0.312500000
vt 0.562500000 0.312500000
vt 0.437500000 0.500000000
vt 0.562500000 0.500000000
vt 0.437500000 0.625000000
vt 0.562500000 0.625000000
vt 0.375000000 0.687500000
vt 0.625000000 0.687500000
vn -1 0 0
vn 0 -1 0
vn 0 0 -1
vn 1 0 0
vn 0 1 0
vn 0 0 1
vn -0.397273 0.9177 0
vn 0.397273 -0.9177 0
vn 0.397273 0.9177 0
vn -0.397273 -0.9177 0
vn 0 0.9177 0.397273
vn 0 -0.9177 -0.397273
vn 0.923879 -0.382685 0
vn -0.923879 0.382685 0
vn 0 -0.382682 0.92388
vn 0 0.382682 -0.92388
vn -0.92388 -0.382683 0
vn 0.923879 0.382684 0
f 7/11/3 5/1/3 1/2/3 3/12/3
f 8/12/6 4/11/6 2/1/6 6/2/6
f 11/11/1 9/1/1 10/2/1 12/12/1
f 15/12/4 16/11/4 14/1/4 13/2/4
f 23/10/5 19/9/5 20/7/5 24/8/5
f 18/5/2 17/3/2 21/4/2 22/6/2
f 27/12/13 31/11/13 29/1/13 25/2/13
f 28/11/14 26/1/14 30/2/14 32/12/14
f 35/11/3 33/1/3 34/2/3 36/12/3
f 39/12/6 40/11/6 38/1/6 37/2/6
f 47/10/9 43/9/9 44/7/9 48/8/9
f 42/5/10 41/3/10 45/4/10 46/6/10
f 51/12/13 55/11/13 53/1/13 49/2/13
f 52/11/14 50/1/14 54/2/14 56/12/14
f 59/11/3 57/1/3 58/2/3 60/12/3
f 63/12/6 64/11/6 62/1/6 61/2/6
f 71/10/9 67/9/9 68/7/9 72/8/9
f 66/5/10 65/3/10 69/4/10 70/6/10
f 75/12/15 79/11/15 77/1/15 73/2/15
f 76/11/16 74/1/16 78/2/16 80/12/16
f 84/12/4 83/11/4 81/1/4 82/2/4
f 88/11/1 86/1/1 85/2/1 87/12/1
f 95/10/11 91/9/11 92/7/11 96/8/11
f 90/5/12 89/3/12 93/4/12 94/6/12
f 103/11/17 101/1/17 97/2/17 99/12/17
f 104/12/18 100/11/18 98/1/18 102/2/18
f 108/12/6 107/11/6 105/1/6 106/2/6
f 112/11/3 110/1/3 109/2/3 111/12/3
f 119/10/7 115/9/7 116/7/7 120/8/7
f 114/5/8 113/3/8 117/4/8 118/6/8
f 123/12/15 127/11/15 125/1/15 121/2/15
f 124/11/16 122/1/16 126/2/16 128/12/16
f 132/12/4 131/11/4 129/1/4 130/2/4
f 136/11/1 134/1/1 133/2/1 135/12/1
f 143/10/11 139/9/11 140/7/11 144/8/11
f 138/5/12 137/3/12 141/4/12 142/6/12
f 147/12/15 151/11/15 149/1/15 145/2/15
f 148/11/16 146/1/16 150/2/16 152/12/16
f 156/12/4 155/11/4 153/1/4 154/2/4
f 160/11/1 158/1/1 157/2/1 159/12/1
f 167/10/11 163/9/11 164/7/11 168/8/11
f 162/5/12 161/3/12 165/4/12 166/6/12
f 171/12/15 175/11/15 173/1/15 169/2/15
f 172/11/16 170/1/16 174/2/16 176/12/16
f 180/12/4 179/11/4 177/1/4 178/2/4
f 184/11/1 182/1/1 181/2/1 183/12/1
f 191/10/11 187/9/11 188/7/11 192/8/11
f 186/5/12 185/3/12 189/4/12 190/6/12
f 199/11/17 197/1/17 193/2/17 195/12/17
f 200/12/18 196/11/18 194/1/18 198/2/18
f 204/12/6 203/11/6 201/1/6 202/2/6
f 208/11/3 206/1/3 205/2/3 207/12/3
f 215/10/7 211/9/7 212/7/7 216/8/7
f 210/5/8 209/3/8 213/4/8 214/6/8
f 223/11/17 221/1/17 217/2/17 219/12/17
f 224/12/18 220/11/18 218/1/18 222/2/18
f 228/12/6 227/11/6 225/1/6 226/2/6
f 232/11/3 230/1/3 229/2/3 231/12/3
f 239/10/7 235/9/7 236/7/7 240/8/7
f 234/5/8 233/3/8 237/4/8 238/6/8
f 247/11/17 245/1/17 241/2/17 243/12/17
f 248/12/18 244/11/18 242/1/18 246/2/18
f 252/12/6 251/11/6 249/1/6 250/2/6
f 256/11/3 254/1/3 253/2/3 255/12/3
f 263/10/7 259/9/7 260/7/7 264/8/7
f 258/5/8 257/3/8 261/4/8 262/6/8
f 271/11/17 269/1/17 265/2/17 267/12/17
f 272/12/18 268/11/18 266/1/18 270/2/18
f 276/12/6 275/11/6 273/1/6 274/2/6
f 280/11/3 278/1/3 277/2/3 279/12/3
f 287/10/7 283/9/7 284/7/7 288/8/7
f 282/5/8 281/3/8 285/4/8 286/6/8
