mtllib lighthouse.mtl
usemtl tuff
v -12 4 -14
v -12 4 -13
v -12 4.5 -14
v -12 4.5 -13
v -11 4 -14
v -11 4 -13
v -11 4.5 -14
v -11 4.5 -13
v -12 4.5 -13.5
v -12 4.5 -13
v -12 5 -13.5
v -12 5 -13
v -11 4.5 -13.5
v -11 4.5 -13
v -11 5 -13.5
v -11 5 -13
v -11 6 -12
v -11 6 -11
v -11 6.5 -12
v -11 6.5 -11
v -10 6 -12
v -10 6 -11
v -10 6.5 -12
v -10 6.5 -11
v -11 5 -11
v -11 5 -10
v -11 5.5 -11
v -11 5.5 -10
v -10 5 -11
v -10 5 -10
v -10 5.5 -11
v -10 5.5 -10
v -10 5 -13
v -10 5 -12
v -10 5.5 -13
v -10 5.5 -12
v -9 5 -13
v -9 5 -12
v -9 5.5 -13
v -9 5.5 -12
v -10 5 -12
v -10 5 -11
v -10 5.5 -12
v -10 5.5 -11
v -9 5 -12
v -9 5 -11
v -9 5.5 -12
v -9 5.5 -11
v -10 5.5 -12
v -10 5.5 -11
v -10 6 -12
v -10 6 -11
v -9.5 5.5 -12
v -9.5 5.5 -11
v -9.5 6 -12
v -9.5 6 -11
v -9 4 -14
v -9 4 -13
v -9 4.5 -14
v -9 4.5 -13
v -8 4 -14
v -8 4 -13
v -8 4.5 -14
v -8 4.5 -13
v -6 5 -8
v -6 5 -7
v -6 5.5 -8
v -6 5.5 -7
v -5 5 -8
v -5 5 -7
v -5 5.5 -8
v -5 5.5 -7
v -5.5 5.5 -8
v -5.5 5.5 -7
v -5.5 6 -8
v -5.5 6 -7
v -5 5.5 -8
v -5 5.5 -7
v -5 6 -8
v -5 6 -7
v -5 7 -9
v -5 7 -8
v -5 7.5 -9
v -5 7.5 -8
v -4 7 -9
v -4 7 -8
v -4 7.5 -9
v -4 7.5 -8
v -5 6 -8
v -5 6 -7
v -5 6.5 -8
v -5 6.5 -7
v -4 6 -8
v -4 6 -7
v -4 6.5 -8
v -4 6.5 -7
v -5 6.5 -8
v -5 6.5 -7.5
v -5 7 -8
v -5 7 -7.5
v -4 6.5 -8
v -4 6.5 -7.5
v -4 7 -8
v -4 7 -7.5
v -5 8.5 -5
v -5 8.5 -4
v -5 9 -5
v -5 9 -4
v -4 8.5 -5
v -4 8.5 -4
v -4 9 -5
v -4 9 -4
v -5 8 -4.5
v -5 8 -4
v -5 8.5 -4.5
v -5 8.5 -4
v -4 8 -4.5
v -4 8 -4
v -4 8.5 -4.5
v -4 8.5 -4
v -5 10 -4
v -5 10 -3
v -5 10.5 -4
v -5 10.5 -3
v -4 10 -4
v -4 10 -3
v -4 10.5 -4
v -4 10.5 -3
v -1 5 -11
v -1 5 -10
v -1 5.5 -11
v -1 5.5 -10
v 0 5 -11
v 0 5 -10
v 0 5.5 -11
v 0 5.5 -10
v 0 7 -9
v 0 7 -8
v 0 7.5 -9
v 0 7.5 -8
v 1 7 -9
v 1 7 -8
v 1 7.5 -9
v 1 7.5 -8
v 0.5 7.5 -9
v 0.5 7.5 -8
v 0.5 8 -9
v 0.5 8 -8
v 1 7.5 -9
v 1 7.5 -8
v 1 8 -9
v 1 8 -8
v 0 8.5 -4
v 0 8.5 -3
v 0 9 -4
v 0 9 -3
v 1 8.5 -4
v 1 8.5 -3
v 1 9 -4
v 1 9 -3
v 1 5 -8
v 1 5 -7
v 1 5.5 -8
v 1 5.5 -7
v 2 5 -8
v 2 5 -7
v 2 5.5 -8
v 2 5.5 -7
v 3 7.5 -4
v 3 7.5 -3
v 3 8 -4
v 3 8 -3
v 4 7.5 -4
v 4 7.5 -3
v 4 8 -4
v 4 8 -3
v 4 10 -3
v 4 10 -2
v 4 10.5 -3
v 4 10.5 -2
v 5 10 -3
v 5 10 -2
v 5 10.5 -3
v 5 10.5 -2
v 4 10.5 -3
v 4 10.5 -2.5
v 4 11 -3
v 4 11 -2.5
v 5 10.5 -3
v 5 10.5 -2.5
v 5 11 -3
v 5 11 -2.5
v 5 5 -9
v 5 5 -8
v 5 5.5 -9
v 5 5.5 -8
v 6 5 -9
v 6 5 -8
v 6 5.5 -9
v 6 5.5 -8
v 5 6 -8
v 5 6 -7
v 5 6.5 -8
v 5 6.5 -7
v 6 6 -8
v 6 6 -7
v 6 6.5 -8
v 6 6.5 -7
v 5 6.5 -7.5
v 5 6.5 -7
v 5 7 -7.5
v 5 7 -7
v 6 6.5 -7.5
v 6 6.5 -7
v 6 7 -7.5
v 6 7 -7
v 6 4 -8
v 6 4 -7
v 6 4.5 -8
v 6 4.5 -7
v 7 4 -8
v 7 4 -7
v 7 4.5 -8
v 7 4.5 -7
v 8 7 3
v 8 7 4
v 8 7.5 3
v 8 7.5 4
v 9 7 3
v 9 7 4
v 9 7.5 3
v 9 7.5 4
v 8 8 4
v 8 8 5
v 8 8.5 4
v 8 8.5 5
v 9 8 4
v 9 8 5
v 9 8.5 4
v 9 8.5 5
v 11 6 -1
v 11 6 0
v 11 6.5 -1
v 11 6.5 0
v 12 6 -1
v 12 6 0
v 12 6.5 -1
v 12 6.5 0
v -14 11 13
v -14 11 14
v -15 12 14
v -15 12 13
v -14 12 13
v -14 12 14
v -15 13 14
v -15 13 13
v -14 13 13
v -14 13 14
v -13 11 13
v -13 11 14
v -13 12 13
v -13 12 14
v -10 4 -14
v -10 5 -14
v -10 4 -13
v -10 5 -13
v -10 4 -12
v -10 5 -12
v -9 4 -14
v -9 4 -13
v -9 5 -14
v -9 5 -13
v -9 4 -12
v -9 5 -12
v -9 4 -11
v -9 5 -11
v -8 4 -13
v -8 4 -12
v -8 5 -13
v -8 5 -12
v -8 4 -11
v -8 5 -11
v -5 5 -8
v -5 5 -7
v -4 5 -8
v -5 6 -8
v -5 6 -9
v -4 6 -9
v -4 6 -8
v -5 7 -8
v -5 7 -9
v -4 7 -9
v -4 7 -8
v -4 5 -7
v -5 6 -7
v -4 6 -7
v -5 9 -5
v -5 9 -4
v -5 10 -4
v -5 10 -5
v -4 9 -4
v -4 9 -5
v -4 10 -5
v -4 10 -4
v -5 11 -4
v -5 11 -5
v -4 11 -5
v -4 11 -4
v -5 8 -3
v -5 8 -4
v -4 8 -4
v -4 8 -3
v -5 9 -3
v -4 9 -3
v -5 10 -3
v -4 10 -3
v -4 8 -2
v -4 9 -2
v -4 14 0
v -4 14 1
v -4 14 2
v -4 14 3
v -3 7 -5
v -3 7 -4
v -4 8 -5
v -3 8 -5
v -3 8 -4
v -3 9 -5
v -3 9 -4
v -3 10 -5
v -3 10 -4
v -3 8 -3
v -3 9 -3
v -3 10 -3
v -3 8 -2
v -3 9 -2
v -3 14 -2
v -3 14 -1
v -4 15 0
v -3 14 0
v -3 15 -1
v -3 15 0
v -4 16 0
v -3 16 -1
v -3 16 0
v -4 17 0
v -3 17 -1
v -3 17 0
v -4 18 0
v -3 18 -1
v -3 18 0
v -4 15 1
v -3 14 1
v -3 15 1
v -4 16 1
v -3 16 1
v -4 17 1
v -3 17 1
v -4 18 1
v -3 18 1
v -4 15 2
v -3 14 2
v -3 15 2
v -4 16 2
v -3 16 2
v -4 17 2
v -3 17 2
v -4 18 2
v -3 18 2
v -4 15 3
v -3 14 3
v -3 15 3
v -4 16 3
v -3 16 3
v -4 17 3
v -3 17 3
v -4 18 3
v -3 18 3
v -3 14 4
v -3 15 4
v -3 16 4
v -3 17 4
v -3 18 4
v -3 14 5
v -2 7 -5
v -2 7 -4
v -2 8 -5
v -2 8 -4
v -2 8 -3
v -2 9 -4
v -2 9 -3
v -2 8 -2
v -2 9 -2
v -2 14 -2
v -3 15 -2
v -2 14 -1
v -2 15 -2
v -2 15 -1
v -3 16 -2
v -2 16 -2
v -2 16 -1
v -3 17 -2
v -2 17 -2
v -2 17 -1
v -3 18 -2
v -2 18 -2
v -2 18 -1
v -2 14 4
v -2 18 4
v -3 15 5
v -2 14 5
v -2 15 4
v -2 15 5
v -3 16 5
v -2 16 4
v -2 16 5
v -3 17 5
v -2 17 4
v -2 17 5
v -3 18 5
v -2 18 5
v -1 8 -4
v -1 8 -3
v -1 9 -4
v -1 9 -3
v -1 14 -3
v -1 8 -2
v -1 9 -2
v -1 14 -2
v -1 15 -3
v -1 15 -2
v -1 16 -3
v -1 16 -2
v -1 17 -3
v -1 17 -2
v -1 18 -3
v -1 18 -2
v -1 18 5
v -1 14 6
v -1 14 5
v -1 15 5
v -1 15 6
v -1 16 5
v -1 16 6
v -1 17 5
v -1 17 6
v -1 18 6
v 0 8 -3
v 0 8 -4
v 0 9 -4
v 0 9 -3
v 0 14 -3
v 0 8 -2
v 0 9 -2
v 0 14 -2
v 0 15 -3
v 0 15 -2
v 0 16 -3
v 0 16 -2
v 0 17 -3
v 0 17 -2
v 0 18 -3
v 0 18 -2
v 0 18 5
v 0 14 6
v 0 14 5
v 0 15 5
v 0 15 6
v 0 16 5
v 0 16 6
v 0 17 5
v 0 17 6
v 0 18 6
v 0 5 -8
v 1 5 -8
v 0 6 -8
v 0 6 -9
v 1 6 -9
v 1 6 -8
v 0 7 -8
v 0 7 -9
v 1 7 -9
v 1 7 -8
v 0 5 -7
v 1 5 -7
v 0 6 -7
v 1 6 -7
v 1 14 -3
v 1 14 -2
v 1 15 -3
v 1 15 -2
v 1 16 -3
v 1 16 -2
v 1 17 -3
v 1 17 -2
v 1 18 -3
v 1 18 -2
v 1 18 5
v 1 14 6
v 1 14 5
v 1 15 5
v 1 15 6
v 1 16 5
v 1 16 6
v 1 17 5
v 1 17 6
v 1 18 6
v 2 14 -3
v 2 14 -2
v 2 15 -3
v 2 15 -2
v 2 16 -3
v 2 16 -2
v 2 17 -3
v 2 17 -2
v 2 18 -3
v 2 18 -2
v 2 18 5
v 2 14 6
v 2 14 5
v 2 15 5
v 2 15 6
v 2 16 5
v 2 16 6
v 2 17 5
v 2 17 6
v 2 18 6
v 3 8 -4
v 3 8 -3
v 3 9 -4
v 3 9 -3
v 3 14 -2
v 3 15 -2
v 3 16 -2
v 3 17 -2
v 3 18 -2
v 3 14 -1
v 3 15 -1
v 3 16 -1
v 3 18 -1
v 3 14 4
v 3 15 4
v 3 18 4
v 3 14 5
v 3 15 5
v 3 18 5
v 3 16 5
v 3 17 5
v 4 8 -3
v 4 8 -4
v 4 9 -4
v 4 9 -3
v 4 9 -2
v 4 10 -3
v 4 10 -2
v 4 14 -2
v 4 14 -1
v 4 15 -2
v 4 15 -1
v 4 16 -2
v 4 16 -1
v 3 17 -1
v 4 17 -2
v 4 17 -1
v 4 18 -2
v 4 18 -1
v 4 18 0
v 4 18 1
v 4 18 2
v 4 18 3
v 4 14 3
v 4 14 4
v 4 15 3
v 4 15 4
v 3 16 4
v 4 16 3
v 4 16 4
v 3 17 4
v 4 17 3
v 4 17 4
v 4 18 4
v 4 14 5
v 4 15 5
v 4 16 5
v 4 17 5
v 4 18 5
v 5 8 -3
v 5 8 -4
v 5 9 -4
v 5 9 -3
v 4 10 -4
v 5 10 -4
v 5 10 -3
v 5 8 -2
v 5 9 -2
v 5 10 -2
v 4 14 0
v 4 15 0
v 5 14 0
v 5 15 0
v 4 16 0
v 5 16 0
v 4 17 0
v 5 17 0
v 5 18 0
v 5 7 1
v 5 8 1
v 4 14 1
v 4 15 1
v 5 14 1
v 5 15 1
v 4 16 1
v 5 16 1
v 4 17 1
v 5 17 1
v 5 18 1
v 5 7 2
v 5 8 2
v 5 9 2
v 4 14 2
v 4 15 2
v 5 14 2
v 5 15 2
v 4 16 2
v 5 16 2
v 4 17 2
v 5 17 2
v 5 18 2
v 5 7 3
v 5 8 3
v 5 9 3
v 5 14 3
v 5 15 3
v 5 16 3
v 5 17 3
v 5 18 3
v 5 4 -8
v 5 4 -9
v 6 4 -9
v 6 4 -8
v 5 5 -8
v 5 5 -9
v 6 5 -9
v 6 5 -8
v 5 5 -7
v 6 5 -7
v 5 6 -7
v 5 6 -8
v 6 6 -8
v 6 6 -7
v 6 8 -2
v 6 8 -3
v 6 9 -3
v 6 9 -2
v 6 7 1
v 6 8 1
v 6 7 2
v 6 8 2
v 6 9 2
v 6 7 3
v 6 8 3
v 6 9 3
v 6 7 8
v 6 7 9
v 6 8 9
v 6 8 10
v 7 8 1
v 7 9 1
v 7 8 2
v 7 9 2
v 7 8 4
v 7 8 5
v 7 7 8
v 7 7 9
v 6 8 8
v 7 8 8
v 7 8 9
v 6 9 9
v 6 9 8
v 7 9 8
v 7 9 9
v 6 10 9
v 6 10 8
v 7 10 8
v 7 10 9
v 7 8 10
v 6 9 10
v 7 9 10
v 8 8 1
v 8 8 2
v 8 9 1
v 8 9 2
v 8 7 4
v 8 8 4
v 8 7 5
v 8 8 5
v 7 9 5
v 7 9 4
v 8 9 4
v 8 9 5
v 8 9 8
v 8 9 9
v 8 10 8
v 8 10 9
v 9 7 4
v 9 7 5
v 9 8 4
v 9 8 5
v 10 7 -1
v 10 7 -2
v 11 7 -2
v 11 7 -1
v 10 8 -1
v 10 8 -2
v 11 8 -2
v 11 8 -1
vt 0.000000000 0.000000000
vt 0.500000000 0.000000000
vt 1.000000000 0.000000000
vt 0.000000000 0.500000000
vt 0.500000000 0.500000000
vt 1.000000000 0.500000000
vt 0.000000000 1.000000000
vt 0.500000000 1.000000000
vt 1.000000000 1.000000000
vn -1 0 0
vn 0 -1 0
vn 0 0 -1
vn 1 0 0
vn 0 1 0
vn 0 0 1
f 3/4/1 1/1/1 2/3/1 4/6/1
f 2/7/2 1/1/2 5/3/2 6/9/2
f 7/4/3 5/1/3 1/3/3 3/6/3
f 7/6/4 8/4/4 6/1/4 5/3/4
f 7/9/5 3/7/5 4/1/5 8/3/5
f 8/6/6 4/4/6 2/1/6 6/3/6
f 11/8/1 9/5/1 10/6/1 12/9/1
f 15/7/3 13/4/3 9/6/3 11/9/3
f 15/8/4 16/7/4 14/4/4 13/5/4
f 15/6/5 11/4/5 12/1/5 16/3/5
f 16/9/6 12/7/6 10/4/6 14/6/6
f 19/4/1 17/1/1 18/3/1 20/6/1
f 18/7/2 17/1/2 21/3/2 22/9/2
f 23/4/3 21/1/3 17/3/3 19/6/3
f 23/6/4 24/4/4 22/1/4 21/3/4
f 23/9/5 19/7/5 20/1/5 24/3/5
f 24/6/6 20/4/6 18/1/6 22/3/6
f 27/4/1 25/1/1 26/3/1 28/6/1
f 26/7/2 25/1/2 29/3/2 30/9/2
f 31/4/3 29/1/3 25/3/3 27/6/3
f 31/6/4 32/4/4 30/1/4 29/3/4
f 31/9/5 27/7/5 28/1/5 32/3/5
f 32/6/6 28/4/6 26/1/6 30/3/6
f 35/4/1 33/1/1 34/3/1 36/6/1
f 34/7/2 33/1/2 37/3/2 38/9/2
f 39/4/3 37/1/3 33/3/3 35/6/3
f 39/6/4 40/4/4 38/1/4 37/3/4
f 39/9/5 35/7/5 36/1/5 40/3/5
f 40/6/6 36/4/6 34/1/6 38/3/6
f 43/4/1 41/1/1 42/3/1 44/6/1
f 42/7/2 41/1/2 45/3/2 46/9/2
f 47/4/3 45/1/3 41/3/3 43/6/3
f 47/6/4 48/4/4 46/1/4 45/3/4
f 47/9/5 43/7/5 44/1/5 48/3/5
f 48/6/6 44/4/6 42/1/6 46/3/6
f 51/7/1 49/4/1 50/6/1 52/9/1
f 55/8/3 53/5/3 49/6/3 51/9/3
f 55/9/4 56/7/4 54/4/4 53/6/4
f 55/8/5 51/7/5 52/1/5 56/2/5
f 56/8/6 52/7/6 50/4/6 54/5/6
f 59/4/1 57/1/1 58/3/1 60/6/1
f 58/7/2 57/1/2 61/3/2 62/9/2
f 63/4/3 61/1/3 57/3/3 59/6/3
f 63/6/4 64/4/4 62/1/4 61/3/4
f 63/9/5 59/7/5 60/1/5 64/3/5
f 64/6/6 60/4/6 58/1/6 62/3/6
f 67/4/1 65/1/1 66/3/1 68/6/1
f 66/7/2 65/1/2 69/3/2 70/9/2
f 71/4/3 69/1/3 65/3/3 67/6/3
f 71/6/4 72/4/4 70/1/4 69/3/4
f 71/9/5 67/7/5 68/1/5 72/3/5
f 72/6/6 68/4/6 66/1/6 70/3/6
f 75/7/1 73/4/1 74/6/1 76/9/1
f 79/7/3 77/4/3 73/5/3 75/8/3
f 79/9/4 80/7/4 78/4/4 77/6/4
f 79/9/5 75/8/5 76/2/5 80/3/5
f 80/9/6 76/8/6 74/5/6 78/6/6
f 83/4/1 81/1/1 82/3/1 84/6/1
f 82/7/2 81/1/2 85/3/2 86/9/2
f 87/4/3 85/1/3 81/3/3 83/6/3
f 87/6/4 88/4/4 86/1/4 85/3/4
f 87/9/5 83/7/5 84/1/5 88/3/5
f 88/6/6 84/4/6 82/1/6 86/3/6
f 91/4/1 89/1/1 90/3/1 92/6/1
f 90/7/2 89/1/2 93/3/2 94/9/2
f 95/4/3 93/1/3 89/3/3 91/6/3
f 95/6/4 96/4/4 94/1/4 93/3/4
f 95/9/5 91/7/5 92/1/5 96/3/5
f 96/6/6 92/4/6 90/1/6 94/3/6
f 99/7/1 97/4/1 98/5/1 100/8/1
f 103/7/3 101/4/3 97/6/3 99/9/3
f 103/9/4 104/8/4 102/5/4 101/6/4
f 103/9/5 99/7/5 100/4/5 104/6/5
f 104/9/6 100/7/6 98/4/6 102/6/6
f 107/7/1 105/4/1 106/6/1 108/9/1
f 106/7/2 105/1/2 109/3/2 110/9/2
f 111/7/3 109/4/3 105/6/3 107/9/3
f 111/9/4 112/7/4 110/4/4 109/6/4
f 111/9/5 107/7/5 108/1/5 112/3/5
f 112/9/6 108/7/6 106/4/6 110/6/6
f 115/5/1 113/2/1 114/3/1 116/6/1
f 114/4/2 113/1/2 117/3/2 118/6/2
f 119/4/3 117/1/3 113/3/3 115/6/3
f 119/5/4 120/4/4 118/1/4 117/2/4
f 120/6/6 116/4/6 114/1/6 118/3/6
f 123/4/1 121/1/1 122/3/1 124/6/1
f 122/7/2 121/1/2 125/3/2 126/9/2
f 127/4/3 125/1/3 121/3/3 123/6/3
f 127/6/4 128/4/4 126/1/4 125/3/4
f 127/9/5 123/7/5 124/1/5 128/3/5
f 128/6/6 124/4/6 122/1/6 126/3/6
f 131/4/1 129/1/1 130/3/1 132/6/1
f 130/7/2 129/1/2 133/3/2 134/9/2
f 135/4/3 133/1/3 129/3/3 131/6/3
f 135/6/4 136/4/4 134/1/4 133/3/4
f 135/9/5 131/7/5 132/1/5 136/3/5
f 136/6/6 132/4/6 130/1/6 134/3/6
f 139/4/1 137/1/1 138/3/1 140/6/1
f 138/7/2 137/1/2 141/3/2 142/9/2
f 143/4/3 141/1/3 137/3/3 139/6/3
f 143/6/4 144/4/4 142/1/4 141/3/4
f 143/9/5 139/7/5 140/1/5 144/3/5
f 144/6/6 140/4/6 138/1/6 142/3/6
f 147/7/1 145/4/1 146/6/1 148/9/1
f 151/7/3 149/4/3 145/5/3 147/8/3
f 151/9/4 152/7/4 150/4/4 149/6/4
f 151/9/5 147/8/5 148/2/5 152/3/5
f 152/9/6 148/8/6 146/5/6 150/6/6
f 155/7/1 153/4/1 154/6/1 156/9/1
f 154/7/2 153/1/2 157/3/2 158/9/2
f 159/7/3 157/4/3 153/6/3 155/9/3
f 159/9/4 160/7/4 158/4/4 157/6/4
f 159/9/5 155/7/5 156/1/5 160/3/5
f 160/9/6 156/7/6 154/4/6 158/6/6
f 163/4/1 161/1/1 162/3/1 164/6/1
f 162/7/2 161/1/2 165/3/2 166/9/2
f 167/4/3 165/1/3 161/3/3 163/6/3
f 167/6/4 168/4/4 166/1/4 165/3/4
f 167/9/5 163/7/5 164/1/5 168/3/5
f 168/6/6 164/4/6 162/1/6 166/3/6
f 171/7/1 169/4/1 170/6/1 172/9/1
f 170/7/2 169/1/2 173/3/2 174/9/2
f 175/7/3 173/4/3 169/6/3 171/9/3
f 175/9/4 176/7/4 174/4/4 173/6/4
f 175/9/5 171/7/5 172/1/5 176/3/5
f 176/9/6 172/7/6 170/4/6 174/6/6
f 179/4/1 177/1/1 178/3/1 180/6/1
f 178/7/2 177/1/2 181/3/2 182/9/2
f 183/4/3 181/1/3 177/3/3 179/6/3
f 183/6/4 184/4/4 182/1/4 181/3/4
f 183/9/5 179/7/5 180/1/5 184/3/5
f 184/6/6 180/4/6 178/1/6 182/3/6
f 187/7/1 185/4/1 186/5/1 188/8/1
f 191/7/3 189/4/3 185/6/3 187/9/3
f 191/9/4 192/8/4 190/5/4 189/6/4
f 191/9/5 187/7/5 188/4/5 192/6/5
f 192/9/6 188/7/6 186/4/6 190/6/6
f 195/4/1 193/1/1 194/3/1 196/6/1
f 194/7/2 193/1/2 197/3/2 198/9/2
f 199/4/3 197/1/3 193/3/3 195/6/3
f 199/6/4 200/4/4 198/1/4 197/3/4
f 199/9/5 195/7/5 196/1/5 200/3/5
f 200/6/6 196/4/6 194/1/6 198/3/6
f 203/4/1 201/1/1 202/3/1 204/6/1
f 202/7/2 201/1/2 205/3/2 206/9/2
f 207/4/3 205/1/3 201/3/3 203/6/3
f 207/6/4 208/4/4 206/1/4 205/3/4
f 207/9/5 203/7/5 204/1/5 208/3/5
f 208/6/6 204/4/6 202/1/6 206/3/6
f 211/8/1 209/5/1 210/6/1 212/9/1
f 215/7/3 213/4/3 209/6/3 211/9/3
f 215/8/4 216/7/4 214/4/4 213/5/4
f 215/6/5 211/4/5 212/1/5 216/3/5
f 216/9/6 212/7/6 210/4/6 214/6/6
f 219/4/1 217/1/1 218/3/1 220/6/1
f 218/7/2 217/1/2 221/3/2 222/9/2
f 223/4/3 221/1/3 217/3/3 219/6/3
f 223/6/4 224/4/4 222/1/4 221/3/4
f 223/9/5 219/7/5 220/1/5 224/3/5
f 224/6/6 220/4/6 218/1/6 222/3/6
f 227/4/1 225/1/1 226/3/1 228/6/1
f 226/7/2 225/1/2 229/3/2 230/9/2
f 231/4/3 229/1/3 225/3/3 227/6/3
f 231/6/4 232/4/4 230/1/4 229/3/4
f 231/9/5 227/7/5 228/1/5 232/3/5
f 232/6/6 228/4/6 226/1/6 230/3/6
f 235/4/1 233/1/1 234/3/1 236/6/1
f 234/7/2 233/1/2 237/3/2 238/9/2
f 239/4/3 237/1/3 233/3/3 235/6/3
f 239/6/4 240/4/4 238/1/4 237/3/4
f 239/9/5 235/7/5 236/1/5 240/3/5
f 240/6/6 236/4/6 234/1/6 238/3/6
f 243/4/1 241/1/1 242/3/1 244/6/1
f 242/7/2 241/1/2 245/3/2 246/9/2
f 247/4/3 245/1/3 241/3/3 243/6/3
f 247/6/4 248/4/4 246/1/4 245/3/4
f 247/9/5 243/7/5 244/1/5 248/3/5
f 248/6/6 244/4/6 242/1/6 246/3/6
f 251/3/1 255/9/1 256/7/1 252/1/1
f 251/7/2 252/1/2 253/3/2 254/9/2
f 252/3/3 256/9/3 257/7/3 253/1/3
f 254/1/4 253/3/4 257/9/4 258/7/4
f 255/1/5 258/3/5 257/9/5 256/7/5
f 251/1/6 254/3/6 258/9/6 255/7/6
f 250/3/1 254/9/1 253/7/1 249/1/1
f 250/7/2 249/1/2 259/3/2 260/9/2
f 249/3/3 253/9/3 261/7/3 259/1/3
f 260/1/4 259/3/4 261/9/4 262/7/4
f 254/1/5 262/3/5 261/9/5 253/7/5
f 250/1/6 260/3/6 262/9/6 254/7/6
f 265/3/1 266/9/1 264/7/1 263/1/1
f 265/7/2 263/1/2 269/3/2 270/9/2
f 263/3/3 264/9/3 271/7/3 269/1/3
f 270/1/4 269/3/4 271/9/4 272/7/4
f 266/1/5 272/3/5 271/9/5 264/7/5
f 265/1/6 270/3/6 272/9/6 266/7/6
f 267/3/1 268/9/1 266/7/1 265/1/1
f 267/7/2 265/1/2 270/3/2 273/9/2
f 265/3/3 266/9/3 272/7/3 270/1/3
f 273/1/4 270/3/4 272/9/4 274/7/4
f 268/1/5 274/3/5 272/9/5 266/7/5
f 267/1/6 273/3/6 274/9/6 268/7/6
f 273/3/1 274/9/1 272/7/1 270/1/1
f 273/7/2 270/1/2 277/3/2 278/9/2
f 270/3/3 272/9/3 279/7/3 277/1/3
f 278/1/4 277/3/4 279/9/4 280/7/4
f 274/1/5 280/3/5 279/9/5 272/7/5
f 273/1/6 278/3/6 280/9/6 274/7/6
f 275/3/1 276/9/1 274/7/1 273/1/1
f 275/7/2 273/1/2 278/3/2 281/9/2
f 273/3/3 274/9/3 280/7/3 278/1/3
f 281/1/4 278/3/4 280/9/4 282/7/4
f 276/1/5 282/3/5 280/9/5 274/7/5
f 275/1/6 281/3/6 282/9/6 276/7/6
f 286/3/1 290/9/1 291/7/1 287/1/1
f 286/7/2 287/1/2 288/3/2 289/9/2
f 287/3/3 291/9/3 292/7/3 288/1/3
f 289/1/4 288/3/4 292/9/4 293/7/4
f 290/1/5 293/3/5 292/9/5 291/7/5
f 286/1/6 289/3/6 293/9/6 290/7/6
f 284/3/1 295/9/1 286/7/1 283/1/1
f 284/7/2 283/1/2 285/3/2 294/9/2
f 283/3/3 286/9/3 289/7/3 285/1/3
f 294/1/4 285/3/4 289/9/4 296/7/4
f 295/1/5 296/3/5 289/9/5 286/7/5
f 284/1/6 294/3/6 296/9/6 295/7/6
f 298/3/1 299/9/1 300/7/1 297/1/1
f 298/7/2 297/1/2 302/3/2 301/9/2
f 297/3/3 300/9/3 303/7/3 302/1/3
f 301/1/4 302/3/4 303/9/4 304/7/4
f 299/1/5 304/3/5 303/9/5 300/7/5
f 298/1/6 301/3/6 304/9/6 299/7/6
f 299/3/1 305/9/1 306/7/1 300/1/1
f 299/7/2 300/1/2 303/3/2 304/9/2
f 300/3/3 306/9/3 307/7/3 303/1/3
f 304/1/4 303/3/4 307/9/4 308/7/4
f 305/1/5 308/3/5 307/9/5 306/7/5
f 299/1/6 304/3/6 308/9/6 305/7/6
f 309/3/1 313/9/1 298/7/1 310/1/1
f 309/7/2 310/1/2 311/3/2 312/9/2
f 310/3/3 298/9/3 301/7/3 311/1/3
f 312/1/4 311/3/4 301/9/4 314/7/4
f 313/1/5 314/3/5 301/9/5 298/7/5
f 309/1/6 312/3/6 314/9/6 313/7/6
f 313/3/1 315/9/1 299/7/1 298/1/1
f 313/7/2 298/1/2 301/3/2 314/9/2
f 298/3/3 299/9/3 304/7/3 301/1/3
f 314/1/4 301/3/4 304/9/4 316/7/4
f 315/1/5 316/3/5 304/9/5 299/7/5
f 313/1/6 314/3/6 316/9/6 315/7/6
f 311/3/1 301/9/1 302/7/1 325/1/1
f 311/7/2 325/1/2 326/3/2 327/9/2
f 325/3/3 302/9/3 328/7/3 326/1/3
f 327/1/4 326/3/4 328/9/4 329/7/4
f 301/1/5 329/3/5 328/9/5 302/7/5
f 311/1/6 327/3/6 329/9/6 301/7/6
f 301/3/1 304/9/1 303/7/1 302/1/1
f 301/7/2 302/1/2 328/3/2 329/9/2
f 302/3/3 303/9/3 330/7/3 328/1/3
f 329/1/4 328/3/4 330/9/4 331/7/4
f 304/1/5 331/3/5 330/9/5 303/7/5
f 301/1/6 329/3/6 331/9/6 304/7/6
f 312/3/1 314/9/1 301/7/1 311/1/1
f 312/7/2 311/1/2 327/3/2 332/9/2
f 311/3/3 301/9/3 329/7/3 327/1/3
f 332/1/4 327/3/4 329/9/4 333/7/4
f 314/1/5 333/3/5 329/9/5 301/7/5
f 312/1/6 332/3/6 333/9/6 314/7/6
f 314/3/1 316/9/1 304/7/1 301/1/1
f 314/7/2 301/1/2 329/3/2 333/9/2
f 301/3/3 304/9/3 331/7/3 329/1/3
f 333/1/4 329/3/4 331/9/4 334/7/4
f 316/1/5 334/3/5 331/9/5 304/7/5
f 314/1/6 333/3/6 334/9/6 316/7/6
f 317/3/1 318/9/1 314/7/1 312/1/1
f 317/7/2 312/1/2 332/3/2 335/9/2
f 312/3/3 314/9/3 333/7/3 332/1/3
f 335/1/4 332/3/4 333/9/4 336/7/4
f 318/1/5 336/3/5 333/9/5 314/7/5
f 317/1/6 335/3/6 336/9/6 318/7/6
f 320/3/1 352/9/1 339/7/1 319/1/1
f 320/7/2 319/1/2 340/3/2 353/9/2
f 319/3/3 339/9/3 342/7/3 340/1/3
f 353/1/4 340/3/4 342/9/4 354/7/4
f 352/1/5 354/3/5 342/9/5 339/7/5
f 320/1/6 353/3/6 354/9/6 352/7/6
f 352/3/1 355/9/1 343/7/1 339/1/1
f 352/7/2 339/1/2 342/3/2 354/9/2
f 339/3/3 343/9/3 345/7/3 342/1/3
f 354/1/4 342/3/4 345/9/4 356/7/4
f 355/1/5 356/3/5 345/9/5 343/7/5
f 352/1/6 354/3/6 356/9/6 355/7/6
f 355/3/1 357/9/1 346/7/1 343/1/1
f 355/7/2 343/1/2 345/3/2 356/9/2
f 343/3/3 346/9/3 348/7/3 345/1/3
f 356/1/4 345/3/4 348/9/4 358/7/4
f 357/1/5 358/3/5 348/9/5 346/7/5
f 355/1/6 356/3/6 358/9/6 357/7/6
f 357/3/1 359/9/1 349/7/1 346/1/1
f 357/7/2 346/1/2 348/3/2 358/9/2
f 346/3/3 349/9/3 351/7/3 348/1/3
f 358/1/4 348/3/4 351/9/4 360/7/4
f 359/1/5 360/3/5 351/9/5 349/7/5
f 357/1/6 358/3/6 360/9/6 359/7/6
f 321/3/1 361/9/1 352/7/1 320/1/1
f 321/7/2 320/1/2 353/3/2 362/9/2
f 320/3/3 352/9/3 354/7/3 353/1/3
f 362/1/4 353/3/4 354/9/4 363/7/4
f 361/1/5 363/3/5 354/9/5 352/7/5
f 321/1/6 362/3/6 363/9/6 361/7/6
f 361/3/1 364/9/1 355/7/1 352/1/1
f 361/7/2 352/1/2 354/3/2 363/9/2
f 352/3/3 355/9/3 356/7/3 354/1/3
f 363/1/4 354/3/4 356/9/4 365/7/4
f 364/1/5 365/3/5 356/9/5 355/7/5
f 361/1/6 363/3/6 365/9/6 364/7/6
f 364/3/1 366/9/1 357/7/1 355/1/1
f 364/7/2 355/1/2 356/3/2 365/9/2
f 355/3/3 357/9/3 358/7/3 356/1/3
f 365/1/4 356/3/4 358/9/4 367/7/4
f 366/1/5 367/3/5 358/9/5 357/7/5
f 364/1/6 365/3/6 367/9/6 366/7/6
f 366/3/1 368/9/1 359/7/1 357/1/1
f 366/7/2 357/1/2 358/3/2 367/9/2
f 357/3/3 359/9/3 360/7/3 358/1/3
f 367/1/4 358/3/4 360/9/4 369/7/4
f 368/1/5 369/3/5 360/9/5 359/7/5
f 366/1/6 367/3/6 369/9/6 368/7/6
f 322/3/1 370/9/1 361/7/1 321/1/1
f 322/7/2 321/1/2 362/3/2 371/9/2
f 321/3/3 361/9/3 363/7/3 362/1/3
f 371/1/4 362/3/4 363/9/4 372/7/4
f 370/1/5 372/3/5 363/9/5 361/7/5
f 322/1/6 371/3/6 372/9/6 370/7/6
f 370/3/1 373/9/1 364/7/1 361/1/1
f 370/7/2 361/1/2 363/3/2 372/9/2
f 361/3/3 364/9/3 365/7/3 363/1/3
f 372/1/4 363/3/4 365/9/4 374/7/4
f 373/1/5 374/3/5 365/9/5 364/7/5
f 370/1/6 372/3/6 374/9/6 373/7/6
f 373/3/1 375/9/1 366/7/1 364/1/1
f 373/7/2 364/1/2 365/3/2 374/9/2
f 364/3/3 366/9/3 367/7/3 365/1/3
f 374/1/4 365/3/4 367/9/4 376/7/4
f 375/1/5 376/3/5 367/9/5 366/7/5
f 373/1/6 374/3/6 376/9/6 375/7/6
f 375/3/1 377/9/1 368/7/1 366/1/1
f 375/7/2 366/1/2 367/3/2 376/9/2
f 366/3/3 368/9/3 369/7/3 367/1/3
f 376/1/4 367/3/4 369/9/4 378/7/4
f 377/1/5 378/3/5 369/9/5 368/7/5
f 375/1/6 376/3/6 378/9/6 377/7/6
f 324/3/1 327/9/1 326/7/1 323/1/1
f 324/7/2 323/1/2 385/3/2 386/9/2
f 323/3/3 326/9/3 387/7/3 385/1/3
f 386/1/4 385/3/4 387/9/4 388/7/4
f 327/1/5 388/3/5 387/9/5 326/7/5
f 324/1/6 386/3/6 388/9/6 327/7/6
f 332/3/1 333/9/1 329/7/1 327/1/1
f 332/7/2 327/1/2 388/3/2 389/9/2
f 327/3/3 329/9/3 390/7/3 388/1/3
f 389/1/4 388/3/4 390/9/4 391/7/4
f 333/1/5 391/3/5 390/9/5 329/7/5
f 332/1/6 389/3/6 391/9/6 333/7/6
f 338/3/1 341/9/1 395/7/1 337/1/1
f 338/7/2 337/1/2 394/3/2 396/9/2
f 337/3/3 395/9/3 397/7/3 394/1/3
f 396/1/4 394/3/4 397/9/4 398/7/4
f 341/1/5 398/3/5 397/9/5 395/7/5
f 338/1/6 396/3/6 398/9/6 341/7/6
f 341/3/1 344/9/1 399/7/1 395/1/1
f 341/7/2 395/1/2 397/3/2 398/9/2
f 395/3/3 399/9/3 400/7/3 397/1/3
f 398/1/4 397/3/4 400/9/4 401/7/4
f 344/1/5 401/3/5 400/9/5 399/7/5
f 341/1/6 398/3/6 401/9/6 344/7/6
f 344/3/1 347/9/1 402/7/1 399/1/1
f 344/7/2 399/1/2 400/3/2 401/9/2
f 399/3/3 402/9/3 403/7/3 400/1/3
f 401/1/4 400/3/4 403/9/4 404/7/4
f 347/1/5 404/3/5 403/9/5 402/7/5
f 344/1/6 401/3/6 404/9/6 347/7/6
f 347/3/1 350/9/1 405/7/1 402/1/1
f 347/7/2 402/1/2 403/3/2 404/9/2
f 402/3/3 405/9/3 406/7/3 403/1/3
f 404/1/4 403/3/4 406/9/4 407/7/4
f 350/1/5 407/3/5 406/9/5 405/7/5
f 347/1/6 404/3/6 407/9/6 350/7/6
f 384/3/1 410/9/1 380/7/1 379/1/1
f 384/7/2 379/1/2 408/3/2 411/9/2
f 379/3/3 380/9/3 412/7/3 408/1/3
f 411/1/4 408/3/4 412/9/4 413/7/4
f 410/1/5 413/3/5 412/9/5 380/7/5
f 384/1/6 411/3/6 413/9/6 410/7/6
f 410/3/1 414/9/1 381/7/1 380/1/1
f 410/7/2 380/1/2 412/3/2 413/9/2
f 380/3/3 381/9/3 415/7/3 412/1/3
f 413/1/4 412/3/4 415/9/4 416/7/4
f 414/1/5 416/3/5 415/9/5 381/7/5
f 410/1/6 413/3/6 416/9/6 414/7/6
f 414/3/1 417/9/1 382/7/1 381/1/1
f 414/7/2 381/1/2 415/3/2 416/9/2
f 381/3/3 382/9/3 418/7/3 415/1/3
f 416/1/4 415/3/4 418/9/4 419/7/4
f 417/1/5 419/3/5 418/9/5 382/7/5
f 414/1/6 416/3/6 419/9/6 417/7/6
f 417/3/1 420/9/1 383/7/1 382/1/1
f 417/7/2 382/1/2 418/3/2 419/9/2
f 382/3/3 383/9/3 409/7/3 418/1/3
f 419/1/4 418/3/4 409/9/4 421/7/4
f 420/1/5 421/3/5 409/9/5 383/7/5
f 417/1/6 419/3/6 421/9/6 420/7/6
f 392/3/1 393/9/1 391/7/1 389/1/1
f 392/7/2 389/1/2 423/3/2 427/9/2
f 389/3/3 391/9/3 425/7/3 423/1/3
f 427/1/4 423/3/4 425/9/4 428/7/4
f 393/1/5 428/3/5 425/9/5 391/7/5
f 392/1/6 427/3/6 428/9/6 393/7/6
f 423/3/1 425/9/1 424/7/1 422/1/1
f 423/7/2 422/1/2 449/3/2 448/9/2
f 422/3/3 424/9/3 450/7/3 449/1/3
f 448/1/4 449/3/4 450/9/4 451/7/4
f 425/1/5 451/3/5 450/9/5 424/7/5
f 423/1/6 448/3/6 451/9/6 425/7/6
f 427/3/1 428/9/1 425/7/1 423/1/1
f 427/7/2 423/1/2 448/3/2 453/9/2
f 423/3/3 425/9/3 451/7/3 448/1/3
f 453/1/4 448/3/4 451/9/4 454/7/4
f 428/1/5 454/3/5 451/9/5 425/7/5
f 427/1/6 453/3/6 454/9/6 428/7/6
f 429/3/1 431/9/1 430/7/1 426/1/1
f 429/7/2 426/1/2 452/3/2 455/9/2
f 426/3/3 430/9/3 456/7/3 452/1/3
f 455/1/4 452/3/4 456/9/4 457/7/4
f 431/1/5 457/3/5 456/9/5 430/7/5
f 429/1/6 455/3/6 457/9/6 431/7/6
f 431/3/1 433/9/1 432/7/1 430/1/1
f 431/7/2 430/1/2 456/3/2 457/9/2
f 430/3/3 432/9/3 458/7/3 456/1/3
f 457/1/4 456/3/4 458/9/4 459/7/4
f 433/1/5 459/3/5 458/9/5 432/7/5
f 431/1/6 457/3/6 459/9/6 433/7/6
f 433/3/1 435/9/1 434/7/1 432/1/1
f 433/7/2 432/1/2 458/3/2 459/9/2
f 432/3/3 434/9/3 460/7/3 458/1/3
f 459/1/4 458/3/4 460/9/4 461/7/4
f 435/1/5 461/3/5 460/9/5 434/7/5
f 433/1/6 459/3/6 461/9/6 435/7/6
f 435/3/1 437/9/1 436/7/1 434/1/1
f 435/7/2 434/1/2 460/3/2 461/9/2
f 434/3/3 436/9/3 462/7/3 460/1/3
f 461/1/4 460/3/4 462/9/4 463/7/4
f 437/1/5 463/3/5 462/9/5 436/7/5
f 435/1/6 461/3/6 463/9/6 437/7/6
f 439/3/1 442/9/1 441/7/1 440/1/1
f 439/7/2 440/1/2 466/3/2 465/9/2
f 440/3/3 441/9/3 467/7/3 466/1/3
f 465/1/4 466/3/4 467/9/4 468/7/4
f 442/1/5 468/3/5 467/9/5 441/7/5
f 439/1/6 465/3/6 468/9/6 442/7/6
f 442/3/1 444/9/1 443/7/1 441/1/1
f 442/7/2 441/1/2 467/3/2 468/9/2
f 441/3/3 443/9/3 469/7/3 467/1/3
f 468/1/4 467/3/4 469/9/4 470/7/4
f 444/1/5 470/3/5 469/9/5 443/7/5
f 442/1/6 468/3/6 470/9/6 444/7/6
f 444/3/1 446/9/1 445/7/1 443/1/1
f 444/7/2 443/1/2 469/3/2 470/9/2
f 443/3/3 445/9/3 471/7/3 469/1/3
f 470/1/4 469/3/4 471/9/4 472/7/4
f 446/1/5 472/3/5 471/9/5 445/7/5
f 444/1/6 470/3/6 472/9/6 446/7/6
f 446/3/1 447/9/1 438/7/1 445/1/1
f 446/7/2 445/1/2 471/3/2 472/9/2
f 445/3/3 438/9/3 464/7/3 471/1/3
f 472/1/4 471/3/4 464/9/4 473/7/4
f 447/1/5 473/3/5 464/9/5 438/7/5
f 446/1/6 472/3/6 473/9/6 447/7/6
f 476/3/1 480/9/1 481/7/1 477/1/1
f 476/7/2 477/1/2 478/3/2 479/9/2
f 477/3/3 481/9/3 482/7/3 478/1/3
f 479/1/4 478/3/4 482/9/4 483/7/4
f 480/1/5 483/3/5 482/9/5 481/7/5
f 476/1/6 479/3/6 483/9/6 480/7/6
f 484/3/1 486/9/1 476/7/1 474/1/1
f 484/7/2 474/1/2 475/3/2 485/9/2
f 474/3/3 476/9/3 479/7/3 475/1/3
f 485/1/4 475/3/4 479/9/4 487/7/4
f 486/1/5 487/3/5 479/9/5 476/7/5
f 484/1/6 485/3/6 487/9/6 486/7/6
f 455/3/1 457/9/1 456/7/1 452/1/1
f 455/7/2 452/1/2 488/3/2 489/9/2
f 452/3/3 456/9/3 490/7/3 488/1/3
f 489/1/4 488/3/4 490/9/4 491/7/4
f 457/1/5 491/3/5 490/9/5 456/7/5
f 455/1/6 489/3/6 491/9/6 457/7/6
f 457/3/1 459/9/1 458/7/1 456/1/1
f 457/7/2 456/1/2 490/3/2 491/9/2
f 456/3/3 458/9/3 492/7/3 490/1/3
f 491/1/4 490/3/4 492/9/4 493/7/4
f 459/1/5 493/3/5 492/9/5 458/7/5
f 457/1/6 491/3/6 493/9/6 459/7/6
f 459/3/1 461/9/1 460/7/1 458/1/1
f 459/7/2 458/1/2 492/3/2 493/9/2
f 458/3/3 460/9/3 494/7/3 492/1/3
f 493/1/4 492/3/4 494/9/4 495/7/4
f 461/1/5 495/3/5 494/9/5 460/7/5
f 459/1/6 493/3/6 495/9/6 461/7/6
f 461/3/1 463/9/1 462/7/1 460/1/1
f 461/7/2 460/1/2 494/3/2 495/9/2
f 460/3/3 462/9/3 496/7/3 494/1/3
f 495/1/4 494/3/4 496/9/4 497/7/4
f 463/1/5 497/3/5 496/9/5 462/7/5
f 461/1/6 495/3/6 497/9/6 463/7/6
f 465/3/1 468/9/1 467/7/1 466/1/1
f 465/7/2 466/1/2 500/3/2 499/9/2
f 466/3/3 467/9/3 501/7/3 500/1/3
f 499/1/4 500/3/4 501/9/4 502/7/4
f 468/1/5 502/3/5 501/9/5 467/7/5
f 465/1/6 499/3/6 502/9/6 468/7/6
f 468/3/1 470/9/1 469/7/1 467/1/1
f 468/7/2 467/1/2 501/3/2 502/9/2
f 467/3/3 469/9/3 503/7/3 501/1/3
f 502/1/4 501/3/4 503/9/4 504/7/4
f 470/1/5 504/3/5 503/9/5 469/7/5
f 468/1/6 502/3/6 504/9/6 470/7/6
f 470/3/1 472/9/1 471/7/1 469/1/1
f 470/7/2 469/1/2 503/3/2 504/9/2
f 469/3/3 471/9/3 505/7/3 503/1/3
f 504/1/4 503/3/4 505/9/4 506/7/4
f 472/1/5 506/3/5 505/9/5 471/7/5
f 470/1/6 504/3/6 506/9/6 472/7/6
f 472/3/1 473/9/1 464/7/1 471/1/1
f 472/7/2 471/1/2 505/3/2 506/9/2
f 471/3/3 464/9/3 498/7/3 505/1/3
f 506/1/4 505/3/4 498/9/4 507/7/4
f 473/1/5 507/3/5 498/9/5 464/7/5
f 472/1/6 506/3/6 507/9/6 473/7/6
f 489/3/1 491/9/1 490/7/1 488/1/1
f 489/7/2 488/1/2 508/3/2 509/9/2
f 488/3/3 490/9/3 510/7/3 508/1/3
f 509/1/4 508/3/4 510/9/4 511/7/4
f 491/1/5 511/3/5 510/9/5 490/7/5
f 489/1/6 509/3/6 511/9/6 491/7/6
f 491/3/1 493/9/1 492/7/1 490/1/1
f 491/7/2 490/1/2 510/3/2 511/9/2
f 490/3/3 492/9/3 512/7/3 510/1/3
f 511/1/4 510/3/4 512/9/4 513/7/4
f 493/1/5 513/3/5 512/9/5 492/7/5
f 491/1/6 511/3/6 513/9/6 493/7/6
f 493/3/1 495/9/1 494/7/1 492/1/1
f 493/7/2 492/1/2 512/3/2 513/9/2
f 492/3/3 494/9/3 514/7/3 512/1/3
f 513/1/4 512/3/4 514/9/4 515/7/4
f 495/1/5 515/3/5 514/9/5 494/7/5
f 493/1/6 513/3/6 515/9/6 495/7/6
f 495/3/1 497/9/1 496/7/1 494/1/1
f 495/7/2 494/1/2 514/3/2 515/9/2
f 494/3/3 496/9/3 516/7/3 514/1/3
f 515/1/4 514/3/4 516/9/4 517/7/4
f 497/1/5 517/3/5 516/9/5 496/7/5
f 495/1/6 515/3/6 517/9/6 497/7/6
f 499/3/1 502/9/1 501/7/1 500/1/1
f 499/7/2 500/1/2 520/3/2 519/9/2
f 500/3/3 501/9/3 521/7/3 520/1/3
f 519/1/4 520/3/4 521/9/4 522/7/4
f 502/1/5 522/3/5 521/9/5 501/7/5
f 499/1/6 519/3/6 522/9/6 502/7/6
f 502/3/1 504/9/1 503/7/1 501/1/1
f 502/7/2 501/1/2 521/3/2 522/9/2
f 501/3/3 503/9/3 523/7/3 521/1/3
f 522/1/4 521/3/4 523/9/4 524/7/4
f 504/1/5 524/3/5 523/9/5 503/7/5
f 502/1/6 522/3/6 524/9/6 504/7/6
f 504/3/1 506/9/1 505/7/1 503/1/1
f 504/7/2 503/1/2 523/3/2 524/9/2
f 503/3/3 505/9/3 525/7/3 523/1/3
f 524/1/4 523/3/4 525/9/4 526/7/4
f 506/1/5 526/3/5 525/9/5 505/7/5
f 504/1/6 524/3/6 526/9/6 506/7/6
f 506/3/1 507/9/1 498/7/1 505/1/1
f 506/7/2 505/1/2 525/3/2 526/9/2
f 505/3/3 498/9/3 518/7/3 525/1/3
f 526/1/4 525/3/4 518/9/4 527/7/4
f 507/1/5 527/3/5 518/9/5 498/7/5
f 506/1/6 526/3/6 527/9/6 507/7/6
f 529/3/1 531/9/1 530/7/1 528/1/1
f 529/7/2 528/1/2 550/3/2 549/9/2
f 528/3/3 530/9/3 551/7/3 550/1/3
f 549/1/4 550/3/4 551/9/4 552/7/4
f 531/1/5 552/3/5 551/9/5 530/7/5
f 529/1/6 549/3/6 552/9/6 531/7/6
f 537/3/1 538/9/1 533/7/1 532/1/1
f 537/7/2 532/1/2 556/3/2 557/9/2
f 532/3/3 533/9/3 558/7/3 556/1/3
f 557/1/4 556/3/4 558/9/4 559/7/4
f 538/1/5 559/3/5 558/9/5 533/7/5
f 537/1/6 557/3/6 559/9/6 538/7/6
f 538/3/1 539/9/1 534/7/1 533/1/1
f 538/7/2 533/1/2 558/3/2 559/9/2
f 533/3/3 534/9/3 560/7/3 558/1/3
f 559/1/4 558/3/4 560/9/4 561/7/4
f 539/1/5 561/3/5 560/9/5 534/7/5
f 538/1/6 559/3/6 561/9/6 539/7/6
f 539/3/1 562/9/1 535/7/1 534/1/1
f 539/7/2 534/1/2 560/3/2 561/9/2
f 534/3/3 535/9/3 563/7/3 560/1/3
f 561/1/4 560/3/4 563/9/4 564/7/4
f 562/1/5 564/3/5 563/9/5 535/7/5
f 539/1/6 561/3/6 564/9/6 562/7/6
f 562/3/1 540/9/1 536/7/1 535/1/1
f 562/7/2 535/1/2 563/3/2 564/9/2
f 535/3/3 536/9/3 565/7/3 563/1/3
f 564/1/4 563/3/4 565/9/4 566/7/4
f 540/1/5 566/3/5 565/9/5 536/7/5
f 562/1/6 564/3/6 566/9/6 540/7/6
f 544/3/1 545/9/1 542/7/1 541/1/1
f 544/7/2 541/1/2 572/3/2 582/9/2
f 541/3/3 542/9/3 574/7/3 572/1/3
f 582/1/4 572/3/4 574/9/4 583/7/4
f 545/1/5 583/3/5 574/9/5 542/7/5
f 544/1/6 582/3/6 583/9/6 545/7/6
f 545/3/1 547/9/1 575/7/1 542/1/1
f 545/7/2 542/1/2 574/3/2 583/9/2
f 542/3/3 575/9/3 577/7/3 574/1/3
f 583/1/4 574/3/4 577/9/4 584/7/4
f 547/1/5 584/3/5 577/9/5 575/7/5
f 545/1/6 583/3/6 584/9/6 547/7/6
f 547/3/1 548/9/1 578/7/1 575/1/1
f 547/7/2 575/1/2 577/3/2 584/9/2
f 575/3/3 578/9/3 580/7/3 577/1/3
f 584/1/4 577/3/4 580/9/4 585/7/4
f 548/1/5 585/3/5 580/9/5 578/7/5
f 547/1/6 584/3/6 585/9/6 548/7/6
f 548/3/1 546/9/1 543/7/1 578/1/1
f 548/7/2 578/1/2 580/3/2 585/9/2
f 578/3/3 543/9/3 581/7/3 580/1/3
f 585/1/4 580/3/4 581/9/4 586/7/4
f 546/1/5 586/3/5 581/9/5 543/7/5
f 548/1/6 585/3/6 586/9/6 546/7/6
f 549/3/1 552/9/1 551/7/1 550/1/1
f 549/7/2 550/1/2 588/3/2 587/9/2
f 550/3/3 551/9/3 589/7/3 588/1/3
f 587/1/4 588/3/4 589/9/4 590/7/4
f 552/1/5 590/3/5 589/9/5 551/7/5
f 549/1/6 587/3/6 590/9/6 552/7/6
f 552/3/1 554/9/1 591/7/1 551/1/1
f 552/7/2 551/1/2 589/3/2 590/9/2
f 551/3/3 591/9/3 592/7/3 589/1/3
f 590/1/4 589/3/4 592/9/4 593/7/4
f 554/1/5 593/3/5 592/9/5 591/7/5
f 552/1/6 590/3/6 593/9/6 554/7/6
f 553/3/1 555/9/1 554/7/1 552/1/1
f 553/7/2 552/1/2 590/3/2 595/9/2
f 552/3/3 554/9/3 593/7/3 590/1/3
f 595/1/4 590/3/4 593/9/4 596/7/4
f 555/1/5 596/3/5 593/9/5 554/7/5
f 553/1/6 595/3/6 596/9/6 555/7/6
f 608/3/1 609/9/1 598/7/1 597/1/1
f 608/7/2 597/1/2 599/3/2 610/9/2
f 597/3/3 598/9/3 600/7/3 599/1/3
f 610/1/4 599/3/4 600/9/4 611/7/4
f 609/1/5 611/3/5 600/9/5 598/7/5
f 608/1/6 610/3/6 611/9/6 609/7/6
f 609/3/1 612/9/1 601/7/1 598/1/1
f 609/7/2 598/1/2 600/3/2 611/9/2
f 598/3/3 601/9/3 602/7/3 600/1/3
f 611/1/4 600/3/4 602/9/4 613/7/4
f 612/1/5 613/3/5 602/9/5 601/7/5
f 609/1/6 611/3/6 613/9/6 612/7/6
f 612/3/1 614/9/1 603/7/1 601/1/1
f 612/7/2 601/1/2 602/3/2 613/9/2
f 601/3/3 603/9/3 604/7/3 602/1/3
f 613/1/4 602/3/4 604/9/4 615/7/4
f 614/1/5 615/3/5 604/9/5 603/7/5
f 612/1/6 613/3/6 615/9/6 614/7/6
f 614/3/1 568/9/1 567/7/1 603/1/1
f 614/7/2 603/1/2 604/3/2 615/9/2
f 603/3/3 567/9/3 605/7/3 604/1/3
f 615/1/4 604/3/4 605/9/4 616/7/4
f 568/1/5 616/3/5 605/9/5 567/7/5
f 614/1/6 615/3/6 616/9/6 568/7/6
f 620/3/1 621/9/1 609/7/1 608/1/1
f 620/7/2 608/1/2 610/3/2 622/9/2
f 608/3/3 609/9/3 611/7/3 610/1/3
f 622/1/4 610/3/4 611/9/4 623/7/4
f 621/1/5 623/3/5 611/9/5 609/7/5
f 620/1/6 622/3/6 623/9/6 621/7/6
f 621/3/1 624/9/1 612/7/1 609/1/1
f 621/7/2 609/1/2 611/3/2 623/9/2
f 609/3/3 612/9/3 613/7/3 611/1/3
f 623/1/4 611/3/4 613/9/4 625/7/4
f 624/1/5 625/3/5 613/9/5 612/7/5
f 621/1/6 623/3/6 625/9/6 624/7/6
f 624/3/1 626/9/1 614/7/1 612/1/1
f 624/7/2 612/1/2 613/3/2 625/9/2
f 612/3/3 614/9/3 615/7/3 613/1/3
f 625/1/4 613/3/4 615/9/4 627/7/4
f 626/1/5 627/3/5 615/9/5 614/7/5
f 624/1/6 625/3/6 627/9/6 626/7/6
f 626/3/1 569/9/1 568/7/1 614/1/1
f 626/7/2 614/1/2 615/3/2 627/9/2
f 614/3/3 568/9/3 616/7/3 615/1/3
f 627/1/4 615/3/4 616/9/4 628/7/4
f 569/1/5 628/3/5 616/9/5 568/7/5
f 626/1/6 627/3/6 628/9/6 569/7/6
f 571/3/1 573/9/1 621/7/1 620/1/1
f 571/7/2 620/1/2 622/3/2 632/9/2
f 620/3/3 621/9/3 623/7/3 622/1/3
f 632/1/4 622/3/4 623/9/4 633/7/4
f 573/1/5 633/3/5 623/9/5 621/7/5
f 571/1/6 632/3/6 633/9/6 573/7/6
f 573/3/1 576/9/1 624/7/1 621/1/1
f 573/7/2 621/1/2 623/3/2 633/9/2
f 621/3/3 624/9/3 625/7/3 623/1/3
f 633/1/4 623/3/4 625/9/4 634/7/4
f 576/1/5 634/3/5 625/9/5 624/7/5
f 573/1/6 633/3/6 634/9/6 576/7/6
f 576/3/1 579/9/1 626/7/1 624/1/1
f 576/7/2 624/1/2 625/3/2 634/9/2
f 624/3/3 626/9/3 627/7/3 625/1/3
f 634/1/4 625/3/4 627/9/4 635/7/4
f 579/1/5 635/3/5 627/9/5 626/7/5
f 576/1/6 634/3/6 635/9/6 579/7/6
f 579/3/1 570/9/1 569/7/1 626/1/1
f 579/7/2 626/1/2 627/3/2 635/9/2
f 626/3/3 569/9/3 628/7/3 627/1/3
f 635/1/4 627/3/4 628/9/4 636/7/4
f 570/1/5 636/3/5 628/9/5 569/7/5
f 579/1/6 635/3/6 636/9/6 570/7/6
f 637/3/1 641/9/1 642/7/1 638/1/1
f 637/7/2 638/1/2 639/3/2 640/9/2
f 638/3/3 642/9/3 643/7/3 639/1/3
f 640/1/4 639/3/4 643/9/4 644/7/4
f 641/1/5 644/3/5 643/9/5 642/7/5
f 637/1/6 640/3/6 644/9/6 641/7/6
f 645/3/1 647/9/1 648/7/1 641/1/1
f 645/7/2 641/1/2 644/3/2 646/9/2
f 641/3/3 648/9/3 649/7/3 644/1/3
f 646/1/4 644/3/4 649/9/4 650/7/4
f 647/1/5 650/3/5 649/9/5 648/7/5
f 645/1/6 646/3/6 650/9/6 647/7/6
f 594/3/1 595/9/1 590/7/1 587/1/1
f 594/7/2 587/1/2 652/3/2 651/9/2
f 587/3/3 590/9/3 653/7/3 652/1/3
f 651/1/4 652/3/4 653/9/4 654/7/4
f 595/1/5 654/3/5 653/9/5 590/7/5
f 594/1/6 651/3/6 654/9/6 595/7/6
f 617/3/1 618/9/1 607/7/1 606/1/1
f 617/7/2 606/1/2 655/3/2 657/9/2
f 606/3/3 607/9/3 656/7/3 655/1/3
f 657/1/4 655/3/4 656/9/4 658/7/4
f 618/1/5 658/3/5 656/9/5 607/7/5
f 617/1/6 657/3/6 658/9/6 618/7/6
f 629/3/1 630/9/1 618/7/1 617/1/1
f 629/7/2 617/1/2 657/3/2 660/9/2
f 617/3/3 618/9/3 658/7/3 657/1/3
f 660/1/4 657/3/4 658/9/4 661/7/4
f 630/1/5 661/3/5 658/9/5 618/7/5
f 629/1/6 660/3/6 661/9/6 630/7/6
f 630/3/1 631/9/1 619/7/1 618/1/1
f 630/7/2 618/1/2 658/3/2 661/9/2
f 618/3/3 619/9/3 659/7/3 658/1/3
f 661/1/4 658/3/4 659/9/4 662/7/4
f 631/1/5 662/3/5 659/9/5 619/7/5
f 630/1/6 661/3/6 662/9/6 631/7/6
f 664/3/1 665/9/1 675/7/1 663/1/1
f 664/7/2 663/1/2 673/3/2 674/9/2
f 663/3/3 675/9/3 676/7/3 673/1/3
f 674/1/4 673/3/4 676/9/4 677/7/4
f 665/1/5 677/3/5 676/9/5 675/7/5
f 664/1/6 674/3/6 677/9/6 665/7/6
f 665/3/1 678/9/1 679/7/1 675/1/1
f 665/7/2 675/1/2 676/3/2 677/9/2
f 675/3/3 679/9/3 680/7/3 676/1/3
f 677/1/4 676/3/4 680/9/4 681/7/4
f 678/1/5 681/3/5 680/9/5 679/7/5
f 665/1/6 677/3/6 681/9/6 678/7/6
f 678/3/1 682/9/1 683/7/1 679/1/1
f 678/7/2 679/1/2 680/3/2 681/9/2
f 679/3/3 683/9/3 684/7/3 680/1/3
f 681/1/4 680/3/4 684/9/4 685/7/4
f 682/1/5 685/3/5 684/9/5 683/7/5
f 678/1/6 681/3/6 685/9/6 682/7/6
f 666/3/1 687/9/1 678/7/1 665/1/1
f 666/7/2 665/1/2 677/3/2 686/9/2
f 665/3/3 678/9/3 681/7/3 677/1/3
f 686/1/4 677/3/4 681/9/4 688/7/4
f 687/1/5 688/3/5 681/9/5 678/7/5
f 666/1/6 686/3/6 688/9/6 687/7/6
f 669/3/1 670/9/1 668/7/1 667/1/1
f 669/7/2 667/1/2 689/3/2 690/9/2
f 667/3/3 668/9/3 691/7/3 689/1/3
f 690/1/4 689/3/4 691/9/4 692/7/4
f 670/1/5 692/3/5 691/9/5 668/7/5
f 669/1/6 690/3/6 692/9/6 670/7/6
f 672/3/1 697/9/1 698/7/1 671/1/1
f 672/7/2 671/1/2 694/3/2 696/9/2
f 671/3/3 698/9/3 699/7/3 694/1/3
f 696/1/4 694/3/4 699/9/4 700/7/4
f 697/1/5 700/3/5 699/9/5 698/7/5
f 672/1/6 696/3/6 700/9/6 697/7/6
f 681/3/1 685/9/1 684/7/1 680/1/1
f 681/7/2 680/1/2 701/3/2 702/9/2
f 680/3/3 684/9/3 703/7/3 701/1/3
f 702/1/4 701/3/4 703/9/4 704/7/4
f 685/1/5 704/3/5 703/9/5 684/7/5
f 681/1/6 702/3/6 704/9/6 685/7/6
f 695/3/1 696/9/1 694/7/1 693/1/1
f 695/7/2 693/1/2 705/3/2 706/9/2
f 693/3/3 694/9/3 707/7/3 705/1/3
f 706/1/4 705/3/4 707/9/4 708/7/4
f 696/1/5 708/3/5 707/9/5 694/7/5
f 695/1/6 706/3/6 708/9/6 696/7/6
f 709/3/1 713/9/1 714/7/1 710/1/1
f 709/7/2 710/1/2 711/3/2 712/9/2
f 710/3/3 714/9/3 715/7/3 711/1/3
f 712/1/4 711/3/4 715/9/4 716/7/4
f 713/1/5 716/3/5 715/9/5 714/7/5
f 709/1/6 712/3/6 716/9/6 713/7/6
