mtllib lighthouse.mtl
usemtl water_overlay
v 1 12 2
v 1 12 1
v 2 9 1
v 2 10 1
v 2 11 1
v 2 12 1
v 1 12.7778 2
v 1 12.3889 1
v 2 12 2
v 2 12.8796 1
v 2 12.8796 2
v 3 9 1
v 3 10 1
v 3 11 1
v 3 12 1
v 3 9 2
v 3 10 2
v 3 11 2
v 3 12 2
v 2 12.8796 1
v 3 12.8148 1
v 3 12.8148 2
vt 0.000000000 0.000000000
vt 1.000000000 0.000000000
vt 0.000000000 0.437500000
vt 1.000000000 0.437500000
vt 0.000000000 0.812500000
vt 1.000000000 0.812500000
vt 0.000000000 0.875000000
vt 1.000000000 0.875000000
vt 0.000000000 0.937500000
vt 1.000000000 0.937500000
vt 0.000000000 1.000000000
vt 1.000000000 1.000000000
vn -1 0 0
vn 0 0 -1
vn 1 0 0
vn 0 0 1
f 1/2/1 7/6/1 8/3/1 2/1/1
f 2/2/2 8/4/2 10/9/2 6/1/2
f 1/1/4 9/2/4 11/10/4 7/5/4
f 3/2/2 4/12/2 13/11/2 12/1/2
f 16/1/3 12/2/3 13/12/3 17/11/3
f 4/2/2 5/12/2 14/11/2 13/1/2
f 17/1/3 13/2/3 14/12/3 18/11/3
f 5/2/2 6/12/2 15/11/2 14/1/2
f 18/1/3 14/2/3 15/12/3 19/11/3
f 6/2/2 20/10/2 21/7/2 15/1/2
f 19/1/3 15/2/3 21/8/3 22/7/3
