mtllib lighthouse.mtl
usemtl glass
v 0 16 1
v 0 16 2
v 0 17 1
v 0 17 2
v 1 16 1
v 1 16 2
v 1 17 1
v 1 17 2
v 0 12 1
v 0 12 2
v 0 13 2
v 1 12 0
v 0 13 1
v 1 12 2
v 1 12 1
v 1 13 1
v 1 13 2
v 1 12 3
v 1 13 3
v 1 14 2
v 2 9 0
v 2 10 0
v 2 9 1
v 2 10 1
v 2 11 0
v 2 11 1
v 1 13 0
v 2 12 1
v 2 12 0
v 2 13 0
v 2 13 1
v 2 12 2
v 1 14 1
v 2 13 2
v 2 14 1
v 2 14 2
v 2 12 3
v 2 13 3
v 3 9 0
v 3 10 0
v 3 9 1
v 3 10 1
v 3 11 0
v 3 11 1
v 3 12 0
v 3 12 1
v 3 13 0
v 3 13 1
v 3 9 2
v 3 10 2
v 3 11 2
v 3 12 2
v 3 13 2
v 3 14 1
v 3 14 2
v 4 9 1
v 4 9 2
v 4 10 1
v 4 10 2
v 4 11 1
v 4 11 2
v 4 12 1
v 4 12 2
v 4 13 1
v 4 13 2
vt 0.000000000 0.000000000
vt 1.000000000 0.000000000
vt 0.000000000 1.000000000
vt 1.000000000 1.000000000
vn -1 0 0
vn 0 -1 0
vn 0 0 -1
vn 1 0 0
vn 0 1 0
vn 0 0 1
f 3/3/1 1/1/1 2/2/1 4/4/1
f 2/3/2 1/1/2 5/2/2 6/4/2
f 7/3/3 5/1/3 1/2/3 3/4/3
f 7/4/4 8/3/4 6/1/4 5/2/4
f 7/4/5 3/3/5 4/1/5 8/2/5
f 8/4/6 4/3/6 2/1/6 6/2/6
f 10/2/1 11/4/1 13/3/1 9/1/1
f 10/3/2 9/1/2 15/2/2 14/4/2
f 9/2/3 13/4/3 16/3/3 15/1/3
f 14/1/4 15/2/4 16/4/4 17/3/4
f 11/1/5 17/2/5 16/4/5 13/3/5
f 10/1/6 14/2/6 17/4/6 11/3/6
f 15/2/1 16/4/1 27/3/1 12/1/1
f 15/3/2 12/1/2 29/2/2 28/4/2
f 12/2/3 27/4/3 30/3/3 29/1/3
f 28/1/4 29/2/4 30/4/4 31/3/4
f 16/1/5 31/2/5 30/4/5 27/3/5
f 15/1/6 28/2/6 31/4/6 16/3/6
f 17/2/1 20/4/1 33/3/1 16/1/1
f 17/3/2 16/1/2 31/2/2 34/4/2
f 16/2/3 33/4/3 35/3/3 31/1/3
f 34/1/4 31/2/4 35/4/4 36/3/4
f 20/1/5 36/2/5 35/4/5 33/3/5
f 17/1/6 34/2/6 36/4/6 20/3/6
f 18/2/1 19/4/1 17/3/1 14/1/1
f 18/3/2 14/1/2 32/2/2 37/4/2
f 14/2/3 17/4/3 34/3/3 32/1/3
f 37/1/4 32/2/4 34/4/4 38/3/4
f 19/1/5 38/2/5 34/4/5 17/3/5
f 18/1/6 37/2/6 38/4/6 19/3/6
f 23/2/1 24/4/1 22/3/1 21/1/1
f 23/3/2 21/1/2 39/2/2 41/4/2
f 21/2/3 22/4/3 40/3/3 39/1/3
f 41/1/4 39/2/4 40/4/4 42/3/4
f 24/1/5 42/2/5 40/4/5 22/3/5
f 23/1/6 41/2/6 42/4/6 24/3/6
f 24/2/1 26/4/1 25/3/1 22/1/1
f 24/3/2 22/1/2 40/2/2 42/4/2
f 22/2/3 25/4/3 43/3/3 40/1/3
f 42/1/4 40/2/4 43/4/4 44/3/4
f 26/1/5 44/2/5 43/4/5 25/3/5
f 24/1/6 42/2/6 44/4/6 26/3/6
f 26/2/1 28/4/1 29/3/1 25/1/1
f 26/3/2 25/1/2 43/2/2 44/4/2
f 25/2/3 29/4/3 45/3/3 43/1/3
f 44/1/4 43/2/4 45/4/4 46/3/4
f 28/1/5 46/2/5 45/4/5 29/3/5
f 26/1/6 44/2/6 46/4/6 28/3/6
f 28/2/1 31/4/1 30/3/1 29/1/1
f 28/3/2 29/1/2 45/2/2 46/4/2
f 29/2/3 30/4/3 47/3/3 45/1/3
f 46/1/4 45/2/4 47/4/4 48/3/4
f 31/1/5 48/2/5 47/4/5 30/3/5
f 28/1/6 46/2/6 48/4/6 31/3/6
f 34/2/1 36/4/1 35/3/1 31/1/1
f 34/3/2 31/1/2 48/2/2 53/4/2
f 31/2/3 35/4/3 54/3/3 48/1/3
f 53/1/4 48/2/4 54/4/4 55/3/4
f 36/1/5 55/2/5 54/4/5 35/3/5
f 34/1/6 53/2/6 55/4/6 36/3/6
f 49/2/1 50/4/1 42/3/1 41/1/1
f 49/3/2 41/1/2 56/2/2 57/4/2
f 41/2/3 42/4/3 58/3/3 56/1/3
f 57/1/4 56/2/4 58/4/4 59/3/4
f 50/1/5 59/2/5 58/4/5 42/3/5
f 49/1/6 57/2/6 59/4/6 50/3/6
f 50/2/1 51/4/1 44/3/1 42/1/1
f 50/3/2 42/1/2 58/2/2 59/4/2
f 42/2/3 44/4/3 60/3/3 58/1/3
f 59/1/4 58/2/4 60/4/4 61/3/4
f 51/1/5 61/2/5 60/4/5 44/3/5
f 50/1/6 59/2/6 61/4/6 51/3/6
f 51/2/1 52/4/1 46/3/1 44/1/1
f 51/3/2 44/1/2 60/2/2 61/4/2
f 44/2/3 46/4/3 62/3/3 60/1/3
f 61/1/4 60/2/4 62/4/4 63/3/4
f 52/1/5 63/2/5 62/4/5 46/3/5
f 51/1/6 61/2/6 63/4/6 52/3/6
f 52/2/1 53/4/1 48/3/1 46/1/1
f 52/3/2 46/1/2 62/2/2 63/4/2
f 46/2/3 48/4/3 64/3/3 62/1/3
f 63/1/4 62/2/4 64/4/4 65/3/4
f 53/1/5 65/2/5 64/4/5 48/3/5
f 52/1/6 63/2/6 65/4/6 53/3/6
