mtllib lighthouse.mtl
usemtl acacia_planks
v 5 33.5 12
v 5 33.5 13
v 5 34 12
v 5 34 13
v 6 33.5 12
v 6 33.5 13
v 6 34 12
v 6 34 13
v 5 37 12
v 5 37 13
v 5 37.5 12
v 5 37.5 13
v 6 37 12
v 6 37 13
v 6 37.5 12
v 6 37.5 13
v 6 36 12
v 6 36 13
v 6 36.5 12
v 6 36.5 13
v 7 36 12
v 7 36 13
v 7 36.5 12
v 7 36.5 13
v 8 35.5 7
v 8 35.5 8
v 8 36 7
v 8 36 8
v 9 35.5 7
v 9 35.5 8
v 9 36 7
v 9 36 8
v 8 36 10
v 8 36 11
v 8 36.5 10
v 8 36.5 11
v 9 36 10
v 9 36 11
v 9 36.5 10
v 9 36.5 11
v 9 36 7
v 9 36 8
v 9 36.5 7
v 9 36.5 8
v 10 36 7
v 10 36 8
v 10 36.5 7
v 10 36.5 8
v 11 36 9
v 11 36 10
v 11 36.5 9
v 11 36.5 10
v 12 36 9
v 12 36 10
v 12 36.5 9
v 12 36.5 10
v 11 35.5 10
v 11 35.5 11
v 11 36 10
v 11 36 11
v 12 35.5 10
v 12 35.5 11
v 12 36 10
v 12 36 11
v 5 36 13
v 5 36 12
v 6 36 12
v 6 36 13
v 5 37 13
v 5 37 12
v 6 37 12
v 6 37 13
v 7 35 11
v 7 35 10
v 8 35 10
v 8 35 11
v 7 36 11
v 7 36 10
v 8 36 10
v 8 36 11
v 8 35 12
v 8 36 12
v 9 35 11
v 9 36 11
v 9 35 12
v 9 36 12
vt 0.000000000 0.000000000
vt 1.000000000 0.000000000
vt 0.000000000 0.500000000
vt 1.000000000 0.500000000
vt 0.000000000 1.000000000
vt 1.000000000 1.000000000
vn -1 0 0
vn 0 -1 0
vn 0 0 -1
vn 1 0 0
vn 0 1 0
vn 0 0 1
f 3/5/1 1/3/1 2/4/1 4/6/1
f 2/5/2 1/1/2 5/2/2 6/6/2
f 7/5/3 5/3/3 1/4/3 3/6/3
f 7/6/4 8/5/4 6/3/4 5/4/4
f 7/6/5 3/5/5 4/1/5 8/2/5
f 8/6/6 4/5/6 2/3/6 6/4/6
f 11/3/1 9/1/1 10/2/1 12/4/1
f 10/5/2 9/1/2 13/2/2 14/6/2
f 15/3/3 13/1/3 9/2/3 11/4/3
f 15/4/4 16/3/4 14/1/4 13/2/4
f 15/6/5 11/5/5 12/1/5 16/2/5
f 16/4/6 12/3/6 10/1/6 14/2/6
f 19/3/1 17/1/1 18/2/1 20/4/1
f 18/5/2 17/1/2 21/2/2 22/6/2
f 23/3/3 21/1/3 17/2/3 19/4/3
f 23/4/4 24/3/4 22/1/4 21/2/4
f 23/6/5 19/5/5 20/1/5 24/2/5
f 24/4/6 20/3/6 18/1/6 22/2/6
f 27/5/1 25/3/1 26/4/1 28/6/1
f 26/5/2 25/1/2 29/2/2 30/6/2
f 31/5/3 29/3/3 25/4/3 27/6/3
f 31/6/4 32/5/4 30/3/4 29/4/4
f 31/6/5 27/5/5 28/1/5 32/2/5
f 32/6/6 28/5/6 26/3/6 30/4/6
f 35/3/1 33/1/1 34/2/1 36/4/1
f 34/5/2 33/1/2 37/2/2 38/6/2
f 39/3/3 37/1/3 33/2/3 35/4/3
f 39/4/4 40/3/4 38/1/4 37/2/4
f 39/6/5 35/5/5 36/1/5 40/2/5
f 40/4/6 36/3/6 34/1/6 38/2/6
f 43/3/1 41/1/1 42/2/1 44/4/1
f 42/5/2 41/1/2 45/2/2 46/6/2
f 47/3/3 45/1/3 41/2/3 43/4/3
f 47/4/4 48/3/4 46/1/4 45/2/4
f 47/6/5 43/5/5 44/1/5 48/2/5
f 48/4/6 44/3/6 42/1/6 46/2/6
f 51/3/1 49/1/1 50/2/1 52/4/1
f 50/5/2 49/1/2 53/2/2 54/6/2
f 55/3/3 53/1/3 49/2/3 51/4/3
f 55/4/4 56/3/4 54/1/4 53/2/4
f 55/6/5 51/5/5 52/1/5 56/2/5
f 56/4/6 52/3/6 50/1/6 54/2/6
f 59/5/1 57/3/1 58/4/1 60/6/1
f 58/5/2 57/1/2 61/2/2 62/6/2
f 63/5/3 61/3/3 57/4/3 59/6/3
f 63/6/4 64/5/4 62/3/4 61/4/4
f 63/6/5 59/5/5 60/1/5 64/2/5
f 64/6/6 60/5/6 58/3/6 62/4/6
f 65/2/1 69/6/1 70/5/1 66/1/1
f 65/5/2 66/1/2 67/2/2 68/6/2
f 66/2/3 70/6/3 71/5/3 67/1/3
f 68/1/4 67/2/4 71/6/4 72/5/4
f 69/1/5 72/2/5 71/6/5 70/5/5
f 65/1/6 68/2/6 72/6/6 69/5/6
f 73/2/1 77/6/1 78/5/1 74/1/1
f 73/5/2 74/1/2 75/2/2 76/6/2
f 74/2/3 78/6/3 79/5/3 75/1/3
f 76/1/4 75/2/4 79/6/4 80/5/4
f 77/1/5 80/2/5 79/6/5 78/5/5
f 73/1/6 76/2/6 80/6/6 77/5/6
f 81/2/1 82/6/1 80/5/1 76/1/1
f 81/5/2 76/1/2 83/2/2 85/6/2
f 76/2/3 80/6/3 84/5/3 83/1/3
f 85/1/4 83/2/4 84/6/4 86/5/4
f 82/1/5 86/2/5 84/6/5 80/5/5
f 81/1/6 85/2/6 86/6/6 82/5/6
