mtllib lighthouse.mtl
usemtl stone_bricks
v -5 39.5 -1
v -5 39.5 0
v -5 40 -1
v -5 40 0
v -4 39.5 -1
v -4 39.5 0
v -4 40 -1
v -4 40 0
v -5 38.5 0
v -5 38.5 1
v -5 39 0
v -5 39 1
v -4 38.5 0
v -4 38.5 1
v -4 39 0
v -4 39 1
v -4.5 38 0
v -4.5 38 1
v -4.5 38.5 0
v -4.5 38.5 1
v -4 38 0
v -4 38 1
v -4 38.5 0
v -4 38.5 1
v -5 38.5 1
v -5 38.5 2
v -5 39 1
v -5 39 2
v -4 38.5 1
v -4 38.5 2
v -4 39 1
v -4 39 2
v -5 39.5 1
v -5 39.5 2
v -5 40 1
v -5 40 2
v -4 39.5 1
v -4 39.5 2
v -4 40 1
v -4 40 2
v -5 38.5 2
v -5 38.5 3
v -5 39 2
v -5 39 3
v -4 38.5 2
v -4 38.5 3
v -4 39 2
v -4 39 3
v -4.5 38 2
v -4.5 38 3
v -4.5 38.5 2
v -4.5 38.5 3
v -4 38 2
v -4 38 3
v -4 38.5 2
v -4 38.5 3
v -5 39.5 3
v -5 39.5 4
v -5 40 3
v -5 40 4
v -4 39.5 3
v -4 39.5 4
v -4 40 3
v -4 40 4
v -4 39.5 -2
v -4 39.5 -1
v -4 40 -2
v -4 40 -1
v -3 39.5 -2
v -3 39.5 -1
v -3 40 -2
v -3 40 -1
v -4 38.5 -1
v -4 38.5 0
v -4 39 -1
v -4 39 0
v -3 38.5 -1
v -3 38.5 0
v -3 39 -1
v -3 39 0
v -4 37.5 0
v -4 37.5 1
v -4 38 0
v -4 38 1
v -3 37.5 0
v -3 37.5 1
v -3 38 0
v -3 38 1
v -3.5 37 0
v -3.5 37 1
v -3.5 37.5 0
v -3.5 37.5 1
v -3 37 0
v -3 37 1
v -3 37.5 0
v -3 37.5 1
v -4 37.5 2
v -4 37.5 3
v -4 38 2
v -4 38 3
v -3 37.5 2
v -3 37.5 3
v -3 38 2
v -3 38 3
v -3.5 37 2
v -3.5 37 3
v -3.5 37.5 2
v -3.5 37.5 3
v -3 37 2
v -3 37 3
v -3 37.5 2
v -3 37.5 3
v -4 38.5 3
v -4 38.5 4
v -4 39 3
v -4 39 4
v -3 38.5 3
v -3 38.5 4
v -3 39 3
v -3 39 4
v -4 39.5 4
v -4 39.5 5
v -4 40 4
v -4 40 5
v -3 39.5 4
v -3 39.5 5
v -3 40 4
v -3 40 5
v -3 39.5 -3
v -3 39.5 -2
v -3 40 -3
v -3 40 -2
v -2 39.5 -3
v -2 39.5 -2
v -2 40 -3
v -2 40 -2
v -3 38.5 -2
v -3 38.5 -1
v -3 39 -2
v -3 39 -1
v -2 38.5 -2
v -2 38.5 -1
v -2 39 -2
v -2 39 -1
v -3 38.5 4
v -3 38.5 5
v -3 39 4
v -3 39 5
v -2 38.5 4
v -2 38.5 5
v -2 39 4
v -2 39 5
v -3 39.5 5
v -3 39.5 6
v -3 40 5
v -3 40 6
v -2 39.5 5
v -2 39.5 6
v -2 40 5
v -2 40 6
v -2 39.5 -4
v -2 39.5 -3
v -2 40 -4
v -2 40 -3
v -1 39.5 -4
v -1 39.5 -3
v -1 40 -4
v -1 40 -3
v -2 38.5 -3
v -2 38.5 -2
v -2 39 -3
v -2 39 -2
v -1 38.5 -3
v -1 38.5 -2
v -1 39 -3
v -1 39 -2
v -2 38.5 5
v -2 38.5 6
v -2 39 5
v -2 39 6
v -1 38.5 5
v -1 38.5 6
v -1 39 5
v -1 39 6
v -2 39.5 6
v -2 39.5 7
v -2 40 6
v -2 40 7
v -1 39.5 6
v -1 39.5 7
v -1 40 6
v -1 40 7
v -1 38.5 -4
v -1 38.5 -3
v -1 39 -4
v -1 39 -3
v 0 38.5 -4
v 0 38.5 -3
v 0 39 -4
v 0 39 -3
v -1 38 -3.5
v -1 38 -3
v -1 38.5 -3.5
v -1 38.5 -3
v 0 38 -3.5
v 0 38 -3
v 0 38.5 -3.5
v 0 38.5 -3
v -1 37.5 -3
v -1 37.5 -2
v -1 38 -3
v -1 38 -2
v 0 37.5 -3
v 0 37.5 -2
v 0 38 -3
v 0 38 -2
v -1 37 -2.5
v -1 37 -2
v -1 37.5 -2.5
v -1 37.5 -2
v 0 37 -2.5
v 0 37 -2
v 0 37.5 -2.5
v 0 37.5 -2
v -1 37.5 5
v -1 37.5 6
v -1 38 5
v -1 38 6
v 0 37.5 5
v 0 37.5 6
v 0 38 5
v 0 38 6
v -1 37 5
v -1 37 5.5
v -1 37.5 5
v -1 37.5 5.5
v 0 37 5
v 0 37 5.5
v 0 37.5 5
v 0 37.5 5.5
v -1 38.5 6
v -1 38.5 7
v -1 39 6
v -1 39 7
v 0 38.5 6
v 0 38.5 7
v 0 39 6
v 0 39 7
v -1 38 6
v -1 38 6.5
v -1 38.5 6
v -1 38.5 6.5
v 0 38 6
v 0 38 6.5
v 0 38.5 6
v 0 38.5 6.5
v 0 38.5 -4
v 0 38.5 -3
v 0 39 -4
v 0 39 -3
v 1 38.5 -4
v 1 38.5 -3
v 1 39 -4
v 1 39 -3
v 0 39.5 -4
v 0 39.5 -3
v 0 40 -4
v 0 40 -3
v 1 39.5 -4
v 1 39.5 -3
v 1 40 -4
v 1 40 -3
v 0 38.5 6
v 0 38.5 7
v 0 39 6
v 0 39 7
v 1 38.5 6
v 1 38.5 7
v 1 39 6
v 1 39 7
v 0 39.5 6
v 0 39.5 7
v 0 40 6
v 0 40 7
v 1 39.5 6
v 1 39.5 7
v 1 40 6
v 1 40 7
v 1 38.5 -4
v 1 38.5 -3
v 1 39 -4
v 1 39 -3
v 2 38.5 -4
v 2 38.5 -3
v 2 39 -4
v 2 39 -3
v 1 38 -3.5
v 1 38 -3
v 1 38.5 -3.5
v 1 38.5 -3
v 2 38 -3.5
v 2 38 -3
v 2 38.5 -3.5
v 2 38.5 -3
v 1 37.5 -3
v 1 37.5 -2
v 1 38 -3
v 1 38 -2
v 2 37.5 -3
v 2 37.5 -2
v 2 38 -3
v 2 38 -2
v 1 37 -2.5
v 1 37 -2
v 1 37.5 -2.5
v 1 37.5 -2
v 2 37 -2.5
v 2 37 -2
v 2 37.5 -2.5
v 2 37.5 -2
v 1 37.5 5
v 1 37.5 6
v 1 38 5
v 1 38 6
v 2 37.5 5
v 2 37.5 6
v 2 38 5
v 2 38 6
v 1 37 5
v 1 37 5.5
v 1 37.5 5
v 1 37.5 5.5
v 2 37 5
v 2 37 5.5
v 2 37.5 5
v 2 37.5 5.5
v 1 38.5 6
v 1 38.5 7
v 1 39 6
v 1 39 7
v 2 38.5 6
v 2 38.5 7
v 2 39 6
v 2 39 7
v 1 38 6
v 1 38 6.5
v 1 38.5 6
v 1 38.5 6.5
v 2 38 6
v 2 38 6.5
v 2 38.5 6
v 2 38.5 6.5
v 2 39.5 -4
v 2 39.5 -3
v 2 40 -4
v 2 40 -3
v 3 39.5 -4
v 3 39.5 -3
v 3 40 -4
v 3 40 -3
v 2 38.5 -3
v 2 38.5 -2
v 2 39 -3
v 2 39 -2
v 3 38.5 -3
v 3 38.5 -2
v 3 39 -3
v 3 39 -2
v 2 38.5 5
v 2 38.5 6
v 2 39 5
v 2 39 6
v 3 38.5 5
v 3 38.5 6
v 3 39 5
v 3 39 6
v 2 39.5 6
v 2 39.5 7
v 2 40 6
v 2 40 7
v 3 39.5 6
v 3 39.5 7
v 3 40 6
v 3 40 7
v 3 39.5 -3
v 3 39.5 -2
v 3 40 -3
v 3 40 -2
v 4 39.5 -3
v 4 39.5 -2
v 4 40 -3
v 4 40 -2
v 3 38.5 -2
v 3 38.5 -1
v 3 39 -2
v 3 39 -1
v 4 38.5 -2
v 4 38.5 -1
v 4 39 -2
v 4 39 -1
v 3 38.5 4
v 3 38.5 5
v 3 39 4
v 3 39 5
v 4 38.5 4
v 4 38.5 5
v 4 39 4
v 4 39 5
v 3 39.5 5
v 3 39.5 6
v 3 40 5
v 3 40 6
v 4 39.5 5
v 4 39.5 6
v 4 40 5
v 4 40 6
v 4 39.5 -2
v 4 39.5 -1
v 4 40 -2
v 4 40 -1
v 5 39.5 -2
v 5 39.5 -1
v 5 40 -2
v 5 40 -1
v 4 38.5 -1
v 4 38.5 0
v 4 39 -1
v 4 39 0
v 5 38.5 -1
v 5 38.5 0
v 5 39 -1
v 5 39 0
v 4 37.5 0
v 4 37.5 1
v 4 38 0
v 4 38 1
v 5 37.5 0
v 5 37.5 1
v 5 38 0
v 5 38 1
v 4 37 0
v 4 37 1
v 4 37.5 0
v 4 37.5 1
v 4.5 37 0
v 4.5 37 1
v 4.5 37.5 0
v 4.5 37.5 1
v 4 37.5 2
v 4 37.5 3
v 4 38 2
v 4 38 3
v 5 37.5 2
v 5 37.5 3
v 5 38 2
v 5 38 3
v 4 37 2
v 4 37 3
v 4 37.5 2
v 4 37.5 3
v 4.5 37 2
v 4.5 37 3
v 4.5 37.5 2
v 4.5 37.5 3
v 4 38.5 3
v 4 38.5 4
v 4 39 3
v 4 39 4
v 5 38.5 3
v 5 38.5 4
v 5 39 3
v 5 39 4
v 4 39.5 4
v 4 39.5 5
v 4 40 4
v 4 40 5
v 5 39.5 4
v 5 39.5 5
v 5 40 4
v 5 40 5
v 5 39.5 -1
v 5 39.5 0
v 5 40 -1
v 5 40 0
v 6 39.5 -1
v 6 39.5 0
v 6 40 -1
v 6 40 0
v 5 38.5 0
v 5 38.5 1
v 5 39 0
v 5 39 1
v 6 38.5 0
v 6 38.5 1
v 6 39 0
v 6 39 1
v 5 38 0
v 5 38 1
v 5 38.5 0
v 5 38.5 1
v 5.5 38 0
v 5.5 38 1
v 5.5 38.5 0
v 5.5 38.5 1
v 5 38.5 1
v 5 38.5 2
v 5 39 1
v 5 39 2
v 6 38.5 1
v 6 38.5 2
v 6 39 1
v 6 39 2
v 5 39.5 1
v 5 39.5 2
v 5 40 1
v 5 40 2
v 6 39.5 1
v 6 39.5 2
v 6 40 1
v 6 40 2
v 5 38.5 2
v 5 38.5 3
v 5 39 2
v 5 39 3
v 6 38.5 2
v 6 38.5 3
v 6 39 2
v 6 39 3
v 5 38 2
v 5 38 3
v 5 38.5 2
v 5 38.5 3
v 5.5 38 2
v 5.5 38 3
v 5.5 38.5 2
v 5.5 38.5 3
v 5 39.5 3
v 5 39.5 4
v 5 40 3
v 5 40 4
v 6 39.5 3
v 6 39.5 4
v 6 40 3
v 6 40 4
v -5 39 0
v -5 39 1
v -5 40 1
v -5 40 0
v -4 39 1
v -4 39 0
v -4 40 0
v -4 40 1
v -5 39 2
v -5 39 3
v -5 40 3
v -5 40 2
v -4 39 3
v -4 39 2
v -4 40 2
v -4 40 3
v -1 39 -4
v -1 39 -3
v -1 40 -3
v -1 40 -4
v 0 39 -3
v 0 39 -4
v 0 40 -4
v 0 40 -3
v -1 39 6
v 0 39 6
v -1 39 7
v -1 40 7
v -1 40 6
v 0 39 7
v 0 40 6
v 0 40 7
v 1 39 -3
v 1 39 6
v 1 39 -4
v 1 40 -3
v 1 40 -4
v 2 39 -3
v 2 39 -4
v 2 40 -4
v 2 40 -3
v 2 39 6
v 1 39 7
v 1 40 7
v 1 40 6
v 2 39 7
v 2 40 6
v 2 40 7
v 5 39 0
v 5 39 1
v 5 39 2
v 5 39 3
v 5 40 1
v 5 40 0
v 6 39 1
v 6 39 0
v 6 40 0
v 6 40 1
v 5 40 3
v 5 40 2
v 6 39 3
v 6 39 2
v 6 40 2
v 6 40 3
vt 0.000000000 0.000000000
vt 0.500000000 0.000000000
vt 1.000000000 0.000000000
vt 0.000000000 0.500000000
vt 0.500000000 0.500000000
vt 1.000000000 0.500000000
vt 0.000000000 1.000000000
vt 0.500000000 1.000000000
vt 1.000000000 1.000000000
vn -1 0 0
vn 0 -1 0
vn 0 0 -1
vn 1 0 0
vn 0 1 0
vn 0 0 1
f 3/7/1 1/4/1 2/6/1 4/9/1
f 2/7/2 1/1/2 5/3/2 6/9/2
f 7/7/3 5/4/3 1/6/3 3/9/3
f 7/9/4 8/7/4 6/4/4 5/6/4
f 7/9/5 3/7/5 4/1/5 8/3/5
f 8/9/6 4/7/6 2/4/6 6/6/6
f 11/7/1 9/4/1 10/6/1 12/9/1
f 10/7/2 9/1/2 13/3/2 14/9/2
f 15/7/3 13/4/3 9/6/3 11/9/3
f 15/9/4 16/7/4 14/4/4 13/6/4
f 15/9/5 11/7/5 12/1/5 16/3/5
f 16/9/6 12/7/6 10/4/6 14/6/6
f 19/4/1 17/1/1 18/3/1 20/6/1
f 18/8/2 17/2/2 21/3/2 22/9/2
f 23/4/3 21/1/3 17/2/3 19/5/3
f 23/6/4 24/4/4 22/1/4 21/3/4
f 24/6/6 20/5/6 18/2/6 22/3/6
f 27/7/1 25/4/1 26/6/1 28/9/1
f 26/7/2 25/1/2 29/3/2 30/9/2
f 31/7/3 29/4/3 25/6/3 27/9/3
f 31/9/4 32/7/4 30/4/4 29/6/4
f 31/9/5 27/7/5 28/1/5 32/3/5
f 32/9/6 28/7/6 26/4/6 30/6/6
f 35/7/1 33/4/1 34/6/1 36/9/1
f 34/7/2 33/1/2 37/3/2 38/9/2
f 39/7/3 37/4/3 33/6/3 35/9/3
f 39/9/4 40/7/4 38/4/4 37/6/4
f 39/9/5 35/7/5 36/1/5 40/3/5
f 40/9/6 36/7/6 34/4/6 38/6/6
f 43/7/1 41/4/1 42/6/1 44/9/1
f 42/7/2 41/1/2 45/3/2 46/9/2
f 47/7/3 45/4/3 41/6/3 43/9/3
f 47/9/4 48/7/4 46/4/4 45/6/4
f 47/9/5 43/7/5 44/1/5 48/3/5
f 48/9/6 44/7/6 42/4/6 46/6/6
f 51/4/1 49/1/1 50/3/1 52/6/1
f 50/8/2 49/2/2 53/3/2 54/9/2
f 55/4/3 53/1/3 49/2/3 51/5/3
f 55/6/4 56/4/4 54/1/4 53/3/4
f 56/6/6 52/5/6 50/2/6 54/3/6
f 59/7/1 57/4/1 58/6/1 60/9/1
f 58/7/2 57/1/2 61/3/2 62/9/2
f 63/7/3 61/4/3 57/6/3 59/9/3
f 63/9/4 64/7/4 62/4/4 61/6/4
f 63/9/5 59/7/5 60/1/5 64/3/5
f 64/9/6 60/7/6 58/4/6 62/6/6
f 67/7/1 65/4/1 66/6/1 68/9/1
f 66/7/2 65/1/2 69/3/2 70/9/2
f 71/7/3 69/4/3 65/6/3 67/9/3
f 71/9/4 72/7/4 70/4/4 69/6/4
f 71/9/5 67/7/5 68/1/5 72/3/5
f 72/9/6 68/7/6 66/4/6 70/6/6
f 75/7/1 73/4/1 74/6/1 76/9/1
f 74/7/2 73/1/2 77/3/2 78/9/2
f 79/7/3 77/4/3 73/6/3 75/9/3
f 79/9/4 80/7/4 78/4/4 77/6/4
f 79/9/5 75/7/5 76/1/5 80/3/5
f 80/9/6 76/7/6 74/4/6 78/6/6
f 83/7/1 81/4/1 82/6/1 84/9/1
f 82/7/2 81/1/2 85/3/2 86/9/2
f 87/7/3 85/4/3 81/6/3 83/9/3
f 87/9/4 88/7/4 86/4/4 85/6/4
f 87/9/5 83/7/5 84/1/5 88/3/5
f 88/9/6 84/7/6 82/4/6 86/6/6
f 91/4/1 89/1/1 90/3/1 92/6/1
f 90/8/2 89/2/2 93/3/2 94/9/2
f 95/4/3 93/1/3 89/2/3 91/5/3
f 95/6/4 96/4/4 94/1/4 93/3/4
f 96/6/6 92/5/6 90/2/6 94/3/6
f 99/7/1 97/4/1 98/6/1 100/9/1
f 98/7/2 97/1/2 101/3/2 102/9/2
f 103/7/3 101/4/3 97/6/3 99/9/3
f 103/9/4 104/7/4 102/4/4 101/6/4
f 103/9/5 99/7/5 100/1/5 104/3/5
f 104/9/6 100/7/6 98/4/6 102/6/6
f 107/4/1 105/1/1 106/3/1 108/6/1
f 106/8/2 105/2/2 109/3/2 110/9/2
f 111/4/3 109/1/3 105/2/3 107/5/3
f 111/6/4 112/4/4 110/1/4 109/3/4
f 112/6/6 108/5/6 106/2/6 110/3/6
f 115/7/1 113/4/1 114/6/1 116/9/1
f 114/7/2 113/1/2 117/3/2 118/9/2
f 119/7/3 117/4/3 113/6/3 115/9/3
f 119/9/4 120/7/4 118/4/4 117/6/4
f 119/9/5 115/7/5 116/1/5 120/3/5
f 120/9/6 116/7/6 114/4/6 118/6/6
f 123/7/1 121/4/1 122/6/1 124/9/1
f 122/7/2 121/1/2 125/3/2 126/9/2
f 127/7/3 125/4/3 121/6/3 123/9/3
f 127/9/4 128/7/4 126/4/4 125/6/4
f 127/9/5 123/7/5 124/1/5 128/3/5
f 128/9/6 124/7/6 122/4/6 126/6/6
f 131/7/1 129/4/1 130/6/1 132/9/1
f 130/7/2 129/1/2 133/3/2 134/9/2
f 135/7/3 133/4/3 129/6/3 131/9/3
f 135/9/4 136/7/4 134/4/4 133/6/4
f 135/9/5 131/7/5 132/1/5 136/3/5
f 136/9/6 132/7/6 130/4/6 134/6/6
f 139/7/1 137/4/1 138/6/1 140/9/1
f 138/7/2 137/1/2 141/3/2 142/9/2
f 143/7/3 141/4/3 137/6/3 139/9/3
f 143/9/4 144/7/4 142/4/4 141/6/4
f 143/9/5 139/7/5 140/1/5 144/3/5
f 144/9/6 140/7/6 138/4/6 142/6/6
f 147/7/1 145/4/1 146/6/1 148/9/1
f 146/7/2 145/1/2 149/3/2 150/9/2
f 151/7/3 149/4/3 145/6/3 147/9/3
f 151/9/4 152/7/4 150/4/4 149/6/4
f 151/9/5 147/7/5 148/1/5 152/3/5
f 152/9/6 148/7/6 146/4/6 150/6/6
f 155/7/1 153/4/1 154/6/1 156/9/1
f 154/7/2 153/1/2 157/3/2 158/9/2
f 159/7/3 157/4/3 153/6/3 155/9/3
f 159/9/4 160/7/4 158/4/4 157/6/4
f 159/9/5 155/7/5 156/1/5 160/3/5
f 160/9/6 156/7/6 154/4/6 158/6/6
f 163/7/1 161/4/1 162/6/1 164/9/1
f 162/7/2 161/1/2 165/3/2 166/9/2
f 167/7/3 165/4/3 161/6/3 163/9/3
f 167/9/4 168/7/4 166/4/4 165/6/4
f 167/9/5 163/7/5 164/1/5 168/3/5
f 168/9/6 164/7/6 162/4/6 166/6/6
f 171/7/1 169/4/1 170/6/1 172/9/1
f 170/7/2 169/1/2 173/3/2 174/9/2
f 175/7/3 173/4/3 169/6/3 171/9/3
f 175/9/4 176/7/4 174/4/4 173/6/4
f 175/9/5 171/7/5 172/1/5 176/3/5
f 176/9/6 172/7/6 170/4/6 174/6/6
f 179/7/1 177/4/1 178/6/1 180/9/1
f 178/7/2 177/1/2 181/3/2 182/9/2
f 183/7/3 181/4/3 177/6/3 179/9/3
f 183/9/4 184/7/4 182/4/4 181/6/4
f 183/9/5 179/7/5 180/1/5 184/3/5
f 184/9/6 180/7/6 178/4/6 182/6/6
f 187/7/1 185/4/1 186/6/1 188/9/1
f 186/7/2 185/1/2 189/3/2 190/9/2
f 191/7/3 189/4/3 185/6/3 187/9/3
f 191/9/4 192/7/4 190/4/4 189/6/4
f 191/9/5 187/7/5 188/1/5 192/3/5
f 192/9/6 188/7/6 186/4/6 190/6/6
f 195/7/1 193/4/1 194/6/1 196/9/1
f 194/7/2 193/1/2 197/3/2 198/9/2
f 199/7/3 197/4/3 193/6/3 195/9/3
f 199/9/4 200/7/4 198/4/4 197/6/4
f 199/9/5 195/7/5 196/1/5 200/3/5
f 200/9/6 196/7/6 194/4/6 198/6/6
f 203/5/1 201/2/1 202/3/1 204/6/1
f 202/4/2 201/1/2 205/3/2 206/6/2
f 207/4/3 205/1/3 201/3/3 203/6/3
f 207/5/4 208/4/4 206/1/4 205/2/4
f 208/6/6 204/4/6 202/1/6 206/3/6
f 211/7/1 209/4/1 210/6/1 212/9/1
f 210/7/2 209/1/2 213/3/2 214/9/2
f 215/7/3 213/4/3 209/6/3 211/9/3
f 215/9/4 216/7/4 214/4/4 213/6/4
f 215/9/5 211/7/5 212/1/5 216/3/5
f 216/9/6 212/7/6 210/4/6 214/6/6
f 219/5/1 217/2/1 218/3/1 220/6/1
f 218/4/2 217/1/2 221/3/2 222/6/2
f 223/4/3 221/1/3 217/3/3 219/6/3
f 223/5/4 224/4/4 222/1/4 221/2/4
f 224/6/6 220/4/6 218/1/6 222/3/6
f 227/7/1 225/4/1 226/6/1 228/9/1
f 226/7/2 225/1/2 229/3/2 230/9/2
f 231/7/3 229/4/3 225/6/3 227/9/3
f 231/9/4 232/7/4 230/4/4 229/6/4
f 231/9/5 227/7/5 228/1/5 232/3/5
f 232/9/6 228/7/6 226/4/6 230/6/6
f 235/4/1 233/1/1 234/2/1 236/5/1
f 234/7/2 233/4/2 237/6/2 238/9/2
f 239/4/3 237/1/3 233/3/3 235/6/3
f 239/6/4 240/5/4 238/2/4 237/3/4
f 240/6/6 236/4/6 234/1/6 238/3/6
f 243/7/1 241/4/1 242/6/1 244/9/1
f 242/7/2 241/1/2 245/3/2 246/9/2
f 247/7/3 245/4/3 241/6/3 243/9/3
f 247/9/4 248/7/4 246/4/4 245/6/4
f 247/9/5 243/7/5 244/1/5 248/3/5
f 248/9/6 244/7/6 242/4/6 246/6/6
f 251/4/1 249/1/1 250/2/1 252/5/1
f 250/7/2 249/4/2 253/6/2 254/9/2
f 255/4/3 253/1/3 249/3/3 251/6/3
f 255/6/4 256/5/4 254/2/4 253/3/4
f 256/6/6 252/4/6 250/1/6 254/3/6
f 259/7/1 257/4/1 258/6/1 260/9/1
f 258/7/2 257/1/2 261/3/2 262/9/2
f 263/7/3 261/4/3 257/6/3 259/9/3
f 263/9/4 264/7/4 262/4/4 261/6/4
f 263/9/5 259/7/5 260/1/5 264/3/5
f 264/9/6 260/7/6 258/4/6 262/6/6
f 267/7/1 265/4/1 266/6/1 268/9/1
f 266/7/2 265/1/2 269/3/2 270/9/2
f 271/7/3 269/4/3 265/6/3 267/9/3
f 271/9/4 272/7/4 270/4/4 269/6/4
f 271/9/5 267/7/5 268/1/5 272/3/5
f 272/9/6 268/7/6 266/4/6 270/6/6
f 275/7/1 273/4/1 274/6/1 276/9/1
f 274/7/2 273/1/2 277/3/2 278/9/2
f 279/7/3 277/4/3 273/6/3 275/9/3
f 279/9/4 280/7/4 278/4/4 277/6/4
f 279/9/5 275/7/5 276/1/5 280/3/5
f 280/9/6 276/7/6 274/4/6 278/6/6
f 283/7/1 281/4/1 282/6/1 284/9/1
f 282/7/2 281/1/2 285/3/2 286/9/2
f 287/7/3 285/4/3 281/6/3 283/9/3
f 287/9/4 288/7/4 286/4/4 285/6/4
f 287/9/5 283/7/5 284/1/5 288/3/5
f 288/9/6 284/7/6 282/4/6 286/6/6
f 291/7/1 289/4/1 290/6/1 292/9/1
f 290/7/2 289/1/2 293/3/2 294/9/2
f 295/7/3 293/4/3 289/6/3 291/9/3
f 295/9/4 296/7/4 294/4/4 293/6/4
f 295/9/5 291/7/5 292/1/5 296/3/5
f 296/9/6 292/7/6 290/4/6 294/6/6
f 299/5/1 297/2/1 298/3/1 300/6/1
f 298/4/2 297/1/2 301/3/2 302/6/2
f 303/4/3 301/1/3 297/3/3 299/6/3
f 303/5/4 304/4/4 302/1/4 301/2/4
f 304/6/6 300/4/6 298/1/6 302/3/6
f 307/7/1 305/4/1 306/6/1 308/9/1
f 306/7/2 305/1/2 309/3/2 310/9/2
f 311/7/3 309/4/3 305/6/3 307/9/3
f 311/9/4 312/7/4 310/4/4 309/6/4
f 311/9/5 307/7/5 308/1/5 312/3/5
f 312/9/6 308/7/6 306/4/6 310/6/6
f 315/5/1 313/2/1 314/3/1 316/6/1
f 314/4/2 313/1/2 317/3/2 318/6/2
f 319/4/3 317/1/3 313/3/3 315/6/3
f 319/5/4 320/4/4 318/1/4 317/2/4
f 320/6/6 316/4/6 314/1/6 318/3/6
f 323/7/1 321/4/1 322/6/1 324/9/1
f 322/7/2 321/1/2 325/3/2 326/9/2
f 327/7/3 325/4/3 321/6/3 323/9/3
f 327/9/4 328/7/4 326/4/4 325/6/4
f 327/9/5 323/7/5 324/1/5 328/3/5
f 328/9/6 324/7/6 322/4/6 326/6/6
f 331/4/1 329/1/1 330/2/1 332/5/1
f 330/7/2 329/4/2 333/6/2 334/9/2
f 335/4/3 333/1/3 329/3/3 331/6/3
f 335/6/4 336/5/4 334/2/4 333/3/4
f 336/6/6 332/4/6 330/1/6 334/3/6
f 339/7/1 337/4/1 338/6/1 340/9/1
f 338/7/2 337/1/2 341/3/2 342/9/2
f 343/7/3 341/4/3 337/6/3 339/9/3
f 343/9/4 344/7/4 342/4/4 341/6/4
f 343/9/5 339/7/5 340/1/5 344/3/5
f 344/9/6 340/7/6 338/4/6 342/6/6
f 347/4/1 345/1/1 346/2/1 348/5/1
f 346/7/2 345/4/2 349/6/2 350/9/2
f 351/4/3 349/1/3 345/3/3 347/6/3
f 351/6/4 352/5/4 350/2/4 349/3/4
f 352/6/6 348/4/6 346/1/6 350/3/6
f 355/7/1 353/4/1 354/6/1 356/9/1
f 354/7/2 353/1/2 357/3/2 358/9/2
f 359/7/3 357/4/3 353/6/3 355/9/3
f 359/9/4 360/7/4 358/4/4 357/6/4
f 359/9/5 355/7/5 356/1/5 360/3/5
f 360/9/6 356/7/6 354/4/6 358/6/6
f 363/7/1 361/4/1 362/6/1 364/9/1
f 362/7/2 361/1/2 365/3/2 366/9/2
f 367/7/3 365/4/3 361/6/3 363/9/3
f 367/9/4 368/7/4 366/4/4 365/6/4
f 367/9/5 363/7/5 364/1/5 368/3/5
f 368/9/6 364/7/6 362/4/6 366/6/6
f 371/7/1 369/4/1 370/6/1 372/9/1
f 370/7/2 369/1/2 373/3/2 374/9/2
f 375/7/3 373/4/3 369/6/3 371/9/3
f 375/9/4 376/7/4 374/4/4 373/6/4
f 375/9/5 371/7/5 372/1/5 376/3/5
f 376/9/6 372/7/6 370/4/6 374/6/6
f 379/7/1 377/4/1 378/6/1 380/9/1
f 378/7/2 377/1/2 381/3/2 382/9/2
f 383/7/3 381/4/3 377/6/3 379/9/3
f 383/9/4 384/7/4 382/4/4 381/6/4
f 383/9/5 379/7/5 380/1/5 384/3/5
f 384/9/6 380/7/6 378/4/6 382/6/6
f 387/7/1 385/4/1 386/6/1 388/9/1
f 386/7/2 385/1/2 389/3/2 390/9/2
f 391/7/3 389/4/3 385/6/3 387/9/3
f 391/9/4 392/7/4 390/4/4 389/6/4
f 391/9/5 387/7/5 388/1/5 392/3/5
f 392/9/6 388/7/6 386/4/6 390/6/6
f 395/7/1 393/4/1 394/6/1 396/9/1
f 394/7/2 393/1/2 397/3/2 398/9/2
f 399/7/3 397/4/3 393/6/3 395/9/3
f 399/9/4 400/7/4 398/4/4 397/6/4
f 399/9/5 395/7/5 396/1/5 400/3/5
f 400/9/6 396/7/6 394/4/6 398/6/6
f 403/7/1 401/4/1 402/6/1 404/9/1
f 402/7/2 401/1/2 405/3/2 406/9/2
f 407/7/3 405/4/3 401/6/3 403/9/3
f 407/9/4 408/7/4 406/4/4 405/6/4
f 407/9/5 403/7/5 404/1/5 408/3/5
f 408/9/6 404/7/6 402/4/6 406/6/6
f 411/7/1 409/4/1 410/6/1 412/9/1
f 410/7/2 409/1/2 413/3/2 414/9/2
f 415/7/3 413/4/3 409/6/3 411/9/3
f 415/9/4 416/7/4 414/4/4 413/6/4
f 415/9/5 411/7/5 412/1/5 416/3/5
f 416/9/6 412/7/6 410/4/6 414/6/6
f 419/7/1 417/4/1 418/6/1 420/9/1
f 418/7/2 417/1/2 421/3/2 422/9/2
f 423/7/3 421/4/3 417/6/3 419/9/3
f 423/9/4 424/7/4 422/4/4 421/6/4
f 423/9/5 419/7/5 420/1/5 424/3/5
f 424/9/6 420/7/6 418/4/6 422/6/6
f 427/7/1 425/4/1 426/6/1 428/9/1
f 426/7/2 425/1/2 429/3/2 430/9/2
f 431/7/3 429/4/3 425/6/3 427/9/3
f 431/9/4 432/7/4 430/4/4 429/6/4
f 431/9/5 427/7/5 428/1/5 432/3/5
f 432/9/6 428/7/6 426/4/6 430/6/6
f 435/7/1 433/4/1 434/6/1 436/9/1
f 434/7/2 433/1/2 437/3/2 438/9/2
f 439/7/3 437/4/3 433/6/3 435/9/3
f 439/9/4 440/7/4 438/4/4 437/6/4
f 439/9/5 435/7/5 436/1/5 440/3/5
f 440/9/6 436/7/6 434/4/6 438/6/6
f 443/4/1 441/1/1 442/3/1 444/6/1
f 442/7/2 441/1/2 445/2/2 446/8/2
f 447/5/3 445/2/3 441/3/3 443/6/3
f 447/6/4 448/4/4 446/1/4 445/3/4
f 448/5/6 444/4/6 442/1/6 446/2/6
f 451/7/1 449/4/1 450/6/1 452/9/1
f 450/7/2 449/1/2 453/3/2 454/9/2
f 455/7/3 453/4/3 449/6/3 451/9/3
f 455/9/4 456/7/4 454/4/4 453/6/4
f 455/9/5 451/7/5 452/1/5 456/3/5
f 456/9/6 452/7/6 450/4/6 454/6/6
f 459/4/1 457/1/1 458/3/1 460/6/1
f 458/7/2 457/1/2 461/2/2 462/8/2
f 463/5/3 461/2/3 457/3/3 459/6/3
f 463/6/4 464/4/4 462/1/4 461/3/4
f 464/5/6 460/4/6 458/1/6 462/2/6
f 467/7/1 465/4/1 466/6/1 468/9/1
f 466/7/2 465/1/2 469/3/2 470/9/2
f 471/7/3 469/4/3 465/6/3 467/9/3
f 471/9/4 472/7/4 470/4/4 469/6/4
f 471/9/5 467/7/5 468/1/5 472/3/5
f 472/9/6 468/7/6 466/4/6 470/6/6
f 475/7/1 473/4/1 474/6/1 476/9/1
f 474/7/2 473/1/2 477/3/2 478/9/2
f 479/7/3 477/4/3 473/6/3 475/9/3
f 479/9/4 480/7/4 478/4/4 477/6/4
f 479/9/5 475/7/5 476/1/5 480/3/5
f 480/9/6 476/7/6 474/4/6 478/6/6
f 483/7/1 481/4/1 482/6/1 484/9/1
f 482/7/2 481/1/2 485/3/2 486/9/2
f 487/7/3 485/4/3 481/6/3 483/9/3
f 487/9/4 488/7/4 486/4/4 485/6/4
f 487/9/5 483/7/5 484/1/5 488/3/5
f 488/9/6 484/7/6 482/4/6 486/6/6
f 491/7/1 489/4/1 490/6/1 492/9/1
f 490/7/2 489/1/2 493/3/2 494/9/2
f 495/7/3 493/4/3 489/6/3 491/9/3
f 495/9/4 496/7/4 494/4/4 493/6/4
f 495/9/5 491/7/5 492/1/5 496/3/5
f 496/9/6 492/7/6 490/4/6 494/6/6
f 499/4/1 497/1/1 498/3/1 500/6/1
f 498/7/2 497/1/2 501/2/2 502/8/2
f 503/5/3 501/2/3 497/3/3 499/6/3
f 503/6/4 504/4/4 502/1/4 501/3/4
f 504/5/6 500/4/6 498/1/6 502/2/6
f 507/7/1 505/4/1 506/6/1 508/9/1
f 506/7/2 505/1/2 509/3/2 510/9/2
f 511/7/3 509/4/3 505/6/3 507/9/3
f 511/9/4 512/7/4 510/4/4 509/6/4
f 511/9/5 507/7/5 508/1/5 512/3/5
f 512/9/6 508/7/6 506/4/6 510/6/6
f 515/7/1 513/4/1 514/6/1 516/9/1
f 514/7/2 513/1/2 517/3/2 518/9/2
f 519/7/3 517/4/3 513/6/3 515/9/3
f 519/9/4 520/7/4 518/4/4 517/6/4
f 519/9/5 515/7/5 516/1/5 520/3/5
f 520/9/6 516/7/6 514/4/6 518/6/6
f 523/7/1 521/4/1 522/6/1 524/9/1
f 522/7/2 521/1/2 525/3/2 526/9/2
f 527/7/3 525/4/3 521/6/3 523/9/3
f 527/9/4 528/7/4 526/4/4 525/6/4
f 527/9/5 523/7/5 524/1/5 528/3/5
f 528/9/6 524/7/6 522/4/6 526/6/6
f 531/4/1 529/1/1 530/3/1 532/6/1
f 530/7/2 529/1/2 533/2/2 534/8/2
f 535/5/3 533/2/3 529/3/3 531/6/3
f 535/6/4 536/4/4 534/1/4 533/3/4
f 536/5/6 532/4/6 530/1/6 534/2/6
f 539/7/1 537/4/1 538/6/1 540/9/1
f 538/7/2 537/1/2 541/3/2 542/9/2
f 543/7/3 541/4/3 537/6/3 539/9/3
f 543/9/4 544/7/4 542/4/4 541/6/4
f 543/9/5 539/7/5 540/1/5 544/3/5
f 544/9/6 540/7/6 538/4/6 542/6/6
f 546/3/1 547/9/1 548/7/1 545/1/1
f 546/7/2 545/1/2 550/3/2 549/9/2
f 545/3/3 548/9/3 551/7/3 550/1/3
f 549/1/4 550/3/4 551/9/4 552/7/4
f 547/1/5 552/3/5 551/9/5 548/7/5
f 546/1/6 549/3/6 552/9/6 547/7/6
f 554/3/1 555/9/1 556/7/1 553/1/1
f 554/7/2 553/1/2 558/3/2 557/9/2
f 553/3/3 556/9/3 559/7/3 558/1/3
f 557/1/4 558/3/4 559/9/4 560/7/4
f 555/1/5 560/3/5 559/9/5 556/7/5
f 554/1/6 557/3/6 560/9/6 555/7/6
f 562/3/1 563/9/1 564/7/1 561/1/1
f 562/7/2 561/1/2 566/3/2 565/9/2
f 561/3/3 564/9/3 567/7/3 566/1/3
f 565/1/4 566/3/4 567/9/4 568/7/4
f 563/1/5 568/3/5 567/9/5 564/7/5
f 562/1/6 565/3/6 568/9/6 563/7/6
f 571/3/1 572/9/1 573/7/1 569/1/1
f 571/7/2 569/1/2 570/3/2 574/9/2
f 569/3/3 573/9/3 575/7/3 570/1/3
f 574/1/4 570/3/4 575/9/4 576/7/4
f 572/1/5 576/3/5 575/9/5 573/7/5
f 571/1/6 574/3/6 576/9/6 572/7/6
f 577/3/1 580/9/1 581/7/1 579/1/1
f 577/7/2 579/1/2 583/3/2 582/9/2
f 579/3/3 581/9/3 584/7/3 583/1/3
f 582/1/4 583/3/4 584/9/4 585/7/4
f 580/1/5 585/3/5 584/9/5 581/7/5
f 577/1/6 582/3/6 585/9/6 580/7/6
f 587/3/1 588/9/1 589/7/1 578/1/1
f 587/7/2 578/1/2 586/3/2 590/9/2
f 578/3/3 589/9/3 591/7/3 586/1/3
f 590/1/4 586/3/4 591/9/4 592/7/4
f 588/1/5 592/3/5 591/9/5 589/7/5
f 587/1/6 590/3/6 592/9/6 588/7/6
f 594/3/1 597/9/1 598/7/1 593/1/1
f 594/7/2 593/1/2 600/3/2 599/9/2
f 593/3/3 598/9/3 601/7/3 600/1/3
f 599/1/4 600/3/4 601/9/4 602/7/4
f 597/1/5 602/3/5 601/9/5 598/7/5
f 594/1/6 599/3/6 602/9/6 597/7/6
f 596/3/1 603/9/1 604/7/1 595/1/1
f 596/7/2 595/1/2 606/3/2 605/9/2
f 595/3/3 604/9/3 607/7/3 606/1/3
f 605/1/4 606/3/4 607/9/4 608/7/4
f 603/1/5 608/3/5 607/9/5 604/7/5
f 596/1/6 605/3/6 608/9/6 603/7/6
