mtllib lighthouse.mtl
usemtl redstone_dust_line1
v -3 11.0156 -1
v -2 11.0156 -1
v -3 11.0156 -2
v -2 11.0156 -2
v -2 12.0156 -1
v -1 12.0156 -1
v -2 12.0156 -2
v -1 12.0156 -2
v -1 13.0156 -1
v 0 13.0156 -1
v -1 13.0156 -2
v 0 13.0156 -2
v 0 13.0156 -1
v 1 13.0156 -1
v 0 13.0156 -2
v 1 13.0156 -2
vt 0.000000000 0.000000000
vt 1.000000000 0.000000000
vt 0.000000000 1.000000000
vt 1.000000000 1.000000000
vn 0 1 0
f 3/4/1 1/3/1 2/1/1 4/2/1
f 7/4/1 5/3/1 6/1/1 8/2/1
f 11/4/1 9/3/1 10/1/1 12/2/1
f 15/4/1 13/3/1 14/1/1 16/2/1
