mtllib lighthouse.mtl
usemtl MWO_ender_chest_latch
v -1.4375 9.4375 5
v -1.5625 9.4375 5
v -1.4375 9.6875 5
v -1.5625 9.6875 5
v -1.4375 9.4375 5.0625
v -1.5625 9.4375 5.0625
v -1.4375 9.6875 5.0625
v -1.5625 9.6875 5.0625
vt 0.000000000 0.687500000
vt 0.062500000 0.687500000
vt 0.187500000 0.687500000
vt 0.250000000 0.687500000
vt 0.375000000 0.687500000
vt 0.000000000 0.937500000
vt 0.062500000 0.937500000
vt 0.187500000 0.937500000
vt 0.250000000 0.937500000
vt 0.312500000 0.937500000
vt 0.375000000 0.937500000
vt 0.062500000 1.000000000
vt 0.187500000 1.000000000
vt 0.312500000 1.000000000
vn -1 0 0
vn 0 -1 0
vn 0 0 -1
vn 1 0 0
vn 0 1 0
vn 0 0 1
f 3/7/3 1/2/3 2/3/3 4/8/3
f 7/11/6 8/9/6 6/4/6 5/5/6
f 3/7/4 7/6/4 5/1/4 1/2/4
f 4/8/1 2/3/1 6/4/1 8/9/1
f 7/12/5 3/7/5 4/8/5 8/13/5
f 2/8/2 1/10/2 5/14/2 6/13/2
