mtllib lighthouse.mtl
usemtl lantern
v -9.6875 11 7.3125
v -9.6875 11 7.6875
v -9.6875 11.4375 7.3125
v -9.6875 11.4375 7.6875
v -9.3125 11 7.3125
v -9.3125 11 7.6875
v -9.3125 11.4375 7.3125
v -9.3125 11.4375 7.6875
v -9.625 11.4375 7.375
v -9.625 11.4375 7.625
v -9.625 11.5625 7.375
v -9.625 11.5625 7.625
v -9.375 11.4375 7.375
v -9.375 11.4375 7.625
v -9.375 11.5625 7.375
v -9.375 11.5625 7.625
v -9.56629 11.5625 7.43371
v -9.56629 11.6875 7.43371
v -9.43371 11.5625 7.56629
v -9.43371 11.6875 7.56629
v -9.43371 11.5625 7.43371
v -9.43371 11.6875 7.43371
v -9.56629 11.5625 7.56629
v -9.56629 11.6875 7.56629
v -0.6875 12.0625 7.3125
v -0.6875 12.0625 7.6875
v -0.6875 12.5 7.3125
v -0.6875 12.5 7.6875
v -0.3125 12.0625 7.3125
v -0.3125 12.0625 7.6875
v -0.3125 12.5 7.3125
v -0.3125 12.5 7.6875
v -0.625 12.5 7.375
v -0.625 12.5 7.625
v -0.625 12.625 7.375
v -0.625 12.625 7.625
v -0.375 12.5 7.375
v -0.375 12.5 7.625
v -0.375 12.625 7.375
v -0.375 12.625 7.625
v -0.566292 12.625 7.43371
v -0.566292 12.75 7.43371
v -0.433708 12.625 7.56629
v -0.433708 12.75 7.56629
v -0.433704 12.6875 7.43371
v -0.433704 12.9375 7.43371
v -0.566288 12.6875 7.56629
v -0.566288 12.9375 7.56629
v -0.566292 12.875 7.43371
v -0.566292 13 7.43371
v -0.433708 12.875 7.56629
v -0.433708 13 7.56629
v 0.3125 12.0625 3.3125
v 0.3125 12.0625 3.6875
v 0.3125 12.5 3.3125
v 0.3125 12.5 3.6875
v 0.6875 12.0625 3.3125
v 0.6875 12.0625 3.6875
v 0.6875 12.5 3.3125
v 0.6875 12.5 3.6875
v 0.375 12.5 3.375
v 0.375 12.5 3.625
v 0.375 12.625 3.375
v 0.375 12.625 3.625
v 0.625 12.5 3.375
v 0.625 12.5 3.625
v 0.625 12.625 3.375
v 0.625 12.625 3.625
v 0.433708 12.625 3.43371
v 0.433708 12.75 3.43371
v 0.566292 12.625 3.56629
v 0.566292 12.75 3.56629
v 0.566292 12.6875 3.43371
v 0.566292 12.9375 3.43371
v 0.433708 12.6875 3.56629
v 0.433708 12.9375 3.56629
v 0.433708 12.875 3.43371
v 0.433708 13 3.43371
v 0.566292 12.875 3.56629
v 0.566292 13 3.56629
vt 0.000000000 0.062500000
vt 0.375000000 0.062500000
vt 0.062500000 0.125000000
vt 0.312500000 0.125000000
vt 0.687500000 0.250000000
vt 0.875000000 0.250000000
vt 0.062500000 0.375000000
vt 0.312500000 0.375000000
vt 0.687500000 0.375000000
vt 0.875000000 0.375000000
vt 0.000000000 0.437500000
vt 0.375000000 0.437500000
vt 0.687500000 0.500000000
vt 0.875000000 0.500000000
vt 0.687500000 0.625000000
vt 0.875000000 0.625000000
vt 0.687500000 0.687500000
vt 0.875000000 0.687500000
vt 0.000000000 0.875000000
vt 0.062500000 0.875000000
vt 0.312500000 0.875000000
vt 0.375000000 0.875000000
vt 0.687500000 0.937500000
vt 0.875000000 0.937500000
vt 0.062500000 1.000000000
vt 0.312500000 1.000000000
vn -1 0 0
vn 0 -1 0
vn 0 0 -1
vn 1 0 0
vn 0 1 0
vn 0 0 1
vn 0.707107 0 -0.707107
vn 0.707107 0 0.707107
f 3/22/1 1/12/1 2/11/1 4/19/1
f 7/22/3 5/12/3 1/11/3 3/19/3
f 7/22/4 8/19/4 6/11/4 5/12/4
f 8/22/6 4/19/6 2/11/6 6/12/6
f 2/1/2 1/2/2 5/12/2 6/11/2
f 7/11/5 3/1/5 4/2/5 8/12/5
f 11/26/1 9/21/1 10/20/1 12/25/1
f 15/26/3 13/21/3 9/20/3 11/25/3
f 15/26/4 16/25/4 14/20/4 13/21/4
f 16/26/6 12/25/6 10/20/6 14/21/6
f 15/7/5 11/3/5 12/4/5 16/8/5
f 18/9/7 20/10/7 19/6/7 17/5/7
f 22/9/8 24/10/8 23/6/8 21/5/8
f 27/22/1 25/12/1 26/11/1 28/19/1
f 31/22/3 29/12/3 25/11/3 27/19/3
f 31/22/4 32/19/4 30/11/4 29/12/4
f 32/22/6 28/19/6 26/11/6 30/12/6
f 26/1/2 25/2/2 29/12/2 30/11/2
f 31/11/5 27/1/5 28/2/5 32/12/5
f 35/26/1 33/21/1 34/20/1 36/25/1
f 39/26/3 37/21/3 33/20/3 35/25/3
f 39/26/4 40/25/4 38/20/4 37/21/4
f 40/26/6 36/25/6 34/20/6 38/21/6
f 39/7/5 35/3/5 36/4/5 40/8/5
f 42/9/7 44/10/7 43/6/7 41/5/7
f 46/23/8 48/24/8 47/18/8 45/17/8
f 50/15/7 52/16/7 51/14/7 49/13/7
f 55/22/1 53/12/1 54/11/1 56/19/1
f 59/22/3 57/12/3 53/11/3 55/19/3
f 59/22/4 60/19/4 58/11/4 57/12/4
f 60/22/6 56/19/6 54/11/6 58/12/6
f 54/1/2 53/2/2 57/12/2 58/11/2
f 59/11/5 55/1/5 56/2/5 60/12/5
f 63/26/1 61/21/1 62/20/1 64/25/1
f 67/26/3 65/21/3 61/20/3 63/25/3
f 67/26/4 68/25/4 66/20/4 65/21/4
f 68/26/6 64/25/6 62/20/6 66/21/6
f 67/7/5 63/3/5 64/4/5 68/8/5
f 70/9/7 72/10/7 71/6/7 69/5/7
f 74/23/8 76/24/8 75/18/8 73/17/8
f 78/15/7 80/16/7 79/14/7 77/13/7
