mtllib lighthouse.mtl
usemtl dark_oak_planks
v -5 49.5 0
v -5 49.5 1
v -5 50 0
v -5 50 1
v -4 49.5 0
v -4 49.5 1
v -4 50 0
v -4 50 1
v -5 49.5 1
v -5 49.5 2
v -5 50 1
v -5 50 2
v -4 49.5 1
v -4 49.5 2
v -4 50 1
v -4 50 2
v -4.5 49 1
v -4.5 49 2
v -4.5 49.5 1
v -4.5 49.5 2
v -4 49 1
v -4 49 2
v -4 49.5 1
v -4 49.5 2
v -5 49.5 2
v -5 49.5 3
v -5 50 2
v -5 50 3
v -4 49.5 2
v -4 49.5 3
v -4 50 2
v -4 50 3
v -4 49.5 -1
v -4 49.5 0
v -4 50 -1
v -4 50 0
v -3 49.5 -1
v -3 49.5 0
v -3 50 -1
v -3 50 0
v -3.5 49 -1
v -3.5 49 0
v -3.5 49.5 -1
v -3.5 49.5 0
v -3 49 -1
v -3 49 0
v -3 49.5 -1
v -3 49.5 0
v -4 55 0
v -4 55 1
v -4 55.5 0
v -4 55.5 1
v -3 55 0
v -3 55 1
v -3 55.5 0
v -3 55.5 1
v -4 42 1
v -4 42 2
v -4 42.5 1
v -4 42.5 2
v -3 42 1
v -3 42 2
v -3 42.5 1
v -3 42.5 2
v -4 55 2
v -4 55 3
v -4 55.5 2
v -4 55.5 3
v -3 55 2
v -3 55 3
v -3 55.5 2
v -3 55.5 3
v -4 49.5 3
v -4 49.5 4
v -4 50 3
v -4 50 4
v -3 49.5 3
v -3 49.5 4
v -3 50 3
v -3 50 4
v -3.5 49 3
v -3.5 49 4
v -3.5 49.5 3
v -3.5 49.5 4
v -3 49 3
v -3 49 4
v -3 49.5 3
v -3 49.5 4
v -3 49.5 -2
v -3 49.5 -1
v -3 50 -2
v -3 50 -1
v -2 49.5 -2
v -2 49.5 -1
v -2 50 -2
v -2 50 -1
v -2.75 39 -0.75
v -2.75 39 -0.25
v -2.75 40 -0.75
v -2.75 40 -0.25
v -2.25 39 -0.75
v -2.25 39 -0.25
v -2.25 40 -0.75
v -2.25 40 -0.25
v -2.25 39 -0.6875
v -2.25 39 -0.3125
v -2.25 39.8125 -0.6875
v -2.25 39.8125 -0.3125
v -2 39 -0.6875
v -2 39 -0.3125
v -2 39.8125 -0.6875
v -2 39.8125 -0.3125
v -2.6875 39 -0.25
v -2.6875 39 0
v -2.6875 39.8125 -0.25
v -2.6875 39.8125 0
v -2.3125 39 -0.25
v -2.3125 39 0
v -2.3125 39.8125 -0.25
v -2.3125 39.8125 0
v -2.75 40 -0.75
v -2.75 40 -0.25
v -2.75 41 -0.75
v -2.75 41 -0.25
v -2.25 40 -0.75
v -2.25 40 -0.25
v -2.25 41 -0.75
v -2.25 41 -0.25
v -2.25 40 -0.6875
v -2.25 40 -0.3125
v -2.25 40.8125 -0.6875
v -2.25 40.8125 -0.3125
v -2 40 -0.6875
v -2 40 -0.3125
v -2 40.8125 -0.6875
v -2 40.8125 -0.3125
v -2.6875 40 -0.25
v -2.6875 40 0
v -2.6875 40.8125 -0.25
v -2.6875 40.8125 0
v -2.3125 40 -0.25
v -2.3125 40 0
v -2.3125 40.8125 -0.25
v -2.3125 40.8125 0
v -2.75 41 -0.75
v -2.75 41 -0.25
v -2.75 42 -0.75
v -2.75 42 -0.25
v -2.25 41 -0.75
v -2.25 41 -0.25
v -2.25 42 -0.75
v -2.25 42 -0.25
v -2.25 41 -0.6875
v -2.25 41 -0.3125
v -2.25 41.8125 -0.6875
v -2.25 41.8125 -0.3125
v -2 41 -0.6875
v -2 41 -0.3125
v -2 41.8125 -0.6875
v -2 41.8125 -0.3125
v -2.6875 41 -0.25
v -2.6875 41 0
v -2.6875 41.8125 -0.25
v -2.6875 41.8125 0
v -2.3125 41 -0.25
v -2.3125 41 0
v -2.3125 41.8125 -0.25
v -2.3125 41.8125 0
v -3 42 -1
v -3 42 0
v -3 42.5 -1
v -3 42.5 0
v -2 42 -1
v -2 42 0
v -2 42.5 -1
v -2 42.5 0
v -2.75 50 -0.75
v -2.75 50 -0.25
v -2.75 51 -0.75
v -2.75 51 -0.25
v -2.25 50 -0.75
v -2.25 50 -0.25
v -2.25 51 -0.75
v -2.25 51 -0.25
v -2.25 50 -0.6875
v -2.25 50 -0.3125
v -2.25 50.8125 -0.6875
v -2.25 50.8125 -0.3125
v -2 50 -0.6875
v -2 50 -0.3125
v -2 50.8125 -0.6875
v -2 50.8125 -0.3125
v -2.6875 50 -0.25
v -2.6875 50 0
v -2.6875 50.8125 -0.25
v -2.6875 50.8125 0
v -2.3125 50 -0.25
v -2.3125 50 0
v -2.3125 50.8125 -0.25
v -2.3125 50.8125 0
v -2.75 51 -0.75
v -2.75 51 -0.25
v -2.75 52 -0.75
v -2.75 52 -0.25
v -2.25 51 -0.75
v -2.25 51 -0.25
v -2.25 52 -0.75
v -2.25 52 -0.25
v -2.25 51 -0.6875
v -2.25 51 -0.3125
v -2.25 51.8125 -0.6875
v -2.25 51.8125 -0.3125
v -2 51 -0.6875
v -2 51 -0.3125
v -2 51.8125 -0.6875
v -2 51.8125 -0.3125
v -2.6875 51 -0.25
v -2.6875 51 0
v -2.6875 51.8125 -0.25
v -2.6875 51.8125 0
v -2.3125 51 -0.25
v -2.3125 51 0
v -2.3125 51.8125 -0.25
v -2.3125 51.8125 0
v -2.75 52 -0.75
v -2.75 52 -0.25
v -2.75 53 -0.75
v -2.75 53 -0.25
v -2.25 52 -0.75
v -2.25 52 -0.25
v -2.25 53 -0.75
v -2.25 53 -0.25
v -2.25 52 -0.6875
v -2.25 52 -0.3125
v -2.25 52.8125 -0.6875
v -2.25 52.8125 -0.3125
v -2 52 -0.6875
v -2 52 -0.3125
v -2 52.8125 -0.6875
v -2 52.8125 -0.3125
v -2.6875 52 -0.25
v -2.6875 52 0
v -2.6875 52.8125 -0.25
v -2.6875 52.8125 0
v -2.3125 52 -0.25
v -2.3125 52 0
v -2.3125 52.8125 -0.25
v -2.3125 52.8125 0
v -2.75 53 -0.75
v -2.75 53 -0.25
v -2.75 54 -0.75
v -2.75 54 -0.25
v -2.25 53 -0.75
v -2.25 53 -0.25
v -2.25 54 -0.75
v -2.25 54 -0.25
v -2.25 53 -0.6875
v -2.25 53 -0.3125
v -2.25 53.8125 -0.6875
v -2.25 53.8125 -0.3125
v -2 53 -0.6875
v -2 53 -0.3125
v -2 53.8125 -0.6875
v -2 53.8125 -0.3125
v -2.6875 53 -0.25
v -2.6875 53 0
v -2.6875 53.8125 -0.25
v -2.6875 53.8125 0
v -2.3125 53 -0.25
v -2.3125 53 0
v -2.3125 53.8125 -0.25
v -2.3125 53.8125 0
v -2.75 54 -0.75
v -2.75 54 -0.25
v -2.75 55 -0.75
v -2.75 55 -0.25
v -2.25 54 -0.75
v -2.25 54 -0.25
v -2.25 55 -0.75
v -2.25 55 -0.25
v -2.25 54 -0.6875
v -2.25 54 -0.3125
v -2.25 54.8125 -0.6875
v -2.25 54.8125 -0.3125
v -2 54 -0.6875
v -2 54 -0.3125
v -2 54.8125 -0.6875
v -2 54.8125 -0.3125
v -2.6875 54 -0.25
v -2.6875 54 0
v -2.6875 54.8125 -0.25
v -2.6875 54.8125 0
v -2.3125 54 -0.25
v -2.3125 54 0
v -2.3125 54.8125 -0.25
v -2.3125 54.8125 0
v -3 55 -1
v -3 55 0
v -3 55.5 -1
v -3 55.5 0
v -2 55 -1
v -2 55 0
v -2 55.5 -1
v -2 55.5 0
v -2.75 39 3.25
v -2.75 39 3.75
v -2.75 40 3.25
v -2.75 40 3.75
v -2.25 39 3.25
v -2.25 39 3.75
v -2.25 40 3.25
v -2.25 40 3.75
v -2.25 39 3.3125
v -2.25 39 3.6875
v -2.25 39.8125 3.3125
v -2.25 39.8125 3.6875
v -2 39 3.3125
v -2 39 3.6875
v -2 39.8125 3.3125
v -2 39.8125 3.6875
v -2.6875 39 3
v -2.6875 39 3.25
v -2.6875 39.8125 3
v -2.6875 39.8125 3.25
v -2.3125 39 3
v -2.3125 39 3.25
v -2.3125 39.8125 3
v -2.3125 39.8125 3.25
v -2.75 40 3.25
v -2.75 40 3.75
v -2.75 41 3.25
v -2.75 41 3.75
v -2.25 40 3.25
v -2.25 40 3.75
v -2.25 41 3.25
v -2.25 41 3.75
v -2.25 40 3.3125
v -2.25 40 3.6875
v -2.25 40.8125 3.3125
v -2.25 40.8125 3.6875
v -2 40 3.3125
v -2 40 3.6875
v -2 40.8125 3.3125
v -2 40.8125 3.6875
v -2.6875 40 3
v -2.6875 40 3.25
v -2.6875 40.8125 3
v -2.6875 40.8125 3.25
v -2.3125 40 3
v -2.3125 40 3.25
v -2.3125 40.8125 3
v -2.3125 40.8125 3.25
v -2.75 41 3.25
v -2.75 41 3.75
v -2.75 42 3.25
v -2.75 42 3.75
v -2.25 41 3.25
v -2.25 41 3.75
v -2.25 42 3.25
v -2.25 42 3.75
v -2.25 41 3.3125
v -2.25 41 3.6875
v -2.25 41.8125 3.3125
v -2.25 41.8125 3.6875
v -2 41 3.3125
v -2 41 3.6875
v -2 41.8125 3.3125
v -2 41.8125 3.6875
v -2.6875 41 3
v -2.6875 41 3.25
v -2.6875 41.8125 3
v -2.6875 41.8125 3.25
v -2.3125 41 3
v -2.3125 41 3.25
v -2.3125 41.8125 3
v -2.3125 41.8125 3.25
v -3 42 3
v -3 42 4
v -3 42.5 3
v -3 42.5 4
v -2 42 3
v -2 42 4
v -2 42.5 3
v -2 42.5 4
v -2.75 50 3.25
v -2.75 50 3.75
v -2.75 51 3.25
v -2.75 51 3.75
v -2.25 50 3.25
v -2.25 50 3.75
v -2.25 51 3.25
v -2.25 51 3.75
v -2.25 50 3.3125
v -2.25 50 3.6875
v -2.25 50.8125 3.3125
v -2.25 50.8125 3.6875
v -2 50 3.3125
v -2 50 3.6875
v -2 50.8125 3.3125
v -2 50.8125 3.6875
v -2.6875 50 3
v -2.6875 50 3.25
v -2.6875 50.8125 3
v -2.6875 50.8125 3.25
v -2.3125 50 3
v -2.3125 50 3.25
v -2.3125 50.8125 3
v -2.3125 50.8125 3.25
v -2.75 51 3.25
v -2.75 51 3.75
v -2.75 52 3.25
v -2.75 52 3.75
v -2.25 51 3.25
v -2.25 51 3.75
v -2.25 52 3.25
v -2.25 52 3.75
v -2.25 51 3.3125
v -2.25 51 3.6875
v -2.25 51.8125 3.3125
v -2.25 51.8125 3.6875
v -2 51 3.3125
v -2 51 3.6875
v -2 51.8125 3.3125
v -2 51.8125 3.6875
v -2.6875 51 3
v -2.6875 51 3.25
v -2.6875 51.8125 3
v -2.6875 51.8125 3.25
v -2.3125 51 3
v -2.3125 51 3.25
v -2.3125 51.8125 3
v -2.3125 51.8125 3.25
v -2.75 52 3.25
v -2.75 52 3.75
v -2.75 53 3.25
v -2.75 53 3.75
v -2.25 52 3.25
v -2.25 52 3.75
v -2.25 53 3.25
v -2.25 53 3.75
v -2.25 52 3.3125
v -2.25 52 3.6875
v -2.25 52.8125 3.3125
v -2.25 52.8125 3.6875
v -2 52 3.3125
v -2 52 3.6875
v -2 52.8125 3.3125
v -2 52.8125 3.6875
v -2.6875 52 3
v -2.6875 52 3.25
v -2.6875 52.8125 3
v -2.6875 52.8125 3.25
v -2.3125 52 3
v -2.3125 52 3.25
v -2.3125 52.8125 3
v -2.3125 52.8125 3.25
v -2.75 53 3.25
v -2.75 53 3.75
v -2.75 54 3.25
v -2.75 54 3.75
v -2.25 53 3.25
v -2.25 53 3.75
v -2.25 54 3.25
v -2.25 54 3.75
v -2.25 53 3.3125
v -2.25 53 3.6875
v -2.25 53.8125 3.3125
v -2.25 53.8125 3.6875
v -2 53 3.3125
v -2 53 3.6875
v -2 53.8125 3.3125
v -2 53.8125 3.6875
v -2.6875 53 3
v -2.6875 53 3.25
v -2.6875 53.8125 3
v -2.6875 53.8125 3.25
v -2.3125 53 3
v -2.3125 53 3.25
v -2.3125 53.8125 3
v -2.3125 53.8125 3.25
v -2.75 54 3.25
v -2.75 54 3.75
v -2.75 55 3.25
v -2.75 55 3.75
v -2.25 54 3.25
v -2.25 54 3.75
v -2.25 55 3.25
v -2.25 55 3.75
v -2.25 54 3.3125
v -2.25 54 3.6875
v -2.25 54.8125 3.3125
v -2.25 54.8125 3.6875
v -2 54 3.3125
v -2 54 3.6875
v -2 54.8125 3.3125
v -2 54.8125 3.6875
v -2.6875 54 3
v -2.6875 54 3.25
v -2.6875 54.8125 3
v -2.6875 54.8125 3.25
v -2.3125 54 3
v -2.3125 54 3.25
v -2.3125 54.8125 3
v -2.3125 54.8125 3.25
v -3 55 3
v -3 55 4
v -3 55.5 3
v -3 55.5 4
v -2 55 3
v -2 55 4
v -2 55.5 3
v -2 55.5 4
v -3 49.5 4
v -3 49.5 5
v -3 50 4
v -3 50 5
v -2 49.5 4
v -2 49.5 5
v -2 50 4
v -2 50 5
v -2 49.5 -3
v -2 49.5 -2
v -2 50 -3
v -2 50 -2
v -1 49.5 -3
v -1 49.5 -2
v -1 50 -3
v -1 50 -2
v -2 49 -2.5
v -2 49 -2
v -2 49.5 -2.5
v -2 49.5 -2
v -1 49 -2.5
v -1 49 -2
v -1 49.5 -2.5
v -1 49.5 -2
v -2 42 -2
v -2 42 -1
v -2 42.5 -2
v -2 42.5 -1
v -1 42 -2
v -1 42 -1
v -1 42.5 -2
v -1 42.5 -1
v -1.75 50 -1.75
v -1.75 50 -1.25
v -1.75 51 -1.75
v -1.75 51 -1.25
v -1.25 50 -1.75
v -1.25 50 -1.25
v -1.25 51 -1.75
v -1.25 51 -1.25
v -1.25 50 -1.6875
v -1.25 50 -1.3125
v -1.25 50.8125 -1.6875
v -1.25 50.8125 -1.3125
v -1 50 -1.6875
v -1 50 -1.3125
v -1 50.8125 -1.6875
v -1 50.8125 -1.3125
v -1.6875 50 -1.25
v -1.6875 50 -1
v -1.6875 50.8125 -1.25
v -1.6875 50.8125 -1
v -1.3125 50 -1.25
v -1.3125 50 -1
v -1.3125 50.8125 -1.25
v -1.3125 50.8125 -1
v -1.75 51 -1.75
v -1.75 51 -1.25
v -1.75 52 -1.75
v -1.75 52 -1.25
v -1.25 51 -1.75
v -1.25 51 -1.25
v -1.25 52 -1.75
v -1.25 52 -1.25
v -1.25 51 -1.6875
v -1.25 51 -1.3125
v -1.25 51.8125 -1.6875
v -1.25 51.8125 -1.3125
v -1 51 -1.6875
v -1 51 -1.3125
v -1 51.8125 -1.6875
v -1 51.8125 -1.3125
v -1.6875 51 -1.25
v -1.6875 51 -1
v -1.6875 51.8125 -1.25
v -1.6875 51.8125 -1
v -1.3125 51 -1.25
v -1.3125 51 -1
v -1.3125 51.8125 -1.25
v -1.3125 51.8125 -1
v -1.75 52 -1.75
v -1.75 52 -1.25
v -1.75 53 -1.75
v -1.75 53 -1.25
v -1.25 52 -1.75
v -1.25 52 -1.25
v -1.25 53 -1.75
v -1.25 53 -1.25
v -1.25 52 -1.6875
v -1.25 52 -1.3125
v -1.25 52.8125 -1.6875
v -1.25 52.8125 -1.3125
v -1 52 -1.6875
v -1 52 -1.3125
v -1 52.8125 -1.6875
v -1 52.8125 -1.3125
v -1.6875 52 -1.25
v -1.6875 52 -1
v -1.6875 52.8125 -1.25
v -1.6875 52.8125 -1
v -1.3125 52 -1.25
v -1.3125 52 -1
v -1.3125 52.8125 -1.25
v -1.3125 52.8125 -1
v -1.75 53 -1.75
v -1.75 53 -1.25
v -1.75 54 -1.75
v -1.75 54 -1.25
v -1.25 53 -1.75
v -1.25 53 -1.25
v -1.25 54 -1.75
v -1.25 54 -1.25
v -1.25 53 -1.6875
v -1.25 53 -1.3125
v -1.25 53.8125 -1.6875
v -1.25 53.8125 -1.3125
v -1 53 -1.6875
v -1 53 -1.3125
v -1 53.8125 -1.6875
v -1 53.8125 -1.3125
v -1.6875 53 -1.25
v -1.6875 53 -1
v -1.6875 53.8125 -1.25
v -1.6875 53.8125 -1
v -1.3125 53 -1.25
v -1.3125 53 -1
v -1.3125 53.8125 -1.25
v -1.3125 53.8125 -1
v -1.75 54 -1.75
v -1.75 54 -1.25
v -1.75 55 -1.75
v -1.75 55 -1.25
v -1.25 54 -1.75
v -1.25 54 -1.25
v -1.25 55 -1.75
v -1.25 55 -1.25
v -1.25 54 -1.6875
v -1.25 54 -1.3125
v -1.25 54.8125 -1.6875
v -1.25 54.8125 -1.3125
v -1 54 -1.6875
v -1 54 -1.3125
v -1 54.8125 -1.6875
v -1 54.8125 -1.3125
v -1.6875 54 -1.25
v -1.6875 54 -1
v -1.6875 54.8125 -1.25
v -1.6875 54.8125 -1
v -1.3125 54 -1.25
v -1.3125 54 -1
v -1.3125 54.8125 -1.25
v -1.3125 54.8125 -1
v -2 55 -2
v -2 55 -1
v -2 55.5 -2
v -2 55.5 -1
v -1 55 -2
v -1 55 -1
v -1 55.5 -2
v -1 55.5 -1
v -2 42 4
v -2 42 5
v -2 42.5 4
v -2 42.5 5
v -1 42 4
v -1 42 5
v -1 42.5 4
v -1 42.5 5
v -1.75 50 4.25
v -1.75 50 4.75
v -1.75 51 4.25
v -1.75 51 4.75
v -1.25 50 4.25
v -1.25 50 4.75
v -1.25 51 4.25
v -1.25 51 4.75
v -1.25 50 4.3125
v -1.25 50 4.6875
v -1.25 50.8125 4.3125
v -1.25 50.8125 4.6875
v -1 50 4.3125
v -1 50 4.6875
v -1 50.8125 4.3125
v -1 50.8125 4.6875
v -1.6875 50 4
v -1.6875 50 4.25
v -1.6875 50.8125 4
v -1.6875 50.8125 4.25
v -1.3125 50 4
v -1.3125 50 4.25
v -1.3125 50.8125 4
v -1.3125 50.8125 4.25
v -1.75 51 4.25
v -1.75 51 4.75
v -1.75 52 4.25
v -1.75 52 4.75
v -1.25 51 4.25
v -1.25 51 4.75
v -1.25 52 4.25
v -1.25 52 4.75
v -1.25 51 4.3125
v -1.25 51 4.6875
v -1.25 51.8125 4.3125
v -1.25 51.8125 4.6875
v -1 51 4.3125
v -1 51 4.6875
v -1 51.8125 4.3125
v -1 51.8125 4.6875
v -1.6875 51 4
v -1.6875 51 4.25
v -1.6875 51.8125 4
v -1.6875 51.8125 4.25
v -1.3125 51 4
v -1.3125 51 4.25
v -1.3125 51.8125 4
v -1.3125 51.8125 4.25
v -1.75 52 4.25
v -1.75 52 4.75
v -1.75 53 4.25
v -1.75 53 4.75
v -1.25 52 4.25
v -1.25 52 4.75
v -1.25 53 4.25
v -1.25 53 4.75
v -1.25 52 4.3125
v -1.25 52 4.6875
v -1.25 52.8125 4.3125
v -1.25 52.8125 4.6875
v -1 52 4.3125
v -1 52 4.6875
v -1 52.8125 4.3125
v -1 52.8125 4.6875
v -1.6875 52 4
v -1.6875 52 4.25
v -1.6875 52.8125 4
v -1.6875 52.8125 4.25
v -1.3125 52 4
v -1.3125 52 4.25
v -1.3125 52.8125 4
v -1.3125 52.8125 4.25
v -1.75 53 4.25
v -1.75 53 4.75
v -1.75 54 4.25
v -1.75 54 4.75
v -1.25 53 4.25
v -1.25 53 4.75
v -1.25 54 4.25
v -1.25 54 4.75
v -1.25 53 4.3125
v -1.25 53 4.6875
v -1.25 53.8125 4.3125
v -1.25 53.8125 4.6875
v -1 53 4.3125
v -1 53 4.6875
v -1 53.8125 4.3125
v -1 53.8125 4.6875
v -1.6875 53 4
v -1.6875 53 4.25
v -1.6875 53.8125 4
v -1.6875 53.8125 4.25
v -1.3125 53 4
v -1.3125 53 4.25
v -1.3125 53.8125 4
v -1.3125 53.8125 4.25
v -1.75 54 4.25
v -1.75 54 4.75
v -1.75 55 4.25
v -1.75 55 4.75
v -1.25 54 4.25
v -1.25 54 4.75
v -1.25 55 4.25
v -1.25 55 4.75
v -1.25 54 4.3125
v -1.25 54 4.6875
v -1.25 54.8125 4.3125
v -1.25 54.8125 4.6875
v -1 54 4.3125
v -1 54 4.6875
v -1 54.8125 4.3125
v -1 54.8125 4.6875
v -1.6875 54 4
v -1.6875 54 4.25
v -1.6875 54.8125 4
v -1.6875 54.8125 4.25
v -1.3125 54 4
v -1.3125 54 4.25
v -1.3125 54.8125 4
v -1.3125 54.8125 4.25
v -2 55 4
v -2 55 5
v -2 55.5 4
v -2 55.5 5
v -1 55 4
v -1 55 5
v -1 55.5 4
v -1 55.5 5
v -2 49.5 5
v -2 49.5 6
v -2 50 5
v -2 50 6
v -1 49.5 5
v -1 49.5 6
v -1 50 5
v -1 50 6
v -2 49 5
v -2 49 5.5
v -2 49.5 5
v -2 49.5 5.5
v -1 49 5
v -1 49 5.5
v -1 49.5 5
v -1 49.5 5.5
v -1 49.5 -4
v -1 49.5 -3
v -1 50 -4
v -1 50 -3
v 0 49.5 -4
v 0 49.5 -3
v 0 50 -4
v 0 50 -3
v -1 55 -3
v -1 55 -2
v -1 55.5 -3
v -1 55.5 -2
v 0 55 -3
v 0 55 -2
v 0 55.5 -3
v 0 55.5 -2
v -1 55 5
v -1 55 6
v -1 55.5 5
v -1 55.5 6
v 0 55 5
v 0 55 6
v 0 55.5 5
v 0 55.5 6
v -1 49.5 6
v -1 49.5 7
v -1 50 6
v -1 50 7
v 0 49.5 6
v 0 49.5 7
v 0 50 6
v 0 50 7
v 0 49.5 -4
v 0 49.5 -3
v 0 50 -4
v 0 50 -3
v 1 49.5 -4
v 1 49.5 -3
v 1 50 -4
v 1 50 -3
v 0 49 -3.5
v 0 49 -3
v 0 49.5 -3.5
v 0 49.5 -3
v 1 49 -3.5
v 1 49 -3
v 1 49.5 -3.5
v 1 49.5 -3
v 0 26.3125 -2.5625
v 0 26.3125 -2.4375
v 0 27 -2.5625
v 0 27 -2.4375
v 0.25 26.3125 -2.5625
v 0.25 26.3125 -2.4375
v 0.25 27 -2.5625
v 0.25 27 -2.4375
v 0.75 26.3125 -2.5625
v 0.75 26.3125 -2.4375
v 0.75 27 -2.5625
v 0.75 27 -2.4375
v 1 26.3125 -2.5625
v 1 26.3125 -2.4375
v 1 27 -2.5625
v 1 27 -2.4375
v 0 26.375 -2.4375
v 0 26.375 -2
v 0 26.5625 -2.4375
v 0 26.5625 -2
v 0.25 26.375 -2.4375
v 0.25 26.375 -2
v 0.25 26.5625 -2.4375
v 0.25 26.5625 -2
v 0 26.75 -2.4375
v 0 26.75 -2
v 0 26.9375 -2.4375
v 0 26.9375 -2
v 0.25 26.75 -2.4375
v 0.25 26.75 -2
v 0.25 26.9375 -2.4375
v 0.25 26.9375 -2
v 0.75 26.375 -2.4375
v 0.75 26.375 -2
v 0.75 26.5625 -2.4375
v 0.75 26.5625 -2
v 1 26.375 -2.4375
v 1 26.375 -2
v 1 26.5625 -2.4375
v 1 26.5625 -2
v 0.75 26.75 -2.4375
v 0.75 26.75 -2
v 0.75 26.9375 -2.4375
v 0.75 26.9375 -2
v 1 26.75 -2.4375
v 1 26.75 -2
v 1 26.9375 -2.4375
v 1 26.9375 -2
v 0 26.5625 -2.125
v 0 26.5625 -2
v 0 26.75 -2.125
v 0 26.75 -2
v 0.25 26.5625 -2.125
v 0.25 26.5625 -2
v 0.25 26.75 -2.125
v 0.25 26.75 -2
v 0.75 26.5625 -2.125
v 0.75 26.5625 -2
v 0.75 26.75 -2.125
v 0.75 26.75 -2
v 1 26.5625 -2.125
v 1 26.5625 -2
v 1 26.75 -2.125
v 1 26.75 -2
v 0 34.3125 -2.5625
v 0 34.3125 -2.4375
v 0 35 -2.5625
v 0 35 -2.4375
v 0.25 34.3125 -2.5625
v 0.25 34.3125 -2.4375
v 0.25 35 -2.5625
v 0.25 35 -2.4375
v 0.75 34.3125 -2.5625
v 0.75 34.3125 -2.4375
v 0.75 35 -2.5625
v 0.75 35 -2.4375
v 1 34.3125 -2.5625
v 1 34.3125 -2.4375
v 1 35 -2.5625
v 1 35 -2.4375
v 0 34.375 -2.4375
v 0 34.375 -2
v 0 34.5625 -2.4375
v 0 34.5625 -2
v 0.25 34.375 -2.4375
v 0.25 34.375 -2
v 0.25 34.5625 -2.4375
v 0.25 34.5625 -2
v 0 34.75 -2.4375
v 0 34.75 -2
v 0 34.9375 -2.4375
v 0 34.9375 -2
v 0.25 34.75 -2.4375
v 0.25 34.75 -2
v 0.25 34.9375 -2.4375
v 0.25 34.9375 -2
v 0.75 34.375 -2.4375
v 0.75 34.375 -2
v 0.75 34.5625 -2.4375
v 0.75 34.5625 -2
v 1 34.375 -2.4375
v 1 34.375 -2
v 1 34.5625 -2.4375
v 1 34.5625 -2
v 0.75 34.75 -2.4375
v 0.75 34.75 -2
v 0.75 34.9375 -2.4375
v 0.75 34.9375 -2
v 1 34.75 -2.4375
v 1 34.75 -2
v 1 34.9375 -2.4375
v 1 34.9375 -2
v 0 34.5625 -2.125
v 0 34.5625 -2
v 0 34.75 -2.125
v 0 34.75 -2
v 0.25 34.5625 -2.125
v 0.25 34.5625 -2
v 0.25 34.75 -2.125
v 0.25 34.75 -2
v 0.75 34.5625 -2.125
v 0.75 34.5625 -2
v 0.75 34.75 -2.125
v 0.75 34.75 -2
v 1 34.5625 -2.125
v 1 34.5625 -2
v 1 34.75 -2.125
v 1 34.75 -2
v 0 42 -3
v 0 42 -2
v 0 42.5 -3
v 0 42.5 -2
v 1 42 -3
v 1 42 -2
v 1 42.5 -3
v 1 42.5 -2
v 0 8.8125 -1.625
v 0 8.8125 -1.375
v 0 9 -1.625
v 0 9 -1.375
v 1 8.8125 -1.625
v 1 8.8125 -1.375
v 1 9 -1.625
v 1 9 -1.375
v 0.25 60 1.25
v 0.25 60 1.75
v 0.25 61 1.25
v 0.25 61 1.75
v 0.75 60 1.25
v 0.75 60 1.75
v 0.75 61 1.25
v 0.75 61 1.75
v 0 26.3125 5.4375
v 0 26.3125 5.5625
v 0 27 5.4375
v 0 27 5.5625
v 0.25 26.3125 5.4375
v 0.25 26.3125 5.5625
v 0.25 27 5.4375
v 0.25 27 5.5625
v 0.75 26.3125 5.4375
v 0.75 26.3125 5.5625
v 0.75 27 5.4375
v 0.75 27 5.5625
v 1 26.3125 5.4375
v 1 26.3125 5.5625
v 1 27 5.4375
v 1 27 5.5625
v 0 26.375 5
v 0 26.375 5.4375
v 0 26.5625 5
v 0 26.5625 5.4375
v 0.25 26.375 5
v 0.25 26.375 5.4375
v 0.25 26.5625 5
v 0.25 26.5625 5.4375
v 0 26.75 5
v 0 26.75 5.4375
v 0 26.9375 5
v 0 26.9375 5.4375
v 0.25 26.75 5
v 0.25 26.75 5.4375
v 0.25 26.9375 5
v 0.25 26.9375 5.4375
v 0.75 26.375 5
v 0.75 26.375 5.4375
v 0.75 26.5625 5
v 0.75 26.5625 5.4375
v 1 26.375 5
v 1 26.375 5.4375
v 1 26.5625 5
v 1 26.5625 5.4375
v 0.75 26.75 5
v 0.75 26.75 5.4375
v 0.75 26.9375 5
v 0.75 26.9375 5.4375
v 1 26.75 5
v 1 26.75 5.4375
v 1 26.9375 5
v 1 26.9375 5.4375
v 0 26.5625 5
v 0 26.5625 5.125
v 0 26.75 5
v 0 26.75 5.125
v 0.25 26.5625 5
v 0.25 26.5625 5.125
v 0.25 26.75 5
v 0.25 26.75 5.125
v 0.75 26.5625 5
v 0.75 26.5625 5.125
v 0.75 26.75 5
v 0.75 26.75 5.125
v 1 26.5625 5
v 1 26.5625 5.125
v 1 26.75 5
v 1 26.75 5.125
v 0 30.3125 5.4375
v 0 30.3125 5.5625
v 0 31 5.4375
v 0 31 5.5625
v 0.25 30.3125 5.4375
v 0.25 30.3125 5.5625
v 0.25 31 5.4375
v 0.25 31 5.5625
v 0.75 30.3125 5.4375
v 0.75 30.3125 5.5625
v 0.75 31 5.4375
v 0.75 31 5.5625
v 1 30.3125 5.4375
v 1 30.3125 5.5625
v 1 31 5.4375
v 1 31 5.5625
v 0 30.375 5
v 0 30.375 5.4375
v 0 30.5625 5
v 0 30.5625 5.4375
v 0.25 30.375 5
v 0.25 30.375 5.4375
v 0.25 30.5625 5
v 0.25 30.5625 5.4375
v 0 30.75 5
v 0 30.75 5.4375
v 0 30.9375 5
v 0 30.9375 5.4375
v 0.25 30.75 5
v 0.25 30.75 5.4375
v 0.25 30.9375 5
v 0.25 30.9375 5.4375
v 0.75 30.375 5
v 0.75 30.375 5.4375
v 0.75 30.5625 5
v 0.75 30.5625 5.4375
v 1 30.375 5
v 1 30.375 5.4375
v 1 30.5625 5
v 1 30.5625 5.4375
v 0.75 30.75 5
v 0.75 30.75 5.4375
v 0.75 30.9375 5
v 0.75 30.9375 5.4375
v 1 30.75 5
v 1 30.75 5.4375
v 1 30.9375 5
v 1 30.9375 5.4375
v 0 30.5625 5
v 0 30.5625 5.125
v 0 30.75 5
v 0 30.75 5.125
v 0.25 30.5625 5
v 0.25 30.5625 5.125
v 0.25 30.75 5
v 0.25 30.75 5.125
v 0.75 30.5625 5
v 0.75 30.5625 5.125
v 0.75 30.75 5
v 0.75 30.75 5.125
v 1 30.5625 5
v 1 30.5625 5.125
v 1 30.75 5
v 1 30.75 5.125
v 0 34.3125 5.4375
v 0 34.3125 5.5625
v 0 35 5.4375
v 0 35 5.5625
v 0.25 34.3125 5.4375
v 0.25 34.3125 5.5625
v 0.25 35 5.4375
v 0.25 35 5.5625
v 0.75 34.3125 5.4375
v 0.75 34.3125 5.5625
v 0.75 35 5.4375
v 0.75 35 5.5625
v 1 34.3125 5.4375
v 1 34.3125 5.5625
v 1 35 5.4375
v 1 35 5.5625
v 0 34.375 5
v 0 34.375 5.4375
v 0 34.5625 5
v 0 34.5625 5.4375
v 0.25 34.375 5
v 0.25 34.375 5.4375
v 0.25 34.5625 5
v 0.25 34.5625 5.4375
v 0 34.75 5
v 0 34.75 5.4375
v 0 34.9375 5
v 0 34.9375 5.4375
v 0.25 34.75 5
v 0.25 34.75 5.4375
v 0.25 34.9375 5
v 0.25 34.9375 5.4375
v 0.75 34.375 5
v 0.75 34.375 5.4375
v 0.75 34.5625 5
v 0.75 34.5625 5.4375
v 1 34.375 5
v 1 34.375 5.4375
v 1 34.5625 5
v 1 34.5625 5.4375
v 0.75 34.75 5
v 0.75 34.75 5.4375
v 0.75 34.9375 5
v 0.75 34.9375 5.4375
v 1 34.75 5
v 1 34.75 5.4375
v 1 34.9375 5
v 1 34.9375 5.4375
v 0 34.5625 5
v 0 34.5625 5.125
v 0 34.75 5
v 0 34.75 5.125
v 0.25 34.5625 5
v 0.25 34.5625 5.125
v 0.25 34.75 5
v 0.25 34.75 5.125
v 0.75 34.5625 5
v 0.75 34.5625 5.125
v 0.75 34.75 5
v 0.75 34.75 5.125
v 1 34.5625 5
v 1 34.5625 5.125
v 1 34.75 5
v 1 34.75 5.125
v 0 42 5
v 0 42 6
v 0 42.5 5
v 0 42.5 6
v 1 42 5
v 1 42 6
v 1 42.5 5
v 1 42.5 6
v 0 49.5 6
v 0 49.5 7
v 0 50 6
v 0 50 7
v 1 49.5 6
v 1 49.5 7
v 1 50 6
v 1 50 7
v 0 49 6
v 0 49 6.5
v 0 49.5 6
v 0 49.5 6.5
v 1 49 6
v 1 49 6.5
v 1 49.5 6
v 1 49.5 6.5
v 1 49.5 -4
v 1 49.5 -3
v 1 50 -4
v 1 50 -3
v 2 49.5 -4
v 2 49.5 -3
v 2 50 -4
v 2 50 -3
v 1 55 -3
v 1 55 -2
v 1 55.5 -3
v 1 55.5 -2
v 2 55 -3
v 2 55 -2
v 2 55.5 -3
v 2 55.5 -2
v 1.3125 28.3125 -1
v 1.3125 28.3125 -0.875
v 1.3125 29 -1
v 1.3125 29 -0.875
v 1.6875 28.3125 -1
v 1.6875 28.3125 -0.875
v 1.6875 29 -1
v 1.6875 29 -0.875
v 1.3125 28.3125 -0.125
v 1.3125 28.3125 0
v 1.3125 29 -0.125
v 1.3125 29 0
v 1.6875 28.3125 -0.125
v 1.6875 28.3125 0
v 1.6875 29 -0.125
v 1.6875 29 0
v 1.3125 28.375 -0.875
v 1.3125 28.375 -0.125
v 1.3125 28.5625 -0.875
v 1.3125 28.5625 -0.125
v 1.6875 28.375 -0.875
v 1.6875 28.375 -0.125
v 1.6875 28.5625 -0.875
v 1.6875 28.5625 -0.125
v 1.3125 28.75 -0.875
v 1.3125 28.75 -0.125
v 1.3125 28.9375 -0.875
v 1.3125 28.9375 -0.125
v 1.6875 28.75 -0.875
v 1.6875 28.75 -0.125
v 1.6875 28.9375 -0.875
v 1.6875 28.9375 -0.125
v 1.3125 28.5625 -0.625
v 1.3125 28.5625 -0.375
v 1.3125 28.75 -0.625
v 1.3125 28.75 -0.375
v 1.6875 28.5625 -0.625
v 1.6875 28.5625 -0.375
v 1.6875 28.75 -0.625
v 1.6875 28.75 -0.375
v 1 55 5
v 1 55 6
v 1 55.5 5
v 1 55.5 6
v 2 55 5
v 2 55 6
v 2 55.5 5
v 2 55.5 6
v 1 49.5 6
v 1 49.5 7
v 1 50 6
v 1 50 7
v 2 49.5 6
v 2 49.5 7
v 2 50 6
v 2 50 7
v 2 49.5 -3
v 2 49.5 -2
v 2 50 -3
v 2 50 -2
v 3 49.5 -3
v 3 49.5 -2
v 3 50 -3
v 3 50 -2
v 2 49 -2.5
v 2 49 -2
v 2 49.5 -2.5
v 2 49.5 -2
v 3 49 -2.5
v 3 49 -2
v 3 49.5 -2.5
v 3 49.5 -2
v 2 42 -2
v 2 42 -1
v 2 42.5 -2
v 2 42.5 -1
v 3 42 -2
v 3 42 -1
v 3 42.5 -2
v 3 42.5 -1
v 2.25 50 -1.75
v 2.25 50 -1.25
v 2.25 51 -1.75
v 2.25 51 -1.25
v 2.75 50 -1.75
v 2.75 50 -1.25
v 2.75 51 -1.75
v 2.75 51 -1.25
v 2 50 -1.6875
v 2 50 -1.3125
v 2 50.8125 -1.6875
v 2 50.8125 -1.3125
v 2.25 50 -1.6875
v 2.25 50 -1.3125
v 2.25 50.8125 -1.6875
v 2.25 50.8125 -1.3125
v 2.3125 50 -1.25
v 2.3125 50 -1
v 2.3125 50.8125 -1.25
v 2.3125 50.8125 -1
v 2.6875 50 -1.25
v 2.6875 50 -1
v 2.6875 50.8125 -1.25
v 2.6875 50.8125 -1
v 2.25 51 -1.75
v 2.25 51 -1.25
v 2.25 52 -1.75
v 2.25 52 -1.25
v 2.75 51 -1.75
v 2.75 51 -1.25
v 2.75 52 -1.75
v 2.75 52 -1.25
v 2 51 -1.6875
v 2 51 -1.3125
v 2 51.8125 -1.6875
v 2 51.8125 -1.3125
v 2.25 51 -1.6875
v 2.25 51 -1.3125
v 2.25 51.8125 -1.6875
v 2.25 51.8125 -1.3125
v 2.3125 51 -1.25
v 2.3125 51 -1
v 2.3125 51.8125 -1.25
v 2.3125 51.8125 -1
v 2.6875 51 -1.25
v 2.6875 51 -1
v 2.6875 51.8125 -1.25
v 2.6875 51.8125 -1
v 2.25 52 -1.75
v 2.25 52 -1.25
v 2.25 53 -1.75
v 2.25 53 -1.25
v 2.75 52 -1.75
v 2.75 52 -1.25
v 2.75 53 -1.75
v 2.75 53 -1.25
v 2 52 -1.6875
v 2 52 -1.3125
v 2 52.8125 -1.6875
v 2 52.8125 -1.3125
v 2.25 52 -1.6875
v 2.25 52 -1.3125
v 2.25 52.8125 -1.6875
v 2.25 52.8125 -1.3125
v 2.3125 52 -1.25
v 2.3125 52 -1
v 2.3125 52.8125 -1.25
v 2.3125 52.8125 -1
v 2.6875 52 -1.25
v 2.6875 52 -1
v 2.6875 52.8125 -1.25
v 2.6875 52.8125 -1
v 2.25 53 -1.75
v 2.25 53 -1.25
v 2.25 54 -1.75
v 2.25 54 -1.25
v 2.75 53 -1.75
v 2.75 53 -1.25
v 2.75 54 -1.75
v 2.75 54 -1.25
v 2 53 -1.6875
v 2 53 -1.3125
v 2 53.8125 -1.6875
v 2 53.8125 -1.3125
v 2.25 53 -1.6875
v 2.25 53 -1.3125
v 2.25 53.8125 -1.6875
v 2.25 53.8125 -1.3125
v 2.3125 53 -1.25
v 2.3125 53 -1
v 2.3125 53.8125 -1.25
v 2.3125 53.8125 -1
v 2.6875 53 -1.25
v 2.6875 53 -1
v 2.6875 53.8125 -1.25
v 2.6875 53.8125 -1
v 2.25 54 -1.75
v 2.25 54 -1.25
v 2.25 55 -1.75
v 2.25 55 -1.25
v 2.75 54 -1.75
v 2.75 54 -1.25
v 2.75 55 -1.75
v 2.75 55 -1.25
v 2 54 -1.6875
v 2 54 -1.3125
v 2 54.8125 -1.6875
v 2 54.8125 -1.3125
v 2.25 54 -1.6875
v 2.25 54 -1.3125
v 2.25 54.8125 -1.6875
v 2.25 54.8125 -1.3125
v 2.3125 54 -1.25
v 2.3125 54 -1
v 2.3125 54.8125 -1.25
v 2.3125 54.8125 -1
v 2.6875 54 -1.25
v 2.6875 54 -1
v 2.6875 54.8125 -1.25
v 2.6875 54.8125 -1
v 2 55 -2
v 2 55 -1
v 2 55.5 -2
v 2 55.5 -1
v 3 55 -2
v 3 55 -1
v 3 55.5 -2
v 3 55.5 -1
v 2 42 4
v 2 42 5
v 2 42.5 4
v 2 42.5 5
v 3 42 4
v 3 42 5
v 3 42.5 4
v 3 42.5 5
v 2.25 50 4.25
v 2.25 50 4.75
v 2.25 51 4.25
v 2.25 51 4.75
v 2.75 50 4.25
v 2.75 50 4.75
v 2.75 51 4.25
v 2.75 51 4.75
v 2 50 4.3125
v 2 50 4.6875
v 2 50.8125 4.3125
v 2 50.8125 4.6875
v 2.25 50 4.3125
v 2.25 50 4.6875
v 2.25 50.8125 4.3125
v 2.25 50.8125 4.6875
v 2.3125 50 4
v 2.3125 50 4.25
v 2.3125 50.8125 4
v 2.3125 50.8125 4.25
v 2.6875 50 4
v 2.6875 50 4.25
v 2.6875 50.8125 4
v 2.6875 50.8125 4.25
v 2.25 51 4.25
v 2.25 51 4.75
v 2.25 52 4.25
v 2.25 52 4.75
v 2.75 51 4.25
v 2.75 51 4.75
v 2.75 52 4.25
v 2.75 52 4.75
v 2 51 4.3125
v 2 51 4.6875
v 2 51.8125 4.3125
v 2 51.8125 4.6875
v 2.25 51 4.3125
v 2.25 51 4.6875
v 2.25 51.8125 4.3125
v 2.25 51.8125 4.6875
v 2.3125 51 4
v 2.3125 51 4.25
v 2.3125 51.8125 4
v 2.3125 51.8125 4.25
v 2.6875 51 4
v 2.6875 51 4.25
v 2.6875 51.8125 4
v 2.6875 51.8125 4.25
v 2.25 52 4.25
v 2.25 52 4.75
v 2.25 53 4.25
v 2.25 53 4.75
v 2.75 52 4.25
v 2.75 52 4.75
v 2.75 53 4.25
v 2.75 53 4.75
v 2 52 4.3125
v 2 52 4.6875
v 2 52.8125 4.3125
v 2 52.8125 4.6875
v 2.25 52 4.3125
v 2.25 52 4.6875
v 2.25 52.8125 4.3125
v 2.25 52.8125 4.6875
v 2.3125 52 4
v 2.3125 52 4.25
v 2.3125 52.8125 4
v 2.3125 52.8125 4.25
v 2.6875 52 4
v 2.6875 52 4.25
v 2.6875 52.8125 4
v 2.6875 52.8125 4.25
v 2.25 53 4.25
v 2.25 53 4.75
v 2.25 54 4.25
v 2.25 54 4.75
v 2.75 53 4.25
v 2.75 53 4.75
v 2.75 54 4.25
v 2.75 54 4.75
v 2 53 4.3125
v 2 53 4.6875
v 2 53.8125 4.3125
v 2 53.8125 4.6875
v 2.25 53 4.3125
v 2.25 53 4.6875
v 2.25 53.8125 4.3125
v 2.25 53.8125 4.6875
v 2.3125 53 4
v 2.3125 53 4.25
v 2.3125 53.8125 4
v 2.3125 53.8125 4.25
v 2.6875 53 4
v 2.6875 53 4.25
v 2.6875 53.8125 4
v 2.6875 53.8125 4.25
v 2.25 54 4.25
v 2.25 54 4.75
v 2.25 55 4.25
v 2.25 55 4.75
v 2.75 54 4.25
v 2.75 54 4.75
v 2.75 55 4.25
v 2.75 55 4.75
v 2 54 4.3125
v 2 54 4.6875
v 2 54.8125 4.3125
v 2 54.8125 4.6875
v 2.25 54 4.3125
v 2.25 54 4.6875
v 2.25 54.8125 4.3125
v 2.25 54.8125 4.6875
v 2.3125 54 4
v 2.3125 54 4.25
v 2.3125 54.8125 4
v 2.3125 54.8125 4.25
v 2.6875 54 4
v 2.6875 54 4.25
v 2.6875 54.8125 4
v 2.6875 54.8125 4.25
v 2 55 4
v 2 55 5
v 2 55.5 4
v 2 55.5 5
v 3 55 4
v 3 55 5
v 3 55.5 4
v 3 55.5 5
v 2 49.5 5
v 2 49.5 6
v 2 50 5
v 2 50 6
v 3 49.5 5
v 3 49.5 6
v 3 50 5
v 3 50 6
v 2 49 5
v 2 49 5.5
v 2 49.5 5
v 2 49.5 5.5
v 3 49 5
v 3 49 5.5
v 3 49.5 5
v 3 49.5 5.5
v 3 49.5 -2
v 3 49.5 -1
v 3 50 -2
v 3 50 -1
v 4 49.5 -2
v 4 49.5 -1
v 4 50 -2
v 4 50 -1
v 3.25 39 -0.75
v 3.25 39 -0.25
v 3.25 40 -0.75
v 3.25 40 -0.25
v 3.75 39 -0.75
v 3.75 39 -0.25
v 3.75 40 -0.75
v 3.75 40 -0.25
v 3 39 -0.6875
v 3 39 -0.3125
v 3 39.8125 -0.6875
v 3 39.8125 -0.3125
v 3.25 39 -0.6875
v 3.25 39 -0.3125
v 3.25 39.8125 -0.6875
v 3.25 39.8125 -0.3125
v 3.3125 39 -0.25
v 3.3125 39 0
v 3.3125 39.8125 -0.25
v 3.3125 39.8125 0
v 3.6875 39 -0.25
v 3.6875 39 0
v 3.6875 39.8125 -0.25
v 3.6875 39.8125 0
v 3.25 40 -0.75
v 3.25 40 -0.25
v 3.25 41 -0.75
v 3.25 41 -0.25
v 3.75 40 -0.75
v 3.75 40 -0.25
v 3.75 41 -0.75
v 3.75 41 -0.25
v 3 40 -0.6875
v 3 40 -0.3125
v 3 40.8125 -0.6875
v 3 40.8125 -0.3125
v 3.25 40 -0.6875
v 3.25 40 -0.3125
v 3.25 40.8125 -0.6875
v 3.25 40.8125 -0.3125
v 3.3125 40 -0.25
v 3.3125 40 0
v 3.3125 40.8125 -0.25
v 3.3125 40.8125 0
v 3.6875 40 -0.25
v 3.6875 40 0
v 3.6875 40.8125 -0.25
v 3.6875 40.8125 0
v 3.25 41 -0.75
v 3.25 41 -0.25
v 3.25 42 -0.75
v 3.25 42 -0.25
v 3.75 41 -0.75
v 3.75 41 -0.25
v 3.75 42 -0.75
v 3.75 42 -0.25
v 3 41 -0.6875
v 3 41 -0.3125
v 3 41.8125 -0.6875
v 3 41.8125 -0.3125
v 3.25 41 -0.6875
v 3.25 41 -0.3125
v 3.25 41.8125 -0.6875
v 3.25 41.8125 -0.3125
v 3.3125 41 -0.25
v 3.3125 41 0
v 3.3125 41.8125 -0.25
v 3.3125 41.8125 0
v 3.6875 41 -0.25
v 3.6875 41 0
v 3.6875 41.8125 -0.25
v 3.6875 41.8125 0
v 3 42 -1
v 3 42 0
v 3 42.5 -1
v 3 42.5 0
v 4 42 -1
v 4 42 0
v 4 42.5 -1
v 4 42.5 0
v 3.25 50 -0.75
v 3.25 50 -0.25
v 3.25 51 -0.75
v 3.25 51 -0.25
v 3.75 50 -0.75
v 3.75 50 -0.25
v 3.75 51 -0.75
v 3.75 51 -0.25
v 3 50 -0.6875
v 3 50 -0.3125
v 3 50.8125 -0.6875
v 3 50.8125 -0.3125
v 3.25 50 -0.6875
v 3.25 50 -0.3125
v 3.25 50.8125 -0.6875
v 3.25 50.8125 -0.3125
v 3.3125 50 -0.25
v 3.3125 50 0
v 3.3125 50.8125 -0.25
v 3.3125 50.8125 0
v 3.6875 50 -0.25
v 3.6875 50 0
v 3.6875 50.8125 -0.25
v 3.6875 50.8125 0
v 3.25 51 -0.75
v 3.25 51 -0.25
v 3.25 52 -0.75
v 3.25 52 -0.25
v 3.75 51 -0.75
v 3.75 51 -0.25
v 3.75 52 -0.75
v 3.75 52 -0.25
v 3 51 -0.6875
v 3 51 -0.3125
v 3 51.8125 -0.6875
v 3 51.8125 -0.3125
v 3.25 51 -0.6875
v 3.25 51 -0.3125
v 3.25 51.8125 -0.6875
v 3.25 51.8125 -0.3125
v 3.3125 51 -0.25
v 3.3125 51 0
v 3.3125 51.8125 -0.25
v 3.3125 51.8125 0
v 3.6875 51 -0.25
v 3.6875 51 0
v 3.6875 51.8125 -0.25
v 3.6875 51.8125 0
v 3.25 52 -0.75
v 3.25 52 -0.25
v 3.25 53 -0.75
v 3.25 53 -0.25
v 3.75 52 -0.75
v 3.75 52 -0.25
v 3.75 53 -0.75
v 3.75 53 -0.25
v 3 52 -0.6875
v 3 52 -0.3125
v 3 52.8125 -0.6875
v 3 52.8125 -0.3125
v 3.25 52 -0.6875
v 3.25 52 -0.3125
v 3.25 52.8125 -0.6875
v 3.25 52.8125 -0.3125
v 3.3125 52 -0.25
v 3.3125 52 0
v 3.3125 52.8125 -0.25
v 3.3125 52.8125 0
v 3.6875 52 -0.25
v 3.6875 52 0
v 3.6875 52.8125 -0.25
v 3.6875 52.8125 0
v 3.25 53 -0.75
v 3.25 53 -0.25
v 3.25 54 -0.75
v 3.25 54 -0.25
v 3.75 53 -0.75
v 3.75 53 -0.25
v 3.75 54 -0.75
v 3.75 54 -0.25
v 3 53 -0.6875
v 3 53 -0.3125
v 3 53.8125 -0.6875
v 3 53.8125 -0.3125
v 3.25 53 -0.6875
v 3.25 53 -0.3125
v 3.25 53.8125 -0.6875
v 3.25 53.8125 -0.3125
v 3.3125 53 -0.25
v 3.3125 53 0
v 3.3125 53.8125 -0.25
v 3.3125 53.8125 0
v 3.6875 53 -0.25
v 3.6875 53 0
v 3.6875 53.8125 -0.25
v 3.6875 53.8125 0
v 3.25 54 -0.75
v 3.25 54 -0.25
v 3.25 55 -0.75
v 3.25 55 -0.25
v 3.75 54 -0.75
v 3.75 54 -0.25
v 3.75 55 -0.75
v 3.75 55 -0.25
v 3 54 -0.6875
v 3 54 -0.3125
v 3 54.8125 -0.6875
v 3 54.8125 -0.3125
v 3.25 54 -0.6875
v 3.25 54 -0.3125
v 3.25 54.8125 -0.6875
v 3.25 54.8125 -0.3125
v 3.3125 54 -0.25
v 3.3125 54 0
v 3.3125 54.8125 -0.25
v 3.3125 54.8125 0
v 3.6875 54 -0.25
v 3.6875 54 0
v 3.6875 54.8125 -0.25
v 3.6875 54.8125 0
v 3 55 -1
v 3 55 0
v 3 55.5 -1
v 3 55.5 0
v 4 55 -1
v 4 55 0
v 4 55.5 -1
v 4 55.5 0
v 3.25 39 3.25
v 3.25 39 3.75
v 3.25 40 3.25
v 3.25 40 3.75
v 3.75 39 3.25
v 3.75 39 3.75
v 3.75 40 3.25
v 3.75 40 3.75
v 3 39 3.3125
v 3 39 3.6875
v 3 39.8125 3.3125
v 3 39.8125 3.6875
v 3.25 39 3.3125
v 3.25 39 3.6875
v 3.25 39.8125 3.3125
v 3.25 39.8125 3.6875
v 3.3125 39 3
v 3.3125 39 3.25
v 3.3125 39.8125 3
v 3.3125 39.8125 3.25
v 3.6875 39 3
v 3.6875 39 3.25
v 3.6875 39.8125 3
v 3.6875 39.8125 3.25
v 3.25 40 3.25
v 3.25 40 3.75
v 3.25 41 3.25
v 3.25 41 3.75
v 3.75 40 3.25
v 3.75 40 3.75
v 3.75 41 3.25
v 3.75 41 3.75
v 3 40 3.3125
v 3 40 3.6875
v 3 40.8125 3.3125
v 3 40.8125 3.6875
v 3.25 40 3.3125
v 3.25 40 3.6875
v 3.25 40.8125 3.3125
v 3.25 40.8125 3.6875
v 3.3125 40 3
v 3.3125 40 3.25
v 3.3125 40.8125 3
v 3.3125 40.8125 3.25
v 3.6875 40 3
v 3.6875 40 3.25
v 3.6875 40.8125 3
v 3.6875 40.8125 3.25
v 3.25 41 3.25
v 3.25 41 3.75
v 3.25 42 3.25
v 3.25 42 3.75
v 3.75 41 3.25
v 3.75 41 3.75
v 3.75 42 3.25
v 3.75 42 3.75
v 3 41 3.3125
v 3 41 3.6875
v 3 41.8125 3.3125
v 3 41.8125 3.6875
v 3.25 41 3.3125
v 3.25 41 3.6875
v 3.25 41.8125 3.3125
v 3.25 41.8125 3.6875
v 3.3125 41 3
v 3.3125 41 3.25
v 3.3125 41.8125 3
v 3.3125 41.8125 3.25
v 3.6875 41 3
v 3.6875 41 3.25
v 3.6875 41.8125 3
v 3.6875 41.8125 3.25
v 3 42 3
v 3 42 4
v 3 42.5 3
v 3 42.5 4
v 4 42 3
v 4 42 4
v 4 42.5 3
v 4 42.5 4
v 3.25 50 3.25
v 3.25 50 3.75
v 3.25 51 3.25
v 3.25 51 3.75
v 3.75 50 3.25
v 3.75 50 3.75
v 3.75 51 3.25
v 3.75 51 3.75
v 3 50 3.3125
v 3 50 3.6875
v 3 50.8125 3.3125
v 3 50.8125 3.6875
v 3.25 50 3.3125
v 3.25 50 3.6875
v 3.25 50.8125 3.3125
v 3.25 50.8125 3.6875
v 3.3125 50 3
v 3.3125 50 3.25
v 3.3125 50.8125 3
v 3.3125 50.8125 3.25
v 3.6875 50 3
v 3.6875 50 3.25
v 3.6875 50.8125 3
v 3.6875 50.8125 3.25
v 3.25 51 3.25
v 3.25 51 3.75
v 3.25 52 3.25
v 3.25 52 3.75
v 3.75 51 3.25
v 3.75 51 3.75
v 3.75 52 3.25
v 3.75 52 3.75
v 3 51 3.3125
v 3 51 3.6875
v 3 51.8125 3.3125
v 3 51.8125 3.6875
v 3.25 51 3.3125
v 3.25 51 3.6875
v 3.25 51.8125 3.3125
v 3.25 51.8125 3.6875
v 3.3125 51 3
v 3.3125 51 3.25
v 3.3125 51.8125 3
v 3.3125 51.8125 3.25
v 3.6875 51 3
v 3.6875 51 3.25
v 3.6875 51.8125 3
v 3.6875 51.8125 3.25
v 3.25 52 3.25
v 3.25 52 3.75
v 3.25 53 3.25
v 3.25 53 3.75
v 3.75 52 3.25
v 3.75 52 3.75
v 3.75 53 3.25
v 3.75 53 3.75
v 3 52 3.3125
v 3 52 3.6875
v 3 52.8125 3.3125
v 3 52.8125 3.6875
v 3.25 52 3.3125
v 3.25 52 3.6875
v 3.25 52.8125 3.3125
v 3.25 52.8125 3.6875
v 3.3125 52 3
v 3.3125 52 3.25
v 3.3125 52.8125 3
v 3.3125 52.8125 3.25
v 3.6875 52 3
v 3.6875 52 3.25
v 3.6875 52.8125 3
v 3.6875 52.8125 3.25
v 3.25 53 3.25
v 3.25 53 3.75
v 3.25 54 3.25
v 3.25 54 3.75
v 3.75 53 3.25
v 3.75 53 3.75
v 3.75 54 3.25
v 3.75 54 3.75
v 3 53 3.3125
v 3 53 3.6875
v 3 53.8125 3.3125
v 3 53.8125 3.6875
v 3.25 53 3.3125
v 3.25 53 3.6875
v 3.25 53.8125 3.3125
v 3.25 53.8125 3.6875
v 3.3125 53 3
v 3.3125 53 3.25
v 3.3125 53.8125 3
v 3.3125 53.8125 3.25
v 3.6875 53 3
v 3.6875 53 3.25
v 3.6875 53.8125 3
v 3.6875 53.8125 3.25
v 3.25 54 3.25
v 3.25 54 3.75
v 3.25 55 3.25
v 3.25 55 3.75
v 3.75 54 3.25
v 3.75 54 3.75
v 3.75 55 3.25
v 3.75 55 3.75
v 3 54 3.3125
v 3 54 3.6875
v 3 54.8125 3.3125
v 3 54.8125 3.6875
v 3.25 54 3.3125
v 3.25 54 3.6875
v 3.25 54.8125 3.3125
v 3.25 54.8125 3.6875
v 3.3125 54 3
v 3.3125 54 3.25
v 3.3125 54.8125 3
v 3.3125 54.8125 3.25
v 3.6875 54 3
v 3.6875 54 3.25
v 3.6875 54.8125 3
v 3.6875 54.8125 3.25
v 3 55 3
v 3 55 4
v 3 55.5 3
v 3 55.5 4
v 4 55 3
v 4 55 4
v 4 55.5 3
v 4 55.5 4
v 3 49.5 4
v 3 49.5 5
v 3 50 4
v 3 50 5
v 4 49.5 4
v 4 49.5 5
v 4 50 4
v 4 50 5
v 4 49.5 -1
v 4 49.5 0
v 4 50 -1
v 4 50 0
v 5 49.5 -1
v 5 49.5 0
v 5 50 -1
v 5 50 0
v 4 49 -1
v 4 49 0
v 4 49.5 -1
v 4 49.5 0
v 4.5 49 -1
v 4.5 49 0
v 4.5 49.5 -1
v 4.5 49.5 0
v 4 55 0
v 4 55 1
v 4 55.5 0
v 4 55.5 1
v 5 55 0
v 5 55 1
v 5 55.5 0
v 5 55.5 1
v 4 42 1
v 4 42 2
v 4 42.5 1
v 4 42.5 2
v 5 42 1
v 5 42 2
v 5 42.5 1
v 5 42.5 2
v 4 55 2
v 4 55 3
v 4 55.5 2
v 4 55.5 3
v 5 55 2
v 5 55 3
v 5 55.5 2
v 5 55.5 3
v 4 49.5 3
v 4 49.5 4
v 4 50 3
v 4 50 4
v 5 49.5 3
v 5 49.5 4
v 5 50 3
v 5 50 4
v 4 49 3
v 4 49 4
v 4 49.5 3
v 4 49.5 4
v 4.5 49 3
v 4.5 49 4
v 4.5 49.5 3
v 4.5 49.5 4
v 5 49.5 0
v 5 49.5 1
v 5 50 0
v 5 50 1
v 6 49.5 0
v 6 49.5 1
v 6 50 0
v 6 50 1
v 5 49.5 1
v 5 49.5 2
v 5 50 1
v 5 50 2
v 6 49.5 1
v 6 49.5 2
v 6 50 1
v 6 50 2
v 5 49 1
v 5 49 2
v 5 49.5 1
v 5 49.5 2
v 5.5 49 1
v 5.5 49 2
v 5.5 49.5 1
v 5.5 49.5 2
v 5 49.5 2
v 5 49.5 3
v 5 50 2
v 5 50 3
v 6 49.5 2
v 6 49.5 3
v 6 50 2
v 6 50 3
v -4 55 1
v -4 55 2
v -4 56 2
v -4 56 1
v -3 55 2
v -3 55 1
v -3 56 1
v -3 56 2
v -2 38 1
v -2 39 1
v -2 38 2
v -2 39 2
v -1 38 1
v -1 38 2
v -1 39 1
v -1 39 2
v 0 55 -2
v 0 56 -2
v 0 38 1
v 0 38 2
v 0 39 1
v 0 39 2
v 0 55 5
v 0 56 5
v 0 55 -3
v 0 56 -3
v 1 55 -2
v 1 55 -3
v 1 56 -3
v 1 56 -2
v 1 55 5
v 1 56 5
v 0 55 6
v 0 56 6
v 1 55 6
v 1 56 6
v 1 38 1
v 1 38 2
v 1 39 2
v 1 39 1
v 2 38 2
v 2 38 1
v 2 39 1
v 2 39 2
v 3 38 2
v 3 38 1
v 3 39 1
v 3 39 2
v 4 55 1
v 4 56 1
v 4 55 2
v 4 56 2
v 5 55 2
v 5 55 1
v 5 56 1
v 5 56 2
vt 0.000000000 0.000000000
vt 0.250000000 0.000000000
vt 0.312500000 0.000000000
vt 0.500000000 0.000000000
vt 0.687500000 0.000000000
vt 0.750000000 0.000000000
vt 1.000000000 0.000000000
vt 0.312500000 0.125000000
vt 0.687500000 0.125000000
vt 0.250000000 0.250000000
vt 0.312500000 0.250000000
vt 0.687500000 0.250000000
vt 0.750000000 0.250000000
vt 0.000000000 0.312500000
vt 0.125000000 0.312500000
vt 0.250000000 0.312500000
vt 0.312500000 0.312500000
vt 0.437500000 0.312500000
vt 0.562500000 0.312500000
vt 0.687500000 0.312500000
vt 0.750000000 0.312500000
vt 0.875000000 0.312500000
vt 1.000000000 0.312500000
vt 0.000000000 0.375000000
vt 0.125000000 0.375000000
vt 0.250000000 0.375000000
vt 0.437500000 0.375000000
vt 0.562500000 0.375000000
vt 0.750000000 0.375000000
vt 0.875000000 0.375000000
vt 1.000000000 0.375000000
vt 0.000000000 0.437500000
vt 0.250000000 0.437500000
vt 0.750000000 0.437500000
vt 1.000000000 0.437500000
vt 0.000000000 0.500000000
vt 0.500000000 0.500000000
vt 1.000000000 0.500000000
vt 0.000000000 0.562500000
vt 0.125000000 0.562500000
vt 0.250000000 0.562500000
vt 0.312500000 0.562500000
vt 0.375000000 0.562500000
vt 0.437500000 0.562500000
vt 0.562500000 0.562500000
vt 0.625000000 0.562500000
vt 0.687500000 0.562500000
vt 0.750000000 0.562500000
vt 0.875000000 0.562500000
vt 1.000000000 0.562500000
vt 0.000000000 0.625000000
vt 1.000000000 0.625000000
vt 0.000000000 0.687500000
vt 0.250000000 0.687500000
vt 0.750000000 0.687500000
vt 1.000000000 0.687500000
vt 0.000000000 0.750000000
vt 0.125000000 0.750000000
vt 0.250000000 0.750000000
vt 0.312500000 0.750000000
vt 0.375000000 0.750000000
vt 0.437500000 0.750000000
vt 0.562500000 0.750000000
vt 0.625000000 0.750000000
vt 0.687500000 0.750000000
vt 0.750000000 0.750000000
vt 0.875000000 0.750000000
vt 1.000000000 0.750000000
vt 0.000000000 0.812500000
vt 0.250000000 0.812500000
vt 0.312500000 0.812500000
vt 0.687500000 0.812500000
vt 0.750000000 0.812500000
vt 1.000000000 0.812500000
vt 0.312500000 0.875000000
vt 0.687500000 0.875000000
vt 0.000000000 0.937500000
vt 0.125000000 0.937500000
vt 0.250000000 0.937500000
vt 0.437500000 0.937500000
vt 0.562500000 0.937500000
vt 0.750000000 0.937500000
vt 0.875000000 0.937500000
vt 1.000000000 0.937500000
vt 0.000000000 1.000000000
vt 0.125000000 1.000000000
vt 0.250000000 1.000000000
vt 0.312500000 1.000000000
vt 0.437500000 1.000000000
vt 0.500000000 1.000000000
vt 0.562500000 1.000000000
vt 0.687500000 1.000000000
vt 0.750000000 1.000000000
vt 0.875000000 1.000000000
vt 1.000000000 1.000000000
vn -1 0 0
vn 0 -1 0
vn 0 0 -1
vn 1 0 0
vn 0 1 0
vn 0 0 1
f 3/85/1 1/36/1 2/38/1 4/95/1
f 2/85/2 1/1/2 5/7/2 6/95/2
f 7/85/3 5/36/3 1/38/3 3/95/3
f 7/95/4 8/85/4 6/36/4 5/38/4
f 7/95/5 3/85/5 4/1/5 8/7/5
f 8/95/6 4/85/6 2/36/6 6/38/6
f 11/85/1 9/36/1 10/38/1 12/95/1
f 10/85/2 9/1/2 13/7/2 14/95/2
f 15/85/3 13/36/3 9/38/3 11/95/3
f 15/95/4 16/85/4 14/36/4 13/38/4
f 15/95/5 11/85/5 12/1/5 16/7/5
f 16/95/6 12/85/6 10/36/6 14/38/6
f 19/36/1 17/1/1 18/7/1 20/38/1
f 18/90/2 17/4/2 21/7/2 22/95/2
f 23/36/3 21/1/3 17/4/3 19/37/3
f 23/38/4 24/36/4 22/1/4 21/7/4
f 24/38/6 20/37/6 18/4/6 22/7/6
f 27/85/1 25/36/1 26/38/1 28/95/1
f 26/85/2 25/1/2 29/7/2 30/95/2
f 31/85/3 29/36/3 25/38/3 27/95/3
f 31/95/4 32/85/4 30/36/4 29/38/4
f 31/95/5 27/85/5 28/1/5 32/7/5
f 32/95/6 28/85/6 26/36/6 30/38/6
f 35/85/1 33/36/1 34/38/1 36/95/1
f 34/85/2 33/1/2 37/7/2 38/95/2
f 39/85/3 37/36/3 33/38/3 35/95/3
f 39/95/4 40/85/4 38/36/4 37/38/4
f 39/95/5 35/85/5 36/1/5 40/7/5
f 40/95/6 36/85/6 34/36/6 38/38/6
f 43/36/1 41/1/1 42/7/1 44/38/1
f 42/90/2 41/4/2 45/7/2 46/95/2
f 47/36/3 45/1/3 41/4/3 43/37/3
f 47/38/4 48/36/4 46/1/4 45/7/4
f 48/38/6 44/37/6 42/4/6 46/7/6
f 51/36/1 49/1/1 50/7/1 52/38/1
f 50/85/2 49/1/2 53/7/2 54/95/2
f 55/36/3 53/1/3 49/7/3 51/38/3
f 55/38/4 56/36/4 54/1/4 53/7/4
f 55/95/5 51/85/5 52/1/5 56/7/5
f 56/38/6 52/36/6 50/1/6 54/7/6
f 59/36/1 57/1/1 58/7/1 60/38/1
f 58/85/2 57/1/2 61/7/2 62/95/2
f 63/36/3 61/1/3 57/7/3 59/38/3
f 63/38/4 64/36/4 62/1/4 61/7/4
f 63/95/5 59/85/5 60/1/5 64/7/5
f 64/38/6 60/36/6 58/1/6 62/7/6
f 67/36/1 65/1/1 66/7/1 68/38/1
f 66/85/2 65/1/2 69/7/2 70/95/2
f 71/36/3 69/1/3 65/7/3 67/38/3
f 71/38/4 72/36/4 70/1/4 69/7/4
f 71/95/5 67/85/5 68/1/5 72/7/5
f 72/38/6 68/36/6 66/1/6 70/7/6
f 75/85/1 73/36/1 74/38/1 76/95/1
f 74/85/2 73/1/2 77/7/2 78/95/2
f 79/85/3 77/36/3 73/38/3 75/95/3
f 79/95/4 80/85/4 78/36/4 77/38/4
f 79/95/5 75/85/5 76/1/5 80/7/5
f 80/95/6 76/85/6 74/36/6 78/38/6
f 83/36/1 81/1/1 82/7/1 84/38/1
f 82/90/2 81/4/2 85/7/2 86/95/2
f 87/36/3 85/1/3 81/4/3 83/37/3
f 87/38/4 88/36/4 86/1/4 85/7/4
f 88/38/6 84/37/6 82/4/6 86/7/6
f 91/85/1 89/36/1 90/38/1 92/95/1
f 90/85/2 89/1/2 93/7/2 94/95/2
f 95/85/3 93/36/3 89/38/3 91/95/3
f 95/95/4 96/85/4 94/36/4 93/38/4
f 95/95/5 91/85/5 92/1/5 96/7/5
f 96/95/6 92/85/6 90/36/6 94/38/6
f 99/87/1 97/2/1 98/6/1 100/93/1
f 98/59/2 97/10/2 101/13/2 102/66/2
f 103/87/3 101/2/3 97/6/3 99/93/3
f 103/93/4 104/87/4 102/2/4 101/6/4
f 103/66/5 99/59/5 100/10/5 104/13/5
f 104/93/6 100/87/6 98/2/6 102/6/6
f 107/71/1 105/3/1 106/5/1 108/72/1
f 106/55/2 105/21/2 109/23/2 110/56/2
f 111/69/3 109/1/3 105/2/3 107/70/3
f 111/72/4 112/71/4 110/3/4 109/5/4
f 111/56/5 107/55/5 108/21/5 112/23/5
f 112/74/6 108/73/6 106/6/6 110/7/6
f 115/73/1 113/6/1 114/7/1 116/74/1
f 114/11/2 113/3/2 117/5/2 118/12/2
f 119/71/3 117/3/3 113/5/3 115/72/3
f 119/70/4 120/69/4 118/1/4 117/2/4
f 119/12/5 115/11/5 116/3/5 120/5/5
f 120/72/6 116/71/6 114/3/6 118/5/6
f 123/87/1 121/2/1 122/6/1 124/93/1
f 122/59/2 121/10/2 125/13/2 126/66/2
f 127/87/3 125/2/3 121/6/3 123/93/3
f 127/93/4 128/87/4 126/2/4 125/6/4
f 127/66/5 123/59/5 124/10/5 128/13/5
f 128/93/6 124/87/6 122/2/6 126/6/6
f 131/71/1 129/3/1 130/5/1 132/72/1
f 130/55/2 129/21/2 133/23/2 134/56/2
f 135/69/3 133/1/3 129/2/3 131/70/3
f 135/72/4 136/71/4 134/3/4 133/5/4
f 135/56/5 131/55/5 132/21/5 136/23/5
f 136/74/6 132/73/6 130/6/6 134/7/6
f 139/73/1 137/6/1 138/7/1 140/74/1
f 138/11/2 137/3/2 141/5/2 142/12/2
f 143/71/3 141/3/3 137/5/3 139/72/3
f 143/70/4 144/69/4 142/1/4 141/2/4
f 143/12/5 139/11/5 140/3/5 144/5/5
f 144/72/6 140/71/6 138/3/6 142/5/6
f 147/87/1 145/2/1 146/6/1 148/93/1
f 146/59/2 145/10/2 149/13/2 150/66/2
f 151/87/3 149/2/3 145/6/3 147/93/3
f 151/93/4 152/87/4 150/2/4 149/6/4
f 151/66/5 147/59/5 148/10/5 152/13/5
f 152/93/6 148/87/6 146/2/6 150/6/6
f 155/71/1 153/3/1 154/5/1 156/72/1
f 154/55/2 153/21/2 157/23/2 158/56/2
f 159/69/3 157/1/3 153/2/3 155/70/3
f 159/72/4 160/71/4 158/3/4 157/5/4
f 159/56/5 155/55/5 156/21/5 160/23/5
f 160/74/6 156/73/6 154/6/6 158/7/6
f 163/73/1 161/6/1 162/7/1 164/74/1
f 162/11/2 161/3/2 165/5/2 166/12/2
f 167/71/3 165/3/3 161/5/3 163/72/3
f 167/70/4 168/69/4 166/1/4 165/2/4
f 167/12/5 163/11/5 164/3/5 168/5/5
f 168/72/6 164/71/6 162/3/6 166/5/6
f 171/36/1 169/1/1 170/7/1 172/38/1
f 170/85/2 169/1/2 173/7/2 174/95/2
f 175/36/3 173/1/3 169/7/3 171/38/3
f 175/38/4 176/36/4 174/1/4 173/7/4
f 175/95/5 171/85/5 172/1/5 176/7/5
f 176/38/6 172/36/6 170/1/6 174/7/6
f 179/87/1 177/2/1 178/6/1 180/93/1
f 178/59/2 177/10/2 181/13/2 182/66/2
f 183/87/3 181/2/3 177/6/3 179/93/3
f 183/93/4 184/87/4 182/2/4 181/6/4
f 183/66/5 179/59/5 180/10/5 184/13/5
f 184/93/6 180/87/6 178/2/6 182/6/6
f 187/71/1 185/3/1 186/5/1 188/72/1
f 186/55/2 185/21/2 189/23/2 190/56/2
f 191/69/3 189/1/3 185/2/3 187/70/3
f 191/72/4 192/71/4 190/3/4 189/5/4
f 191/56/5 187/55/5 188/21/5 192/23/5
f 192/74/6 188/73/6 186/6/6 190/7/6
f 195/73/1 193/6/1 194/7/1 196/74/1
f 194/11/2 193/3/2 197/5/2 198/12/2
f 199/71/3 197/3/3 193/5/3 195/72/3
f 199/70/4 200/69/4 198/1/4 197/2/4
f 199/12/5 195/11/5 196/3/5 200/5/5
f 200/72/6 196/71/6 194/3/6 198/5/6
f 203/87/1 201/2/1 202/6/1 204/93/1
f 202/59/2 201/10/2 205/13/2 206/66/2
f 207/87/3 205/2/3 201/6/3 203/93/3
f 207/93/4 208/87/4 206/2/4 205/6/4
f 207/66/5 203/59/5 204/10/5 208/13/5
f 208/93/6 204/87/6 202/2/6 206/6/6
f 211/71/1 209/3/1 210/5/1 212/72/1
f 210/55/2 209/21/2 213/23/2 214/56/2
f 215/69/3 213/1/3 209/2/3 211/70/3
f 215/72/4 216/71/4 214/3/4 213/5/4
f 215/56/5 211/55/5 212/21/5 216/23/5
f 216/74/6 212/73/6 210/6/6 214/7/6
f 219/73/1 217/6/1 218/7/1 220/74/1
f 218/11/2 217/3/2 221/5/2 222/12/2
f 223/71/3 221/3/3 217/5/3 219/72/3
f 223/70/4 224/69/4 222/1/4 221/2/4
f 223/12/5 219/11/5 220/3/5 224/5/5
f 224/72/6 220/71/6 218/3/6 222/5/6
f 227/87/1 225/2/1 226/6/1 228/93/1
f 226/59/2 225/10/2 229/13/2 230/66/2
f 231/87/3 229/2/3 225/6/3 227/93/3
f 231/93/4 232/87/4 230/2/4 229/6/4
f 231/66/5 227/59/5 228/10/5 232/13/5
f 232/93/6 228/87/6 226/2/6 230/6/6
f 235/71/1 233/3/1 234/5/1 236/72/1
f 234/55/2 233/21/2 237/23/2 238/56/2
f 239/69/3 237/1/3 233/2/3 235/70/3
f 239/72/4 240/71/4 238/3/4 237/5/4
f 239/56/5 235/55/5 236/21/5 240/23/5
f 240/74/6 236/73/6 234/6/6 238/7/6
f 243/73/1 241/6/1 242/7/1 244/74/1
f 242/11/2 241/3/2 245/5/2 246/12/2
f 247/71/3 245/3/3 241/5/3 243/72/3
f 247/70/4 248/69/4 246/1/4 245/2/4
f 247/12/5 243/11/5 244/3/5 248/5/5
f 248/72/6 244/71/6 242/3/6 246/5/6
f 251/87/1 249/2/1 250/6/1 252/93/1
f 250/59/2 249/10/2 253/13/2 254/66/2
f 255/87/3 253/2/3 249/6/3 251/93/3
f 255/93/4 256/87/4 254/2/4 253/6/4
f 255/66/5 251/59/5 252/10/5 256/13/5
f 256/93/6 252/87/6 250/2/6 254/6/6
f 259/71/1 257/3/1 258/5/1 260/72/1
f 258/55/2 257/21/2 261/23/2 262/56/2
f 263/69/3 261/1/3 257/2/3 259/70/3
f 263/72/4 264/71/4 262/3/4 261/5/4
f 263/56/5 259/55/5 260/21/5 264/23/5
f 264/74/6 260/73/6 258/6/6 262/7/6
f 267/73/1 265/6/1 266/7/1 268/74/1
f 266/11/2 265/3/2 269/5/2 270/12/2
f 271/71/3 269/3/3 265/5/3 267/72/3
f 271/70/4 272/69/4 270/1/4 269/2/4
f 271/12/5 267/11/5 268/3/5 272/5/5
f 272/72/6 268/71/6 266/3/6 270/5/6
f 275/87/1 273/2/1 274/6/1 276/93/1
f 274/59/2 273/10/2 277/13/2 278/66/2
f 279/87/3 277/2/3 273/6/3 275/93/3
f 279/93/4 280/87/4 278/2/4 277/6/4
f 279/66/5 275/59/5 276/10/5 280/13/5
f 280/93/6 276/87/6 274/2/6 278/6/6
f 283/71/1 281/3/1 282/5/1 284/72/1
f 282/55/2 281/21/2 285/23/2 286/56/2
f 287/69/3 285/1/3 281/2/3 283/70/3
f 287/72/4 288/71/4 286/3/4 285/5/4
f 287/56/5 283/55/5 284/21/5 288/23/5
f 288/74/6 284/73/6 282/6/6 286/7/6
f 291/73/1 289/6/1 290/7/1 292/74/1
f 290/11/2 289/3/2 293/5/2 294/12/2
f 295/71/3 293/3/3 289/5/3 291/72/3
f 295/70/4 296/69/4 294/1/4 293/2/4
f 295/12/5 291/11/5 292/3/5 296/5/5
f 296/72/6 292/71/6 290/3/6 294/5/6
f 299/36/1 297/1/1 298/7/1 300/38/1
f 298/85/2 297/1/2 301/7/2 302/95/2
f 303/36/3 301/1/3 297/7/3 299/38/3
f 303/38/4 304/36/4 302/1/4 301/7/4
f 303/95/5 299/85/5 300/1/5 304/7/5
f 304/38/6 300/36/6 298/1/6 302/7/6
f 307/87/1 305/2/1 306/6/1 308/93/1
f 306/59/2 305/10/2 309/13/2 310/66/2
f 311/87/3 309/2/3 305/6/3 307/93/3
f 311/93/4 312/87/4 310/2/4 309/6/4
f 311/66/5 307/59/5 308/10/5 312/13/5
f 312/93/6 308/87/6 306/2/6 310/6/6
f 315/71/1 313/3/1 314/5/1 316/72/1
f 314/55/2 313/21/2 317/23/2 318/56/2
f 319/69/3 317/1/3 313/2/3 315/70/3
f 319/72/4 320/71/4 318/3/4 317/5/4
f 319/56/5 315/55/5 316/21/5 320/23/5
f 320/74/6 316/73/6 314/6/6 318/7/6
f 323/69/1 321/1/1 322/2/1 324/70/1
f 322/88/2 321/60/2 325/65/2 326/92/2
f 327/71/3 325/3/3 321/5/3 323/72/3
f 327/74/4 328/73/4 326/6/4 325/7/4
f 327/92/5 323/88/5 324/60/5 328/65/5
f 328/72/6 324/71/6 322/3/6 326/5/6
f 331/87/1 329/2/1 330/6/1 332/93/1
f 330/59/2 329/10/2 333/13/2 334/66/2
f 335/87/3 333/2/3 329/6/3 331/93/3
f 335/93/4 336/87/4 334/2/4 333/6/4
f 335/66/5 331/59/5 332/10/5 336/13/5
f 336/93/6 332/87/6 330/2/6 334/6/6
f 339/71/1 337/3/1 338/5/1 340/72/1
f 338/55/2 337/21/2 341/23/2 342/56/2
f 343/69/3 341/1/3 337/2/3 339/70/3
f 343/72/4 344/71/4 342/3/4 341/5/4
f 343/56/5 339/55/5 340/21/5 344/23/5
f 344/74/6 340/73/6 338/6/6 342/7/6
f 347/69/1 345/1/1 346/2/1 348/70/1
f 346/88/2 345/60/2 349/65/2 350/92/2
f 351/71/3 349/3/3 345/5/3 347/72/3
f 351/74/4 352/73/4 350/6/4 349/7/4
f 351/92/5 347/88/5 348/60/5 352/65/5
f 352/72/6 348/71/6 346/3/6 350/5/6
f 355/87/1 353/2/1 354/6/1 356/93/1
f 354/59/2 353/10/2 357/13/2 358/66/2
f 359/87/3 357/2/3 353/6/3 355/93/3
f 359/93/4 360/87/4 358/2/4 357/6/4
f 359/66/5 355/59/5 356/10/5 360/13/5
f 360/93/6 356/87/6 354/2/6 358/6/6
f 363/71/1 361/3/1 362/5/1 364/72/1
f 362/55/2 361/21/2 365/23/2 366/56/2
f 367/69/3 365/1/3 361/2/3 363/70/3
f 367/72/4 368/71/4 366/3/4 365/5/4
f 367/56/5 363/55/5 364/21/5 368/23/5
f 368/74/6 364/73/6 362/6/6 366/7/6
f 371/69/1 369/1/1 370/2/1 372/70/1
f 370/88/2 369/60/2 373/65/2 374/92/2
f 375/71/3 373/3/3 369/5/3 371/72/3
f 375/74/4 376/73/4 374/6/4 373/7/4
f 375/92/5 371/88/5 372/60/5 376/65/5
f 376/72/6 372/71/6 370/3/6 374/5/6
f 379/36/1 377/1/1 378/7/1 380/38/1
f 378/85/2 377/1/2 381/7/2 382/95/2
f 383/36/3 381/1/3 377/7/3 379/38/3
f 383/38/4 384/36/4 382/1/4 381/7/4
f 383/95/5 379/85/5 380/1/5 384/7/5
f 384/38/6 380/36/6 378/1/6 382/7/6
f 387/87/1 385/2/1 386/6/1 388/93/1
f 386/59/2 385/10/2 389/13/2 390/66/2
f 391/87/3 389/2/3 385/6/3 387/93/3
f 391/93/4 392/87/4 390/2/4 389/6/4
f 391/66/5 387/59/5 388/10/5 392/13/5
f 392/93/6 388/87/6 386/2/6 390/6/6
f 395/71/1 393/3/1 394/5/1 396/72/1
f 394/55/2 393/21/2 397/23/2 398/56/2
f 399/69/3 397/1/3 393/2/3 395/70/3
f 399/72/4 400/71/4 398/3/4 397/5/4
f 399/56/5 395/55/5 396/21/5 400/23/5
f 400/74/6 396/73/6 394/6/6 398/7/6
f 403/69/1 401/1/1 402/2/1 404/70/1
f 402/88/2 401/60/2 405/65/2 406/92/2
f 407/71/3 405/3/3 401/5/3 403/72/3
f 407/74/4 408/73/4 406/6/4 405/7/4
f 407/92/5 403/88/5 404/60/5 408/65/5
f 408/72/6 404/71/6 402/3/6 406/5/6
f 411/87/1 409/2/1 410/6/1 412/93/1
f 410/59/2 409/10/2 413/13/2 414/66/2
f 415/87/3 413/2/3 409/6/3 411/93/3
f 415/93/4 416/87/4 414/2/4 413/6/4
f 415/66/5 411/59/5 412/10/5 416/13/5
f 416/93/6 412/87/6 410/2/6 414/6/6
f 419/71/1 417/3/1 418/5/1 420/72/1
f 418/55/2 417/21/2 421/23/2 422/56/2
f 423/69/3 421/1/3 417/2/3 419/70/3
f 423/72/4 424/71/4 422/3/4 421/5/4
f 423/56/5 419/55/5 420/21/5 424/23/5
f 424/74/6 420/73/6 418/6/6 422/7/6
f 427/69/1 425/1/1 426/2/1 428/70/1
f 426/88/2 425/60/2 429/65/2 430/92/2
f 431/71/3 429/3/3 425/5/3 427/72/3
f 431/74/4 432/73/4 430/6/4 429/7/4
f 431/92/5 427/88/5 428/60/5 432/65/5
f 432/72/6 428/71/6 426/3/6 430/5/6
f 435/87/1 433/2/1 434/6/1 436/93/1
f 434/59/2 433/10/2 437/13/2 438/66/2
f 439/87/3 437/2/3 433/6/3 435/93/3
f 439/93/4 440/87/4 438/2/4 437/6/4
f 439/66/5 435/59/5 436/10/5 440/13/5
f 440/93/6 436/87/6 434/2/6 438/6/6
f 443/71/1 441/3/1 442/5/1 444/72/1
f 442/55/2 441/21/2 445/23/2 446/56/2
f 447/69/3 445/1/3 441/2/3 443/70/3
f 447/72/4 448/71/4 446/3/4 445/5/4
f 447/56/5 443/55/5 444/21/5 448/23/5
f 448/74/6 444/73/6 442/6/6 446/7/6
f 451/69/1 449/1/1 450/2/1 452/70/1
f 450/88/2 449/60/2 453/65/2 454/92/2
f 455/71/3 453/3/3 449/5/3 451/72/3
f 455/74/4 456/73/4 454/6/4 453/7/4
f 455/92/5 451/88/5 452/60/5 456/65/5
f 456/72/6 452/71/6 450/3/6 454/5/6
f 459/87/1 457/2/1 458/6/1 460/93/1
f 458/59/2 457/10/2 461/13/2 462/66/2
f 463/87/3 461/2/3 457/6/3 459/93/3
f 463/93/4 464/87/4 462/2/4 461/6/4
f 463/66/5 459/59/5 460/10/5 464/13/5
f 464/93/6 460/87/6 458/2/6 462/6/6
f 467/71/1 465/3/1 466/5/1 468/72/1
f 466/55/2 465/21/2 469/23/2 470/56/2
f 471/69/3 469/1/3 465/2/3 467/70/3
f 471/72/4 472/71/4 470/3/4 469/5/4
f 471/56/5 467/55/5 468/21/5 472/23/5
f 472/74/6 468/73/6 466/6/6 470/7/6
f 475/69/1 473/1/1 474/2/1 476/70/1
f 474/88/2 473/60/2 477/65/2 478/92/2
f 479/71/3 477/3/3 473/5/3 475/72/3
f 479/74/4 480/73/4 478/6/4 477/7/4
f 479/92/5 475/88/5 476/60/5 480/65/5
f 480/72/6 476/71/6 474/3/6 478/5/6
f 483/87/1 481/2/1 482/6/1 484/93/1
f 482/59/2 481/10/2 485/13/2 486/66/2
f 487/87/3 485/2/3 481/6/3 483/93/3
f 487/93/4 488/87/4 486/2/4 485/6/4
f 487/66/5 483/59/5 484/10/5 488/13/5
f 488/93/6 484/87/6 482/2/6 486/6/6
f 491/71/1 489/3/1 490/5/1 492/72/1
f 490/55/2 489/21/2 493/23/2 494/56/2
f 495/69/3 493/1/3 489/2/3 491/70/3
f 495/72/4 496/71/4 494/3/4 493/5/4
f 495/56/5 491/55/5 492/21/5 496/23/5
f 496/74/6 492/73/6 490/6/6 494/7/6
f 499/69/1 497/1/1 498/2/1 500/70/1
f 498/88/2 497/60/2 501/65/2 502/92/2
f 503/71/3 501/3/3 497/5/3 499/72/3
f 503/74/4 504/73/4 502/6/4 501/7/4
f 503/92/5 499/88/5 500/60/5 504/65/5
f 504/72/6 500/71/6 498/3/6 502/5/6
f 507/36/1 505/1/1 506/7/1 508/38/1
f 506/85/2 505/1/2 509/7/2 510/95/2
f 511/36/3 509/1/3 505/7/3 507/38/3
f 511/38/4 512/36/4 510/1/4 509/7/4
f 511/95/5 507/85/5 508/1/5 512/7/5
f 512/38/6 508/36/6 506/1/6 510/7/6
f 515/85/1 513/36/1 514/38/1 516/95/1
f 514/85/2 513/1/2 517/7/2 518/95/2
f 519/85/3 517/36/3 513/38/3 515/95/3
f 519/95/4 520/85/4 518/36/4 517/38/4
f 519/95/5 515/85/5 516/1/5 520/7/5
f 520/95/6 516/85/6 514/36/6 518/38/6
f 523/85/1 521/36/1 522/38/1 524/95/1
f 522/85/2 521/1/2 525/7/2 526/95/2
f 527/85/3 525/36/3 521/38/3 523/95/3
f 527/95/4 528/85/4 526/36/4 525/38/4
f 527/95/5 523/85/5 524/1/5 528/7/5
f 528/95/6 524/85/6 522/36/6 526/38/6
f 531/37/1 529/4/1 530/7/1 532/38/1
f 530/36/2 529/1/2 533/7/2 534/38/2
f 535/36/3 533/1/3 529/7/3 531/38/3
f 535/37/4 536/36/4 534/1/4 533/4/4
f 536/38/6 532/36/6 530/1/6 534/7/6
f 539/36/1 537/1/1 538/7/1 540/38/1
f 538/85/2 537/1/2 541/7/2 542/95/2
f 543/36/3 541/1/3 537/7/3 539/38/3
f 543/38/4 544/36/4 542/1/4 541/7/4
f 543/95/5 539/85/5 540/1/5 544/7/5
f 544/38/6 540/36/6 538/1/6 542/7/6
f 547/87/1 545/2/1 546/6/1 548/93/1
f 546/59/2 545/10/2 549/13/2 550/66/2
f 551/87/3 549/2/3 545/6/3 547/93/3
f 551/93/4 552/87/4 550/2/4 549/6/4
f 551/66/5 547/59/5 548/10/5 552/13/5
f 552/93/6 548/87/6 546/2/6 550/6/6
f 555/71/1 553/3/1 554/5/1 556/72/1
f 554/55/2 553/21/2 557/23/2 558/56/2
f 559/69/3 557/1/3 553/2/3 555/70/3
f 559/72/4 560/71/4 558/3/4 557/5/4
f 559/56/5 555/55/5 556/21/5 560/23/5
f 560/74/6 556/73/6 554/6/6 558/7/6
f 563/73/1 561/6/1 562/7/1 564/74/1
f 562/11/2 561/3/2 565/5/2 566/12/2
f 567/71/3 565/3/3 561/5/3 563/72/3
f 567/70/4 568/69/4 566/1/4 565/2/4
f 567/12/5 563/11/5 564/3/5 568/5/5
f 568/72/6 564/71/6 562/3/6 566/5/6
f 571/87/1 569/2/1 570/6/1 572/93/1
f 570/59/2 569/10/2 573/13/2 574/66/2
f 575/87/3 573/2/3 569/6/3 571/93/3
f 575/93/4 576/87/4 574/2/4 573/6/4
f 575/66/5 571/59/5 572/10/5 576/13/5
f 576/93/6 572/87/6 570/2/6 574/6/6
f 579/71/1 577/3/1 578/5/1 580/72/1
f 578/55/2 577/21/2 581/23/2 582/56/2
f 583/69/3 581/1/3 577/2/3 579/70/3
f 583/72/4 584/71/4 582/3/4 581/5/4
f 583/56/5 579/55/5 580/21/5 584/23/5
f 584/74/6 580/73/6 578/6/6 582/7/6
f 587/73/1 585/6/1 586/7/1 588/74/1
f 586/11/2 585/3/2 589/5/2 590/12/2
f 591/71/3 589/3/3 585/5/3 587/72/3
f 591/70/4 592/69/4 590/1/4 589/2/4
f 591/12/5 587/11/5 588/3/5 592/5/5
f 592/72/6 588/71/6 586/3/6 590/5/6
f 595/87/1 593/2/1 594/6/1 596/93/1
f 594/59/2 593/10/2 597/13/2 598/66/2
f 599/87/3 597/2/3 593/6/3 595/93/3
f 599/93/4 600/87/4 598/2/4 597/6/4
f 599/66/5 595/59/5 596/10/5 600/13/5
f 600/93/6 596/87/6 594/2/6 598/6/6
f 603/71/1 601/3/1 602/5/1 604/72/1
f 602/55/2 601/21/2 605/23/2 606/56/2
f 607/69/3 605/1/3 601/2/3 603/70/3
f 607/72/4 608/71/4 606/3/4 605/5/4
f 607/56/5 603/55/5 604/21/5 608/23/5
f 608/74/6 604/73/6 602/6/6 606/7/6
f 611/73/1 609/6/1 610/7/1 612/74/1
f 610/11/2 609/3/2 613/5/2 614/12/2
f 615/71/3 613/3/3 609/5/3 611/72/3
f 615/70/4 616/69/4 614/1/4 613/2/4
f 615/12/5 611/11/5 612/3/5 616/5/5
f 616/72/6 612/71/6 610/3/6 614/5/6
f 619/87/1 617/2/1 618/6/1 620/93/1
f 618/59/2 617/10/2 621/13/2 622/66/2
f 623/87/3 621/2/3 617/6/3 619/93/3
f 623/93/4 624/87/4 622/2/4 621/6/4
f 623/66/5 619/59/5 620/10/5 624/13/5
f 624/93/6 620/87/6 618/2/6 622/6/6
f 627/71/1 625/3/1 626/5/1 628/72/1
f 626/55/2 625/21/2 629/23/2 630/56/2
f 631/69/3 629/1/3 625/2/3 627/70/3
f 631/72/4 632/71/4 630/3/4 629/5/4
f 631/56/5 627/55/5 628/21/5 632/23/5
f 632/74/6 628/73/6 626/6/6 630/7/6
f 635/73/1 633/6/1 634/7/1 636/74/1
f 634/11/2 633/3/2 637/5/2 638/12/2
f 639/71/3 637/3/3 633/5/3 635/72/3
f 639/70/4 640/69/4 638/1/4 637/2/4
f 639/12/5 635/11/5 636/3/5 640/5/5
f 640/72/6 636/71/6 634/3/6 638/5/6
f 643/87/1 641/2/1 642/6/1 644/93/1
f 642/59/2 641/10/2 645/13/2 646/66/2
f 647/87/3 645/2/3 641/6/3 643/93/3
f 647/93/4 648/87/4 646/2/4 645/6/4
f 647/66/5 643/59/5 644/10/5 648/13/5
f 648/93/6 644/87/6 642/2/6 646/6/6
f 651/71/1 649/3/1 650/5/1 652/72/1
f 650/55/2 649/21/2 653/23/2 654/56/2
f 655/69/3 653/1/3 649/2/3 651/70/3
f 655/72/4 656/71/4 654/3/4 653/5/4
f 655/56/5 651/55/5 652/21/5 656/23/5
f 656/74/6 652/73/6 650/6/6 654/7/6
f 659/73/1 657/6/1 658/7/1 660/74/1
f 658/11/2 657/3/2 661/5/2 662/12/2
f 663/71/3 661/3/3 657/5/3 659/72/3
f 663/70/4 664/69/4 662/1/4 661/2/4
f 663/12/5 659/11/5 660/3/5 664/5/5
f 664/72/6 660/71/6 658/3/6 662/5/6
f 667/36/1 665/1/1 666/7/1 668/38/1
f 666/85/2 665/1/2 669/7/2 670/95/2
f 671/36/3 669/1/3 665/7/3 667/38/3
f 671/38/4 672/36/4 670/1/4 669/7/4
f 671/95/5 667/85/5 668/1/5 672/7/5
f 672/38/6 668/36/6 666/1/6 670/7/6
f 675/36/1 673/1/1 674/7/1 676/38/1
f 674/85/2 673/1/2 677/7/2 678/95/2
f 679/36/3 677/1/3 673/7/3 675/38/3
f 679/38/4 680/36/4 678/1/4 677/7/4
f 679/95/5 675/85/5 676/1/5 680/7/5
f 680/38/6 676/36/6 674/1/6 678/7/6
f 683/87/1 681/2/1 682/6/1 684/93/1
f 682/59/2 681/10/2 685/13/2 686/66/2
f 687/87/3 685/2/3 681/6/3 683/93/3
f 687/93/4 688/87/4 686/2/4 685/6/4
f 687/66/5 683/59/5 684/10/5 688/13/5
f 688/93/6 684/87/6 682/2/6 686/6/6
f 691/71/1 689/3/1 690/5/1 692/72/1
f 690/55/2 689/21/2 693/23/2 694/56/2
f 695/69/3 693/1/3 689/2/3 691/70/3
f 695/72/4 696/71/4 694/3/4 693/5/4
f 695/56/5 691/55/5 692/21/5 696/23/5
f 696/74/6 692/73/6 690/6/6 694/7/6
f 699/69/1 697/1/1 698/2/1 700/70/1
f 698/88/2 697/60/2 701/65/2 702/92/2
f 703/71/3 701/3/3 697/5/3 699/72/3
f 703/74/4 704/73/4 702/6/4 701/7/4
f 703/92/5 699/88/5 700/60/5 704/65/5
f 704/72/6 700/71/6 698/3/6 702/5/6
f 707/87/1 705/2/1 706/6/1 708/93/1
f 706/59/2 705/10/2 709/13/2 710/66/2
f 711/87/3 709/2/3 705/6/3 707/93/3
f 711/93/4 712/87/4 710/2/4 709/6/4
f 711/66/5 707/59/5 708/10/5 712/13/5
f 712/93/6 708/87/6 706/2/6 710/6/6
f 715/71/1 713/3/1 714/5/1 716/72/1
f 714/55/2 713/21/2 717/23/2 718/56/2
f 719/69/3 717/1/3 713/2/3 715/70/3
f 719/72/4 720/71/4 718/3/4 717/5/4
f 719/56/5 715/55/5 716/21/5 720/23/5
f 720/74/6 716/73/6 714/6/6 718/7/6
f 723/69/1 721/1/1 722/2/1 724/70/1
f 722/88/2 721/60/2 725/65/2 726/92/2
f 727/71/3 725/3/3 721/5/3 723/72/3
f 727/74/4 728/73/4 726/6/4 725/7/4
f 727/92/5 723/88/5 724/60/5 728/65/5
f 728/72/6 724/71/6 722/3/6 726/5/6
f 731/87/1 729/2/1 730/6/1 732/93/1
f 730/59/2 729/10/2 733/13/2 734/66/2
f 735/87/3 733/2/3 729/6/3 731/93/3
f 735/93/4 736/87/4 734/2/4 733/6/4
f 735/66/5 731/59/5 732/10/5 736/13/5
f 736/93/6 732/87/6 730/2/6 734/6/6
f 739/71/1 737/3/1 738/5/1 740/72/1
f 738/55/2 737/21/2 741/23/2 742/56/2
f 743/69/3 741/1/3 737/2/3 739/70/3
f 743/72/4 744/71/4 742/3/4 741/5/4
f 743/56/5 739/55/5 740/21/5 744/23/5
f 744/74/6 740/73/6 738/6/6 742/7/6
f 747/69/1 745/1/1 746/2/1 748/70/1
f 746/88/2 745/60/2 749/65/2 750/92/2
f 751/71/3 749/3/3 745/5/3 747/72/3
f 751/74/4 752/73/4 750/6/4 749/7/4
f 751/92/5 747/88/5 748/60/5 752/65/5
f 752/72/6 748/71/6 746/3/6 750/5/6
f 755/87/1 753/2/1 754/6/1 756/93/1
f 754/59/2 753/10/2 757/13/2 758/66/2
f 759/87/3 757/2/3 753/6/3 755/93/3
f 759/93/4 760/87/4 758/2/4 757/6/4
f 759/66/5 755/59/5 756/10/5 760/13/5
f 760/93/6 756/87/6 754/2/6 758/6/6
f 763/71/1 761/3/1 762/5/1 764/72/1
f 762/55/2 761/21/2 765/23/2 766/56/2
f 767/69/3 765/1/3 761/2/3 763/70/3
f 767/72/4 768/71/4 766/3/4 765/5/4
f 767/56/5 763/55/5 764/21/5 768/23/5
f 768/74/6 764/73/6 762/6/6 766/7/6
f 771/69/1 769/1/1 770/2/1 772/70/1
f 770/88/2 769/60/2 773/65/2 774/92/2
f 775/71/3 773/3/3 769/5/3 771/72/3
f 775/74/4 776/73/4 774/6/4 773/7/4
f 775/92/5 771/88/5 772/60/5 776/65/5
f 776/72/6 772/71/6 770/3/6 774/5/6
f 779/87/1 777/2/1 778/6/1 780/93/1
f 778/59/2 777/10/2 781/13/2 782/66/2
f 783/87/3 781/2/3 777/6/3 779/93/3
f 783/93/4 784/87/4 782/2/4 781/6/4
f 783/66/5 779/59/5 780/10/5 784/13/5
f 784/93/6 780/87/6 778/2/6 782/6/6
f 787/71/1 785/3/1 786/5/1 788/72/1
f 786/55/2 785/21/2 789/23/2 790/56/2
f 791/69/3 789/1/3 785/2/3 787/70/3
f 791/72/4 792/71/4 790/3/4 789/5/4
f 791/56/5 787/55/5 788/21/5 792/23/5
f 792/74/6 788/73/6 786/6/6 790/7/6
f 795/69/1 793/1/1 794/2/1 796/70/1
f 794/88/2 793/60/2 797/65/2 798/92/2
f 799/71/3 797/3/3 793/5/3 795/72/3
f 799/74/4 800/73/4 798/6/4 797/7/4
f 799/92/5 795/88/5 796/60/5 800/65/5
f 800/72/6 796/71/6 794/3/6 798/5/6
f 803/36/1 801/1/1 802/7/1 804/38/1
f 802/85/2 801/1/2 805/7/2 806/95/2
f 807/36/3 805/1/3 801/7/3 803/38/3
f 807/38/4 808/36/4 806/1/4 805/7/4
f 807/95/5 803/85/5 804/1/5 808/7/5
f 808/38/6 804/36/6 802/1/6 806/7/6
f 811/85/1 809/36/1 810/38/1 812/95/1
f 810/85/2 809/1/2 813/7/2 814/95/2
f 815/85/3 813/36/3 809/38/3 811/95/3
f 815/95/4 816/85/4 814/36/4 813/38/4
f 815/95/5 811/85/5 812/1/5 816/7/5
f 816/95/6 812/85/6 810/36/6 814/38/6
f 819/36/1 817/1/1 818/4/1 820/37/1
f 818/85/2 817/36/2 821/38/2 822/95/2
f 823/36/3 821/1/3 817/7/3 819/38/3
f 823/38/4 824/37/4 822/4/4 821/7/4
f 824/38/6 820/36/6 818/1/6 822/7/6
f 827/85/1 825/36/1 826/38/1 828/95/1
f 826/85/2 825/1/2 829/7/2 830/95/2
f 831/85/3 829/36/3 825/38/3 827/95/3
f 831/95/4 832/85/4 830/36/4 829/38/4
f 831/95/5 827/85/5 828/1/5 832/7/5
f 832/95/6 828/85/6 826/36/6 830/38/6
f 835/36/1 833/1/1 834/7/1 836/38/1
f 834/85/2 833/1/2 837/7/2 838/95/2
f 839/36/3 837/1/3 833/7/3 835/38/3
f 839/38/4 840/36/4 838/1/4 837/7/4
f 839/95/5 835/85/5 836/1/5 840/7/5
f 840/38/6 836/36/6 834/1/6 838/7/6
f 843/36/1 841/1/1 842/7/1 844/38/1
f 842/85/2 841/1/2 845/7/2 846/95/2
f 847/36/3 845/1/3 841/7/3 843/38/3
f 847/38/4 848/36/4 846/1/4 845/7/4
f 847/95/5 843/85/5 844/1/5 848/7/5
f 848/38/6 844/36/6 842/1/6 846/7/6
f 851/85/1 849/36/1 850/38/1 852/95/1
f 850/85/2 849/1/2 853/7/2 854/95/2
f 855/85/3 853/36/3 849/38/3 851/95/3
f 855/95/4 856/85/4 854/36/4 853/38/4
f 855/95/5 851/85/5 852/1/5 856/7/5
f 856/95/6 852/85/6 850/36/6 854/38/6
f 859/85/1 857/36/1 858/38/1 860/95/1
f 858/85/2 857/1/2 861/7/2 862/95/2
f 863/85/3 861/36/3 857/38/3 859/95/3
f 863/95/4 864/85/4 862/36/4 861/38/4
f 863/95/5 859/85/5 860/1/5 864/7/5
f 864/95/6 860/85/6 858/36/6 862/38/6
f 867/37/1 865/4/1 866/7/1 868/38/1
f 866/36/2 865/1/2 869/7/2 870/38/2
f 871/36/3 869/1/3 865/7/3 867/38/3
f 871/37/4 872/36/4 870/1/4 869/4/4
f 872/38/6 868/36/6 866/1/6 870/7/6
f 875/89/1 873/18/1 874/19/1 876/91/1
f 874/39/2 873/32/2 877/33/2 878/41/2
f 879/93/3 877/21/3 873/23/3 875/95/3
f 879/91/4 880/89/4 878/18/4 877/19/4
f 879/41/5 875/39/5 876/32/5 880/33/5
f 880/87/6 876/85/6 874/14/6 878/16/6
f 883/89/1 881/18/1 882/19/1 884/91/1
f 882/48/2 881/34/2 885/35/2 886/50/2
f 887/85/3 885/14/3 881/16/3 883/87/3
f 887/91/4 888/89/4 886/18/4 885/19/4
f 887/50/5 883/48/5 884/34/5 888/35/5
f 888/95/6 884/93/6 882/21/6 886/23/6
f 891/45/1 889/28/1 890/31/1 892/50/1
f 890/32/2 889/1/2 893/2/2 894/33/2
f 895/44/4 896/39/4 894/24/4 893/27/4
f 895/33/5 891/32/5 892/1/5 896/2/5
f 896/41/6 892/39/6 890/24/6 894/26/6
f 899/81/1 897/63/1 898/68/1 900/84/1
f 898/32/2 897/1/2 901/2/2 902/33/2
f 903/80/4 904/77/4 902/57/4 901/62/4
f 903/33/5 899/32/5 900/1/5 904/2/5
f 904/79/6 900/77/6 898/57/6 902/59/6
f 907/45/1 905/28/1 906/31/1 908/50/1
f 906/34/2 905/6/2 909/7/2 910/35/2
f 911/44/4 912/39/4 910/24/4 909/27/4
f 911/35/5 907/34/5 908/6/5 912/7/5
f 912/50/6 908/48/6 906/29/6 910/31/6
f 915/81/1 913/63/1 914/68/1 916/84/1
f 914/34/2 913/6/2 917/7/2 918/35/2
f 919/80/4 920/77/4 918/57/4 917/62/4
f 919/35/5 915/34/5 916/6/5 920/7/5
f 920/84/6 916/82/6 914/66/6 918/68/6
f 923/67/1 921/49/1 922/50/1 924/68/1
f 927/66/3 925/48/3 921/50/3 923/68/3
f 927/58/4 928/57/4 926/39/4 925/40/4
f 928/59/6 924/57/6 922/39/6 926/41/6
f 931/67/1 929/49/1 930/50/1 932/68/1
f 935/57/3 933/39/3 929/41/3 931/59/3
f 935/58/4 936/57/4 934/39/4 933/40/4
f 936/68/6 932/66/6 930/48/6 934/50/6
f 939/89/1 937/18/1 938/19/1 940/91/1
f 938/39/2 937/32/2 941/33/2 942/41/2
f 943/93/3 941/21/3 937/23/3 939/95/3
f 943/91/4 944/89/4 942/18/4 941/19/4
f 943/41/5 939/39/5 940/32/5 944/33/5
f 944/87/6 940/85/6 938/14/6 942/16/6
f 947/89/1 945/18/1 946/19/1 948/91/1
f 946/48/2 945/34/2 949/35/2 950/50/2
f 951/85/3 949/14/3 945/16/3 947/87/3
f 951/91/4 952/89/4 950/18/4 949/19/4
f 951/50/5 947/48/5 948/34/5 952/35/5
f 952/95/6 948/93/6 946/21/6 950/23/6
f 955/45/1 953/28/1 954/31/1 956/50/1
f 954/32/2 953/1/2 957/2/2 958/33/2
f 959/44/4 960/39/4 958/24/4 957/27/4
f 959/33/5 955/32/5 956/1/5 960/2/5
f 960/41/6 956/39/6 954/24/6 958/26/6
f 963/81/1 961/63/1 962/68/1 964/84/1
f 962/32/2 961/1/2 965/2/2 966/33/2
f 967/80/4 968/77/4 966/57/4 965/62/4
f 967/33/5 963/32/5 964/1/5 968/2/5
f 968/79/6 964/77/6 962/57/6 966/59/6
f 971/45/1 969/28/1 970/31/1 972/50/1
f 970/34/2 969/6/2 973/7/2 974/35/2
f 975/44/4 976/39/4 974/24/4 973/27/4
f 975/35/5 971/34/5 972/6/5 976/7/5
f 976/50/6 972/48/6 970/29/6 974/31/6
f 979/81/1 977/63/1 978/68/1 980/84/1
f 978/34/2 977/6/2 981/7/2 982/35/2
f 983/80/4 984/77/4 982/57/4 981/62/4
f 983/35/5 979/34/5 980/6/5 984/7/5
f 984/84/6 980/82/6 978/66/6 982/68/6
f 987/67/1 985/49/1 986/50/1 988/68/1
f 991/66/3 989/48/3 985/50/3 987/68/3
f 991/58/4 992/57/4 990/39/4 989/40/4
f 992/59/6 988/57/6 986/39/6 990/41/6
f 995/67/1 993/49/1 994/50/1 996/68/1
f 999/57/3 997/39/3 993/41/3 995/59/3
f 999/58/4 1000/57/4 998/39/4 997/40/4
f 1000/68/6 996/66/6 994/48/6 998/50/6
f 1003/36/1 1001/1/1 1002/7/1 1004/38/1
f 1002/85/2 1001/1/2 1005/7/2 1006/95/2
f 1007/36/3 1005/1/3 1001/7/3 1003/38/3
f 1007/38/4 1008/36/4 1006/1/4 1005/7/4
f 1007/95/5 1003/85/5 1004/1/5 1008/7/5
f 1008/38/6 1004/36/6 1002/1/6 1006/7/6
f 1010/51/2 1009/24/2 1013/31/2 1014/52/2
f 1015/95/3 1013/74/3 1009/69/3 1011/85/3
f 1015/52/5 1011/51/5 1012/24/5 1016/31/5
f 1016/95/6 1012/85/6 1010/69/6 1014/74/6
f 1019/87/1 1017/2/1 1018/6/1 1020/93/1
f 1018/59/2 1017/10/2 1021/13/2 1022/66/2
f 1023/87/3 1021/2/3 1017/6/3 1019/93/3
f 1023/93/4 1024/87/4 1022/2/4 1021/6/4
f 1023/66/5 1019/59/5 1020/10/5 1024/13/5
f 1024/93/6 1020/87/6 1018/2/6 1022/6/6
f 1027/89/1 1025/18/1 1026/19/1 1028/91/1
f 1026/39/2 1025/32/2 1029/33/2 1030/41/2
f 1031/93/3 1029/21/3 1025/23/3 1027/95/3
f 1031/91/4 1032/89/4 1030/18/4 1029/19/4
f 1031/41/5 1027/39/5 1028/32/5 1032/33/5
f 1032/87/6 1028/85/6 1026/14/6 1030/16/6
f 1035/89/1 1033/18/1 1034/19/1 1036/91/1
f 1034/48/2 1033/34/2 1037/35/2 1038/50/2
f 1039/85/3 1037/14/3 1033/16/3 1035/87/3
f 1039/91/4 1040/89/4 1038/18/4 1037/19/4
f 1039/50/5 1035/48/5 1036/34/5 1040/35/5
f 1040/95/6 1036/93/6 1034/21/6 1038/23/6
f 1043/39/1 1041/24/1 1042/27/1 1044/44/1
f 1042/85/2 1041/39/2 1045/41/2 1046/87/2
f 1047/48/3 1045/29/3 1041/31/3 1043/50/3
f 1047/50/4 1048/45/4 1046/28/4 1045/31/4
f 1047/87/5 1043/85/5 1044/39/5 1048/41/5
f 1051/77/1 1049/57/1 1050/62/1 1052/80/1
f 1050/85/2 1049/39/2 1053/41/2 1054/87/2
f 1055/82/3 1053/66/3 1049/68/3 1051/84/3
f 1055/84/4 1056/81/4 1054/63/4 1053/68/4
f 1055/87/5 1051/85/5 1052/39/5 1056/41/5
f 1059/39/1 1057/24/1 1058/27/1 1060/44/1
f 1058/93/2 1057/48/2 1061/50/2 1062/95/2
f 1063/39/3 1061/24/3 1057/26/3 1059/41/3
f 1063/50/4 1064/45/4 1062/28/4 1061/31/4
f 1063/95/5 1059/93/5 1060/48/5 1064/50/5
f 1067/77/1 1065/57/1 1066/62/1 1068/80/1
f 1066/93/2 1065/48/2 1069/50/2 1070/95/2
f 1071/77/3 1069/57/3 1065/59/3 1067/79/3
f 1071/84/4 1072/81/4 1070/63/4 1069/68/4
f 1071/95/5 1067/93/5 1068/48/5 1072/50/5
f 1075/57/1 1073/39/1 1074/40/1 1076/58/1
f 1079/66/3 1077/48/3 1073/50/3 1075/68/3
f 1079/68/4 1080/67/4 1078/49/4 1077/50/4
f 1080/59/6 1076/57/6 1074/39/6 1078/41/6
f 1083/57/1 1081/39/1 1082/40/1 1084/58/1
f 1087/57/3 1085/39/3 1081/41/3 1083/59/3
f 1087/68/4 1088/67/4 1086/49/4 1085/50/4
f 1088/68/6 1084/66/6 1082/48/6 1086/50/6
f 1091/89/1 1089/18/1 1090/19/1 1092/91/1
f 1090/39/2 1089/32/2 1093/33/2 1094/41/2
f 1095/93/3 1093/21/3 1089/23/3 1091/95/3
f 1095/91/4 1096/89/4 1094/18/4 1093/19/4
f 1095/41/5 1091/39/5 1092/32/5 1096/33/5
f 1096/87/6 1092/85/6 1090/14/6 1094/16/6
f 1099/89/1 1097/18/1 1098/19/1 1100/91/1
f 1098/48/2 1097/34/2 1101/35/2 1102/50/2
f 1103/85/3 1101/14/3 1097/16/3 1099/87/3
f 1103/91/4 1104/89/4 1102/18/4 1101/19/4
f 1103/50/5 1099/48/5 1100/34/5 1104/35/5
f 1104/95/6 1100/93/6 1098/21/6 1102/23/6
f 1107/39/1 1105/24/1 1106/27/1 1108/44/1
f 1106/85/2 1105/39/2 1109/41/2 1110/87/2
f 1111/48/3 1109/29/3 1105/31/3 1107/50/3
f 1111/50/4 1112/45/4 1110/28/4 1109/31/4
f 1111/87/5 1107/85/5 1108/39/5 1112/41/5
f 1115/77/1 1113/57/1 1114/62/1 1116/80/1
f 1114/85/2 1113/39/2 1117/41/2 1118/87/2
f 1119/82/3 1117/66/3 1113/68/3 1115/84/3
f 1119/84/4 1120/81/4 1118/63/4 1117/68/4
f 1119/87/5 1115/85/5 1116/39/5 1120/41/5
f 1123/39/1 1121/24/1 1122/27/1 1124/44/1
f 1122/93/2 1121/48/2 1125/50/2 1126/95/2
f 1127/39/3 1125/24/3 1121/26/3 1123/41/3
f 1127/50/4 1128/45/4 1126/28/4 1125/31/4
f 1127/95/5 1123/93/5 1124/48/5 1128/50/5
f 1131/77/1 1129/57/1 1130/62/1 1132/80/1
f 1130/93/2 1129/48/2 1133/50/2 1134/95/2
f 1135/77/3 1133/57/3 1129/59/3 1131/79/3
f 1135/84/4 1136/81/4 1134/63/4 1133/68/4
f 1135/95/5 1131/93/5 1132/48/5 1136/50/5
f 1139/57/1 1137/39/1 1138/40/1 1140/58/1
f 1143/66/3 1141/48/3 1137/50/3 1139/68/3
f 1143/68/4 1144/67/4 1142/49/4 1141/50/4
f 1144/59/6 1140/57/6 1138/39/6 1142/41/6
f 1147/57/1 1145/39/1 1146/40/1 1148/58/1
f 1151/57/3 1149/39/3 1145/41/3 1147/59/3
f 1151/68/4 1152/67/4 1150/49/4 1149/50/4
f 1152/68/6 1148/66/6 1146/48/6 1150/50/6
f 1155/89/1 1153/18/1 1154/19/1 1156/91/1
f 1154/39/2 1153/32/2 1157/33/2 1158/41/2
f 1159/93/3 1157/21/3 1153/23/3 1155/95/3
f 1159/91/4 1160/89/4 1158/18/4 1157/19/4
f 1159/41/5 1155/39/5 1156/32/5 1160/33/5
f 1160/87/6 1156/85/6 1154/14/6 1158/16/6
f 1163/89/1 1161/18/1 1162/19/1 1164/91/1
f 1162/48/2 1161/34/2 1165/35/2 1166/50/2
f 1167/85/3 1165/14/3 1161/16/3 1163/87/3
f 1167/91/4 1168/89/4 1166/18/4 1165/19/4
f 1167/50/5 1163/48/5 1164/34/5 1168/35/5
f 1168/95/6 1164/93/6 1162/21/6 1166/23/6
f 1171/39/1 1169/24/1 1170/27/1 1172/44/1
f 1170/85/2 1169/39/2 1173/41/2 1174/87/2
f 1175/48/3 1173/29/3 1169/31/3 1171/50/3
f 1175/50/4 1176/45/4 1174/28/4 1173/31/4
f 1175/87/5 1171/85/5 1172/39/5 1176/41/5
f 1179/77/1 1177/57/1 1178/62/1 1180/80/1
f 1178/85/2 1177/39/2 1181/41/2 1182/87/2
f 1183/82/3 1181/66/3 1177/68/3 1179/84/3
f 1183/84/4 1184/81/4 1182/63/4 1181/68/4
f 1183/87/5 1179/85/5 1180/39/5 1184/41/5
f 1187/39/1 1185/24/1 1186/27/1 1188/44/1
f 1186/93/2 1185/48/2 1189/50/2 1190/95/2
f 1191/39/3 1189/24/3 1185/26/3 1187/41/3
f 1191/50/4 1192/45/4 1190/28/4 1189/31/4
f 1191/95/5 1187/93/5 1188/48/5 1192/50/5
f 1195/77/1 1193/57/1 1194/62/1 1196/80/1
f 1194/93/2 1193/48/2 1197/50/2 1198/95/2
f 1199/77/3 1197/57/3 1193/59/3 1195/79/3
f 1199/84/4 1200/81/4 1198/63/4 1197/68/4
f 1199/95/5 1195/93/5 1196/48/5 1200/50/5
f 1203/57/1 1201/39/1 1202/40/1 1204/58/1
f 1207/66/3 1205/48/3 1201/50/3 1203/68/3
f 1207/68/4 1208/67/4 1206/49/4 1205/50/4
f 1208/59/6 1204/57/6 1202/39/6 1206/41/6
f 1211/57/1 1209/39/1 1210/40/1 1212/58/1
f 1215/57/3 1213/39/3 1209/41/3 1211/59/3
f 1215/68/4 1216/67/4 1214/49/4 1213/50/4
f 1216/68/6 1212/66/6 1210/48/6 1214/50/6
f 1219/36/1 1217/1/1 1218/7/1 1220/38/1
f 1218/85/2 1217/1/2 1221/7/2 1222/95/2
f 1223/36/3 1221/1/3 1217/7/3 1219/38/3
f 1223/38/4 1224/36/4 1222/1/4 1221/7/4
f 1223/95/5 1219/85/5 1220/1/5 1224/7/5
f 1224/38/6 1220/36/6 1218/1/6 1222/7/6
f 1227/85/1 1225/36/1 1226/38/1 1228/95/1
f 1226/85/2 1225/1/2 1229/7/2 1230/95/2
f 1231/85/3 1229/36/3 1225/38/3 1227/95/3
f 1231/95/4 1232/85/4 1230/36/4 1229/38/4
f 1231/95/5 1227/85/5 1228/1/5 1232/7/5
f 1232/95/6 1228/85/6 1226/36/6 1230/38/6
f 1235/36/1 1233/1/1 1234/4/1 1236/37/1
f 1234/85/2 1233/36/2 1237/38/2 1238/95/2
f 1239/36/3 1237/1/3 1233/7/3 1235/38/3
f 1239/38/4 1240/37/4 1238/4/4 1237/7/4
f 1240/38/6 1236/36/6 1234/1/6 1238/7/6
f 1243/85/1 1241/36/1 1242/38/1 1244/95/1
f 1242/85/2 1241/1/2 1245/7/2 1246/95/2
f 1247/85/3 1245/36/3 1241/38/3 1243/95/3
f 1247/95/4 1248/85/4 1246/36/4 1245/38/4
f 1247/95/5 1243/85/5 1244/1/5 1248/7/5
f 1248/95/6 1244/85/6 1242/36/6 1246/38/6
f 1251/36/1 1249/1/1 1250/7/1 1252/38/1
f 1250/85/2 1249/1/2 1253/7/2 1254/95/2
f 1255/36/3 1253/1/3 1249/7/3 1251/38/3
f 1255/38/4 1256/36/4 1254/1/4 1253/7/4
f 1255/95/5 1251/85/5 1252/1/5 1256/7/5
f 1256/38/6 1252/36/6 1250/1/6 1254/7/6
f 1259/85/1 1257/14/1 1258/15/1 1260/86/1
f 1258/88/2 1257/75/2 1261/76/2 1262/92/2
f 1263/88/3 1261/17/3 1257/20/3 1259/92/3
f 1263/95/4 1264/94/4 1262/22/4 1261/23/4
f 1263/92/5 1259/88/5 1260/75/5 1264/76/5
f 1264/92/6 1260/88/6 1258/17/6 1262/20/6
f 1267/94/1 1265/22/1 1266/23/1 1268/95/1
f 1266/8/2 1265/3/2 1269/5/2 1270/9/2
f 1271/88/3 1269/17/3 1265/20/3 1267/92/3
f 1271/86/4 1272/85/4 1270/14/4 1269/15/4
f 1271/9/5 1267/8/5 1268/3/5 1272/5/5
f 1272/92/6 1268/88/6 1266/17/6 1270/20/6
f 1275/40/1 1273/25/1 1274/30/1 1276/49/1
f 1274/75/2 1273/8/2 1277/9/2 1278/76/2
f 1279/49/4 1280/40/4 1278/25/4 1277/30/4
f 1279/76/5 1275/75/5 1276/8/5 1280/9/5
f 1283/78/1 1281/58/1 1282/67/1 1284/83/1
f 1282/75/2 1281/8/2 1285/9/2 1286/76/2
f 1287/83/4 1288/78/4 1286/58/4 1285/67/4
f 1287/76/5 1283/75/5 1284/8/5 1288/9/5
f 1291/61/1 1289/43/1 1290/46/1 1292/64/1
f 1295/60/3 1293/42/3 1289/47/3 1291/65/3
f 1295/64/4 1296/61/4 1294/43/4 1293/46/4
f 1296/65/6 1292/60/6 1290/42/6 1294/47/6
f 1299/36/1 1297/1/1 1298/7/1 1300/38/1
f 1298/85/2 1297/1/2 1301/7/2 1302/95/2
f 1303/36/3 1301/1/3 1297/7/3 1299/38/3
f 1303/38/4 1304/36/4 1302/1/4 1301/7/4
f 1303/95/5 1299/85/5 1300/1/5 1304/7/5
f 1304/38/6 1300/36/6 1298/1/6 1302/7/6
f 1307/85/1 1305/36/1 1306/38/1 1308/95/1
f 1306/85/2 1305/1/2 1309/7/2 1310/95/2
f 1311/85/3 1309/36/3 1305/38/3 1307/95/3
f 1311/95/4 1312/85/4 1310/36/4 1309/38/4
f 1311/95/5 1307/85/5 1308/1/5 1312/7/5
f 1312/95/6 1308/85/6 1306/36/6 1310/38/6
f 1315/85/1 1313/36/1 1314/38/1 1316/95/1
f 1314/85/2 1313/1/2 1317/7/2 1318/95/2
f 1319/85/3 1317/36/3 1313/38/3 1315/95/3
f 1319/95/4 1320/85/4 1318/36/4 1317/38/4
f 1319/95/5 1315/85/5 1316/1/5 1320/7/5
f 1320/95/6 1316/85/6 1314/36/6 1318/38/6
f 1323/37/1 1321/4/1 1322/7/1 1324/38/1
f 1322/36/2 1321/1/2 1325/7/2 1326/38/2
f 1327/36/3 1325/1/3 1321/7/3 1323/38/3
f 1327/37/4 1328/36/4 1326/1/4 1325/4/4
f 1328/38/6 1324/36/6 1322/1/6 1326/7/6
f 1331/36/1 1329/1/1 1330/7/1 1332/38/1
f 1330/85/2 1329/1/2 1333/7/2 1334/95/2
f 1335/36/3 1333/1/3 1329/7/3 1331/38/3
f 1335/38/4 1336/36/4 1334/1/4 1333/7/4
f 1335/95/5 1331/85/5 1332/1/5 1336/7/5
f 1336/38/6 1332/36/6 1330/1/6 1334/7/6
f 1339/87/1 1337/2/1 1338/6/1 1340/93/1
f 1338/59/2 1337/10/2 1341/13/2 1342/66/2
f 1343/87/3 1341/2/3 1337/6/3 1339/93/3
f 1343/93/4 1344/87/4 1342/2/4 1341/6/4
f 1343/66/5 1339/59/5 1340/10/5 1344/13/5
f 1344/93/6 1340/87/6 1338/2/6 1342/6/6
f 1347/71/1 1345/3/1 1346/5/1 1348/72/1
f 1346/53/2 1345/14/2 1349/16/2 1350/54/2
f 1351/73/3 1349/6/3 1345/7/3 1347/74/3
f 1351/72/4 1352/71/4 1350/3/4 1349/5/4
f 1351/54/5 1347/53/5 1348/14/5 1352/16/5
f 1352/70/6 1348/69/6 1346/1/6 1350/2/6
f 1355/73/1 1353/6/1 1354/7/1 1356/74/1
f 1354/11/2 1353/3/2 1357/5/2 1358/12/2
f 1359/71/3 1357/3/3 1353/5/3 1355/72/3
f 1359/70/4 1360/69/4 1358/1/4 1357/2/4
f 1359/12/5 1355/11/5 1356/3/5 1360/5/5
f 1360/72/6 1356/71/6 1354/3/6 1358/5/6
f 1363/87/1 1361/2/1 1362/6/1 1364/93/1
f 1362/59/2 1361/10/2 1365/13/2 1366/66/2
f 1367/87/3 1365/2/3 1361/6/3 1363/93/3
f 1367/93/4 1368/87/4 1366/2/4 1365/6/4
f 1367/66/5 1363/59/5 1364/10/5 1368/13/5
f 1368/93/6 1364/87/6 1362/2/6 1366/6/6
f 1371/71/1 1369/3/1 1370/5/1 1372/72/1
f 1370/53/2 1369/14/2 1373/16/2 1374/54/2
f 1375/73/3 1373/6/3 1369/7/3 1371/74/3
f 1375/72/4 1376/71/4 1374/3/4 1373/5/4
f 1375/54/5 1371/53/5 1372/14/5 1376/16/5
f 1376/70/6 1372/69/6 1370/1/6 1374/2/6
f 1379/73/1 1377/6/1 1378/7/1 1380/74/1
f 1378/11/2 1377/3/2 1381/5/2 1382/12/2
f 1383/71/3 1381/3/3 1377/5/3 1379/72/3
f 1383/70/4 1384/69/4 1382/1/4 1381/2/4
f 1383/12/5 1379/11/5 1380/3/5 1384/5/5
f 1384/72/6 1380/71/6 1378/3/6 1382/5/6
f 1387/87/1 1385/2/1 1386/6/1 1388/93/1
f 1386/59/2 1385/10/2 1389/13/2 1390/66/2
f 1391/87/3 1389/2/3 1385/6/3 1387/93/3
f 1391/93/4 1392/87/4 1390/2/4 1389/6/4
f 1391/66/5 1387/59/5 1388/10/5 1392/13/5
f 1392/93/6 1388/87/6 1386/2/6 1390/6/6
f 1395/71/1 1393/3/1 1394/5/1 1396/72/1
f 1394/53/2 1393/14/2 1397/16/2 1398/54/2
f 1399/73/3 1397/6/3 1393/7/3 1395/74/3
f 1399/72/4 1400/71/4 1398/3/4 1397/5/4
f 1399/54/5 1395/53/5 1396/14/5 1400/16/5
f 1400/70/6 1396/69/6 1394/1/6 1398/2/6
f 1403/73/1 1401/6/1 1402/7/1 1404/74/1
f 1402/11/2 1401/3/2 1405/5/2 1406/12/2
f 1407/71/3 1405/3/3 1401/5/3 1403/72/3
f 1407/70/4 1408/69/4 1406/1/4 1405/2/4
f 1407/12/5 1403/11/5 1404/3/5 1408/5/5
f 1408/72/6 1404/71/6 1402/3/6 1406/5/6
f 1411/87/1 1409/2/1 1410/6/1 1412/93/1
f 1410/59/2 1409/10/2 1413/13/2 1414/66/2
f 1415/87/3 1413/2/3 1409/6/3 1411/93/3
f 1415/93/4 1416/87/4 1414/2/4 1413/6/4
f 1415/66/5 1411/59/5 1412/10/5 1416/13/5
f 1416/93/6 1412/87/6 1410/2/6 1414/6/6
f 1419/71/1 1417/3/1 1418/5/1 1420/72/1
f 1418/53/2 1417/14/2 1421/16/2 1422/54/2
f 1423/73/3 1421/6/3 1417/7/3 1419/74/3
f 1423/72/4 1424/71/4 1422/3/4 1421/5/4
f 1423/54/5 1419/53/5 1420/14/5 1424/16/5
f 1424/70/6 1420/69/6 1418/1/6 1422/2/6
f 1427/73/1 1425/6/1 1426/7/1 1428/74/1
f 1426/11/2 1425/3/2 1429/5/2 1430/12/2
f 1431/71/3 1429/3/3 1425/5/3 1427/72/3
f 1431/70/4 1432/69/4 1430/1/4 1429/2/4
f 1431/12/5 1427/11/5 1428/3/5 1432/5/5
f 1432/72/6 1428/71/6 1426/3/6 1430/5/6
f 1435/87/1 1433/2/1 1434/6/1 1436/93/1
f 1434/59/2 1433/10/2 1437/13/2 1438/66/2
f 1439/87/3 1437/2/3 1433/6/3 1435/93/3
f 1439/93/4 1440/87/4 1438/2/4 1437/6/4
f 1439/66/5 1435/59/5 1436/10/5 1440/13/5
f 1440/93/6 1436/87/6 1434/2/6 1438/6/6
f 1443/71/1 1441/3/1 1442/5/1 1444/72/1
f 1442/53/2 1441/14/2 1445/16/2 1446/54/2
f 1447/73/3 1445/6/3 1441/7/3 1443/74/3
f 1447/72/4 1448/71/4 1446/3/4 1445/5/4
f 1447/54/5 1443/53/5 1444/14/5 1448/16/5
f 1448/70/6 1444/69/6 1442/1/6 1446/2/6
f 1451/73/1 1449/6/1 1450/7/1 1452/74/1
f 1450/11/2 1449/3/2 1453/5/2 1454/12/2
f 1455/71/3 1453/3/3 1449/5/3 1451/72/3
f 1455/70/4 1456/69/4 1454/1/4 1453/2/4
f 1455/12/5 1451/11/5 1452/3/5 1456/5/5
f 1456/72/6 1452/71/6 1450/3/6 1454/5/6
f 1459/36/1 1457/1/1 1458/7/1 1460/38/1
f 1458/85/2 1457/1/2 1461/7/2 1462/95/2
f 1463/36/3 1461/1/3 1457/7/3 1459/38/3
f 1463/38/4 1464/36/4 1462/1/4 1461/7/4
f 1463/95/5 1459/85/5 1460/1/5 1464/7/5
f 1464/38/6 1460/36/6 1458/1/6 1462/7/6
f 1467/36/1 1465/1/1 1466/7/1 1468/38/1
f 1466/85/2 1465/1/2 1469/7/2 1470/95/2
f 1471/36/3 1469/1/3 1465/7/3 1467/38/3
f 1471/38/4 1472/36/4 1470/1/4 1469/7/4
f 1471/95/5 1467/85/5 1468/1/5 1472/7/5
f 1472/38/6 1468/36/6 1466/1/6 1470/7/6
f 1475/87/1 1473/2/1 1474/6/1 1476/93/1
f 1474/59/2 1473/10/2 1477/13/2 1478/66/2
f 1479/87/3 1477/2/3 1473/6/3 1475/93/3
f 1479/93/4 1480/87/4 1478/2/4 1477/6/4
f 1479/66/5 1475/59/5 1476/10/5 1480/13/5
f 1480/93/6 1476/87/6 1474/2/6 1478/6/6
f 1483/71/1 1481/3/1 1482/5/1 1484/72/1
f 1482/53/2 1481/14/2 1485/16/2 1486/54/2
f 1487/73/3 1485/6/3 1481/7/3 1483/74/3
f 1487/72/4 1488/71/4 1486/3/4 1485/5/4
f 1487/54/5 1483/53/5 1484/14/5 1488/16/5
f 1488/70/6 1484/69/6 1482/1/6 1486/2/6
f 1491/69/1 1489/1/1 1490/2/1 1492/70/1
f 1490/88/2 1489/60/2 1493/65/2 1494/92/2
f 1495/71/3 1493/3/3 1489/5/3 1491/72/3
f 1495/74/4 1496/73/4 1494/6/4 1493/7/4
f 1495/92/5 1491/88/5 1492/60/5 1496/65/5
f 1496/72/6 1492/71/6 1490/3/6 1494/5/6
f 1499/87/1 1497/2/1 1498/6/1 1500/93/1
f 1498/59/2 1497/10/2 1501/13/2 1502/66/2
f 1503/87/3 1501/2/3 1497/6/3 1499/93/3
f 1503/93/4 1504/87/4 1502/2/4 1501/6/4
f 1503/66/5 1499/59/5 1500/10/5 1504/13/5
f 1504/93/6 1500/87/6 1498/2/6 1502/6/6
f 1507/71/1 1505/3/1 1506/5/1 1508/72/1
f 1506/53/2 1505/14/2 1509/16/2 1510/54/2
f 1511/73/3 1509/6/3 1505/7/3 1507/74/3
f 1511/72/4 1512/71/4 1510/3/4 1509/5/4
f 1511/54/5 1507/53/5 1508/14/5 1512/16/5
f 1512/70/6 1508/69/6 1506/1/6 1510/2/6
f 1515/69/1 1513/1/1 1514/2/1 1516/70/1
f 1514/88/2 1513/60/2 1517/65/2 1518/92/2
f 1519/71/3 1517/3/3 1513/5/3 1515/72/3
f 1519/74/4 1520/73/4 1518/6/4 1517/7/4
f 1519/92/5 1515/88/5 1516/60/5 1520/65/5
f 1520/72/6 1516/71/6 1514/3/6 1518/5/6
f 1523/87/1 1521/2/1 1522/6/1 1524/93/1
f 1522/59/2 1521/10/2 1525/13/2 1526/66/2
f 1527/87/3 1525/2/3 1521/6/3 1523/93/3
f 1527/93/4 1528/87/4 1526/2/4 1525/6/4
f 1527/66/5 1523/59/5 1524/10/5 1528/13/5
f 1528/93/6 1524/87/6 1522/2/6 1526/6/6
f 1531/71/1 1529/3/1 1530/5/1 1532/72/1
f 1530/53/2 1529/14/2 1533/16/2 1534/54/2
f 1535/73/3 1533/6/3 1529/7/3 1531/74/3
f 1535/72/4 1536/71/4 1534/3/4 1533/5/4
f 1535/54/5 1531/53/5 1532/14/5 1536/16/5
f 1536/70/6 1532/69/6 1530/1/6 1534/2/6
f 1539/69/1 1537/1/1 1538/2/1 1540/70/1
f 1538/88/2 1537/60/2 1541/65/2 1542/92/2
f 1543/71/3 1541/3/3 1537/5/3 1539/72/3
f 1543/74/4 1544/73/4 1542/6/4 1541/7/4
f 1543/92/5 1539/88/5 1540/60/5 1544/65/5
f 1544/72/6 1540/71/6 1538/3/6 1542/5/6
f 1547/87/1 1545/2/1 1546/6/1 1548/93/1
f 1546/59/2 1545/10/2 1549/13/2 1550/66/2
f 1551/87/3 1549/2/3 1545/6/3 1547/93/3
f 1551/93/4 1552/87/4 1550/2/4 1549/6/4
f 1551/66/5 1547/59/5 1548/10/5 1552/13/5
f 1552/93/6 1548/87/6 1546/2/6 1550/6/6
f 1555/71/1 1553/3/1 1554/5/1 1556/72/1
f 1554/53/2 1553/14/2 1557/16/2 1558/54/2
f 1559/73/3 1557/6/3 1553/7/3 1555/74/3
f 1559/72/4 1560/71/4 1558/3/4 1557/5/4
f 1559/54/5 1555/53/5 1556/14/5 1560/16/5
f 1560/70/6 1556/69/6 1554/1/6 1558/2/6
f 1563/69/1 1561/1/1 1562/2/1 1564/70/1
f 1562/88/2 1561/60/2 1565/65/2 1566/92/2
f 1567/71/3 1565/3/3 1561/5/3 1563/72/3
f 1567/74/4 1568/73/4 1566/6/4 1565/7/4
f 1567/92/5 1563/88/5 1564/60/5 1568/65/5
f 1568/72/6 1564/71/6 1562/3/6 1566/5/6
f 1571/87/1 1569/2/1 1570/6/1 1572/93/1
f 1570/59/2 1569/10/2 1573/13/2 1574/66/2
f 1575/87/3 1573/2/3 1569/6/3 1571/93/3
f 1575/93/4 1576/87/4 1574/2/4 1573/6/4
f 1575/66/5 1571/59/5 1572/10/5 1576/13/5
f 1576/93/6 1572/87/6 1570/2/6 1574/6/6
f 1579/71/1 1577/3/1 1578/5/1 1580/72/1
f 1578/53/2 1577/14/2 1581/16/2 1582/54/2
f 1583/73/3 1581/6/3 1577/7/3 1579/74/3
f 1583/72/4 1584/71/4 1582/3/4 1581/5/4
f 1583/54/5 1579/53/5 1580/14/5 1584/16/5
f 1584/70/6 1580/69/6 1578/1/6 1582/2/6
f 1587/69/1 1585/1/1 1586/2/1 1588/70/1
f 1586/88/2 1585/60/2 1589/65/2 1590/92/2
f 1591/71/3 1589/3/3 1585/5/3 1587/72/3
f 1591/74/4 1592/73/4 1590/6/4 1589/7/4
f 1591/92/5 1587/88/5 1588/60/5 1592/65/5
f 1592/72/6 1588/71/6 1586/3/6 1590/5/6
f 1595/36/1 1593/1/1 1594/7/1 1596/38/1
f 1594/85/2 1593/1/2 1597/7/2 1598/95/2
f 1599/36/3 1597/1/3 1593/7/3 1595/38/3
f 1599/38/4 1600/36/4 1598/1/4 1597/7/4
f 1599/95/5 1595/85/5 1596/1/5 1600/7/5
f 1600/38/6 1596/36/6 1594/1/6 1598/7/6
f 1603/85/1 1601/36/1 1602/38/1 1604/95/1
f 1602/85/2 1601/1/2 1605/7/2 1606/95/2
f 1607/85/3 1605/36/3 1601/38/3 1603/95/3
f 1607/95/4 1608/85/4 1606/36/4 1605/38/4
f 1607/95/5 1603/85/5 1604/1/5 1608/7/5
f 1608/95/6 1604/85/6 1602/36/6 1606/38/6
f 1611/36/1 1609/1/1 1610/4/1 1612/37/1
f 1610/85/2 1609/36/2 1613/38/2 1614/95/2
f 1615/36/3 1613/1/3 1609/7/3 1611/38/3
f 1615/38/4 1616/37/4 1614/4/4 1613/7/4
f 1616/38/6 1612/36/6 1610/1/6 1614/7/6
f 1619/85/1 1617/36/1 1618/38/1 1620/95/1
f 1618/85/2 1617/1/2 1621/7/2 1622/95/2
f 1623/85/3 1621/36/3 1617/38/3 1619/95/3
f 1623/95/4 1624/85/4 1622/36/4 1621/38/4
f 1623/95/5 1619/85/5 1620/1/5 1624/7/5
f 1624/95/6 1620/85/6 1618/36/6 1622/38/6
f 1627/87/1 1625/2/1 1626/6/1 1628/93/1
f 1626/59/2 1625/10/2 1629/13/2 1630/66/2
f 1631/87/3 1629/2/3 1625/6/3 1627/93/3
f 1631/93/4 1632/87/4 1630/2/4 1629/6/4
f 1631/66/5 1627/59/5 1628/10/5 1632/13/5
f 1632/93/6 1628/87/6 1626/2/6 1630/6/6
f 1635/71/1 1633/3/1 1634/5/1 1636/72/1
f 1634/53/2 1633/14/2 1637/16/2 1638/54/2
f 1639/73/3 1637/6/3 1633/7/3 1635/74/3
f 1639/72/4 1640/71/4 1638/3/4 1637/5/4
f 1639/54/5 1635/53/5 1636/14/5 1640/16/5
f 1640/70/6 1636/69/6 1634/1/6 1638/2/6
f 1643/73/1 1641/6/1 1642/7/1 1644/74/1
f 1642/11/2 1641/3/2 1645/5/2 1646/12/2
f 1647/71/3 1645/3/3 1641/5/3 1643/72/3
f 1647/70/4 1648/69/4 1646/1/4 1645/2/4
f 1647/12/5 1643/11/5 1644/3/5 1648/5/5
f 1648/72/6 1644/71/6 1642/3/6 1646/5/6
f 1651/87/1 1649/2/1 1650/6/1 1652/93/1
f 1650/59/2 1649/10/2 1653/13/2 1654/66/2
f 1655/87/3 1653/2/3 1649/6/3 1651/93/3
f 1655/93/4 1656/87/4 1654/2/4 1653/6/4
f 1655/66/5 1651/59/5 1652/10/5 1656/13/5
f 1656/93/6 1652/87/6 1650/2/6 1654/6/6
f 1659/71/1 1657/3/1 1658/5/1 1660/72/1
f 1658/53/2 1657/14/2 1661/16/2 1662/54/2
f 1663/73/3 1661/6/3 1657/7/3 1659/74/3
f 1663/72/4 1664/71/4 1662/3/4 1661/5/4
f 1663/54/5 1659/53/5 1660/14/5 1664/16/5
f 1664/70/6 1660/69/6 1658/1/6 1662/2/6
f 1667/73/1 1665/6/1 1666/7/1 1668/74/1
f 1666/11/2 1665/3/2 1669/5/2 1670/12/2
f 1671/71/3 1669/3/3 1665/5/3 1667/72/3
f 1671/70/4 1672/69/4 1670/1/4 1669/2/4
f 1671/12/5 1667/11/5 1668/3/5 1672/5/5
f 1672/72/6 1668/71/6 1666/3/6 1670/5/6
f 1675/87/1 1673/2/1 1674/6/1 1676/93/1
f 1674/59/2 1673/10/2 1677/13/2 1678/66/2
f 1679/87/3 1677/2/3 1673/6/3 1675/93/3
f 1679/93/4 1680/87/4 1678/2/4 1677/6/4
f 1679/66/5 1675/59/5 1676/10/5 1680/13/5
f 1680/93/6 1676/87/6 1674/2/6 1678/6/6
f 1683/71/1 1681/3/1 1682/5/1 1684/72/1
f 1682/53/2 1681/14/2 1685/16/2 1686/54/2
f 1687/73/3 1685/6/3 1681/7/3 1683/74/3
f 1687/72/4 1688/71/4 1686/3/4 1685/5/4
f 1687/54/5 1683/53/5 1684/14/5 1688/16/5
f 1688/70/6 1684/69/6 1682/1/6 1686/2/6
f 1691/73/1 1689/6/1 1690/7/1 1692/74/1
f 1690/11/2 1689/3/2 1693/5/2 1694/12/2
f 1695/71/3 1693/3/3 1689/5/3 1691/72/3
f 1695/70/4 1696/69/4 1694/1/4 1693/2/4
f 1695/12/5 1691/11/5 1692/3/5 1696/5/5
f 1696/72/6 1692/71/6 1690/3/6 1694/5/6
f 1699/36/1 1697/1/1 1698/7/1 1700/38/1
f 1698/85/2 1697/1/2 1701/7/2 1702/95/2
f 1703/36/3 1701/1/3 1697/7/3 1699/38/3
f 1703/38/4 1704/36/4 1702/1/4 1701/7/4
f 1703/95/5 1699/85/5 1700/1/5 1704/7/5
f 1704/38/6 1700/36/6 1698/1/6 1702/7/6
f 1707/87/1 1705/2/1 1706/6/1 1708/93/1
f 1706/59/2 1705/10/2 1709/13/2 1710/66/2
f 1711/87/3 1709/2/3 1705/6/3 1707/93/3
f 1711/93/4 1712/87/4 1710/2/4 1709/6/4
f 1711/66/5 1707/59/5 1708/10/5 1712/13/5
f 1712/93/6 1708/87/6 1706/2/6 1710/6/6
f 1715/71/1 1713/3/1 1714/5/1 1716/72/1
f 1714/53/2 1713/14/2 1717/16/2 1718/54/2
f 1719/73/3 1717/6/3 1713/7/3 1715/74/3
f 1719/72/4 1720/71/4 1718/3/4 1717/5/4
f 1719/54/5 1715/53/5 1716/14/5 1720/16/5
f 1720/70/6 1716/69/6 1714/1/6 1718/2/6
f 1723/73/1 1721/6/1 1722/7/1 1724/74/1
f 1722/11/2 1721/3/2 1725/5/2 1726/12/2
f 1727/71/3 1725/3/3 1721/5/3 1723/72/3
f 1727/70/4 1728/69/4 1726/1/4 1725/2/4
f 1727/12/5 1723/11/5 1724/3/5 1728/5/5
f 1728/72/6 1724/71/6 1722/3/6 1726/5/6
f 1731/87/1 1729/2/1 1730/6/1 1732/93/1
f 1730/59/2 1729/10/2 1733/13/2 1734/66/2
f 1735/87/3 1733/2/3 1729/6/3 1731/93/3
f 1735/93/4 1736/87/4 1734/2/4 1733/6/4
f 1735/66/5 1731/59/5 1732/10/5 1736/13/5
f 1736/93/6 1732/87/6 1730/2/6 1734/6/6
f 1739/71/1 1737/3/1 1738/5/1 1740/72/1
f 1738/53/2 1737/14/2 1741/16/2 1742/54/2
f 1743/73/3 1741/6/3 1737/7/3 1739/74/3
f 1743/72/4 1744/71/4 1742/3/4 1741/5/4
f 1743/54/5 1739/53/5 1740/14/5 1744/16/5
f 1744/70/6 1740/69/6 1738/1/6 1742/2/6
f 1747/73/1 1745/6/1 1746/7/1 1748/74/1
f 1746/11/2 1745/3/2 1749/5/2 1750/12/2
f 1751/71/3 1749/3/3 1745/5/3 1747/72/3
f 1751/70/4 1752/69/4 1750/1/4 1749/2/4
f 1751/12/5 1747/11/5 1748/3/5 1752/5/5
f 1752/72/6 1748/71/6 1746/3/6 1750/5/6
f 1755/87/1 1753/2/1 1754/6/1 1756/93/1
f 1754/59/2 1753/10/2 1757/13/2 1758/66/2
f 1759/87/3 1757/2/3 1753/6/3 1755/93/3
f 1759/93/4 1760/87/4 1758/2/4 1757/6/4
f 1759/66/5 1755/59/5 1756/10/5 1760/13/5
f 1760/93/6 1756/87/6 1754/2/6 1758/6/6
f 1763/71/1 1761/3/1 1762/5/1 1764/72/1
f 1762/53/2 1761/14/2 1765/16/2 1766/54/2
f 1767/73/3 1765/6/3 1761/7/3 1763/74/3
f 1767/72/4 1768/71/4 1766/3/4 1765/5/4
f 1767/54/5 1763/53/5 1764/14/5 1768/16/5
f 1768/70/6 1764/69/6 1762/1/6 1766/2/6
f 1771/73/1 1769/6/1 1770/7/1 1772/74/1
f 1770/11/2 1769/3/2 1773/5/2 1774/12/2
f 1775/71/3 1773/3/3 1769/5/3 1771/72/3
f 1775/70/4 1776/69/4 1774/1/4 1773/2/4
f 1775/12/5 1771/11/5 1772/3/5 1776/5/5
f 1776/72/6 1772/71/6 1770/3/6 1774/5/6
f 1779/87/1 1777/2/1 1778/6/1 1780/93/1
f 1778/59/2 1777/10/2 1781/13/2 1782/66/2
f 1783/87/3 1781/2/3 1777/6/3 1779/93/3
f 1783/93/4 1784/87/4 1782/2/4 1781/6/4
f 1783/66/5 1779/59/5 1780/10/5 1784/13/5
f 1784/93/6 1780/87/6 1778/2/6 1782/6/6
f 1787/71/1 1785/3/1 1786/5/1 1788/72/1
f 1786/53/2 1785/14/2 1789/16/2 1790/54/2
f 1791/73/3 1789/6/3 1785/7/3 1787/74/3
f 1791/72/4 1792/71/4 1790/3/4 1789/5/4
f 1791/54/5 1787/53/5 1788/14/5 1792/16/5
f 1792/70/6 1788/69/6 1786/1/6 1790/2/6
f 1795/73/1 1793/6/1 1794/7/1 1796/74/1
f 1794/11/2 1793/3/2 1797/5/2 1798/12/2
f 1799/71/3 1797/3/3 1793/5/3 1795/72/3
f 1799/70/4 1800/69/4 1798/1/4 1797/2/4
f 1799/12/5 1795/11/5 1796/3/5 1800/5/5
f 1800/72/6 1796/71/6 1794/3/6 1798/5/6
f 1803/87/1 1801/2/1 1802/6/1 1804/93/1
f 1802/59/2 1801/10/2 1805/13/2 1806/66/2
f 1807/87/3 1805/2/3 1801/6/3 1803/93/3
f 1807/93/4 1808/87/4 1806/2/4 1805/6/4
f 1807/66/5 1803/59/5 1804/10/5 1808/13/5
f 1808/93/6 1804/87/6 1802/2/6 1806/6/6
f 1811/71/1 1809/3/1 1810/5/1 1812/72/1
f 1810/53/2 1809/14/2 1813/16/2 1814/54/2
f 1815/73/3 1813/6/3 1809/7/3 1811/74/3
f 1815/72/4 1816/71/4 1814/3/4 1813/5/4
f 1815/54/5 1811/53/5 1812/14/5 1816/16/5
f 1816/70/6 1812/69/6 1810/1/6 1814/2/6
f 1819/73/1 1817/6/1 1818/7/1 1820/74/1
f 1818/11/2 1817/3/2 1821/5/2 1822/12/2
f 1823/71/3 1821/3/3 1817/5/3 1819/72/3
f 1823/70/4 1824/69/4 1822/1/4 1821/2/4
f 1823/12/5 1819/11/5 1820/3/5 1824/5/5
f 1824/72/6 1820/71/6 1818/3/6 1822/5/6
f 1827/36/1 1825/1/1 1826/7/1 1828/38/1
f 1826/85/2 1825/1/2 1829/7/2 1830/95/2
f 1831/36/3 1829/1/3 1825/7/3 1827/38/3
f 1831/38/4 1832/36/4 1830/1/4 1829/7/4
f 1831/95/5 1827/85/5 1828/1/5 1832/7/5
f 1832/38/6 1828/36/6 1826/1/6 1830/7/6
f 1835/87/1 1833/2/1 1834/6/1 1836/93/1
f 1834/59/2 1833/10/2 1837/13/2 1838/66/2
f 1839/87/3 1837/2/3 1833/6/3 1835/93/3
f 1839/93/4 1840/87/4 1838/2/4 1837/6/4
f 1839/66/5 1835/59/5 1836/10/5 1840/13/5
f 1840/93/6 1836/87/6 1834/2/6 1838/6/6
f 1843/71/1 1841/3/1 1842/5/1 1844/72/1
f 1842/53/2 1841/14/2 1845/16/2 1846/54/2
f 1847/73/3 1845/6/3 1841/7/3 1843/74/3
f 1847/72/4 1848/71/4 1846/3/4 1845/5/4
f 1847/54/5 1843/53/5 1844/14/5 1848/16/5
f 1848/70/6 1844/69/6 1842/1/6 1846/2/6
f 1851/69/1 1849/1/1 1850/2/1 1852/70/1
f 1850/88/2 1849/60/2 1853/65/2 1854/92/2
f 1855/71/3 1853/3/3 1849/5/3 1851/72/3
f 1855/74/4 1856/73/4 1854/6/4 1853/7/4
f 1855/92/5 1851/88/5 1852/60/5 1856/65/5
f 1856/72/6 1852/71/6 1850/3/6 1854/5/6
f 1859/87/1 1857/2/1 1858/6/1 1860/93/1
f 1858/59/2 1857/10/2 1861/13/2 1862/66/2
f 1863/87/3 1861/2/3 1857/6/3 1859/93/3
f 1863/93/4 1864/87/4 1862/2/4 1861/6/4
f 1863/66/5 1859/59/5 1860/10/5 1864/13/5
f 1864/93/6 1860/87/6 1858/2/6 1862/6/6
f 1867/71/1 1865/3/1 1866/5/1 1868/72/1
f 1866/53/2 1865/14/2 1869/16/2 1870/54/2
f 1871/73/3 1869/6/3 1865/7/3 1867/74/3
f 1871/72/4 1872/71/4 1870/3/4 1869/5/4
f 1871/54/5 1867/53/5 1868/14/5 1872/16/5
f 1872/70/6 1868/69/6 1866/1/6 1870/2/6
f 1875/69/1 1873/1/1 1874/2/1 1876/70/1
f 1874/88/2 1873/60/2 1877/65/2 1878/92/2
f 1879/71/3 1877/3/3 1873/5/3 1875/72/3
f 1879/74/4 1880/73/4 1878/6/4 1877/7/4
f 1879/92/5 1875/88/5 1876/60/5 1880/65/5
f 1880/72/6 1876/71/6 1874/3/6 1878/5/6
f 1883/87/1 1881/2/1 1882/6/1 1884/93/1
f 1882/59/2 1881/10/2 1885/13/2 1886/66/2
f 1887/87/3 1885/2/3 1881/6/3 1883/93/3
f 1887/93/4 1888/87/4 1886/2/4 1885/6/4
f 1887/66/5 1883/59/5 1884/10/5 1888/13/5
f 1888/93/6 1884/87/6 1882/2/6 1886/6/6
f 1891/71/1 1889/3/1 1890/5/1 1892/72/1
f 1890/53/2 1889/14/2 1893/16/2 1894/54/2
f 1895/73/3 1893/6/3 1889/7/3 1891/74/3
f 1895/72/4 1896/71/4 1894/3/4 1893/5/4
f 1895/54/5 1891/53/5 1892/14/5 1896/16/5
f 1896/70/6 1892/69/6 1890/1/6 1894/2/6
f 1899/69/1 1897/1/1 1898/2/1 1900/70/1
f 1898/88/2 1897/60/2 1901/65/2 1902/92/2
f 1903/71/3 1901/3/3 1897/5/3 1899/72/3
f 1903/74/4 1904/73/4 1902/6/4 1901/7/4
f 1903/92/5 1899/88/5 1900/60/5 1904/65/5
f 1904/72/6 1900/71/6 1898/3/6 1902/5/6
f 1907/36/1 1905/1/1 1906/7/1 1908/38/1
f 1906/85/2 1905/1/2 1909/7/2 1910/95/2
f 1911/36/3 1909/1/3 1905/7/3 1907/38/3
f 1911/38/4 1912/36/4 1910/1/4 1909/7/4
f 1911/95/5 1907/85/5 1908/1/5 1912/7/5
f 1912/38/6 1908/36/6 1906/1/6 1910/7/6
f 1915/87/1 1913/2/1 1914/6/1 1916/93/1
f 1914/59/2 1913/10/2 1917/13/2 1918/66/2
f 1919/87/3 1917/2/3 1913/6/3 1915/93/3
f 1919/93/4 1920/87/4 1918/2/4 1917/6/4
f 1919/66/5 1915/59/5 1916/10/5 1920/13/5
f 1920/93/6 1916/87/6 1914/2/6 1918/6/6
f 1923/71/1 1921/3/1 1922/5/1 1924/72/1
f 1922/53/2 1921/14/2 1925/16/2 1926/54/2
f 1927/73/3 1925/6/3 1921/7/3 1923/74/3
f 1927/72/4 1928/71/4 1926/3/4 1925/5/4
f 1927/54/5 1923/53/5 1924/14/5 1928/16/5
f 1928/70/6 1924/69/6 1922/1/6 1926/2/6
f 1931/69/1 1929/1/1 1930/2/1 1932/70/1
f 1930/88/2 1929/60/2 1933/65/2 1934/92/2
f 1935/71/3 1933/3/3 1929/5/3 1931/72/3
f 1935/74/4 1936/73/4 1934/6/4 1933/7/4
f 1935/92/5 1931/88/5 1932/60/5 1936/65/5
f 1936/72/6 1932/71/6 1930/3/6 1934/5/6
f 1939/87/1 1937/2/1 1938/6/1 1940/93/1
f 1938/59/2 1937/10/2 1941/13/2 1942/66/2
f 1943/87/3 1941/2/3 1937/6/3 1939/93/3
f 1943/93/4 1944/87/4 1942/2/4 1941/6/4
f 1943/66/5 1939/59/5 1940/10/5 1944/13/5
f 1944/93/6 1940/87/6 1938/2/6 1942/6/6
f 1947/71/1 1945/3/1 1946/5/1 1948/72/1
f 1946/53/2 1945/14/2 1949/16/2 1950/54/2
f 1951/73/3 1949/6/3 1945/7/3 1947/74/3
f 1951/72/4 1952/71/4 1950/3/4 1949/5/4
f 1951/54/5 1947/53/5 1948/14/5 1952/16/5
f 1952/70/6 1948/69/6 1946/1/6 1950/2/6
f 1955/69/1 1953/1/1 1954/2/1 1956/70/1
f 1954/88/2 1953/60/2 1957/65/2 1958/92/2
f 1959/71/3 1957/3/3 1953/5/3 1955/72/3
f 1959/74/4 1960/73/4 1958/6/4 1957/7/4
f 1959/92/5 1955/88/5 1956/60/5 1960/65/5
f 1960/72/6 1956/71/6 1954/3/6 1958/5/6
f 1963/87/1 1961/2/1 1962/6/1 1964/93/1
f 1962/59/2 1961/10/2 1965/13/2 1966/66/2
f 1967/87/3 1965/2/3 1961/6/3 1963/93/3
f 1967/93/4 1968/87/4 1966/2/4 1965/6/4
f 1967/66/5 1963/59/5 1964/10/5 1968/13/5
f 1968/93/6 1964/87/6 1962/2/6 1966/6/6
f 1971/71/1 1969/3/1 1970/5/1 1972/72/1
f 1970/53/2 1969/14/2 1973/16/2 1974/54/2
f 1975/73/3 1973/6/3 1969/7/3 1971/74/3
f 1975/72/4 1976/71/4 1974/3/4 1973/5/4
f 1975/54/5 1971/53/5 1972/14/5 1976/16/5
f 1976/70/6 1972/69/6 1970/1/6 1974/2/6
f 1979/69/1 1977/1/1 1978/2/1 1980/70/1
f 1978/88/2 1977/60/2 1981/65/2 1982/92/2
f 1983/71/3 1981/3/3 1977/5/3 1979/72/3
f 1983/74/4 1984/73/4 1982/6/4 1981/7/4
f 1983/92/5 1979/88/5 1980/60/5 1984/65/5
f 1984/72/6 1980/71/6 1978/3/6 1982/5/6
f 1987/87/1 1985/2/1 1986/6/1 1988/93/1
f 1986/59/2 1985/10/2 1989/13/2 1990/66/2
f 1991/87/3 1989/2/3 1985/6/3 1987/93/3
f 1991/93/4 1992/87/4 1990/2/4 1989/6/4
f 1991/66/5 1987/59/5 1988/10/5 1992/13/5
f 1992/93/6 1988/87/6 1986/2/6 1990/6/6
f 1995/71/1 1993/3/1 1994/5/1 1996/72/1
f 1994/53/2 1993/14/2 1997/16/2 1998/54/2
f 1999/73/3 1997/6/3 1993/7/3 1995/74/3
f 1999/72/4 2000/71/4 1998/3/4 1997/5/4
f 1999/54/5 1995/53/5 1996/14/5 2000/16/5
f 2000/70/6 1996/69/6 1994/1/6 1998/2/6
f 2003/69/1 2001/1/1 2002/2/1 2004/70/1
f 2002/88/2 2001/60/2 2005/65/2 2006/92/2
f 2007/71/3 2005/3/3 2001/5/3 2003/72/3
f 2007/74/4 2008/73/4 2006/6/4 2005/7/4
f 2007/92/5 2003/88/5 2004/60/5 2008/65/5
f 2008/72/6 2004/71/6 2002/3/6 2006/5/6
f 2011/87/1 2009/2/1 2010/6/1 2012/93/1
f 2010/59/2 2009/10/2 2013/13/2 2014/66/2
f 2015/87/3 2013/2/3 2009/6/3 2011/93/3
f 2015/93/4 2016/87/4 2014/2/4 2013/6/4
f 2015/66/5 2011/59/5 2012/10/5 2016/13/5
f 2016/93/6 2012/87/6 2010/2/6 2014/6/6
f 2019/71/1 2017/3/1 2018/5/1 2020/72/1
f 2018/53/2 2017/14/2 2021/16/2 2022/54/2
f 2023/73/3 2021/6/3 2017/7/3 2019/74/3
f 2023/72/4 2024/71/4 2022/3/4 2021/5/4
f 2023/54/5 2019/53/5 2020/14/5 2024/16/5
f 2024/70/6 2020/69/6 2018/1/6 2022/2/6
f 2027/69/1 2025/1/1 2026/2/1 2028/70/1
f 2026/88/2 2025/60/2 2029/65/2 2030/92/2
f 2031/71/3 2029/3/3 2025/5/3 2027/72/3
f 2031/74/4 2032/73/4 2030/6/4 2029/7/4
f 2031/92/5 2027/88/5 2028/60/5 2032/65/5
f 2032/72/6 2028/71/6 2026/3/6 2030/5/6
f 2035/36/1 2033/1/1 2034/7/1 2036/38/1
f 2034/85/2 2033/1/2 2037/7/2 2038/95/2
f 2039/36/3 2037/1/3 2033/7/3 2035/38/3
f 2039/38/4 2040/36/4 2038/1/4 2037/7/4
f 2039/95/5 2035/85/5 2036/1/5 2040/7/5
f 2040/38/6 2036/36/6 2034/1/6 2038/7/6
f 2043/85/1 2041/36/1 2042/38/1 2044/95/1
f 2042/85/2 2041/1/2 2045/7/2 2046/95/2
f 2047/85/3 2045/36/3 2041/38/3 2043/95/3
f 2047/95/4 2048/85/4 2046/36/4 2045/38/4
f 2047/95/5 2043/85/5 2044/1/5 2048/7/5
f 2048/95/6 2044/85/6 2042/36/6 2046/38/6
f 2051/85/1 2049/36/1 2050/38/1 2052/95/1
f 2050/85/2 2049/1/2 2053/7/2 2054/95/2
f 2055/85/3 2053/36/3 2049/38/3 2051/95/3
f 2055/95/4 2056/85/4 2054/36/4 2053/38/4
f 2055/95/5 2051/85/5 2052/1/5 2056/7/5
f 2056/95/6 2052/85/6 2050/36/6 2054/38/6
f 2059/36/1 2057/1/1 2058/7/1 2060/38/1
f 2058/85/2 2057/1/2 2061/4/2 2062/90/2
f 2063/37/3 2061/4/3 2057/7/3 2059/38/3
f 2063/38/4 2064/36/4 2062/1/4 2061/7/4
f 2064/37/6 2060/36/6 2058/1/6 2062/4/6
f 2067/36/1 2065/1/1 2066/7/1 2068/38/1
f 2066/85/2 2065/1/2 2069/7/2 2070/95/2
f 2071/36/3 2069/1/3 2065/7/3 2067/38/3
f 2071/38/4 2072/36/4 2070/1/4 2069/7/4
f 2071/95/5 2067/85/5 2068/1/5 2072/7/5
f 2072/38/6 2068/36/6 2066/1/6 2070/7/6
f 2075/36/1 2073/1/1 2074/7/1 2076/38/1
f 2074/85/2 2073/1/2 2077/7/2 2078/95/2
f 2079/36/3 2077/1/3 2073/7/3 2075/38/3
f 2079/38/4 2080/36/4 2078/1/4 2077/7/4
f 2079/95/5 2075/85/5 2076/1/5 2080/7/5
f 2080/38/6 2076/36/6 2074/1/6 2078/7/6
f 2083/36/1 2081/1/1 2082/7/1 2084/38/1
f 2082/85/2 2081/1/2 2085/7/2 2086/95/2
f 2087/36/3 2085/1/3 2081/7/3 2083/38/3
f 2087/38/4 2088/36/4 2086/1/4 2085/7/4
f 2087/95/5 2083/85/5 2084/1/5 2088/7/5
f 2088/38/6 2084/36/6 2082/1/6 2086/7/6
f 2091/85/1 2089/36/1 2090/38/1 2092/95/1
f 2090/85/2 2089/1/2 2093/7/2 2094/95/2
f 2095/85/3 2093/36/3 2089/38/3 2091/95/3
f 2095/95/4 2096/85/4 2094/36/4 2093/38/4
f 2095/95/5 2091/85/5 2092/1/5 2096/7/5
f 2096/95/6 2092/85/6 2090/36/6 2094/38/6
f 2099/36/1 2097/1/1 2098/7/1 2100/38/1
f 2098/85/2 2097/1/2 2101/4/2 2102/90/2
f 2103/37/3 2101/4/3 2097/7/3 2099/38/3
f 2103/38/4 2104/36/4 2102/1/4 2101/7/4
f 2104/37/6 2100/36/6 2098/1/6 2102/4/6
f 2107/85/1 2105/36/1 2106/38/1 2108/95/1
f 2106/85/2 2105/1/2 2109/7/2 2110/95/2
f 2111/85/3 2109/36/3 2105/38/3 2107/95/3
f 2111/95/4 2112/85/4 2110/36/4 2109/38/4
f 2111/95/5 2107/85/5 2108/1/5 2112/7/5
f 2112/95/6 2108/85/6 2106/36/6 2110/38/6
f 2115/85/1 2113/36/1 2114/38/1 2116/95/1
f 2114/85/2 2113/1/2 2117/7/2 2118/95/2
f 2119/85/3 2117/36/3 2113/38/3 2115/95/3
f 2119/95/4 2120/85/4 2118/36/4 2117/38/4
f 2119/95/5 2115/85/5 2116/1/5 2120/7/5
f 2120/95/6 2116/85/6 2114/36/6 2118/38/6
f 2123/36/1 2121/1/1 2122/7/1 2124/38/1
f 2122/85/2 2121/1/2 2125/4/2 2126/90/2
f 2127/37/3 2125/4/3 2121/7/3 2123/38/3
f 2127/38/4 2128/36/4 2126/1/4 2125/7/4
f 2128/37/6 2124/36/6 2122/1/6 2126/4/6
f 2131/85/1 2129/36/1 2130/38/1 2132/95/1
f 2130/85/2 2129/1/2 2133/7/2 2134/95/2
f 2135/85/3 2133/36/3 2129/38/3 2131/95/3
f 2135/95/4 2136/85/4 2134/36/4 2133/38/4
f 2135/95/5 2131/85/5 2132/1/5 2136/7/5
f 2136/95/6 2132/85/6 2130/36/6 2134/38/6
f 2138/7/1 2139/95/1 2140/85/1 2137/1/1
f 2138/85/2 2137/1/2 2142/7/2 2141/95/2
f 2137/7/3 2140/95/3 2143/85/3 2142/1/3
f 2141/1/4 2142/7/4 2143/95/4 2144/85/4
f 2139/1/5 2144/7/5 2143/95/5 2140/85/5
f 2138/1/6 2141/7/6 2144/95/6 2139/85/6
f 2147/7/1 2148/95/1 2146/85/1 2145/1/1
f 2147/85/2 2145/1/2 2149/7/2 2150/95/2
f 2145/7/3 2146/95/3 2151/85/3 2149/1/3
f 2150/1/4 2149/7/4 2151/95/4 2152/85/4
f 2148/1/5 2152/7/5 2151/95/5 2146/85/5
f 2147/1/6 2150/7/6 2152/95/6 2148/85/6
f 2150/7/1 2152/95/1 2151/85/1 2149/1/1
f 2150/85/2 2149/1/2 2155/7/2 2156/95/2
f 2149/7/3 2151/95/3 2157/85/3 2155/1/3
f 2156/1/4 2155/7/4 2157/95/4 2158/85/4
f 2152/1/5 2158/7/5 2157/95/5 2151/85/5
f 2150/1/6 2156/7/6 2158/95/6 2152/85/6
f 2153/7/1 2154/95/1 2162/85/1 2161/1/1
f 2153/85/2 2161/1/2 2164/7/2 2163/95/2
f 2161/7/3 2162/95/3 2165/85/3 2164/1/3
f 2163/1/4 2164/7/4 2165/95/4 2166/85/4
f 2154/1/5 2166/7/5 2165/95/5 2162/85/5
f 2153/1/6 2163/7/6 2166/95/6 2154/85/6
f 2169/7/1 2170/95/1 2160/85/1 2159/1/1
f 2169/85/2 2159/1/2 2167/7/2 2171/95/2
f 2159/7/3 2160/95/3 2168/85/3 2167/1/3
f 2171/1/4 2167/7/4 2168/95/4 2172/85/4
f 2170/1/5 2172/7/5 2168/95/5 2160/85/5
f 2169/1/6 2171/7/6 2172/95/6 2170/85/6
f 2174/7/1 2175/95/1 2176/85/1 2173/1/1
f 2174/85/2 2173/1/2 2178/7/2 2177/95/2
f 2173/7/3 2176/95/3 2179/85/3 2178/1/3
f 2177/1/4 2178/7/4 2179/95/4 2180/85/4
f 2175/1/5 2180/7/5 2179/95/5 2176/85/5
f 2174/1/6 2177/7/6 2180/95/6 2175/85/6
f 2177/7/1 2180/95/1 2179/85/1 2178/1/1
f 2177/85/2 2178/1/2 2182/7/2 2181/95/2
f 2178/7/3 2179/95/3 2183/85/3 2182/1/3
f 2181/1/4 2182/7/4 2183/95/4 2184/85/4
f 2180/1/5 2184/7/5 2183/95/5 2179/85/5
f 2177/1/6 2181/7/6 2184/95/6 2180/85/6
f 2187/7/1 2188/95/1 2186/85/1 2185/1/1
f 2187/85/2 2185/1/2 2190/7/2 2189/95/2
f 2185/7/3 2186/95/3 2191/85/3 2190/1/3
f 2189/1/4 2190/7/4 2191/95/4 2192/85/4
f 2188/1/5 2192/7/5 2191/95/5 2186/85/5
f 2187/1/6 2189/7/6 2192/95/6 2188/85/6
