mtllib lighthouse.mtl
usemtl grass_block_top
v -14 4 -15
v -14 4 -14
v -15 5 -13
v -15 5 -14
v -14 5 -14
v -14 5 -13
v -15 6 -12
v -15 6 -13
v -14 6 -13
v -14 6 -12
v -15 6 -11
v -14 6 -11
v -15 7 -10
v -15 7 -11
v -14 7 -11
v -14 7 -10
v -15 7 -9
v -14 7 -9
v -14 8 -9
v -14 8 -8
v -15 9 -8
v -15 9 -9
v -14 9 -9
v -14 9 -8
v -15 9 -7
v -14 9 -7
v -15 9 -6
v -14 9 -6
v -15 9 -5
v -14 9 -5
v -15 9 -4
v -14 9 -4
v -15 9 -3
v -14 9 -3
v -15 9 -2
v -14 9 -2
v -15 9 -1
v -14 9 -1
v -15 9 0
v -14 9 0
v -14 9 1
v -15 10 1
v -15 10 0
v -14 10 0
v -14 10 1
v -15 10 2
v -14 10 2
v -15 10 3
v -14 10 3
v -15 10 4
v -14 10 4
v -15 10 6
v -14 10 6
v -15 10 7
v -14 10 7
v -14 10 8
v -15 11 8
v -15 11 7
v -14 11 7
v -14 11 8
v -15 11 9
v -14 11 9
v -15 11 10
v -14 11 10
v -15 11 11
v -14 11 11
v -15 11 12
v -14 11 12
v -15 11 13
v -14 11 13
v -15 11 14
v -14 11 14
v -15 13 14
v -14 13 14
v -15 11 15
v -14 11 15
v -15 13 15
v -14 13 15
v -15 11 16
v -14 11 16
v -15 13 16
v -14 13 16
v -13 4 -15
v -13 4 -14
v -13 4 -13
v -13 5 -14
v -13 5 -13
v -13 5 -12
v -13 6 -13
v -13 6 -12
v -13 6 -11
v -13 6 -10
v -13 7 -11
v -13 7 -10
v -13 7 -9
v -13 8 -9
v -13 8 -8
v -13 8 -7
v -13 9 -8
v -13 9 -7
v -13 9 -6
v -13 9 -5
v -13 9 -4
v -13 9 -3
v -13 9 -2
v -13 9 -1
v -13 9 0
v -13 9 1
v -13 9 2
v -13 10 1
v -13 10 2
v -13 10 3
v -13 10 4
v -13 10 6
v -13 10 7
v -13 10 8
v -13 11 8
v -13 11 9
v -13 11 10
v -13 11 11
v -13 11 12
v -13 11 13
v -13 11 14
v -13 11 15
v -13 13 14
v -13 13 15
v -13 11 16
v -13 13 16
v -12 4 -15
v -12 4 -14
v -12 4 -13
v -12 5 -13
v -12 5 -12
v -12 6 -12
v -12 6 -11
v -12 6 -10
v -12 6 -9
v -12 7 -10
v -12 7 -9
v -12 7 -8
v -12 8 -9
v -12 8 -8
v -12 8 -7
v -12 8 -6
v -12 9 -7
v -12 9 -6
v -12 9 -5
v -12 9 -4
v -12 9 -3
v -12 9 -2
v -12 9 -1
v -12 9 0
v -12 9 1
v -12 9 2
v -12 9 3
v -12 10 2
v -12 10 3
v -12 10 4
v -12 10 6
v -12 10 7
v -12 10 8
v -12 10 9
v -12 11 8
v -12 11 9
v -12 11 10
v -12 11 11
v -12 11 12
v -12 11 13
v -12 11 14
v -12 11 15
v -12 13 15
v -12 11 16
v -12 13 16
v -11 4 -15
v -11 4 -14
v -11 6 -11
v -11 5 -10
v -11 6 -10
v -11 5 -9
v -11 6 -9
v -11 6 -8
v -11 7 -9
v -11 7 -8
v -11 7 -7
v -11 8 -8
v -11 8 -7
v -11 8 -6
v -11 8 -5
v -11 9 -6
v -11 9 -5
v -11 9 -4
v -11 9 -3
v -11 9 -2
v -11 9 -1
v -11 9 0
v -11 9 1
v -11 9 2
v -11 9 3
v -11 9 4
v -11 10 3
v -11 10 4
v -11 10 7
v -11 10 8
v -11 10 9
v -11 10 10
v -11 11 9
v -11 11 10
v -11 11 11
v -11 11 12
v -11 11 13
v -11 11 14
v -11 11 15
v -11 11 16
v -10 4 -15
v -10 4 -14
v -10 5 -10
v -10 5 -9
v -10 6 -9
v -10 6 -8
v -10 6 -7
v -10 7 -8
v -10 7 -7
v -10 7 -6
v -10 8 -7
v -10 8 -6
v -10 8 -5
v -10 8 -4
v -10 9 -5
v -10 9 -4
v -10 9 -3
v -10 9 -2
v -10 9 -1
v -10 9 0
v -10 9 1
v -10 9 2
v -10 9 3
v -10 9 4
v -10 10 7
v -10 10 8
v -10 10 9
v -10 10 10
v -10 11 10
v -10 11 11
v -10 11 12
v -10 11 13
v -10 11 14
v -10 11 15
v -10 11 16
v -9 4 -15
v -9 4 -14
v -9 4 -11
v -9 4 -10
v -9 5 -10
v -9 4 -9
v -9 5 -9
v -9 4 -8
v -9 6 -9
v -9 6 -8
v -9 4 -7
v -9 6 -7
v -9 6 -6
v -9 7 -7
v -9 7 -6
v -9 6 -5
v -9 7 -5
v -9 8 -6
v -9 8 -5
v -9 7 -4
v -9 8 -4
v -9 8 -3
v -9 9 -4
v -9 9 -3
v -9 8 -2
v -9 9 -2
v -9 9 -1
v -9 9 0
v -9 9 1
v -9 9 2
v -9 9 3
v -9 9 4
v -9 9 5
v -9 10 7
v -9 10 8
v -9 10 9
v -9 10 10
v -9 10 11
v -9 11 10
v -9 11 11
v -9 11 12
v -9 11 13
v -9 11 14
v -9 11 15
v -9 11 16
v -8 4 -15
v -8 4 -14
v -8 4 -13
v -8 4 -12
v -8 4 -11
v -8 4 -10
v -8 4 -9
v -8 4 -8
v -8 4 -7
v -8 4 -6
v -8 5 -6
v -8 6 -7
v -8 6 -6
v -8 5 -5
v -8 6 -5
v -8 7 -5
v -8 7 -4
v -8 7 -3
v -8 8 -4
v -8 8 -3
v -8 8 -2
v -8 8 -1
v -8 9 -2
v -8 9 -1
v -8 8 0
v -8 9 0
v -8 8 1
v -8 9 1
v -8 9 2
v -8 9 3
v -8 9 4
v -8 9 5
v -8 10 7
v -8 10 8
v -8 10 9
v -8 10 10
v -8 10 11
v -8 10 12
v -8 11 11
v -8 11 12
v -8 11 13
v -8 11 14
v -8 11 15
v -8 11 16
v -7 3 -15
v -7 3 -14
v -7 4 -15
v -7 4 -14
v -7 4 -13
v -7 4 -12
v -7 4 -11
v -7 4 -10
v -7 4 -9
v -7 4 -8
v -7 4 -7
v -7 4 -6
v -7 4 -5
v -7 5 -6
v -7 5 -5
v -7 7 -4
v -7 7 -3
v -7 7 -2
v -7 8 -3
v -7 8 -2
v -7 8 -1
v -7 8 0
v -7 8 1
v -7 8 2
v -7 9 1
v -7 9 2
v -7 9 3
v -7 9 4
v -7 9 5
v -7 9 8
v -7 9 9
v -7 10 8
v -7 10 9
v -7 10 10
v -7 10 11
v -7 10 12
v -7 10 13
v -7 11 12
v -7 11 13
v -7 11 14
v -7 11 15
v -7 11 16
v -6 3 -15
v -6 3 -14
v -6 3 -13
v -6 4 -14
v -6 4 -13
v -6 3 -12
v -6 4 -12
v -6 4 -11
v -6 3 -10
v -6 4 -10
v -6 3 -9
v -6 4 -9
v -6 4 -8
v -6 4 -7
v -6 4 -6
v -6 4 -5
v -6 7 -3
v -6 7 -2
v -6 8 -2
v -6 8 -1
v -6 8 0
v -6 8 1
v -6 8 2
v -6 9 2
v -6 9 3
v -6 9 4
v -6 9 5
v -6 9 8
v -6 9 9
v -6 10 9
v -6 10 10
v -6 10 11
v -6 10 12
v -6 10 13
v -6 10 14
v -6 11 13
v -6 11 14
v -6 11 15
v -6 11 16
v -5 3 -14
v -5 3 -13
v -5 3 -12
v -5 3 -11
v -5 4 -12
v -5 4 -11
v -5 3 -10
v -5 4 -10
v -5 3 -9
v -5 8 -2
v -5 8 -1
v -5 8 0
v -5 8 1
v -6 9 1
v -5 9 1
v -5 9 2
v -5 9 3
v -5 9 4
v -5 9 5
v -5 9 6
v -5 9 10
v -5 9 11
v -5 10 10
v -5 10 11
v -5 10 12
v -5 10 13
v -5 10 14
v -5 10 15
v -5 11 14
v -5 11 15
v -5 11 16
v -4 3 -12
v -4 3 -11
v -4 3 -10
v -4 9 4
v -4 9 5
v -4 9 6
v -4 9 10
v -4 9 11
v -4 9 12
v -4 10 11
v -4 10 12
v -4 10 13
v -4 10 14
v -4 10 15
v -4 10 16
v -4 11 15
v -4 11 16
v -3 9 5
v -3 9 6
v -3 9 7
v -3 9 11
v -3 9 12
v -3 9 13
v -3 10 12
v -3 10 13
v -3 9 14
v -3 10 14
v -3 10 15
v -3 10 16
v -2 4 -3
v -2 4 -2
v -2 9 6
v -2 9 7
v -2 9 12
v -2 9 13
v -2 9 14
v -2 9 15
v -2 10 14
v -2 10 15
v -2 10 16
v -1 4 -3
v -1 4 -2
v -1 9 12
v -1 9 13
v -1 9 14
v -1 9 15
v -1 9 16
v -1 10 15
v -1 10 16
v 0 9 12
v 0 9 13
v 0 9 14
v 0 9 15
v 0 9 16
v 1 7 -1
v 1 7 0
v 1 9 13
v 1 9 14
v 1 9 15
v 1 9 16
v 2 7 -1
v 2 7 0
v 3 7 -1
v 3 7 0
v 3 7 1
v 3 7 2
v 3 7 3
v 3 9 10
v 3 9 11
v 3 9 12
v 3 9 13
v 4 7 0
v 4 7 1
v 4 7 2
v 4 7 3
v 4 7 5
v 4 7 6
v 4 7 7
v 4 7 8
v 4 8 8
v 4 8 9
v 4 8 10
v 4 9 10
v 4 8 11
v 4 9 11
v 4 8 12
v 4 9 12
v 4 9 13
v 4 9 14
v 4 9 15
v 5 7 4
v 5 7 5
v 5 7 6
v 5 7 7
v 5 7 8
v 5 7 9
v 5 8 8
v 5 8 9
v 5 8 10
v 5 8 11
v 5 8 12
v 5 8 13
v 5 9 12
v 5 9 13
v 5 9 14
v 5 9 15
v 5 9 16
v 6 7 1
v 6 7 2
v 6 7 3
v 6 7 4
v 6 7 5
v 6 6 6
v 6 7 6
v 6 6 7
v 6 7 7
v 6 7 8
v 6 7 9
v 6 7 10
v 6 8 9
v 6 8 10
v 6 7 11
v 6 8 11
v 6 8 12
v 6 8 13
v 6 9 13
v 6 8 14
v 6 9 14
v 6 9 15
v 6 9 16
v 7 7 1
v 7 7 2
v 7 7 3
v 7 6 6
v 7 6 7
v 7 7 7
v 7 7 8
v 7 7 10
v 7 7 11
v 7 8 11
v 7 7 12
v 7 8 12
v 7 7 13
v 7 8 13
v 7 8 14
v 7 8 15
v 7 9 14
v 7 9 15
v 7 9 16
v 8 7 10
v 8 6 11
v 8 7 11
v 8 6 12
v 8 7 12
v 8 7 13
v 8 7 14
v 8 8 13
v 8 8 14
v 8 8 15
v 8 8 16
v 8 9 15
v 8 9 16
v 9 5 11
v 9 5 12
v 9 6 11
v 9 6 12
v 9 6 13
v 9 7 12
v 9 7 13
v 9 7 14
v 9 7 15
v 9 8 14
v 9 8 15
v 9 8 16
v 10 3 11
v 10 3 12
v 10 5 11
v 10 5 12
v 10 5 13
v 10 6 12
v 10 6 13
v 10 6 14
v 10 7 13
v 10 7 14
v 10 7 15
v 10 7 16
v 10 8 15
v 10 8 16
v 11 3 11
v 11 3 12
v 11 5 12
v 11 5 13
v 11 5 14
v 11 6 13
v 11 6 14
v 11 6 15
v 11 7 14
v 11 7 15
v 11 7 16
v 12 3 11
v 12 3 12
v 12 4 12
v 12 4 13
v 12 5 12
v 12 5 13
v 12 5 14
v 12 6 14
v 12 6 15
v 12 6 16
v 12 7 15
v 12 7 16
v 13 4 12
v 13 4 13
v 13 5 13
v 13 5 14
v 13 6 15
v 13 6 16
vt 0.000000000 0.000000000
vt 1.000000000 0.000000000
vt 0.000000000 1.000000000
vt 1.000000000 1.000000000
vn 0 1 0
f 3/4/1 6/3/1 5/1/1 4/2/1
f 7/4/1 10/3/1 9/1/1 8/2/1
f 11/3/1 12/1/1 10/2/1 7/4/1
f 13/1/1 16/2/1 15/4/1 14/3/1
f 17/4/1 18/3/1 16/1/1 13/2/1
f 21/3/1 24/1/1 23/2/1 22/4/1
f 25/2/1 26/4/1 24/3/1 21/1/1
f 27/2/1 28/4/1 26/3/1 25/1/1
f 29/4/1 30/3/1 28/1/1 27/2/1
f 31/2/1 32/4/1 30/3/1 29/1/1
f 33/1/1 34/2/1 32/4/1 31/3/1
f 35/1/1 36/2/1 34/4/1 33/3/1
f 37/2/1 38/4/1 36/3/1 35/1/1
f 39/3/1 40/1/1 38/2/1 37/4/1
f 42/4/1 45/3/1 44/1/1 43/2/1
f 46/4/1 47/3/1 45/1/1 42/2/1
f 48/4/1 49/3/1 47/1/1 46/2/1
f 50/4/1 51/3/1 49/1/1 48/2/1
f 54/3/1 55/1/1 53/2/1 52/4/1
f 57/1/1 60/2/1 59/4/1 58/3/1
f 61/2/1 62/4/1 60/3/1 57/1/1
f 63/2/1 64/4/1 62/3/1 61/1/1
f 65/3/1 66/1/1 64/2/1 63/4/1
f 67/2/1 68/4/1 66/3/1 65/1/1
f 69/1/1 70/2/1 68/4/1 67/3/1
f 75/2/1 76/4/1 72/3/1 71/1/1
f 77/1/1 78/2/1 74/4/1 73/3/1
f 79/3/1 80/1/1 76/2/1 75/4/1
f 81/2/1 82/4/1 78/3/1 77/1/1
f 2/3/1 84/1/1 83/2/1 1/4/1
f 6/3/1 87/1/1 86/2/1 5/4/1
f 10/4/1 90/3/1 89/1/1 9/2/1
f 12/4/1 91/3/1 90/1/1 10/2/1
f 16/2/1 94/4/1 93/3/1 15/1/1
f 18/3/1 95/1/1 94/2/1 16/4/1
f 20/3/1 97/1/1 96/2/1 19/4/1
f 26/2/1 100/4/1 99/3/1 24/1/1
f 28/4/1 101/3/1 100/1/1 26/2/1
f 30/2/1 102/4/1 101/3/1 28/1/1
f 32/3/1 103/1/1 102/2/1 30/4/1
f 34/4/1 104/3/1 103/1/1 32/2/1
f 36/3/1 105/1/1 104/2/1 34/4/1
f 38/2/1 106/4/1 105/3/1 36/1/1
f 40/1/1 107/2/1 106/4/1 38/3/1
f 41/2/1 108/4/1 107/3/1 40/1/1
f 47/3/1 111/1/1 110/2/1 45/4/1
f 49/4/1 112/3/1 111/1/1 47/2/1
f 51/3/1 113/1/1 112/2/1 49/4/1
f 55/2/1 115/4/1 114/3/1 53/1/1
f 56/4/1 116/3/1 115/1/1 55/2/1
f 62/4/1 118/3/1 117/1/1 60/2/1
f 64/2/1 119/4/1 118/3/1 62/1/1
f 66/3/1 120/1/1 119/2/1 64/4/1
f 68/2/1 121/4/1 120/3/1 66/1/1
f 70/3/1 122/1/1 121/2/1 68/4/1
f 76/1/1 124/2/1 123/4/1 72/3/1
f 78/3/1 126/1/1 125/2/1 74/4/1
f 80/3/1 127/1/1 124/2/1 76/4/1
f 82/3/1 128/1/1 126/2/1 78/4/1
f 84/2/1 130/4/1 129/3/1 83/1/1
f 85/3/1 131/1/1 130/2/1 84/4/1
f 88/2/1 133/4/1 132/3/1 87/1/1
f 91/4/1 135/3/1 134/1/1 90/2/1
f 92/1/1 136/2/1 135/4/1 91/3/1
f 95/2/1 139/4/1 138/3/1 94/1/1
f 97/4/1 142/3/1 141/1/1 96/2/1
f 98/3/1 143/1/1 142/2/1 97/4/1
f 101/1/1 146/2/1 145/4/1 100/3/1
f 102/2/1 147/4/1 146/3/1 101/1/1
f 103/4/1 148/3/1 147/1/1 102/2/1
f 104/2/1 149/4/1 148/3/1 103/1/1
f 105/4/1 150/3/1 149/1/1 104/2/1
f 106/2/1 151/4/1 150/3/1 105/1/1
f 107/2/1 152/4/1 151/3/1 106/1/1
f 108/2/1 153/4/1 152/3/1 107/1/1
f 109/3/1 154/1/1 153/2/1 108/4/1
f 112/4/1 157/3/1 156/1/1 111/2/1
f 113/4/1 158/3/1 157/1/1 112/2/1
f 115/2/1 160/4/1 159/3/1 114/1/1
f 116/4/1 161/3/1 160/1/1 115/2/1
f 118/4/1 164/3/1 163/1/1 117/2/1
f 119/1/1 165/2/1 164/4/1 118/3/1
f 120/2/1 166/4/1 165/3/1 119/1/1
f 121/1/1 167/2/1 166/4/1 120/3/1
f 122/2/1 168/4/1 167/3/1 121/1/1
f 123/3/1 169/1/1 168/2/1 122/4/1
f 127/2/1 172/4/1 170/3/1 124/1/1
f 128/1/1 173/2/1 171/4/1 126/3/1
f 130/2/1 175/4/1 174/3/1 129/1/1
f 136/1/1 178/2/1 176/4/1 135/3/1
f 137/3/1 180/1/1 178/2/1 136/4/1
f 140/4/1 183/3/1 182/1/1 139/2/1
f 143/3/1 186/1/1 185/2/1 142/4/1
f 144/4/1 187/3/1 186/1/1 143/2/1
f 147/2/1 190/4/1 189/3/1 146/1/1
f 148/3/1 191/1/1 190/2/1 147/4/1
f 149/4/1 192/3/1 191/1/1 148/2/1
f 150/4/1 193/3/1 192/1/1 149/2/1
f 151/3/1 194/1/1 193/2/1 150/4/1
f 152/4/1 195/3/1 194/1/1 151/2/1
f 153/2/1 196/4/1 195/3/1 152/1/1
f 154/3/1 197/1/1 196/2/1 153/4/1
f 155/1/1 198/2/1 197/4/1 154/3/1
f 158/2/1 201/4/1 200/3/1 157/1/1
f 161/2/1 203/4/1 202/3/1 160/1/1
f 162/4/1 204/3/1 203/1/1 161/2/1
f 165/1/1 207/2/1 206/4/1 164/3/1
f 166/2/1 208/4/1 207/3/1 165/1/1
f 167/4/1 209/3/1 208/1/1 166/2/1
f 168/2/1 210/4/1 209/3/1 167/1/1
f 169/4/1 211/3/1 210/1/1 168/2/1
f 170/4/1 212/3/1 211/1/1 169/2/1
f 175/4/1 215/3/1 214/1/1 174/2/1
f 179/2/1 217/4/1 216/3/1 177/1/1
f 181/3/1 219/1/1 218/2/1 180/4/1
f 184/1/1 222/2/1 221/4/1 183/3/1
f 187/1/1 225/2/1 224/4/1 186/3/1
f 188/1/1 226/2/1 225/4/1 187/3/1
f 191/2/1 229/4/1 228/3/1 190/1/1
f 192/2/1 230/4/1 229/3/1 191/1/1
f 193/3/1 231/1/1 230/2/1 192/4/1
f 194/4/1 232/3/1 231/1/1 193/2/1
f 195/2/1 233/4/1 232/3/1 194/1/1
f 196/3/1 234/1/1 233/2/1 195/4/1
f 197/4/1 235/3/1 234/1/1 196/2/1
f 198/3/1 236/1/1 235/2/1 197/4/1
f 199/4/1 237/3/1 236/1/1 198/2/1
f 203/2/1 239/4/1 238/3/1 202/1/1
f 204/1/1 240/2/1 239/4/1 203/3/1
f 205/2/1 241/4/1 240/3/1 204/1/1
f 208/2/1 243/4/1 242/3/1 207/1/1
f 209/2/1 244/4/1 243/3/1 208/1/1
f 210/2/1 245/4/1 244/3/1 209/1/1
f 211/1/1 246/2/1 245/4/1 210/3/1
f 212/2/1 247/4/1 246/3/1 211/1/1
f 213/1/1 248/2/1 247/4/1 212/3/1
f 215/1/1 250/2/1 249/4/1 214/3/1
f 217/3/1 255/1/1 253/2/1 216/4/1
f 219/1/1 258/2/1 257/4/1 218/3/1
f 220/1/1 260/2/1 258/4/1 219/3/1
f 223/4/1 263/3/1 262/1/1 222/2/1
f 226/1/1 267/2/1 266/4/1 225/3/1
f 227/4/1 269/3/1 267/1/1 226/2/1
f 230/3/1 272/1/1 271/2/1 229/4/1
f 231/4/1 274/3/1 272/1/1 230/2/1
f 232/1/1 275/2/1 274/4/1 231/3/1
f 233/2/1 276/4/1 275/3/1 232/1/1
f 234/2/1 277/4/1 276/3/1 233/1/1
f 235/1/1 278/2/1 277/4/1 234/3/1
f 236/3/1 279/1/1 278/2/1 235/4/1
f 237/1/1 280/2/1 279/4/1 236/3/1
f 239/3/1 283/1/1 282/2/1 238/4/1
f 240/1/1 284/2/1 283/4/1 239/3/1
f 241/2/1 285/4/1 284/3/1 240/1/1
f 243/1/1 288/2/1 287/4/1 242/3/1
f 244/2/1 289/4/1 288/3/1 243/1/1
f 245/1/1 290/2/1 289/4/1 244/3/1
f 246/3/1 291/1/1 290/2/1 245/4/1
f 247/2/1 292/4/1 291/3/1 246/1/1
f 248/1/1 293/2/1 292/4/1 247/3/1
f 250/4/1 295/3/1 294/1/1 249/2/1
f 252/2/1 299/4/1 298/3/1 251/1/1
f 254/3/1 300/1/1 299/2/1 252/4/1
f 256/2/1 301/4/1 300/3/1 254/1/1
f 259/3/1 302/1/1 301/2/1 256/4/1
f 261/2/1 306/4/1 305/3/1 260/1/1
f 264/4/1 308/3/1 306/1/1 261/2/1
f 268/3/1 310/1/1 309/2/1 265/4/1
f 270/1/1 313/2/1 312/4/1 269/3/1
f 273/3/1 314/1/1 313/2/1 270/4/1
f 275/4/1 317/3/1 316/1/1 274/2/1
f 276/3/1 319/1/1 317/2/1 275/4/1
f 277/1/1 321/2/1 319/4/1 276/3/1
f 278/4/1 322/3/1 321/1/1 277/2/1
f 279/1/1 323/2/1 322/4/1 278/3/1
f 280/1/1 324/2/1 323/4/1 279/3/1
f 281/3/1 325/1/1 324/2/1 280/4/1
f 283/1/1 327/2/1 326/4/1 282/3/1
f 284/4/1 328/3/1 327/1/1 283/2/1
f 285/3/1 329/1/1 328/2/1 284/4/1
f 286/2/1 330/4/1 329/3/1 285/1/1
f 289/1/1 333/2/1 332/4/1 288/3/1
f 290/3/1 334/1/1 333/2/1 289/4/1
f 291/2/1 335/4/1 334/3/1 290/1/1
f 292/1/1 336/2/1 335/4/1 291/3/1
f 293/2/1 337/4/1 336/3/1 292/1/1
f 295/3/1 341/1/1 340/2/1 294/4/1
f 296/1/1 342/2/1 341/4/1 295/3/1
f 297/3/1 343/1/1 342/2/1 296/4/1
f 298/2/1 344/4/1 343/3/1 297/1/1
f 299/2/1 345/4/1 344/3/1 298/1/1
f 300/4/1 346/3/1 345/1/1 299/2/1
f 301/1/1 347/2/1 346/4/1 300/3/1
f 302/2/1 348/4/1 347/3/1 301/1/1
f 303/4/1 349/3/1 348/1/1 302/2/1
f 307/4/1 352/3/1 351/1/1 304/2/1
f 311/1/1 354/2/1 353/4/1 310/3/1
f 314/3/1 357/1/1 356/2/1 313/4/1
f 315/2/1 358/4/1 357/3/1 314/1/1
f 318/1/1 359/2/1 358/4/1 315/3/1
f 320/3/1 360/1/1 359/2/1 318/4/1
f 322/4/1 363/3/1 362/1/1 321/2/1
f 323/2/1 364/4/1 363/3/1 322/1/1
f 324/1/1 365/2/1 364/4/1 323/3/1
f 325/4/1 366/3/1 365/1/1 324/2/1
f 328/1/1 370/2/1 369/4/1 327/3/1
f 329/4/1 371/3/1 370/1/1 328/2/1
f 330/3/1 372/1/1 371/2/1 329/4/1
f 331/1/1 373/2/1 372/4/1 330/3/1
f 334/4/1 376/3/1 375/1/1 333/2/1
f 335/1/1 377/2/1 376/4/1 334/3/1
f 336/1/1 378/2/1 377/4/1 335/3/1
f 337/3/1 379/1/1 378/2/1 336/4/1
f 339/4/1 381/3/1 380/1/1 338/2/1
f 342/4/1 384/3/1 383/1/1 341/2/1
f 343/3/1 386/1/1 384/2/1 342/4/1
f 344/3/1 387/1/1 386/2/1 343/4/1
f 345/3/1 389/1/1 387/2/1 344/4/1
f 346/1/1 391/2/1 389/4/1 345/3/1
f 347/3/1 392/1/1 391/2/1 346/4/1
f 348/4/1 393/3/1 392/1/1 347/2/1
f 349/1/1 394/2/1 393/4/1 348/3/1
f 350/1/1 395/2/1 394/4/1 349/3/1
f 355/2/1 397/4/1 396/3/1 354/1/1
f 358/1/1 399/2/1 398/4/1 357/3/1
f 359/1/1 400/2/1 399/4/1 358/3/1
f 360/4/1 401/3/1 400/1/1 359/2/1
f 361/2/1 402/4/1 401/3/1 360/1/1
f 364/1/1 404/2/1 403/4/1 363/3/1
f 365/3/1 405/1/1 404/2/1 364/4/1
f 366/4/1 406/3/1 405/1/1 365/2/1
f 368/2/1 408/4/1 407/3/1 367/1/1
f 371/3/1 410/1/1 409/2/1 370/4/1
f 372/2/1 411/4/1 410/3/1 371/1/1
f 373/2/1 412/4/1 411/3/1 372/1/1
f 374/4/1 413/3/1 412/1/1 373/2/1
f 377/1/1 416/2/1 415/4/1 376/3/1
f 378/2/1 417/4/1 416/3/1 377/1/1
f 379/4/1 418/3/1 417/1/1 378/2/1
f 382/1/1 420/2/1 419/4/1 381/3/1
f 385/2/1 421/4/1 420/3/1 382/1/1
f 387/1/1 424/2/1 423/4/1 386/3/1
f 389/4/1 426/3/1 424/1/1 387/2/1
f 390/1/1 427/2/1 425/4/1 388/3/1
f 399/2/1 429/4/1 428/3/1 398/1/1
f 400/4/1 430/3/1 429/1/1 399/2/1
f 401/2/1 431/4/1 430/3/1 400/1/1
f 403/2/1 434/4/1 433/3/1 432/1/1
f 404/4/1 435/3/1 434/1/1 403/2/1
f 405/4/1 436/3/1 435/1/1 404/2/1
f 406/3/1 437/1/1 436/2/1 405/4/1
f 411/1/1 442/2/1 441/4/1 410/3/1
f 412/3/1 443/1/1 442/2/1 411/4/1
f 413/1/1 444/2/1 443/4/1 412/3/1
f 414/1/1 445/2/1 444/4/1 413/3/1
f 417/1/1 448/2/1 447/4/1 416/3/1
f 418/3/1 449/1/1 448/2/1 417/4/1
f 422/2/1 451/4/1 450/3/1 421/1/1
f 425/2/1 452/4/1 451/3/1 422/1/1
f 437/2/1 454/4/1 453/3/1 436/1/1
f 438/3/1 455/1/1 454/2/1 437/4/1
f 440/3/1 457/1/1 456/2/1 439/4/1
f 443/2/1 460/4/1 459/3/1 442/1/1
f 444/1/1 461/2/1 460/4/1 443/3/1
f 445/1/1 462/2/1 461/4/1 444/3/1
f 446/4/1 463/3/1 462/1/1 445/2/1
f 449/2/1 466/4/1 465/3/1 448/1/1
f 455/1/1 468/2/1 467/4/1 454/3/1
f 458/3/1 471/1/1 470/2/1 457/4/1
f 461/2/1 474/4/1 473/3/1 460/1/1
f 462/1/1 476/2/1 474/4/1 461/3/1
f 463/3/1 477/1/1 476/2/1 462/4/1
f 464/4/1 478/3/1 477/1/1 463/2/1
f 469/3/1 482/1/1 481/2/1 468/4/1
f 472/4/1 484/3/1 483/1/1 471/2/1
f 475/3/1 485/1/1 484/2/1 472/4/1
f 477/1/1 488/2/1 487/4/1 476/3/1
f 478/3/1 489/1/1 488/2/1 477/4/1
f 480/3/1 491/1/1 490/2/1 479/4/1
f 484/3/1 493/1/1 492/2/1 483/4/1
f 485/3/1 494/1/1 493/2/1 484/4/1
f 486/4/1 495/3/1 494/1/1 485/2/1
f 489/2/1 498/4/1 497/3/1 488/1/1
f 493/1/1 500/2/1 499/4/1 492/3/1
f 494/1/1 501/2/1 500/4/1 493/3/1
f 495/4/1 502/3/1 501/1/1 494/2/1
f 496/3/1 503/1/1 502/2/1 495/4/1
f 501/1/1 507/2/1 506/4/1 500/3/1
f 502/2/1 508/4/1 507/3/1 501/1/1
f 503/3/1 509/1/1 508/2/1 502/4/1
f 505/1/1 511/2/1 510/4/1 504/3/1
f 511/3/1 513/1/1 512/2/1 510/4/1
f 514/3/1 522/1/1 521/2/1 513/4/1
f 516/4/1 524/3/1 523/1/1 515/2/1
f 518/3/1 534/1/1 532/2/1 517/4/1
f 519/4/1 536/3/1 534/1/1 518/2/1
f 520/4/1 537/3/1 536/1/1 519/2/1
f 526/1/1 542/2/1 541/4/1 525/3/1
f 527/4/1 543/3/1 542/1/1 526/2/1
f 528/2/1 544/4/1 543/3/1 527/1/1
f 530/4/1 547/3/1 546/1/1 529/2/1
f 531/1/1 548/2/1 547/4/1 530/3/1
f 533/1/1 549/2/1 548/4/1 531/3/1
f 535/3/1 550/1/1 549/2/1 533/4/1
f 537/2/1 553/4/1 552/3/1 536/1/1
f 538/3/1 554/1/1 553/2/1 537/4/1
f 539/2/1 555/4/1 554/3/1 538/1/1
f 541/3/1 561/1/1 560/2/1 540/4/1
f 542/3/1 563/1/1 561/2/1 541/4/1
f 543/4/1 565/3/1 563/1/1 542/2/1
f 544/1/1 566/2/1 565/4/1 543/3/1
f 545/1/1 567/2/1 566/4/1 544/3/1
f 548/4/1 570/3/1 569/1/1 547/2/1
f 549/2/1 572/4/1 570/3/1 548/1/1
f 550/4/1 573/3/1 572/1/1 549/2/1
f 551/3/1 574/1/1 573/2/1 550/4/1
f 554/4/1 577/3/1 575/1/1 553/2/1
f 555/2/1 578/4/1 577/3/1 554/1/1
f 556/1/1 579/2/1 578/4/1 555/3/1
f 558/2/1 581/4/1 580/3/1 557/1/1
f 559/1/1 582/2/1 581/4/1 558/3/1
f 564/4/1 584/3/1 583/1/1 562/2/1
f 566/1/1 586/2/1 585/4/1 565/3/1
f 571/1/1 588/2/1 587/4/1 568/3/1
f 573/2/1 591/4/1 589/3/1 572/1/1
f 574/2/1 593/4/1 591/3/1 573/1/1
f 576/2/1 594/4/1 593/3/1 574/1/1
f 578/2/1 597/4/1 596/3/1 577/1/1
f 579/3/1 598/1/1 597/2/1 578/4/1
f 588/1/1 601/2/1 599/4/1 587/3/1
f 590/3/1 603/1/1 601/2/1 588/4/1
f 592/4/1 604/3/1 603/1/1 590/2/1
f 594/1/1 607/2/1 606/4/1 593/3/1
f 595/3/1 608/1/1 607/2/1 594/4/1
f 598/2/1 611/4/1 610/3/1 597/1/1
f 602/4/1 615/3/1 614/1/1 600/2/1
f 604/2/1 618/4/1 617/3/1 603/1/1
f 605/2/1 619/4/1 618/3/1 604/1/1
f 608/3/1 622/1/1 621/2/1 607/4/1
f 609/1/1 623/2/1 622/4/1 608/3/1
f 613/1/1 627/2/1 626/4/1 612/3/1
f 616/3/1 630/1/1 629/2/1 615/4/1
f 619/4/1 633/3/1 632/1/1 618/2/1
f 620/3/1 634/1/1 633/2/1 619/4/1
f 623/1/1 637/2/1 636/4/1 622/3/1
f 625/4/1 639/3/1 638/1/1 624/2/1
f 628/3/1 641/1/1 640/2/1 627/4/1
f 631/2/1 644/4/1 643/3/1 630/1/1
f 634/3/1 647/1/1 646/2/1 633/4/1
f 635/4/1 648/3/1 647/1/1 634/2/1
f 639/2/1 650/4/1 649/3/1 638/1/1
f 641/2/1 654/4/1 653/3/1 640/1/1
f 642/4/1 655/3/1 654/1/1 641/2/1
f 645/1/1 657/2/1 656/4/1 644/3/1
f 648/2/1 660/4/1 659/3/1 647/1/1
f 652/2/1 662/4/1 661/3/1 651/1/1
f 655/4/1 664/3/1 663/1/1 654/2/1
f 658/2/1 666/4/1 665/3/1 657/1/1
