mtllib lighthouse.mtl
usemtl sandstone
v 12 4 14
v 12 5 14
v 12 4 15
v 12 5 15
v 13 4 14
v 13 5 14
v 13 4 15
v 13 5 15
v 13 4 16
v 13 5 16
v 14 3 14
v 14 4 14
v 14 5 14
v 14 3 15
v 14 4 15
v 14 5 15
v 14 4 16
v 14 5 16
v 15 3 14
v 15 4 14
v 15 3 15
v 15 4 15
v 15 4 16
v 15 5 15
v 15 5 16
vt 0.000000000 0.000000000
vt 1.000000000 0.000000000
vt 0.000000000 1.000000000
vt 1.000000000 1.000000000
vn -1 0 0
vn 0 0 -1
vn 1 0 0
vn 0 0 1
f 3/2/1 4/4/1 2/3/1 1/1/1
f 1/2/2 2/4/2 6/3/2 5/1/2
f 7/1/3 5/2/3 6/4/3 8/3/3
f 3/1/4 7/2/4 8/4/4 4/3/4
f 7/2/1 8/4/1 6/3/1 5/1/1
f 5/2/2 6/4/2 13/3/2 12/1/2
f 15/1/3 12/2/3 13/4/3 16/3/3
f 7/1/4 15/2/4 16/4/4 8/3/4
f 9/2/1 10/4/1 8/3/1 7/1/1
f 7/2/2 8/4/2 16/3/2 15/1/2
f 17/1/3 15/2/3 16/4/3 18/3/3
f 9/1/4 17/2/4 18/4/4 10/3/4
f 14/2/1 15/4/1 12/3/1 11/1/1
f 11/2/2 12/4/2 20/3/2 19/1/2
f 21/1/3 19/2/3 20/4/3 22/3/3
f 14/1/4 21/2/4 22/4/4 15/3/4
f 17/2/1 18/4/1 16/3/1 15/1/1
f 15/2/2 16/4/2 24/3/2 22/1/2
f 23/1/3 22/2/3 24/4/3 25/3/3
f 17/1/4 23/2/4 25/4/4 18/3/4
