mtllib lighthouse.mtl
usemtl tuff_bricks
v -9.75 10 7.25
v -9.75 10 7.75
v -9.75 11 7.25
v -9.75 11 7.75
v -9.25 10 7.25
v -9.25 10 7.75
v -9.25 11 7.25
v -9.25 11 7.75
vt 0.250000000 0.000000000
vt 0.750000000 0.000000000
vt 0.250000000 0.250000000
vt 0.750000000 0.250000000
vt 0.250000000 0.750000000
vt 0.750000000 0.750000000
vt 0.250000000 1.000000000
vt 0.750000000 1.000000000
vn -1 0 0
vn 0 -1 0
vn 0 0 -1
vn 1 0 0
vn 0 1 0
vn 0 0 1
f 3/7/1 1/1/1 2/2/1 4/8/1
f 2/5/2 1/3/2 5/4/2 6/6/2
f 7/7/3 5/1/3 1/2/3 3/8/3
f 7/8/4 8/7/4 6/1/4 5/2/4
f 7/6/5 3/5/5 4/3/5 8/4/5
f 8/8/6 4/7/6 2/1/6 6/2/6
