mtllib lighthouse.mtl
usemtl orange_stained_glass_pane_top
v 0.3125 38 15.3125
v 0.3125 38 15.6875
v 0.3125 39 15.3125
v 0.3125 39 15.6875
v 1 38 15.3125
v 1 38 15.6875
v 1 39 15.3125
v 1 39 15.6875
v 1.3125 38 14.3125
v 1.3125 38 15
v 1.3125 39 14.3125
v 1.3125 39 15
v 1.6875 38 14.3125
v 1.6875 38 15
v 1.6875 39 14.3125
v 1.6875 39 15
v 1.6875 38 14.3125
v 1.6875 38 14.6875
v 1.6875 39 14.3125
v 1.6875 39 14.6875
v 2 38 14.3125
v 2 38 14.6875
v 2 39 14.3125
v 2 39 14.6875
v 1.3125 38 15
v 1.3125 38 15.6875
v 1.3125 39 15
v 1.3125 39 15.6875
v 1.6875 38 15
v 1.6875 38 15.6875
v 1.6875 39 15
v 1.6875 39 15.6875
v 1 38 15.3125
v 1 38 15.6875
v 1 39 15.3125
v 1 39 15.6875
v 1.3125 38 15.3125
v 1.3125 38 15.6875
v 1.3125 39 15.3125
v 1.3125 39 15.6875
v 2.3125 33 11.3125
v 2.3125 33 11.6875
v 2.3125 34 11.3125
v 2.3125 34 11.6875
v 3 33 11.3125
v 3 33 11.6875
v 3 34 11.3125
v 3 34 11.6875
v 2.3125 37 13.3125
v 2.3125 37 14
v 2.3125 38 13.3125
v 2.3125 38 14
v 2.6875 37 13.3125
v 2.6875 37 14
v 2.6875 38 13.3125
v 2.6875 38 14
v 2.6875 37 13.3125
v 2.6875 37 13.6875
v 2.6875 38 13.3125
v 2.6875 38 13.6875
v 3 37 13.3125
v 3 37 13.6875
v 3 38 13.3125
v 3 38 13.6875
v 2.3125 37 14
v 2.3125 37 14.6875
v 2.3125 38 14
v 2.3125 38 14.6875
v 2.6875 37 14
v 2.6875 37 14.6875
v 2.6875 38 14
v 2.6875 38 14.6875
v 2.6875 37 14.3125
v 2.6875 37 14.6875
v 2.6875 38 14.3125
v 2.6875 38 14.6875
v 3 37 14.3125
v 3 37 14.6875
v 3 38 14.3125
v 3 38 14.6875
v 2 38 14.3125
v 2 38 14.6875
v 2 39 14.3125
v 2 39 14.6875
v 3 38 14.3125
v 3 38 14.6875
v 3 39 14.3125
v 3 39 14.6875
v 3.3125 33 9.3125
v 3.3125 33 10
v 3.3125 34 9.3125
v 3.3125 34 10
v 3.6875 33 9.3125
v 3.6875 33 10
v 3.6875 34 9.3125
v 3.6875 34 10
v 3.6875 33 9.3125
v 3.6875 33 9.6875
v 3.6875 34 9.3125
v 3.6875 34 9.6875
v 4 33 9.3125
v 4 33 9.6875
v 4 34 9.3125
v 4 34 9.6875
v 3.3125 33 10
v 3.3125 33 11
v 3.3125 34 10
v 3.3125 34 11
v 3.6875 33 10
v 3.6875 33 11
v 3.6875 34 10
v 3.6875 34 11
v 3.6875 33 10.3125
v 3.6875 33 10.6875
v 3.6875 34 10.3125
v 3.6875 34 10.6875
v 4 33 10.3125
v 4 33 10.6875
v 4 34 10.3125
v 4 34 10.6875
v 3.3125 33 11
v 3.3125 33 11.6875
v 3.3125 34 11
v 3.3125 34 11.6875
v 3.6875 33 11
v 3.6875 33 11.6875
v 3.6875 34 11
v 3.6875 34 11.6875
v 3 33 11.3125
v 3 33 11.6875
v 3 34 11.3125
v 3 34 11.6875
v 3.3125 33 11.3125
v 3.3125 33 11.6875
v 3.3125 34 11.3125
v 3.3125 34 11.6875
v 3.3125 33 13.3125
v 3.3125 33 14
v 3.3125 34 13.3125
v 3.3125 34 14
v 3.6875 33 13.3125
v 3.6875 33 14
v 3.6875 34 13.3125
v 3.6875 34 14
v 3.6875 33 13.3125
v 3.6875 33 13.6875
v 3.6875 34 13.3125
v 3.6875 34 13.6875
v 4 33 13.3125
v 4 33 13.6875
v 4 34 13.3125
v 4 34 13.6875
v 3.3125 38 13.3125
v 3.3125 38 14
v 3.3125 39 13.3125
v 3.3125 39 14
v 3.6875 38 13.3125
v 3.6875 38 14
v 3.6875 39 13.3125
v 3.6875 39 14
v 3.3125 33 14
v 3.3125 33 15
v 3.3125 34 14
v 3.3125 34 15
v 3.6875 33 14
v 3.6875 33 15
v 3.6875 34 14
v 3.6875 34 15
v 3.6875 33 14.3125
v 3.6875 33 14.6875
v 3.6875 34 14.3125
v 3.6875 34 14.6875
v 4 33 14.3125
v 4 33 14.6875
v 4 34 14.3125
v 4 34 14.6875
v 3.3125 37 14
v 3.3125 37 14.6875
v 3.3125 38 14
v 3.3125 38 14.6875
v 3.6875 37 14
v 3.6875 37 14.6875
v 3.6875 38 14
v 3.6875 38 14.6875
v 3 37 14.3125
v 3 37 14.6875
v 3 38 14.3125
v 3 38 14.6875
v 3.3125 37 14.3125
v 3.3125 37 14.6875
v 3.3125 38 14.3125
v 3.3125 38 14.6875
v 3.3125 38 14
v 3.3125 38 14.6875
v 3.3125 39 14
v 3.3125 39 14.6875
v 3.6875 38 14
v 3.6875 38 14.6875
v 3.6875 39 14
v 3.6875 39 14.6875
v 3 38 14.3125
v 3 38 14.6875
v 3 39 14.3125
v 3 39 14.6875
v 3.3125 38 14.3125
v 3.3125 38 14.6875
v 3.3125 39 14.3125
v 3.3125 39 14.6875
v 3.3125 32 15.3125
v 3.3125 32 16
v 3.3125 33 15.3125
v 3.3125 33 16
v 3.6875 32 15.3125
v 3.6875 32 16
v 3.6875 33 15.3125
v 3.6875 33 16
v 3.3125 33 15
v 3.3125 33 15.6875
v 3.3125 34 15
v 3.3125 34 15.6875
v 3.6875 33 15
v 3.6875 33 15.6875
v 3.6875 34 15
v 3.6875 34 15.6875
v 4.3125 33 9.6875
v 4.3125 33 10
v 4.3125 34 9.6875
v 4.3125 34 10
v 4.6875 33 9.6875
v 4.6875 33 10
v 4.6875 34 9.6875
v 4.6875 34 10
v 4 33 9.3125
v 4 33 9.6875
v 4 34 9.3125
v 4 34 9.6875
v 5 33 9.3125
v 5 33 9.6875
v 5 34 9.3125
v 5 34 9.6875
v 4.3125 34 9.3125
v 4.3125 34 9.6875
v 4.3125 35 9.3125
v 4.3125 35 9.6875
v 5 34 9.3125
v 5 34 9.6875
v 5 35 9.3125
v 5 35 9.6875
v 4.3125 33 10
v 4.3125 33 10.6875
v 4.3125 34 10
v 4.3125 34 10.6875
v 4.6875 33 10
v 4.6875 33 10.6875
v 4.6875 34 10
v 4.6875 34 10.6875
v 4 33 10.3125
v 4 33 10.6875
v 4 34 10.3125
v 4 34 10.6875
v 4.3125 33 10.3125
v 4.3125 33 10.6875
v 4.3125 34 10.3125
v 4.3125 34 10.6875
v 4.3125 35 10.3125
v 4.3125 35 10.6875
v 4.3125 36 10.3125
v 4.3125 36 10.6875
v 5 35 10.3125
v 5 35 10.6875
v 5 36 10.3125
v 5 36 10.6875
v 4.3125 33 14
v 4.3125 33 14.6875
v 4.3125 34 14
v 4.3125 34 14.6875
v 4.6875 33 14
v 4.6875 33 14.6875
v 4.6875 34 14
v 4.6875 34 14.6875
v 4 33 14.3125
v 4 33 14.6875
v 4 34 14.3125
v 4 34 14.6875
v 4.3125 33 14.3125
v 4.3125 33 14.6875
v 4.3125 34 14.3125
v 4.3125 34 14.6875
v 5 33 9.3125
v 5 33 9.6875
v 5 34 9.3125
v 5 34 9.6875
v 5.6875 33 9.3125
v 5.6875 33 9.6875
v 5.6875 34 9.3125
v 5.6875 34 9.6875
v 5.3125 35 9.3125
v 5.3125 35 10
v 5.3125 36 9.3125
v 5.3125 36 10
v 5.6875 35 9.3125
v 5.6875 35 10
v 5.6875 36 9.3125
v 5.6875 36 10
v 5.3125 35 10
v 5.3125 35 10.6875
v 5.3125 36 10
v 5.3125 36 10.6875
v 5.6875 35 10
v 5.6875 35 10.6875
v 5.6875 36 10
v 5.6875 36 10.6875
v 5 35 10.3125
v 5 35 10.6875
v 5 36 10.3125
v 5 36 10.6875
v 5.3125 35 10.3125
v 5.3125 35 10.6875
v 5.3125 36 10.3125
v 5.3125 36 10.6875
v 7.3125 35 14.3125
v 7.3125 35 14.6875
v 7.3125 36 14.3125
v 7.3125 36 14.6875
v 8 35 14.3125
v 8 35 14.6875
v 8 36 14.3125
v 8 36 14.6875
v 8.3125 35 13.3125
v 8.3125 35 14
v 8.3125 36 13.3125
v 8.3125 36 14
v 8.6875 35 13.3125
v 8.6875 35 14
v 8.6875 36 13.3125
v 8.6875 36 14
v 8.6875 35 13.3125
v 8.6875 35 13.6875
v 8.6875 36 13.3125
v 8.6875 36 13.6875
v 9 35 13.3125
v 9 35 13.6875
v 9 36 13.3125
v 9 36 13.6875
v 8.3125 35 14
v 8.3125 35 14.6875
v 8.3125 36 14
v 8.3125 36 14.6875
v 8.6875 35 14
v 8.6875 35 14.6875
v 8.6875 36 14
v 8.6875 36 14.6875
v 8 35 14.3125
v 8 35 14.6875
v 8 36 14.3125
v 8 36 14.6875
v 8.3125 35 14.3125
v 8.3125 35 14.6875
v 8.3125 36 14.3125
v 8.3125 36 14.6875
v 9 35 13.3125
v 9 35 13.6875
v 9 36 13.3125
v 9 36 13.6875
v 9.6875 35 13.3125
v 9.6875 35 13.6875
v 9.6875 36 13.3125
v 9.6875 36 13.6875
vt 0.312500000 0.000000000
vt 0.687500000 0.000000000
vt 0.312500000 0.312500000
vt 0.687500000 0.312500000
vt 0.312500000 0.687500000
vt 0.687500000 0.687500000
vt 0.312500000 1.000000000
vt 0.687500000 1.000000000
vn 0 -1 0
vn 0 1 0
f 2/3/1 1/4/1 5/8/1 6/7/1
f 7/7/2 3/3/2 4/4/2 8/8/2
f 10/5/1 9/1/1 13/2/1 14/6/1
f 15/6/2 11/5/2 12/1/2 16/2/2
f 18/5/1 17/6/1 21/8/1 22/7/1
f 23/7/2 19/5/2 20/6/2 24/8/2
f 26/7/1 25/3/1 29/4/1 30/8/1
f 31/8/2 27/7/2 28/3/2 32/4/2
f 34/1/1 33/2/1 37/4/1 38/3/1
f 39/3/2 35/1/2 36/2/2 40/4/2
f 42/3/1 41/4/1 45/8/1 46/7/1
f 47/7/2 43/3/2 44/4/2 48/8/2
f 50/5/1 49/1/1 53/2/1 54/6/1
f 55/6/2 51/5/2 52/1/2 56/2/2
f 58/5/1 57/6/1 61/8/1 62/7/1
f 63/7/2 59/5/2 60/6/2 64/8/2
f 66/7/1 65/3/1 69/4/1 70/8/1
f 71/8/2 67/7/2 68/3/2 72/4/2
f 74/5/1 73/6/1 77/8/1 78/7/1
f 79/7/2 75/5/2 76/6/2 80/8/2
f 82/1/1 81/2/1 85/8/1 86/7/1
f 87/7/2 83/1/2 84/2/2 88/8/2
f 90/5/1 89/1/1 93/2/1 94/6/1
f 95/6/2 91/5/2 92/1/2 96/2/2
f 98/5/1 97/6/1 101/8/1 102/7/1
f 103/7/2 99/5/2 100/6/2 104/8/2
f 106/7/1 105/1/1 109/2/1 110/8/1
f 111/8/2 107/7/2 108/1/2 112/2/2
f 114/5/1 113/6/1 117/8/1 118/7/1
f 119/7/2 115/5/2 116/6/2 120/8/2
f 122/7/1 121/3/1 125/4/1 126/8/1
f 127/8/2 123/7/2 124/3/2 128/4/2
f 130/1/1 129/2/1 133/4/1 134/3/1
f 135/3/2 131/1/2 132/2/2 136/4/2
f 138/5/1 137/1/1 141/2/1 142/6/1
f 143/6/2 139/5/2 140/1/2 144/2/2
f 146/5/1 145/6/1 149/8/1 150/7/1
f 151/7/2 147/5/2 148/6/2 152/8/2
f 154/5/1 153/1/1 157/2/1 158/6/1
f 159/6/2 155/5/2 156/1/2 160/2/2
f 162/7/1 161/1/1 165/2/1 166/8/1
f 167/8/2 163/7/2 164/1/2 168/2/2
f 170/5/1 169/6/1 173/8/1 174/7/1
f 175/7/2 171/5/2 172/6/2 176/8/2
f 178/7/1 177/3/1 181/4/1 182/8/1
f 183/8/2 179/7/2 180/3/2 184/4/2
f 186/1/1 185/2/1 189/4/1 190/3/1
f 191/3/2 187/1/2 188/2/2 192/4/2
f 194/7/1 193/3/1 197/4/1 198/8/1
f 199/8/2 195/7/2 196/3/2 200/4/2
f 202/1/1 201/2/1 205/4/1 206/3/1
f 207/3/2 203/1/2 204/2/2 208/4/2
f 210/5/1 209/1/1 213/2/1 214/6/1
f 215/6/2 211/5/2 212/1/2 216/2/2
f 218/7/1 217/3/1 221/4/1 222/8/1
f 223/8/2 219/7/2 220/3/2 224/4/2
f 226/3/1 225/1/1 229/2/1 230/4/1
f 231/4/2 227/3/2 228/1/2 232/2/2
f 234/1/1 233/2/1 237/8/1 238/7/1
f 239/7/2 235/1/2 236/2/2 240/8/2
f 242/3/1 241/4/1 245/8/1 246/7/1
f 247/7/2 243/3/2 244/4/2 248/8/2
f 250/7/1 249/3/1 253/4/1 254/8/1
f 255/8/2 251/7/2 252/3/2 256/4/2
f 258/1/1 257/2/1 261/4/1 262/3/1
f 263/3/2 259/1/2 260/2/2 264/4/2
f 266/3/1 265/4/1 269/8/1 270/7/1
f 271/7/2 267/3/2 268/4/2 272/8/2
f 274/7/1 273/3/1 277/4/1 278/8/1
f 279/8/2 275/7/2 276/3/2 280/4/2
f 282/1/1 281/2/1 285/4/1 286/3/1
f 287/3/2 283/1/2 284/2/2 288/4/2
f 290/1/1 289/2/1 293/6/1 294/5/1
f 295/5/2 291/1/2 292/2/2 296/6/2
f 298/5/1 297/1/1 301/2/1 302/6/1
f 303/6/2 299/5/2 300/1/2 304/2/2
f 306/7/1 305/3/1 309/4/1 310/8/1
f 311/8/2 307/7/2 308/3/2 312/4/2
f 314/1/1 313/2/1 317/4/1 318/3/1
f 319/3/2 315/1/2 316/2/2 320/4/2
f 322/3/1 321/4/1 325/8/1 326/7/1
f 327/7/2 323/3/2 324/4/2 328/8/2
f 330/5/1 329/1/1 333/2/1 334/6/1
f 335/6/2 331/5/2 332/1/2 336/2/2
f 338/5/1 337/6/1 341/8/1 342/7/1
f 343/7/2 339/5/2 340/6/2 344/8/2
f 346/7/1 345/3/1 349/4/1 350/8/1
f 351/8/2 347/7/2 348/3/2 352/4/2
f 354/1/1 353/2/1 357/4/1 358/3/1
f 359/3/2 355/1/2 356/2/2 360/4/2
f 362/1/1 361/2/1 365/6/1 366/5/1
f 367/5/2 363/1/2 364/2/2 368/6/2
