mtllib lighthouse.mtl
usemtl bamboo_planks
v -2 34.5 0
v -2 34.5 1
v -2 35 0
v -2 35 1
v -1 34.5 0
v -1 34.5 1
v -1 35 0
v -1 35 1
v -2 34 1
v -2 34 2
v -2 34.5 1
v -2 34.5 2
v -1 34 1
v -1 34 2
v -1 34.5 1
v -1 34.5 2
v -2 33.5 2
v -2 33.5 3
v -2 34 2
v -2 34 3
v -1 33.5 2
v -1 33.5 3
v -1 34 2
v -1 34 3
v -2 33 3
v -2 33 4
v -2 33.5 3
v -2 33.5 4
v -1 33 3
v -1 33 4
v -1 33.5 3
v -1 33.5 4
v -1 34 -1
v -1 34 0
v -1 34.5 -1
v -1 34.5 0
v 0 34 -1
v 0 34 0
v 0 34.5 -1
v 0 34.5 0
v 0 33.5 -1
v 0 33.5 0
v 0 34 -1
v 0 34 0
v 1 33.5 -1
v 1 33.5 0
v 1 34 -1
v 1 34 0
v 1 33 -1
v 1 33 0
v 1 33.5 -1
v 1 33.5 0
v 2 33 -1
v 2 33 0
v 2 33.5 -1
v 2 33.5 0
vt 0.000000000 0.000000000
vt 1.000000000 0.000000000
vt 0.000000000 0.500000000
vt 1.000000000 0.500000000
vt 0.000000000 1.000000000
vt 1.000000000 1.000000000
vn -1 0 0
vn 0 -1 0
vn 0 0 -1
vn 1 0 0
vn 0 1 0
vn 0 0 1
f 3/5/1 1/3/1 2/4/1 4/6/1
f 2/5/2 1/1/2 5/2/2 6/6/2
f 7/5/3 5/3/3 1/4/3 3/6/3
f 7/6/4 8/5/4 6/3/4 5/4/4
f 7/6/5 3/5/5 4/1/5 8/2/5
f 8/6/6 4/5/6 2/3/6 6/4/6
f 11/3/1 9/1/1 10/2/1 12/4/1
f 10/5/2 9/1/2 13/2/2 14/6/2
f 15/3/3 13/1/3 9/2/3 11/4/3
f 15/4/4 16/3/4 14/1/4 13/2/4
f 15/6/5 11/5/5 12/1/5 16/2/5
f 16/4/6 12/3/6 10/1/6 14/2/6
f 19/5/1 17/3/1 18/4/1 20/6/1
f 18/5/2 17/1/2 21/2/2 22/6/2
f 23/5/3 21/3/3 17/4/3 19/6/3
f 23/6/4 24/5/4 22/3/4 21/4/4
f 23/6/5 19/5/5 20/1/5 24/2/5
f 24/6/6 20/5/6 18/3/6 22/4/6
f 27/3/1 25/1/1 26/2/1 28/4/1
f 26/5/2 25/1/2 29/2/2 30/6/2
f 31/3/3 29/1/3 25/2/3 27/4/3
f 31/4/4 32/3/4 30/1/4 29/2/4
f 31/6/5 27/5/5 28/1/5 32/2/5
f 32/4/6 28/3/6 26/1/6 30/2/6
f 35/3/1 33/1/1 34/2/1 36/4/1
f 34/5/2 33/1/2 37/2/2 38/6/2
f 39/3/3 37/1/3 33/2/3 35/4/3
f 39/4/4 40/3/4 38/1/4 37/2/4
f 39/6/5 35/5/5 36/1/5 40/2/5
f 40/4/6 36/3/6 34/1/6 38/2/6
f 43/5/1 41/3/1 42/4/1 44/6/1
f 42/5/2 41/1/2 45/2/2 46/6/2
f 47/5/3 45/3/3 41/4/3 43/6/3
f 47/6/4 48/5/4 46/3/4 45/4/4
f 47/6/5 43/5/5 44/1/5 48/2/5
f 48/6/6 44/5/6 42/3/6 46/4/6
f 51/3/1 49/1/1 50/2/1 52/4/1
f 50/5/2 49/1/2 53/2/2 54/6/2
f 55/3/3 53/1/3 49/2/3 51/4/3
f 55/4/4 56/3/4 54/1/4 53/2/4
f 55/6/5 51/5/5 52/1/5 56/2/5
f 56/4/6 52/3/6 50/1/6 54/2/6
