mtllib lighthouse.mtl
usemtl gravel
v -13 0 3
v -13 1 3
v -13 2 3
v -13 0 4
v -13 1 4
v -13 2 4
v -12 0 2
v -12 1 2
v -12 2 2
v -12 0 3
v -12 1 3
v -12 2 3
v -12 0 4
v -12 1 4
v -12 2 4
v -12 0 5
v -12 1 5
v -12 2 5
v -12 0 6
v -12 1 6
v -12 2 6
v -11 0 2
v -11 1 2
v -11 2 2
v -11 0 3
v -11 1 3
v -11 2 3
v -11 3 3
v -11 0 4
v -11 1 4
v -11 2 4
v -11 3 4
v -11 0 5
v -11 1 5
v -11 2 5
v -11 3 5
v -11 0 6
v -11 1 6
v -11 2 6
v -11 3 6
v -11 0 7
v -11 1 7
v -11 2 7
v -11 3 7
v -10 0 3
v -10 1 3
v -10 2 3
v -10 3 3
v -10 0 4
v -10 1 4
v -10 2 4
v -10 3 4
v -10 4 4
v -10 0 5
v -10 1 5
v -10 2 5
v -10 3 5
v -10 4 5
v -10 0 6
v -10 1 6
v -10 2 6
v -10 3 6
v -10 4 6
v -10 0 7
v -10 1 7
v -10 2 7
v -10 3 7
v -10 4 7
v -10 0 8
v -10 1 8
v -10 2 8
v -10 3 8
v -9 0 3
v -9 1 3
v -9 2 3
v -9 3 3
v -9 0 4
v -9 1 4
v -9 2 4
v -9 3 4
v -9 4 4
v -9 0 5
v -9 1 5
v -9 2 5
v -9 3 5
v -9 4 5
v -9 0 6
v -9 1 6
v -9 2 6
v -9 3 6
v -9 4 6
v -9 0 7
v -9 1 7
v -9 2 7
v -9 3 7
v -9 4 7
v -9 0 8
v -9 1 8
v -9 2 8
v -9 3 8
v -8 0 3
v -8 1 3
v -8 2 3
v -8 3 3
v -8 0 4
v -8 1 4
v -8 2 4
v -8 3 4
v -8 4 4
v -8 0 5
v -8 1 5
v -8 2 5
v -8 3 5
v -8 4 5
v -8 0 6
v -8 1 6
v -8 2 6
v -8 3 6
v -8 4 6
v -8 0 7
v -8 1 7
v -8 2 7
v -8 3 7
v -8 4 7
v -8 0 8
v -8 1 8
v -8 2 8
v -8 3 8
v -8 4 8
v -8 0 9
v -8 1 9
v -8 2 9
v -8 3 9
v -7 1 3
v -7 2 3
v -7 0 4
v -7 1 4
v -7 2 4
v -7 3 4
v -7 0 5
v -7 1 5
v -7 2 5
v -7 3 5
v -7 4 5
v -7 0 6
v -7 1 6
v -7 2 6
v -7 3 6
v -7 4 6
v -7 0 7
v -7 1 7
v -7 2 7
v -7 3 7
v -7 4 7
v -7 0 8
v -7 1 8
v -7 2 8
v -7 3 8
v -7 4 8
v -7 0 9
v -7 1 9
v -7 2 9
v -7 3 9
v -7 4 9
v -6 1 4
v -6 2 4
v -6 0 5
v -6 1 5
v -6 2 5
v -6 3 5
v -6 4 5
v -6 0 6
v -6 1 6
v -6 2 6
v -6 3 6
v -6 4 6
v -6 0 7
v -6 1 7
v -6 2 7
v -6 3 7
v -6 4 7
v -6 0 8
v -6 1 8
v -6 2 8
v -6 3 8
v -6 4 8
v -6 0 9
v -6 1 9
v -6 2 9
v -6 3 9
v -6 4 9
v -6 1 10
v -6 2 10
v -5 0 5
v -5 1 5
v -5 2 5
v -5 3 5
v -5 0 6
v -5 1 6
v -5 2 6
v -5 3 6
v -5 4 6
v -5 0 7
v -5 1 7
v -5 2 7
v -5 3 7
v -5 4 7
v -5 0 8
v -5 1 8
v -5 2 8
v -5 3 8
v -5 4 8
v -5 0 9
v -5 1 9
v -5 2 9
v -5 3 9
v -5 1 10
v -5 2 10
v -5 3 10
v -5 0 12
v -5 1 12
v -5 0 13
v -5 1 13
v -5 0 14
v -5 1 14
v -4 1 6
v -4 2 6
v -4 3 6
v -4 1 7
v -4 2 7
v -4 3 7
v -4 0 8
v -4 1 8
v -4 2 8
v -4 3 8
v -4 0 9
v -4 1 9
v -4 2 9
v -4 3 9
v -4 1 10
v -4 2 10
v -4 3 10
v -4 0 12
v -4 1 12
v -4 0 13
v -4 1 13
v -4 0 14
v -4 1 14
v -3 1 8
v -3 2 8
v -3 3 8
v -3 1 9
v -3 2 9
v -3 3 9
vt 0.000000000 0.000000000
vt 1.000000000 0.000000000
vt 0.000000000 1.000000000
vt 1.000000000 1.000000000
vn -1 0 0
vn 0 -1 0
vn 0 0 -1
vn 1 0 0
vn 0 1 0
vn 0 0 1
f 4/2/1 5/4/1 2/3/1 1/1/1
f 4/3/2 1/1/2 10/2/2 13/4/2
f 1/2/3 2/4/3 11/3/3 10/1/3
f 13/1/4 10/2/4 11/4/4 14/3/4
f 5/1/5 14/2/5 11/4/5 2/3/5
f 4/1/6 13/2/6 14/4/6 5/3/6
f 5/2/1 6/4/1 3/3/1 2/1/1
f 5/3/2 2/1/2 11/2/2 14/4/2
f 2/2/3 3/4/3 12/3/3 11/1/3
f 14/1/4 11/2/4 12/4/4 15/3/4
f 6/1/5 15/2/5 12/4/5 3/3/5
f 5/1/6 14/2/6 15/4/6 6/3/6
f 10/2/1 11/4/1 8/3/1 7/1/1
f 10/3/2 7/1/2 22/2/2 25/4/2
f 7/2/3 8/4/3 23/3/3 22/1/3
f 25/1/4 22/2/4 23/4/4 26/3/4
f 11/1/5 26/2/5 23/4/5 8/3/5
f 10/1/6 25/2/6 26/4/6 11/3/6
f 11/2/1 12/4/1 9/3/1 8/1/1
f 11/3/2 8/1/2 23/2/2 26/4/2
f 8/2/3 9/4/3 24/3/3 23/1/3
f 26/1/4 23/2/4 24/4/4 27/3/4
f 12/1/5 27/2/5 24/4/5 9/3/5
f 11/1/6 26/2/6 27/4/6 12/3/6
f 13/2/1 14/4/1 11/3/1 10/1/1
f 13/3/2 10/1/2 25/2/2 29/4/2
f 10/2/3 11/4/3 26/3/3 25/1/3
f 29/1/4 25/2/4 26/4/4 30/3/4
f 14/1/5 30/2/5 26/4/5 11/3/5
f 13/1/6 29/2/6 30/4/6 14/3/6
f 14/2/1 15/4/1 12/3/1 11/1/1
f 14/3/2 11/1/2 26/2/2 30/4/2
f 11/2/3 12/4/3 27/3/3 26/1/3
f 30/1/4 26/2/4 27/4/4 31/3/4
f 15/1/5 31/2/5 27/4/5 12/3/5
f 14/1/6 30/2/6 31/4/6 15/3/6
f 16/2/1 17/4/1 14/3/1 13/1/1
f 16/3/2 13/1/2 29/2/2 33/4/2
f 13/2/3 14/4/3 30/3/3 29/1/3
f 33/1/4 29/2/4 30/4/4 34/3/4
f 17/1/5 34/2/5 30/4/5 14/3/5
f 16/1/6 33/2/6 34/4/6 17/3/6
f 17/2/1 18/4/1 15/3/1 14/1/1
f 17/3/2 14/1/2 30/2/2 34/4/2
f 14/2/3 15/4/3 31/3/3 30/1/3
f 34/1/4 30/2/4 31/4/4 35/3/4
f 18/1/5 35/2/5 31/4/5 15/3/5
f 17/1/6 34/2/6 35/4/6 18/3/6
f 19/2/1 20/4/1 17/3/1 16/1/1
f 19/3/2 16/1/2 33/2/2 37/4/2
f 16/2/3 17/4/3 34/3/3 33/1/3
f 37/1/4 33/2/4 34/4/4 38/3/4
f 20/1/5 38/2/5 34/4/5 17/3/5
f 19/1/6 37/2/6 38/4/6 20/3/6
f 20/2/1 21/4/1 18/3/1 17/1/1
f 20/3/2 17/1/2 34/2/2 38/4/2
f 17/2/3 18/4/3 35/3/3 34/1/3
f 38/1/4 34/2/4 35/4/4 39/3/4
f 21/1/5 39/2/5 35/4/5 18/3/5
f 20/1/6 38/2/6 39/4/6 21/3/6
f 29/2/1 30/4/1 26/3/1 25/1/1
f 29/3/2 25/1/2 45/2/2 49/4/2
f 25/2/3 26/4/3 46/3/3 45/1/3
f 49/1/4 45/2/4 46/4/4 50/3/4
f 30/1/5 50/2/5 46/4/5 26/3/5
f 29/1/6 49/2/6 50/4/6 30/3/6
f 30/2/1 31/4/1 27/3/1 26/1/1
f 30/3/2 26/1/2 46/2/2 50/4/2
f 26/2/3 27/4/3 47/3/3 46/1/3
f 50/1/4 46/2/4 47/4/4 51/3/4
f 31/1/5 51/2/5 47/4/5 27/3/5
f 30/1/6 50/2/6 51/4/6 31/3/6
f 31/2/1 32/4/1 28/3/1 27/1/1
f 31/3/2 27/1/2 47/2/2 51/4/2
f 27/2/3 28/4/3 48/3/3 47/1/3
f 51/1/4 47/2/4 48/4/4 52/3/4
f 32/1/5 52/2/5 48/4/5 28/3/5
f 31/1/6 51/2/6 52/4/6 32/3/6
f 33/2/1 34/4/1 30/3/1 29/1/1
f 33/3/2 29/1/2 49/2/2 54/4/2
f 29/2/3 30/4/3 50/3/3 49/1/3
f 54/1/4 49/2/4 50/4/4 55/3/4
f 34/1/5 55/2/5 50/4/5 30/3/5
f 33/1/6 54/2/6 55/4/6 34/3/6
f 34/2/1 35/4/1 31/3/1 30/1/1
f 34/3/2 30/1/2 50/2/2 55/4/2
f 30/2/3 31/4/3 51/3/3 50/1/3
f 55/1/4 50/2/4 51/4/4 56/3/4
f 35/1/5 56/2/5 51/4/5 31/3/5
f 34/1/6 55/2/6 56/4/6 35/3/6
f 35/2/1 36/4/1 32/3/1 31/1/1
f 35/3/2 31/1/2 51/2/2 56/4/2
f 31/2/3 32/4/3 52/3/3 51/1/3
f 56/1/4 51/2/4 52/4/4 57/3/4
f 36/1/5 57/2/5 52/4/5 32/3/5
f 35/1/6 56/2/6 57/4/6 36/3/6
f 37/2/1 38/4/1 34/3/1 33/1/1
f 37/3/2 33/1/2 54/2/2 59/4/2
f 33/2/3 34/4/3 55/3/3 54/1/3
f 59/1/4 54/2/4 55/4/4 60/3/4
f 38/1/5 60/2/5 55/4/5 34/3/5
f 37/1/6 59/2/6 60/4/6 38/3/6
f 38/2/1 39/4/1 35/3/1 34/1/1
f 38/3/2 34/1/2 55/2/2 60/4/2
f 34/2/3 35/4/3 56/3/3 55/1/3
f 60/1/4 55/2/4 56/4/4 61/3/4
f 39/1/5 61/2/5 56/4/5 35/3/5
f 38/1/6 60/2/6 61/4/6 39/3/6
f 39/2/1 40/4/1 36/3/1 35/1/1
f 39/3/2 35/1/2 56/2/2 61/4/2
f 35/2/3 36/4/3 57/3/3 56/1/3
f 61/1/4 56/2/4 57/4/4 62/3/4
f 40/1/5 62/2/5 57/4/5 36/3/5
f 39/1/6 61/2/6 62/4/6 40/3/6
f 41/2/1 42/4/1 38/3/1 37/1/1
f 41/3/2 37/1/2 59/2/2 64/4/2
f 37/2/3 38/4/3 60/3/3 59/1/3
f 64/1/4 59/2/4 60/4/4 65/3/4
f 42/1/5 65/2/5 60/4/5 38/3/5
f 41/1/6 64/2/6 65/4/6 42/3/6
f 42/2/1 43/4/1 39/3/1 38/1/1
f 42/3/2 38/1/2 60/2/2 65/4/2
f 38/2/3 39/4/3 61/3/3 60/1/3
f 65/1/4 60/2/4 61/4/4 66/3/4
f 43/1/5 66/2/5 61/4/5 39/3/5
f 42/1/6 65/2/6 66/4/6 43/3/6
f 43/2/1 44/4/1 40/3/1 39/1/1
f 43/3/2 39/1/2 61/2/2 66/4/2
f 39/2/3 40/4/3 62/3/3 61/1/3
f 66/1/4 61/2/4 62/4/4 67/3/4
f 44/1/5 67/2/5 62/4/5 40/3/5
f 43/1/6 66/2/6 67/4/6 44/3/6
f 49/2/1 50/4/1 46/3/1 45/1/1
f 49/3/2 45/1/2 73/2/2 77/4/2
f 45/2/3 46/4/3 74/3/3 73/1/3
f 77/1/4 73/2/4 74/4/4 78/3/4
f 50/1/5 78/2/5 74/4/5 46/3/5
f 49/1/6 77/2/6 78/4/6 50/3/6
f 50/2/1 51/4/1 47/3/1 46/1/1
f 50/3/2 46/1/2 74/2/2 78/4/2
f 46/2/3 47/4/3 75/3/3 74/1/3
f 78/1/4 74/2/4 75/4/4 79/3/4
f 51/1/5 79/2/5 75/4/5 47/3/5
f 50/1/6 78/2/6 79/4/6 51/3/6
f 51/2/1 52/4/1 48/3/1 47/1/1
f 51/3/2 47/1/2 75/2/2 79/4/2
f 47/2/3 48/4/3 76/3/3 75/1/3
f 79/1/4 75/2/4 76/4/4 80/3/4
f 52/1/5 80/2/5 76/4/5 48/3/5
f 51/1/6 79/2/6 80/4/6 52/3/6
f 54/2/1 55/4/1 50/3/1 49/1/1
f 54/3/2 49/1/2 77/2/2 82/4/2
f 49/2/3 50/4/3 78/3/3 77/1/3
f 82/1/4 77/2/4 78/4/4 83/3/4
f 55/1/5 83/2/5 78/4/5 50/3/5
f 54/1/6 82/2/6 83/4/6 55/3/6
f 55/2/1 56/4/1 51/3/1 50/1/1
f 55/3/2 50/1/2 78/2/2 83/4/2
f 50/2/3 51/4/3 79/3/3 78/1/3
f 83/1/4 78/2/4 79/4/4 84/3/4
f 56/1/5 84/2/5 79/4/5 51/3/5
f 55/1/6 83/2/6 84/4/6 56/3/6
f 56/2/1 57/4/1 52/3/1 51/1/1
f 56/3/2 51/1/2 79/2/2 84/4/2
f 51/2/3 52/4/3 80/3/3 79/1/3
f 84/1/4 79/2/4 80/4/4 85/3/4
f 57/1/5 85/2/5 80/4/5 52/3/5
f 56/1/6 84/2/6 85/4/6 57/3/6
f 57/2/1 58/4/1 53/3/1 52/1/1
f 57/3/2 52/1/2 80/2/2 85/4/2
f 52/2/3 53/4/3 81/3/3 80/1/3
f 85/1/4 80/2/4 81/4/4 86/3/4
f 58/1/5 86/2/5 81/4/5 53/3/5
f 57/1/6 85/2/6 86/4/6 58/3/6
f 59/2/1 60/4/1 55/3/1 54/1/1
f 59/3/2 54/1/2 82/2/2 87/4/2
f 54/2/3 55/4/3 83/3/3 82/1/3
f 87/1/4 82/2/4 83/4/4 88/3/4
f 60/1/5 88/2/5 83/4/5 55/3/5
f 59/1/6 87/2/6 88/4/6 60/3/6
f 60/2/1 61/4/1 56/3/1 55/1/1
f 60/3/2 55/1/2 83/2/2 88/4/2
f 55/2/3 56/4/3 84/3/3 83/1/3
f 88/1/4 83/2/4 84/4/4 89/3/4
f 61/1/5 89/2/5 84/4/5 56/3/5
f 60/1/6 88/2/6 89/4/6 61/3/6
f 61/2/1 62/4/1 57/3/1 56/1/1
f 61/3/2 56/1/2 84/2/2 89/4/2
f 56/2/3 57/4/3 85/3/3 84/1/3
f 89/1/4 84/2/4 85/4/4 90/3/4
f 62/1/5 90/2/5 85/4/5 57/3/5
f 61/1/6 89/2/6 90/4/6 62/3/6
f 62/2/1 63/4/1 58/3/1 57/1/1
f 62/3/2 57/1/2 85/2/2 90/4/2
f 57/2/3 58/4/3 86/3/3 85/1/3
f 90/1/4 85/2/4 86/4/4 91/3/4
f 63/1/5 91/2/5 86/4/5 58/3/5
f 62/1/6 90/2/6 91/4/6 63/3/6
f 64/2/1 65/4/1 60/3/1 59/1/1
f 64/3/2 59/1/2 87/2/2 92/4/2
f 59/2/3 60/4/3 88/3/3 87/1/3
f 92/1/4 87/2/4 88/4/4 93/3/4
f 65/1/5 93/2/5 88/4/5 60/3/5
f 64/1/6 92/2/6 93/4/6 65/3/6
f 65/2/1 66/4/1 61/3/1 60/1/1
f 65/3/2 60/1/2 88/2/2 93/4/2
f 60/2/3 61/4/3 89/3/3 88/1/3
f 93/1/4 88/2/4 89/4/4 94/3/4
f 66/1/5 94/2/5 89/4/5 61/3/5
f 65/1/6 93/2/6 94/4/6 66/3/6
f 66/2/1 67/4/1 62/3/1 61/1/1
f 66/3/2 61/1/2 89/2/2 94/4/2
f 61/2/3 62/4/3 90/3/3 89/1/3
f 94/1/4 89/2/4 90/4/4 95/3/4
f 67/1/5 95/2/5 90/4/5 62/3/5
f 66/1/6 94/2/6 95/4/6 67/3/6
f 67/2/1 68/4/1 63/3/1 62/1/1
f 67/3/2 62/1/2 90/2/2 95/4/2
f 62/2/3 63/4/3 91/3/3 90/1/3
f 95/1/4 90/2/4 91/4/4 96/3/4
f 68/1/5 96/2/5 91/4/5 63/3/5
f 67/1/6 95/2/6 96/4/6 68/3/6
f 69/2/1 70/4/1 65/3/1 64/1/1
f 69/3/2 64/1/2 92/2/2 97/4/2
f 64/2/3 65/4/3 93/3/3 92/1/3
f 97/1/4 92/2/4 93/4/4 98/3/4
f 70/1/5 98/2/5 93/4/5 65/3/5
f 69/1/6 97/2/6 98/4/6 70/3/6
f 70/2/1 71/4/1 66/3/1 65/1/1
f 70/3/2 65/1/2 93/2/2 98/4/2
f 65/2/3 66/4/3 94/3/3 93/1/3
f 98/1/4 93/2/4 94/4/4 99/3/4
f 71/1/5 99/2/5 94/4/5 66/3/5
f 70/1/6 98/2/6 99/4/6 71/3/6
f 71/2/1 72/4/1 67/3/1 66/1/1
f 71/3/2 66/1/2 94/2/2 99/4/2
f 66/2/3 67/4/3 95/3/3 94/1/3
f 99/1/4 94/2/4 95/4/4 100/3/4
f 72/1/5 100/2/5 95/4/5 67/3/5
f 71/1/6 99/2/6 100/4/6 72/3/6
f 77/2/1 78/4/1 74/3/1 73/1/1
f 77/3/2 73/1/2 101/2/2 105/4/2
f 73/2/3 74/4/3 102/3/3 101/1/3
f 105/1/4 101/2/4 102/4/4 106/3/4
f 78/1/5 106/2/5 102/4/5 74/3/5
f 77/1/6 105/2/6 106/4/6 78/3/6
f 78/2/1 79/4/1 75/3/1 74/1/1
f 78/3/2 74/1/2 102/2/2 106/4/2
f 74/2/3 75/4/3 103/3/3 102/1/3
f 106/1/4 102/2/4 103/4/4 107/3/4
f 79/1/5 107/2/5 103/4/5 75/3/5
f 78/1/6 106/2/6 107/4/6 79/3/6
f 79/2/1 80/4/1 76/3/1 75/1/1
f 79/3/2 75/1/2 103/2/2 107/4/2
f 75/2/3 76/4/3 104/3/3 103/1/3
f 107/1/4 103/2/4 104/4/4 108/3/4
f 80/1/5 108/2/5 104/4/5 76/3/5
f 79/1/6 107/2/6 108/4/6 80/3/6
f 82/2/1 83/4/1 78/3/1 77/1/1
f 82/3/2 77/1/2 105/2/2 110/4/2
f 77/2/3 78/4/3 106/3/3 105/1/3
f 110/1/4 105/2/4 106/4/4 111/3/4
f 83/1/5 111/2/5 106/4/5 78/3/5
f 82/1/6 110/2/6 111/4/6 83/3/6
f 83/2/1 84/4/1 79/3/1 78/1/1
f 83/3/2 78/1/2 106/2/2 111/4/2
f 78/2/3 79/4/3 107/3/3 106/1/3
f 111/1/4 106/2/4 107/4/4 112/3/4
f 84/1/5 112/2/5 107/4/5 79/3/5
f 83/1/6 111/2/6 112/4/6 84/3/6
f 84/2/1 85/4/1 80/3/1 79/1/1
f 84/3/2 79/1/2 107/2/2 112/4/2
f 79/2/3 80/4/3 108/3/3 107/1/3
f 112/1/4 107/2/4 108/4/4 113/3/4
f 85/1/5 113/2/5 108/4/5 80/3/5
f 84/1/6 112/2/6 113/4/6 85/3/6
f 85/2/1 86/4/1 81/3/1 80/1/1
f 85/3/2 80/1/2 108/2/2 113/4/2
f 80/2/3 81/4/3 109/3/3 108/1/3
f 113/1/4 108/2/4 109/4/4 114/3/4
f 86/1/5 114/2/5 109/4/5 81/3/5
f 85/1/6 113/2/6 114/4/6 86/3/6
f 87/2/1 88/4/1 83/3/1 82/1/1
f 87/3/2 82/1/2 110/2/2 115/4/2
f 82/2/3 83/4/3 111/3/3 110/1/3
f 115/1/4 110/2/4 111/4/4 116/3/4
f 88/1/5 116/2/5 111/4/5 83/3/5
f 87/1/6 115/2/6 116/4/6 88/3/6
f 88/2/1 89/4/1 84/3/1 83/1/1
f 88/3/2 83/1/2 111/2/2 116/4/2
f 83/2/3 84/4/3 112/3/3 111/1/3
f 116/1/4 111/2/4 112/4/4 117/3/4
f 89/1/5 117/2/5 112/4/5 84/3/5
f 88/1/6 116/2/6 117/4/6 89/3/6
f 89/2/1 90/4/1 85/3/1 84/1/1
f 89/3/2 84/1/2 112/2/2 117/4/2
f 84/2/3 85/4/3 113/3/3 112/1/3
f 117/1/4 112/2/4 113/4/4 118/3/4
f 90/1/5 118/2/5 113/4/5 85/3/5
f 89/1/6 117/2/6 118/4/6 90/3/6
f 90/2/1 91/4/1 86/3/1 85/1/1
f 90/3/2 85/1/2 113/2/2 118/4/2
f 85/2/3 86/4/3 114/3/3 113/1/3
f 118/1/4 113/2/4 114/4/4 119/3/4
f 91/1/5 119/2/5 114/4/5 86/3/5
f 90/1/6 118/2/6 119/4/6 91/3/6
f 92/2/1 93/4/1 88/3/1 87/1/1
f 92/3/2 87/1/2 115/2/2 120/4/2
f 87/2/3 88/4/3 116/3/3 115/1/3
f 120/1/4 115/2/4 116/4/4 121/3/4
f 93/1/5 121/2/5 116/4/5 88/3/5
f 92/1/6 120/2/6 121/4/6 93/3/6
f 93/2/1 94/4/1 89/3/1 88/1/1
f 93/3/2 88/1/2 116/2/2 121/4/2
f 88/2/3 89/4/3 117/3/3 116/1/3
f 121/1/4 116/2/4 117/4/4 122/3/4
f 94/1/5 122/2/5 117/4/5 89/3/5
f 93/1/6 121/2/6 122/4/6 94/3/6
f 94/2/1 95/4/1 90/3/1 89/1/1
f 94/3/2 89/1/2 117/2/2 122/4/2
f 89/2/3 90/4/3 118/3/3 117/1/3
f 122/1/4 117/2/4 118/4/4 123/3/4
f 95/1/5 123/2/5 118/4/5 90/3/5
f 94/1/6 122/2/6 123/4/6 95/3/6
f 95/2/1 96/4/1 91/3/1 90/1/1
f 95/3/2 90/1/2 118/2/2 123/4/2
f 90/2/3 91/4/3 119/3/3 118/1/3
f 123/1/4 118/2/4 119/4/4 124/3/4
f 96/1/5 124/2/5 119/4/5 91/3/5
f 95/1/6 123/2/6 124/4/6 96/3/6
f 97/2/1 98/4/1 93/3/1 92/1/1
f 97/3/2 92/1/2 120/2/2 125/4/2
f 92/2/3 93/4/3 121/3/3 120/1/3
f 125/1/4 120/2/4 121/4/4 126/3/4
f 98/1/5 126/2/5 121/4/5 93/3/5
f 97/1/6 125/2/6 126/4/6 98/3/6
f 98/2/1 99/4/1 94/3/1 93/1/1
f 98/3/2 93/1/2 121/2/2 126/4/2
f 93/2/3 94/4/3 122/3/3 121/1/3
f 126/1/4 121/2/4 122/4/4 127/3/4
f 99/1/5 127/2/5 122/4/5 94/3/5
f 98/1/6 126/2/6 127/4/6 99/3/6
f 99/2/1 100/4/1 95/3/1 94/1/1
f 99/3/2 94/1/2 122/2/2 127/4/2
f 94/2/3 95/4/3 123/3/3 122/1/3
f 127/1/4 122/2/4 123/4/4 128/3/4
f 100/1/5 128/2/5 123/4/5 95/3/5
f 99/1/6 127/2/6 128/4/6 100/3/6
f 106/2/1 107/4/1 103/3/1 102/1/1
f 106/3/2 102/1/2 134/2/2 137/4/2
f 102/2/3 103/4/3 135/3/3 134/1/3
f 137/1/4 134/2/4 135/4/4 138/3/4
f 107/1/5 138/2/5 135/4/5 103/3/5
f 106/1/6 137/2/6 138/4/6 107/3/6
f 110/2/1 111/4/1 106/3/1 105/1/1
f 110/3/2 105/1/2 136/2/2 140/4/2
f 105/2/3 106/4/3 137/3/3 136/1/3
f 140/1/4 136/2/4 137/4/4 141/3/4
f 111/1/5 141/2/5 137/4/5 106/3/5
f 110/1/6 140/2/6 141/4/6 111/3/6
f 111/2/1 112/4/1 107/3/1 106/1/1
f 111/3/2 106/1/2 137/2/2 141/4/2
f 106/2/3 107/4/3 138/3/3 137/1/3
f 141/1/4 137/2/4 138/4/4 142/3/4
f 112/1/5 142/2/5 138/4/5 107/3/5
f 111/1/6 141/2/6 142/4/6 112/3/6
f 112/2/1 113/4/1 108/3/1 107/1/1
f 112/3/2 107/1/2 138/2/2 142/4/2
f 107/2/3 108/4/3 139/3/3 138/1/3
f 142/1/4 138/2/4 139/4/4 143/3/4
f 113/1/5 143/2/5 139/4/5 108/3/5
f 112/1/6 142/2/6 143/4/6 113/3/6
f 115/2/1 116/4/1 111/3/1 110/1/1
f 115/3/2 110/1/2 140/2/2 145/4/2
f 110/2/3 111/4/3 141/3/3 140/1/3
f 145/1/4 140/2/4 141/4/4 146/3/4
f 116/1/5 146/2/5 141/4/5 111/3/5
f 115/1/6 145/2/6 146/4/6 116/3/6
f 116/2/1 117/4/1 112/3/1 111/1/1
f 116/3/2 111/1/2 141/2/2 146/4/2
f 111/2/3 112/4/3 142/3/3 141/1/3
f 146/1/4 141/2/4 142/4/4 147/3/4
f 117/1/5 147/2/5 142/4/5 112/3/5
f 116/1/6 146/2/6 147/4/6 117/3/6
f 117/2/1 118/4/1 113/3/1 112/1/1
f 117/3/2 112/1/2 142/2/2 147/4/2
f 112/2/3 113/4/3 143/3/3 142/1/3
f 147/1/4 142/2/4 143/4/4 148/3/4
f 118/1/5 148/2/5 143/4/5 113/3/5
f 117/1/6 147/2/6 148/4/6 118/3/6
f 118/2/1 119/4/1 114/3/1 113/1/1
f 118/3/2 113/1/2 143/2/2 148/4/2
f 113/2/3 114/4/3 144/3/3 143/1/3
f 148/1/4 143/2/4 144/4/4 149/3/4
f 119/1/5 149/2/5 144/4/5 114/3/5
f 118/1/6 148/2/6 149/4/6 119/3/6
f 120/2/1 121/4/1 116/3/1 115/1/1
f 120/3/2 115/1/2 145/2/2 150/4/2
f 115/2/3 116/4/3 146/3/3 145/1/3
f 150/1/4 145/2/4 146/4/4 151/3/4
f 121/1/5 151/2/5 146/4/5 116/3/5
f 120/1/6 150/2/6 151/4/6 121/3/6
f 121/2/1 122/4/1 117/3/1 116/1/1
f 121/3/2 116/1/2 146/2/2 151/4/2
f 116/2/3 117/4/3 147/3/3 146/1/3
f 151/1/4 146/2/4 147/4/4 152/3/4
f 122/1/5 152/2/5 147/4/5 117/3/5
f 121/1/6 151/2/6 152/4/6 122/3/6
f 122/2/1 123/4/1 118/3/1 117/1/1
f 122/3/2 117/1/2 147/2/2 152/4/2
f 117/2/3 118/4/3 148/3/3 147/1/3
f 152/1/4 147/2/4 148/4/4 153/3/4
f 123/1/5 153/2/5 148/4/5 118/3/5
f 122/1/6 152/2/6 153/4/6 123/3/6
f 123/2/1 124/4/1 119/3/1 118/1/1
f 123/3/2 118/1/2 148/2/2 153/4/2
f 118/2/3 119/4/3 149/3/3 148/1/3
f 153/1/4 148/2/4 149/4/4 154/3/4
f 124/1/5 154/2/5 149/4/5 119/3/5
f 123/1/6 153/2/6 154/4/6 124/3/6
f 125/2/1 126/4/1 121/3/1 120/1/1
f 125/3/2 120/1/2 150/2/2 155/4/2
f 120/2/3 121/4/3 151/3/3 150/1/3
f 155/1/4 150/2/4 151/4/4 156/3/4
f 126/1/5 156/2/5 151/4/5 121/3/5
f 125/1/6 155/2/6 156/4/6 126/3/6
f 126/2/1 127/4/1 122/3/1 121/1/1
f 126/3/2 121/1/2 151/2/2 156/4/2
f 121/2/3 122/4/3 152/3/3 151/1/3
f 156/1/4 151/2/4 152/4/4 157/3/4
f 127/1/5 157/2/5 152/4/5 122/3/5
f 126/1/6 156/2/6 157/4/6 127/3/6
f 127/2/1 128/4/1 123/3/1 122/1/1
f 127/3/2 122/1/2 152/2/2 157/4/2
f 122/2/3 123/4/3 153/3/3 152/1/3
f 157/1/4 152/2/4 153/4/4 158/3/4
f 128/1/5 158/2/5 153/4/5 123/3/5
f 127/1/6 157/2/6 158/4/6 128/3/6
f 128/2/1 129/4/1 124/3/1 123/1/1
f 128/3/2 123/1/2 153/2/2 158/4/2
f 123/2/3 124/4/3 154/3/3 153/1/3
f 158/1/4 153/2/4 154/4/4 159/3/4
f 129/1/5 159/2/5 154/4/5 124/3/5
f 128/1/6 158/2/6 159/4/6 129/3/6
f 130/2/1 131/4/1 126/3/1 125/1/1
f 130/3/2 125/1/2 155/2/2 160/4/2
f 125/2/3 126/4/3 156/3/3 155/1/3
f 160/1/4 155/2/4 156/4/4 161/3/4
f 131/1/5 161/2/5 156/4/5 126/3/5
f 130/1/6 160/2/6 161/4/6 131/3/6
f 131/2/1 132/4/1 127/3/1 126/1/1
f 131/3/2 126/1/2 156/2/2 161/4/2
f 126/2/3 127/4/3 157/3/3 156/1/3
f 161/1/4 156/2/4 157/4/4 162/3/4
f 132/1/5 162/2/5 157/4/5 127/3/5
f 131/1/6 161/2/6 162/4/6 132/3/6
f 132/2/1 133/4/1 128/3/1 127/1/1
f 132/3/2 127/1/2 157/2/2 162/4/2
f 127/2/3 128/4/3 158/3/3 157/1/3
f 162/1/4 157/2/4 158/4/4 163/3/4
f 133/1/5 163/2/5 158/4/5 128/3/5
f 132/1/6 162/2/6 163/4/6 133/3/6
f 141/2/1 142/4/1 138/3/1 137/1/1
f 141/3/2 137/1/2 165/2/2 168/4/2
f 137/2/3 138/4/3 166/3/3 165/1/3
f 168/1/4 165/2/4 166/4/4 169/3/4
f 142/1/5 169/2/5 166/4/5 138/3/5
f 141/1/6 168/2/6 169/4/6 142/3/6
f 145/2/1 146/4/1 141/3/1 140/1/1
f 145/3/2 140/1/2 167/2/2 172/4/2
f 140/2/3 141/4/3 168/3/3 167/1/3
f 172/1/4 167/2/4 168/4/4 173/3/4
f 146/1/5 173/2/5 168/4/5 141/3/5
f 145/1/6 172/2/6 173/4/6 146/3/6
f 146/2/1 147/4/1 142/3/1 141/1/1
f 146/3/2 141/1/2 168/2/2 173/4/2
f 141/2/3 142/4/3 169/3/3 168/1/3
f 173/1/4 168/2/4 169/4/4 174/3/4
f 147/1/5 174/2/5 169/4/5 142/3/5
f 146/1/6 173/2/6 174/4/6 147/3/6
f 147/2/1 148/4/1 143/3/1 142/1/1
f 147/3/2 142/1/2 169/2/2 174/4/2
f 142/2/3 143/4/3 170/3/3 169/1/3
f 174/1/4 169/2/4 170/4/4 175/3/4
f 148/1/5 175/2/5 170/4/5 143/3/5
f 147/1/6 174/2/6 175/4/6 148/3/6
f 148/2/1 149/4/1 144/3/1 143/1/1
f 148/3/2 143/1/2 170/2/2 175/4/2
f 143/2/3 144/4/3 171/3/3 170/1/3
f 175/1/4 170/2/4 171/4/4 176/3/4
f 149/1/5 176/2/5 171/4/5 144/3/5
f 148/1/6 175/2/6 176/4/6 149/3/6
f 150/2/1 151/4/1 146/3/1 145/1/1
f 150/3/2 145/1/2 172/2/2 177/4/2
f 145/2/3 146/4/3 173/3/3 172/1/3
f 177/1/4 172/2/4 173/4/4 178/3/4
f 151/1/5 178/2/5 173/4/5 146/3/5
f 150/1/6 177/2/6 178/4/6 151/3/6
f 151/2/1 152/4/1 147/3/1 146/1/1
f 151/3/2 146/1/2 173/2/2 178/4/2
f 146/2/3 147/4/3 174/3/3 173/1/3
f 178/1/4 173/2/4 174/4/4 179/3/4
f 152/1/5 179/2/5 174/4/5 147/3/5
f 151/1/6 178/2/6 179/4/6 152/3/6
f 152/2/1 153/4/1 148/3/1 147/1/1
f 152/3/2 147/1/2 174/2/2 179/4/2
f 147/2/3 148/4/3 175/3/3 174/1/3
f 179/1/4 174/2/4 175/4/4 180/3/4
f 153/1/5 180/2/5 175/4/5 148/3/5
f 152/1/6 179/2/6 180/4/6 153/3/6
f 153/2/1 154/4/1 149/3/1 148/1/1
f 153/3/2 148/1/2 175/2/2 180/4/2
f 148/2/3 149/4/3 176/3/3 175/1/3
f 180/1/4 175/2/4 176/4/4 181/3/4
f 154/1/5 181/2/5 176/4/5 149/3/5
f 153/1/6 180/2/6 181/4/6 154/3/6
f 155/2/1 156/4/1 151/3/1 150/1/1
f 155/3/2 150/1/2 177/2/2 182/4/2
f 150/2/3 151/4/3 178/3/3 177/1/3
f 182/1/4 177/2/4 178/4/4 183/3/4
f 156/1/5 183/2/5 178/4/5 151/3/5
f 155/1/6 182/2/6 183/4/6 156/3/6
f 156/2/1 157/4/1 152/3/1 151/1/1
f 156/3/2 151/1/2 178/2/2 183/4/2
f 151/2/3 152/4/3 179/3/3 178/1/3
f 183/1/4 178/2/4 179/4/4 184/3/4
f 157/1/5 184/2/5 179/4/5 152/3/5
f 156/1/6 183/2/6 184/4/6 157/3/6
f 157/2/1 158/4/1 153/3/1 152/1/1
f 157/3/2 152/1/2 179/2/2 184/4/2
f 152/2/3 153/4/3 180/3/3 179/1/3
f 184/1/4 179/2/4 180/4/4 185/3/4
f 158/1/5 185/2/5 180/4/5 153/3/5
f 157/1/6 184/2/6 185/4/6 158/3/6
f 158/2/1 159/4/1 154/3/1 153/1/1
f 158/3/2 153/1/2 180/2/2 185/4/2
f 153/2/3 154/4/3 181/3/3 180/1/3
f 185/1/4 180/2/4 181/4/4 186/3/4
f 159/1/5 186/2/5 181/4/5 154/3/5
f 158/1/6 185/2/6 186/4/6 159/3/6
f 160/2/1 161/4/1 156/3/1 155/1/1
f 160/3/2 155/1/2 182/2/2 187/4/2
f 155/2/3 156/4/3 183/3/3 182/1/3
f 187/1/4 182/2/4 183/4/4 188/3/4
f 161/1/5 188/2/5 183/4/5 156/3/5
f 160/1/6 187/2/6 188/4/6 161/3/6
f 161/2/1 162/4/1 157/3/1 156/1/1
f 161/3/2 156/1/2 183/2/2 188/4/2
f 156/2/3 157/4/3 184/3/3 183/1/3
f 188/1/4 183/2/4 184/4/4 189/3/4
f 162/1/5 189/2/5 184/4/5 157/3/5
f 161/1/6 188/2/6 189/4/6 162/3/6
f 162/2/1 163/4/1 158/3/1 157/1/1
f 162/3/2 157/1/2 184/2/2 189/4/2
f 157/2/3 158/4/3 185/3/3 184/1/3
f 189/1/4 184/2/4 185/4/4 190/3/4
f 163/1/5 190/2/5 185/4/5 158/3/5
f 162/1/6 189/2/6 190/4/6 163/3/6
f 163/2/1 164/4/1 159/3/1 158/1/1
f 163/3/2 158/1/2 185/2/2 190/4/2
f 158/2/3 159/4/3 186/3/3 185/1/3
f 190/1/4 185/2/4 186/4/4 191/3/4
f 164/1/5 191/2/5 186/4/5 159/3/5
f 163/1/6 190/2/6 191/4/6 164/3/6
f 172/2/1 173/4/1 168/3/1 167/1/1
f 172/3/2 167/1/2 194/2/2 198/4/2
f 167/2/3 168/4/3 195/3/3 194/1/3
f 198/1/4 194/2/4 195/4/4 199/3/4
f 173/1/5 199/2/5 195/4/5 168/3/5
f 172/1/6 198/2/6 199/4/6 173/3/6
f 173/2/1 174/4/1 169/3/1 168/1/1
f 173/3/2 168/1/2 195/2/2 199/4/2
f 168/2/3 169/4/3 196/3/3 195/1/3
f 199/1/4 195/2/4 196/4/4 200/3/4
f 174/1/5 200/2/5 196/4/5 169/3/5
f 173/1/6 199/2/6 200/4/6 174/3/6
f 174/2/1 175/4/1 170/3/1 169/1/1
f 174/3/2 169/1/2 196/2/2 200/4/2
f 169/2/3 170/4/3 197/3/3 196/1/3
f 200/1/4 196/2/4 197/4/4 201/3/4
f 175/1/5 201/2/5 197/4/5 170/3/5
f 174/1/6 200/2/6 201/4/6 175/3/6
f 177/2/1 178/4/1 173/3/1 172/1/1
f 177/3/2 172/1/2 198/2/2 203/4/2
f 172/2/3 173/4/3 199/3/3 198/1/3
f 203/1/4 198/2/4 199/4/4 204/3/4
f 178/1/5 204/2/5 199/4/5 173/3/5
f 177/1/6 203/2/6 204/4/6 178/3/6
f 178/2/1 179/4/1 174/3/1 173/1/1
f 178/3/2 173/1/2 199/2/2 204/4/2
f 173/2/3 174/4/3 200/3/3 199/1/3
f 204/1/4 199/2/4 200/4/4 205/3/4
f 179/1/5 205/2/5 200/4/5 174/3/5
f 178/1/6 204/2/6 205/4/6 179/3/6
f 179/2/1 180/4/1 175/3/1 174/1/1
f 179/3/2 174/1/2 200/2/2 205/4/2
f 174/2/3 175/4/3 201/3/3 200/1/3
f 205/1/4 200/2/4 201/4/4 206/3/4
f 180/1/5 206/2/5 201/4/5 175/3/5
f 179/1/6 205/2/6 206/4/6 180/3/6
f 180/2/1 181/4/1 176/3/1 175/1/1
f 180/3/2 175/1/2 201/2/2 206/4/2
f 175/2/3 176/4/3 202/3/3 201/1/3
f 206/1/4 201/2/4 202/4/4 207/3/4
f 181/1/5 207/2/5 202/4/5 176/3/5
f 180/1/6 206/2/6 207/4/6 181/3/6
f 182/2/1 183/4/1 178/3/1 177/1/1
f 182/3/2 177/1/2 203/2/2 208/4/2
f 177/2/3 178/4/3 204/3/3 203/1/3
f 208/1/4 203/2/4 204/4/4 209/3/4
f 183/1/5 209/2/5 204/4/5 178/3/5
f 182/1/6 208/2/6 209/4/6 183/3/6
f 183/2/1 184/4/1 179/3/1 178/1/1
f 183/3/2 178/1/2 204/2/2 209/4/2
f 178/2/3 179/4/3 205/3/3 204/1/3
f 209/1/4 204/2/4 205/4/4 210/3/4
f 184/1/5 210/2/5 205/4/5 179/3/5
f 183/1/6 209/2/6 210/4/6 184/3/6
f 184/2/1 185/4/1 180/3/1 179/1/1
f 184/3/2 179/1/2 205/2/2 210/4/2
f 179/2/3 180/4/3 206/3/3 205/1/3
f 210/1/4 205/2/4 206/4/4 211/3/4
f 185/1/5 211/2/5 206/4/5 180/3/5
f 184/1/6 210/2/6 211/4/6 185/3/6
f 185/2/1 186/4/1 181/3/1 180/1/1
f 185/3/2 180/1/2 206/2/2 211/4/2
f 180/2/3 181/4/3 207/3/3 206/1/3
f 211/1/4 206/2/4 207/4/4 212/3/4
f 186/1/5 212/2/5 207/4/5 181/3/5
f 185/1/6 211/2/6 212/4/6 186/3/6
f 187/2/1 188/4/1 183/3/1 182/1/1
f 187/3/2 182/1/2 208/2/2 213/4/2
f 182/2/3 183/4/3 209/3/3 208/1/3
f 213/1/4 208/2/4 209/4/4 214/3/4
f 188/1/5 214/2/5 209/4/5 183/3/5
f 187/1/6 213/2/6 214/4/6 188/3/6
f 188/2/1 189/4/1 184/3/1 183/1/1
f 188/3/2 183/1/2 209/2/2 214/4/2
f 183/2/3 184/4/3 210/3/3 209/1/3
f 214/1/4 209/2/4 210/4/4 215/3/4
f 189/1/5 215/2/5 210/4/5 184/3/5
f 188/1/6 214/2/6 215/4/6 189/3/6
f 189/2/1 190/4/1 185/3/1 184/1/1
f 189/3/2 184/1/2 210/2/2 215/4/2
f 184/2/3 185/4/3 211/3/3 210/1/3
f 215/1/4 210/2/4 211/4/4 216/3/4
f 190/1/5 216/2/5 211/4/5 185/3/5
f 189/1/6 215/2/6 216/4/6 190/3/6
f 192/2/1 193/4/1 189/3/1 188/1/1
f 192/3/2 188/1/2 214/2/2 217/4/2
f 188/2/3 189/4/3 215/3/3 214/1/3
f 217/1/4 214/2/4 215/4/4 218/3/4
f 193/1/5 218/2/5 215/4/5 189/3/5
f 192/1/6 217/2/6 218/4/6 193/3/6
f 204/2/1 205/4/1 200/3/1 199/1/1
f 204/3/2 199/1/2 226/2/2 229/4/2
f 199/2/3 200/4/3 227/3/3 226/1/3
f 229/1/4 226/2/4 227/4/4 230/3/4
f 205/1/5 230/2/5 227/4/5 200/3/5
f 204/1/6 229/2/6 230/4/6 205/3/6
f 205/2/1 206/4/1 201/3/1 200/1/1
f 205/3/2 200/1/2 227/2/2 230/4/2
f 200/2/3 201/4/3 228/3/3 227/1/3
f 230/1/4 227/2/4 228/4/4 231/3/4
f 206/1/5 231/2/5 228/4/5 201/3/5
f 205/1/6 230/2/6 231/4/6 206/3/6
f 209/2/1 210/4/1 205/3/1 204/1/1
f 209/3/2 204/1/2 229/2/2 233/4/2
f 204/2/3 205/4/3 230/3/3 229/1/3
f 233/1/4 229/2/4 230/4/4 234/3/4
f 210/1/5 234/2/5 230/4/5 205/3/5
f 209/1/6 233/2/6 234/4/6 210/3/6
f 210/2/1 211/4/1 206/3/1 205/1/1
f 210/3/2 205/1/2 230/2/2 234/4/2
f 205/2/3 206/4/3 231/3/3 230/1/3
f 234/1/4 230/2/4 231/4/4 235/3/4
f 211/1/5 235/2/5 231/4/5 206/3/5
f 210/1/6 234/2/6 235/4/6 211/3/6
f 213/2/1 214/4/1 209/3/1 208/1/1
f 213/3/2 208/1/2 232/2/2 236/4/2
f 208/2/3 209/4/3 233/3/3 232/1/3
f 236/1/4 232/2/4 233/4/4 237/3/4
f 214/1/5 237/2/5 233/4/5 209/3/5
f 213/1/6 236/2/6 237/4/6 214/3/6
f 214/2/1 215/4/1 210/3/1 209/1/1
f 214/3/2 209/1/2 233/2/2 237/4/2
f 209/2/3 210/4/3 234/3/3 233/1/3
f 237/1/4 233/2/4 234/4/4 238/3/4
f 215/1/5 238/2/5 234/4/5 210/3/5
f 214/1/6 237/2/6 238/4/6 215/3/6
f 215/2/1 216/4/1 211/3/1 210/1/1
f 215/3/2 210/1/2 234/2/2 238/4/2
f 210/2/3 211/4/3 235/3/3 234/1/3
f 238/1/4 234/2/4 235/4/4 239/3/4
f 216/1/5 239/2/5 235/4/5 211/3/5
f 215/1/6 238/2/6 239/4/6 216/3/6
f 217/2/1 218/4/1 215/3/1 214/1/1
f 217/3/2 214/1/2 237/2/2 240/4/2
f 214/2/3 215/4/3 238/3/3 237/1/3
f 240/1/4 237/2/4 238/4/4 241/3/4
f 218/1/5 241/2/5 238/4/5 215/3/5
f 217/1/6 240/2/6 241/4/6 218/3/6
f 218/2/1 219/4/1 216/3/1 215/1/1
f 218/3/2 215/1/2 238/2/2 241/4/2
f 215/2/3 216/4/3 239/3/3 238/1/3
f 241/1/4 238/2/4 239/4/4 242/3/4
f 219/1/5 242/2/5 239/4/5 216/3/5
f 218/1/6 241/2/6 242/4/6 219/3/6
f 222/2/1 223/4/1 221/3/1 220/1/1
f 222/3/2 220/1/2 243/2/2 245/4/2
f 220/2/3 221/4/3 244/3/3 243/1/3
f 245/1/4 243/2/4 244/4/4 246/3/4
f 223/1/5 246/2/5 244/4/5 221/3/5
f 222/1/6 245/2/6 246/4/6 223/3/6
f 224/2/1 225/4/1 223/3/1 222/1/1
f 224/3/2 222/1/2 245/2/2 247/4/2
f 222/2/3 223/4/3 246/3/3 245/1/3
f 247/1/4 245/2/4 246/4/4 248/3/4
f 225/1/5 248/2/5 246/4/5 223/3/5
f 224/1/6 247/2/6 248/4/6 225/3/6
f 237/2/1 238/4/1 234/3/1 233/1/1
f 237/3/2 233/1/2 249/2/2 252/4/2
f 233/2/3 234/4/3 250/3/3 249/1/3
f 252/1/4 249/2/4 250/4/4 253/3/4
f 238/1/5 253/2/5 250/4/5 234/3/5
f 237/1/6 252/2/6 253/4/6 238/3/6
f 238/2/1 239/4/1 235/3/1 234/1/1
f 238/3/2 234/1/2 250/2/2 253/4/2
f 234/2/3 235/4/3 251/3/3 250/1/3
f 253/1/4 250/2/4 251/4/4 254/3/4
f 239/1/5 254/2/5 251/4/5 235/3/5
f 238/1/6 253/2/6 254/4/6 239/3/6
