mtllib lighthouse.mtl
usemtl acacia_log_top
v -3 9 2
v -3 14 2
v -3 15 2
v -3 16 2
v -3 17 2
v -3 18 2
v -3 9 3
v -3 14 3
v -3 15 3
v -3 16 3
v -3 17 3
v -3 18 3
v -2 9 2
v -3 10 2
v -2 10 2
v -3 11 2
v -3 12 2
v -2 11 2
v -2 12 2
v -3 13 2
v -2 13 2
v -2 14 2
v -2 18 2
v -2 9 3
v -3 10 3
v -2 10 3
v -3 11 3
v -2 11 3
v -3 12 3
v -2 12 3
v -3 13 3
v -2 13 3
v -2 14 3
v -2 15 2
v -2 15 3
v -2 16 2
v -2 16 3
v -2 17 2
v -2 17 3
v -2 18 3
v 0 11 2
v 0 12 2
v 0 9 2
v 0 9 3
v 0 12 3
v 0 13 2
v 0 13 3
v 1 9 2
v 0 10 2
v 1 10 2
v 1 11 2
v 1 12 2
v 1 13 2
v 1 9 3
v 0 10 3
v 1 10 3
v 0 11 3
v 1 11 3
v 1 12 3
v 1 13 3
v 2 9 2
v 2 10 2
v 2 11 2
v 2 12 2
v 2 13 2
v 2 14 2
v 2 15 2
v 2 16 2
v 2 17 2
v 2 18 2
v 2 9 3
v 2 10 3
v 2 12 3
v 2 13 3
v 2 14 3
v 2 15 3
v 2 16 3
v 3 9 2
v 3 10 2
v 3 11 2
v 3 12 2
v 3 13 2
v 3 14 2
v 3 16 2
v 3 17 2
v 3 18 2
v 3 9 3
v 3 10 3
v 2 11 3
v 3 11 3
v 3 12 3
v 3 13 3
v 3 14 3
v 3 15 2
v 3 15 3
v 3 16 3
v 2 17 3
v 3 17 3
v 2 18 3
v 3 18 3
v 2 19 3
v 2 19 2
v 3 19 2
v 3 19 3
v 2 20 3
v 2 20 2
v 3 20 2
v 3 20 3
v 3 9 4
v 3 10 4
v 3 13 4
v 3 14 4
v 3 15 4
v 3 18 4
v 4 9 3
v 4 18 3
v 4 9 4
v 4 10 3
v 4 10 4
v 3 11 4
v 4 11 3
v 4 11 4
v 3 12 4
v 4 12 3
v 4 12 4
v 4 13 3
v 4 13 4
v 4 14 3
v 4 14 4
v 4 15 3
v 4 15 4
v 3 16 4
v 4 16 3
v 4 16 4
v 3 17 4
v 4 17 3
v 4 17 4
v 4 18 4
vt 0.000000000 0.000000000
vt 1.000000000 0.000000000
vt 0.000000000 1.000000000
vt 1.000000000 1.000000000
vn -1 0 0
vn 0 -1 0
vn 1 0 0
vn 0 1 0
f 7/3/2 1/1/2 13/2/2 24/4/2
f 25/1/4 26/2/4 15/4/4 14/3/4
f 25/3/2 14/1/2 15/2/2 26/4/2
f 27/1/4 28/2/4 18/4/4 16/3/4
f 27/3/2 16/1/2 18/2/2 28/4/2
f 29/1/4 30/2/4 19/4/4 17/3/4
f 29/3/2 17/1/2 19/2/2 30/4/2
f 31/1/4 32/2/4 21/4/4 20/3/4
f 31/3/2 20/1/2 21/2/2 32/4/2
f 8/1/4 33/2/4 22/4/4 2/3/4
f 8/3/2 2/1/2 22/2/2 33/4/2
f 9/1/4 35/2/4 34/4/4 3/3/4
f 9/3/2 3/1/2 34/2/2 35/4/2
f 10/1/4 37/2/4 36/4/4 4/3/4
f 10/3/2 4/1/2 36/2/2 37/4/2
f 11/1/4 39/2/4 38/4/4 5/3/4
f 11/3/2 5/1/2 38/2/2 39/4/2
f 12/1/4 40/2/4 23/4/4 6/3/4
f 44/3/2 43/1/2 48/2/2 54/4/2
f 55/1/4 56/2/4 50/4/4 49/3/4
f 55/3/2 49/1/2 50/2/2 56/4/2
f 57/1/4 58/2/4 51/4/4 41/3/4
f 57/3/2 41/1/2 51/2/2 58/4/2
f 45/1/4 59/2/4 52/4/4 42/3/4
f 45/3/2 42/1/2 52/2/2 59/4/2
f 47/1/4 60/2/4 53/4/4 46/3/4
f 71/3/2 61/1/2 78/2/2 87/4/2
f 72/1/4 88/2/4 79/4/4 62/3/4
f 72/3/2 62/1/2 79/2/2 88/4/2
f 89/1/4 90/2/4 80/4/4 63/3/4
f 89/3/2 63/1/2 80/2/2 90/4/2
f 73/1/4 91/2/4 81/4/4 64/3/4
f 73/3/2 64/1/2 81/2/2 91/4/2
f 74/1/4 92/2/4 82/4/4 65/3/4
f 74/3/2 65/1/2 82/2/2 92/4/2
f 75/1/4 93/2/4 83/4/4 66/3/4
f 75/3/2 66/1/2 83/2/2 93/4/2
f 76/1/4 95/2/4 94/4/4 67/3/4
f 76/3/2 67/1/2 94/2/2 95/4/2
f 77/1/4 96/2/4 84/4/4 68/3/4
f 77/3/2 68/1/2 84/2/2 96/4/2
f 97/1/4 98/2/4 85/4/4 69/3/4
f 97/3/2 69/1/2 85/2/2 98/4/2
f 99/1/4 100/2/4 86/4/4 70/3/4
f 99/3/2 70/1/2 86/2/2 100/4/2
f 101/1/4 104/2/4 103/4/4 102/3/4
f 101/2/1 105/4/1 106/3/1 102/1/1
f 104/1/3 103/2/3 107/4/3 108/3/3
f 109/3/2 87/1/2 115/2/2 117/4/2
f 110/1/4 119/2/4 118/4/4 88/3/4
f 110/3/2 88/1/2 118/2/2 119/4/2
f 120/1/4 122/2/4 121/4/4 90/3/4
f 120/3/2 90/1/2 121/2/2 122/4/2
f 123/1/4 125/2/4 124/4/4 91/3/4
f 123/3/2 91/1/2 124/2/2 125/4/2
f 111/1/4 127/2/4 126/4/4 92/3/4
f 111/3/2 92/1/2 126/2/2 127/4/2
f 112/1/4 129/2/4 128/4/4 93/3/4
f 112/3/2 93/1/2 128/2/2 129/4/2
f 113/1/4 131/2/4 130/4/4 95/3/4
f 113/3/2 95/1/2 130/2/2 131/4/2
f 132/1/4 134/2/4 133/4/4 96/3/4
f 132/3/2 96/1/2 133/2/2 134/4/2
f 135/1/4 137/2/4 136/4/4 98/3/4
f 135/3/2 98/1/2 136/2/2 137/4/2
f 114/1/4 138/2/4 116/4/4 100/3/4
