mtllib lighthouse.mtl
usemtl yellow_stained_glass
v -3 55 2
v -3 55 1
v -3 51 1
v -3 51 0
v -2 51 0
v -2 51 1
v -3 52 1
v -3 52 0
v -2 52 0
v -2 52 1
v -3 53 1
v -3 53 0
v -2 53 0
v -2 53 1
v -3 54 1
v -3 54 0
v -2 54 0
v -2 54 1
v -3 55 0
v -2 55 0
v -2 55 1
v -3 51 2
v -2 51 2
v -3 52 2
v -2 52 2
v -3 53 2
v -2 53 2
v -3 54 2
v -2 54 2
v -2 55 2
v -3 51 3
v -2 51 3
v -3 52 3
v -2 52 3
v -3 53 3
v -2 53 3
v -3 54 3
v -2 54 3
v -3 55 3
v -2 55 3
v -2 51 -1
v -1 51 -1
v -1 51 0
v -2 52 -1
v -1 52 -1
v -1 52 0
v -2 53 -1
v -1 53 -1
v -1 53 0
v -2 54 -1
v -1 54 -1
v -1 54 0
v -2 55 -1
v -1 55 -1
v -1 55 0
v -1 51 3
v -1 52 3
v -1 53 3
v -2 51 4
v -1 51 4
v -2 52 4
v -1 52 4
v -2 53 4
v -1 53 4
v -2 54 4
v -1 54 3
v -1 54 4
v -2 55 4
v -1 55 3
v -1 55 4
v -1 51 -2
v 0 51 -2
v 0 51 -1
v -1 52 -2
v 0 52 -2
v 0 52 -1
v -1 53 -2
v 0 53 -2
v 0 53 -1
v -1 54 -2
v 0 54 -2
v 0 54 -1
v -1 55 -2
v 0 55 -2
v 0 55 -1
v 0 51 4
v 0 52 4
v 0 53 4
v -1 51 5
v 0 51 5
v -1 52 5
v 0 52 5
v -1 53 5
v 0 53 5
v -1 54 5
v 0 54 4
v 0 54 5
v -1 55 5
v 0 55 4
v 0 55 5
v 1 55 -2
v 1 51 -2
v 1 51 -1
v 1 52 -2
v 1 52 -1
v 1 53 -2
v 1 53 -1
v 1 54 -2
v 1 54 -1
v 1 55 -1
v 1 51 4
v 1 52 4
v 1 53 4
v 1 51 5
v 1 52 5
v 1 53 5
v 1 54 4
v 1 54 5
v 1 55 4
v 1 55 5
v 2 51 -2
v 2 51 -1
v 2 52 -2
v 2 52 -1
v 2 53 -2
v 2 53 -1
v 2 54 -2
v 2 54 -1
v 2 55 -2
v 2 55 -1
v 2 51 0
v 2 52 0
v 2 53 0
v 2 51 3
v 2 51 4
v 2 52 3
v 2 52 4
v 2 53 3
v 2 53 4
v 2 51 5
v 2 52 5
v 2 53 5
v 2 54 4
v 2 54 5
v 2 55 4
v 2 55 5
v 3 51 -1
v 3 51 0
v 3 52 -1
v 3 52 0
v 3 53 -1
v 3 53 0
v 2 54 0
v 3 54 -1
v 3 54 0
v 2 55 0
v 3 55 -1
v 3 55 0
v 3 51 1
v 3 52 1
v 3 53 1
v 3 51 2
v 3 52 2
v 3 53 2
v 3 51 3
v 3 52 3
v 3 53 3
v 3 51 4
v 3 52 4
v 3 53 4
v 2 54 3
v 3 54 3
v 3 54 4
v 2 55 3
v 3 55 3
v 3 55 4
v 4 51 0
v 4 51 1
v 4 52 0
v 4 52 1
v 4 53 0
v 4 53 1
v 3 54 1
v 4 54 0
v 4 54 1
v 3 55 1
v 4 55 0
v 4 55 1
v 4 51 2
v 4 52 2
v 4 53 2
v 3 54 2
v 4 54 2
v 3 55 2
v 4 55 2
v 4 51 3
v 4 52 3
v 4 53 3
v 4 54 3
v 4 55 3
vt 0.000000000 0.000000000
vt 1.000000000 0.000000000
vt 0.000000000 1.000000000
vt 1.000000000 1.000000000
vn -1 0 0
vn 0 -1 0
vn 0 0 -1
vn 1 0 0
vn 0 1 0
vn 0 0 1
f 3/2/1 7/4/1 8/3/1 4/1/1
f 3/3/2 4/1/2 5/2/2 6/4/2
f 4/2/3 8/4/3 9/3/3 5/1/3
f 6/1/4 5/2/4 9/4/4 10/3/4
f 7/1/5 10/2/5 9/4/5 8/3/5
f 3/1/6 6/2/6 10/4/6 7/3/6
f 7/2/1 11/4/1 12/3/1 8/1/1
f 7/3/2 8/1/2 9/2/2 10/4/2
f 8/2/3 12/4/3 13/3/3 9/1/3
f 10/1/4 9/2/4 13/4/4 14/3/4
f 11/1/5 14/2/5 13/4/5 12/3/5
f 7/1/6 10/2/6 14/4/6 11/3/6
f 11/2/1 15/4/1 16/3/1 12/1/1
f 11/3/2 12/1/2 13/2/2 14/4/2
f 12/2/3 16/4/3 17/3/3 13/1/3
f 14/1/4 13/2/4 17/4/4 18/3/4
f 15/1/5 18/2/5 17/4/5 16/3/5
f 11/1/6 14/2/6 18/4/6 15/3/6
f 15/2/1 2/4/1 19/3/1 16/1/1
f 15/3/2 16/1/2 17/2/2 18/4/2
f 16/2/3 19/4/3 20/3/3 17/1/3
f 18/1/4 17/2/4 20/4/4 21/3/4
f 2/1/5 21/2/5 20/4/5 19/3/5
f 15/1/6 18/2/6 21/4/6 2/3/6
f 22/2/1 24/4/1 7/3/1 3/1/1
f 22/3/2 3/1/2 6/2/2 23/4/2
f 3/2/3 7/4/3 10/3/3 6/1/3
f 23/1/4 6/2/4 10/4/4 25/3/4
f 24/1/5 25/2/5 10/4/5 7/3/5
f 22/1/6 23/2/6 25/4/6 24/3/6
f 24/2/1 26/4/1 11/3/1 7/1/1
f 24/3/2 7/1/2 10/2/2 25/4/2
f 7/2/3 11/4/3 14/3/3 10/1/3
f 25/1/4 10/2/4 14/4/4 27/3/4
f 26/1/5 27/2/5 14/4/5 11/3/5
f 24/1/6 25/2/6 27/4/6 26/3/6
f 26/2/1 28/4/1 15/3/1 11/1/1
f 26/3/2 11/1/2 14/2/2 27/4/2
f 11/2/3 15/4/3 18/3/3 14/1/3
f 27/1/4 14/2/4 18/4/4 29/3/4
f 28/1/5 29/2/5 18/4/5 15/3/5
f 26/1/6 27/2/6 29/4/6 28/3/6
f 28/2/1 1/4/1 2/3/1 15/1/1
f 28/3/2 15/1/2 18/2/2 29/4/2
f 15/2/3 2/4/3 21/3/3 18/1/3
f 29/1/4 18/2/4 21/4/4 30/3/4
f 1/1/5 30/2/5 21/4/5 2/3/5
f 28/1/6 29/2/6 30/4/6 1/3/6
f 31/2/1 33/4/1 24/3/1 22/1/1
f 31/3/2 22/1/2 23/2/2 32/4/2
f 22/2/3 24/4/3 25/3/3 23/1/3
f 32/1/4 23/2/4 25/4/4 34/3/4
f 33/1/5 34/2/5 25/4/5 24/3/5
f 31/1/6 32/2/6 34/4/6 33/3/6
f 33/2/1 35/4/1 26/3/1 24/1/1
f 33/3/2 24/1/2 25/2/2 34/4/2
f 24/2/3 26/4/3 27/3/3 25/1/3
f 34/1/4 25/2/4 27/4/4 36/3/4
f 35/1/5 36/2/5 27/4/5 26/3/5
f 33/1/6 34/2/6 36/4/6 35/3/6
f 35/2/1 37/4/1 28/3/1 26/1/1
f 35/3/2 26/1/2 27/2/2 36/4/2
f 26/2/3 28/4/3 29/3/3 27/1/3
f 36/1/4 27/2/4 29/4/4 38/3/4
f 37/1/5 38/2/5 29/4/5 28/3/5
f 35/1/6 36/2/6 38/4/6 37/3/6
f 37/2/1 39/4/1 1/3/1 28/1/1
f 37/3/2 28/1/2 29/2/2 38/4/2
f 28/2/3 1/4/3 30/3/3 29/1/3
f 38/1/4 29/2/4 30/4/4 40/3/4
f 39/1/5 40/2/5 30/4/5 1/3/5
f 37/1/6 38/2/6 40/4/6 39/3/6
f 5/2/1 9/4/1 44/3/1 41/1/1
f 5/3/2 41/1/2 42/2/2 43/4/2
f 41/2/3 44/4/3 45/3/3 42/1/3
f 43/1/4 42/2/4 45/4/4 46/3/4
f 9/1/5 46/2/5 45/4/5 44/3/5
f 5/1/6 43/2/6 46/4/6 9/3/6
f 9/2/1 13/4/1 47/3/1 44/1/1
f 9/3/2 44/1/2 45/2/2 46/4/2
f 44/2/3 47/4/3 48/3/3 45/1/3
f 46/1/4 45/2/4 48/4/4 49/3/4
f 13/1/5 49/2/5 48/4/5 47/3/5
f 9/1/6 46/2/6 49/4/6 13/3/6
f 13/2/1 17/4/1 50/3/1 47/1/1
f 13/3/2 47/1/2 48/2/2 49/4/2
f 47/2/3 50/4/3 51/3/3 48/1/3
f 49/1/4 48/2/4 51/4/4 52/3/4
f 17/1/5 52/2/5 51/4/5 50/3/5
f 13/1/6 49/2/6 52/4/6 17/3/6
f 17/2/1 20/4/1 53/3/1 50/1/1
f 17/3/2 50/1/2 51/2/2 52/4/2
f 50/2/3 53/4/3 54/3/3 51/1/3
f 52/1/4 51/2/4 54/4/4 55/3/4
f 20/1/5 55/2/5 54/4/5 53/3/5
f 17/1/6 52/2/6 55/4/6 20/3/6
f 59/2/1 61/4/1 34/3/1 32/1/1
f 59/3/2 32/1/2 56/2/2 60/4/2
f 32/2/3 34/4/3 57/3/3 56/1/3
f 60/1/4 56/2/4 57/4/4 62/3/4
f 61/1/5 62/2/5 57/4/5 34/3/5
f 59/1/6 60/2/6 62/4/6 61/3/6
f 61/2/1 63/4/1 36/3/1 34/1/1
f 61/3/2 34/1/2 57/2/2 62/4/2
f 34/2/3 36/4/3 58/3/3 57/1/3
f 62/1/4 57/2/4 58/4/4 64/3/4
f 63/1/5 64/2/5 58/4/5 36/3/5
f 61/1/6 62/2/6 64/4/6 63/3/6
f 63/2/1 65/4/1 38/3/1 36/1/1
f 63/3/2 36/1/2 58/2/2 64/4/2
f 36/2/3 38/4/3 66/3/3 58/1/3
f 64/1/4 58/2/4 66/4/4 67/3/4
f 65/1/5 67/2/5 66/4/5 38/3/5
f 63/1/6 64/2/6 67/4/6 65/3/6
f 65/2/1 68/4/1 40/3/1 38/1/1
f 65/3/2 38/1/2 66/2/2 67/4/2
f 38/2/3 40/4/3 69/3/3 66/1/3
f 67/1/4 66/2/4 69/4/4 70/3/4
f 68/1/5 70/2/5 69/4/5 40/3/5
f 65/1/6 67/2/6 70/4/6 68/3/6
f 42/2/1 45/4/1 74/3/1 71/1/1
f 42/3/2 71/1/2 72/2/2 73/4/2
f 71/2/3 74/4/3 75/3/3 72/1/3
f 73/1/4 72/2/4 75/4/4 76/3/4
f 45/1/5 76/2/5 75/4/5 74/3/5
f 42/1/6 73/2/6 76/4/6 45/3/6
f 45/2/1 48/4/1 77/3/1 74/1/1
f 45/3/2 74/1/2 75/2/2 76/4/2
f 74/2/3 77/4/3 78/3/3 75/1/3
f 76/1/4 75/2/4 78/4/4 79/3/4
f 48/1/5 79/2/5 78/4/5 77/3/5
f 45/1/6 76/2/6 79/4/6 48/3/6
f 48/2/1 51/4/1 80/3/1 77/1/1
f 48/3/2 77/1/2 78/2/2 79/4/2
f 77/2/3 80/4/3 81/3/3 78/1/3
f 79/1/4 78/2/4 81/4/4 82/3/4
f 51/1/5 82/2/5 81/4/5 80/3/5
f 48/1/6 79/2/6 82/4/6 51/3/6
f 51/2/1 54/4/1 83/3/1 80/1/1
f 51/3/2 80/1/2 81/2/2 82/4/2
f 80/2/3 83/4/3 84/3/3 81/1/3
f 82/1/4 81/2/4 84/4/4 85/3/4
f 54/1/5 85/2/5 84/4/5 83/3/5
f 51/1/6 82/2/6 85/4/6 54/3/6
f 89/2/1 91/4/1 62/3/1 60/1/1
f 89/3/2 60/1/2 86/2/2 90/4/2
f 60/2/3 62/4/3 87/3/3 86/1/3
f 90/1/4 86/2/4 87/4/4 92/3/4
f 91/1/5 92/2/5 87/4/5 62/3/5
f 89/1/6 90/2/6 92/4/6 91/3/6
f 91/2/1 93/4/1 64/3/1 62/1/1
f 91/3/2 62/1/2 87/2/2 92/4/2
f 62/2/3 64/4/3 88/3/3 87/1/3
f 92/1/4 87/2/4 88/4/4 94/3/4
f 93/1/5 94/2/5 88/4/5 64/3/5
f 91/1/6 92/2/6 94/4/6 93/3/6
f 93/2/1 95/4/1 67/3/1 64/1/1
f 93/3/2 64/1/2 88/2/2 94/4/2
f 64/2/3 67/4/3 96/3/3 88/1/3
f 94/1/4 88/2/4 96/4/4 97/3/4
f 95/1/5 97/2/5 96/4/5 67/3/5
f 93/1/6 94/2/6 97/4/6 95/3/6
f 95/2/1 98/4/1 70/3/1 67/1/1
f 95/3/2 67/1/2 96/2/2 97/4/2
f 67/2/3 70/4/3 99/3/3 96/1/3
f 97/1/4 96/2/4 99/4/4 100/3/4
f 98/1/5 100/2/5 99/4/5 70/3/5
f 95/1/6 97/2/6 100/4/6 98/3/6
f 73/2/1 76/4/1 75/3/1 72/1/1
f 73/3/2 72/1/2 102/2/2 103/4/2
f 72/2/3 75/4/3 104/3/3 102/1/3
f 103/1/4 102/2/4 104/4/4 105/3/4
f 76/1/5 105/2/5 104/4/5 75/3/5
f 73/1/6 103/2/6 105/4/6 76/3/6
f 76/2/1 79/4/1 78/3/1 75/1/1
f 76/3/2 75/1/2 104/2/2 105/4/2
f 75/2/3 78/4/3 106/3/3 104/1/3
f 105/1/4 104/2/4 106/4/4 107/3/4
f 79/1/5 107/2/5 106/4/5 78/3/5
f 76/1/6 105/2/6 107/4/6 79/3/6
f 79/2/1 82/4/1 81/3/1 78/1/1
f 79/3/2 78/1/2 106/2/2 107/4/2
f 78/2/3 81/4/3 108/3/3 106/1/3
f 107/1/4 106/2/4 108/4/4 109/3/4
f 82/1/5 109/2/5 108/4/5 81/3/5
f 79/1/6 107/2/6 109/4/6 82/3/6
f 82/2/1 85/4/1 84/3/1 81/1/1
f 82/3/2 81/1/2 108/2/2 109/4/2
f 81/2/3 84/4/3 101/3/3 108/1/3
f 109/1/4 108/2/4 101/4/4 110/3/4
f 85/1/5 110/2/5 101/4/5 84/3/5
f 82/1/6 109/2/6 110/4/6 85/3/6
f 90/2/1 92/4/1 87/3/1 86/1/1
f 90/3/2 86/1/2 111/2/2 114/4/2
f 86/2/3 87/4/3 112/3/3 111/1/3
f 114/1/4 111/2/4 112/4/4 115/3/4
f 92/1/5 115/2/5 112/4/5 87/3/5
f 90/1/6 114/2/6 115/4/6 92/3/6
f 92/2/1 94/4/1 88/3/1 87/1/1
f 92/3/2 87/1/2 112/2/2 115/4/2
f 87/2/3 88/4/3 113/3/3 112/1/3
f 115/1/4 112/2/4 113/4/4 116/3/4
f 94/1/5 116/2/5 113/4/5 88/3/5
f 92/1/6 115/2/6 116/4/6 94/3/6
f 94/2/1 97/4/1 96/3/1 88/1/1
f 94/3/2 88/1/2 113/2/2 116/4/2
f 88/2/3 96/4/3 117/3/3 113/1/3
f 116/1/4 113/2/4 117/4/4 118/3/4
f 97/1/5 118/2/5 117/4/5 96/3/5
f 94/1/6 116/2/6 118/4/6 97/3/6
f 97/2/1 100/4/1 99/3/1 96/1/1
f 97/3/2 96/1/2 117/2/2 118/4/2
f 96/2/3 99/4/3 119/3/3 117/1/3
f 118/1/4 117/2/4 119/4/4 120/3/4
f 100/1/5 120/2/5 119/4/5 99/3/5
f 97/1/6 118/2/6 120/4/6 100/3/6
f 103/2/1 105/4/1 104/3/1 102/1/1
f 103/3/2 102/1/2 121/2/2 122/4/2
f 102/2/3 104/4/3 123/3/3 121/1/3
f 122/1/4 121/2/4 123/4/4 124/3/4
f 105/1/5 124/2/5 123/4/5 104/3/5
f 103/1/6 122/2/6 124/4/6 105/3/6
f 105/2/1 107/4/1 106/3/1 104/1/1
f 105/3/2 104/1/2 123/2/2 124/4/2
f 104/2/3 106/4/3 125/3/3 123/1/3
f 124/1/4 123/2/4 125/4/4 126/3/4
f 107/1/5 126/2/5 125/4/5 106/3/5
f 105/1/6 124/2/6 126/4/6 107/3/6
f 107/2/1 109/4/1 108/3/1 106/1/1
f 107/3/2 106/1/2 125/2/2 126/4/2
f 106/2/3 108/4/3 127/3/3 125/1/3
f 126/1/4 125/2/4 127/4/4 128/3/4
f 109/1/5 128/2/5 127/4/5 108/3/5
f 107/1/6 126/2/6 128/4/6 109/3/6
f 109/2/1 110/4/1 101/3/1 108/1/1
f 109/3/2 108/1/2 127/2/2 128/4/2
f 108/2/3 101/4/3 129/3/3 127/1/3
f 128/1/4 127/2/4 129/4/4 130/3/4
f 110/1/5 130/2/5 129/4/5 101/3/5
f 109/1/6 128/2/6 130/4/6 110/3/6
f 114/2/1 115/4/1 112/3/1 111/1/1
f 114/3/2 111/1/2 135/2/2 140/4/2
f 111/2/3 112/4/3 137/3/3 135/1/3
f 140/1/4 135/2/4 137/4/4 141/3/4
f 115/1/5 141/2/5 137/4/5 112/3/5
f 114/1/6 140/2/6 141/4/6 115/3/6
f 115/2/1 116/4/1 113/3/1 112/1/1
f 115/3/2 112/1/2 137/2/2 141/4/2
f 112/2/3 113/4/3 139/3/3 137/1/3
f 141/1/4 137/2/4 139/4/4 142/3/4
f 116/1/5 142/2/5 139/4/5 113/3/5
f 115/1/6 141/2/6 142/4/6 116/3/6
f 116/2/1 118/4/1 117/3/1 113/1/1
f 116/3/2 113/1/2 139/2/2 142/4/2
f 113/2/3 117/4/3 143/3/3 139/1/3
f 142/1/4 139/2/4 143/4/4 144/3/4
f 118/1/5 144/2/5 143/4/5 117/3/5
f 116/1/6 142/2/6 144/4/6 118/3/6
f 118/2/1 120/4/1 119/3/1 117/1/1
f 118/3/2 117/1/2 143/2/2 144/4/2
f 117/2/3 119/4/3 145/3/3 143/1/3
f 144/1/4 143/2/4 145/4/4 146/3/4
f 120/1/5 146/2/5 145/4/5 119/3/5
f 118/1/6 144/2/6 146/4/6 120/3/6
f 131/2/1 132/4/1 124/3/1 122/1/1
f 131/3/2 122/1/2 147/2/2 148/4/2
f 122/2/3 124/4/3 149/3/3 147/1/3
f 148/1/4 147/2/4 149/4/4 150/3/4
f 132/1/5 150/2/5 149/4/5 124/3/5
f 131/1/6 148/2/6 150/4/6 132/3/6
f 132/2/1 133/4/1 126/3/1 124/1/1
f 132/3/2 124/1/2 149/2/2 150/4/2
f 124/2/3 126/4/3 151/3/3 149/1/3
f 150/1/4 149/2/4 151/4/4 152/3/4
f 133/1/5 152/2/5 151/4/5 126/3/5
f 132/1/6 150/2/6 152/4/6 133/3/6
f 133/2/1 153/4/1 128/3/1 126/1/1
f 133/3/2 126/1/2 151/2/2 152/4/2
f 126/2/3 128/4/3 154/3/3 151/1/3
f 152/1/4 151/2/4 154/4/4 155/3/4
f 153/1/5 155/2/5 154/4/5 128/3/5
f 133/1/6 152/2/6 155/4/6 153/3/6
f 153/2/1 156/4/1 130/3/1 128/1/1
f 153/3/2 128/1/2 154/2/2 155/4/2
f 128/2/3 130/4/3 157/3/3 154/1/3
f 155/1/4 154/2/4 157/4/4 158/3/4
f 156/1/5 158/2/5 157/4/5 130/3/5
f 153/1/6 155/2/6 158/4/6 156/3/6
f 135/2/1 137/4/1 136/3/1 134/1/1
f 135/3/2 134/1/2 165/2/2 168/4/2
f 134/2/3 136/4/3 166/3/3 165/1/3
f 168/1/4 165/2/4 166/4/4 169/3/4
f 137/1/5 169/2/5 166/4/5 136/3/5
f 135/1/6 168/2/6 169/4/6 137/3/6
f 137/2/1 139/4/1 138/3/1 136/1/1
f 137/3/2 136/1/2 166/2/2 169/4/2
f 136/2/3 138/4/3 167/3/3 166/1/3
f 169/1/4 166/2/4 167/4/4 170/3/4
f 139/1/5 170/2/5 167/4/5 138/3/5
f 137/1/6 169/2/6 170/4/6 139/3/6
f 139/2/1 143/4/1 171/3/1 138/1/1
f 139/3/2 138/1/2 167/2/2 170/4/2
f 138/2/3 171/4/3 172/3/3 167/1/3
f 170/1/4 167/2/4 172/4/4 173/3/4
f 143/1/5 173/2/5 172/4/5 171/3/5
f 139/1/6 170/2/6 173/4/6 143/3/6
f 143/2/1 145/4/1 174/3/1 171/1/1
f 143/3/2 171/1/2 172/2/2 173/4/2
f 171/2/3 174/4/3 175/3/3 172/1/3
f 173/1/4 172/2/4 175/4/4 176/3/4
f 145/1/5 176/2/5 175/4/5 174/3/5
f 143/1/6 173/2/6 176/4/6 145/3/6
f 159/2/1 160/4/1 150/3/1 148/1/1
f 159/3/2 148/1/2 177/2/2 178/4/2
f 148/2/3 150/4/3 179/3/3 177/1/3
f 178/1/4 177/2/4 179/4/4 180/3/4
f 160/1/5 180/2/5 179/4/5 150/3/5
f 159/1/6 178/2/6 180/4/6 160/3/6
f 160/2/1 161/4/1 152/3/1 150/1/1
f 160/3/2 150/1/2 179/2/2 180/4/2
f 150/2/3 152/4/3 181/3/3 179/1/3
f 180/1/4 179/2/4 181/4/4 182/3/4
f 161/1/5 182/2/5 181/4/5 152/3/5
f 160/1/6 180/2/6 182/4/6 161/3/6
f 161/2/1 183/4/1 155/3/1 152/1/1
f 161/3/2 152/1/2 181/2/2 182/4/2
f 152/2/3 155/4/3 184/3/3 181/1/3
f 182/1/4 181/2/4 184/4/4 185/3/4
f 183/1/5 185/2/5 184/4/5 155/3/5
f 161/1/6 182/2/6 185/4/6 183/3/6
f 183/2/1 186/4/1 158/3/1 155/1/1
f 183/3/2 155/1/2 184/2/2 185/4/2
f 155/2/3 158/4/3 187/3/3 184/1/3
f 185/1/4 184/2/4 187/4/4 188/3/4
f 186/1/5 188/2/5 187/4/5 158/3/5
f 183/1/6 185/2/6 188/4/6 186/3/6
f 162/2/1 163/4/1 160/3/1 159/1/1
f 162/3/2 159/1/2 178/2/2 189/4/2
f 159/2/3 160/4/3 180/3/3 178/1/3
f 189/1/4 178/2/4 180/4/4 190/3/4
f 163/1/5 190/2/5 180/4/5 160/3/5
f 162/1/6 189/2/6 190/4/6 163/3/6
f 163/2/1 164/4/1 161/3/1 160/1/1
f 163/3/2 160/1/2 180/2/2 190/4/2
f 160/2/3 161/4/3 182/3/3 180/1/3
f 190/1/4 180/2/4 182/4/4 191/3/4
f 164/1/5 191/2/5 182/4/5 161/3/5
f 163/1/6 190/2/6 191/4/6 164/3/6
f 164/2/1 192/4/1 183/3/1 161/1/1
f 164/3/2 161/1/2 182/2/2 191/4/2
f 161/2/3 183/4/3 185/3/3 182/1/3
f 191/1/4 182/2/4 185/4/4 193/3/4
f 192/1/5 193/2/5 185/4/5 183/3/5
f 164/1/6 191/2/6 193/4/6 192/3/6
f 192/2/1 194/4/1 186/3/1 183/1/1
f 192/3/2 183/1/2 185/2/2 193/4/2
f 183/2/3 186/4/3 188/3/3 185/1/3
f 193/1/4 185/2/4 188/4/4 195/3/4
f 194/1/5 195/2/5 188/4/5 186/3/5
f 192/1/6 193/2/6 195/4/6 194/3/6
f 165/2/1 166/4/1 163/3/1 162/1/1
f 165/3/2 162/1/2 189/2/2 196/4/2
f 162/2/3 163/4/3 190/3/3 189/1/3
f 196/1/4 189/2/4 190/4/4 197/3/4
f 166/1/5 197/2/5 190/4/5 163/3/5
f 165/1/6 196/2/6 197/4/6 166/3/6
f 166/2/1 167/4/1 164/3/1 163/1/1
f 166/3/2 163/1/2 190/2/2 197/4/2
f 163/2/3 164/4/3 191/3/3 190/1/3
f 197/1/4 190/2/4 191/4/4 198/3/4
f 167/1/5 198/2/5 191/4/5 164/3/5
f 166/1/6 197/2/6 198/4/6 167/3/6
f 167/2/1 172/4/1 192/3/1 164/1/1
f 167/3/2 164/1/2 191/2/2 198/4/2
f 164/2/3 192/4/3 193/3/3 191/1/3
f 198/1/4 191/2/4 193/4/4 199/3/4
f 172/1/5 199/2/5 193/4/5 192/3/5
f 167/1/6 198/2/6 199/4/6 172/3/6
f 172/2/1 175/4/1 194/3/1 192/1/1
f 172/3/2 192/1/2 193/2/2 199/4/2
f 192/2/3 194/4/3 195/3/3 193/1/3
f 199/1/4 193/2/4 195/4/4 200/3/4
f 175/1/5 200/2/5 195/4/5 194/3/5
f 172/1/6 199/2/6 200/4/6 175/3/6
