mtllib lighthouse.mtl
usemtl coal_ore
v -15 3 2
v -14 3 2
v -15 4 2
v -14 4 2
v -15 5 2
v -14 5 2
v -15 3 3
v -14 3 3
v -15 4 3
v -14 4 3
v -15 5 3
v -14 5 3
v -15 6 3
v -14 6 3
v -15 3 4
v -14 3 4
v -15 4 4
v -14 4 4
v -15 5 4
v -14 5 4
v -15 6 4
v -14 6 4
v -15 4 5
v -14 4 5
v -15 5 5
v -14 5 5
v -11 8 12
v -11 9 12
v -11 8 13
v -11 9 13
v -11 7 14
v -11 8 14
v -11 9 14
v -11 7 15
v -11 8 15
v -11 9 15
v -11 8 16
v -11 9 16
v -10 3 -6
v -10 4 -6
v -10 3 -5
v -10 4 -5
v -10 8 12
v -10 9 12
v -10 7 13
v -10 8 13
v -10 9 13
v -10 7 14
v -10 8 14
v -10 9 14
v -10 7 15
v -10 8 15
v -10 9 15
v -10 8 16
v -10 9 16
v -9 2 -6
v -9 3 -6
v -9 4 -6
v -9 2 -5
v -9 3 -5
v -9 4 -5
v -9 5 -5
v -9 2 -4
v -9 3 -4
v -9 4 -4
v -9 5 -4
v -9 2 -3
v -9 3 -3
v -9 4 -3
v -9 8 12
v -9 9 12
v -9 7 13
v -9 8 13
v -9 9 13
v -9 7 14
v -9 8 14
v -9 9 14
v -9 8 15
v -9 9 15
v -9 8 16
v -9 9 16
v -8 2 -6
v -8 3 -6
v -8 4 -6
v -8 2 -5
v -8 3 -5
v -8 4 -5
v -8 5 -5
v -8 2 -4
v -8 3 -4
v -8 4 -4
v -8 5 -4
v -8 2 -3
v -8 3 -3
v -8 4 -3
v -8 2 -2
v -8 3 -2
v -8 4 -2
v -8 8 13
v -8 9 13
v -8 8 14
v -8 9 14
v -8 8 15
v -8 9 15
v -7 2 -6
v -7 3 -6
v -7 4 -6
v -7 2 -5
v -7 3 -5
v -7 4 -5
v -7 5 -5
v -7 2 -4
v -7 3 -4
v -7 4 -4
v -7 5 -4
v -7 2 -3
v -7 3 -3
v -7 4 -3
v -7 2 -2
v -7 3 -2
v -7 4 -2
v -5 3 6
v -5 4 6
v -5 5 6
v -5 3 7
v -5 4 7
v -5 5 7
v -5 6 7
v -5 3 8
v -5 4 8
v -5 5 8
v -5 6 8
v -4 3 6
v -4 4 6
v -4 5 6
v -4 6 6
v -4 3 7
v -4 4 7
v -4 5 7
v -4 6 7
v -4 3 8
v -4 4 8
v -4 5 8
v -4 6 8
v -4 4 9
v -4 5 9
v -4 6 9
v -4 5 10
v -4 6 10
v -3 3 6
v -3 4 6
v -3 5 6
v -3 6 6
v -3 3 7
v -3 4 7
v -3 5 7
v -3 6 7
v -3 3 8
v -3 4 8
v -3 5 8
v -3 6 8
v -3 7 8
v -3 4 9
v -3 5 9
v -3 6 9
v -3 7 9
v -3 4 10
v -3 5 10
v -3 6 10
v -3 7 10
v -2 4 7
v -2 5 7
v -2 6 7
v -2 4 8
v -2 5 8
v -2 6 8
v -2 7 8
v -2 4 9
v -2 5 9
v -2 6 9
v -2 7 9
v -2 4 10
v -2 5 10
v -2 6 10
v -2 7 10
v -1 4 8
v -1 5 8
v -1 6 8
v -1 4 9
v -1 5 9
v -1 6 9
v -1 7 9
v -1 5 10
v -1 6 10
v -1 7 10
vt 0.000000000 0.000000000
vt 1.000000000 0.000000000
vt 0.000000000 1.000000000
vt 1.000000000 1.000000000
vn -1 0 0
vn 0 -1 0
vn 0 0 -1
vn 1 0 0
vn 0 1 0
vn 0 0 1
f 7/2/1 9/4/1 3/3/1 1/1/1
f 7/3/2 1/1/2 2/2/2 8/4/2
f 1/2/3 3/4/3 4/3/3 2/1/3
f 8/1/4 2/2/4 4/4/4 10/3/4
f 9/1/5 10/2/5 4/4/5 3/3/5
f 7/1/6 8/2/6 10/4/6 9/3/6
f 9/2/1 11/4/1 5/3/1 3/1/1
f 9/3/2 3/1/2 4/2/2 10/4/2
f 3/2/3 5/4/3 6/3/3 4/1/3
f 10/1/4 4/2/4 6/4/4 12/3/4
f 11/1/5 12/2/5 6/4/5 5/3/5
f 9/1/6 10/2/6 12/4/6 11/3/6
f 15/2/1 17/4/1 9/3/1 7/1/1
f 15/3/2 7/1/2 8/2/2 16/4/2
f 7/2/3 9/4/3 10/3/3 8/1/3
f 16/1/4 8/2/4 10/4/4 18/3/4
f 17/1/5 18/2/5 10/4/5 9/3/5
f 15/1/6 16/2/6 18/4/6 17/3/6
f 17/2/1 19/4/1 11/3/1 9/1/1
f 17/3/2 9/1/2 10/2/2 18/4/2
f 9/2/3 11/4/3 12/3/3 10/1/3
f 18/1/4 10/2/4 12/4/4 20/3/4
f 19/1/5 20/2/5 12/4/5 11/3/5
f 17/1/6 18/2/6 20/4/6 19/3/6
f 19/2/1 21/4/1 13/3/1 11/1/1
f 19/3/2 11/1/2 12/2/2 20/4/2
f 11/2/3 13/4/3 14/3/3 12/1/3
f 20/1/4 12/2/4 14/4/4 22/3/4
f 21/1/5 22/2/5 14/4/5 13/3/5
f 19/1/6 20/2/6 22/4/6 21/3/6
f 23/2/1 25/4/1 19/3/1 17/1/1
f 23/3/2 17/1/2 18/2/2 24/4/2
f 17/2/3 19/4/3 20/3/3 18/1/3
f 24/1/4 18/2/4 20/4/4 26/3/4
f 25/1/5 26/2/5 20/4/5 19/3/5
f 23/1/6 24/2/6 26/4/6 25/3/6
f 29/2/1 30/4/1 28/3/1 27/1/1
f 29/3/2 27/1/2 43/2/2 46/4/2
f 27/2/3 28/4/3 44/3/3 43/1/3
f 46/1/4 43/2/4 44/4/4 47/3/4
f 30/1/5 47/2/5 44/4/5 28/3/5
f 29/1/6 46/2/6 47/4/6 30/3/6
f 32/2/1 33/4/1 30/3/1 29/1/1
f 32/3/2 29/1/2 46/2/2 49/4/2
f 29/2/3 30/4/3 47/3/3 46/1/3
f 49/1/4 46/2/4 47/4/4 50/3/4
f 33/1/5 50/2/5 47/4/5 30/3/5
f 32/1/6 49/2/6 50/4/6 33/3/6
f 34/2/1 35/4/1 32/3/1 31/1/1
f 34/3/2 31/1/2 48/2/2 51/4/2
f 31/2/3 32/4/3 49/3/3 48/1/3
f 51/1/4 48/2/4 49/4/4 52/3/4
f 35/1/5 52/2/5 49/4/5 32/3/5
f 34/1/6 51/2/6 52/4/6 35/3/6
f 35/2/1 36/4/1 33/3/1 32/1/1
f 35/3/2 32/1/2 49/2/2 52/4/2
f 32/2/3 33/4/3 50/3/3 49/1/3
f 52/1/4 49/2/4 50/4/4 53/3/4
f 36/1/5 53/2/5 50/4/5 33/3/5
f 35/1/6 52/2/6 53/4/6 36/3/6
f 37/2/1 38/4/1 36/3/1 35/1/1
f 37/3/2 35/1/2 52/2/2 54/4/2
f 35/2/3 36/4/3 53/3/3 52/1/3
f 54/1/4 52/2/4 53/4/4 55/3/4
f 38/1/5 55/2/5 53/4/5 36/3/5
f 37/1/6 54/2/6 55/4/6 38/3/6
f 41/2/1 42/4/1 40/3/1 39/1/1
f 41/3/2 39/1/2 57/2/2 60/4/2
f 39/2/3 40/4/3 58/3/3 57/1/3
f 60/1/4 57/2/4 58/4/4 61/3/4
f 42/1/5 61/2/5 58/4/5 40/3/5
f 41/1/6 60/2/6 61/4/6 42/3/6
f 46/2/1 47/4/1 44/3/1 43/1/1
f 46/3/2 43/1/2 70/2/2 73/4/2
f 43/2/3 44/4/3 71/3/3 70/1/3
f 73/1/4 70/2/4 71/4/4 74/3/4
f 47/1/5 74/2/5 71/4/5 44/3/5
f 46/1/6 73/2/6 74/4/6 47/3/6
f 48/2/1 49/4/1 46/3/1 45/1/1
f 48/3/2 45/1/2 72/2/2 75/4/2
f 45/2/3 46/4/3 73/3/3 72/1/3
f 75/1/4 72/2/4 73/4/4 76/3/4
f 49/1/5 76/2/5 73/4/5 46/3/5
f 48/1/6 75/2/6 76/4/6 49/3/6
f 49/2/1 50/4/1 47/3/1 46/1/1
f 49/3/2 46/1/2 73/2/2 76/4/2
f 46/2/3 47/4/3 74/3/3 73/1/3
f 76/1/4 73/2/4 74/4/4 77/3/4
f 50/1/5 77/2/5 74/4/5 47/3/5
f 49/1/6 76/2/6 77/4/6 50/3/6
f 52/2/1 53/4/1 50/3/1 49/1/1
f 52/3/2 49/1/2 76/2/2 78/4/2
f 49/2/3 50/4/3 77/3/3 76/1/3
f 78/1/4 76/2/4 77/4/4 79/3/4
f 53/1/5 79/2/5 77/4/5 50/3/5
f 52/1/6 78/2/6 79/4/6 53/3/6
f 54/2/1 55/4/1 53/3/1 52/1/1
f 54/3/2 52/1/2 78/2/2 80/4/2
f 52/2/3 53/4/3 79/3/3 78/1/3
f 80/1/4 78/2/4 79/4/4 81/3/4
f 55/1/5 81/2/5 79/4/5 53/3/5
f 54/1/6 80/2/6 81/4/6 55/3/6
f 59/2/1 60/4/1 57/3/1 56/1/1
f 59/3/2 56/1/2 82/2/2 85/4/2
f 56/2/3 57/4/3 83/3/3 82/1/3
f 85/1/4 82/2/4 83/4/4 86/3/4
f 60/1/5 86/2/5 83/4/5 57/3/5
f 59/1/6 85/2/6 86/4/6 60/3/6
f 60/2/1 61/4/1 58/3/1 57/1/1
f 60/3/2 57/1/2 83/2/2 86/4/2
f 57/2/3 58/4/3 84/3/3 83/1/3
f 86/1/4 83/2/4 84/4/4 87/3/4
f 61/1/5 87/2/5 84/4/5 58/3/5
f 60/1/6 86/2/6 87/4/6 61/3/6
f 63/2/1 64/4/1 60/3/1 59/1/1
f 63/3/2 59/1/2 85/2/2 89/4/2
f 59/2/3 60/4/3 86/3/3 85/1/3
f 89/1/4 85/2/4 86/4/4 90/3/4
f 64/1/5 90/2/5 86/4/5 60/3/5
f 63/1/6 89/2/6 90/4/6 64/3/6
f 64/2/1 65/4/1 61/3/1 60/1/1
f 64/3/2 60/1/2 86/2/2 90/4/2
f 60/2/3 61/4/3 87/3/3 86/1/3
f 90/1/4 86/2/4 87/4/4 91/3/4
f 65/1/5 91/2/5 87/4/5 61/3/5
f 64/1/6 90/2/6 91/4/6 65/3/6
f 65/2/1 66/4/1 62/3/1 61/1/1
f 65/3/2 61/1/2 87/2/2 91/4/2
f 61/2/3 62/4/3 88/3/3 87/1/3
f 91/1/4 87/2/4 88/4/4 92/3/4
f 66/1/5 92/2/5 88/4/5 62/3/5
f 65/1/6 91/2/6 92/4/6 66/3/6
f 67/2/1 68/4/1 64/3/1 63/1/1
f 67/3/2 63/1/2 89/2/2 93/4/2
f 63/2/3 64/4/3 90/3/3 89/1/3
f 93/1/4 89/2/4 90/4/4 94/3/4
f 68/1/5 94/2/5 90/4/5 64/3/5
f 67/1/6 93/2/6 94/4/6 68/3/6
f 68/2/1 69/4/1 65/3/1 64/1/1
f 68/3/2 64/1/2 90/2/2 94/4/2
f 64/2/3 65/4/3 91/3/3 90/1/3
f 94/1/4 90/2/4 91/4/4 95/3/4
f 69/1/5 95/2/5 91/4/5 65/3/5
f 68/1/6 94/2/6 95/4/6 69/3/6
f 76/2/1 77/4/1 74/3/1 73/1/1
f 76/3/2 73/1/2 99/2/2 101/4/2
f 73/2/3 74/4/3 100/3/3 99/1/3
f 101/1/4 99/2/4 100/4/4 102/3/4
f 77/1/5 102/2/5 100/4/5 74/3/5
f 76/1/6 101/2/6 102/4/6 77/3/6
f 78/2/1 79/4/1 77/3/1 76/1/1
f 78/3/2 76/1/2 101/2/2 103/4/2
f 76/2/3 77/4/3 102/3/3 101/1/3
f 103/1/4 101/2/4 102/4/4 104/3/4
f 79/1/5 104/2/5 102/4/5 77/3/5
f 78/1/6 103/2/6 104/4/6 79/3/6
f 85/2/1 86/4/1 83/3/1 82/1/1
f 85/3/2 82/1/2 105/2/2 108/4/2
f 82/2/3 83/4/3 106/3/3 105/1/3
f 108/1/4 105/2/4 106/4/4 109/3/4
f 86/1/5 109/2/5 106/4/5 83/3/5
f 85/1/6 108/2/6 109/4/6 86/3/6
f 86/2/1 87/4/1 84/3/1 83/1/1
f 86/3/2 83/1/2 106/2/2 109/4/2
f 83/2/3 84/4/3 107/3/3 106/1/3
f 109/1/4 106/2/4 107/4/4 110/3/4
f 87/1/5 110/2/5 107/4/5 84/3/5
f 86/1/6 109/2/6 110/4/6 87/3/6
f 89/2/1 90/4/1 86/3/1 85/1/1
f 89/3/2 85/1/2 108/2/2 112/4/2
f 85/2/3 86/4/3 109/3/3 108/1/3
f 112/1/4 108/2/4 109/4/4 113/3/4
f 90/1/5 113/2/5 109/4/5 86/3/5
f 89/1/6 112/2/6 113/4/6 90/3/6
f 90/2/1 91/4/1 87/3/1 86/1/1
f 90/3/2 86/1/2 109/2/2 113/4/2
f 86/2/3 87/4/3 110/3/3 109/1/3
f 113/1/4 109/2/4 110/4/4 114/3/4
f 91/1/5 114/2/5 110/4/5 87/3/5
f 90/1/6 113/2/6 114/4/6 91/3/6
f 91/2/1 92/4/1 88/3/1 87/1/1
f 91/3/2 87/1/2 110/2/2 114/4/2
f 87/2/3 88/4/3 111/3/3 110/1/3
f 114/1/4 110/2/4 111/4/4 115/3/4
f 92/1/5 115/2/5 111/4/5 88/3/5
f 91/1/6 114/2/6 115/4/6 92/3/6
f 93/2/1 94/4/1 90/3/1 89/1/1
f 93/3/2 89/1/2 112/2/2 116/4/2
f 89/2/3 90/4/3 113/3/3 112/1/3
f 116/1/4 112/2/4 113/4/4 117/3/4
f 94/1/5 117/2/5 113/4/5 90/3/5
f 93/1/6 116/2/6 117/4/6 94/3/6
f 94/2/1 95/4/1 91/3/1 90/1/1
f 94/3/2 90/1/2 113/2/2 117/4/2
f 90/2/3 91/4/3 114/3/3 113/1/3
f 117/1/4 113/2/4 114/4/4 118/3/4
f 95/1/5 118/2/5 114/4/5 91/3/5
f 94/1/6 117/2/6 118/4/6 95/3/6
f 96/2/1 97/4/1 94/3/1 93/1/1
f 96/3/2 93/1/2 116/2/2 119/4/2
f 93/2/3 94/4/3 117/3/3 116/1/3
f 119/1/4 116/2/4 117/4/4 120/3/4
f 97/1/5 120/2/5 117/4/5 94/3/5
f 96/1/6 119/2/6 120/4/6 97/3/6
f 97/2/1 98/4/1 95/3/1 94/1/1
f 97/3/2 94/1/2 117/2/2 120/4/2
f 94/2/3 95/4/3 118/3/3 117/1/3
f 120/1/4 117/2/4 118/4/4 121/3/4
f 98/1/5 121/2/5 118/4/5 95/3/5
f 97/1/6 120/2/6 121/4/6 98/3/6
f 125/2/1 126/4/1 123/3/1 122/1/1
f 125/3/2 122/1/2 133/2/2 137/4/2
f 122/2/3 123/4/3 134/3/3 133/1/3
f 137/1/4 133/2/4 134/4/4 138/3/4
f 126/1/5 138/2/5 134/4/5 123/3/5
f 125/1/6 137/2/6 138/4/6 126/3/6
f 126/2/1 127/4/1 124/3/1 123/1/1
f 126/3/2 123/1/2 134/2/2 138/4/2
f 123/2/3 124/4/3 135/3/3 134/1/3
f 138/1/4 134/2/4 135/4/4 139/3/4
f 127/1/5 139/2/5 135/4/5 124/3/5
f 126/1/6 138/2/6 139/4/6 127/3/6
f 129/2/1 130/4/1 126/3/1 125/1/1
f 129/3/2 125/1/2 137/2/2 141/4/2
f 125/2/3 126/4/3 138/3/3 137/1/3
f 141/1/4 137/2/4 138/4/4 142/3/4
f 130/1/5 142/2/5 138/4/5 126/3/5
f 129/1/6 141/2/6 142/4/6 130/3/6
f 130/2/1 131/4/1 127/3/1 126/1/1
f 130/3/2 126/1/2 138/2/2 142/4/2
f 126/2/3 127/4/3 139/3/3 138/1/3
f 142/1/4 138/2/4 139/4/4 143/3/4
f 131/1/5 143/2/5 139/4/5 127/3/5
f 130/1/6 142/2/6 143/4/6 131/3/6
f 131/2/1 132/4/1 128/3/1 127/1/1
f 131/3/2 127/1/2 139/2/2 143/4/2
f 127/2/3 128/4/3 140/3/3 139/1/3
f 143/1/4 139/2/4 140/4/4 144/3/4
f 132/1/5 144/2/5 140/4/5 128/3/5
f 131/1/6 143/2/6 144/4/6 132/3/6
f 137/2/1 138/4/1 134/3/1 133/1/1
f 137/3/2 133/1/2 150/2/2 154/4/2
f 133/2/3 134/4/3 151/3/3 150/1/3
f 154/1/4 150/2/4 151/4/4 155/3/4
f 138/1/5 155/2/5 151/4/5 134/3/5
f 137/1/6 154/2/6 155/4/6 138/3/6
f 138/2/1 139/4/1 135/3/1 134/1/1
f 138/3/2 134/1/2 151/2/2 155/4/2
f 134/2/3 135/4/3 152/3/3 151/1/3
f 155/1/4 151/2/4 152/4/4 156/3/4
f 139/1/5 156/2/5 152/4/5 135/3/5
f 138/1/6 155/2/6 156/4/6 139/3/6
f 139/2/1 140/4/1 136/3/1 135/1/1
f 139/3/2 135/1/2 152/2/2 156/4/2
f 135/2/3 136/4/3 153/3/3 152/1/3
f 156/1/4 152/2/4 153/4/4 157/3/4
f 140/1/5 157/2/5 153/4/5 136/3/5
f 139/1/6 156/2/6 157/4/6 140/3/6
f 141/2/1 142/4/1 138/3/1 137/1/1
f 141/3/2 137/1/2 154/2/2 158/4/2
f 137/2/3 138/4/3 155/3/3 154/1/3
f 158/1/4 154/2/4 155/4/4 159/3/4
f 142/1/5 159/2/5 155/4/5 138/3/5
f 141/1/6 158/2/6 159/4/6 142/3/6
f 142/2/1 143/4/1 139/3/1 138/1/1
f 142/3/2 138/1/2 155/2/2 159/4/2
f 138/2/3 139/4/3 156/3/3 155/1/3
f 159/1/4 155/2/4 156/4/4 160/3/4
f 143/1/5 160/2/5 156/4/5 139/3/5
f 142/1/6 159/2/6 160/4/6 143/3/6
f 143/2/1 144/4/1 140/3/1 139/1/1
f 143/3/2 139/1/2 156/2/2 160/4/2
f 139/2/3 140/4/3 157/3/3 156/1/3
f 160/1/4 156/2/4 157/4/4 161/3/4
f 144/1/5 161/2/5 157/4/5 140/3/5
f 143/1/6 160/2/6 161/4/6 144/3/6
f 145/2/1 146/4/1 143/3/1 142/1/1
f 145/3/2 142/1/2 159/2/2 163/4/2
f 142/2/3 143/4/3 160/3/3 159/1/3
f 163/1/4 159/2/4 160/4/4 164/3/4
f 146/1/5 164/2/5 160/4/5 143/3/5
f 145/1/6 163/2/6 164/4/6 146/3/6
f 146/2/1 147/4/1 144/3/1 143/1/1
f 146/3/2 143/1/2 160/2/2 164/4/2
f 143/2/3 144/4/3 161/3/3 160/1/3
f 164/1/4 160/2/4 161/4/4 165/3/4
f 147/1/5 165/2/5 161/4/5 144/3/5
f 146/1/6 164/2/6 165/4/6 147/3/6
f 148/2/1 149/4/1 147/3/1 146/1/1
f 148/3/2 146/1/2 164/2/2 168/4/2
f 146/2/3 147/4/3 165/3/3 164/1/3
f 168/1/4 164/2/4 165/4/4 169/3/4
f 149/1/5 169/2/5 165/4/5 147/3/5
f 148/1/6 168/2/6 169/4/6 149/3/6
f 159/2/1 160/4/1 156/3/1 155/1/1
f 159/3/2 155/1/2 171/2/2 174/4/2
f 155/2/3 156/4/3 172/3/3 171/1/3
f 174/1/4 171/2/4 172/4/4 175/3/4
f 160/1/5 175/2/5 172/4/5 156/3/5
f 159/1/6 174/2/6 175/4/6 160/3/6
f 160/2/1 161/4/1 157/3/1 156/1/1
f 160/3/2 156/1/2 172/2/2 175/4/2
f 156/2/3 157/4/3 173/3/3 172/1/3
f 175/1/4 172/2/4 173/4/4 176/3/4
f 161/1/5 176/2/5 173/4/5 157/3/5
f 160/1/6 175/2/6 176/4/6 161/3/6
f 163/2/1 164/4/1 160/3/1 159/1/1
f 163/3/2 159/1/2 174/2/2 178/4/2
f 159/2/3 160/4/3 175/3/3 174/1/3
f 178/1/4 174/2/4 175/4/4 179/3/4
f 164/1/5 179/2/5 175/4/5 160/3/5
f 163/1/6 178/2/6 179/4/6 164/3/6
f 164/2/1 165/4/1 161/3/1 160/1/1
f 164/3/2 160/1/2 175/2/2 179/4/2
f 160/2/3 161/4/3 176/3/3 175/1/3
f 179/1/4 175/2/4 176/4/4 180/3/4
f 165/1/5 180/2/5 176/4/5 161/3/5
f 164/1/6 179/2/6 180/4/6 165/3/6
f 165/2/1 166/4/1 162/3/1 161/1/1
f 165/3/2 161/1/2 176/2/2 180/4/2
f 161/2/3 162/4/3 177/3/3 176/1/3
f 180/1/4 176/2/4 177/4/4 181/3/4
f 166/1/5 181/2/5 177/4/5 162/3/5
f 165/1/6 180/2/6 181/4/6 166/3/6
f 167/2/1 168/4/1 164/3/1 163/1/1
f 167/3/2 163/1/2 178/2/2 182/4/2
f 163/2/3 164/4/3 179/3/3 178/1/3
f 182/1/4 178/2/4 179/4/4 183/3/4
f 168/1/5 183/2/5 179/4/5 164/3/5
f 167/1/6 182/2/6 183/4/6 168/3/6
f 168/2/1 169/4/1 165/3/1 164/1/1
f 168/3/2 164/1/2 179/2/2 183/4/2
f 164/2/3 165/4/3 180/3/3 179/1/3
f 183/1/4 179/2/4 180/4/4 184/3/4
f 169/1/5 184/2/5 180/4/5 165/3/5
f 168/1/6 183/2/6 184/4/6 169/3/6
f 169/2/1 170/4/1 166/3/1 165/1/1
f 169/3/2 165/1/2 180/2/2 184/4/2
f 165/2/3 166/4/3 181/3/3 180/1/3
f 184/1/4 180/2/4 181/4/4 185/3/4
f 170/1/5 185/2/5 181/4/5 166/3/5
f 169/1/6 184/2/6 185/4/6 170/3/6
f 178/2/1 179/4/1 175/3/1 174/1/1
f 178/3/2 174/1/2 186/2/2 189/4/2
f 174/2/3 175/4/3 187/3/3 186/1/3
f 189/1/4 186/2/4 187/4/4 190/3/4
f 179/1/5 190/2/5 187/4/5 175/3/5
f 178/1/6 189/2/6 190/4/6 179/3/6
f 179/2/1 180/4/1 176/3/1 175/1/1
f 179/3/2 175/1/2 187/2/2 190/4/2
f 175/2/3 176/4/3 188/3/3 187/1/3
f 190/1/4 187/2/4 188/4/4 191/3/4
f 180/1/5 191/2/5 188/4/5 176/3/5
f 179/1/6 190/2/6 191/4/6 180/3/6
f 183/2/1 184/4/1 180/3/1 179/1/1
f 183/3/2 179/1/2 190/2/2 193/4/2
f 179/2/3 180/4/3 191/3/3 190/1/3
f 193/1/4 190/2/4 191/4/4 194/3/4
f 184/1/5 194/2/5 191/4/5 180/3/5
f 183/1/6 193/2/6 194/4/6 184/3/6
f 184/2/1 185/4/1 181/3/1 180/1/1
f 184/3/2 180/1/2 191/2/2 194/4/2
f 180/2/3 181/4/3 192/3/3 191/1/3
f 194/1/4 191/2/4 192/4/4 195/3/4
f 185/1/5 195/2/5 192/4/5 181/3/5
f 184/1/6 194/2/6 195/4/6 185/3/6
