mtllib lighthouse.mtl
usemtl furnace_top
v -2 10 1
v -2 10 2
v -2 11 2
v -2 11 1
v -1 10 1
v -1 10 2
v -1 11 1
v -1 11 2
v 2 9 -1
v 2 10 -1
v 2 9 0
v 2 10 0
v 3 9 -1
v 3 10 -1
v 3 9 0
v 3 10 0
vt 0.000000000 0.000000000
vt 1.000000000 0.000000000
vt 0.000000000 1.000000000
vt 1.000000000 1.000000000
vn -1 0 0
vn 0 -1 0
vn 0 0 -1
vn 1 0 0
vn 0 1 0
vn 0 0 1
f 2/2/1 3/4/1 4/3/1 1/1/1
f 1/2/3 4/4/3 7/3/3 5/1/3
f 6/1/4 5/2/4 7/4/4 8/3/4
f 3/1/5 8/2/5 7/4/5 4/3/5
f 2/1/6 6/2/6 8/4/6 3/3/6
f 11/2/1 12/4/1 10/3/1 9/1/1
f 11/3/2 9/1/2 13/2/2 15/4/2
f 9/2/3 10/4/3 14/3/3 13/1/3
f 15/1/4 13/2/4 14/4/4 16/3/4
f 11/1/6 15/2/6 16/4/6 12/3/6
