mtllib lighthouse.mtl
usemtl beacon
v 0.1875 16.1875 1.1875
v 0.1875 16.1875 1.8125
v 0.1875 16.8125 1.1875
v 0.1875 16.8125 1.8125
v 0.8125 16.1875 1.1875
v 0.8125 16.1875 1.8125
v 0.8125 16.8125 1.1875
v 0.8125 16.8125 1.8125
vt 0.187500000 0.187500000
vt 0.812500000 0.187500000
vt 0.187500000 0.812500000
vt 0.812500000 0.812500000
vn -1 0 0
vn 0 0 -1
vn 1 0 0
vn 0 1 0
vn 0 0 1
f 3/3/1 1/1/1 2/2/1 4/4/1
f 7/3/2 5/1/2 1/2/2 3/4/2
f 7/4/3 8/3/3 6/1/3 5/2/3
f 7/4/4 3/3/4 4/1/4 8/2/4
f 8/4/5 4/3/5 2/1/5 6/2/5
