mtllib lighthouse.mtl
usemtl scaffolding_bottom
v -2 30.875 -1
v -2 30.875 0
v -1 30.875 -1
v -1 30.875 0
v -2 30 -1
v -2 30 -0.875
v -1.875 30 -1
v -1.875 30 -0.875
v -2 30 -0.125
v -2 30 0
v -1.875 30 -0.125
v -1.875 30 0
v -1.125 30 -1
v -1.125 30 -0.875
v -1 30 -1
v -1 30 -0.875
v -1.125 30 -0.125
v -1.125 30 0
v -1 30 -0.125
v -1 30 0
v -2 31.875 -1
v -2 31.875 0
v -1 31.875 -1
v -1 31.875 0
v -2 31 -1
v -2 31 -0.875
v -1.875 31 -1
v -1.875 31 -0.875
v -2 31 -0.125
v -2 31 0
v -1.875 31 -0.125
v -1.875 31 0
v -1.125 31 -1
v -1.125 31 -0.875
v -1 31 -1
v -1 31 -0.875
v -1.125 31 -0.125
v -1.125 31 0
v -1 31 -0.125
v -1 31 0
v -2 32.875 -1
v -2 32.875 0
v -1 32.875 -1
v -1 32.875 0
v -2 32 -1
v -2 32 -0.875
v -1.875 32 -1
v -1.875 32 -0.875
v -2 32 -0.125
v -2 32 0
v -1.875 32 -0.125
v -1.875 32 0
v -1.125 32 -1
v -1.125 32 -0.875
v -1 32 -1
v -1 32 -0.875
v -1.125 32 -0.125
v -1.125 32 0
v -1 32 -0.125
v -1 32 0
v -2 33.875 -1
v -2 33.875 0
v -1 33.875 -1
v -1 33.875 0
v -2 33 -1
v -2 33 -0.875
v -1.875 33 -1
v -1.875 33 -0.875
v -2 33 -0.125
v -2 33 0
v -1.875 33 -0.125
v -1.875 33 0
v -1.125 33 -1
v -1.125 33 -0.875
v -1 33 -1
v -1 33 -0.875
v -1.125 33 -0.125
v -1.125 33 0
v -1 33 -0.125
v -1 33 0
v -2 34.875 -1
v -2 34.875 0
v -1 34.875 -1
v -1 34.875 0
v -2 34 -1
v -2 34 -0.875
v -1.875 34 -1
v -1.875 34 -0.875
v -2 34 -0.125
v -2 34 0
v -1.875 34 -0.125
v -1.875 34 0
v -1.125 34 -1
v -1.125 34 -0.875
v -1 34 -1
v -1 34 -0.875
v -1.125 34 -0.125
v -1.125 34 0
v -1 34 -0.125
v -1 34 0
v -2 35.875 -1
v -2 35.875 0
v -1 35.875 -1
v -1 35.875 0
v -2 35 -1
v -2 35 -0.875
v -1.875 35 -1
v -1.875 35 -0.875
v -2 35 -0.125
v -2 35 0
v -1.875 35 -0.125
v -1.875 35 0
v -1.125 35 -1
v -1.125 35 -0.875
v -1 35 -1
v -1 35 -0.875
v -1.125 35 -0.125
v -1.125 35 0
v -1 35 -0.125
v -1 35 0
v -2 36.875 -1
v -2 36.875 0
v -1 36.875 -1
v -1 36.875 0
v -2 36 -1
v -2 36 -0.875
v -1.875 36 -1
v -1.875 36 -0.875
v -2 36 -0.125
v -2 36 0
v -1.875 36 -0.125
v -1.875 36 0
v -1.125 36 -1
v -1.125 36 -0.875
v -1 36 -1
v -1 36 -0.875
v -1.125 36 -0.125
v -1.125 36 0
v -1 36 -0.125
v -1 36 0
v 2 21.875 -1
v 2 21.875 0
v 3 21.875 -1
v 3 21.875 0
v 2 21 -1
v 2 21 -0.875
v 2.125 21 -1
v 2.125 21 -0.875
v 2 21 -0.125
v 2 21 0
v 2.125 21 -0.125
v 2.125 21 0
v 2.875 21 -1
v 2.875 21 -0.875
v 3 21 -1
v 3 21 -0.875
v 2.875 21 -0.125
v 2.875 21 0
v 3 21 -0.125
v 3 21 0
v 2 22.875 -1
v 2 22.875 0
v 3 22.875 -1
v 3 22.875 0
v 2 22 -1
v 2 22 -0.875
v 2.125 22 -1
v 2.125 22 -0.875
v 2 22 -0.125
v 2 22 0
v 2.125 22 -0.125
v 2.125 22 0
v 2.875 22 -1
v 2.875 22 -0.875
v 3 22 -1
v 3 22 -0.875
v 2.875 22 -0.125
v 2.875 22 0
v 3 22 -0.125
v 3 22 0
v 2 23.875 -1
v 2 23.875 0
v 3 23.875 -1
v 3 23.875 0
v 2 23 -1
v 2 23 -0.875
v 2.125 23 -1
v 2.125 23 -0.875
v 2 23 -0.125
v 2 23 0
v 2.125 23 -0.125
v 2.125 23 0
v 2.875 23 -1
v 2.875 23 -0.875
v 3 23 -1
v 3 23 -0.875
v 2.875 23 -0.125
v 2.875 23 0
v 3 23 -0.125
v 3 23 0
v 2 24.875 -1
v 2 24.875 0
v 3 24.875 -1
v 3 24.875 0
v 2 24 -1
v 2 24 -0.875
v 2.125 24 -1
v 2.125 24 -0.875
v 2 24 -0.125
v 2 24 0
v 2.125 24 -0.125
v 2.125 24 0
v 2.875 24 -1
v 2.875 24 -0.875
v 3 24 -1
v 3 24 -0.875
v 2.875 24 -0.125
v 2.875 24 0
v 3 24 -0.125
v 3 24 0
v 2 25.875 -1
v 2 25.875 0
v 3 25.875 -1
v 3 25.875 0
v 2 25 -1
v 2 25 -0.875
v 2.125 25 -1
v 2.125 25 -0.875
v 2 25 -0.125
v 2 25 0
v 2.125 25 -0.125
v 2.125 25 0
v 2.875 25 -1
v 2.875 25 -0.875
v 3 25 -1
v 3 25 -0.875
v 2.875 25 -0.125
v 2.875 25 0
v 3 25 -0.125
v 3 25 0
vt 0.000000000 0.000000000
vt 0.125000000 0.000000000
vt 0.875000000 0.000000000
vt 1.000000000 0.000000000
vt 0.000000000 0.125000000
vt 0.125000000 0.125000000
vt 0.875000000 0.125000000
vt 1.000000000 0.125000000
vt 0.000000000 0.875000000
vt 0.125000000 0.875000000
vt 0.875000000 0.875000000
vt 1.000000000 0.875000000
vt 0.000000000 1.000000000
vt 0.125000000 1.000000000
vt 0.875000000 1.000000000
vt 1.000000000 1.000000000
vn 0 -1 0
f 2/13/1 1/1/1 3/4/1 4/16/1
f 6/13/1 5/9/1 7/10/1 8/14/1
f 10/5/1 9/1/1 11/2/1 12/6/1
f 14/15/1 13/11/1 15/12/1 16/16/1
f 18/7/1 17/3/1 19/4/1 20/8/1
f 22/13/1 21/1/1 23/4/1 24/16/1
f 26/13/1 25/9/1 27/10/1 28/14/1
f 30/5/1 29/1/1 31/2/1 32/6/1
f 34/15/1 33/11/1 35/12/1 36/16/1
f 38/7/1 37/3/1 39/4/1 40/8/1
f 42/13/1 41/1/1 43/4/1 44/16/1
f 46/13/1 45/9/1 47/10/1 48/14/1
f 50/5/1 49/1/1 51/2/1 52/6/1
f 54/15/1 53/11/1 55/12/1 56/16/1
f 58/7/1 57/3/1 59/4/1 60/8/1
f 62/13/1 61/1/1 63/4/1 64/16/1
f 66/13/1 65/9/1 67/10/1 68/14/1
f 70/5/1 69/1/1 71/2/1 72/6/1
f 74/15/1 73/11/1 75/12/1 76/16/1
f 78/7/1 77/3/1 79/4/1 80/8/1
f 82/13/1 81/1/1 83/4/1 84/16/1
f 86/13/1 85/9/1 87/10/1 88/14/1
f 90/5/1 89/1/1 91/2/1 92/6/1
f 94/15/1 93/11/1 95/12/1 96/16/1
f 98/7/1 97/3/1 99/4/1 100/8/1
f 102/13/1 101/1/1 103/4/1 104/16/1
f 106/13/1 105/9/1 107/10/1 108/14/1
f 110/5/1 109/1/1 111/2/1 112/6/1
f 114/15/1 113/11/1 115/12/1 116/16/1
f 118/7/1 117/3/1 119/4/1 120/8/1
f 122/13/1 121/1/1 123/4/1 124/16/1
f 126/13/1 125/9/1 127/10/1 128/14/1
f 130/5/1 129/1/1 131/2/1 132/6/1
f 134/15/1 133/11/1 135/12/1 136/16/1
f 138/7/1 137/3/1 139/4/1 140/8/1
f 142/13/1 141/1/1 143/4/1 144/16/1
f 146/13/1 145/9/1 147/10/1 148/14/1
f 150/5/1 149/1/1 151/2/1 152/6/1
f 154/15/1 153/11/1 155/12/1 156/16/1
f 158/7/1 157/3/1 159/4/1 160/8/1
f 162/13/1 161/1/1 163/4/1 164/16/1
f 166/13/1 165/9/1 167/10/1 168/14/1
f 170/5/1 169/1/1 171/2/1 172/6/1
f 174/15/1 173/11/1 175/12/1 176/16/1
f 178/7/1 177/3/1 179/4/1 180/8/1
f 182/13/1 181/1/1 183/4/1 184/16/1
f 186/13/1 185/9/1 187/10/1 188/14/1
f 190/5/1 189/1/1 191/2/1 192/6/1
f 194/15/1 193/11/1 195/12/1 196/16/1
f 198/7/1 197/3/1 199/4/1 200/8/1
f 202/13/1 201/1/1 203/4/1 204/16/1
f 206/13/1 205/9/1 207/10/1 208/14/1
f 210/5/1 209/1/1 211/2/1 212/6/1
f 214/15/1 213/11/1 215/12/1 216/16/1
f 218/7/1 217/3/1 219/4/1 220/8/1
f 222/13/1 221/1/1 223/4/1 224/16/1
f 226/13/1 225/9/1 227/10/1 228/14/1
f 230/5/1 229/1/1 231/2/1 232/6/1
f 234/15/1 233/11/1 235/12/1 236/16/1
f 238/7/1 237/3/1 239/4/1 240/8/1
