mtllib lighthouse.mtl
usemtl obsidian
v 0.125 16 1.125
v 0.125 16 1.875
v 0.125 16.1875 1.125
v 0.125 16.1875 1.875
v 0.875 16 1.125
v 0.875 16 1.875
v 0.875 16.1875 1.125
v 0.875 16.1875 1.875
vt 0.125000000 0.000000000
vt 0.875000000 0.000000000
vt 0.125000000 0.125000000
vt 0.875000000 0.125000000
vt 0.125000000 0.187500000
vt 0.875000000 0.187500000
vt 0.125000000 0.875000000
vt 0.875000000 0.875000000
vn -1 0 0
vn 0 -1 0
vn 0 0 -1
vn 1 0 0
vn 0 1 0
vn 0 0 1
f 3/5/1 1/1/1 2/2/1 4/6/1
f 2/7/2 1/3/2 5/4/2 6/8/2
f 7/5/3 5/1/3 1/2/3 3/6/3
f 7/6/4 8/5/4 6/1/4 5/2/4
f 7/8/5 3/7/5 4/3/5 8/4/5
f 8/6/6 4/5/6 2/1/6 6/2/6
