mtllib lighthouse.mtl
usemtl birch_log
v 2.67678 10 5.5
v 2.5 10 5.32323
v 2.67678 10.5833 5.5
v 2.5 10.5833 5.32323
v 2.5 10 5.67678
v 2.32323 10 5.5
v 2.5 10.5833 5.67678
v 2.32323 10.5833 5.5
vt 0.312500000 0.000000000
vt 0.687500000 0.000000000
vt 0.312500000 0.875000000
vt 0.687500000 0.875000000
vn -0.707107 0 -0.707107
vn -0.707107 0 0.707107
vn 0.707107 0 -0.707107
vn 0.707107 0 0.707107
f 4/4/3 3/3/3 1/1/3 2/2/3
f 3/4/4 7/3/4 5/1/4 1/2/4
f 7/4/2 8/3/2 6/1/2 5/2/2
f 4/3/1 2/1/1 6/2/1 8/4/1
