mtllib lighthouse.mtl
usemtl iron_block
v -1 15 0
v 0 15 0
v -1 15 1
v 0 15 1
v -1 16 1
v -1 16 0
v 0 16 0
v 0 16 1
v -1 15 2
v 0 15 2
v -1 16 2
v 0 16 2
v -1 15 3
v 0 15 3
v -1 16 3
v 0 16 3
v 1 12 -1
v 1 12 -2
v 1 13 -2
v 1 13 -1
v 1 15 1
v 1 15 0
v 1 16 0
v 1 16 1
v 1 15 2
v 1 16 2
v 1 15 3
v 1 16 3
v 2 14 -2
v 2 15 -2
v 2 16 -2
v 2 12 -1
v 2 12 -2
v 2 13 -2
v 2 13 -1
v 2 15 1
v 2 15 0
v 2 16 0
v 2 16 1
v 2 15 2
v 2 16 2
v 2 17 2
v 2 17 1
v 2 18 1
v 2 18 2
v 2 15 3
v 2 16 3
v 3 14 -2
v 3 15 -2
v 3 16 -2
v 2 14 -1
v 3 13 -1
v 3 13 -2
v 3 14 -1
v 2 15 -1
v 2 16 -1
v 3 15 -1
v 3 16 -1
v 3 15 0
v 3 16 0
v 2 17 0
v 3 16 1
v 3 17 0
v 3 17 1
v 3 16 2
v 3 17 2
v 3 18 1
v 3 18 2
vt 0.000000000 0.000000000
vt 1.000000000 0.000000000
vt 0.000000000 1.000000000
vt 1.000000000 1.000000000
vn -1 0 0
vn 0 -1 0
vn 0 0 -1
vn 1 0 0
vn 0 1 0
vn 0 0 1
f 3/2/1 5/4/1 6/3/1 1/1/1
f 3/3/2 1/1/2 2/2/2 4/4/2
f 1/2/3 6/4/3 7/3/3 2/1/3
f 4/1/4 2/2/4 7/4/4 8/3/4
f 5/1/5 8/2/5 7/4/5 6/3/5
f 3/1/6 4/2/6 8/4/6 5/3/6
f 9/2/1 11/4/1 5/3/1 3/1/1
f 9/3/2 3/1/2 4/2/2 10/4/2
f 3/2/3 5/4/3 8/3/3 4/1/3
f 10/1/4 4/2/4 8/4/4 12/3/4
f 11/1/5 12/2/5 8/4/5 5/3/5
f 9/1/6 10/2/6 12/4/6 11/3/6
f 13/2/1 15/4/1 11/3/1 9/1/1
f 13/3/2 9/1/2 10/2/2 14/4/2
f 9/2/3 11/4/3 12/3/3 10/1/3
f 14/1/4 10/2/4 12/4/4 16/3/4
f 15/1/5 16/2/5 12/4/5 11/3/5
f 13/1/6 14/2/6 16/4/6 15/3/6
f 4/2/1 8/4/1 7/3/1 2/1/1
f 4/3/2 2/1/2 22/2/2 21/4/2
f 2/2/3 7/4/3 23/3/3 22/1/3
f 21/1/4 22/2/4 23/4/4 24/3/4
f 8/1/5 24/2/5 23/4/5 7/3/5
f 4/1/6 21/2/6 24/4/6 8/3/6
f 10/2/1 12/4/1 8/3/1 4/1/1
f 10/3/2 4/1/2 21/2/2 25/4/2
f 4/2/3 8/4/3 24/3/3 21/1/3
f 25/1/4 21/2/4 24/4/4 26/3/4
f 12/1/5 26/2/5 24/4/5 8/3/5
f 10/1/6 25/2/6 26/4/6 12/3/6
f 14/2/1 16/4/1 12/3/1 10/1/1
f 14/3/2 10/1/2 25/2/2 27/4/2
f 10/2/3 12/4/3 26/3/3 25/1/3
f 27/1/4 25/2/4 26/4/4 28/3/4
f 16/1/5 28/2/5 26/4/5 12/3/5
f 14/1/6 27/2/6 28/4/6 16/3/6
f 17/2/1 20/4/1 19/3/1 18/1/1
f 17/3/2 18/1/2 33/2/2 32/4/2
f 18/2/3 19/4/3 34/3/3 33/1/3
f 32/1/4 33/2/4 34/4/4 35/3/4
f 20/1/5 35/2/5 34/4/5 19/3/5
f 17/1/6 32/2/6 35/4/6 20/3/6
f 21/2/1 24/4/1 23/3/1 22/1/1
f 21/3/2 22/1/2 37/2/2 36/4/2
f 22/2/3 23/4/3 38/3/3 37/1/3
f 36/1/4 37/2/4 38/4/4 39/3/4
f 24/1/5 39/2/5 38/4/5 23/3/5
f 21/1/6 36/2/6 39/4/6 24/3/6
f 25/2/1 26/4/1 24/3/1 21/1/1
f 25/3/2 21/1/2 36/2/2 40/4/2
f 21/2/3 24/4/3 39/3/3 36/1/3
f 40/1/4 36/2/4 39/4/4 41/3/4
f 26/1/5 41/2/5 39/4/5 24/3/5
f 25/1/6 40/2/6 41/4/6 26/3/6
f 27/2/1 28/4/1 26/3/1 25/1/1
f 27/3/2 25/1/2 40/2/2 46/4/2
f 25/2/3 26/4/3 41/3/3 40/1/3
f 46/1/4 40/2/4 41/4/4 47/3/4
f 28/1/5 47/2/5 41/4/5 26/3/5
f 27/1/6 46/2/6 47/4/6 28/3/6
f 35/2/1 51/4/1 29/3/1 34/1/1
f 35/3/2 34/1/2 53/2/2 52/4/2
f 34/2/3 29/4/3 48/3/3 53/1/3
f 52/1/4 53/2/4 48/4/4 54/3/4
f 51/1/5 54/2/5 48/4/5 29/3/5
f 35/1/6 52/2/6 54/4/6 51/3/6
f 55/2/1 56/4/1 31/3/1 30/1/1
f 55/3/2 30/1/2 49/2/2 57/4/2
f 30/2/3 31/4/3 50/3/3 49/1/3
f 57/1/4 49/2/4 50/4/4 58/3/4
f 56/1/5 58/2/5 50/4/5 31/3/5
f 55/1/6 57/2/6 58/4/6 56/3/6
f 37/2/1 38/4/1 56/3/1 55/1/1
f 37/3/2 55/1/2 57/2/2 59/4/2
f 55/2/3 56/4/3 58/3/3 57/1/3
f 59/1/4 57/2/4 58/4/4 60/3/4
f 38/1/5 60/2/5 58/4/5 56/3/5
f 37/1/6 59/2/6 60/4/6 38/3/6
f 39/2/1 43/4/1 61/3/1 38/1/1
f 39/3/2 38/1/2 60/2/2 62/4/2
f 38/2/3 61/4/3 63/3/3 60/1/3
f 62/1/4 60/2/4 63/4/4 64/3/4
f 43/1/5 64/2/5 63/4/5 61/3/5
f 39/1/6 62/2/6 64/4/6 43/3/6
f 41/2/1 42/4/1 43/3/1 39/1/1
f 41/3/2 39/1/2 62/2/2 65/4/2
f 39/2/3 43/4/3 64/3/3 62/1/3
f 65/1/4 62/2/4 64/4/4 66/3/4
f 42/1/5 66/2/5 64/4/5 43/3/5
f 41/1/6 65/2/6 66/4/6 42/3/6
f 42/2/1 45/4/1 44/3/1 43/1/1
f 42/3/2 43/1/2 64/2/2 66/4/2
f 43/2/3 44/4/3 67/3/3 64/1/3
f 66/1/4 64/2/4 67/4/4 68/3/4
f 45/1/5 68/2/5 67/4/5 44/3/5
f 42/1/6 66/2/6 68/4/6 45/3/6
