mtllib lighthouse.mtl
usemtl packed_mud
v -3 8 7
v -3 9 7
v -3 8 8
v -3 9 8
v -2 8 7
v -2 9 7
v -2 8 8
v -2 9 8
v -2 8 9
v -2 9 9
v -1 8 7
v -1 9 7
v -1 8 8
v -1 9 8
v -1 8 9
v -1 9 9
v 0 8 12
v 0 9 12
v 0 8 13
v 0 9 13
v 1 8 9
v 1 9 9
v 1 8 10
v 1 9 10
v 1 8 12
v 1 9 12
v 1 8 13
v 1 9 13
v 2 8 8
v 2 9 8
v 2 8 9
v 2 9 9
v 2 8 10
v 2 9 10
v 2 8 11
v 2 9 11
v 2 8 12
v 2 9 12
v 2 8 13
v 2 9 13
v 2 8 15
v 2 9 15
v 2 8 16
v 2 9 16
v 3 7 6
v 3 8 6
v 3 9 6
v 3 7 7
v 3 8 7
v 3 9 7
v 3 8 8
v 3 9 8
v 3 8 9
v 3 9 9
v 3 8 10
v 3 9 10
v 3 8 11
v 3 9 11
v 3 8 12
v 3 9 12
v 3 8 13
v 3 9 13
v 3 8 15
v 3 9 15
v 3 8 16
v 3 9 16
v 4 7 6
v 4 8 6
v 4 9 6
v 4 7 7
v 4 8 7
v 4 9 7
v 4 8 8
v 4 9 8
vt 0.000000000 0.000000000
vt 1.000000000 0.000000000
vt 0.000000000 1.000000000
vt 1.000000000 1.000000000
vn -1 0 0
vn 0 -1 0
vn 0 0 -1
vn 1 0 0
vn 0 1 0
vn 0 0 1
f 3/2/1 4/4/1 2/3/1 1/1/1
f 3/3/2 1/1/2 5/2/2 7/4/2
f 1/2/3 2/4/3 6/3/3 5/1/3
f 7/1/4 5/2/4 6/4/4 8/3/4
f 4/1/5 8/2/5 6/4/5 2/3/5
f 3/1/6 7/2/6 8/4/6 4/3/6
f 7/2/1 8/4/1 6/3/1 5/1/1
f 7/3/2 5/1/2 11/2/2 13/4/2
f 5/2/3 6/4/3 12/3/3 11/1/3
f 13/1/4 11/2/4 12/4/4 14/3/4
f 8/1/5 14/2/5 12/4/5 6/3/5
f 7/1/6 13/2/6 14/4/6 8/3/6
f 9/2/1 10/4/1 8/3/1 7/1/1
f 9/3/2 7/1/2 13/2/2 15/4/2
f 7/2/3 8/4/3 14/3/3 13/1/3
f 15/1/4 13/2/4 14/4/4 16/3/4
f 10/1/5 16/2/5 14/4/5 8/3/5
f 9/1/6 15/2/6 16/4/6 10/3/6
f 19/2/1 20/4/1 18/3/1 17/1/1
f 19/3/2 17/1/2 25/2/2 27/4/2
f 17/2/3 18/4/3 26/3/3 25/1/3
f 27/1/4 25/2/4 26/4/4 28/3/4
f 20/1/5 28/2/5 26/4/5 18/3/5
f 19/1/6 27/2/6 28/4/6 20/3/6
f 23/2/1 24/4/1 22/3/1 21/1/1
f 23/3/2 21/1/2 31/2/2 33/4/2
f 21/2/3 22/4/3 32/3/3 31/1/3
f 33/1/4 31/2/4 32/4/4 34/3/4
f 24/1/5 34/2/5 32/4/5 22/3/5
f 23/1/6 33/2/6 34/4/6 24/3/6
f 31/2/1 32/4/1 30/3/1 29/1/1
f 31/3/2 29/1/2 51/2/2 53/4/2
f 29/2/3 30/4/3 52/3/3 51/1/3
f 53/1/4 51/2/4 52/4/4 54/3/4
f 32/1/5 54/2/5 52/4/5 30/3/5
f 31/1/6 53/2/6 54/4/6 32/3/6
f 35/2/1 36/4/1 34/3/1 33/1/1
f 35/3/2 33/1/2 55/2/2 57/4/2
f 33/2/3 34/4/3 56/3/3 55/1/3
f 57/1/4 55/2/4 56/4/4 58/3/4
f 36/1/5 58/2/5 56/4/5 34/3/5
f 35/1/6 57/2/6 58/4/6 36/3/6
f 39/2/1 40/4/1 38/3/1 37/1/1
f 39/3/2 37/1/2 59/2/2 61/4/2
f 37/2/3 38/4/3 60/3/3 59/1/3
f 61/1/4 59/2/4 60/4/4 62/3/4
f 40/1/5 62/2/5 60/4/5 38/3/5
f 39/1/6 61/2/6 62/4/6 40/3/6
f 43/2/1 44/4/1 42/3/1 41/1/1
f 43/3/2 41/1/2 63/2/2 65/4/2
f 41/2/3 42/4/3 64/3/3 63/1/3
f 65/1/4 63/2/4 64/4/4 66/3/4
f 44/1/5 66/2/5 64/4/5 42/3/5
f 43/1/6 65/2/6 66/4/6 44/3/6
f 48/2/1 49/4/1 46/3/1 45/1/1
f 48/3/2 45/1/2 67/2/2 70/4/2
f 45/2/3 46/4/3 68/3/3 67/1/3
f 70/1/4 67/2/4 68/4/4 71/3/4
f 49/1/5 71/2/5 68/4/5 46/3/5
f 48/1/6 70/2/6 71/4/6 49/3/6
f 49/2/1 50/4/1 47/3/1 46/1/1
f 49/3/2 46/1/2 68/2/2 71/4/2
f 46/2/3 47/4/3 69/3/3 68/1/3
f 71/1/4 68/2/4 69/4/4 72/3/4
f 50/1/5 72/2/5 69/4/5 47/3/5
f 49/1/6 71/2/6 72/4/6 50/3/6
f 51/2/1 52/4/1 50/3/1 49/1/1
f 51/3/2 49/1/2 71/2/2 73/4/2
f 49/2/3 50/4/3 72/3/3 71/1/3
f 73/1/4 71/2/4 72/4/4 74/3/4
f 52/1/5 74/2/5 72/4/5 50/3/5
f 51/1/6 73/2/6 74/4/6 52/3/6
