mtllib lighthouse.mtl
usemtl red_sandstone_top
v 3 33 14
v 3 33 15
v 4 33 14
v 4 33 15
v 4 34.5 13
v 4 34.5 14
v 5 34.5 13
v 5 34.5 14
v 4 37 13
v 4 37 14
v 5 37 13
v 5 37 14
v 4 37.5 13
v 4 37.5 14
v 5 37.5 13
v 5 37.5 14
v 6 35 8
v 6 35 9
v 7 35 8
v 7 35 9
v 7 35 9
v 7 35 10
v 8 35 9
v 8 35 10
v 7 35.5 9
v 7 35.5 10
v 8 35.5 9
v 8 35.5 10
v 7 36.5 11
v 7 36.5 12
v 8 36.5 11
v 8 36.5 12
v 8 36.5 8
v 8 36.5 9
v 9 36.5 8
v 9 36.5 9
v 8 38 10
v 8 38 11
v 9 38 10
v 9 38 11
v 9 35 7
v 9 35 8
v 10 35 7
v 10 35 8
v 9 37.5 9
v 9 37.5 10
v 10 37.5 9
v 10 37.5 10
v 9 35 11
v 9 35 12
v 10 35 11
v 10 35 12
v 9 35.5 11
v 9 35.5 12
v 10 35.5 11
v 10 35.5 12
v 10 35 7
v 10 35 8
v 11 35 7
v 11 35 8
v 10 37.5 8
v 10 37.5 9
v 11 37.5 8
v 11 37.5 9
v 10 36.5 10
v 10 36.5 11
v 11 36.5 10
v 11 36.5 11
v 10 35 12
v 10 35 13
v 11 35 12
v 11 35 13
v 11 36.5 7
v 11 36.5 8
v 12 36.5 7
v 12 36.5 8
v 11 35 8
v 11 35 9
v 12 35 8
v 12 35 9
v 11 35 9
v 11 35 10
v 12 35 9
v 12 35 10
v 3 38 14
v 3 38 13
v 4 38 13
v 4 38 14
v 4 34 14
v 4 34 13
v 5 34 13
v 5 34 14
v 5 35 13
v 5 35 10
v 5 35 9
v 6 35 9
v 6 35 10
v 5 35 12
v 6 35 12
v 6 35 13
v 6 36 12
v 6 36 13
v 7 35 12
v 7 35 13
v 7 36 12
v 7 36 13
v 7 35 11
v 7 35 10
v 8 35 10
v 8 35 11
v 7 36 11
v 8 36 10
v 8 36 11
v 8 35 12
v 8 36 12
v 8 35 13
v 8 36 13
v 8 35 9
v 8 36 9
v 8 36 8
v 9 35 9
v 9 35 8
v 9 36 8
v 9 36 9
v 9 35 10
v 9 36 10
v 9 35 11
v 9 36 11
v 9 35 12
v 10 35 8
v 10 36 7
v 10 36 8
v 10 35 9
v 9 37 9
v 9 37 8
v 10 36 9
v 10 37 8
v 10 37 9
v 10 35 10
v 10 36 10
v 9 37 10
v 10 37 10
v 10 35 11
v 10 36 11
v 9 35 14
v 9 35 13
v 10 35 13
v 10 35 14
v 11 35 8
v 11 36 7
v 11 36 8
v 10 37 7
v 11 37 7
v 11 37 8
v 11 35 9
v 11 36 9
v 11 37 9
v 11 35 10
v 11 36 10
v 11 37 10
v 11 36 11
v 12 36 7
v 12 36 8
v 12 36 9
v 12 37 8
v 12 37 9
vt 0.000000000 0.000000000
vt 1.000000000 0.000000000
vt 0.000000000 1.000000000
vt 1.000000000 1.000000000
vn 0 1 0
f 3/4/1 1/3/1 2/1/1 4/2/1
f 7/4/1 5/3/1 6/1/1 8/2/1
f 11/4/1 9/3/1 10/1/1 12/2/1
f 15/4/1 13/3/1 14/1/1 16/2/1
f 19/4/1 17/3/1 18/1/1 20/2/1
f 23/4/1 21/3/1 22/1/1 24/2/1
f 27/4/1 25/3/1 26/1/1 28/2/1
f 31/4/1 29/3/1 30/1/1 32/2/1
f 35/4/1 33/3/1 34/1/1 36/2/1
f 39/4/1 37/3/1 38/1/1 40/2/1
f 43/4/1 41/3/1 42/1/1 44/2/1
f 47/4/1 45/3/1 46/1/1 48/2/1
f 51/4/1 49/3/1 50/1/1 52/2/1
f 55/4/1 53/3/1 54/1/1 56/2/1
f 59/4/1 57/3/1 58/1/1 60/2/1
f 63/4/1 61/3/1 62/1/1 64/2/1
f 67/4/1 65/3/1 66/1/1 68/2/1
f 71/4/1 69/3/1 70/1/1 72/2/1
f 75/4/1 73/3/1 74/1/1 76/2/1
f 79/4/1 77/3/1 78/1/1 80/2/1
f 83/4/1 81/3/1 82/1/1 84/2/1
f 85/1/1 88/2/1 87/4/1 86/3/1
f 89/1/1 92/2/1 91/4/1 90/3/1
f 94/1/1 97/2/1 96/4/1 95/3/1
f 93/1/1 100/2/1 99/4/1 98/3/1
f 100/1/1 104/2/1 103/4/1 99/3/1
f 102/1/1 106/2/1 105/4/1 101/3/1
f 107/1/1 110/2/1 109/4/1 108/3/1
f 103/1/1 114/2/1 110/4/1 107/3/1
f 105/1/1 115/2/1 113/4/1 111/3/1
f 104/1/1 116/2/1 114/4/1 103/3/1
f 106/1/1 117/2/1 115/4/1 105/3/1
f 119/1/1 124/2/1 123/4/1 120/3/1
f 109/1/1 125/2/1 121/4/1 118/3/1
f 112/1/1 126/2/1 124/4/1 119/3/1
f 110/1/1 127/2/1 125/4/1 109/3/1
f 113/1/1 128/2/1 126/4/1 112/3/1
f 114/1/1 129/2/1 127/4/1 110/3/1
f 121/1/1 133/2/1 130/4/1 122/3/1
f 134/1/1 138/2/1 137/4/1 135/3/1
f 125/1/1 139/2/1 133/4/1 121/3/1
f 126/1/1 140/2/1 136/4/1 124/3/1
f 141/1/1 142/2/1 138/4/1 134/3/1
f 127/1/1 143/2/1 139/4/1 125/3/1
f 128/1/1 144/2/1 140/4/1 126/3/1
f 145/1/1 148/2/1 147/4/1 146/3/1
f 132/1/1 151/2/1 150/4/1 131/3/1
f 137/1/1 154/2/1 153/4/1 152/3/1
f 133/1/1 155/2/1 149/4/1 130/3/1
f 138/1/1 157/2/1 154/4/1 137/3/1
f 139/1/1 158/2/1 155/4/1 133/3/1
f 142/1/1 160/2/1 157/4/1 138/3/1
f 144/1/1 161/2/1 159/4/1 140/3/1
f 151/1/1 163/2/1 162/4/1 150/3/1
f 156/1/1 164/2/1 163/4/1 151/3/1
f 157/1/1 166/2/1 165/4/1 154/3/1
